<svg width="56" height="55" viewBox="0 0 56 55" fill="none" xmlns="http://www.w3.org/2000/svg">
<rect x="0.5" y="0.5" width="55" height="54" stroke="#C9CACA"/>
<path d="M36.568 22.82L37.456 23.684C36.016 25.58 34.384 26.996 32.536 27.908C34.12 30.164 36.112 31.868 38.512 32.996L37.768 34.1C33.664 32.06 30.736 28.364 28.984 23.036L28.672 23.204V32.516C28.672 33.956 27.928 34.7 26.44 34.7H24.184L23.848 33.452C24.472 33.476 25.192 33.5 25.96 33.5C26.92 33.5 27.424 33.02 27.424 32.06V22.46C29.896 21.236 31.696 20.252 32.8 19.532H20.704V18.284H34.816V19.532C33.328 20.54 31.696 21.548 29.92 22.532C30.448 24.188 31.12 25.652 31.912 26.948C33.544 26.108 35.104 24.74 36.568 22.82ZM18.232 24.02H25.384V25.124C23.92 28.82 21.472 31.82 18.04 34.148L17.272 33.068C20.368 31.076 22.624 28.484 24.064 25.268H18.232V24.02ZM17.728 36.404H38.296V37.676H17.728V36.404Z" fill="black"/>
</svg>
