<svg width="56" height="55" viewBox="0 0 56 55" fill="none" xmlns="http://www.w3.org/2000/svg">
<rect x="0.5" y="0.5" width="55" height="54" stroke="#C9CACA"/>
<path d="M23.9057 20.2866V23.0967C23.9057 23.3467 24.0057 23.5866 24.1757 23.7566C24.3457 23.9266 24.5857 24.0266 24.8357 24.0266C25.0857 24.0266 25.3257 23.9266 25.4957 23.7566C25.6757 23.5766 25.7657 23.3467 25.7657 23.0967V20.2866C25.7657 20.0366 25.6657 19.7967 25.4957 19.6267C25.3257 19.4567 25.0857 19.3567 24.8357 19.3567C24.5857 19.3567 24.3557 19.4567 24.1757 19.6267C23.9957 19.8067 23.9057 20.0366 23.9057 20.2866Z" fill="black"/>
<path d="M9.87573 23.0566C11.7457 28.6666 14.6657 31.4466 16.9357 32.8066C18.5757 33.8466 20.4657 34.4065 22.4157 34.4365C22.5157 34.4365 22.6157 34.4067 22.7057 34.3767C24.2457 33.7867 26.8657 31.5966 25.8157 27.5266C25.6857 27.0266 25.1757 26.7267 24.6757 26.8567C24.1757 26.9867 23.8757 27.4966 24.0057 27.9966C24.8057 31.0766 22.7457 32.2967 22.1757 32.5767C21.0857 32.5567 14.8357 32.0166 11.6757 22.5466C12.1657 22.2066 12.5257 21.7165 12.7257 21.1565H21.8357C22.2757 21.1565 22.6457 20.8565 22.7457 20.4365C22.7957 20.2365 23.9257 15.7066 28.5257 15.0566C27.9057 18.8166 27.5457 22.6065 27.4557 26.4165C27.3057 35.3065 29.2357 40.3766 33.1857 41.4866C33.9957 41.7266 34.8357 41.8567 35.6757 41.8767C36.9157 41.9467 38.1157 41.4466 38.9457 40.5166C40.4857 38.7066 40.2457 35.4465 39.4557 32.4165C41.2557 33.9565 43.5757 35.1367 45.9557 34.0967C47.8757 33.2667 48.9857 30.8265 48.7857 27.8965C48.4357 22.7565 44.2057 16.1765 33.4057 13.1565C32.9157 13.0165 32.3957 13.3066 32.2557 13.8066C32.1157 14.2966 32.4057 14.8165 32.9057 14.9565C42.7757 17.7265 46.6157 23.5266 46.9257 28.0266C47.0657 30.1266 46.3757 31.8767 45.2157 32.3867C41.7857 33.8767 37.7257 27.5966 37.6857 27.5366C37.4257 27.1166 36.8857 26.9765 36.4457 27.2065C36.0157 27.4465 35.8357 27.9765 36.0457 28.4165C37.8857 32.3665 39.0257 37.5266 37.5157 39.3066C36.8457 40.0866 35.5557 40.2165 33.6857 39.6965C27.4557 37.9465 29.3157 20.7166 30.5657 14.2266C30.6157 13.9566 30.5457 13.6665 30.3657 13.4565C30.1857 13.2465 29.9257 13.1167 29.6457 13.1167C24.5357 13.1167 21.9757 16.8166 21.1257 19.2866H12.7157C12.3757 18.2966 11.5157 17.5765 10.4757 17.4165C9.44572 17.2565 8.39572 17.6766 7.76572 18.5066C7.13572 19.3366 7.01573 20.4565 7.44573 21.4065C7.88573 22.3565 8.81573 22.9866 9.85573 23.0566H9.87573Z" fill="black"/>
</svg>
