<svg width="56" height="55" viewBox="0 0 56 55" fill="none" xmlns="http://www.w3.org/2000/svg">
<rect x="0.5" y="0.5" width="55" height="54" stroke="#C9CACA"/>
<path d="M41.38 18.76C41.08 18.3 40.46 18.17 40 18.47C39.54 18.77 39.41 19.3901 39.71 19.8501C40.15 20.5101 40.51 21.2102 40.83 21.9302L38.67 23.5H30.37C29.61 23.5 29 24.1201 29 24.8701V25.49H27V24.8701C27 24.1101 26.38 23.5 25.63 23.5H17.33L15.17 21.9202C17.33 16.9702 22.27 13.5 28 13.5C28.59 13.5 29.22 13.5501 29.97 13.6501C30.51 13.7301 31.02 13.35 31.1 12.8C31.18 12.25 30.8 11.7502 30.25 11.6702C29.41 11.5502 28.69 11.5 28 11.5C19.18 11.5 12 18.68 12 27.5C12 36.32 19.18 43.5 28 43.5C36.82 43.5 44 36.32 44 27.5C44 24.39 43.1 21.36 41.39 18.75L41.38 18.76ZM28 41.52C20.28 41.52 14 35.24 14 27.52C14 26.27 14.18 25.0702 14.49 23.9202L16 25.03V27.02C16 30.05 18.47 32.52 21.5 32.52C24.37 32.52 26.73 30.31 26.98 27.51H29.03C29.28 30.31 31.64 32.52 34.51 32.52C37.54 32.52 40.01 30.05 40.01 27.02V25.03L41.53 23.9202C41.84 25.0902 42.01 26.3 42.01 27.52C42.01 35.24 35.73 41.52 28.01 41.52H28Z" fill="#C9CACA"/>
<path d="M31.16 34.96C30.52 35.93 29.44 36.5101 28.28 36.5101H28C27.45 36.5101 27 36.9601 27 37.5101C27 38.0601 27.45 38.5101 28 38.5101H28.28C30.11 38.5101 31.81 37.6002 32.83 36.0702C33.14 35.6102 33.01 34.9903 32.55 34.6803C32.09 34.3703 31.47 34.5 31.16 34.96Z" fill="#C9CACA"/>
<path d="M32.59 16.5401C33.69 17.1401 34.47 17.9002 34.96 18.8702C35.16 19.2702 35.56 19.5101 36 19.5101H36.01C36.45 19.5101 36.85 19.2501 37.05 18.8501C37.57 17.7901 38.31 17.0401 39.33 16.5601C39.73 16.3701 39.99 15.9701 40 15.5301C40 15.0901 39.77 14.68 39.37 14.47C38.3 13.91 37.54 13.1602 37.05 12.1702C36.85 11.7602 36.44 11.5101 35.99 11.5201C35.54 11.5201 35.14 11.78 34.95 12.2C34.51 13.13 33.74 13.88 32.6 14.48C32.22 14.68 31.98 15.0801 31.97 15.5101C31.96 15.9401 32.2 16.3401 32.58 16.5501L32.59 16.5401ZM36.01 14.2601C36.37 14.7101 36.78 15.13 37.26 15.49C36.78 15.86 36.35 16.2901 35.98 16.7801C35.61 16.3201 35.18 15.9001 34.69 15.5301C35.2 15.1501 35.65 14.7201 36.01 14.2601Z" fill="#C9CACA"/>
</svg>
