<svg width="56" height="55" viewBox="0 0 56 55" fill="none" xmlns="http://www.w3.org/2000/svg">
<g clip-path="url(#clip0_28_82)">
<path d="M55.5 0.5H0.5V54.5H55.5V0.5Z" stroke="#C9CACA"/>
<path d="M27.9701 16.2402C24.3201 16.2402 21.3701 19.1903 21.3701 22.8403C21.3701 26.4903 24.3201 29.4399 27.9701 29.4399C31.6201 29.4399 34.5701 26.4903 34.5701 22.8403C34.5701 19.2003 31.6101 16.2402 27.9701 16.2402ZM27.9701 27.5C25.4001 27.5 23.3101 25.4103 23.3101 22.8403C23.3101 20.2703 25.4001 18.1801 27.9701 18.1801C30.5401 18.1801 32.6301 20.2703 32.6301 22.8403C32.6301 25.4103 30.5401 27.5 27.9701 27.5Z" fill="#C9CACA"/>
<path d="M28 10.0298C18.35 10.0298 10.53 17.8496 10.53 27.4996C10.53 37.1496 18.35 44.9698 28 44.9698C37.65 44.9698 45.47 37.1496 45.47 27.4996C45.46 17.8596 37.64 10.0398 28 10.0298ZM17.17 38.6197C18.76 34.6797 23.12 31.9698 28 31.9698C32.88 31.9698 37.24 34.6797 38.83 38.6197C32.81 44.5097 23.19 44.5097 17.17 38.6197ZM40.24 37.0396C38.11 32.8396 33.31 30.0298 28 30.0298C22.69 30.0298 17.89 32.8496 15.76 37.0396C10.48 30.2796 11.69 20.5198 18.45 15.2398C25.21 9.95977 34.97 11.1697 40.25 17.9297C44.63 23.5497 44.63 31.4196 40.25 37.0396H40.24Z" fill="#C9CACA"/>
<path d="M5.392 8.22382H9.16L9.388 7.71982C8.272 7.76782 7.072 7.80382 5.8 7.80382L5.464 6.78382C8.836 6.78382 11.692 6.55582 14.032 6.11182L14.608 7.09582C13.456 7.33582 12.124 7.51582 10.6 7.63582C10.528 7.83982 10.456 8.03182 10.384 8.22382H14.656V9.27982H9.892C9.796 9.44782 9.7 9.62782 9.604 9.79582H15.352V10.8998H8.86C8.716 11.0798 8.584 11.2478 8.452 11.4038H14.236V17.2718H13.048V16.8278H7.948V17.2718H6.76V13.1078C6.232 13.5518 5.68 13.9718 5.104 14.3798L4.432 13.2998C5.56 12.5318 6.52 11.7398 7.312 10.8998H4.744V9.79582H8.212C8.332 9.62782 8.452 9.44782 8.572 9.27982H5.392V8.22382ZM7.948 13.8518V14.3438H13.048V13.8518H7.948ZM13.048 12.9158V12.4118H7.948V12.9158H13.048ZM7.948 15.2798V15.8198H13.048V15.2798H7.948ZM17.668 6.24382C18.46 6.87982 19.144 7.51582 19.696 8.13982L18.82 9.00382C18.352 8.40382 17.68 7.74382 16.816 7.04782L17.668 6.24382ZM24.508 17.0798C23.848 17.0798 23.128 17.0678 22.36 17.0558C21.58 17.0438 20.944 16.9718 20.44 16.8398C19.96 16.6958 19.54 16.4198 19.18 16.0118C19.012 15.7958 18.868 15.6998 18.736 15.6998C18.496 15.6998 18.088 16.2398 17.488 17.3198L16.564 16.4558C17.164 15.4958 17.692 14.8838 18.172 14.6198V11.3318H16.588V10.1798H19.336V14.7518C19.384 14.7878 19.42 14.8358 19.468 14.8838C19.744 15.2198 20.02 15.4718 20.308 15.6398C20.656 15.8198 21.184 15.9158 21.892 15.9398C22.588 15.9518 23.404 15.9638 24.34 15.9638C24.94 15.9638 25.54 15.9518 26.152 15.9398C26.752 15.9278 27.22 15.9038 27.556 15.8798L27.268 17.0798H24.508ZM24.172 9.18382H24.136V10.7438H22.936V9.18382H22.888C22.312 10.0718 21.436 10.8158 20.236 11.4158L19.624 10.3958C20.548 10.0598 21.256 9.65182 21.76 9.18382H20.152V8.10382H22.936V7.59982C22.24 7.63582 21.496 7.65982 20.728 7.65982L20.392 6.68782C22.552 6.68782 24.388 6.51982 25.9 6.20782L26.452 7.15582C25.768 7.31182 25 7.43182 24.136 7.51582V8.10382H26.92V9.18382H25.3C25.864 9.61582 26.608 9.99982 27.52 10.3358L26.98 11.3558C25.828 10.8158 24.892 10.0958 24.172 9.18382ZM20.932 11.0798H25.588V11.6318C25.516 11.9198 25.432 12.1958 25.348 12.4358H26.848V13.0358C26.728 14.1758 26.548 14.8718 26.308 15.1358C26.068 15.3878 25.708 15.5318 25.252 15.5558C24.856 15.5558 24.364 15.5678 23.764 15.5678L23.404 14.4398C23.92 14.5118 24.304 14.5598 24.568 14.5598C24.904 14.5598 25.168 14.4998 25.348 14.3798C25.492 14.2838 25.612 13.9598 25.696 13.4078H23.944C24.088 13.0238 24.22 12.6158 24.328 12.1838H23.008C22.816 13.6958 21.976 14.7998 20.5 15.4958L19.84 14.4398C20.992 13.9838 21.664 13.2398 21.856 12.1838H20.932V11.0798ZM28.54 10.9718H39.448V12.2198H28.54V10.9718ZM46.984 8.00782H44.812V6.79582H51.268C51.268 10.9718 51.208 13.5518 51.088 14.5238C50.944 16.1798 50.26 17.0078 49.06 17.0078C48.784 17.0078 48.316 16.9838 47.644 16.9358L47.332 15.7958C47.92 15.8318 48.424 15.8558 48.844 15.8558C49.444 15.8558 49.78 15.2078 49.876 13.9358C49.948 13.3598 49.984 11.3918 50.008 8.00782H48.232V8.94382C48.184 12.7838 46.936 15.5798 44.5 17.3558L43.456 16.4318C45.772 14.8718 46.948 12.3758 46.984 8.94382V8.00782ZM45.376 8.71582L45.58 9.92782L43.084 10.4078V13.6478C43.672 13.3838 44.26 13.0838 44.848 12.7478L45.16 13.8878C44.188 14.4998 42.964 15.0518 41.5 15.5438L41.14 14.3318C41.584 14.1398 41.812 13.8518 41.812 13.4438V10.6478L40.528 10.8998L40.336 9.67582L41.812 9.38782V6.31582H43.084V9.14782L45.376 8.71582Z" fill="black"/>
</g>
<defs>
<clipPath id="clip0_28_82">
<rect width="56" height="55" fill="white"/>
</clipPath>
</defs>
</svg>
