<svg width="56" height="55" viewBox="0 0 56 55" fill="none" xmlns="http://www.w3.org/2000/svg">
<rect x="0.5" y="0.5" width="55" height="54" fill="black"/>
<rect x="0.5" y="0.5" width="55" height="54" stroke="#C9CACA"/>
<path d="M8.94105 31.6598C8.33026 31.6574 7.80469 31.5071 7.36435 31.2088C6.92637 30.9105 6.58902 30.4785 6.35227 29.9126C6.1179 29.3468 6.00189 28.6662 6.00426 27.8707C6.00426 27.0777 6.12145 26.4018 6.35582 25.843C6.59257 25.2843 6.92992 24.8594 7.3679 24.5682C7.80824 24.2746 8.33262 24.1278 8.94105 24.1278C9.54948 24.1278 10.0727 24.2746 10.5107 24.5682C10.951 24.8617 11.2895 25.2879 11.5263 25.8466C11.763 26.4029 11.8802 27.0777 11.8778 27.8707C11.8778 28.6686 11.7595 29.3504 11.5227 29.9162C11.2884 30.482 10.9522 30.9141 10.5142 31.2124C10.0762 31.5107 9.55185 31.6598 8.94105 31.6598ZM8.94105 30.3849C9.35772 30.3849 9.69034 30.1754 9.93892 29.7564C10.1875 29.3374 10.3106 28.7088 10.3082 27.8707C10.3082 27.3191 10.2514 26.8598 10.1378 26.4929C10.0265 26.1259 9.8679 25.8501 9.66193 25.6655C9.45833 25.4808 9.21804 25.3885 8.94105 25.3885C8.52675 25.3885 8.19531 25.5956 7.94673 26.0099C7.69815 26.4242 7.57268 27.0445 7.57031 27.8707C7.57031 28.4295 7.62595 28.8958 7.73722 29.2699C7.85085 29.6416 8.01065 29.9209 8.21662 30.108C8.42259 30.2926 8.66406 30.3849 8.94105 30.3849ZM13.0666 31.5L16.0815 25.5341V25.4844H12.5694V24.2273H17.6724V25.5021L14.6539 31.5H13.0666ZM19.2828 30.6548C19.0485 30.6548 18.8472 30.572 18.6792 30.4062C18.5134 30.2405 18.4306 30.0393 18.4306 29.8026C18.4306 29.5705 18.5134 29.3717 18.6792 29.206C18.8472 29.0402 19.0485 28.9574 19.2828 28.9574C19.5101 28.9574 19.709 29.0402 19.8794 29.206C20.0499 29.3717 20.1351 29.5705 20.1351 29.8026C20.1351 29.9588 20.0949 30.102 20.0144 30.2322C19.9363 30.3601 19.8333 30.4631 19.7054 30.5412C19.5776 30.617 19.4367 30.6548 19.2828 30.6548ZM19.2828 27.0859C19.0485 27.0859 18.8472 27.0031 18.6792 26.8374C18.5134 26.6716 18.4306 26.4704 18.4306 26.2337C18.4306 26.0017 18.5134 25.804 18.6792 25.6406C18.8472 25.4749 19.0485 25.392 19.2828 25.392C19.5101 25.392 19.709 25.4749 19.8794 25.6406C20.0499 25.804 20.1351 26.0017 20.1351 26.2337C20.1351 26.3923 20.0949 26.5367 20.0144 26.6669C19.9363 26.7947 19.8333 26.8965 19.7054 26.9723C19.5776 27.0481 19.4367 27.0859 19.2828 27.0859ZM24.0192 31.5994C23.5173 31.5994 23.0698 31.5071 22.6768 31.3224C22.2862 31.1378 21.9761 30.8833 21.7464 30.5589C21.5168 30.2346 21.3973 29.8629 21.3878 29.4439H22.8793C22.8958 29.7256 23.0142 29.9541 23.2344 30.1293C23.4545 30.3045 23.7161 30.392 24.0192 30.392C24.2607 30.392 24.4737 30.3388 24.6584 30.2322C24.8454 30.1233 24.991 29.973 25.0952 29.7812C25.2017 29.5871 25.255 29.3646 25.255 29.1136C25.255 28.858 25.2005 28.633 25.0916 28.4389C24.9851 28.2448 24.8371 28.0933 24.6477 27.9844C24.4583 27.8755 24.2417 27.8198 23.9979 27.8175C23.7848 27.8175 23.5777 27.8613 23.3764 27.9489C23.1776 28.0365 23.0225 28.156 22.9112 28.3075L21.544 28.0625L21.8885 24.2273H26.3345V25.4844H23.1562L22.968 27.3061H23.0107C23.1385 27.1262 23.3314 26.977 23.5895 26.8587C23.8475 26.7403 24.1364 26.6811 24.456 26.6811C24.8939 26.6811 25.2846 26.7841 25.6278 26.9901C25.9711 27.196 26.2422 27.4789 26.4411 27.8388C26.6399 28.1963 26.7382 28.6082 26.7358 29.0746C26.7382 29.5646 26.6245 30.0002 26.3949 30.3814C26.1676 30.7602 25.8492 31.0585 25.4396 31.2763C25.0324 31.4917 24.5589 31.5994 24.0192 31.5994ZM30.4396 24.1278C30.8137 24.1278 31.1735 24.1906 31.5192 24.3161C31.8672 24.4415 32.1773 24.6416 32.4496 24.9162C32.7242 25.1908 32.9408 25.5554 33.0994 26.0099C33.2604 26.4621 33.3421 27.0173 33.3445 27.6754C33.3445 28.2933 33.2746 28.8449 33.1349 29.3303C32.9976 29.8132 32.8 30.224 32.5419 30.5625C32.2839 30.901 31.9725 31.1591 31.608 31.3366C31.2434 31.5118 30.8362 31.5994 30.3864 31.5994C29.901 31.5994 29.4725 31.5059 29.1009 31.3189C28.7292 31.1295 28.4297 30.8726 28.2024 30.5483C27.9775 30.2216 27.8414 29.8546 27.794 29.4474H29.3104C29.3696 29.7126 29.4938 29.9186 29.6832 30.0653C29.8726 30.2098 30.107 30.282 30.3864 30.282C30.8598 30.282 31.2197 30.076 31.4659 29.6641C31.7121 29.2498 31.8364 28.6828 31.8388 27.9631H31.7891C31.6802 28.1761 31.5334 28.3596 31.3487 28.5135C31.1641 28.665 30.9522 28.7822 30.7131 28.8651C30.4763 28.9479 30.2242 28.9893 29.9567 28.9893C29.5282 28.9893 29.1458 28.8887 28.8097 28.6875C28.4735 28.4863 28.2083 28.2093 28.0142 27.8565C27.8201 27.5038 27.723 27.1013 27.723 26.6491C27.7206 26.1615 27.8331 25.727 28.0604 25.3459C28.2876 24.9647 28.6049 24.6664 29.0121 24.451C29.4216 24.2332 29.8975 24.1255 30.4396 24.1278ZM30.4503 25.3352C30.2112 25.3352 29.9981 25.392 29.8111 25.5057C29.6264 25.6193 29.4796 25.772 29.3707 25.9638C29.2642 26.1555 29.2121 26.3698 29.2145 26.6065C29.2145 26.8456 29.2666 27.0611 29.3707 27.2528C29.4773 27.4422 29.6217 27.5937 29.804 27.7074C29.9886 27.8187 30.1993 27.8743 30.4361 27.8743C30.6136 27.8743 30.7782 27.8411 30.9297 27.7749C31.0812 27.7086 31.2126 27.6174 31.3239 27.5014C31.4375 27.383 31.5263 27.2469 31.5902 27.093C31.6541 26.9392 31.6861 26.7758 31.6861 26.603C31.6837 26.3733 31.6293 26.1626 31.5227 25.9709C31.4162 25.7791 31.2694 25.6252 31.0824 25.5092C30.8954 25.3932 30.6847 25.3352 30.4503 25.3352ZM35.3082 30.6548C35.0739 30.6548 34.8726 30.572 34.7045 30.4062C34.5388 30.2405 34.456 30.0393 34.456 29.8026C34.456 29.5705 34.5388 29.3717 34.7045 29.206C34.8726 29.0402 35.0739 28.9574 35.3082 28.9574C35.5355 28.9574 35.7344 29.0402 35.9048 29.206C36.0753 29.3717 36.1605 29.5705 36.1605 29.8026C36.1605 29.9588 36.1203 30.102 36.0398 30.2322C35.9616 30.3601 35.8587 30.4631 35.7308 30.5412C35.603 30.617 35.4621 30.6548 35.3082 30.6548ZM35.3082 27.0859C35.0739 27.0859 34.8726 27.0031 34.7045 26.8374C34.5388 26.6716 34.456 26.4704 34.456 26.2337C34.456 26.0017 34.5388 25.804 34.7045 25.6406C34.8726 25.4749 35.0739 25.392 35.3082 25.392C35.5355 25.392 35.7344 25.4749 35.9048 25.6406C36.0753 25.804 36.1605 26.0017 36.1605 26.2337C36.1605 26.3923 36.1203 26.5367 36.0398 26.6669C35.9616 26.7947 35.8587 26.8965 35.7308 26.9723C35.603 27.0481 35.4621 27.0859 35.3082 27.0859ZM40.0446 31.5994C39.5427 31.5994 39.0952 31.5071 38.7022 31.3224C38.3116 31.1378 38.0015 30.8833 37.7718 30.5589C37.5422 30.2346 37.4226 29.8629 37.4132 29.4439H38.9047C38.9212 29.7256 39.0396 29.9541 39.2598 30.1293C39.4799 30.3045 39.7415 30.392 40.0446 30.392C40.286 30.392 40.4991 30.3388 40.6838 30.2322C40.8708 30.1233 41.0164 29.973 41.1206 29.7812C41.2271 29.5871 41.2804 29.3646 41.2804 29.1136C41.2804 28.858 41.2259 28.633 41.117 28.4389C41.0105 28.2448 40.8625 28.0933 40.6731 27.9844C40.4837 27.8755 40.2671 27.8198 40.0233 27.8175C39.8102 27.8175 39.603 27.8613 39.4018 27.9489C39.2029 28.0365 39.0479 28.156 38.9366 28.3075L37.5694 28.0625L37.9139 24.2273H42.3599V25.4844H39.1816L38.9934 27.3061H39.036C39.1639 27.1262 39.3568 26.977 39.6149 26.8587C39.8729 26.7403 40.1618 26.6811 40.4814 26.6811C40.9193 26.6811 41.31 26.7841 41.6532 26.9901C41.9965 27.196 42.2676 27.4789 42.4664 27.8388C42.6653 28.1963 42.7636 28.6082 42.7612 29.0746C42.7636 29.5646 42.6499 30.0002 42.4203 30.3814C42.193 30.7602 41.8746 31.0585 41.465 31.2763C41.0578 31.4917 40.5843 31.5994 40.0446 31.5994ZM46.465 24.1278C46.8391 24.1278 47.1989 24.1906 47.5446 24.3161C47.8926 24.4415 48.2027 24.6416 48.475 24.9162C48.7496 25.1908 48.9662 25.5554 49.1248 26.0099C49.2858 26.4621 49.3675 27.0173 49.3699 27.6754C49.3699 28.2933 49.3 28.8449 49.1603 29.3303C49.023 29.8132 48.8253 30.224 48.5673 30.5625C48.3092 30.901 47.9979 31.1591 47.6333 31.3366C47.2688 31.5118 46.8616 31.5994 46.4118 31.5994C45.9264 31.5994 45.4979 31.5059 45.1262 31.3189C44.7546 31.1295 44.4551 30.8726 44.2278 30.5483C44.0029 30.2216 43.8668 29.8546 43.8194 29.4474H45.3358C45.3949 29.7126 45.5192 29.9186 45.7086 30.0653C45.898 30.2098 46.1324 30.282 46.4118 30.282C46.8852 30.282 47.2451 30.076 47.4913 29.6641C47.7375 29.2498 47.8618 28.6828 47.8642 27.9631H47.8145C47.7056 28.1761 47.5588 28.3596 47.3741 28.5135C47.1895 28.665 46.9776 28.7822 46.7385 28.8651C46.5017 28.9479 46.2496 28.9893 45.9821 28.9893C45.5536 28.9893 45.1712 28.8887 44.835 28.6875C44.4989 28.4863 44.2337 28.2093 44.0396 27.8565C43.8455 27.5038 43.7484 27.1013 43.7484 26.6491C43.746 26.1615 43.8585 25.727 44.0858 25.3459C44.313 24.9647 44.6303 24.6664 45.0375 24.451C45.447 24.2332 45.9229 24.1255 46.465 24.1278ZM46.4757 25.3352C46.2366 25.3352 46.0235 25.392 45.8365 25.5057C45.6518 25.6193 45.505 25.772 45.3961 25.9638C45.2896 26.1555 45.2375 26.3698 45.2399 26.6065C45.2399 26.8456 45.292 27.0611 45.3961 27.2528C45.5027 27.4422 45.6471 27.5937 45.8294 27.7074C46.014 27.8187 46.2247 27.8743 46.4615 27.8743C46.639 27.8743 46.8036 27.8411 46.9551 27.7749C47.1066 27.7086 47.238 27.6174 47.3493 27.5014C47.4629 27.383 47.5517 27.2469 47.6156 27.093C47.6795 26.9392 47.7115 26.7758 47.7115 26.603C47.7091 26.3733 47.6547 26.1626 47.5481 25.9709C47.4416 25.7791 47.2948 25.6252 47.1078 25.5092C46.9208 25.3932 46.71 25.3352 46.4757 25.3352Z" fill="white"/>
</svg>
