<svg width="56" height="55" viewBox="0 0 56 55" fill="none" xmlns="http://www.w3.org/2000/svg">
<rect x="0.5" y="0.5" width="55" height="54" stroke="#C9CACA"/>
<path fill-rule="evenodd" clip-rule="evenodd" d="M28 41.9001C35.95 41.9001 42.4 35.45 42.4 27.5C42.4 19.55 35.95 13.1001 28 13.1001C20.05 13.1001 13.6 19.55 13.6 27.5C13.6 35.45 20.05 41.9001 28 41.9001ZM21.38 23.3301C22.26 22.4901 23.58 22.1399 23.58 21.6799C23.58 20.8099 21.81 21.5899 20.76 22.4299C19.8 23.1999 18.44 25.9401 18.79 26.0901C19.06 26.2501 20.09 24.5501 21.37 23.3301H21.38ZM32.38 29.5C31.7 29.5 30.04 29.8502 30.04 29.1602C30.04 28.2002 30.92 27.8201 32.5 27.8201C34.08 27.8201 35.38 28.83 35.38 29.51C35.38 30.24 33.06 29.51 32.38 29.51V29.5ZM33.46 25.4299C32.25 25.4299 30.98 25.76 30.98 25.3C30.98 24.7 31.87 24.3801 33.46 24.3801C35.05 24.3801 37.63 25.84 37.63 26.52C37.63 27.25 35.26 25.4299 33.46 25.4299ZM28.28 36.8301C31.31 36.8301 31.78 33.3 31.78 33.3C31.78 33.1 30.7 34.9102 28.28 34.9102C25.86 34.9102 24.55 33.1 24.55 33.3C24.55 33.3 25.25 36.8301 28.28 36.8301ZM24.05 30.5801C24.9 30.5801 25.59 29.5099 25.59 28.1799C25.59 26.8499 24.9 25.78 24.05 25.78C23.2 25.78 22.51 26.8499 22.51 28.1799C22.51 29.5099 23.2 30.5801 24.05 30.5801Z" fill="#B5B5B6"/>
</svg>
