<svg width="56" height="55" viewBox="0 0 56 55" fill="none" xmlns="http://www.w3.org/2000/svg">
<rect x="0.5" y="0.5" width="55" height="54" fill="#EAEBEB"/>
<rect x="0.5" y="0.5" width="55" height="54" stroke="#C9CACA"/>
<path d="M10.7792 46.342C11.0892 46.532 11.4392 46.622 11.7992 46.622C12.6992 46.622 13.7392 46.052 15.1792 45.262C15.5192 45.082 15.8792 44.8719 16.2692 44.6719C19.1092 43.1519 22.2792 44.0819 23.6992 45.0719C25.2292 46.1319 27.0992 45.9919 30.1392 44.5719C32.4892 43.4719 36.5492 44.6919 39.2992 46.0619C40.2692 46.5419 41.0192 46.7019 41.4492 46.5219C41.6092 46.4719 41.7292 46.362 41.8092 46.222V46.1819C41.8792 45.4019 42.8392 27.0819 42.1792 25.9019C41.7592 25.1419 41.2192 24.462 40.5892 23.872C40.5492 23.842 40.4992 23.832 40.4492 23.852C40.3992 23.872 40.3692 23.922 40.3692 23.972C40.3692 24.642 40.1492 40.4419 40.2992 41.6519C40.3992 42.4619 40.4492 43.4419 39.9692 43.8019C39.6492 44.0319 39.1092 43.962 38.3392 43.592C36.0392 42.472 27.2992 43.6519 26.0592 43.8319C26.0392 43.7619 26.0092 43.692 25.9592 43.632C25.6492 43.172 24.6192 42.5319 21.4192 42.0719C17.4392 41.5019 14.0792 43.322 12.6492 44.102C12.4592 44.222 12.2592 44.3219 12.0492 44.4019C11.8992 44.4419 11.8492 44.4019 11.8192 44.4019C11.5892 44.2119 11.6692 43.162 11.7592 42.102C11.9392 40.082 10.0392 24.8219 9.9692 24.1719C9.9692 24.1719 9.9392 24.0919 9.8992 24.0719C9.8592 24.0519 9.81921 24.0519 9.77921 24.0719C9.30921 24.3019 8.92921 24.6919 8.70921 25.1619C8.57921 25.5419 8.79921 30.9519 9.13921 35.6919C9.63921 42.4019 10.1792 46.002 10.7792 46.352V46.342ZM8.97921 25.2119C9.13921 24.8519 9.4192 24.552 9.7592 24.352C9.9792 26.172 11.6992 40.1719 11.5192 42.0419C11.3692 43.7619 11.3992 44.3319 11.6692 44.5519C11.7992 44.6519 11.9792 44.682 12.1392 44.622C12.3692 44.532 12.5792 44.4219 12.7892 44.3019C14.1992 43.5319 17.5092 41.7319 21.3992 42.3019C25.9092 42.9619 25.8292 43.9219 25.8292 43.9319C25.8192 43.9719 25.8292 44.0219 25.8592 44.0519C25.8892 44.0819 25.9292 44.102 25.9792 44.092C26.0792 44.092 35.8792 42.6619 38.2392 43.8119C39.0992 44.2419 39.7292 44.292 40.1392 44.002C40.7392 43.572 40.6792 42.512 40.5692 41.622C40.4292 40.522 40.5992 26.5019 40.6292 24.2819C41.1492 24.8019 41.5992 25.3919 41.9592 26.0419C42.4692 26.9819 41.8592 40.8519 41.5792 46.1519C41.5192 46.2219 41.4492 46.2819 41.3592 46.3019C41.0892 46.4019 40.4992 46.392 39.4192 45.852C38.4092 45.342 33.1892 42.882 30.0392 44.352C27.0892 45.732 25.2892 45.882 23.8492 44.872C21.5392 43.372 18.6192 43.2119 16.1592 44.4419L15.0692 45.0319C13.0692 46.1319 11.9692 46.752 10.9292 46.122C10.7492 46.022 10.1092 44.9519 9.4392 35.6719C9.0592 30.4619 8.8992 25.542 8.9992 25.222L8.97921 25.2119ZM32.3592 21.1619C28.9292 21.2519 25.3792 23.452 25.3492 23.472C25.3092 23.492 25.2592 23.492 25.2292 23.472C20.5992 21.192 11.0692 23.252 10.5392 23.472C10.5392 23.472 10.4892 23.472 10.4692 23.472C10.4492 23.472 10.4192 23.472 10.3992 23.472C10.3692 23.452 10.3492 23.4219 10.3492 23.3919C10.3492 23.3519 10.3492 23.3219 10.3692 23.2919C10.5792 22.9819 20.6192 20.9819 25.2892 23.2119C25.7792 22.9219 29.1192 20.9919 32.3592 20.9019C32.4292 20.9019 32.4892 20.9519 32.4892 21.0219C32.4892 21.0619 32.4792 21.092 32.4592 21.112C32.4392 21.142 32.3992 21.1519 32.3692 21.1519L32.3592 21.1619ZM33.3192 24.4519C33.3192 24.4519 33.3092 24.382 33.2792 24.362C33.2592 24.332 33.2192 24.3219 33.1892 24.3219C32.5492 24.3219 32.1392 24.1919 32.0092 23.9519C31.9692 23.8819 31.9492 23.7919 31.9592 23.7119L32.0892 23.2819C32.1092 23.2219 32.0792 23.152 32.0192 23.122C31.9592 23.092 31.8892 23.1219 31.8592 23.1719C31.7692 23.3219 31.7192 23.4819 31.6992 23.6519L30.5792 27.0419C30.5792 27.0419 30.5792 27.1319 30.6092 27.1719L31.7392 28.372C31.7392 28.372 31.7992 28.4119 31.8292 28.4119L31.8692 28.372L35.5492 26.7119C35.6092 26.6819 35.6392 26.6319 35.6292 26.5719C35.6192 26.5119 35.5692 26.472 35.5092 26.472C35.0492 26.442 34.7492 26.3319 34.6492 26.1419C34.5792 26.0119 34.5792 25.8519 34.6492 25.7119C34.6692 25.6719 34.6692 25.6219 34.6492 25.5819C34.6292 25.5419 34.5792 25.5219 34.5392 25.5219C34.1892 25.5419 33.8492 25.4219 33.5992 25.1819C33.4292 24.9819 33.3392 24.7319 33.3292 24.4619L33.3192 24.4519ZM34.4392 26.2719C34.5792 26.4819 34.7992 26.6119 35.0392 26.6519L31.8692 28.102L30.8692 27.0419L31.8292 24.122C32.0292 24.402 32.4492 24.5519 33.0792 24.5519C33.0992 24.8519 33.2192 25.132 33.4192 25.352C33.6692 25.612 34.0092 25.7619 34.3692 25.7819C34.3292 25.9419 34.3592 26.112 34.4392 26.262V26.2719ZM30.4092 27.882L30.0792 28.972L31.1192 28.3319C31.1792 28.2919 31.2592 28.312 31.2992 28.372C31.3392 28.432 31.3192 28.5119 31.2592 28.5519L29.9292 29.372C29.9292 29.372 29.8792 29.3919 29.8592 29.3919C29.8292 29.3919 29.7992 29.392 29.7792 29.362C29.7292 29.332 29.7092 29.282 29.7192 29.232L30.1492 27.8219C30.1492 27.8219 30.1792 27.762 30.2092 27.742C30.2392 27.722 30.2792 27.722 30.3092 27.742C30.3692 27.762 30.4092 27.8319 30.3892 27.8919H30.4092V27.882ZM46.1492 15.1519C46.1492 15.2219 46.1492 15.262 36.1392 26.002C36.1392 26.002 36.0792 26.0419 36.0492 26.0419C36.0192 26.0419 35.9892 26.032 35.9592 26.012C35.9292 25.992 35.9192 25.9519 35.9192 25.9219C35.9192 25.8919 35.9292 25.8519 35.9592 25.8319C39.1892 22.3619 45.2192 15.8819 45.8692 15.1419C45.5292 14.6719 43.4692 12.1419 43.0492 11.7119C42.2692 12.4619 35.4992 19.6219 32.8492 22.4419C32.7992 22.4919 32.7192 22.5019 32.6692 22.4419C32.6192 22.3919 32.6192 22.312 32.6692 22.262C42.8792 11.432 42.9692 11.4319 43.0492 11.4319C43.2692 11.4319 46.1492 15.1219 46.1492 15.1619V15.1519ZM43.0692 13.3019C43.0692 13.3019 43.1192 13.432 43.0692 13.482L34.0092 23.8219C34.0092 23.8219 33.9492 23.872 33.9092 23.872C33.8792 23.872 33.8492 23.8619 33.8192 23.8319C33.7692 23.7819 33.7692 23.7019 33.8192 23.6519L42.9092 13.3119C42.9092 13.3119 43.0192 13.2719 43.0592 13.3019H43.0692ZM34.9992 25.002L44.5592 14.5419C44.5592 14.5419 44.6092 14.492 44.6492 14.482C44.6892 14.482 44.7292 14.482 44.7492 14.512C44.7692 14.542 44.7892 14.572 44.7892 14.612C44.7892 14.652 44.7692 14.6819 44.7392 14.7119L35.1792 25.1719C35.1792 25.1719 35.1192 25.2119 35.0792 25.2119C35.0492 25.2119 35.0192 25.2019 34.9892 25.1819C34.9392 25.1319 34.9292 25.052 34.9892 25.002H34.9992ZM47.3092 14.092C47.3592 14.242 47.3092 14.4119 47.1992 14.5219C46.9692 14.7419 46.6592 14.8819 46.3392 14.9219C46.3092 14.9219 46.2892 14.9219 46.2592 14.9219C46.1892 14.9019 46.1492 14.8319 46.1692 14.7719C46.1692 14.7419 46.1992 14.7119 46.2292 14.6919C46.2592 14.6719 46.2992 14.6719 46.3292 14.6719C46.5992 14.6319 46.8392 14.5119 47.0392 14.3219C47.0792 14.2919 47.0692 14.1919 47.0392 14.1519C46.8892 13.2319 44.7392 10.8919 44.3292 10.7719C44.0892 10.6919 43.8192 10.8019 43.6992 11.0319C43.6692 11.0919 43.5892 11.1119 43.5292 11.0819C43.4692 11.0519 43.4392 10.9819 43.4692 10.9119C43.6392 10.5719 44.0392 10.4119 44.3992 10.5219C44.9292 10.6719 47.1092 13.132 47.3092 14.092ZM41.7092 9.80191C41.6692 9.74191 41.6792 9.67199 41.7392 9.63199C41.7692 9.61199 41.7992 9.61197 41.8292 9.61197C42.3892 9.57197 42.9192 9.88188 43.1592 10.3919C43.1892 10.4519 43.1592 10.5319 43.0992 10.5619C43.0792 10.5619 43.0592 10.5619 43.0392 10.5619C42.9892 10.5619 42.9392 10.532 42.9192 10.492C42.7392 10.072 42.2992 9.81196 41.8392 9.85196C41.7892 9.86196 41.7292 9.85192 41.6892 9.81192H41.6992L41.7092 9.80191ZM43.4492 9.9119C43.3892 9.4919 43.1592 9.11198 42.8092 8.87198C42.7692 8.85198 42.7392 8.81189 42.7292 8.77189C42.7192 8.70189 42.7592 8.63198 42.8292 8.62198C42.8792 8.61198 42.9192 8.6219 42.9492 8.6619C43.3692 8.9519 43.6392 9.4019 43.6992 9.9119C43.6992 9.9419 43.6992 9.98199 43.6692 10.002C43.6492 10.032 43.6192 10.0419 43.5792 10.0419C43.5392 10.0419 43.4992 10.032 43.4792 10.002C43.4492 9.97199 43.4392 9.94189 43.4392 9.90189L43.4492 9.9119ZM44.5092 9.68192C44.5092 9.68192 44.5192 9.7519 44.5092 9.7819C44.4992 9.8119 44.4692 9.84196 44.4392 9.85196C44.4192 9.85196 44.4092 9.85196 44.3892 9.85196C44.3392 9.85196 44.2892 9.82189 44.2692 9.77189C44.0892 9.25189 44.3092 8.68189 44.7792 8.40189C44.8092 8.38189 44.8392 8.37199 44.8792 8.38199C44.9092 8.38199 44.9392 8.41192 44.9592 8.43192C44.9992 8.49192 44.9892 8.57197 44.9292 8.61197C44.5392 8.81197 44.3592 9.27192 44.5092 9.68192ZM25.9492 35.362C25.9492 35.362 25.8792 35.3419 25.8592 35.3119C25.8392 35.2819 25.8292 35.2519 25.8292 35.2119C25.9492 34.1919 25.4292 25.442 25.4292 25.342C25.4292 25.272 25.4792 25.2119 25.5492 25.2019C25.6192 25.2019 25.6792 25.2519 25.6892 25.3219C25.7092 25.6819 26.2092 34.182 26.0892 35.222C26.0892 35.222 26.0692 35.2919 26.0492 35.3119C26.0192 35.3319 25.9892 35.352 25.9492 35.342V35.362ZM25.6292 39.9519C25.7992 39.2519 25.7992 38.5119 25.6292 37.8019C25.6092 37.7319 25.6492 37.6619 25.7192 37.6419C25.7492 37.6419 25.7892 37.6419 25.8192 37.6519C25.8492 37.6719 25.8692 37.702 25.8792 37.732C26.0692 38.482 26.0692 39.2719 25.8792 40.0219C25.8592 40.0819 25.8092 40.112 25.7592 40.112H25.7292C25.7292 40.112 25.6592 40.0819 25.6492 40.0419C25.6292 40.0119 25.6292 39.9719 25.6492 39.9319L25.6292 39.9519ZM16.6492 29.222C16.3592 30.192 16.7492 30.7019 17.0392 30.9419C14.4692 31.9419 14.8392 34.092 14.8492 34.112C14.8592 34.172 14.9092 34.2119 14.9692 34.2119H20.7292C20.7992 34.2119 20.8492 34.162 20.8592 34.102C21.1092 32.312 19.7092 31.372 19.1892 31.102C19.7292 30.582 19.4492 29.6319 19.2692 29.0519C19.0192 28.5619 18.4992 28.2619 17.9492 28.3019C17.3492 28.2719 16.8192 28.652 16.6492 29.232V29.222ZM17.9292 28.5219C18.3692 28.4919 18.7792 28.7119 18.9992 29.0819C19.2392 29.8519 19.4292 30.632 18.8592 30.982C18.8192 31.002 18.7992 31.052 18.7992 31.102C18.7992 31.152 18.8292 31.1919 18.8792 31.2119C18.9592 31.2419 20.7992 32.0319 20.5992 33.9419H15.0792C15.0492 33.5119 15.0792 31.8419 17.3692 31.0819C17.4192 31.0619 17.4592 31.0219 17.4592 30.9619C17.4592 30.9119 17.4292 30.862 17.3792 30.842C17.3492 30.842 16.5392 30.5019 16.8992 29.3019C17.0192 28.8219 17.4592 28.5019 17.9492 28.5219H17.9292ZM22.3592 35.862C22.3592 35.862 22.4092 35.8019 22.3992 35.7719V27.482C22.3992 27.482 22.3792 27.402 22.3392 27.382C19.1992 25.232 13.2492 26.9519 12.9992 27.0419C12.9392 27.0619 12.9092 27.1119 12.9092 27.1719L13.4292 37.0419C13.4292 37.0919 13.4692 37.1419 13.5192 37.1619H13.5592C13.5592 37.1619 13.6392 37.142 13.6692 37.102C14.9792 35.092 22.1792 35.9019 22.2492 35.9119C22.2892 35.9119 22.3292 35.902 22.3492 35.872L22.3592 35.862ZM22.1492 35.622C21.1292 35.512 15.3592 34.9919 13.6792 36.6819L13.1792 27.242C13.9692 27.032 19.3092 25.6719 22.1492 27.5319V35.622ZM12.9192 25.122C12.8992 25.052 12.9392 24.9819 13.0092 24.9619C13.0592 24.9319 17.6992 23.6519 21.9092 25.6419C21.9692 25.6719 21.9992 25.7519 21.9692 25.8119C21.9492 25.8619 21.8992 25.882 21.8492 25.882C21.8292 25.882 21.8092 25.882 21.7892 25.882C17.6692 23.922 13.1192 25.2019 13.0692 25.2119C13.0692 25.2119 12.9992 25.2119 12.9692 25.1919C12.9392 25.1719 12.9192 25.142 12.9092 25.112L12.9192 25.122ZM21.7492 37.6819C19.3792 36.8819 16.7792 37.122 14.5992 38.352C14.5792 38.352 14.5492 38.352 14.5292 38.352C14.4892 38.352 14.4492 38.3319 14.4192 38.2919C14.3792 38.2319 14.3992 38.152 14.4592 38.112C16.6992 36.842 19.3792 36.5919 21.8292 37.4119C21.8592 37.4119 21.8892 37.442 21.9092 37.472C21.9292 37.502 21.9292 37.5319 21.9092 37.5719C21.9092 37.6119 21.8792 37.6419 21.8492 37.6619C21.8192 37.6819 21.7792 37.6919 21.7392 37.6819H21.7492ZM21.7492 38.752C21.8092 38.782 21.8392 38.8619 21.8092 38.9219C21.7792 38.9819 21.6992 39.012 21.6392 38.982C20.9592 38.642 19.7192 38.4219 17.6792 39.2719C17.5792 39.3119 17.5592 39.3219 17.5292 39.3219C17.4592 39.3219 17.3992 39.2719 17.3892 39.2019C17.3892 39.1319 17.4392 39.0619 17.5092 39.0619L17.5892 39.0319C19.7292 38.1519 21.0392 38.392 21.7692 38.752H21.7492ZM38.2992 35.6919L38.0192 39.5219C38.0192 39.5219 37.9992 39.592 37.9692 39.612C37.9492 39.632 37.9192 39.6419 37.8892 39.6419H37.8692C37.7992 39.6419 30.3392 38.262 28.5792 38.862C28.5792 38.862 28.4892 38.882 28.4492 38.862C28.4192 38.832 28.3992 38.792 28.3992 38.752L28.7792 34.972C28.7792 34.902 28.8492 34.852 28.9192 34.852C28.9892 34.852 29.0392 34.922 29.0392 34.992L28.6792 38.5819C30.6292 38.1319 36.7292 39.192 37.7692 39.372L38.0392 35.762C36.4592 34.612 29.1192 34.2719 29.0492 34.2719C29.0492 34.2719 28.9792 34.252 28.9592 34.232C28.9392 34.202 28.9192 34.1719 28.9192 34.1419C28.9192 34.0719 28.9892 34.0219 29.0592 34.0219C29.3692 34.0219 36.7192 34.372 38.2492 35.612C38.2692 35.632 38.2792 35.6619 38.2792 35.6919H38.2992ZM30.2792 35.882C30.2792 35.882 30.2792 35.8119 30.3092 35.7819C30.3392 35.7519 30.3592 35.742 30.3992 35.732C30.5592 35.712 34.3092 35.3019 36.7292 36.5619C36.7892 36.5919 36.8092 36.672 36.7892 36.732C36.7692 36.772 36.7192 36.8019 36.6692 36.8019C36.6492 36.8019 36.6292 36.8019 36.6092 36.8019C34.2592 35.5819 30.4592 35.992 30.4292 36.002C30.3892 36.002 30.3592 35.992 30.3292 35.972C30.2992 35.942 30.2892 35.912 30.2892 35.882H30.2792ZM30.2792 37.132C30.4492 37.102 34.3792 36.4919 36.3492 37.9119C36.3792 37.9319 36.3992 37.962 36.3992 37.992C36.3992 38.022 36.3992 38.062 36.3792 38.092C36.3492 38.122 36.3192 38.1519 36.2792 38.1519C36.2492 38.1519 36.2292 38.142 36.1992 38.122C34.3392 36.762 30.3892 37.382 30.3492 37.382C30.3092 37.382 30.2792 37.382 30.2492 37.362C30.2192 37.342 30.1992 37.3119 30.1992 37.2719C30.1992 37.2019 30.2392 37.142 30.3092 37.132H30.2792ZM37.1492 32.5319C37.1492 32.5319 37.1992 32.572 37.2192 32.602C37.2292 32.632 37.2192 32.6719 37.2092 32.7019C37.1892 32.7419 37.1492 32.7719 37.0992 32.7719C37.0792 32.7719 37.0592 32.7719 37.0392 32.7719C34.8892 31.6919 31.9192 31.7119 31.8892 31.7119C31.8492 31.7119 31.8192 31.7019 31.7992 31.6719C31.7692 31.6519 31.7592 31.6119 31.7592 31.5819C31.7592 31.5519 31.7692 31.512 31.7992 31.492C31.8192 31.462 31.8592 31.4519 31.8892 31.4519C31.9392 31.4319 34.9492 31.4219 37.1692 32.5219H37.1592L37.1492 32.5319ZM38.0092 40.992C38.0092 40.992 38.0292 41.052 38.0192 41.092C38.0092 41.122 37.9892 41.1519 37.9592 41.1719C37.3992 41.4519 36.7792 41.602 36.1492 41.602C35.7192 41.602 35.2992 41.5319 34.8892 41.4019C34.3992 41.2019 33.8492 41.1619 33.3292 41.2919C32.9492 41.4119 32.5492 41.3719 32.1992 41.1819C31.4992 40.8819 30.7592 40.7119 29.9992 40.6819C29.9592 40.6819 29.9292 40.6719 29.9092 40.6419C29.8792 40.6119 29.8692 40.5819 29.8792 40.5519C29.8792 40.4819 29.9392 40.4319 30.0092 40.4219C30.7992 40.4519 31.5792 40.6319 32.3092 40.9519C32.6092 41.1119 32.9592 41.1519 33.2792 41.0419C33.8392 40.9019 34.4392 40.9419 34.9692 41.1619C35.9292 41.4719 36.9692 41.3919 37.8692 40.9519C37.9292 40.9219 37.9992 40.952 38.0292 41.002H37.9992L38.0092 40.992ZM38.0892 29.2919C35.2992 27.7519 32.3192 29.352 32.2892 29.372C32.2892 29.372 32.2492 29.372 32.2292 29.372C32.1792 29.372 32.1392 29.3419 32.1092 29.3019C32.0792 29.2419 32.0992 29.162 32.1592 29.122C32.1892 29.122 35.2892 27.4319 38.2092 29.0419C38.2492 29.0419 38.2792 29.072 38.2992 29.112C38.3192 29.152 38.3192 29.182 38.2992 29.222C38.2892 29.262 38.2592 29.2819 38.2192 29.3019C38.1792 29.3119 38.1392 29.3019 38.1092 29.2919H38.0792H38.0892Z" fill="black"/>
</svg>
