<svg width="56" height="55" viewBox="0 0 56 55" fill="none" xmlns="http://www.w3.org/2000/svg">
<rect x="0.5" y="0.5" width="55" height="54" fill="#FAEE00"/>
<rect x="0.5" y="0.5" width="55" height="54" stroke="#C9CACA"/>
<path d="M27.02 37.8451H27C26.66 37.8451 26.37 37.595 26.3 37.265L23.03 21.7051L21.67 29.285C21.61 29.635 21.3 29.885 20.95 29.885H19.15L17.76 34.645C17.65 35.035 17.24 35.255 16.85 35.145C16.61 35.075 16.42 34.885 16.35 34.645L14.97 29.885H7.83C7.43 29.885 7.1 29.555 7.1 29.155C7.1 28.755 7.43 28.425 7.83 28.425H15.52C15.85 28.425 16.13 28.6451 16.22 28.9551L17.06 31.8251L17.9 28.9551C17.99 28.6451 18.28 28.425 18.6 28.425H20.33L22.24 17.755C22.3 17.415 22.6 17.155 22.95 17.155H22.96C23.31 17.155 23.6 17.3951 23.68 17.7351L27.1 33.9451L29.76 23.905C29.86 23.515 30.26 23.285 30.65 23.385C30.87 23.445 31.05 23.6051 31.14 23.8151L32.83 27.9851H33.76L35.55 19.895C35.64 19.505 36.03 19.2551 36.43 19.3451C36.68 19.4051 36.89 19.5951 36.97 19.8351L39.51 27.9851H41.19C41.49 27.9851 41.75 28.1651 41.87 28.4351L43.19 31.665L44.41 28.4551C44.52 28.1751 44.79 27.9851 45.09 27.9851H48.17C48.57 27.9851 48.9 28.3151 48.9 28.7151C48.9 29.1151 48.57 29.4451 48.17 29.4451H45.6L43.9 33.925C43.79 34.205 43.53 34.395 43.22 34.395C42.92 34.395 42.66 34.2151 42.54 33.9451L40.7 29.4451H38.98C38.66 29.4451 38.38 29.2351 38.28 28.9351L36.4 22.895L35.08 28.8751C35.01 29.2151 34.71 29.4451 34.37 29.4451H32.36C32.06 29.4451 31.8 29.2651 31.68 28.9851L30.62 26.385L27.73 37.285C27.65 37.605 27.35 37.8351 27.02 37.8351V37.8451Z" fill="white"/>
</svg>
