<svg width="56" height="55" viewBox="0 0 56 55" fill="none" xmlns="http://www.w3.org/2000/svg">
<rect x="0.5" y="0.5" width="55" height="54" stroke="#C9CACA"/>
<path fill-rule="evenodd" clip-rule="evenodd" d="M28.5406 20.3979C28.5406 20.3979 28.5006 20.328 28.4706 20.288C27.9706 19.548 27.3506 18.728 26.4706 17.968C25.5806 17.178 24.3906 16.518 23.0706 16.188C21.7606 15.858 20.2206 15.8179 18.6906 16.4279C17.9406 16.7379 17.2006 17.2279 16.6406 17.8879C16.0806 18.5279 15.6806 19.318 15.4706 20.118C15.0406 21.738 15.2706 23.298 15.6506 24.688C15.8506 25.388 16.1006 26.0579 16.3906 26.7079C16.6906 27.3279 16.9706 27.958 17.3106 28.538C17.9506 29.738 18.7006 30.868 19.4906 31.908C20.2706 32.968 21.1306 33.918 21.9906 34.778C22.8506 35.638 23.7406 36.408 24.6206 37.068C26.3606 38.408 28.0406 39.3479 29.3806 39.9579C30.7206 40.5779 31.7306 40.8679 32.2006 40.9579C32.7806 41.0679 32.8006 40.6079 32.4106 40.3279C32.0306 40.0679 31.1306 39.598 29.9506 38.848C28.7606 38.098 27.2706 37.068 25.7506 35.688C24.9806 35.008 24.2106 34.228 23.4706 33.378C22.7206 32.528 21.9906 31.598 21.3406 30.588C20.6806 29.588 20.0706 28.5079 19.5306 27.3979C19.2606 26.8379 19.0206 26.2679 18.7806 25.6979C18.5506 25.1479 18.3906 24.5779 18.2606 24.0079C18.0006 22.8879 17.9606 21.7679 18.2406 20.9179C18.3806 20.4979 18.5906 20.1479 18.8606 19.8579C19.1206 19.5779 19.4406 19.3779 19.8106 19.2579C20.5506 18.9979 21.4506 19.0179 22.2506 19.2679C22.6506 19.3879 23.0306 19.538 23.3606 19.748C23.7006 19.958 23.9706 20.1479 24.2506 20.4279C25.3606 21.4879 26.0106 22.7879 26.4306 23.7279C26.8506 24.6879 27.0706 25.298 27.0906 25.348C27.4806 26.378 28.9206 26.318 29.7906 25.688C30.3206 25.558 30.7506 25.268 30.8306 24.788C30.8406 24.748 30.8906 24.208 31.1306 23.318C31.3606 22.428 31.7906 21.188 32.6006 19.848C33.0106 19.198 33.5106 18.4479 34.0606 17.9179C34.3306 17.6479 34.6306 17.428 34.9006 17.288C35.1706 17.148 35.4206 17.0879 35.6606 17.1079C36.1506 17.1079 36.8606 17.5679 37.2706 18.2379C37.7106 18.9379 37.9406 19.928 38.0406 21.028C38.2506 23.278 38.1506 25.6179 37.8106 27.7979C37.4606 29.9879 36.8706 32.028 36.1906 33.788C35.5106 35.548 34.7406 37.0279 34.1006 38.1479C33.7906 38.7179 33.4806 39.178 33.2706 39.568C33.0306 39.948 32.8606 40.2379 32.7706 40.4279C32.5406 40.9179 32.9406 41.098 33.3106 40.818C33.4806 40.678 33.7406 40.448 34.0606 40.118C34.3606 39.768 34.7606 39.348 35.1606 38.808C35.9906 37.748 36.9606 36.2879 37.8506 34.4779C38.7306 32.6779 39.5206 30.5379 40.0606 28.1979C40.5806 25.8579 40.8406 23.338 40.7406 20.808C40.6806 19.538 40.5106 18.1079 39.7706 16.7679C39.3906 16.0879 38.8906 15.4879 38.2606 15.0079C37.6406 14.5279 36.8606 14.168 36.0106 14.058C35.1506 13.948 34.3006 14.1279 33.6106 14.4279C32.9206 14.7379 32.3706 15.148 31.9106 15.558C31.4506 15.978 31.0606 16.408 30.7306 16.818C30.4006 17.228 30.1006 17.6479 29.8306 18.0479C29.2906 18.8679 28.8806 19.648 28.5506 20.378L28.5406 20.3979Z" fill="#727171"/>
</svg>
