<svg width="56" height="55" viewBox="0 0 56 55" fill="none" xmlns="http://www.w3.org/2000/svg">
<rect x="0.5" y="0.5" width="55" height="54" fill="#2D4799"/>
<rect x="0.5" y="0.5" width="55" height="54" stroke="#C9CACA"/>
<path d="M26.51 23.05C27.3274 23.05 27.99 22.1232 27.99 20.98C27.99 19.8368 27.3274 18.91 26.51 18.91C25.6926 18.91 25.03 19.8368 25.03 20.98C25.03 22.1232 25.6926 23.05 26.51 23.05Z" fill="white"/>
<path d="M33.93 23.05C34.7474 23.05 35.41 22.1232 35.41 20.98C35.41 19.8368 34.7474 18.91 33.93 18.91C33.1126 18.91 32.45 19.8368 32.45 20.98C32.45 22.1232 33.1126 23.05 33.93 23.05Z" fill="white"/>
<path d="M34.63 25.53C34.02 25.15 33.22 25.33 32.83 25.93C32.32 26.74 31.33 27.25 30.24 27.25C29.15 27.25 28.13 26.72 27.63 25.87C27.27 25.25 26.47 25.04 25.85 25.4C25.23 25.76 25.02 26.56 25.38 27.18C26.35 28.83 28.21 29.85 30.23 29.85C32.25 29.85 34.03 28.88 35.02 27.32C35.4 26.71 35.22 25.91 34.62 25.52L34.63 25.53Z" fill="white"/>
<path d="M28 12.85C19.92 12.85 13.35 19.42 13.35 27.5C13.35 35.58 19.92 42.15 28 42.15C36.08 42.15 42.65 35.58 42.65 27.5C42.65 19.42 36.08 12.85 28 12.85ZM28 39.54C21.36 39.54 15.95 34.14 15.95 27.49C15.95 20.84 21.35 15.44 28 15.44C34.65 15.44 40.05 20.84 40.05 27.49C40.05 34.14 34.65 39.54 28 39.54Z" fill="white"/>
</svg>
