<svg width="56" height="55" viewBox="0 0 56 55" fill="none" xmlns="http://www.w3.org/2000/svg">
<rect x="0.5" y="0.5" width="55" height="54" stroke="#C9CACA"/>
<path d="M40.6521 43.9196C43.2221 43.8996 45.6021 44.7395 47.2921 46.3495C47.9621 46.3895 48.7721 46.5295 49.4221 46.7695L50.7721 44.8696C50.9421 44.6396 50.9521 44.3298 50.7921 44.0898C50.6521 43.8498 50.3621 43.7297 50.0921 43.7797L48.6521 44.0497L49.7221 42.1696C49.9721 41.7396 49.6521 41.1396 49.1421 41.1296C47.7221 41.0696 46.5821 41.9197 45.9421 42.5297C45.6721 40.9497 43.6021 38.1996 43.0321 40.1196L42.9121 42.1896L41.6621 41.1096C41.5021 40.9796 41.3121 40.9297 41.1121 40.9697C40.3921 41.0197 40.5221 41.9697 40.4721 42.4597L40.3721 43.9396H40.6421L40.6521 43.9196Z" fill="#66D3A3"/>
<path d="M7.30215 46.8599C8.22215 46.3699 9.25215 46.1498 10.4621 46.2098C11.2621 45.3598 13.6421 43.8497 15.7421 43.6597V41.8399C15.7421 41.5699 15.5721 41.3298 15.3221 41.2098C15.0721 41.1098 14.7921 41.1499 14.5821 41.3199L13.2921 42.4397L13.1621 40.2898C13.1421 40.0198 12.9821 39.7997 12.7421 39.6897C12.5021 39.5897 12.2321 39.6298 12.0221 39.7898C11.4721 40.2398 10.5121 41.2199 10.1721 42.7999C9.51214 42.1699 8.32214 41.2897 6.87215 41.3497C6.36215 41.3497 6.03214 41.9597 6.29214 42.3897L7.40214 44.3497L5.90214 44.0799C5.26214 43.9399 4.85215 44.7198 5.25215 45.2298L6.70214 47.2198C6.89214 47.0798 7.09214 46.9497 7.29214 46.8497L7.30215 46.8599Z" fill="#66D3A3"/>
<path d="M48.4521 48.1394C47.8121 47.9094 46.7721 47.9994 46.5321 47.8494C44.2921 45.2794 39.9921 45.0694 36.8121 46.1194C36.4021 46.0294 35.4421 45.2595 34.7621 45.0195C34.0221 46.5395 32.2821 47.1397 30.6521 47.1697C28.0721 47.2297 24.4321 47.8794 22.9821 45.1394C22.3221 45.3794 21.4621 45.7596 20.9321 46.0496C19.0021 45.3496 17.2021 44.8894 15.2521 45.3694C13.5421 45.7894 12.1821 46.6793 11.1221 47.8093C11.0921 47.8493 11.0221 47.8696 10.9421 47.8596C9.37214 47.6196 7.68214 48.0597 6.75214 49.4397C6.29214 50.0697 6.80214 51.0293 7.59214 50.9993H49.8421C50.2421 50.9993 50.6021 50.7594 50.7621 50.3894C51.1921 49.1194 49.5521 48.4897 48.4521 48.1497V48.1394Z" fill="#66D3A3"/>
<path d="M18.4121 32.0996C18.5121 32.1496 18.5521 32.2596 18.5121 32.3696C18.2421 32.9996 18.3321 33.5997 18.4521 33.9697C18.4821 34.0697 18.4521 34.1997 18.3621 34.2397C17.4321 34.6397 16.8321 35.5097 16.6321 36.7497C16.4021 38.2297 17.0521 39.6697 18.2121 40.2597C19.0021 40.6597 20.1121 40.8396 20.9321 39.4196C20.9921 39.3196 21.0721 39.2997 21.1221 39.2897C21.1721 39.2797 21.2621 39.2896 21.3521 39.3596L23.7921 41.7197C24.5021 41.3497 25.9321 40.7197 26.3721 40.7197C26.6021 40.7197 26.7221 40.4697 26.6621 40.2997C26.0021 38.6397 26.0321 37.2698 26.7221 36.3198C27.4821 35.2898 28.9721 34.8397 31.1621 34.9897C31.4921 35.0097 31.7421 35.2996 31.7221 35.6196C31.7021 35.9596 31.4021 36.1996 31.0821 36.1796C27.7621 35.9196 26.7221 37.2698 27.7821 39.8298C28.1721 40.7698 27.4521 41.9096 26.4121 41.9096C25.9721 41.9596 24.7321 42.5796 24.1421 42.8696C23.9921 43.7296 24.3721 44.6396 25.1021 45.1396C25.7221 45.6096 26.6321 45.5796 27.3821 45.6096C28.4821 45.6996 30.7621 45.5597 31.5421 45.4496C32.4921 45.2596 33.2921 44.7696 33.4621 43.8496C33.5921 43.1796 34.1621 42.8996 34.8321 43.1096C36.2221 43.4796 37.7821 43.1797 38.7621 42.0397C40.3121 40.4197 39.8021 37.2096 37.4021 36.8596C36.7721 36.7496 36.2721 36.3197 36.0721 35.7297C34.5321 30.9997 27.6421 28.7897 25.5821 28.2397C25.4421 28.2097 25.4621 27.9997 25.6021 27.9897L32.9721 27.7897C34.5121 27.7797 35.1021 25.6596 33.7821 24.8596C32.6121 24.0796 31.4321 23.5698 30.2721 23.3398L30.2521 23.2197L31.4621 22.5197C32.9521 21.6897 32.4621 19.3096 30.7421 19.1696C25.2821 18.5696 22.6421 20.9096 21.5521 22.3596C21.2121 22.7996 20.6821 23.0796 20.0821 23.1396C18.8721 23.2396 17.8921 23.9798 17.2821 24.5698C14.4621 27.3898 15.7221 31.0798 18.4121 32.0798V32.0996ZM21.0821 26.9496C21.0721 27.9996 19.4921 28.0096 19.4721 26.9496C19.4921 25.8896 21.0621 25.8996 21.0821 26.9496Z" fill="#66D3A3"/>
</svg>
