<svg width="56" height="55" viewBox="0 0 56 55" fill="none" xmlns="http://www.w3.org/2000/svg">
<rect x="0.5" y="0.5" width="55" height="54" stroke="#C9CACA"/>
<path d="M31.9307 32.7338C31.0407 34.0638 29.6107 34.8237 28.0007 34.8237C26.3907 34.8237 24.9707 34.0638 24.0707 32.7338C23.9007 32.4838 23.5607 32.4139 23.3107 32.5839C23.0607 32.7539 22.9907 33.0937 23.1607 33.3437C24.2507 34.9537 26.0507 35.914 28.0007 35.914C29.9507 35.914 31.7507 34.9537 32.8407 33.3437C33.0107 33.0937 32.9407 32.7539 32.6907 32.5839C32.4407 32.4139 32.1007 32.4838 31.9307 32.7338Z" fill="black"/>
<path d="M37.4307 12.724C37.2007 12.684 36.9807 12.7937 36.8607 13.0037C36.7507 13.2037 36.7807 13.4536 36.9307 13.6336C37.0107 13.7236 38.8407 15.8735 37.0007 18.3035C34.5907 16.1935 31.4507 14.9036 28.0007 14.9036C24.5507 14.9036 21.4107 16.1935 19.0007 18.3035C17.1607 15.8635 18.9807 13.7236 19.0707 13.6336C19.2207 13.4636 19.2507 13.2037 19.1407 13.0037C19.0307 12.8037 18.8007 12.684 18.5707 12.724C16.1007 13.124 14.1507 14.8537 13.4707 17.2337C12.8007 19.5637 13.4707 22.014 15.2207 23.724C14.6407 25.244 14.3107 26.8836 14.3107 28.5936C14.3107 36.1436 20.4507 42.284 28.0007 42.284C35.5507 42.284 41.6907 36.1436 41.6907 28.5936C41.6907 26.8736 41.3607 25.234 40.7807 23.724C42.5207 22.014 43.2007 19.5637 42.5307 17.2337C41.8507 14.8537 39.8907 13.124 37.4307 12.724ZM14.5307 17.534C14.9807 15.964 16.0607 14.7639 17.5007 14.1639C17.0007 15.3239 16.7107 17.1335 18.2107 19.0535C17.1907 20.1035 16.3407 21.3236 15.6907 22.6536C14.4507 21.2436 14.0007 19.3538 14.5207 17.5438L14.5307 17.534ZM28.0107 41.1839C21.0707 41.1839 15.4207 35.5336 15.4207 28.5936C15.4207 21.6536 21.0707 16.0037 28.0107 16.0037C34.9507 16.0037 40.6007 21.6536 40.6007 28.5936C40.6007 35.5336 34.9507 41.1839 28.0107 41.1839ZM40.3207 22.6439C39.6707 21.3139 38.8307 20.0938 37.8007 19.0438C39.3007 17.1338 39.0107 15.3136 38.5107 14.1536C39.9607 14.7636 41.0307 15.9538 41.4807 17.5238C42.0007 19.3338 41.5507 21.2236 40.3107 22.6336L40.3207 22.6439Z" fill="black"/>
<path d="M24.7207 27.4238V26.3237H25.2707C25.5707 26.3237 25.8207 26.0739 25.8207 25.7739C25.8207 25.4739 25.5707 25.2241 25.2707 25.2241H19.7907C19.4907 25.2241 19.2407 25.4739 19.2407 25.7739C19.2407 26.0739 19.4907 26.3237 19.7907 26.3237H20.3407V27.4238C20.3407 28.6338 21.3207 29.6138 22.5307 29.6138C23.7407 29.6138 24.7207 28.6338 24.7207 27.4238ZM23.6307 27.4238C23.6307 28.0338 23.1407 28.5239 22.5307 28.5239C21.9207 28.5239 21.4307 28.0338 21.4307 27.4238V26.3237H23.6207V27.4238H23.6307Z" fill="black"/>
<path d="M36.2207 25.2339H30.7407C30.4407 25.2339 30.1907 25.4842 30.1907 25.7842C30.1907 26.0842 30.4407 26.334 30.7407 26.334H31.2907V27.4341C31.2907 28.6441 32.2707 29.624 33.4807 29.624C34.6907 29.624 35.6707 28.6441 35.6707 27.4341V26.334H36.2207C36.5207 26.334 36.7707 26.0842 36.7707 25.7842C36.7707 25.4842 36.5207 25.2339 36.2207 25.2339ZM34.5807 27.4238C34.5807 28.0338 34.0907 28.5239 33.4807 28.5239C32.8707 28.5239 32.3807 28.0338 32.3807 27.4238V26.3237H34.5707V27.4238H34.5807Z" fill="black"/>
</svg>
