<svg width="56" height="55" viewBox="0 0 56 55" fill="none" xmlns="http://www.w3.org/2000/svg">
<g clip-path="url(#clip0_28_113)">
<path d="M55.5 0.5H0.5V54.5H55.5V0.5Z" fill="url(#paint0_linear_28_113)"/>
<path d="M55.5 0.5H0.5V54.5H55.5V0.5Z" stroke="#C9CACA"/>
<path fill-rule="evenodd" clip-rule="evenodd" d="M27.9999 48.1519C-20.0201 18.4719 19.1799 -7.45817 27.9999 15.8619C36.8199 -7.45817 76.0199 18.4719 27.9999 48.1519Z" fill="url(#paint1_linear_28_113)"/>
<path d="M18.848 21.1829C18.3933 21.8282 17.88 22.4332 17.308 22.9979L17.11 22.8329C17.77 21.9236 18.3017 20.9776 18.705 19.9949C19.1157 19.0049 19.4677 17.8389 19.761 16.4969C19.9883 16.5702 20.267 16.6839 20.597 16.8379C20.927 16.9846 21.092 17.0909 21.092 17.1569C21.092 17.2156 21.0443 17.2596 20.949 17.2889C20.8537 17.3182 20.7767 17.3806 20.718 17.4759C20.6593 17.5639 20.5677 17.7766 20.443 18.1139C20.1497 18.8692 19.838 19.5402 19.508 20.1269C19.596 20.1416 19.695 20.1746 19.805 20.2259C19.915 20.2699 19.97 20.3176 19.97 20.3689C19.97 20.4129 19.882 20.4752 19.706 20.5559V26.1549C19.706 26.2136 19.695 26.2539 19.673 26.2759C19.6583 26.3052 19.5887 26.3566 19.464 26.4299C19.3467 26.5106 19.222 26.5729 19.09 26.6169C18.9653 26.6682 18.8847 26.6939 18.848 26.6939C18.8187 26.6939 18.804 26.6536 18.804 26.5729L18.837 25.5499C18.8443 25.2272 18.848 24.9266 18.848 24.6479V21.1829ZM23.974 19.7859L25.261 19.2689L25.481 18.7629C25.5177 18.6749 25.5653 18.6309 25.624 18.6309C25.6827 18.6309 25.8293 18.6859 26.064 18.7959C26.2987 18.9059 26.4637 18.9976 26.559 19.0709C26.6543 19.1369 26.702 19.2029 26.702 19.2689C26.702 19.4009 26.57 19.5476 26.306 19.7089C26.2693 20.4349 26.229 21.1389 26.185 21.8209C26.141 22.5029 26.097 22.9319 26.053 23.1079C26.009 23.2839 25.9247 23.4379 25.8 23.5699C25.6827 23.6946 25.4993 23.8156 25.25 23.9329C25.008 24.0502 24.8577 24.1089 24.799 24.1089C24.7477 24.1089 24.7147 24.0649 24.7 23.9769C24.634 23.5442 24.392 23.2729 23.974 23.1629V23.4049C23.974 23.7056 23.9777 23.9292 23.985 24.0759L24.007 24.4279C24.007 24.4866 23.9667 24.5452 23.886 24.6039C23.8127 24.6552 23.6953 24.7139 23.534 24.7799C23.3727 24.8459 23.2443 24.8789 23.149 24.8789C23.0977 24.8789 23.072 24.8276 23.072 24.7249V20.6329L21.994 21.0619V24.7139C21.994 24.9412 22.0123 25.1099 22.049 25.2199C22.093 25.3299 22.1847 25.4142 22.324 25.4729C22.4707 25.5316 22.7603 25.5719 23.193 25.5939C23.6257 25.6232 24.0363 25.6379 24.425 25.6379C24.821 25.6379 25.1583 25.6196 25.437 25.5829C25.723 25.5536 25.899 25.5242 25.965 25.4949C26.0383 25.4729 26.1007 25.4179 26.152 25.3299C26.2107 25.2492 26.262 25.1209 26.306 24.9449C26.3573 24.7616 26.416 24.4829 26.482 24.1089L26.669 22.9319L26.933 22.9649C26.8963 23.4416 26.878 23.8376 26.878 24.1529C26.878 24.4682 26.9073 24.7286 26.966 24.9339C27.032 25.1319 27.1603 25.3006 27.351 25.4399C27.4243 25.4912 27.461 25.5426 27.461 25.5939C27.461 25.6452 27.384 25.7662 27.23 25.9569C27.0833 26.1549 26.9037 26.2869 26.691 26.3529C26.4857 26.4189 26.13 26.4629 25.624 26.4849C25.118 26.5069 24.678 26.5179 24.304 26.5179C23.3433 26.5179 22.632 26.4592 22.17 26.3419C21.708 26.2319 21.411 26.0376 21.279 25.7589C21.147 25.4876 21.081 24.9926 21.081 24.2739V21.4249L20.762 21.5569C20.5567 21.6449 20.3953 21.7439 20.278 21.8539L19.871 21.3919C20.069 21.3259 20.223 21.2709 20.333 21.2269L21.081 20.9299V19.3899C21.081 18.8912 21.07 18.4806 21.048 18.1579C21.51 18.2752 21.8363 18.3816 22.027 18.4769C22.225 18.5649 22.324 18.6309 22.324 18.6749C22.324 18.7409 22.214 18.8252 21.994 18.9279V20.5669L23.072 20.1379V17.5199C23.072 17.2779 23.061 17.0102 23.039 16.7169C23.303 16.7536 23.567 16.8122 23.831 16.8929C24.1023 16.9736 24.2637 17.0286 24.315 17.0579C24.3737 17.0799 24.403 17.1056 24.403 17.1349C24.403 17.2009 24.26 17.3219 23.974 17.4979V19.7859ZM23.974 22.8769C24.2893 22.9062 24.5277 22.9209 24.689 22.9209C24.8577 22.9209 24.975 22.8952 25.041 22.8439C25.1143 22.7926 25.1657 22.6899 25.195 22.5359C25.2243 22.3819 25.2573 22.0666 25.294 21.5899C25.3307 21.1132 25.3563 20.4826 25.371 19.6979L23.974 20.2699V22.8769ZM38.461 17.5089C38.5637 17.6116 38.6077 17.6849 38.593 17.7289C38.5857 17.7656 38.5123 17.7839 38.373 17.7839H35.359C35.3443 18.5099 35.3223 19.1589 35.293 19.7309H36.514L36.8 19.2799C36.8587 19.1992 36.9063 19.1552 36.943 19.1479C36.9797 19.1406 37.0493 19.1699 37.152 19.2359C37.3353 19.3606 37.4967 19.4779 37.636 19.5879C37.7827 19.6906 37.8963 19.7822 37.977 19.8629C38.0723 19.9582 38.1053 20.0316 38.076 20.0829C38.0467 20.1342 37.9147 20.2222 37.68 20.3469V25.2749C37.68 25.4949 37.6727 25.6672 37.658 25.7919C37.6433 25.9166 37.603 26.0229 37.537 26.1109C37.4783 26.1989 37.383 26.2796 37.251 26.3529C37.119 26.4336 36.9357 26.5326 36.701 26.6499C36.5763 26.7086 36.492 26.7306 36.448 26.7159C36.4113 26.7012 36.382 26.6389 36.36 26.5289C36.3233 26.3236 36.206 26.1439 36.008 25.9899C35.81 25.8432 35.4837 25.6966 35.029 25.5499L35.062 25.3299C35.4213 25.3959 35.7073 25.4399 35.92 25.4619C36.1327 25.4912 36.294 25.4986 36.404 25.4839C36.5213 25.4766 36.5947 25.4509 36.624 25.4069C36.6607 25.3702 36.679 25.3189 36.679 25.2529V20.0829H35.271C35.249 20.3396 35.2197 20.5816 35.183 20.8089C35.1537 21.0289 35.1207 21.2379 35.084 21.4359C35.3993 21.6706 35.6523 21.8796 35.843 22.0629C36.041 22.2389 36.1877 22.4002 36.283 22.5469C36.3783 22.6862 36.4333 22.8109 36.448 22.9209C36.47 23.0309 36.47 23.1336 36.448 23.2289C36.404 23.4122 36.3197 23.5589 36.195 23.6689C36.0777 23.7789 35.9787 23.8339 35.898 23.8339C35.766 23.8339 35.678 23.6872 35.634 23.3939C35.5753 22.9979 35.4983 22.6679 35.403 22.4039C35.3077 22.1326 35.1867 21.8906 35.04 21.6779C34.952 22.0739 34.8383 22.4332 34.699 22.7559C34.567 23.0712 34.4057 23.3682 34.215 23.6469C34.0317 23.9256 33.8153 24.1932 33.566 24.4499C33.3167 24.6992 33.0343 24.9559 32.719 25.2199L32.576 25.0659C32.8473 24.7726 33.0893 24.4682 33.302 24.1529C33.5147 23.8302 33.698 23.4746 33.852 23.0859C34.006 22.6899 34.127 22.2499 34.215 21.7659C34.3103 21.2746 34.38 20.7136 34.424 20.0829H32.796C32.774 20.3176 32.7483 20.5376 32.719 20.7429C32.6897 20.9409 32.6567 21.1352 32.62 21.3259C33.082 21.6266 33.3973 21.8942 33.566 22.1289C33.7347 22.3636 33.7897 22.5689 33.731 22.7449C33.6797 22.8989 33.6063 23.0236 33.511 23.1189C33.4157 23.2142 33.3277 23.2619 33.247 23.2619C33.1883 23.2619 33.1407 23.2399 33.104 23.1959C33.0747 23.1446 33.0453 23.0272 33.016 22.8439C32.9573 22.4992 32.8987 22.2316 32.84 22.0409C32.7887 21.8502 32.7043 21.6779 32.587 21.5239C32.5137 21.8539 32.422 22.1582 32.312 22.4369C32.2093 22.7082 32.0847 22.9686 31.938 23.2179C31.7987 23.4672 31.6337 23.7129 31.443 23.9549C31.2597 24.1896 31.0507 24.4316 30.816 24.6809L30.706 24.5489C30.9113 24.2336 31.0873 23.9219 31.234 23.6139C31.3807 23.2986 31.5017 22.9649 31.597 22.6129C31.6997 22.2609 31.7803 21.8796 31.839 21.4689C31.8977 21.0582 31.9417 20.5962 31.971 20.0829H30.552V26.0559C30.552 26.1366 30.541 26.1952 30.519 26.2319C30.5043 26.2686 30.4677 26.3052 30.409 26.3419C30.2917 26.4226 30.1817 26.4812 30.079 26.5179C29.9763 26.5546 29.8663 26.5802 29.749 26.5949C29.6757 26.6096 29.628 26.6059 29.606 26.5839C29.584 26.5619 29.5767 26.5106 29.584 26.4299C29.5987 26.1219 29.6097 25.8616 29.617 25.6489C29.6317 25.4362 29.639 25.2199 29.639 24.9999V20.2039C29.639 19.9472 29.6353 19.7529 29.628 19.6209C29.628 19.4816 29.6243 19.3532 29.617 19.2359C29.8883 19.3239 30.0973 19.4009 30.244 19.4669C30.398 19.5256 30.541 19.5916 30.673 19.6649C30.717 19.6869 30.75 19.7089 30.772 19.7309H31.993C32.0077 19.4449 32.015 19.1442 32.015 18.8289C32.015 18.5062 32.015 18.1579 32.015 17.7839H29.287C29.199 17.7839 29.111 17.7912 29.023 17.8059C28.935 17.8206 28.869 17.8389 28.825 17.8609L28.627 17.3879C28.7297 17.4099 28.8177 17.4246 28.891 17.4319C28.9717 17.4392 29.067 17.4429 29.177 17.4429H36.888L37.328 16.8159C37.4013 16.7132 37.4563 16.6619 37.493 16.6619C37.537 16.6619 37.6103 16.7059 37.713 16.7939C37.9477 16.9992 38.197 17.2376 38.461 17.5089ZM32.917 17.7839C32.9023 18.1579 32.8877 18.5062 32.873 18.8289C32.8657 19.1516 32.851 19.4522 32.829 19.7309H34.435C34.4643 19.1516 34.4753 18.5026 34.468 17.7839H32.917Z" fill="white"/>
<path d="M23.457 30.433H24.931L25.228 30.125C25.3087 30.0443 25.371 30.004 25.415 30.004C25.4737 30.004 25.6607 30.1287 25.976 30.378C26.2987 30.6273 26.46 30.785 26.46 30.851C26.46 30.917 26.4417 30.9573 26.405 30.972C26.3683 30.9867 26.2693 30.994 26.108 30.994C25.954 30.994 25.7597 31.0747 25.525 31.236C25.2977 31.3973 24.9457 31.731 24.469 32.237H25.558L25.756 31.918C25.8 31.852 25.844 31.819 25.888 31.819C25.932 31.819 26.1117 31.907 26.427 32.083C26.7423 32.259 26.9 32.3947 26.9 32.49C26.9 32.6073 26.7717 32.721 26.515 32.831V34.833C26.515 35.009 26.5187 35.1373 26.526 35.218C26.5407 35.2987 26.548 35.3573 26.548 35.394C26.548 35.4233 26.5113 35.46 26.438 35.504C26.3647 35.548 26.2437 35.5993 26.075 35.658C25.9137 35.7167 25.789 35.746 25.701 35.746C25.6277 35.746 25.591 35.68 25.591 35.548V35.163H22.687V37.341C22.687 37.495 22.7163 37.5903 22.775 37.627C22.8337 37.671 23.0537 37.7077 23.435 37.737C23.8237 37.7737 24.337 37.792 24.975 37.792C25.613 37.792 26.0053 37.7663 26.152 37.715C26.2987 37.6637 26.4087 37.517 26.482 37.275C26.5627 37.0403 26.669 36.5343 26.801 35.757L27.021 35.768C27.0063 36.0687 26.999 36.362 26.999 36.648C26.999 36.934 27.0247 37.143 27.076 37.275C27.1347 37.4143 27.252 37.5463 27.428 37.671C27.5013 37.7223 27.538 37.77 27.538 37.814C27.538 37.8653 27.4683 37.9863 27.329 38.177C27.197 38.3677 27.021 38.4887 26.801 38.54C26.5883 38.5913 26.0933 38.617 25.316 38.617C24.546 38.617 23.908 38.6023 23.402 38.573C22.9033 38.5437 22.5513 38.496 22.346 38.43C22.1407 38.3713 22.005 38.2833 21.939 38.166C21.8803 38.0487 21.851 37.8543 21.851 37.583V32.666C21.5723 32.9447 21.29 33.2123 21.004 33.469L20.828 33.304C21.444 32.4827 21.917 31.7347 22.247 31.06C22.577 30.3853 22.863 29.586 23.105 28.662C23.3837 28.7207 23.6403 28.7977 23.875 28.893C24.1097 28.9883 24.249 29.058 24.293 29.102C24.3443 29.146 24.37 29.1863 24.37 29.223C24.37 29.2963 24.315 29.3367 24.205 29.344C24.095 29.3513 24.007 29.421 23.941 29.553C23.875 29.685 23.7137 29.9783 23.457 30.433ZM23.963 32.237C24.3957 31.643 24.711 31.1553 24.909 30.774H23.259C22.9877 31.2433 22.7053 31.6613 22.412 32.028C22.522 32.0353 22.6357 32.105 22.753 32.237H23.963ZM25.591 34.756V32.644H24.623V34.756H25.591ZM22.687 32.644V34.756H23.798V32.644H22.687ZM19.739 32.743C18.903 32.919 18.2907 33.0987 17.902 33.282C17.8433 33.3113 17.7993 33.326 17.77 33.326C17.7407 33.326 17.6967 33.2563 17.638 33.117C17.5867 32.9777 17.517 32.7613 17.429 32.468C17.6563 32.4313 17.8213 32.347 17.924 32.215C18.0267 32.083 18.254 31.676 18.606 30.994C18.958 30.312 19.2623 29.5787 19.519 28.794C20.3403 29.1387 20.751 29.3733 20.751 29.498C20.751 29.5567 20.6777 29.5933 20.531 29.608C20.3843 29.6153 20.245 29.7363 20.113 29.971C19.673 30.719 19.1083 31.5513 18.419 32.468L19.904 32.424C20.1533 31.9327 20.41 31.3973 20.674 30.818C20.9527 30.972 21.1873 31.1223 21.378 31.269C21.576 31.4157 21.675 31.5183 21.675 31.577C21.675 31.6283 21.6237 31.654 21.521 31.654C21.4257 31.654 21.3487 31.6833 21.29 31.742C21.2313 31.8007 21.1323 31.94 20.993 32.16C20.5897 32.8053 19.9517 33.645 19.079 34.679L21.433 34.393L21.444 34.624C20.366 34.932 19.6693 35.1447 19.354 35.262C19.0387 35.3793 18.793 35.5187 18.617 35.68C18.5657 35.724 18.5217 35.746 18.485 35.746C18.4483 35.746 18.4153 35.7277 18.386 35.691C18.3567 35.6543 18.2943 35.5553 18.199 35.394C18.111 35.2327 18.0193 35.0237 17.924 34.767C18.0927 34.745 18.2943 34.6643 18.529 34.525C18.7637 34.3783 18.969 34.1473 19.145 33.832L19.739 32.743ZM21.631 36.461L19.453 37.451C18.969 37.6637 18.562 37.891 18.232 38.133C18.1733 38.177 18.1257 38.199 18.089 38.199C18.0597 38.199 18.0083 38.1293 17.935 37.99C17.8617 37.858 17.7443 37.594 17.583 37.198C18.4997 37.0367 19.8233 36.714 21.554 36.23L21.631 36.461ZM30.321 29.729H29.045C28.847 29.729 28.693 29.751 28.583 29.795L28.385 29.366C28.539 29.4027 28.7223 29.421 28.935 29.421H32.389L32.774 28.849C32.8327 28.761 32.8877 28.717 32.939 28.717C32.9757 28.717 33.0893 28.7903 33.28 28.937C33.4707 29.0763 33.632 29.2047 33.764 29.322C33.9033 29.432 33.973 29.5273 33.973 29.608C33.973 29.6887 33.9107 29.729 33.786 29.729H32.092V31.126H32.554L32.807 30.752C32.8437 30.6933 32.884 30.664 32.928 30.664C32.9793 30.664 33.1333 30.763 33.39 30.961C33.654 31.1517 33.786 31.2763 33.786 31.335C33.786 31.3937 33.687 31.4707 33.489 31.566V37.066L33.511 38.001C33.511 38.0963 33.4963 38.1623 33.467 38.199C33.4377 38.2357 33.3203 38.298 33.115 38.386C32.9097 38.474 32.7777 38.518 32.719 38.518C32.6603 38.518 32.631 38.463 32.631 38.353V37.561H29.815V38.375C29.815 38.4483 29.7967 38.4997 29.76 38.529C29.7233 38.5657 29.6097 38.6207 29.419 38.694C29.2283 38.7673 29.0927 38.804 29.012 38.804C28.968 38.804 28.9497 38.7563 28.957 38.661C28.9863 38.4043 29.001 38.0523 29.001 37.605V31.588C29.001 31.2873 28.99 30.9793 28.968 30.664C29.342 30.7887 29.6867 30.9427 30.002 31.126H30.321V29.729ZM31.388 29.729H30.981V31.126H31.388V29.729ZM29.815 34.855C30.0057 34.6203 30.1377 34.239 30.211 33.711C30.2843 33.1757 30.321 32.435 30.321 31.489H29.815V34.855ZM32.092 31.489V33.832C32.092 33.9567 32.136 34.0373 32.224 34.074C32.312 34.1107 32.4477 34.1253 32.631 34.118V31.489H32.092ZM32.631 34.767C32.235 34.7743 31.9527 34.767 31.784 34.745C31.6153 34.7157 31.5053 34.668 31.454 34.602C31.41 34.536 31.388 34.426 31.388 34.272V31.489H30.981C30.9737 32.6477 30.8857 33.4617 30.717 33.931C30.5557 34.4003 30.255 34.8183 29.815 35.185V35.636H32.631V34.767ZM32.631 37.198V35.999H29.815V37.198H32.631ZM37.13 32.556V29.718H34.754C34.556 29.718 34.402 29.7437 34.292 29.795L34.094 29.322C34.248 29.3587 34.4313 29.377 34.644 29.377H37.097L37.35 28.915C37.3793 28.8637 37.4123 28.838 37.449 28.838C37.5077 28.838 37.6873 28.9517 37.988 29.179C38.2887 29.4063 38.439 29.5457 38.439 29.597C38.439 29.6557 38.307 29.7473 38.043 29.872V32.303L38.065 33.172C38.065 33.2527 38.032 33.3187 37.966 33.37C37.9073 33.4213 37.79 33.4763 37.614 33.535C37.4453 33.5937 37.3207 33.623 37.24 33.623C37.1667 33.623 37.13 33.5753 37.13 33.48V32.941H35.249V37.209C35.249 37.341 35.2637 37.429 35.293 37.473C35.3297 37.517 35.4103 37.5463 35.535 37.561C35.6597 37.583 35.953 37.594 36.415 37.594C36.877 37.594 37.1667 37.572 37.284 37.528C37.4087 37.4913 37.5113 37.3483 37.592 37.099C37.6727 36.8497 37.7607 36.2703 37.856 35.361H38.043C38.0503 35.8597 38.076 36.241 38.12 36.505C38.164 36.7617 38.2263 36.9487 38.307 37.066C38.3877 37.1833 38.505 37.275 38.659 37.341C38.747 37.385 38.791 37.4363 38.791 37.495C38.791 37.5537 38.7177 37.682 38.571 37.88C38.4243 38.078 38.274 38.2137 38.12 38.287C37.966 38.3677 37.691 38.419 37.295 38.441C36.899 38.463 36.492 38.474 36.074 38.474C35.6633 38.474 35.304 38.4483 34.996 38.397C34.6953 38.3457 34.5047 38.276 34.424 38.188C34.3507 38.1 34.314 37.9423 34.314 37.715V33.271C34.314 32.7723 34.303 32.3617 34.281 32.039C34.699 32.1857 35.073 32.358 35.403 32.556H37.13Z" fill="white"/>
</g>
<defs>
<linearGradient id="paint0_linear_28_113" x1="28" y1="2.46628e-08" x2="28" y2="55" gradientUnits="userSpaceOnUse">
<stop stop-color="#E40580"/>
<stop offset="1" stop-color="#F9E9A0"/>
</linearGradient>
<linearGradient id="paint1_linear_28_113" x1="27.9999" y1="6.84184" x2="27.9999" y2="48.1519" gradientUnits="userSpaceOnUse">
<stop stop-color="#FAEEA1"/>
<stop offset="1" stop-color="#E4007F"/>
</linearGradient>
<clipPath id="clip0_28_113">
<rect width="56" height="55" fill="white"/>
</clipPath>
</defs>
</svg>
