<svg width="56" height="55" viewBox="0 0 56 55" fill="none" xmlns="http://www.w3.org/2000/svg">
<rect x="0.5" y="0.5" width="55" height="54" stroke="#C9CACA"/>
<path d="M27.97 16.25C24.32 16.25 21.37 19.2001 21.37 22.8501C21.37 26.5001 24.32 29.4501 27.97 29.4501C31.62 29.4501 34.57 26.5001 34.57 22.8501C34.57 19.2101 31.61 16.25 27.97 16.25ZM27.97 27.51C25.4 27.51 23.31 25.4201 23.31 22.8501C23.31 20.2801 25.4 18.1901 27.97 18.1901C30.54 18.1901 32.63 20.2801 32.63 22.8501C32.63 25.4201 30.54 27.51 27.97 27.51Z" fill="#C9CACA"/>
<path d="M28 10.03C18.35 10.03 10.53 17.85 10.53 27.5C10.53 37.15 18.35 44.9701 28 44.9701C37.65 44.9701 45.47 37.15 45.47 27.5C45.46 17.86 37.64 10.04 28 10.03ZM17.17 38.62C18.76 34.68 23.12 31.9701 28 31.9701C32.88 31.9701 37.24 34.68 38.83 38.62C32.81 44.51 23.19 44.51 17.17 38.62ZM40.24 37.04C38.11 32.84 33.31 30.03 28 30.03C22.69 30.03 17.89 32.85 15.76 37.04C10.48 30.28 11.69 20.52 18.45 15.24C25.21 9.95999 34.97 11.1701 40.25 17.9301C44.63 23.5501 44.63 31.42 40.25 37.04H40.24Z" fill="#C9CACA"/>
</svg>
