<svg width="105" height="66" viewBox="0 0 105 66" fill="none" xmlns="http://www.w3.org/2000/svg">
<g clip-path="url(#clip0_47_5179)">
<path d="M0.753799 28.3182L0.803787 28.2982C0.863787 28.2782 0.923801 28.2582 0.973801 28.2282C1.9838 27.7382 2.8938 27.1082 3.6938 26.3782C4.0938 26.0082 4.3138 25.5782 4.3838 25.0382C4.4338 24.6282 4.49379 24.2182 4.55379 23.8082C4.66379 22.9982 4.7838 22.1682 4.8438 21.3482C5.0338 18.6182 5.56378 15.8382 6.45378 12.8482C7.01378 10.9682 7.59379 9.02821 8.96379 7.46821C10.2338 6.02821 11.2338 5.41821 13.1638 6.09821C14.5538 6.58821 15.8538 7.32821 17.0638 8.04821C19.2138 9.32821 20.7038 10.4882 21.9238 11.8182L22.0638 11.9682C22.2938 12.2082 22.5038 12.4382 22.6338 12.7282C22.4338 12.8282 22.2338 12.9382 22.0238 13.0382C21.2138 13.4482 20.3638 13.8782 19.6038 14.4082C18.9738 14.8482 18.2438 15.3882 17.5738 16.0382C17.3838 16.2282 17.3438 16.4282 17.4638 16.5782C17.6138 16.7582 17.8738 16.7882 18.0838 16.6482C18.1838 16.5882 18.2638 16.5182 18.3438 16.4482C20.3338 14.5782 22.7738 13.5282 24.8938 12.7582C27.3538 11.8682 29.9838 11.3882 32.7138 11.3382C36.1138 11.2782 38.8438 11.8282 41.3438 13.0782L41.3738 13.0982C41.5338 13.1882 41.6738 13.2282 41.8038 13.1882C41.8738 13.1682 41.9838 13.1182 42.0538 12.9882C42.1238 12.8682 42.1438 12.7482 42.1138 12.6282C42.0738 12.4882 41.9638 12.3782 41.7838 12.2782L41.6938 12.2282C41.5838 12.1682 41.4838 12.1082 41.3738 12.0582C40.1838 11.5182 38.9338 11.1082 37.6738 10.8482C36.7438 10.6582 35.7838 10.5782 34.8538 10.4982C34.5038 10.4682 34.1538 10.4382 33.8038 10.4082C33.8338 10.1382 33.9738 9.90821 34.1338 9.63821L34.3138 9.33821C35.3338 7.65821 36.3838 5.90821 37.6438 4.34821C38.6038 3.14821 39.4938 2.09821 40.6538 1.34821C41.6338 0.718213 42.6738 0.658209 43.7438 1.18821C44.5938 1.60821 45.3538 2.12821 46.0038 2.74821C47.6438 4.29821 49.1038 6.15821 50.6138 8.58821C51.7338 10.3982 52.6038 12.3782 53.4338 14.2982C53.5938 14.6582 53.7438 15.0182 53.9038 15.3782L53.9238 15.4182C54.0038 15.6082 54.1038 15.8382 54.4438 15.8382C54.6438 15.8382 54.8338 15.8382 55.0338 15.8482C55.4938 15.8682 55.9638 15.8782 56.4438 15.7882C56.4738 15.7882 56.5138 15.7782 56.5438 15.7782C56.7038 15.7582 57.0238 15.7182 57.0038 15.3382C57.0038 15.2082 56.9538 15.1082 56.8838 15.0382C56.7538 14.9282 56.5838 14.9382 56.4438 14.9482H56.3838C56.1538 14.9582 55.9338 14.9682 55.7038 14.9782C55.4738 14.9782 55.2438 14.9882 55.0138 14.9982C54.7838 14.9982 54.7038 14.9682 54.6538 14.7882C54.6138 14.6682 54.5638 14.5682 54.5038 14.4682C54.4538 14.3882 54.4138 14.3082 54.3938 14.2382C54.0538 13.2782 53.5838 12.3582 53.1338 11.4782C52.9038 11.0282 52.6738 10.5682 52.4538 10.1082C51.6738 8.43821 50.6438 6.93821 49.8438 5.81821C48.3338 3.71821 46.6538 2.06821 44.6938 0.758209C43.2238 -0.221791 41.7038 -0.251788 40.1738 0.668212C39.5538 1.03821 38.9838 1.48821 38.4838 2.01821C37.2038 3.35821 36.1638 4.83821 35.2238 6.22821C34.4438 7.39821 33.6338 8.66821 33.0138 10.0582C32.8738 10.3682 32.7438 10.4282 32.4238 10.4482C29.0238 10.6782 26.3238 11.2282 23.9438 12.1782C23.6638 12.2882 23.5438 12.2582 23.3538 12.0282C21.9638 10.3582 20.2938 8.92821 18.3938 7.76821L18.2938 7.70821C16.7538 6.76821 15.1538 5.79821 13.3838 5.20821C11.9638 4.73821 10.8338 4.83821 9.83379 5.51821C8.65379 6.31821 7.8338 7.46821 7.1938 8.48821C6.8438 9.04821 6.64378 9.66821 6.45378 10.2782C6.38378 10.4882 6.31379 10.7082 6.24379 10.9182C5.67379 12.5382 5.0838 14.2782 4.6938 16.0882C4.2338 18.1982 4.01378 20.3682 3.79378 22.4682C3.75378 22.8682 3.7138 23.2782 3.6638 23.6782C3.4738 25.4182 3.35379 25.6382 1.96379 26.5682L1.89378 26.6082C1.89378 26.6082 1.80378 26.6582 1.76378 26.6982C1.41378 26.9582 1.02378 27.1682 0.643784 27.3682C0.543784 27.4182 0.443776 27.4682 0.323776 27.5382C0.213776 27.5982 0.0637788 27.6782 0.0137788 27.8382C-0.0162212 27.9282 0.00379704 28.0382 0.0637971 28.1382C0.123797 28.2482 0.243802 28.3682 0.443802 28.3682C0.523802 28.3682 0.61378 28.3482 0.73378 28.3082L0.753799 28.3182Z" fill="#74625F"/>
<path d="M52.6336 35.3482C52.7536 35.3882 52.9036 35.4182 53.0336 35.3482C53.0936 35.3182 53.1736 35.2482 53.2036 35.1182C53.2836 34.8182 53.1836 34.5882 52.9336 34.4882C52.8636 34.4582 52.7936 34.4482 52.7236 34.4282L52.6336 34.3982C51.3636 34.0282 50.0336 33.5282 48.3336 32.7782C48.1536 32.6982 47.9636 32.6182 47.7736 32.5482C47.1836 32.3082 46.6236 32.0782 46.1336 31.6882C45.7736 31.3982 45.5036 31.5482 45.3836 31.6582C45.1636 31.8582 45.1136 32.1182 45.2436 32.3982C45.2636 32.4482 45.2836 32.4882 45.2936 32.5382C45.3236 32.6182 45.3436 32.6882 45.3836 32.7582C45.8136 33.5182 46.2936 34.1082 46.8436 34.5582C47.1836 34.8382 47.5536 35.0682 47.9236 35.2882C47.2436 35.2482 46.5936 35.1982 45.9636 34.9782C44.7936 34.5782 43.8536 33.9882 43.1036 33.1782L43.0636 33.1382C42.9436 33.0082 42.7236 32.7482 42.4036 32.9382C42.1436 33.0982 42.0536 33.3882 42.1936 33.6682C42.3936 34.0782 42.3236 34.4982 42.2436 34.9382L42.2136 35.1282C41.9336 36.8582 41.3736 38.1382 40.4636 39.1582C40.0836 39.5782 39.5436 40.0982 38.8136 40.2982C38.5836 40.3582 38.5136 40.3582 38.5036 40.3582C38.5036 40.3482 38.4836 40.2882 38.5036 40.0682C38.5036 39.9982 38.5236 39.9382 38.5336 39.8682C38.5436 39.8082 38.5536 39.7582 38.5636 39.6982C38.6736 38.9182 38.5736 38.1082 38.2636 37.1582C38.1336 36.7682 37.8536 36.5182 37.4936 36.4682C37.1236 36.4182 36.9936 36.7282 36.9136 36.9082C36.8936 36.9582 36.8736 37.0082 36.8436 37.0482C36.2536 38.0782 35.4036 38.8882 34.3136 39.4782L34.2436 39.5182C34.1036 39.5982 34.0436 39.6182 33.9836 39.5982C34.0036 39.5482 34.0236 39.4882 34.0636 39.4282C35.4736 36.9682 35.9636 34.5282 35.5736 31.9682C35.1936 29.4982 34.3536 27.6882 32.9236 26.2782C31.8336 25.1982 30.6736 24.8482 29.4636 25.2382C28.5036 25.5482 27.4736 25.7082 26.1336 25.7482C24.1636 25.8182 22.3636 26.7382 20.6236 28.5582C19.0136 30.2482 17.8736 32.3582 17.2536 34.8382C16.4236 38.1182 16.6436 41.0282 17.9336 43.7382C17.9536 43.7882 17.9836 43.8382 18.0136 43.8882C18.1236 44.0882 18.1636 44.1882 18.1136 44.2582C18.0136 44.3682 17.8436 44.3282 17.5936 44.2382L17.5036 44.2082C16.9036 44.0182 16.3536 43.6682 15.8736 43.3482C15.7136 43.2382 15.5336 43.1482 15.3536 43.1982C15.2436 43.2282 15.1436 43.3182 15.0836 43.4482C15.0036 43.6182 15.0236 43.8182 15.0536 43.9982V44.0582C15.2036 45.1582 15.6236 46.1782 16.3336 47.1882C16.3636 47.2282 16.3936 47.2682 16.4236 47.3082C16.4936 47.3982 16.5636 47.4782 16.6036 47.5882H16.4636C15.2736 47.6182 14.1436 47.6482 13.2236 46.7782C13.0236 46.5882 12.8336 46.6382 12.7136 46.6982C12.5936 46.7582 12.4036 46.9082 12.4636 47.2582C12.5036 47.4482 12.6436 47.5582 12.7736 47.6482C13.1936 47.9182 13.6136 48.1782 14.1136 48.2882C14.7836 48.4382 15.4036 48.5182 15.9936 48.5182C16.3536 48.5182 16.6936 48.4882 17.0336 48.4382C17.3536 48.3882 17.5636 48.2582 17.6536 48.0582C17.7436 47.8582 17.7036 47.6182 17.5236 47.3282C17.4136 47.1582 17.2936 46.9882 17.1736 46.8382C17.1136 46.7582 17.0436 46.6682 16.9836 46.5782C16.5336 45.9382 16.2336 45.2882 16.0536 44.5382C16.2736 44.5982 16.4536 44.6882 16.6236 44.7782L16.7236 44.8282C17.0836 45.0082 17.4836 45.1182 17.9436 45.1482C18.3536 45.1782 18.6536 45.0882 18.8336 44.8682C19.0236 44.6482 19.0636 44.3382 18.9736 43.9282C18.9236 43.7182 18.8536 43.5082 18.7636 43.3282C17.8636 41.4882 17.5436 39.4382 17.7936 37.0682C18.0636 34.4582 18.8536 32.2982 20.1936 30.4682C21.3336 28.9082 22.6336 27.8082 24.1936 27.0882C25.3036 26.5782 26.4236 26.4182 27.4936 26.6282C27.9336 26.7182 28.2736 26.6482 28.6636 26.3982C29.8136 25.6682 31.0736 25.7682 32.1236 26.6582C32.5836 27.0482 32.9736 27.5282 33.3336 28.1382C33.9936 29.2482 34.4236 30.4782 34.6736 31.9082C35.0836 34.2582 34.6936 36.4882 33.5336 38.5282L33.4536 38.6682C33.3136 38.9082 33.1636 39.1582 33.0936 39.4482C33.0136 39.7482 33.0536 40.0082 33.2036 40.1982C33.3536 40.3882 33.5936 40.4882 33.9036 40.4882C34.2636 40.4882 34.5736 40.3382 34.8336 40.1982C35.8136 39.6682 36.6136 38.9082 37.2936 37.8782C37.3236 37.8282 37.3536 37.7782 37.3736 37.7182C37.4136 37.6182 37.4436 37.5682 37.4936 37.5382C37.6036 37.6782 37.6336 37.8582 37.6736 38.0682V38.1382C37.8036 38.7682 37.7436 39.3782 37.6736 40.0482C37.6236 40.4682 37.7136 40.7782 37.9236 40.9682C38.1336 41.1582 38.4536 41.2082 38.8636 41.1182C39.6036 40.9482 40.2536 40.5982 40.7836 40.0782C41.9536 38.9082 42.7036 37.4382 43.0636 35.6082C43.1236 35.3182 43.1636 35.0182 43.2136 34.7082C43.2236 34.6382 43.2336 34.5682 43.2436 34.4882C43.3036 34.5282 43.3636 34.5582 43.4036 34.5982C44.9836 35.9382 46.8936 36.1482 48.3836 36.1882C48.6736 36.1882 48.9836 36.1882 49.2736 35.9782C49.4636 35.8482 49.6636 35.6682 49.6736 35.3782C49.6936 35.0182 49.3736 34.8882 49.1836 34.8182C49.1136 34.7882 49.0436 34.7682 48.9636 34.7382C48.8436 34.6982 48.7336 34.6582 48.6236 34.6082C47.7836 34.2182 47.0936 33.6582 46.5336 32.8882C46.5736 32.9082 46.6036 32.9282 46.6436 32.9482C47.1336 33.1582 47.6236 33.3682 48.1136 33.5782C48.8836 33.9182 49.6836 34.2582 50.4736 34.5882C51.0236 34.8082 51.5936 34.9982 52.1436 35.1682C52.3036 35.2182 52.4736 35.2682 52.6336 35.3282V35.3482Z" fill="#74625F"/>
<path d="M22.1636 47.7482C22.1736 47.9082 22.1936 48.1382 22.2336 48.3682C22.3136 48.7482 22.6936 49.0482 23.1036 49.0582C23.4636 49.0582 23.7036 48.8482 23.8336 48.4482C23.9036 48.2182 23.9136 47.9782 23.9236 47.7282C23.9636 46.2482 24.6636 45.3182 26.1436 44.7982C27.0336 44.4882 28.3136 44.6582 28.9536 45.5782C29.0436 45.7182 29.1836 45.8382 29.3836 45.9782C29.7036 46.1982 30.0536 46.1882 30.4036 45.9582C30.7036 45.7582 30.8236 45.4682 30.7536 45.0782C30.6836 44.6182 30.4736 44.2582 30.1336 44.0182L29.9436 43.8782C29.5136 43.5582 29.0636 43.2182 28.4836 43.1282C28.2736 43.0982 28.1936 43.0182 28.1036 42.7682C28.0036 42.4682 27.8736 42.1782 27.6236 42.1182C27.3836 42.0682 27.1436 42.2582 26.8636 42.5482C26.8236 42.5882 26.7836 42.6282 26.7536 42.6782C26.6236 42.8382 26.5036 42.9682 26.3136 42.9982C25.1136 43.1682 24.1036 43.7882 23.1336 44.9382C22.4636 45.7282 22.1636 46.5582 22.1436 47.6182C22.1436 47.6182 22.1436 47.6282 22.1436 47.6382C22.1436 47.6682 22.1436 47.7082 22.1436 47.7582L22.1636 47.7482Z" fill="#74625F"/>
<path d="M49.3837 41.0982C49.5737 41.3982 49.7537 41.5582 49.9637 41.5982C50.1437 41.6382 50.3336 41.5882 50.5436 41.4482C51.0836 41.0882 51.0237 40.7482 50.7237 40.2082C50.2137 39.2982 49.4437 38.6982 48.4137 38.4182C48.1237 38.3382 47.9837 38.2582 47.9037 37.9782C47.8237 37.7082 47.7037 37.5582 47.5337 37.5182C47.3737 37.4882 47.2036 37.5682 47.0436 37.7682C46.6136 38.2882 46.0536 38.5482 45.4536 38.8282C45.3236 38.8882 45.2036 38.9482 45.0736 39.0082C44.0136 39.5282 43.3737 40.3982 43.1837 41.5882C43.1137 42.0482 43.1837 42.4082 43.4137 42.7182C43.5937 42.9582 43.7937 43.0282 43.9737 43.0282C44.0537 43.0282 44.1237 43.0182 44.1837 42.9982C44.3137 42.9582 44.7036 42.8382 44.7336 42.3982C44.7336 42.3482 44.7337 42.3082 44.7437 42.2582C44.7437 42.2082 44.7437 42.1482 44.7537 42.0982C44.7937 41.3882 45.1237 40.8882 45.7837 40.5782C46.3337 40.3182 46.9137 40.1982 47.5637 40.2282C47.5637 40.2282 47.5737 40.2282 47.5837 40.2282C48.4137 40.1682 48.9937 40.4482 49.4037 41.1082L49.3837 41.0982Z" fill="#74625F"/>
<path d="M29.194 37.2282C29.314 37.2782 29.474 37.3482 29.634 37.3282C29.874 37.2982 30.074 37.1582 30.174 36.9382C30.324 36.6082 30.104 36.4082 29.964 36.2882L29.914 36.2482C28.784 35.2082 27.364 34.7082 25.704 34.7482H25.634C25.584 34.7482 25.524 34.7482 25.474 34.7482C23.334 34.7982 21.604 35.7582 20.334 37.6082C20.204 37.7982 20.114 38.0082 20.064 38.2082C19.984 38.5682 20.094 38.8482 20.374 38.9782C20.474 39.0282 20.574 39.0482 20.664 39.0482C20.844 39.0482 21.014 38.9582 21.164 38.7882C22.484 37.2482 24.324 36.8982 25.784 36.7582C27.004 36.6382 28.164 36.7982 29.204 37.2282H29.194Z" fill="#74625F"/>
<path d="M41.434 21.0182L41.404 20.9482C41.034 20.0882 40.414 19.4482 39.904 18.9782C38.544 17.7182 36.764 17.0382 34.644 16.9782C32.584 16.9782 30.924 17.4482 29.414 18.4382C27.794 19.4982 26.824 20.9182 26.524 22.6682C26.494 22.8682 26.494 23.0582 26.504 23.2482V23.2982C26.504 23.4782 26.654 23.6182 26.854 23.6382C26.864 23.6382 26.884 23.6382 26.894 23.6382C27.064 23.6382 27.214 23.5282 27.244 23.3582C27.264 23.2882 27.264 23.2082 27.274 23.1382C27.274 23.0882 27.274 23.0382 27.294 22.9782C27.484 21.9282 27.944 21.0082 28.634 20.2382C30.044 18.6882 31.834 17.8882 33.964 17.8682C37.314 17.8482 39.434 18.9482 40.644 21.3482C40.724 21.4982 40.824 21.6682 40.994 21.7182C41.094 21.7482 41.204 21.7382 41.324 21.6782C41.664 21.4882 41.514 21.1682 41.444 21.0182H41.434Z" fill="#74625F"/>
<path d="M40.3536 22.8582L40.2336 22.7382C39.5336 22.0282 38.6136 21.6082 37.4936 21.4782C37.4336 21.4782 37.3836 21.4782 37.3336 21.4782C37.2436 21.4782 37.1636 21.4782 37.0836 21.4782C36.9436 21.4982 36.6436 21.5582 36.6536 21.8982C36.6536 22.0182 36.7136 22.2182 37.0336 22.2882C37.1136 22.3082 37.1936 22.3082 37.2736 22.3182H37.3536C38.3836 22.4182 39.2636 22.8582 39.9436 23.6482C40.0636 23.7882 40.1836 23.9382 40.3036 24.0782C40.4036 24.2082 40.5136 24.3382 40.6236 24.4582C40.7036 24.5482 40.8436 24.7082 41.0336 24.7082C41.1136 24.7082 41.1936 24.6782 41.2836 24.6182C41.6336 24.3682 41.4135 24.0582 41.3235 23.9382C41.0435 23.5382 40.7036 23.1982 40.3736 22.8582H40.3536Z" fill="#74625F"/>
<path d="M1.36396 34.2782C2.60396 34.1882 3.62398 34.0782 4.60398 33.6382C4.79398 33.5482 4.95396 33.4582 5.08396 33.3582C5.21396 33.2582 5.28396 33.0582 5.17396 32.8782C5.07396 32.7182 4.92396 32.6382 4.76396 32.6682C4.65396 32.6882 4.55397 32.7282 4.46397 32.7682L4.38398 32.7982C3.40398 33.1882 2.33398 33.3882 1.19398 33.3882C1.15398 33.3882 1.11395 33.3882 1.07395 33.3782C0.933954 33.3582 0.763982 33.3382 0.633982 33.4482C0.553982 33.5082 0.503967 33.6082 0.493967 33.7382C0.453967 34.1282 0.793959 34.1882 0.953959 34.2082C1.00396 34.2082 1.05397 34.2282 1.09397 34.2382C1.15397 34.2582 1.22396 34.2682 1.30396 34.2682C1.31396 34.2682 1.33397 34.2682 1.34397 34.2682C1.34397 34.2682 1.34398 34.2682 1.35398 34.2682L1.36396 34.2782Z" fill="#74625F"/>
<path d="M5.94387 35.8682C6.08387 35.7782 6.14385 35.6082 6.08385 35.4182C6.02385 35.2382 5.86386 35.1282 5.68386 35.1482C5.51386 35.1682 5.34385 35.2182 5.14385 35.2882C4.36385 35.5482 3.50385 35.6682 2.52385 35.6482H2.29384C2.09384 35.6482 1.89387 35.6482 1.69387 35.6482C1.51387 35.6482 1.36385 35.7682 1.33385 35.9582C1.30385 36.1382 1.38384 36.3082 1.54384 36.3782C1.63384 36.4182 1.74384 36.4382 1.82384 36.4482H1.86385C2.17385 36.5082 2.48384 36.5282 2.79384 36.5282C3.73384 36.5282 4.62385 36.3182 5.42385 36.1182C5.60385 36.0682 5.76386 35.9682 5.93386 35.8682H5.94387Z" fill="#74625F"/>
<path d="M0.793823 30.5282C0.793823 30.5282 0.873828 30.5282 0.923828 30.5282C0.953828 30.5282 0.983824 30.5282 1.01382 30.5282H1.10385C1.10385 30.5282 1.11384 30.5282 1.12384 30.5282C2.16384 30.4182 3.11384 29.9982 4.03384 29.5982L4.30383 29.4782C4.49383 29.3982 4.57383 29.2282 4.52383 29.0482C4.46383 28.8382 4.26384 28.7282 4.03384 28.7782C3.91384 28.8082 3.79383 28.8482 3.67383 28.8882C3.62383 28.9082 3.57382 28.9282 3.51382 28.9382L2.92383 29.1282C2.38383 29.3082 1.83384 29.4882 1.28384 29.6582C1.19384 29.6882 1.09383 29.6982 0.983826 29.7182C0.883826 29.7282 0.793827 29.7482 0.703827 29.7682C0.543827 29.8082 0.443848 29.9582 0.443848 30.1582C0.443848 30.3482 0.583844 30.4882 0.783844 30.4982L0.793823 30.5282Z" fill="#74625F"/>
<path d="M51.354 44.2382C51.294 44.0282 51.114 43.9982 50.994 43.9682L50.944 44.1182L50.974 43.9582C50.974 43.9582 50.924 43.9582 50.904 43.9582L50.834 43.9782C50.764 43.9982 50.694 44.0182 50.624 44.0382C50.004 44.2782 49.404 44.4982 48.744 44.6682C48.624 44.6982 48.454 44.7382 48.374 44.8882C48.324 44.9782 48.324 45.0782 48.354 45.1982C48.394 45.3282 48.474 45.4282 48.584 45.4882C48.644 45.5182 48.7139 45.5382 48.7939 45.5382C48.8739 45.5382 48.964 45.5182 49.054 45.4882L49.174 45.4482C49.664 45.2882 50.144 45.1182 50.624 44.9482C50.814 44.8782 51.004 44.7882 51.194 44.6782C51.334 44.5882 51.404 44.4182 51.354 44.2282V44.2382Z" fill="#74625F"/>
<path d="M50.7836 45.8582C50.7836 45.8582 50.7236 45.8582 50.6936 45.8582C50.6736 45.8582 50.6536 45.8582 50.6336 45.8582C50.2136 45.9482 49.8136 46.1282 49.4336 46.2982C49.2536 46.3782 49.0636 46.4582 48.8836 46.5282C48.6136 46.6282 48.5136 46.7882 48.5836 46.9882C48.6536 47.1882 48.8136 47.2982 49.0136 47.2982C49.0536 47.2982 49.0936 47.2982 49.1336 47.2882C49.5936 47.1882 50.0236 46.9982 50.4436 46.8182C50.6036 46.7482 50.7636 46.6782 50.9136 46.6182C51.1136 46.5382 51.2236 46.3182 51.1636 46.1182C51.1036 45.8882 50.8936 45.8782 50.7936 45.8782L50.7836 45.8582Z" fill="#74625F"/>
<path d="M38.574 47.1682C38.344 47.1782 38.134 47.2882 38.004 47.4582C37.904 47.5882 37.864 47.7382 37.894 47.8782C37.954 48.1682 38.164 48.3382 38.464 48.3382C38.464 48.3382 38.484 48.3382 38.494 48.3382C38.684 48.3382 38.874 48.2382 39.014 48.0882C39.134 47.9582 39.194 47.7882 39.184 47.6382C39.184 47.6382 39.184 47.6282 39.184 47.6182C39.124 47.3082 38.904 47.1482 38.584 47.1682H38.574Z" fill="#74625F"/>
<path d="M83.1637 32.9582C83.1437 32.8182 83.1336 32.6682 83.1236 32.5282C83.1136 32.3782 83.0536 32.2682 82.9636 32.1882C82.9036 32.1382 82.8036 32.0882 82.6536 32.1082C82.4436 32.1382 82.3136 32.3082 82.3136 32.5482C82.3136 32.6582 82.3236 32.7782 82.3336 32.8882C82.3336 32.9982 82.3437 33.1182 82.3537 33.2282C82.4537 37.3382 80.9636 40.3382 77.8236 42.4082C77.7036 42.4882 77.5736 42.5782 77.4436 42.6882C77.2436 42.8582 77.1937 43.0382 77.2937 43.2082C77.3737 43.3482 77.4737 43.3982 77.5437 43.4182C77.5737 43.4182 77.6036 43.4282 77.6436 43.4282C77.7236 43.4282 77.8136 43.3982 77.9036 43.3482C77.9636 43.3182 78.0236 43.2782 78.0836 43.2482L78.2337 43.1582C79.5937 42.3682 80.6937 41.2482 81.6137 39.7482C82.5937 38.1282 83.1336 36.2882 83.2036 34.2682C83.2736 33.8282 83.2237 33.3782 83.1737 32.9482L83.1637 32.9582Z" fill="#74625F"/>
<path d="M64.5939 38.4582C64.4939 38.4882 64.3939 38.5282 64.3039 38.5682C64.1439 38.6382 64.0639 38.8182 64.1139 39.0082C64.1639 39.1882 64.2939 39.2982 64.4639 39.3182C64.4839 39.3182 64.5039 39.3182 64.5239 39.3182C64.7439 39.3182 64.9339 39.2382 65.1039 39.1682L65.1839 39.1282C66.3239 38.6582 67.4539 38.0082 68.6139 37.1482C70.2239 35.9682 71.4539 34.7382 72.3839 33.3782C72.7039 32.9082 72.9039 32.4682 72.9839 32.0482C72.9839 32.0282 72.9839 32.0182 72.9839 31.9982V31.9682C72.9639 31.8382 72.9439 31.6582 72.7439 31.5882C72.5439 31.5182 72.3539 31.6082 72.2439 31.8282C71.9639 32.4182 71.7139 32.8582 71.4239 33.2282C69.8339 35.2782 67.7039 36.9482 64.9139 38.3182C64.8139 38.3682 64.6939 38.4082 64.5839 38.4482L64.5939 38.4582Z" fill="#74625F"/>
<path d="M91.7937 43.2282C91.6937 43.1882 91.5837 43.1482 91.4837 43.1082C91.2437 43.0182 90.9837 42.9182 90.7537 42.8082C88.0537 41.5182 86.2737 39.6982 85.2937 37.2482C85.1837 36.9582 85.0737 36.6682 84.9737 36.3882L84.9337 36.2682C84.7937 35.8882 84.5237 35.9182 84.4037 35.9482C84.2337 35.9982 84.0537 36.1382 84.1537 36.5082C84.2937 37.0482 84.5037 37.6082 84.7737 38.1682C85.8837 40.4782 87.6637 42.2482 90.0437 43.4382C90.5537 43.6982 91.0237 43.9182 91.5237 44.0282C91.5237 44.0282 91.5637 44.0282 91.5737 44.0282C91.6137 44.0282 91.6637 44.0282 91.7137 44.0282C91.9037 44.0282 92.1237 43.9782 92.1637 43.6882C92.2137 43.3682 91.8937 43.2482 91.7937 43.2082V43.2282Z" fill="#74625F"/>
<path d="M75.114 33.8182C75.114 33.7482 75.114 33.6682 75.114 33.5982C75.114 33.2182 75.114 32.7382 75.004 32.2682C74.994 32.2182 74.984 32.1582 74.984 32.0982C74.974 31.9382 74.954 31.7282 74.804 31.6182C74.714 31.5482 74.594 31.5282 74.454 31.5582C74.344 31.5782 74.254 31.6282 74.204 31.7182C74.104 31.8682 74.144 32.0682 74.184 32.2382C74.194 32.2882 74.204 32.3482 74.214 32.3882C74.554 35.8682 73.644 38.6782 71.454 40.9882L71.404 41.0382C71.314 41.1282 71.224 41.2282 71.144 41.3282C71.024 41.4782 71.014 41.6682 71.124 41.8082C71.194 41.8982 71.284 41.9482 71.384 41.9582C71.394 41.9582 71.404 41.9582 71.414 41.9582C71.504 41.9582 71.604 41.9182 71.674 41.8582C71.914 41.6482 72.124 41.4582 72.284 41.2682C74.144 39.1882 75.074 36.7582 75.114 33.8382V33.8182Z" fill="#74625F"/>
<path d="M93.6137 42.5782C93.6137 42.5782 93.5237 42.5382 93.4937 42.5082C91.8037 41.4882 90.5236 40.2382 89.5736 38.6882C89.5036 38.5782 89.3836 38.4182 89.1436 38.4182C89.1236 38.4182 89.0936 38.4182 89.0736 38.4282C88.8436 38.5282 88.7436 38.7382 88.8236 38.9882C88.9336 39.3382 89.1436 39.6182 89.3436 39.8882L89.4336 39.9982C90.3836 41.2682 91.6137 42.3482 93.1037 43.2082C93.1437 43.2282 93.1837 43.2682 93.2337 43.3082C93.3537 43.4082 93.4936 43.5182 93.6536 43.5182C93.6736 43.5182 93.6936 43.5182 93.7136 43.5182C93.8236 43.4982 93.9236 43.4182 94.0036 43.2882C94.0636 43.1782 94.0837 43.0682 94.0537 42.9582C93.9937 42.7582 93.7836 42.6582 93.6236 42.5682L93.6137 42.5782Z" fill="#74625F"/>
<path d="M66.6341 34.4082C66.7341 34.2982 66.8841 34.1282 66.7641 33.7782C66.7541 33.7382 66.7141 33.6982 66.6741 33.6782C66.6341 33.6582 66.5841 33.6582 66.5441 33.6782C65.9741 33.9682 65.5641 34.3682 65.2441 34.7082C64.5141 35.4982 63.6041 36.1182 62.7341 36.7182L62.3041 37.0082C62.1541 37.1082 62.014 37.2182 61.874 37.3282C61.724 37.4482 61.6841 37.6482 61.7941 37.8082C61.8741 37.9282 62.0041 37.9982 62.1341 37.9982C62.1641 37.9982 62.2041 37.9982 62.2341 37.9882C62.3341 37.9582 62.4441 37.9082 62.5441 37.8382C64.2741 36.7082 65.564 35.6182 66.624 34.3982L66.6341 34.4082Z" fill="#74625F"/>
<path d="M77.4937 38.7282L77.5137 38.6782C77.5137 38.6782 77.5137 38.6382 77.5137 38.6182C77.5037 38.5082 77.4737 38.2582 77.2237 38.1682C76.9437 38.0682 76.8037 38.3182 76.7437 38.4182C76.7037 38.4882 76.6737 38.5582 76.6437 38.6282C76.6237 38.6782 76.6037 38.7182 76.5837 38.7682C75.8737 40.2182 75.1237 41.1382 74.1237 41.7782C74.0037 41.8582 73.7237 42.0282 73.8937 42.3282C73.9337 42.4082 74.0437 42.5482 74.2637 42.5482C74.3437 42.5482 74.4437 42.5282 74.5637 42.4782C74.6737 42.4282 74.7637 42.3582 74.8537 42.2982L74.9037 42.2582C76.2037 41.3082 76.9337 39.9682 77.4237 38.9082C77.4537 38.8482 77.4637 38.7982 77.4837 38.7382L77.4937 38.7282Z" fill="#74625F"/>
<path d="M82.7138 42.3282C83.3438 42.0982 83.9738 41.8582 84.6138 41.6182C84.7738 41.5582 84.8437 41.4582 84.8837 41.3882C84.9137 41.3182 84.9337 41.2082 84.8837 41.0582C84.8037 40.8582 84.6238 40.7682 84.4038 40.8182C83.8038 40.9382 83.2438 41.1782 82.7038 41.4082L82.4138 41.5282C82.2038 41.6082 82.1037 41.8382 82.1837 42.0382C82.2537 42.2382 82.4138 42.3482 82.5938 42.3482C82.6438 42.3482 82.6938 42.3482 82.7438 42.3182L82.7138 42.3282Z" fill="#74625F"/>
<path d="M71.3439 39.6882C71.4639 39.5082 71.4239 39.2882 71.2539 39.1382C70.7739 38.7382 70.2739 38.3382 69.7839 37.9382L69.6139 37.8082C69.6139 37.8082 69.5239 37.7582 69.4839 37.7382H69.4539C69.4539 37.7382 69.4039 37.7082 69.3839 37.7082C69.2239 37.7082 69.0839 37.7982 69.0139 37.9482C68.9239 38.1082 68.9639 38.2982 69.1039 38.4182C69.7439 38.9582 70.2539 39.3782 70.7239 39.7582C70.8139 39.8282 70.9239 39.8682 71.0239 39.8682C71.0439 39.8682 71.0639 39.8682 71.0839 39.8682C71.1639 39.8582 71.2739 39.8182 71.3539 39.6882H71.3439Z" fill="#74625F"/>
<path d="M75.2839 50.5682C75.0239 50.5682 74.7939 50.6482 74.6539 50.7982C74.5539 50.8982 74.5039 51.0182 74.5039 51.1482C74.5039 51.2982 74.5739 51.4482 74.7039 51.5782C74.8639 51.7282 75.0739 51.8082 75.2939 51.8082C75.2939 51.8082 75.3139 51.8082 75.3239 51.8082C75.7339 51.7982 76.064 51.5082 76.054 51.1682C76.054 50.8382 75.7139 50.5782 75.2839 50.5782V50.5682Z" fill="#74625F"/>
<path d="M91.1139 48.7782C90.9139 48.7982 90.7739 48.9582 90.7439 49.1682C90.7339 49.2682 90.7539 49.3682 90.7639 49.4282C90.7939 49.5482 90.7939 49.6582 90.8039 49.7682C90.8139 49.9682 90.8339 50.1782 90.9639 50.3682C91.0539 50.4882 91.1639 50.5582 91.2839 50.5582C91.3239 50.5582 91.3639 50.5582 91.4039 50.5382C91.5039 50.4982 91.6339 50.3982 91.6539 50.2682C91.7339 49.8382 91.6439 49.4182 91.5339 49.0282C91.4839 48.8682 91.3039 48.7482 91.1239 48.7682L91.1139 48.7782Z" fill="#74625F"/>
<path d="M90.0939 50.3382C90.0939 50.3382 90.0939 50.3182 90.0939 50.3082L90.0639 50.0882C90.0339 49.9182 90.0139 49.7382 89.9839 49.5682C89.9539 49.3982 89.8039 49.2882 89.6039 49.2882C89.4339 49.2882 89.2839 49.3882 89.2239 49.5482C89.1239 49.8182 89.1639 50.0782 89.2039 50.3082L89.2239 50.4382C89.2539 50.6182 89.3339 50.7682 89.4439 50.8482C89.5139 50.8982 89.6039 50.9282 89.7039 50.9282C89.7339 50.9282 89.7739 50.9282 89.8039 50.9282C90.1339 50.8682 90.1139 50.5782 90.1039 50.4382C90.1039 50.4082 90.1039 50.3782 90.1039 50.3482L90.0939 50.3382Z" fill="#74625F"/>
<path d="M68.9639 42.4982C68.7239 42.4582 68.494 42.3782 68.244 42.2882L68.0439 42.2182C67.8739 42.1582 67.7939 42.0782 67.7739 41.9282C67.7539 41.7782 67.7039 41.6182 67.6239 41.4482C67.4939 41.1582 67.3439 41.0082 67.1639 41.0082C67.0039 40.9982 66.8439 41.1182 66.7139 41.3582C66.5639 41.6382 66.4639 41.6082 66.1739 41.4782C66.1439 41.4682 66.1139 41.4482 66.0839 41.4382C65.9939 41.3982 65.8939 41.3382 65.7739 41.3282H65.6939C64.7339 41.2082 64.4939 41.2182 64.0639 42.1882C64.0039 42.3382 63.9639 42.4682 63.9339 42.5882C63.7539 43.6482 63.9139 44.5182 64.4339 45.1982C64.9939 45.9282 65.9339 46.3782 67.1839 46.4982C68.6039 46.4982 69.7739 45.5682 70.0439 44.2582C70.1439 43.7582 70.0939 43.3482 69.8839 43.0382C69.6939 42.7582 69.3739 42.5682 68.9439 42.4982H68.9639ZM67.3439 44.4482C67.1439 44.1882 67.0839 43.8582 67.2039 43.5482C67.2939 43.3182 67.4639 43.1382 67.6839 43.0382C67.8039 42.9882 67.9339 42.9582 68.0639 42.9582C68.1739 42.9582 68.2839 42.9782 68.3939 43.0182C68.6239 43.1082 68.8039 43.2782 68.9039 43.4982C69.0039 43.7182 69.0139 43.9782 68.9239 44.2082C68.8239 44.4682 68.6039 44.6682 68.3339 44.7582C68.2139 44.7982 68.1439 44.9082 68.1539 45.0282C68.1539 45.0982 68.1539 45.1682 68.1239 45.2382C68.0339 45.4782 67.7639 45.5982 67.5239 45.5082C67.4039 45.4682 67.3139 45.3782 67.2639 45.2682C67.2139 45.1582 67.2039 45.0282 67.2539 44.9082C67.2739 44.8682 67.2939 44.8182 67.3339 44.7782C67.4139 44.6882 67.4139 44.5482 67.3339 44.4582L67.3439 44.4482Z" fill="#74625F"/>
<path d="M89.1539 45.5682C89.0039 44.9082 88.6939 44.6482 88.0239 44.5982C87.4439 44.5582 86.8239 44.5182 86.2039 44.5082C86.0039 44.5082 85.8639 44.4382 85.7539 44.2782L85.7039 44.2082C85.6139 44.0882 85.5239 43.9682 85.4139 43.8482C85.1839 43.5982 84.9739 43.5082 84.7939 43.5582C84.6139 43.6082 84.4839 43.7782 84.4139 44.0682C84.3239 44.4082 84.1939 44.4982 83.8339 44.4382C83.7639 44.4282 83.6839 44.4382 83.6239 44.4382H83.5739C82.9039 44.4682 82.4039 44.9782 82.4239 45.5982C82.4939 47.0482 83.0539 47.9982 84.1339 48.5182C84.8239 48.8482 85.4939 49.0282 86.0139 49.0282H86.0339C86.0339 49.0282 86.1239 49.0282 86.1639 49.0282C87.1039 49.0282 87.9739 48.6282 88.5639 47.9082C89.1239 47.2282 89.3439 46.3682 89.1539 45.5582V45.5682ZM85.6639 47.0882C85.5839 47.1482 85.5539 47.2582 85.5939 47.3482C85.6239 47.4182 85.6439 47.4882 85.6339 47.5582C85.6339 47.8182 85.4139 48.0282 85.1539 48.0182C84.8939 48.0182 84.6939 47.7982 84.6939 47.5382C84.6939 47.4882 84.7039 47.4382 84.7239 47.3882C84.7639 47.2982 84.7239 47.1882 84.6439 47.1282C84.3739 46.9582 84.2139 46.6582 84.2239 46.3482C84.2339 45.8582 84.6439 45.4682 85.1239 45.4682C85.1239 45.4682 85.1439 45.4682 85.1539 45.4682C85.6539 45.4782 86.0439 45.8982 86.0339 46.3982C86.0339 46.6782 85.8939 46.9282 85.6639 47.0982V47.0882Z" fill="#74625F"/>
<path d="M102.734 28.8782C102.584 28.6082 102.564 28.3982 102.674 28.1582C102.894 27.6782 103.014 27.1582 103.124 26.6682C103.154 26.5482 103.184 26.4382 103.204 26.3182C104.024 22.9882 104.154 20.3982 103.634 17.9182C103.194 15.8082 102.474 14.2182 101.354 12.9382C99.6538 10.9682 97.4737 10.0482 94.8937 10.1982C91.4637 10.3982 88.8137 12.3582 86.8937 14.0482C86.6137 14.2982 86.4737 14.3482 86.1537 14.2082C84.5937 13.5482 82.9337 13.1082 81.2137 12.8982C78.4137 12.5682 75.7637 12.7882 73.3437 13.5482C73.1437 13.6082 73.0737 13.5982 72.9537 13.4982C71.9237 12.5582 70.8937 11.7682 69.8137 11.0782C68.0437 9.95821 66.4738 9.33821 64.8538 9.12821C61.3938 8.67821 58.7738 10.3382 57.6738 13.6682C57.3138 14.7582 57.1137 15.7882 57.0837 16.8282C57.0704 17.1815 56.8871 17.3749 56.5337 17.4082C56.4337 17.4182 56.3237 17.4282 56.2237 17.4382C55.8237 17.4782 55.4437 17.5282 55.0637 17.4782C54.7837 17.4382 54.5837 17.5782 54.5437 17.8182C54.5137 17.9782 54.5637 18.0882 54.6137 18.1482C54.6937 18.2482 54.8237 18.3182 55.0037 18.3282C55.2237 18.3482 55.4637 18.3482 55.7137 18.3282C56.0437 18.3082 56.3838 18.2782 56.7438 18.2482L57.0637 18.2182L57.0837 18.4882C57.1037 18.7882 57.1237 19.0582 57.1337 19.3382C57.1471 19.6182 57.0204 19.7782 56.7537 19.8182C56.4037 19.8682 56.0437 19.8982 55.6937 19.9282L55.3337 19.9582C55.0437 19.9882 54.8737 20.1382 54.8737 20.3782C54.8737 20.6082 55.0738 20.7782 55.3538 20.7882C55.4638 20.7882 55.5837 20.7882 55.6937 20.7882C55.8337 20.7882 55.9738 20.7782 56.1038 20.7882C56.3038 20.8082 56.4937 20.7482 56.6837 20.6882C57.0037 20.5882 57.1537 20.5582 57.2637 20.7082C57.4137 20.8982 57.4438 21.1982 57.4838 21.5182C57.5038 21.6682 57.5138 21.8182 57.5438 21.9582C57.5438 22.0082 57.5637 22.0582 57.5637 22.1082C57.5637 22.1582 57.5737 22.2082 57.5837 22.2482C57.6037 22.3582 57.5937 22.4682 57.5837 22.5982C57.5837 22.8082 57.5637 23.0482 57.6837 23.2782C58.0737 24.0082 57.8537 24.6182 57.4037 25.3182C56.5837 26.5882 55.9437 27.8082 55.4437 29.0282C53.7237 33.2282 53.4538 37.2382 54.6338 41.2882C54.6438 41.3282 54.6537 41.3682 54.6737 41.3982C54.7137 41.5182 54.7437 41.6182 54.7337 41.7382C54.5637 43.2482 54.2237 44.4282 53.6537 45.4282C52.6737 47.1682 51.1337 48.3782 49.9137 49.2382C48.3337 50.3582 46.5137 51.2682 44.0137 52.2182C43.0337 52.5882 41.9737 52.9282 40.7837 53.2582C40.6137 53.3082 40.5637 53.2982 40.5637 53.3082C40.5637 53.2882 40.5437 53.2382 40.5637 53.0282L40.5837 52.8682C40.6837 52.0982 40.7837 51.2982 40.7337 50.4982C40.6937 49.8582 40.7637 49.5482 41.3437 49.4582C41.4337 49.4482 41.5037 49.3982 41.5637 49.3582L41.6137 49.3282C41.7637 49.2282 42.0737 49.0382 41.8737 48.6982C41.8137 48.5982 41.7237 48.5282 41.6237 48.4982C41.4937 48.4682 41.3437 48.4982 41.1937 48.5982C40.7537 48.8782 40.2637 48.8582 39.7537 48.7982C39.1637 48.7382 38.5437 48.7082 37.9637 49.0382C37.0037 49.5782 36.2637 49.9182 35.3937 49.3082C35.3037 49.2482 35.1937 49.2282 35.0937 49.2482C34.9637 49.2782 34.8537 49.3582 34.7737 49.4782C34.7037 49.5982 34.6837 49.7282 34.7137 49.8382C34.7437 49.9482 34.8337 50.0382 34.9437 50.0882C35.3737 50.2782 35.4237 50.6182 35.4537 51.1482V51.2382C35.4837 51.6482 35.5337 52.0582 35.6137 52.4582C35.6937 52.8882 35.7838 53.3082 35.8838 53.7482C35.9138 53.8782 35.9437 54.0082 35.9737 54.1482C35.8637 54.1582 35.7637 54.1782 35.6637 54.1982C35.3237 54.2482 35.0037 54.2982 34.6837 54.3282C34.3371 54.3615 34.1204 54.2082 34.0337 53.8682C34.0137 53.7982 34.0037 53.7382 33.9837 53.6682C33.9637 53.5582 33.9337 53.4482 33.9037 53.3482C33.6737 52.5682 33.2937 52.3082 32.5237 52.3782C32.3937 52.3882 32.2637 52.3782 32.1237 52.3782C31.7437 52.3782 31.3137 52.3582 30.9737 52.6782C30.7637 52.8782 30.6137 52.8082 30.3337 52.6582C30.1237 52.5382 29.8637 52.3982 29.5737 52.5282C29.5337 52.5482 29.4837 52.5482 29.4337 52.5582C29.3937 52.5582 29.3537 52.5682 29.3037 52.5782L28.5037 52.7682C27.9537 52.8982 27.4137 53.0282 26.8637 53.1482C26.5137 53.2282 26.3137 53.4082 26.2237 53.7282C26.1304 54.0615 25.9238 54.2015 25.6038 54.1482C23.2238 53.7482 20.6937 53.2182 18.3737 52.1282C16.5937 51.2982 14.3437 50.0582 12.7037 47.9382C12.4837 47.6482 12.3037 47.3982 12.2137 47.0782C12.0637 46.5582 11.7937 46.1782 11.3937 45.9682C10.2637 45.3482 9.28374 44.5582 8.46374 43.8682C6.60374 42.2882 5.36375 40.5882 4.66375 38.6582L4.61373 38.5182C4.50373 38.2182 4.39375 37.9282 4.41375 37.6282C4.42375 37.4782 4.44374 37.1682 4.09374 37.1182C3.82374 37.0782 3.65373 37.2382 3.58373 37.5782C3.56373 37.6982 3.57373 37.8482 3.61373 38.0182C3.90373 39.1282 4.37372 40.1982 4.98372 41.1782C6.40372 43.4382 8.43372 45.0682 10.2337 46.3482C10.8137 46.7582 11.2137 47.1782 11.5237 47.6982C12.6037 49.4982 14.2037 50.9282 16.5537 52.2082C17.8837 52.9382 19.3837 53.5582 21.2737 54.1482C21.3237 54.1682 21.3737 54.1682 21.4237 54.1782C21.5637 54.1982 21.5838 54.2082 21.6038 54.2682C21.6338 54.3882 21.5837 54.5682 21.4537 54.7282C21.3137 54.9082 21.1137 55.0182 20.9637 55.0182C20.0137 54.9682 19.3237 54.4782 18.5837 53.7482C17.8237 53.0082 16.9637 53.0282 16.1737 53.7882C15.4237 54.5182 14.9937 55.6782 15.0437 56.8982C15.0937 58.0382 15.5337 59.0382 16.2537 59.6382C16.4437 59.7982 16.6337 59.9882 16.6737 60.2782C16.7737 60.9882 17.2538 61.4582 17.6038 61.7582C18.5438 62.5482 19.5437 63.0182 20.6637 63.1882C20.9337 63.2282 21.1937 63.1982 21.4437 63.1782C21.7137 63.1482 21.9737 63.1182 22.2237 63.1782C23.0837 63.3882 23.9137 63.3482 24.7737 63.0382C24.9437 62.9782 24.9937 62.9982 25.0037 63.0082C25.0237 63.0182 25.0537 63.0782 25.0637 63.2082C25.1037 63.7682 25.4237 64.2382 26.0137 64.5882C26.5837 64.9382 27.1537 65.1082 27.7337 65.1082C28.0237 65.1082 28.3038 65.0682 28.6038 64.9882C29.3238 64.7882 29.8937 64.4082 30.3637 63.8382C30.3937 63.7982 30.4237 63.7582 30.4537 63.7182C30.5537 63.5782 30.6137 63.4982 30.7437 63.5082C32.4237 63.6082 34.0137 63.2082 35.5637 62.8082C35.8237 62.7382 35.9338 62.7782 36.1038 62.9782C36.7638 63.7182 37.6437 64.1582 38.7337 64.2782C39.5637 64.3682 40.2937 64.1082 40.7537 63.5682C41.2137 63.0282 41.3437 62.2682 41.1237 61.4882C41.1037 61.4182 41.0737 61.3482 41.0437 61.2682C41.0137 61.1982 40.9937 61.1282 40.9737 61.0582L40.8937 60.7582C40.8037 60.4282 40.7237 60.0782 40.6637 59.7482C40.5837 59.2282 40.6837 59.0582 41.2037 58.9182C41.4237 58.8582 41.6737 58.7982 42.0037 58.7482C44.9737 58.2582 47.9537 58.0482 50.8737 58.1082C51.0737 58.1082 51.2837 58.1182 51.4937 58.1382C51.9137 58.1582 52.3537 58.1782 52.7937 58.1482H52.9537C53.3937 58.0982 53.7737 58.0682 54.1437 58.2982C54.3437 58.4282 54.6037 58.4382 54.8737 58.3482C55.0137 58.2982 55.1537 58.2482 55.2937 58.2082C55.5637 58.1182 55.8337 58.0282 56.0937 57.9082C57.1437 57.4082 58.2437 56.9882 59.3137 56.5882C59.8337 56.3882 60.3438 56.1982 60.8538 55.9882C61.0938 55.8882 61.1737 55.9082 61.3137 56.0882C61.6337 56.5082 62.1037 56.7182 62.5137 56.8682C63.1737 57.1082 63.8938 57.2282 64.7938 57.2582L65.5937 57.2882C65.8837 57.2982 66.1737 57.3082 66.4637 57.3182C67.2737 57.3482 68.0837 57.4682 68.8737 57.5882C69.7537 57.7182 70.6737 57.8582 71.5837 57.8682C71.7037 57.8682 71.7137 57.8882 71.7137 57.8882C71.7137 57.8882 71.7237 57.9482 71.6437 58.0982L71.3937 58.5582C71.1237 59.0482 70.8638 59.5382 70.6038 60.0282C70.1238 60.9482 70.1838 61.4282 70.8638 62.1682C70.9638 62.2882 70.9937 62.3782 71.0037 62.5382C71.0737 63.3382 71.5137 63.9182 72.2837 64.1982C72.6737 64.3482 73.1437 64.4982 73.6537 64.5182C74.8137 64.5582 75.7537 64.1982 76.5137 63.4182C76.7437 63.1782 76.9638 63.0482 77.3638 63.1082C78.2838 63.2582 79.2238 63.2882 80.1038 63.3082C80.4838 63.3082 80.6737 63.4182 80.8237 63.6982C81.1537 64.3082 81.6737 64.7182 82.3737 64.9182C83.3037 65.1882 84.2137 65.1582 85.0737 64.8182C86.0137 64.4582 86.5337 63.8182 86.6337 62.9182C86.6637 62.6282 86.7537 62.5682 87.0637 62.5182C88.7537 62.2382 90.1538 61.7182 91.3638 60.9482C93.7338 59.4282 95.5137 57.4682 96.6537 55.1182C97.3537 53.6782 97.5937 52.3482 97.3837 51.0582C97.3437 50.7982 97.3838 50.6682 97.5538 50.5482C97.6438 50.4782 97.7238 50.4082 97.8038 50.3282C97.8538 50.2782 97.9037 50.2282 97.9637 50.1882C99.8837 48.5982 101.454 46.5682 102.744 43.9982C103.764 41.9682 104.364 39.9082 104.534 37.8682C104.824 34.4782 104.234 31.5282 102.734 28.8382V28.8782ZM37.5237 50.9182C37.7337 50.8682 37.9438 50.9282 38.1038 51.0682C38.1438 51.0982 38.1937 51.1182 38.2437 51.1082C38.2937 51.0982 38.3338 51.0682 38.3538 51.0182C38.4338 50.8282 38.6137 50.6782 38.8137 50.6382C39.1737 50.5582 39.5238 50.7882 39.6038 51.1382C39.7138 51.6182 39.4737 52.0582 39.3237 52.2682C39.0937 52.5982 38.7937 52.8082 38.6237 52.8482C38.2437 52.9282 37.1937 52.5082 37.0137 51.6982C36.9337 51.3382 37.1637 50.9882 37.5137 50.9082L37.5237 50.9182ZM51.9937 56.2482C52.1137 56.5482 52.3137 56.8082 52.5137 57.0882C52.5537 57.1382 52.5837 57.1882 52.6237 57.2382C52.4637 57.2382 52.3137 57.2382 52.1637 57.2382C51.6637 57.2382 51.2137 57.2382 50.7537 57.2382C48.3337 57.1882 45.7337 57.3682 42.5737 57.7982C42.3837 57.8282 42.1937 57.8382 41.9937 57.8482C41.6337 57.8782 41.2637 57.9082 40.9037 58.0082C39.8437 58.2982 39.7037 58.9482 39.7637 59.4382C39.7837 59.5782 39.7937 59.7282 39.8037 59.8682C39.8237 60.1482 39.8437 60.4382 39.9337 60.7282C40.0437 61.0882 40.1337 61.4582 40.2237 61.8182C40.3537 62.3182 40.2837 62.7482 40.0237 63.0382C39.7737 63.3282 39.3637 63.4482 38.8637 63.3982C37.7437 63.2782 37.0137 62.8782 36.5737 62.1282C36.3437 61.7382 36.1237 61.6882 35.6737 61.8982C34.7937 62.3082 33.8038 62.4382 32.8538 62.5782L32.4837 62.6282C32.0837 62.6882 31.6937 62.7382 31.3137 62.7082C30.5737 62.6482 30.0037 62.8882 29.5237 63.4582C29.0437 64.0382 28.3637 64.2882 27.4737 64.2282C27.1237 64.2082 26.7937 64.0882 26.4937 63.8882C26.1537 63.6582 25.9237 63.3382 25.8637 62.9782C25.8037 62.6282 25.9037 62.2682 26.1437 61.9482C26.1537 61.9382 26.1637 61.9182 26.1737 61.8982C26.3337 61.8882 26.4837 61.8782 26.6437 61.8682C26.8237 61.8682 26.9937 61.8482 27.1737 61.8382C27.2437 61.8382 27.3137 61.8182 27.3837 61.8082C27.6637 61.7682 27.8237 61.7482 27.9837 61.9682C28.2137 62.2682 28.5837 62.3982 29.0837 62.3482C29.6937 62.2982 30.3037 62.1582 30.8937 61.9282H30.9337C31.2537 61.7982 31.5637 61.6782 31.8937 61.5982C32.1037 61.5482 32.3637 61.4882 32.5037 61.2482C32.6937 60.9282 32.9537 60.9182 33.4237 60.9082C34.1337 60.9082 34.6737 60.6782 34.9937 60.2582C35.3137 59.8382 35.3937 59.2482 35.2137 58.5482C35.1737 58.3782 35.1237 58.2182 35.0737 58.0482C34.9637 57.6682 34.8537 57.2682 34.8037 56.8782C34.7437 56.4782 34.6637 56.0882 34.5737 55.6782C34.5437 55.5482 34.5137 55.4182 34.4937 55.2882C34.8937 55.2182 35.3037 55.1682 35.7137 55.1282C36.0437 55.0882 36.3837 55.0582 36.7237 54.9982C38.6937 54.6882 40.7837 54.2982 42.7937 53.5982C43.6737 53.2882 44.4537 53.1382 45.2537 53.1282C46.9937 53.0882 48.7637 53.0182 50.4637 52.9382C51.0737 52.9082 51.6837 52.8882 52.2937 52.8582C52.7937 52.8382 53.2138 52.9482 53.6038 53.1982C53.4738 53.2782 53.3337 53.3282 53.1837 53.3882C53.0037 53.4582 52.8237 53.5282 52.6537 53.6382C51.7437 54.2582 51.5337 55.0982 51.9937 56.2182V56.2482ZM32.2137 59.0082C32.4237 58.9582 32.5437 58.7682 32.5137 58.5382C32.4937 58.3882 32.4537 58.2282 32.4137 58.0782C32.3237 57.7282 32.2437 57.3782 32.1637 57.0182C31.9337 56.0582 31.7037 55.0682 31.3737 54.1082C31.2737 53.8082 31.2437 53.6282 31.3037 53.5182C31.3637 53.4082 31.5237 53.3282 31.8637 53.2282C32.5937 53.0182 32.8537 53.1582 33.0837 53.8782C33.4137 54.8882 33.7437 55.9682 33.9437 57.0682C34.0137 57.4582 34.1237 57.8482 34.2337 58.2282C34.3037 58.4782 34.3737 58.7282 34.4437 58.9782C34.5037 59.2182 34.5338 59.5482 34.3538 59.7682C34.2138 59.9482 33.9537 60.0382 33.5837 60.0382H33.5237C33.3237 60.0382 33.1237 60.0382 32.9337 59.9982C32.6137 59.9382 32.2237 59.9382 32.0137 60.4182C31.9437 60.5782 31.8138 60.6882 31.6038 60.7682C30.7938 61.0782 30.0037 61.3582 29.1637 61.4582C28.9437 61.4882 28.7737 61.5082 28.6137 61.3482C29.2337 60.8682 29.6837 60.3082 30.0437 59.6182C30.4037 58.9282 30.4537 58.0982 30.1937 57.2782C29.9037 56.3782 29.2637 55.5982 28.4837 55.1982C28.1337 55.0182 27.7337 54.8282 27.2837 54.7882C27.0637 54.7682 26.9837 54.6782 26.9537 54.3582C26.9237 54.1082 27.0237 53.9682 27.2537 53.9082L27.5537 53.8282C28.1037 53.6882 28.6637 53.5482 29.2337 53.4582C30.0037 53.3382 30.3638 53.5682 30.6038 54.3582C30.7738 54.9182 30.9237 55.5082 31.0637 56.0682L31.1837 56.5382C31.2737 56.8782 31.3537 57.2182 31.4337 57.5582C31.4937 57.8082 31.5537 58.0482 31.6137 58.2982C31.6437 58.4282 31.6837 58.5582 31.7437 58.6782C31.8737 58.9982 32.0937 58.9882 32.2037 58.9682L32.2137 59.0082ZM26.8837 55.5582C27.4637 55.5582 28.0938 55.8482 28.6038 56.3682C29.1638 56.9382 29.5037 57.6882 29.5037 58.3782C29.5037 59.8182 28.3337 60.9082 26.6637 61.0282C25.8437 61.0882 25.2337 60.6982 24.8637 60.3482C24.2737 59.7982 23.8737 58.9682 23.8737 58.2782C23.8737 56.7582 25.2037 55.5582 26.8837 55.5582ZM16.9737 59.1882L16.9437 59.1582C15.5137 57.9882 15.7537 55.9482 16.3837 54.8582C16.4937 54.6582 16.6837 54.4882 16.8637 54.3482C17.1037 54.1482 17.2737 54.0482 17.4337 54.0482C17.6037 54.0482 17.7737 54.1682 18.0237 54.4082C19.0637 55.4282 19.2437 55.5382 20.4937 55.8882C20.2837 56.2382 20.2337 56.4882 20.3237 56.7082C20.4137 56.9282 20.6337 57.0882 21.0337 57.1982C21.5237 57.3382 21.9237 57.3782 22.3037 57.3182C22.5637 57.2782 22.8338 57.2482 23.1038 57.2782C23.1338 57.3182 23.1238 57.3582 23.1038 57.4682V57.5182C22.6838 59.1882 23.6937 60.8082 24.8937 61.4082C25.1337 61.5282 25.2237 61.6282 25.2237 61.6882C25.2237 61.7482 25.1337 61.8582 24.8837 61.9982C24.4337 62.2482 24.0037 62.3782 23.6137 62.3782H23.5937C23.2937 62.3782 22.9937 62.3782 22.6937 62.3782C21.9737 62.3782 21.2437 62.3882 20.5237 62.3182C19.4937 62.2082 18.6037 61.7082 17.8037 60.7682C17.6337 60.5782 17.4737 60.3482 17.4937 60.1482C17.5637 59.6382 17.2537 59.3882 16.9937 59.1682L16.9737 59.1882ZM21.5937 55.9782C21.8637 55.7582 22.0737 55.4782 22.2537 55.0782C22.4271 54.7049 22.7204 54.5615 23.1337 54.6482H23.1737C23.6537 54.7582 24.1537 54.8482 24.6337 54.9282L25.0837 55.0082C25.0837 55.0082 25.1137 55.0082 25.1337 55.0082C24.8237 55.1882 24.5537 55.4082 24.2737 55.6282C24.0437 55.8082 23.8237 55.9882 23.5937 56.1382C22.9737 56.5382 22.1837 56.6082 21.2437 56.3582C21.3637 56.1782 21.4738 56.0682 21.6038 55.9682L21.5937 55.9782ZM84.8337 55.1582C85.5137 55.0482 86.1837 54.9682 86.8437 54.8882C87.6037 54.7982 88.3937 54.7082 89.1837 54.5582C88.9237 55.0682 88.5737 55.4982 88.0737 55.9382C87.4937 56.4382 86.7738 56.8082 85.7938 57.0982C85.6638 57.1382 85.5837 57.1382 85.5337 57.1182C85.5037 57.0982 85.4737 57.0582 85.4637 56.9882C85.3637 56.5682 85.2237 56.1882 85.0637 55.7782C84.9837 55.5782 84.9137 55.3782 84.8337 55.1682V55.1582ZM85.8638 58.3282C85.8838 58.2782 86.0138 58.2282 86.1138 58.1882C86.9938 57.8582 87.7538 57.4682 88.4238 56.9782C89.1938 56.4182 89.7737 55.6582 90.2037 54.6482C90.3137 54.3882 90.4037 54.2582 90.6437 54.1882C92.7537 53.5982 94.6738 52.6882 96.3538 51.4982C96.4138 51.4582 96.4637 51.4182 96.5337 51.4082C96.6437 51.7782 96.5937 52.1782 96.5337 52.5282C96.2437 54.0582 95.6237 55.4382 94.6937 56.6382C93.3637 58.3382 91.9938 59.5682 90.4838 60.3982C89.2038 61.0982 87.9537 61.4882 86.6437 61.5782C86.4737 60.5482 86.2737 59.4582 85.8837 58.4382C85.8637 58.3782 85.8538 58.3282 85.8638 58.3082V58.3282ZM75.8837 62.7582C75.1137 63.7682 73.3737 64.0282 72.3137 63.2882C72.1537 63.1782 72.0638 63.0382 72.0438 62.8282L72.1537 62.8482C72.3837 62.8982 72.6137 62.9482 72.8437 62.9882C74.0837 63.1982 74.8137 62.8482 75.4337 61.7182C75.6437 61.3382 75.8637 60.9582 76.1237 60.5482C76.2137 60.4082 76.2738 60.3282 76.2938 60.3182C76.3138 60.3182 76.3838 60.3582 76.5538 60.5282C77.1638 61.1482 77.9238 61.4982 78.8038 61.5682C79.1238 61.5882 79.4437 61.5682 79.7637 61.4782C80.0437 61.4082 80.2037 61.1682 80.1537 60.8982C80.1237 60.7482 80.0137 60.5682 79.6337 60.5682C79.5337 60.5682 79.4337 60.5682 79.3337 60.5682C79.1837 60.5682 79.0337 60.5682 78.8837 60.5682C77.8837 60.5482 77.0337 59.9282 76.7237 59.0082C76.4637 58.2282 76.7637 57.2582 77.4637 56.6482C78.2037 56.0082 79.7637 56.0282 80.5037 56.6882C80.5437 56.7282 80.5837 56.7682 80.6237 56.8182C80.6637 56.8682 80.7137 56.9182 80.7637 56.9682L80.8038 57.0082C80.8938 57.0982 81.0037 57.1882 81.1537 57.1982C81.2537 57.1982 81.3438 57.1482 81.4238 57.0582C81.5138 56.9682 81.6737 56.7082 81.3737 56.3682C80.9837 55.9182 80.5137 55.6182 79.9637 55.4882C79.7137 55.4282 79.4637 55.3782 79.1937 55.3182L79.1138 55.2982C79.3338 55.1282 79.5537 55.0682 79.8237 55.0882C80.7437 55.1582 81.6837 55.1482 82.5837 55.1382C82.8837 55.1382 83.1737 55.1382 83.4737 55.1382C83.7837 55.1382 83.9037 55.2082 84.0237 55.4682C84.5437 56.5982 84.9538 57.8482 85.3038 59.3982C85.5338 60.4082 85.7937 61.5582 85.7137 62.7282C85.6637 63.3782 85.4037 63.7482 84.8437 63.9882C84.0537 64.3182 83.2237 64.3082 82.3837 63.9682C81.9337 63.7882 81.6837 63.5182 81.5937 63.1182C81.4837 62.6582 81.1737 62.3982 80.7537 62.3982C80.7237 62.3982 80.6937 62.3982 80.6637 62.3982C79.4137 62.5082 78.1537 62.3782 77.0737 62.2482C76.5637 62.1882 76.2237 62.3382 75.9137 62.7582H75.8837ZM51.7937 51.9682C50.9337 52.0382 50.0537 52.0582 49.2037 52.0882C48.3237 52.1182 47.4237 52.1482 46.5137 52.2182C46.5137 52.2182 46.5237 52.2182 46.5337 52.2182C48.2037 51.3782 50.1537 50.3282 51.9137 48.9182C53.6237 47.5482 54.7837 45.7282 55.3437 43.5082L55.3637 43.4382C55.3737 43.3782 55.3937 43.3182 55.4137 43.2582C57.1137 46.8782 59.8537 49.6282 63.7737 51.6682H63.6637C63.3637 51.7182 63.0537 51.7482 62.7537 51.7882C62.6237 51.7982 62.5337 51.7482 62.3937 51.6382C61.7337 51.1182 60.9337 50.9682 59.8837 51.1782C58.4637 51.4682 56.9837 51.9282 55.2337 52.6182C54.8537 52.7682 54.5937 52.7982 54.2137 52.5382C53.6737 52.1582 53.0137 51.9682 52.2237 51.9682C52.0837 51.9682 51.9437 51.9682 51.7937 51.9882V51.9682ZM63.2737 53.0182C63.2537 52.9582 63.2337 52.9082 63.2137 52.8582C63.1737 52.7682 63.1437 52.6882 63.1437 52.5982C64.5837 52.4782 65.8538 52.6082 67.0438 52.9882C68.8038 53.5482 70.8637 54.1682 72.9537 54.3982H73.0438C73.1638 54.4182 73.2738 54.4282 73.3638 54.4582C73.5238 54.5182 73.6137 54.5782 73.6337 54.6482C73.6637 54.7182 73.6338 54.8282 73.5438 54.9682C73.4138 55.1982 73.2737 55.4182 73.1237 55.6382C72.9137 55.9682 72.7037 56.3082 72.5137 56.6582C72.3737 56.9282 72.2038 57.0082 71.8638 57.0082C71.0038 56.9982 70.1438 56.8782 69.3038 56.7582H69.2438C67.7438 56.5382 66.1337 56.4082 64.3237 56.3382C63.7137 56.3182 63.1437 56.1682 62.5737 55.8882C62.4137 55.8082 62.2837 55.7082 62.1937 55.5882C63.3237 55.0382 63.6337 54.2782 63.2637 53.0182H63.2737ZM71.3137 60.6582C71.4937 60.3382 71.6537 60.0082 71.8237 59.6782C72.1337 59.0782 72.4437 58.4582 72.8237 57.8882C73.3137 57.1282 73.7837 56.3482 74.2237 55.5482C74.4237 55.1782 74.6137 55.0882 74.9437 55.1882C75.2137 55.2682 75.5037 55.2582 75.7237 55.1582C76.1937 54.9382 76.6237 55.0982 77.0737 55.2682C77.2637 55.3382 77.4537 55.4082 77.6537 55.4582C77.6837 55.4582 77.7637 55.4882 77.7637 55.5682C77.7637 55.5682 77.7137 55.5882 77.6937 55.5982C77.6537 55.6082 77.6137 55.6282 77.5737 55.6382C77.1137 55.8682 76.5937 56.1782 76.2237 56.7182C75.7837 57.3482 75.6038 58.0082 75.6738 58.6782C75.7138 58.9982 75.6538 59.2482 75.4938 59.5082C75.0238 60.2582 74.6537 60.8882 74.3137 61.5482C74.0737 62.0282 73.7137 62.2082 73.1437 62.1382C73.1437 62.1382 73.1337 62.1382 73.1237 62.1382C73.1237 62.1382 73.1238 62.1382 73.1138 62.1382C72.5438 62.1882 72.0637 61.8882 71.5337 61.5182C71.3037 61.3582 71.0837 61.0882 71.3137 60.6682V60.6582ZM88.1837 53.7682C85.5937 54.1982 83.0037 54.2782 81.0337 54.3082C80.8937 54.3082 80.7538 54.2982 80.6038 54.2782C80.4738 54.2682 80.3337 54.2482 80.2037 54.2482H80.0438C79.6538 54.2282 79.2437 54.2182 78.8137 54.4582C78.3737 54.6982 77.8338 54.6682 77.1138 54.3582C76.8538 54.2482 76.6037 54.1882 76.3437 54.1882C76.1237 54.1882 75.9037 54.2282 75.6837 54.3082C75.3637 54.4282 74.7637 54.5482 74.2637 54.0982C73.7937 53.6782 73.2538 53.5682 72.7338 53.4982C69.9938 53.1382 67.2737 52.2782 64.4337 50.8882C61.4537 49.4182 59.0937 47.4082 57.4337 44.8982C55.5037 41.9882 54.6538 38.7882 54.8838 35.3682C55.1238 31.9382 56.2237 28.7182 58.1837 25.8182C58.8237 24.8682 58.9837 23.9582 58.6837 22.9582C58.0737 20.9182 57.8337 18.8182 57.9737 16.7082C58.1137 14.5182 58.7737 12.8282 59.9637 11.5382C60.7137 10.7282 61.6837 10.2282 62.9137 10.0182C64.6837 9.70821 66.2738 10.2782 67.6038 10.8682C69.4338 11.6782 70.9837 12.9382 72.1237 13.9482C72.1337 13.9582 72.1538 13.9782 72.1738 14.0082C71.1838 14.4382 70.1637 14.9182 69.2537 15.5682C68.8337 15.8682 68.4237 16.1882 68.0337 16.5082L67.8737 16.6382C67.7537 16.7282 67.6637 16.8482 67.5937 16.9582C67.4637 17.1582 67.4837 17.3782 67.6637 17.5082C67.7537 17.5782 67.9137 17.6282 68.1237 17.4682L68.4238 17.2482C68.7138 17.0382 68.9937 16.8282 69.2837 16.6082C71.3737 15.0282 73.8738 14.0982 76.9238 13.7482C78.9638 13.5182 80.9138 13.6482 82.7338 14.1282C83.0038 14.1982 83.2838 14.2582 83.5438 14.3082C83.9338 14.3882 84.3337 14.4582 84.7137 14.5982C87.4937 15.5982 89.7437 16.8482 91.5737 18.3982C91.7237 18.5282 91.8838 18.6282 92.0538 18.7182L92.1038 18.7482C92.2838 18.8582 92.4837 18.8282 92.6437 18.6582C92.8137 18.4782 92.8137 18.2382 92.6437 18.0382C92.5637 17.9482 92.4837 17.8882 92.3937 17.8182C92.3537 17.7882 92.3137 17.7582 92.2737 17.7282C90.8337 16.5182 89.2237 15.6182 87.8437 14.8982L87.6337 14.7882C87.9537 14.3582 88.3737 14.0482 88.7837 13.7482L88.9337 13.6382C90.8737 12.1882 92.5337 11.4382 94.3237 11.2182C97.3137 10.8382 99.6637 11.9182 101.314 14.4182C102.524 16.2482 103.074 18.4582 103.034 21.3682C103.014 22.8282 102.764 24.2582 102.514 25.4682C102.424 25.9182 102.244 26.3582 102.064 26.7882C101.944 27.0682 101.824 27.3682 101.734 27.6682C101.604 28.0782 101.604 28.4082 101.754 28.7882C101.894 29.1582 102.064 29.5282 102.234 29.8782C102.374 30.1782 102.524 30.4882 102.654 30.7982C103.564 33.0582 103.854 35.4882 103.544 38.2382C103.324 40.1782 102.744 42.1282 101.764 44.1882C101.424 44.9082 100.924 45.5482 100.444 46.1682C100.304 46.3482 100.164 46.5282 100.024 46.7182C98.8237 48.3282 97.5537 49.5982 96.1537 50.5782C93.7937 52.2382 91.2037 53.2982 88.2237 53.7882L88.1837 53.7682Z" fill="#74625F"/>
<path d="M60.074 14.2582C60.294 13.8382 60.824 13.2382 61.264 13.4282C62.894 14.1082 66.5941 16.8482 66.2941 17.5382C66.0141 18.1982 61.454 21.1282 60.444 21.7982C60.064 22.0582 59.4641 21.8982 59.3541 21.5182C58.9741 20.1682 58.484 17.2882 60.064 14.2582H60.074Z" fill="#74625F"/>
<path d="M101.134 17.9382C101.044 17.4682 100.204 15.0082 99.2537 15.0982C97.5637 15.2682 94.7237 19.5682 94.9437 20.2882C95.1437 20.9782 98.9937 24.6082 99.9137 25.3782C100.264 25.6782 100.874 25.5882 101.024 25.2282C101.554 23.9282 101.774 21.1482 101.134 17.9382Z" fill="#74625F"/>
</g>
<defs>
<clipPath id="clip0_47_5179">
<rect width="105" height="66" fill="white"/>
</clipPath>
</defs>
</svg>
