<svg width="146" height="60" viewBox="0 0 146 60" fill="none" xmlns="http://www.w3.org/2000/svg">
<g clip-path="url(#clip0_47_5111)">
<path d="M34.6802 29.07H34.7102C34.7102 29.07 34.7802 29.03 34.8202 29.01C35.4702 28.69 36.0602 28.29 36.5702 27.82C36.8302 27.58 36.9702 27.31 37.0102 26.96C37.0402 26.7 37.0802 26.4301 37.1202 26.1701C37.1902 25.6501 37.2702 25.12 37.3102 24.59C37.4402 22.83 37.7702 21.05 38.3502 19.12C38.7102 17.91 39.0802 16.66 39.9602 15.66C40.7802 14.73 41.4202 14.34 42.6602 14.78C43.5502 15.09 44.3902 15.57 45.1602 16.03C46.5402 16.85 47.5002 17.6 48.2802 18.45L48.3702 18.55C48.5102 18.7 48.6502 18.85 48.7402 19.04C48.6102 19.11 48.4802 19.17 48.3502 19.24C47.8302 19.51 47.2902 19.78 46.8002 20.12C46.4002 20.4 45.9302 20.7501 45.5002 21.1701C45.3802 21.2901 45.3502 21.42 45.4302 21.52C45.5302 21.64 45.6902 21.66 45.8302 21.57C45.8902 21.53 45.9502 21.48 46.0002 21.44C47.2802 20.24 48.8502 19.57 50.2102 19.07C51.7902 18.5 53.4802 18.19 55.2402 18.16C57.4202 18.12 59.1802 18.47 60.7802 19.28L60.8002 19.2901C60.9002 19.3501 60.9902 19.37 61.0702 19.35C61.1202 19.34 61.1802 19.31 61.2302 19.22C61.2802 19.14 61.2902 19.06 61.2702 18.99C61.2502 18.9 61.1802 18.83 61.0602 18.77L61.0002 18.74C60.9302 18.7 60.8602 18.67 60.7902 18.63C60.0202 18.28 59.2202 18.02 58.4102 17.85C57.8102 17.73 57.1902 17.68 56.6002 17.63C56.3802 17.61 56.1502 17.59 55.9302 17.57C55.9502 17.4 56.0402 17.25 56.1402 17.07L56.2602 16.88C56.9202 15.8 57.5902 14.68 58.4002 13.67C59.0202 12.9 59.5902 12.23 60.3402 11.74C60.9702 11.33 61.6402 11.3 62.3202 11.64C62.8602 11.91 63.3502 12.25 63.7702 12.64C64.8202 13.64 65.7602 14.83 66.7302 16.4C67.4502 17.56 68.0102 18.84 68.5402 20.07C68.6402 20.3 68.7402 20.53 68.8402 20.76V20.7901C68.9002 20.9101 68.9702 21.0601 69.1802 21.0601C69.3102 21.0601 69.4302 21.0601 69.5602 21.0601C69.8502 21.0701 70.1602 21.08 70.4602 21.02C70.4802 21.02 70.5002 21.02 70.5202 21.02C70.6202 21.01 70.8302 20.98 70.8202 20.73C70.8202 20.65 70.7902 20.5801 70.7402 20.5401C70.6602 20.4701 70.5502 20.48 70.4602 20.48H70.4202C70.2702 20.48 70.1302 20.49 69.9802 20.5C69.8302 20.5 69.6902 20.5 69.5402 20.51C69.4002 20.51 69.3402 20.49 69.3102 20.38C69.2902 20.31 69.2502 20.2401 69.2202 20.1801C69.1902 20.1301 69.1602 20.08 69.1502 20.03C68.9302 19.41 68.6302 18.82 68.3402 18.25C68.1902 17.96 68.0402 17.67 67.9002 17.37C67.4002 16.3 66.7402 15.33 66.2202 14.61C65.2502 13.26 64.1702 12.2 62.9102 11.36C61.9702 10.73 60.9902 10.71 60.0002 11.3C59.6002 11.54 59.2402 11.83 58.9202 12.17C58.1002 13.03 57.4302 13.98 56.8202 14.88C56.3202 15.63 55.8002 16.45 55.4002 17.34C55.3102 17.54 55.2202 17.58 55.0202 17.59C52.8302 17.74 51.1002 18.09 49.5702 18.7C49.3902 18.77 49.3102 18.75 49.1902 18.61C48.3002 17.54 47.2302 16.62 46.0002 15.87L45.9302 15.83C44.9402 15.23 43.9102 14.6 42.7802 14.23C41.8702 13.93 41.1402 13.99 40.5002 14.43C39.7402 14.94 39.2202 15.68 38.8102 16.34C38.5902 16.7 38.4602 17.1 38.3402 17.49C38.3002 17.63 38.2502 17.77 38.2102 17.9C37.8402 18.94 37.4702 20.06 37.2102 21.22C36.9202 22.57 36.7702 23.97 36.6302 25.32C36.6002 25.58 36.5802 25.84 36.5502 26.1C36.4302 27.22 36.3502 27.36 35.4602 27.96L35.4202 27.99C35.4202 27.99 35.3602 28.0301 35.3402 28.0401C35.1202 28.2101 34.8602 28.34 34.6202 28.47C34.5602 28.5 34.4902 28.54 34.4102 28.58C34.3402 28.62 34.2402 28.67 34.2102 28.77C34.1902 28.83 34.2102 28.9 34.2402 28.96C34.2802 29.03 34.3502 29.11 34.4802 29.11C34.5302 29.11 34.5902 29.1 34.6602 29.07H34.6802Z" fill="#73615F"/>
<path d="M68.0203 33.5899C68.1003 33.6199 68.1903 33.6399 68.2803 33.5899C68.3203 33.5699 68.3703 33.5299 68.3903 33.4399C68.4403 33.2499 68.3803 33.1 68.2103 33.04C68.1703 33.02 68.1203 33.01 68.0803 33L68.0203 32.98C67.2003 32.74 66.3503 32.4199 65.2503 31.9399C65.1303 31.8899 65.0103 31.84 64.8903 31.79C64.5103 31.64 64.1503 31.49 63.8403 31.24C63.6103 31.05 63.4403 31.15 63.3603 31.22C63.2203 31.35 63.1903 31.5099 63.2703 31.6899C63.2803 31.7199 63.2903 31.75 63.3103 31.78C63.3303 31.83 63.3503 31.88 63.3703 31.92C63.6503 32.41 63.9503 32.7899 64.3103 33.0799C64.5303 33.2599 64.7703 33.41 65.0003 33.55C64.5603 33.52 64.1503 33.49 63.7403 33.35C62.9903 33.09 62.3903 32.7099 61.9103 32.1899L61.8803 32.16C61.8003 32.07 61.6603 31.91 61.4503 32.03C61.2803 32.13 61.2303 32.32 61.3203 32.5C61.4503 32.76 61.4003 33.0299 61.3503 33.3199L61.3303 33.4399C61.1503 34.5499 60.7903 35.38 60.2003 36.03C59.9503 36.3 59.6103 36.63 59.1403 36.76C58.9903 36.8 58.9503 36.8 58.9403 36.8C58.9403 36.8 58.9303 36.76 58.9403 36.61C58.9403 36.57 58.9503 36.52 58.9603 36.48C58.9603 36.44 58.9703 36.41 58.9803 36.37C59.0503 35.87 58.9803 35.35 58.7903 34.74C58.7103 34.49 58.5303 34.33 58.2903 34.3C58.0503 34.27 57.9703 34.4599 57.9103 34.5799C57.9003 34.6099 57.8803 34.64 57.8703 34.67C57.4903 35.33 56.9403 35.85 56.2503 36.23L56.2103 36.25C56.1203 36.3 56.0803 36.32 56.0403 36.3C56.0403 36.27 56.0703 36.2299 56.0903 36.1899C57.0003 34.6099 57.3103 33.04 57.0603 31.4C56.8203 29.81 56.2703 28.65 55.3603 27.74C54.6603 27.05 53.9103 26.8199 53.1403 27.0699C52.5203 27.2699 51.8603 27.37 51.0003 27.4C49.7403 27.44 48.5803 28.0299 47.4603 29.1999C46.4203 30.2799 45.6903 31.64 45.2903 33.24C44.7603 35.35 44.9003 37.2199 45.7203 38.9599C45.7303 38.9899 45.7503 39.02 45.7703 39.06C45.8403 39.19 45.8703 39.26 45.8303 39.3C45.7703 39.37 45.6603 39.34 45.4903 39.29L45.4303 39.27C45.0403 39.15 44.6903 38.92 44.3803 38.72C44.2703 38.65 44.1603 38.59 44.0503 38.62C43.9803 38.64 43.9203 38.69 43.8703 38.78C43.8203 38.89 43.8303 39.02 43.8503 39.14V39.18C43.9503 39.89 44.2103 40.5399 44.6703 41.1899C44.6903 41.2199 44.7103 41.24 44.7303 41.27C44.7803 41.33 44.8203 41.3799 44.8403 41.4499H44.7503C43.9803 41.4699 43.2603 41.49 42.6703 40.93C42.5403 40.81 42.4203 40.84 42.3403 40.88C42.2603 40.92 42.1403 41.01 42.1803 41.24C42.2003 41.36 42.2903 41.43 42.3803 41.49C42.6503 41.66 42.9203 41.83 43.2403 41.9C43.6703 42 44.0703 42.05 44.4503 42.05C44.6803 42.05 44.9003 42.03 45.1203 42C45.3303 41.97 45.4603 41.88 45.5203 41.76C45.5803 41.63 45.5503 41.47 45.4403 41.29C45.3703 41.18 45.2903 41.07 45.2203 40.97C45.1803 40.92 45.1403 40.86 45.1003 40.81C44.8103 40.4 44.6203 39.98 44.5003 39.5C44.6403 39.54 44.7603 39.6 44.8703 39.66L44.9303 39.6899C45.1603 39.8099 45.4203 39.87 45.7203 39.9C45.9803 39.92 46.1703 39.86 46.2903 39.72C46.4103 39.58 46.4403 39.38 46.3803 39.12C46.3503 38.98 46.3003 38.85 46.2403 38.73C45.6603 37.55 45.4603 36.2299 45.6203 34.7099C45.8003 33.0299 46.3003 31.65 47.1603 30.47C47.8903 29.47 48.7303 28.76 49.7303 28.3C50.4503 27.97 51.1603 27.87 51.8503 28.01C52.1303 28.07 52.3503 28.02 52.6003 27.86C53.3403 27.39 54.1503 27.45 54.8303 28.03C55.1203 28.28 55.3803 28.59 55.6103 28.98C56.0303 29.69 56.3103 30.49 56.4703 31.4C56.7303 32.91 56.4903 34.34 55.7303 35.65L55.6803 35.74C55.5903 35.89 55.4903 36.05 55.4503 36.24C55.4003 36.43 55.4203 36.6 55.5203 36.72C55.6203 36.84 55.7703 36.91 55.9703 36.91C56.2003 36.91 56.4003 36.81 56.5703 36.72C57.2003 36.38 57.7203 35.89 58.1503 35.23C58.1703 35.2 58.1903 35.16 58.2003 35.13C58.2303 35.07 58.2503 35.03 58.2803 35.01C58.3503 35.1 58.3703 35.22 58.3903 35.35V35.4C58.4703 35.8 58.4403 36.19 58.3903 36.63C58.3603 36.9 58.4103 37.1 58.5503 37.22C58.6903 37.34 58.8903 37.37 59.1503 37.31C59.6303 37.2 60.0403 36.98 60.3803 36.64C61.1303 35.89 61.6103 34.95 61.8403 33.76C61.8803 33.57 61.9103 33.38 61.9303 33.18C61.9303 33.13 61.9403 33.09 61.9503 33.04C61.9903 33.07 62.0303 33.09 62.0603 33.11C63.0803 33.97 64.3003 34.11 65.2603 34.13C65.4503 34.13 65.6503 34.13 65.8303 34C65.9503 33.91 66.0803 33.8 66.0903 33.62C66.1003 33.39 65.9003 33.31 65.7803 33.26C65.7303 33.24 65.6903 33.2299 65.6403 33.2099C65.5703 33.1799 65.4903 33.16 65.4203 33.12C64.8803 32.87 64.4403 32.51 64.0703 32.01C64.0903 32.02 64.1203 32.04 64.1403 32.05C64.4603 32.18 64.7703 32.3199 65.0803 32.4599C65.5803 32.6799 66.0903 32.9 66.6003 33.11C66.9503 33.25 67.3203 33.37 67.6703 33.49C67.7703 33.52 67.8803 33.5599 67.9803 33.5899H68.0203Z" fill="#73615F"/>
<path d="M48.4402 41.5601C48.4402 41.6601 48.4602 41.81 48.4902 41.96C48.5402 42.21 48.7802 42.4001 49.0502 42.4001C49.2802 42.4001 49.4402 42.2701 49.5202 42.0101C49.5702 41.8601 49.5702 41.7101 49.5702 41.5501C49.5902 40.6001 50.0502 40.0001 51.0002 39.6701C51.5702 39.4701 52.4002 39.5801 52.8002 40.1701C52.8602 40.2601 52.9502 40.3401 53.0702 40.4201C53.2702 40.5601 53.5002 40.5601 53.7302 40.4001C53.9202 40.2701 54.0002 40.09 53.9602 39.83C53.9102 39.53 53.7802 39.3101 53.5602 39.1501L53.4402 39.0601C53.1602 38.8501 52.8802 38.64 52.5002 38.58C52.3702 38.56 52.3102 38.51 52.2602 38.35C52.1902 38.15 52.1102 37.9701 51.9502 37.9301C51.8002 37.8901 51.6402 38.02 51.4602 38.21C51.4402 38.24 51.4102 38.2601 51.3902 38.2901C51.3002 38.3901 51.2302 38.48 51.1102 38.49C50.3402 38.6 49.6902 39 49.0702 39.74C48.6402 40.25 48.4402 40.78 48.4302 41.46C48.4302 41.46 48.4302 41.46 48.4302 41.47C48.4302 41.49 48.4302 41.5201 48.4302 41.5501L48.4402 41.5601Z" fill="#73615F"/>
<path d="M65.9301 37.29C66.0501 37.48 66.1701 37.58 66.3001 37.61C66.4101 37.63 66.5401 37.61 66.6701 37.51C67.0101 37.28 66.9801 37.0599 66.7801 36.7099C66.4501 36.1199 65.9501 35.74 65.3001 35.56C65.1101 35.51 65.0201 35.46 64.9701 35.28C64.9201 35.11 64.8401 35.01 64.7301 34.99C64.6301 34.97 64.5201 35.02 64.4101 35.15C64.1401 35.48 63.7701 35.6499 63.3901 35.8299C63.3101 35.8699 63.2301 35.8999 63.1501 35.9399C62.4701 36.2699 62.0601 36.83 61.9401 37.6C61.8901 37.9 61.9401 38.1299 62.0901 38.3199C62.2101 38.4699 62.3301 38.52 62.4501 38.52C62.5001 38.52 62.5401 38.52 62.5801 38.5C62.6601 38.48 62.9101 38.4 62.9301 38.11C62.9301 38.08 62.9301 38.05 62.9301 38.02C62.9301 37.99 62.9301 37.95 62.9301 37.91C62.9501 37.45 63.1701 37.13 63.5901 36.93C63.9401 36.76 64.3201 36.6899 64.7401 36.6999C64.7401 36.6999 64.7401 36.6999 64.7501 36.6999C65.2801 36.6599 65.6501 36.84 65.9201 37.27L65.9301 37.29Z" fill="#73615F"/>
<path d="M52.9499 34.8001C53.0299 34.8301 53.1299 34.87 53.2299 34.86C53.3799 34.84 53.51 34.75 53.58 34.61C53.68 34.4 53.5299 34.27 53.4499 34.19L53.42 34.1601C52.69 33.4901 51.78 33.17 50.72 33.19H50.68C50.68 33.19 50.61 33.19 50.58 33.19C49.2 33.22 48.09 33.8401 47.28 35.0301C47.2 35.1501 47.14 35.2901 47.11 35.4201C47.06 35.6501 47.13 35.8301 47.31 35.9101C47.37 35.9401 47.44 35.96 47.5 35.96C47.62 35.96 47.7199 35.9001 47.8199 35.7901C48.6699 34.8001 49.8499 34.57 50.7899 34.48C51.5799 34.41 52.32 34.5101 52.99 34.7801L52.9499 34.8001Z" fill="#73615F"/>
<path d="M60.8202 24.38L60.8002 24.34C60.5702 23.79 60.1602 23.3699 59.8402 23.0699C58.9602 22.2599 57.8202 21.82 56.4602 21.78C55.1402 21.78 54.0702 22.08 53.1002 22.72C52.0602 23.4 51.4402 24.3099 51.2402 25.4399C51.2202 25.5699 51.2202 25.6901 51.2302 25.8101V25.84C51.2302 25.96 51.3302 26.0501 51.4502 26.0601C51.4502 26.0601 51.4702 26.0601 51.4802 26.0601C51.5902 26.0601 51.6802 25.99 51.7102 25.88C51.7202 25.83 51.7302 25.78 51.7302 25.74C51.7302 25.71 51.7302 25.67 51.7402 25.64C51.8702 24.96 52.1502 24.37 52.6002 23.88C53.5002 22.88 54.6602 22.37 56.0202 22.36C58.1702 22.35 59.5402 23.05 60.3102 24.6C60.3602 24.7 60.4202 24.8 60.5302 24.84C60.6002 24.86 60.6702 24.8501 60.7402 24.8101C60.9602 24.6901 60.8602 24.48 60.8202 24.39V24.38Z" fill="#73615F"/>
<path d="M60.1303 25.5601L60.0503 25.48C59.6003 25.03 59.0103 24.75 58.2903 24.67C58.2503 24.67 58.2204 24.67 58.1904 24.67C58.1304 24.67 58.0804 24.67 58.0304 24.67C57.9404 24.69 57.7404 24.7199 57.7504 24.9399C57.7504 25.0099 57.7904 25.1499 57.9904 25.1899C58.0404 25.1999 58.0903 25.2 58.1403 25.21H58.1904C58.8504 25.27 59.4203 25.5601 59.8603 26.0601C59.9403 26.1501 60.0104 26.24 60.0904 26.34C60.1604 26.42 60.2203 26.51 60.2903 26.59C60.3403 26.65 60.4303 26.75 60.5503 26.75C60.6003 26.75 60.6504 26.7299 60.7104 26.6899C60.9304 26.5299 60.7904 26.33 60.7404 26.25C60.5604 25.99 60.3403 25.7701 60.1303 25.5601Z" fill="#73615F"/>
<path d="M35.0704 32.9001C35.8704 32.8401 36.5304 32.77 37.1504 32.49C37.2704 32.43 37.3804 32.3801 37.4604 32.3101C37.5404 32.2501 37.5904 32.12 37.5204 32C37.4504 31.89 37.3604 31.84 37.2604 31.86C37.1904 31.87 37.1304 31.9001 37.0704 31.9301L37.0204 31.95C36.3904 32.2 35.7004 32.33 34.9704 32.33C34.9404 32.33 34.9204 32.33 34.8904 32.33C34.8004 32.32 34.6904 32.31 34.6104 32.37C34.5604 32.41 34.5304 32.4801 34.5204 32.5601C34.5004 32.8101 34.7104 32.85 34.8204 32.86C34.8504 32.86 34.8804 32.86 34.9104 32.88C34.9504 32.89 35.0004 32.9001 35.0504 32.9001C35.0504 32.9001 35.0704 32.9001 35.0804 32.9001H35.0704Z" fill="#73615F"/>
<path d="M38.0102 33.93C38.1002 33.87 38.1402 33.76 38.1002 33.64C38.0602 33.52 37.9602 33.4499 37.8402 33.4699C37.7302 33.4899 37.6202 33.52 37.5002 33.56C37.0002 33.73 36.4502 33.8 35.8202 33.79H35.6702C35.5402 33.79 35.4102 33.79 35.2802 33.79C35.1602 33.79 35.0702 33.87 35.0502 33.99C35.0302 34.11 35.0802 34.22 35.1902 34.26C35.2502 34.29 35.3202 34.3 35.3702 34.31H35.4002C35.6002 34.35 35.8002 34.36 36.0002 34.36C36.6002 34.36 37.1802 34.2299 37.6902 34.0899C37.8102 34.0599 37.9102 33.99 38.0202 33.93H38.0102Z" fill="#73615F"/>
<path d="M34.7 30.49C34.7 30.49 34.75 30.49 34.78 30.49C34.8 30.49 34.82 30.49 34.84 30.49H34.9C34.9 30.49 34.9 30.49 34.91 30.49C35.58 30.42 36.19 30.1501 36.78 29.8901L36.95 29.8101C37.07 29.7601 37.13 29.6501 37.09 29.5301C37.05 29.3901 36.92 29.32 36.78 29.36C36.7 29.38 36.63 29.4101 36.55 29.4301C36.52 29.4401 36.48 29.45 36.45 29.46L36.07 29.58C35.72 29.7 35.37 29.8101 35.02 29.9201C34.96 29.9401 34.9 29.95 34.83 29.96C34.77 29.96 34.71 29.98 34.65 29.99C34.55 30.02 34.48 30.11 34.48 30.24C34.48 30.36 34.57 30.45 34.7 30.46V30.49Z" fill="#73615F"/>
<path d="M67.2 39.3101C67.16 39.1801 67.0501 39.15 66.9701 39.14L66.9401 39.24L66.96 39.14C66.96 39.14 66.9301 39.14 66.9101 39.14H66.86C66.86 39.14 66.7701 39.1799 66.7201 39.1899C66.3201 39.3399 65.93 39.49 65.51 39.6C65.43 39.62 65.32 39.65 65.27 39.74C65.24 39.8 65.24 39.8599 65.26 39.9399C65.29 40.0299 65.3401 40.09 65.4101 40.12C65.4501 40.14 65.5 40.15 65.55 40.15C65.6 40.15 65.6601 40.14 65.7201 40.12L65.8 40.09C66.11 39.98 66.42 39.88 66.73 39.77C66.85 39.73 66.97 39.67 67.09 39.6C67.18 39.55 67.2201 39.4301 67.1901 39.3101H67.2Z" fill="#73615F"/>
<path d="M66.8303 40.34C66.8303 40.34 66.7903 40.34 66.7703 40.34C66.7603 40.34 66.7403 40.34 66.7303 40.34C66.4603 40.4 66.2003 40.51 65.9603 40.62C65.8403 40.67 65.7203 40.72 65.6003 40.77C65.4303 40.84 65.3704 40.9399 65.4104 41.0699C65.4504 41.1999 65.5604 41.27 65.6904 41.27C65.7104 41.27 65.7403 41.27 65.7703 41.27C66.0703 41.2 66.3403 41.08 66.6103 40.97C66.7103 40.93 66.8103 40.88 66.9203 40.84C67.0503 40.79 67.1203 40.65 67.0803 40.52C67.0403 40.37 66.9104 40.37 66.8404 40.36L66.8303 40.34Z" fill="#73615F"/>
<path d="M58.9804 41.1899C58.8304 41.1899 58.7004 41.27 58.6104 41.38C58.5504 41.46 58.5203 41.56 58.5403 41.65C58.5803 41.84 58.7104 41.9399 58.9104 41.9399C58.9104 41.9399 58.9204 41.9399 58.9304 41.9399C59.0504 41.9399 59.1704 41.88 59.2604 41.78C59.3404 41.69 59.3804 41.5899 59.3704 41.4899C59.3704 41.4899 59.3704 41.4899 59.3704 41.4799C59.3304 41.2799 59.1904 41.1799 58.9804 41.1899Z" fill="#73615F"/>
<path d="M87.6404 32.0601C87.6404 31.9701 87.6204 31.88 87.6104 31.78C87.6104 31.69 87.5704 31.6101 87.5104 31.5601C87.4704 31.5301 87.4105 31.5 87.3105 31.51C87.1705 31.53 87.0905 31.64 87.0905 31.79C87.0905 31.86 87.0904 31.93 87.1004 32.01C87.1004 32.08 87.1004 32.16 87.1104 32.23C87.1704 34.87 86.2204 36.8 84.2004 38.13C84.1204 38.18 84.0404 38.2401 83.9504 38.3101C83.8204 38.4201 83.7904 38.53 83.8504 38.64C83.9004 38.73 83.9604 38.76 84.0104 38.77C84.0304 38.77 84.0504 38.77 84.0704 38.77C84.1204 38.77 84.1805 38.75 84.2405 38.72C84.2805 38.7 84.3204 38.68 84.3504 38.66L84.4504 38.6C85.3204 38.09 86.0305 37.38 86.6205 36.41C87.2505 35.37 87.6004 34.18 87.6404 32.89C87.6804 32.61 87.6505 32.32 87.6205 32.04L87.6404 32.0601Z" fill="#73615F"/>
<path d="M75.7103 35.5899C75.6503 35.6099 75.5803 35.63 75.5203 35.66C75.4103 35.71 75.3703 35.8199 75.4003 35.9499C75.4303 36.0699 75.5103 36.14 75.6203 36.15C75.6303 36.15 75.6503 36.15 75.6603 36.15C75.8003 36.15 75.9203 36.1 76.0303 36.05L76.0803 36.03C76.8103 35.73 77.5403 35.31 78.2903 34.76C79.3203 34 80.1203 33.2099 80.7103 32.3399C80.9203 32.0399 81.0403 31.7599 81.1003 31.4899C81.1003 31.4799 81.1003 31.4699 81.1003 31.4599V31.4399C81.0903 31.3599 81.0703 31.2399 80.9503 31.1999C80.8203 31.1499 80.7002 31.2099 80.6302 31.3599C80.4502 31.7399 80.2903 32.02 80.1003 32.26C79.0803 33.58 77.7103 34.65 75.9203 35.53C75.8503 35.56 75.7803 35.5899 75.7103 35.6099V35.5899Z" fill="#73615F"/>
<path d="M93.1904 38.66C93.1204 38.63 93.0604 38.6099 92.9904 38.5899C92.8304 38.5299 92.6704 38.47 92.5204 38.4C90.7904 37.57 89.6404 36.3999 89.0104 34.8299C88.9404 34.6499 88.8704 34.46 88.8004 34.27L88.7704 34.1899C88.6804 33.9399 88.5004 33.9699 88.4304 33.9899C88.3204 34.0199 88.2104 34.1099 88.2704 34.3499C88.3604 34.6999 88.5004 35.06 88.6704 35.42C89.3904 36.9 90.5304 38.04 92.0604 38.81C92.3904 38.98 92.6904 39.1199 93.0104 39.1899C93.0104 39.1899 93.0304 39.1899 93.0404 39.1899C93.0704 39.1899 93.1004 39.1899 93.1304 39.1899C93.2504 39.1899 93.3904 39.1599 93.4204 38.9699C93.4504 38.7699 93.2504 38.69 93.1804 38.66H93.1904Z" fill="#73615F"/>
<path d="M82.4604 32.61C82.4604 32.61 82.4604 32.52 82.4604 32.47C82.4604 32.22 82.4604 31.92 82.3904 31.62C82.3904 31.59 82.3804 31.5501 82.3804 31.5101C82.3804 31.4001 82.3604 31.27 82.2604 31.2C82.2004 31.16 82.1204 31.1401 82.0304 31.1601C81.9604 31.1701 81.9004 31.2101 81.8704 31.2601C81.8004 31.3601 81.8304 31.48 81.8604 31.59C81.8604 31.62 81.8704 31.66 81.8804 31.69C82.1004 33.92 81.5204 35.73 80.1104 37.22L80.0804 37.25C80.0204 37.31 79.9604 37.37 79.9104 37.44C79.8304 37.54 79.8304 37.66 79.9004 37.75C79.9504 37.81 80.0004 37.84 80.0704 37.85C80.0704 37.85 80.0804 37.85 80.0904 37.85C80.1504 37.85 80.2104 37.8301 80.2604 37.7901C80.4204 37.6601 80.5504 37.5301 80.6504 37.4101C81.8504 36.0701 82.4404 34.5101 82.4704 32.6401L82.4604 32.61Z" fill="#73615F"/>
<path d="M94.3502 38.24C94.3502 38.24 94.2902 38.21 94.2702 38.2C93.1902 37.54 92.3602 36.74 91.7502 35.75C91.7002 35.68 91.6302 35.5799 91.4702 35.5699C91.4502 35.5699 91.4402 35.5699 91.4302 35.5699C91.2802 35.6299 91.2202 35.7701 91.2702 35.9301C91.3402 36.1501 91.4702 36.33 91.6102 36.51L91.6702 36.58C92.2802 37.4 93.0702 38.09 94.0302 38.64C94.0602 38.66 94.0802 38.68 94.1102 38.7C94.1802 38.76 94.2702 38.84 94.3802 38.84C94.3902 38.84 94.4102 38.84 94.4202 38.84C94.4902 38.83 94.5602 38.7799 94.6002 38.6899C94.6402 38.6199 94.6502 38.55 94.6302 38.48C94.5902 38.35 94.4602 38.29 94.3502 38.23V38.24Z" fill="#73615F"/>
<path d="M77.0101 32.99C77.0701 32.92 77.1701 32.81 77.1001 32.59C77.1001 32.56 77.0701 32.5401 77.0401 32.5301C77.0101 32.5201 76.9801 32.5201 76.9501 32.5301C76.5801 32.7201 76.3201 32.97 76.1201 33.19C75.6501 33.7 75.0701 34.1 74.5101 34.48L74.2401 34.6701C74.1501 34.7401 74.0501 34.8001 73.9601 34.8801C73.8601 34.9601 73.8401 35.09 73.9101 35.19C73.9601 35.27 74.0401 35.3101 74.1301 35.3101C74.1501 35.3101 74.1701 35.3101 74.1901 35.3101C74.2601 35.2901 74.3301 35.26 74.3901 35.22C75.5001 34.49 76.3301 33.7901 77.0101 33.0101V32.99Z" fill="#73615F"/>
<path d="M83.9902 35.77V35.7399C83.9902 35.7399 84.0102 35.7099 84.0002 35.6999C84.0002 35.6299 83.9801 35.47 83.8201 35.41C83.6401 35.35 83.5501 35.4999 83.5101 35.5699C83.4901 35.6099 83.4701 35.6599 83.4501 35.7099C83.4401 35.7399 83.4302 35.77 83.4102 35.8C82.9502 36.73 82.4702 37.3299 81.8302 37.7299C81.7502 37.7799 81.5702 37.8899 81.6802 38.0899C81.7102 38.1399 81.7801 38.2299 81.9201 38.2299C81.9701 38.2299 82.0402 38.22 82.1102 38.18C82.1802 38.15 82.2402 38.1 82.3002 38.06L82.3402 38.03C83.1802 37.42 83.6502 36.56 83.9602 35.88C83.9802 35.84 83.9902 35.81 84.0002 35.77H83.9902Z" fill="#73615F"/>
<path d="M87.3501 38.08C87.7601 37.93 88.1601 37.78 88.5701 37.63C88.6801 37.59 88.7201 37.53 88.7401 37.48C88.7601 37.44 88.7701 37.36 88.7401 37.27C88.6901 37.14 88.5701 37.09 88.4301 37.12C88.0501 37.2 87.6901 37.35 87.3401 37.5L87.1501 37.58C87.0201 37.63 86.9501 37.78 87.0001 37.91C87.0501 38.04 87.1501 38.11 87.2601 38.11C87.2901 38.11 87.3201 38.11 87.3601 38.09L87.3501 38.08Z" fill="#73615F"/>
<path d="M80.0402 36.38C80.1202 36.27 80.0902 36.12 79.9802 36.03C79.6702 35.77 79.3502 35.52 79.0402 35.26L78.9302 35.17C78.9302 35.17 78.8702 35.13 78.8402 35.13H78.8202C78.8202 35.13 78.7902 35.11 78.7702 35.11C78.6702 35.11 78.5802 35.17 78.5302 35.26C78.4702 35.36 78.5002 35.4901 78.5902 35.5601C79.0002 35.9101 79.3302 36.18 79.6302 36.42C79.6902 36.47 79.7602 36.49 79.8202 36.49C79.8302 36.49 79.8402 36.49 79.8602 36.49C79.9102 36.49 79.9802 36.46 80.0302 36.37L80.0402 36.38Z" fill="#73615F"/>
<path d="M82.5704 43.38C82.4004 43.38 82.2504 43.43 82.1604 43.53C82.1004 43.59 82.0604 43.67 82.0704 43.75C82.0704 43.85 82.1204 43.95 82.2004 44.02C82.3004 44.11 82.4404 44.17 82.5804 44.17C82.5804 44.17 82.5904 44.17 82.6004 44.17C82.8604 44.17 83.0704 43.98 83.0704 43.76C83.0704 43.55 82.8504 43.38 82.5804 43.38H82.5704Z" fill="#73615F"/>
<path d="M92.7503 42.2199C92.6203 42.2399 92.5303 42.3299 92.5103 42.4699C92.5103 42.5399 92.5103 42.6 92.5203 42.63C92.5403 42.71 92.5403 42.7799 92.5503 42.8499C92.5503 42.9799 92.5703 43.11 92.6503 43.23C92.7103 43.31 92.7803 43.3499 92.8503 43.3499C92.8703 43.3499 92.9003 43.3499 92.9203 43.3399C92.9903 43.3199 93.0703 43.25 93.0803 43.17C93.1303 42.89 93.0803 42.62 93.0003 42.37C92.9703 42.26 92.8503 42.1899 92.7303 42.1999L92.7503 42.2199Z" fill="#73615F"/>
<path d="M92.0904 43.23C92.0904 43.23 92.0904 43.22 92.0904 43.21L92.0704 43.0699C92.0504 42.9599 92.0404 42.85 92.0204 42.74C92.0004 42.63 91.9004 42.5601 91.7804 42.5601C91.6704 42.5601 91.5804 42.62 91.5404 42.73C91.4704 42.9 91.5004 43.07 91.5304 43.22V43.3C91.5604 43.42 91.6104 43.5101 91.6904 43.5601C91.7404 43.5901 91.7904 43.61 91.8604 43.61C91.8804 43.61 91.9004 43.61 91.9204 43.61C92.1304 43.57 92.1204 43.39 92.1104 43.3C92.1104 43.28 92.1104 43.26 92.1104 43.24L92.0904 43.23Z" fill="#73615F"/>
<path d="M78.5103 38.1899C78.3503 38.1599 78.2103 38.1101 78.0503 38.0601L77.9203 38.02C77.8103 37.98 77.7603 37.93 77.7503 37.83C77.7403 37.73 77.7003 37.63 77.6603 37.52C77.5803 37.33 77.4803 37.24 77.3603 37.24C77.2603 37.24 77.1603 37.31 77.0703 37.46C76.9703 37.64 76.9103 37.62 76.7203 37.54C76.7003 37.54 76.6803 37.52 76.6603 37.51C76.6003 37.48 76.5403 37.4499 76.4603 37.4399H76.4103C75.7903 37.3599 75.6403 37.37 75.3703 37.99C75.3303 38.08 75.3003 38.17 75.2903 38.24C75.1703 38.92 75.2803 39.48 75.6103 39.92C75.9703 40.39 76.5803 40.68 77.3803 40.75C78.2903 40.75 79.0503 40.1601 79.2203 39.3101C79.2803 38.9901 79.2503 38.73 79.1103 38.53C78.9903 38.35 78.7803 38.2301 78.5103 38.1801V38.1899ZM77.4703 39.4399C77.3403 39.2699 77.3003 39.06 77.3803 38.86C77.4403 38.71 77.5503 38.59 77.6903 38.53C77.7703 38.49 77.8503 38.48 77.9303 38.48C78.0003 38.48 78.0703 38.49 78.1403 38.52C78.2903 38.58 78.4103 38.69 78.4703 38.83C78.5403 38.97 78.5403 39.14 78.4803 39.28C78.4203 39.45 78.2803 39.58 78.1003 39.63C78.0303 39.65 77.9803 39.73 77.9803 39.8C77.9803 39.85 77.9803 39.8901 77.9603 39.9301C77.9003 40.0801 77.7303 40.16 77.5703 40.1C77.5003 40.07 77.4403 40.0199 77.4003 39.9399C77.3703 39.8699 77.3603 39.79 77.4003 39.71C77.4103 39.68 77.4303 39.65 77.4503 39.63C77.5003 39.57 77.5003 39.48 77.4503 39.42L77.4703 39.4399Z" fill="#73615F"/>
<path d="M91.4904 40.16C91.3904 39.74 91.2004 39.57 90.7704 39.54C90.4004 39.51 90.0004 39.49 89.6004 39.48C89.4704 39.48 89.3804 39.44 89.3104 39.33L89.2804 39.28C89.2204 39.2 89.1604 39.1201 89.0904 39.0501C88.9404 38.8901 88.8104 38.83 88.6904 38.86C88.5704 38.89 88.4904 38.9999 88.4404 39.1899C88.3804 39.4099 88.3004 39.4701 88.0704 39.4301C88.0204 39.4301 87.9804 39.4301 87.9304 39.4301H87.9004C87.4704 39.4501 87.1504 39.78 87.1604 40.17C87.2004 41.1 87.5604 41.7201 88.2604 42.0501C88.7004 42.2601 89.1404 42.38 89.4704 42.38H89.4804C89.4804 42.38 89.5404 42.38 89.5604 42.38C90.1704 42.38 90.7204 42.12 91.1004 41.66C91.4604 41.22 91.6004 40.67 91.4804 40.15L91.4904 40.16ZM89.2504 41.14C89.2004 41.18 89.1804 41.2501 89.2104 41.3101C89.2304 41.3501 89.2404 41.3999 89.2404 41.4399C89.2404 41.6099 89.1004 41.74 88.9304 41.73C88.7604 41.73 88.6304 41.59 88.6404 41.42C88.6404 41.39 88.6404 41.3599 88.6604 41.3199C88.6804 41.2599 88.6604 41.19 88.6104 41.16C88.4404 41.05 88.3404 40.86 88.3404 40.66C88.3404 40.35 88.6104 40.1 88.9204 40.1C88.9204 40.1 88.9304 40.1 88.9404 40.1C89.2604 40.1 89.5104 40.38 89.5004 40.7C89.5004 40.88 89.4104 41.04 89.2604 41.15L89.2504 41.14Z" fill="#73615F"/>
<path d="M100.21 29.4399C100.11 29.2699 100.1 29.13 100.17 28.98C100.31 28.67 100.39 28.34 100.46 28.02C100.48 27.94 100.5 27.87 100.51 27.79C101.04 25.65 101.12 23.99 100.79 22.39C100.51 21.03 100.04 20.01 99.3305 19.19C98.2305 17.93 96.8405 17.33 95.1805 17.43C92.9705 17.56 91.2704 18.82 90.0404 19.9C89.8604 20.06 89.7705 20.09 89.5605 20.01C88.5605 19.58 87.4905 19.3 86.3905 19.17C84.5905 18.96 82.8905 19.1 81.3305 19.59C81.2005 19.63 81.1605 19.6201 81.0805 19.5601C80.4105 18.9601 79.7505 18.45 79.0605 18.01C77.9205 17.29 76.9104 16.89 75.8804 16.76C73.6604 16.47 71.9804 17.53 71.2604 19.67C71.0304 20.37 70.9004 21.03 70.8804 21.7C70.8738 21.9266 70.7571 22.0499 70.5305 22.0699C70.4605 22.0699 70.4005 22.08 70.3305 22.09C70.0705 22.12 69.8305 22.15 69.5805 22.12C69.4005 22.1 69.2705 22.19 69.2405 22.34C69.2205 22.44 69.2604 22.5101 69.2904 22.5501C69.3404 22.6201 69.4304 22.66 69.5404 22.67C69.6804 22.68 69.8405 22.69 69.9905 22.67C70.2105 22.66 70.4205 22.64 70.6505 22.62L70.8504 22.6V22.78C70.8704 22.97 70.8805 23.15 70.8905 23.33C70.8971 23.51 70.8171 23.6134 70.6505 23.64C70.4205 23.67 70.1905 23.69 69.9705 23.71L69.7405 23.73C69.5505 23.75 69.4405 23.85 69.4505 24C69.4505 24.15 69.5804 24.25 69.7604 24.26C69.8304 24.26 69.9104 24.26 69.9804 24.26C70.0704 24.26 70.1605 24.26 70.2405 24.26C70.3705 24.27 70.4905 24.23 70.6105 24.2C70.8105 24.14 70.9104 24.12 70.9804 24.21C71.0704 24.33 71.1005 24.52 71.1205 24.73C71.1305 24.83 71.1405 24.92 71.1605 25.01C71.1605 25.04 71.1605 25.07 71.1705 25.11C71.1705 25.14 71.1705 25.17 71.1805 25.2C71.1905 25.27 71.1805 25.34 71.1805 25.42C71.1805 25.56 71.1705 25.71 71.2505 25.85C71.5005 26.32 71.3604 26.71 71.0704 27.16C70.5504 27.98 70.1305 28.76 69.8105 29.54C68.7005 32.24 68.5304 34.81 69.2904 37.42C69.2904 37.44 69.3105 37.47 69.3105 37.49C69.3405 37.57 69.3604 37.63 69.3504 37.71C69.2404 38.68 69.0205 39.44 68.6505 40.08C68.0205 41.2 67.0305 41.98 66.2505 42.53C65.2305 43.25 64.0605 43.8399 62.4605 44.4399C61.8305 44.6799 61.1504 44.9 60.3804 45.11C60.2704 45.14 60.2405 45.14 60.2405 45.14C60.2405 45.13 60.2305 45.09 60.2405 44.96V44.86C60.3205 44.36 60.3804 43.85 60.3504 43.34C60.3204 42.93 60.3705 42.73 60.7405 42.67C60.8005 42.67 60.8404 42.63 60.8804 42.6L60.9105 42.58C61.0005 42.52 61.2005 42.3901 61.0805 42.1801C61.0405 42.1101 60.9805 42.0701 60.9205 42.0501C60.8405 42.0301 60.7405 42.05 60.6405 42.11C60.3505 42.29 60.0405 42.27 59.7205 42.24C59.3405 42.2 58.9404 42.18 58.5704 42.39C57.9504 42.74 57.4805 42.9601 56.9205 42.5601C56.8605 42.5201 56.7905 42.51 56.7205 42.52C56.6405 42.54 56.5605 42.59 56.5205 42.67C56.4705 42.74 56.4604 42.83 56.4804 42.9C56.5004 42.97 56.5504 43.0301 56.6304 43.0601C56.9104 43.1801 56.9405 43.4 56.9605 43.74V43.8001C56.9805 44.0601 57.0105 44.33 57.0605 44.59C57.1105 44.87 57.1704 45.14 57.2304 45.42C57.2504 45.5 57.2704 45.5901 57.2904 45.6801C57.2204 45.6801 57.1605 45.7 57.0905 45.71C56.8705 45.74 56.6705 45.77 56.4605 45.79C56.2338 45.81 56.0938 45.71 56.0404 45.49C56.0404 45.49 56.0204 45.4 56.0104 45.36C55.9904 45.29 55.9805 45.22 55.9605 45.15C55.8105 44.65 55.5704 44.48 55.0704 44.53C54.9904 44.53 54.9005 44.53 54.8105 44.53C54.5705 44.53 54.2904 44.52 54.0704 44.72C53.9304 44.85 53.8405 44.8 53.6605 44.71C53.5305 44.64 53.3605 44.54 53.1705 44.63C53.1505 44.64 53.1105 44.64 53.0805 44.65C53.0505 44.65 53.0305 44.65 53.0005 44.66L52.4905 44.78C52.1405 44.86 51.7905 44.94 51.4405 45.02C51.2205 45.07 51.0905 45.19 51.0305 45.39C50.9705 45.6034 50.8371 45.6934 50.6304 45.66C49.1004 45.4 47.4804 45.06 45.9804 44.36C44.8404 43.82 43.3905 43.03 42.3305 41.66C42.1905 41.47 42.0704 41.31 42.0104 41.11C41.9104 40.77 41.7405 40.53 41.4905 40.39C40.7605 39.99 40.1305 39.49 39.6105 39.04C38.4105 38.03 37.6205 36.9299 37.1705 35.6899L37.1405 35.6C37.0705 35.4 37.0004 35.22 37.0104 35.03C37.0104 34.93 37.0305 34.73 36.8105 34.7C36.6405 34.68 36.5304 34.77 36.4804 34.99C36.4604 35.07 36.4805 35.16 36.5005 35.27C36.6905 35.99 36.9904 36.6701 37.3804 37.3001C38.2904 38.7501 39.6005 39.8 40.7505 40.62C41.1205 40.89 41.3805 41.15 41.5805 41.49C42.2805 42.64 43.3005 43.56 44.8105 44.39C45.6705 44.86 46.6305 45.26 47.8405 45.64C47.8705 45.64 47.9005 45.66 47.9405 45.66C48.0305 45.67 48.0405 45.68 48.0605 45.72C48.0805 45.8 48.0405 45.91 47.9605 46.02C47.8705 46.13 47.7405 46.21 47.6505 46.2C47.0405 46.17 46.6005 45.85 46.1205 45.39C45.6305 44.92 45.0804 44.92 44.5704 45.42C44.0904 45.89 43.8104 46.64 43.8504 47.42C43.8804 48.16 44.1604 48.8001 44.6304 49.1801C44.7604 49.2801 44.8705 49.4 44.9005 49.59C44.9705 50.05 45.2705 50.35 45.5005 50.54C46.1005 51.05 46.7405 51.35 47.4705 51.46C47.6405 51.49 47.8105 51.46 47.9705 51.46C48.1505 51.44 48.3105 51.42 48.4705 51.46C49.0205 51.6 49.5605 51.57 50.1105 51.37C50.2205 51.33 50.2504 51.34 50.2604 51.35C50.2704 51.35 50.2905 51.4 50.3005 51.48C50.3205 51.84 50.5305 52.14 50.9105 52.37C51.2805 52.59 51.6405 52.7 52.0205 52.7C52.2005 52.7 52.3905 52.67 52.5805 52.62C53.0405 52.49 53.4105 52.25 53.7105 51.88C53.7305 51.86 53.7505 51.8301 53.7705 51.8001C53.8305 51.7101 53.8705 51.66 53.9605 51.66C55.0405 51.72 56.0605 51.46 57.0605 51.21C57.2305 51.17 57.3005 51.19 57.4105 51.32C57.8305 51.8 58.4004 52.08 59.1004 52.16C59.6304 52.22 60.1005 52.05 60.4005 51.7C60.6905 51.35 60.7805 50.87 60.6405 50.36C60.6305 50.31 60.6105 50.27 60.5905 50.22C60.5705 50.18 60.5604 50.13 60.5404 50.09L60.4905 49.9C60.4405 49.69 60.3805 49.47 60.3405 49.25C60.2905 48.91 60.3605 48.81 60.6805 48.72C60.8205 48.68 60.9805 48.65 61.1905 48.61C63.1005 48.3 65.0205 48.16 66.8905 48.2C67.0205 48.2 67.1504 48.2 67.2904 48.22C67.5604 48.23 67.8405 48.25 68.1205 48.22H68.2304C68.5104 48.19 68.7605 48.17 68.9905 48.32C69.1205 48.4 69.2905 48.41 69.4605 48.35C69.5505 48.32 69.6404 48.29 69.7304 48.26C69.9004 48.2 70.0805 48.15 70.2505 48.07C70.9205 47.75 71.6304 47.48 72.3204 47.22C72.6504 47.09 72.9805 46.97 73.3105 46.84C73.4605 46.78 73.5204 46.79 73.6004 46.91C73.8104 47.18 74.1105 47.32 74.3705 47.41C74.7905 47.56 75.2605 47.64 75.8405 47.66L76.3504 47.6801C76.5404 47.6801 76.7205 47.69 76.9105 47.7C77.4305 47.72 77.9505 47.8 78.4605 47.88C79.0305 47.97 79.6105 48.0601 80.2005 48.0601C80.2705 48.0601 80.2904 48.07 80.2904 48.07C80.2904 48.07 80.2905 48.11 80.2405 48.2L80.0805 48.5C79.9105 48.81 79.7404 49.13 79.5704 49.45C79.2604 50.04 79.3005 50.35 79.7405 50.83C79.8105 50.9 79.8205 50.96 79.8305 51.07C79.8805 51.58 80.1605 51.95 80.6505 52.14C80.9005 52.23 81.2005 52.33 81.5305 52.35C82.2705 52.38 82.8805 52.15 83.3705 51.64C83.5205 51.48 83.6605 51.3999 83.9105 51.4399C84.5005 51.5299 85.1105 51.56 85.6705 51.57C85.9105 51.57 86.0304 51.64 86.1304 51.82C86.3404 52.21 86.6805 52.47 87.1205 52.6C87.7205 52.77 88.3005 52.75 88.8605 52.54C89.4605 52.31 89.8005 51.9 89.8605 51.32C89.8805 51.13 89.9404 51.1001 90.1304 51.0601C91.2104 50.8801 92.1205 50.5501 92.8905 50.0501C94.4105 49.0701 95.5604 47.8101 96.2904 46.3001C96.7404 45.3701 96.8904 44.5199 96.7604 43.6899C96.7304 43.5299 96.7605 43.44 96.8705 43.36C96.9305 43.32 96.9805 43.27 97.0305 43.22C97.0605 43.19 97.1004 43.16 97.1304 43.13C98.3704 42.11 99.3705 40.81 100.2 39.15C100.86 37.84 101.24 36.52 101.35 35.21C101.53 33.03 101.16 31.14 100.19 29.41L100.21 29.4399ZM58.3105 43.6C58.4405 43.57 58.5805 43.6 58.6805 43.7C58.7005 43.72 58.7405 43.73 58.7705 43.72C58.8005 43.72 58.8305 43.69 58.8405 43.66C58.8905 43.54 59.0105 43.44 59.1405 43.41C59.3705 43.36 59.6005 43.5 59.6505 43.73C59.7205 44.04 59.5605 44.32 59.4705 44.46C59.3205 44.67 59.1305 44.81 59.0205 44.83C58.7805 44.88 58.1005 44.61 57.9905 44.09C57.9405 43.86 58.0905 43.63 58.3105 43.58V43.6ZM67.6105 47.02C67.6905 47.21 67.8105 47.3801 67.9405 47.5601C67.9605 47.5901 67.9904 47.62 68.0104 47.66C67.9104 47.66 67.8105 47.66 67.7205 47.66C67.4005 47.66 67.1105 47.66 66.8105 47.66C65.2505 47.63 63.5805 47.74 61.5505 48.02C61.4305 48.04 61.3005 48.0501 61.1805 48.0601C60.9505 48.0801 60.7104 48.1 60.4804 48.16C59.8004 48.35 59.7105 48.76 59.7505 49.08C59.7605 49.17 59.7705 49.27 59.7805 49.36C59.7905 49.54 59.8105 49.73 59.8605 49.91C59.9305 50.14 59.9905 50.38 60.0505 50.61C60.1305 50.93 60.0905 51.21 59.9205 51.39C59.7605 51.57 59.5005 51.66 59.1805 51.62C58.4605 51.54 57.9905 51.2801 57.7105 50.8001C57.5605 50.5501 57.4204 50.52 57.1304 50.65C56.5704 50.91 55.9304 51 55.3204 51.09L55.0805 51.12C54.8205 51.16 54.5705 51.19 54.3305 51.17C53.8505 51.13 53.4905 51.29 53.1805 51.65C52.8705 52.02 52.4405 52.18 51.8605 52.15C51.6305 52.14 51.4204 52.0601 51.2304 51.9301C51.0104 51.7801 50.8705 51.57 50.8305 51.34C50.7905 51.12 50.8604 50.8801 51.0104 50.6801C51.0104 50.6801 51.0205 50.66 51.0305 50.65C51.1305 50.65 51.2305 50.64 51.3305 50.63C51.4405 50.63 51.5605 50.62 51.6705 50.61C51.7205 50.61 51.7605 50.6 51.8005 50.59C51.9805 50.56 52.0805 50.5499 52.1905 50.6899C52.3405 50.8799 52.5705 50.9599 52.9005 50.9399C53.2905 50.9099 53.6805 50.81 54.0605 50.67H54.0805C54.2905 50.58 54.4805 50.51 54.6905 50.46C54.8205 50.43 54.9905 50.39 55.0805 50.24C55.2005 50.04 55.3705 50.03 55.6705 50.02C56.1205 50.02 56.4705 49.87 56.6805 49.6C56.8905 49.33 56.9404 48.95 56.8204 48.5C56.7904 48.39 56.7604 48.2901 56.7304 48.1801C56.6604 47.9301 56.5905 47.6801 56.5505 47.4301C56.5105 47.1701 56.4605 46.92 56.4005 46.66C56.3805 46.58 56.3604 46.49 56.3504 46.41C56.6104 46.36 56.8704 46.3301 57.1304 46.3101C57.3404 46.2901 57.5605 46.26 57.7805 46.23C59.0405 46.03 60.3905 45.78 61.6805 45.33C62.2505 45.13 62.7504 45.04 63.2604 45.02C64.3804 45 65.5105 44.95 66.6105 44.9C67.0005 44.88 67.4004 44.87 67.7904 44.85C68.1104 44.83 68.3804 44.91 68.6304 45.07C68.5504 45.12 68.4505 45.1599 68.3605 45.1899C68.2505 45.2299 68.1305 45.28 68.0205 45.35C67.4405 45.75 67.3005 46.29 67.5905 47.01L67.6105 47.02ZM54.9005 48.8001C55.0405 48.7701 55.1105 48.64 55.0905 48.5C55.0705 48.4 55.0505 48.3 55.0305 48.21C54.9705 47.98 54.9205 47.76 54.8705 47.53C54.7205 46.91 54.5705 46.28 54.3605 45.66C54.2905 45.47 54.2805 45.35 54.3105 45.28C54.3505 45.21 54.4505 45.16 54.6705 45.09C55.1405 44.96 55.3104 45.05 55.4504 45.51C55.6604 46.16 55.8805 46.8501 56.0005 47.5601C56.0505 47.8101 56.1205 48.0601 56.1905 48.3001C56.2405 48.4601 56.2804 48.62 56.3204 48.79C56.3604 48.94 56.3804 49.1501 56.2604 49.3001C56.1704 49.4101 56.0005 49.47 55.7705 49.47H55.7304C55.6004 49.47 55.4704 49.47 55.3504 49.45C55.1404 49.41 54.8904 49.41 54.7604 49.72C54.7204 49.82 54.6305 49.9 54.5005 49.95C53.9805 50.15 53.4705 50.33 52.9305 50.4C52.7905 50.42 52.6805 50.43 52.5805 50.33C52.9805 50.02 53.2705 49.66 53.5005 49.22C53.7305 48.78 53.7605 48.24 53.5905 47.72C53.4005 47.14 52.9905 46.64 52.4905 46.38C52.2705 46.27 52.0105 46.14 51.7205 46.12C51.5805 46.11 51.5304 46.05 51.5104 45.85C51.4904 45.69 51.5605 45.6001 51.7105 45.5601L51.9005 45.51C52.2505 45.42 52.6204 45.33 52.9804 45.27C53.4804 45.19 53.7105 45.34 53.8605 45.85C53.9705 46.21 54.0705 46.59 54.1605 46.95L54.2405 47.25C54.3005 47.47 54.3505 47.69 54.4005 47.91C54.4405 48.07 54.4805 48.23 54.5205 48.39C54.5405 48.47 54.5704 48.55 54.6004 48.64C54.6804 48.84 54.8205 48.84 54.9005 48.82V48.8001ZM51.4705 46.58C51.8405 46.58 52.2504 46.77 52.5704 47.1C52.9304 47.46 53.1505 47.95 53.1505 48.39C53.1505 49.31 52.4005 50.01 51.3305 50.09C50.8005 50.13 50.4105 49.88 50.1705 49.66C49.7905 49.31 49.5305 48.77 49.5305 48.33C49.5305 47.35 50.3805 46.58 51.4705 46.58ZM45.1004 48.91L45.0805 48.89C44.1605 48.14 44.3205 46.82 44.7205 46.13C44.7905 46 44.9205 45.8901 45.0305 45.8001C45.1805 45.6701 45.2905 45.61 45.3905 45.61C45.5005 45.61 45.6105 45.69 45.7705 45.84C46.4405 46.49 46.5605 46.57 47.3605 46.79C47.2305 47.01 47.1905 47.18 47.2505 47.32C47.3105 47.46 47.4505 47.56 47.7105 47.64C48.0205 47.73 48.2805 47.75 48.5205 47.72C48.6905 47.69 48.8605 47.68 49.0305 47.7C49.0505 47.72 49.0505 47.75 49.0305 47.82V47.85C48.7605 48.92 49.4105 49.96 50.1805 50.35C50.3405 50.43 50.3905 50.49 50.3905 50.53C50.3905 50.57 50.3305 50.64 50.1705 50.73C49.8805 50.89 49.6104 50.97 49.3504 50.97H49.3405C49.1505 50.97 48.9504 50.97 48.7604 50.97C48.3004 50.97 47.8305 50.9701 47.3605 50.9301C46.7005 50.8601 46.1305 50.5401 45.6105 49.9301C45.5005 49.8101 45.4005 49.66 45.4105 49.53C45.4505 49.2 45.2605 49.04 45.0905 48.9L45.1004 48.91ZM48.0704 46.85C48.2404 46.71 48.3805 46.53 48.4905 46.27C48.5971 46.03 48.7838 45.9367 49.0505 45.99H49.0704C49.3804 46.06 49.7004 46.12 50.0104 46.17L50.3005 46.22C50.3005 46.22 50.3205 46.22 50.3305 46.22C50.1305 46.34 49.9505 46.48 49.7805 46.62C49.6305 46.74 49.4905 46.85 49.3405 46.95C48.9405 47.21 48.4305 47.26 47.8305 47.09C47.9005 46.97 47.9805 46.91 48.0605 46.84L48.0704 46.85ZM88.7105 46.32C89.1505 46.25 89.5805 46.19 90.0005 46.14C90.4905 46.08 90.9905 46.0201 91.5005 45.9301C91.3405 46.2601 91.1104 46.5401 90.7904 46.8101C90.4204 47.1301 89.9504 47.3701 89.3204 47.5601C89.2404 47.5801 89.1805 47.59 89.1505 47.57C89.1305 47.56 89.1104 47.53 89.1004 47.48C89.0404 47.21 88.9405 46.96 88.8405 46.7C88.7905 46.57 88.7405 46.4401 88.7005 46.3101L88.7105 46.32ZM89.3804 48.36C89.3804 48.36 89.4804 48.3 89.5404 48.27C90.1104 48.06 90.5905 47.81 91.0205 47.49C91.5205 47.13 91.8905 46.64 92.1605 46C92.2305 45.83 92.2905 45.75 92.4405 45.71C93.7905 45.33 95.0305 44.75 96.1105 43.98C96.1505 43.95 96.1804 43.9301 96.2304 43.9301C96.3004 44.1701 96.2704 44.43 96.2304 44.65C96.0404 45.63 95.6505 46.52 95.0505 47.29C94.2005 48.38 93.3104 49.17 92.3504 49.71C91.5304 50.16 90.7204 50.41 89.8804 50.47C89.7704 49.81 89.6405 49.11 89.3905 48.45C89.3805 48.41 89.3704 48.38 89.3804 48.37V48.36ZM82.9605 51.21C82.4605 51.86 81.3505 52.0301 80.6705 51.5501C80.5705 51.4801 80.5105 51.39 80.4905 51.26L80.5605 51.28C80.7105 51.31 80.8605 51.35 81.0005 51.37C81.8005 51.51 82.2705 51.2801 82.6705 50.5501C82.8005 50.3101 82.9505 50.0601 83.1105 49.8001C83.1705 49.7101 83.2105 49.66 83.2205 49.65C83.2405 49.65 83.2804 49.68 83.3804 49.79C83.7704 50.19 84.2605 50.41 84.8305 50.46C85.0405 50.48 85.2405 50.46 85.4405 50.4C85.6205 50.35 85.7205 50.2 85.6905 50.03C85.6705 49.93 85.6005 49.82 85.3605 49.82C85.3005 49.82 85.2305 49.82 85.1705 49.82C85.0705 49.82 84.9804 49.82 84.8804 49.82C84.2404 49.8 83.6905 49.41 83.4905 48.82C83.3205 48.32 83.5205 47.7001 83.9705 47.3101C84.4505 46.9001 85.4505 46.91 85.9205 47.34C85.9505 47.36 85.9705 47.39 85.9905 47.42C86.0205 47.45 86.0505 47.49 86.0805 47.52L86.1004 47.54C86.1604 47.59 86.2305 47.66 86.3305 47.66C86.3905 47.66 86.4504 47.63 86.5104 47.57C86.5604 47.51 86.6704 47.35 86.4804 47.13C86.2304 46.84 85.9304 46.6501 85.5704 46.5601C85.4104 46.5201 85.2504 46.49 85.0704 46.45H85.0205C85.1605 46.33 85.3005 46.2901 85.4705 46.3001C86.0605 46.3501 86.6605 46.34 87.2505 46.33C87.4405 46.33 87.6304 46.33 87.8204 46.33C88.0204 46.33 88.1005 46.38 88.1705 46.54C88.5005 47.27 88.7705 48.0701 88.9905 49.0601C89.1405 49.7101 89.3105 50.45 89.2505 51.2C89.2205 51.62 89.0505 51.86 88.6905 52.01C88.1805 52.22 87.6505 52.22 87.1105 51.99C86.8205 51.87 86.6604 51.7 86.6004 51.45C86.5304 51.16 86.3305 50.99 86.0605 50.99C86.0405 50.99 86.0205 50.99 86.0005 50.99C85.2005 51.06 84.3905 50.98 83.6905 50.9C83.3605 50.86 83.1505 50.96 82.9405 51.23L82.9605 51.21ZM67.4804 44.28C66.9304 44.32 66.3604 44.34 65.8204 44.36C65.2604 44.38 64.6805 44.3999 64.0905 44.4399C64.0905 44.4399 64.0904 44.4399 64.1004 44.4399C65.1704 43.8999 66.4305 43.22 67.5605 42.32C68.6605 41.44 69.4004 40.27 69.7604 38.84V38.79C69.7604 38.79 69.7905 38.71 69.8005 38.67C70.8905 40.99 72.6505 42.76 75.1705 44.07H75.1004C74.9004 44.1 74.7104 44.12 74.5104 44.15C74.4304 44.15 74.3705 44.1301 74.2805 44.0601C73.8505 43.7201 73.3405 43.63 72.6705 43.77C71.7605 43.96 70.8105 44.2499 69.6805 44.6899C69.4305 44.7899 69.2705 44.8 69.0205 44.64C68.6705 44.4 68.2505 44.28 67.7405 44.28C67.6505 44.28 67.5605 44.28 67.4605 44.29L67.4804 44.28ZM74.8605 44.95C74.8605 44.95 74.8404 44.88 74.8204 44.84C74.8004 44.78 74.7805 44.73 74.7705 44.67C75.6905 44.6 76.5105 44.67 77.2805 44.92C78.4105 45.28 79.7305 45.68 81.0805 45.82H81.1405C81.2105 45.83 81.2904 45.84 81.3504 45.86C81.4504 45.9 81.5105 45.94 81.5305 45.98C81.5505 46.02 81.5305 46.0899 81.4705 46.1899C81.3805 46.3399 81.2905 46.48 81.2005 46.62C81.0705 46.83 80.9305 47.05 80.8105 47.27C80.7205 47.44 80.6105 47.5 80.3905 47.5C79.8405 47.5 79.2805 47.42 78.7405 47.34H78.7005C77.7405 47.2 76.7004 47.12 75.5404 47.07C75.1504 47.06 74.7805 46.96 74.4205 46.78C74.3205 46.73 74.2405 46.67 74.1705 46.59C74.9005 46.23 75.0905 45.7499 74.8605 44.9399V44.95ZM80.0205 49.86C80.1305 49.65 80.2404 49.44 80.3504 49.23C80.5504 48.85 80.7505 48.45 80.9905 48.08C81.3105 47.59 81.6105 47.09 81.8905 46.57C82.0205 46.34 82.1404 46.27 82.3504 46.34C82.5204 46.39 82.7104 46.39 82.8504 46.32C83.1504 46.18 83.4305 46.28 83.7105 46.39C83.8305 46.44 83.9505 46.48 84.0805 46.51C84.1005 46.51 84.1505 46.53 84.1505 46.58C84.1505 46.58 84.1204 46.59 84.1004 46.6C84.0704 46.6 84.0505 46.62 84.0305 46.63C83.7405 46.78 83.4005 46.98 83.1605 47.32C82.8805 47.72 82.7605 48.15 82.8105 48.58C82.8305 48.78 82.8005 48.95 82.6905 49.11C82.3905 49.59 82.1505 50 81.9305 50.42C81.7705 50.73 81.5505 50.8401 81.1805 50.8001C81.1805 50.8001 81.1805 50.8001 81.1705 50.8001C80.8005 50.8301 80.4905 50.64 80.1505 50.4C80.0005 50.3 79.8604 50.12 80.0104 49.85L80.0205 49.86ZM90.8605 45.4301C89.1905 45.7101 87.5305 45.76 86.2705 45.77C86.1805 45.77 86.0905 45.77 86.0005 45.75C85.9105 45.75 85.8305 45.73 85.7405 45.73H85.6304C85.3804 45.72 85.1205 45.71 84.8405 45.86C84.5605 46.01 84.2105 45.9901 83.7505 45.8001C83.5805 45.7301 83.4204 45.6899 83.2604 45.6899C83.1204 45.6899 82.9805 45.72 82.8305 45.77C82.6305 45.84 82.2405 45.93 81.9205 45.64C81.6205 45.37 81.2705 45.3 80.9305 45.26C79.1705 45.03 77.4204 44.48 75.6004 43.58C73.6804 42.64 72.1704 41.34 71.1004 39.73C69.8604 37.86 69.3105 35.8 69.4605 33.6C69.6105 31.4 70.3205 29.33 71.5805 27.46C71.9905 26.85 72.0905 26.27 71.9005 25.62C71.5105 24.31 71.3505 22.96 71.4405 21.61C71.5305 20.2 71.9505 19.12 72.7205 18.29C73.2005 17.77 73.8205 17.45 74.6105 17.31C75.7405 17.11 76.7705 17.47 77.6205 17.85C78.7905 18.37 79.7905 19.18 80.5305 19.83C80.5305 19.83 80.5505 19.85 80.5605 19.87C79.9305 20.15 79.2705 20.45 78.6805 20.87C78.4105 21.06 78.1505 21.27 77.8905 21.47L77.7805 21.5501C77.7005 21.6101 77.6504 21.69 77.6004 21.75C77.5104 21.88 77.5305 22.02 77.6405 22.1C77.7005 22.15 77.8005 22.18 77.9405 22.08L78.1304 21.9399C78.3104 21.7999 78.5005 21.67 78.6805 21.53C80.0205 20.52 81.6305 19.9199 83.5905 19.6899C84.9005 19.5399 86.1605 19.6199 87.3305 19.9399C87.5005 19.9899 87.6804 20.0201 87.8504 20.0501C88.1004 20.1001 88.3604 20.15 88.6004 20.24C90.3904 20.88 91.8304 21.6801 93.0104 22.6801C93.1104 22.7601 93.2104 22.82 93.3204 22.89L93.3504 22.91C93.4604 22.98 93.5905 22.96 93.7005 22.85C93.8105 22.74 93.8105 22.58 93.7005 22.45C93.6505 22.39 93.5904 22.3501 93.5404 22.3101C93.5104 22.2901 93.4905 22.27 93.4705 22.25C92.5405 21.47 91.5105 20.8901 90.6205 20.4301L90.4804 20.36C90.6904 20.09 90.9605 19.8899 91.2205 19.6899L91.3204 19.62C92.5704 18.69 93.6305 18.21 94.7805 18.06C96.7005 17.82 98.2105 18.51 99.2705 20.12C100.05 21.3 100.4 22.72 100.37 24.58C100.36 25.52 100.19 26.44 100.04 27.21C99.9804 27.5 99.8605 27.7801 99.7505 28.0601C99.6705 28.2401 99.6004 28.43 99.5404 28.62C99.4604 28.88 99.4605 29.1 99.5505 29.34C99.6405 29.58 99.7505 29.81 99.8605 30.04C99.9505 30.23 100.05 30.43 100.13 30.63C100.71 32.08 100.9 33.65 100.7 35.41C100.56 36.66 100.18 37.91 99.5505 39.23C99.3305 39.69 99.0105 40.1 98.7005 40.5C98.6105 40.62 98.5205 40.73 98.4305 40.85C97.6605 41.89 96.8505 42.7 95.9505 43.33C94.4305 44.4 92.7704 45.07 90.8504 45.39L90.8605 45.4301Z" fill="#73615F"/>
<path d="M72.8003 20.04C72.9403 19.77 73.2803 19.39 73.5703 19.51C74.6203 19.95 76.9903 21.71 76.8003 22.15C76.6203 22.57 73.6903 24.46 73.0403 24.89C72.7903 25.05 72.4103 24.9599 72.3403 24.7099C72.0903 23.8399 71.7803 21.99 72.7903 20.04H72.8003Z" fill="#73615F"/>
<path d="M99.1902 22.4C99.1302 22.1 98.5902 20.5199 97.9802 20.5799C96.9002 20.6899 95.0702 23.45 95.2102 23.92C95.3402 24.36 97.8102 26.6899 98.4002 27.1899C98.6302 27.3799 99.0202 27.3299 99.1202 27.0899C99.4602 26.2599 99.6002 24.47 99.1902 22.4Z" fill="#73615F"/>
<path d="M64.1602 59.85C64.2002 59.66 64.2202 59.46 64.2202 59.26C64.2202 57.57 62.8501 56.1899 61.1501 56.1899C60.7101 56.1899 60.2902 56.29 59.9102 56.45C59.1302 55.06 57.6401 54.11 55.9301 54.11C54.2201 54.11 52.6802 55.09 51.9102 56.52C51.8502 56.52 51.7901 56.52 51.7301 56.52C50.3001 56.52 49.1401 57.68 49.1401 59.11C49.1401 59.37 49.1802 59.61 49.2502 59.85H64.1701H64.1602Z" fill="#C3BCB3"/>
<path d="M19.46 38.8199C15.05 38.8199 11.32 41.6399 9.94002 45.5699C9.42002 45.4699 8.89001 45.41 8.34001 45.41C3.97001 45.41 0.38 48.76 0 53.03H38.11C37.27 49.3 33.94 46.51 29.95 46.51C29.72 46.51 29.5 46.53 29.27 46.54C28.2 42.11 24.22 38.8199 19.46 38.8199Z" fill="#C3BCB3"/>
<path d="M116.21 46C115.24 45.61 114.18 45.39 113.07 45.39C108.67 45.39 105.06 48.78 104.7 53.1H145.25C144.39 45.11 137.64 38.9 129.44 38.9C123.92 38.9 119.05 41.72 116.2 46H116.21Z" fill="#C3BCB3"/>
<path fill-rule="evenodd" clip-rule="evenodd" d="M75.6801 9.38H71.3701L69.5401 12.54L67.7101 9.38H63.4001C62.5501 9.38 61.8501 8.69002 61.8501 7.83002V1.54999C61.8501 0.699988 62.5401 0 63.4001 0H75.6701C76.5201 0 77.2201 0.689988 77.2201 1.54999V7.83002C77.2201 8.68002 76.5301 9.38 75.6701 9.38H75.6801ZM71.0901 2.15002C70.4601 2.15002 69.9001 2.45998 69.5401 2.91998C69.1801 2.44998 68.6201 2.15002 67.9901 2.15002C66.9101 2.15002 66.0301 3.04 66.0301 4.13C66.0301 4.68 66.2501 5.17003 66.6101 5.53003C66.9701 5.89003 68.2601 6.91999 69.5501 7.60999C70.7201 6.89999 72.1201 5.89999 72.4701 5.54999C72.8301 5.18999 73.0601 4.69001 73.0601 4.14001C73.0601 3.05001 72.1801 2.15997 71.1001 2.15997L71.0901 2.15002Z" fill="#C3BCB3"/>
</g>
<defs>
<clipPath id="clip0_47_5111">
<rect width="146" height="60" fill="white"/>
</clipPath>
</defs>
</svg>
