<svg width="38" height="28" viewBox="0 0 38 28" fill="none" xmlns="http://www.w3.org/2000/svg">
<path d="M8.50137 25.01C10.5314 25.21 16.1114 24.8399 17.3614 23.3699C16.8114 22.0299 14.2514 19.8301 14.2514 19.8301C13.1814 21.0701 10.1014 21.4199 8.61137 21.1799L8.51137 25.02L8.50137 25.01Z" fill="#FFAD40"/>
<path d="M17.3514 23.3699C16.1114 24.8399 10.5214 25.21 8.49136 25.01L8.57137 22.1599C9.29137 22.6499 10.7814 23.56 11.7114 23.05C12.3014 22.72 10.7214 21.98 10.6114 21.2C12.0114 21.06 13.5514 20.6401 14.2414 19.8301C14.2414 19.8301 16.8014 22.0299 17.3514 23.3699Z" fill="#FF9343"/>
<path d="M9.74137 25.2201C9.25137 25.2201 8.82137 25.2 8.49137 25.17C8.40137 25.17 8.33138 25.0801 8.34138 24.9901C8.34138 24.9001 8.43137 24.8299 8.52137 24.8399C10.5714 25.0399 15.8614 24.6702 17.1714 23.3302C16.6414 22.2002 14.7614 20.4901 14.2714 20.0501C13.0214 21.2901 9.95138 21.5502 8.59138 21.3302C8.50138 21.3202 8.44138 21.23 8.45138 21.14C8.46138 21.05 8.55138 20.9901 8.64138 21.0001C10.1714 21.2501 13.1414 20.86 14.1314 19.71C14.1914 19.64 14.2914 19.63 14.3614 19.69C14.4714 19.78 16.9514 21.9401 17.5114 23.3001C17.5314 23.3601 17.5214 23.4201 17.4814 23.4701C16.3914 24.7601 12.2514 25.2201 9.73138 25.2201H9.74137Z" fill="#262F6A"/>
<path d="M29.8214 7.38986C29.1714 7.49986 27.3414 6.70986 27.0414 4.38986C26.6114 1.09986 31.3314 -1.58012 34.8514 1.65988C38.4814 5.42988 37.3914 14.36 30.4214 15.57C23.5514 16.77 28.3714 13.6699 28.3714 13.6699C28.3714 13.6699 31.1614 10.6599 29.8314 7.38986H29.8214Z" fill="#FFAD40"/>
<path d="M30.4214 15.5701C23.5514 16.7701 28.3714 13.67 28.3714 13.67C28.3714 13.67 31.1614 10.6599 29.8314 7.38995C29.1814 7.49995 27.3514 6.70995 27.0514 4.38995C26.9714 3.80995 27.0514 3.25003 27.2714 2.73003C28.2514 0.340034 31.9614 -1.01003 34.8614 1.65997C34.9314 1.72997 35.0014 1.80995 35.0714 1.88995C38.4514 5.77995 37.2714 14.3901 30.4314 15.5801L30.4214 15.5701Z" fill="#FFAD40"/>
<path d="M30.4214 15.5701C23.5514 16.7701 28.3714 13.67 28.3714 13.67C28.3714 13.67 30.8014 11.0601 30.0414 8.04009C29.9914 7.82009 29.9214 7.59994 29.8314 7.37994C29.8114 7.37994 29.7814 7.37994 29.7614 7.37994C29.0614 7.41994 27.3414 6.60993 27.0514 4.36993C26.9714 3.78993 27.0514 3.23001 27.2714 2.71001C28.2514 0.320014 31.9614 -1.03005 34.8614 1.63995C34.9314 1.70995 35.0014 1.78993 35.0714 1.86993C38.4514 5.75993 37.2714 14.3701 30.4314 15.5601L30.4214 15.5701Z" fill="#FFAD40"/>
<path d="M34.8014 13.16C33.7514 14.36 32.3014 15.2401 30.4214 15.5701C23.5514 16.7701 28.3714 13.67 28.3714 13.67C28.3714 13.67 29.5714 12.3801 30.0214 10.5701C30.2114 9.80012 30.2714 8.9401 30.0414 8.0501C29.9914 7.8301 29.9214 7.60995 29.8314 7.38995C29.8114 7.38995 29.7814 7.38995 29.7614 7.38995C29.0614 7.42995 27.3414 6.61994 27.0514 4.37994C26.9714 3.79994 27.0514 3.24002 27.2714 2.72002C28.2514 0.330024 31.9614 -1.02004 34.8614 1.64996C34.9314 1.71996 35.0014 1.79994 35.0714 1.87994C37.5214 4.69994 37.5714 9.99997 34.8114 13.16H34.8014Z" fill="#FFAD40"/>
<path d="M34.8014 13.1599C33.7514 14.3599 32.3014 15.2401 30.4214 15.5701C23.5514 16.7701 28.3714 13.6699 28.3714 13.6699C28.3714 13.6699 29.5714 12.3801 30.0214 10.5701C30.6114 10.6401 31.5614 10.8799 32.4614 11.6299C33.2614 12.2899 34.0514 12.9199 34.8014 13.1599Z" fill="#FF9343"/>
<path d="M33.6714 7.33016C32.6214 8.65016 30.8114 8.81012 30.0414 8.04012C29.9914 7.82012 29.9214 7.59997 29.8314 7.37997C29.8114 7.37997 29.7814 7.37997 29.7614 7.37997C30.2314 7.17997 30.9614 6.68998 31.3914 5.63998C31.8814 4.44998 32.4014 2.92008 33.3714 3.24008C33.8814 3.50008 34.6114 6.15015 33.6714 7.32015V7.33016Z" fill="#FF9343"/>
<path d="M35.0614 1.87994L35.0114 1.88995C34.1714 1.32995 32.0514 0.290092 30.6814 2.04009C29.9114 3.02009 29.1514 5.88011 27.7614 4.31011C27.5214 4.04011 27.3014 3.43002 27.2614 2.72002C28.2414 0.330024 31.9514 -1.02004 34.8514 1.64996C34.9214 1.71996 34.9914 1.79994 35.0614 1.87994Z" fill="#FFF3E9"/>
<path d="M27.9214 16.03C26.9314 16.03 26.6614 15.79 26.5614 15.55C26.4314 15.21 26.6814 14.7699 27.3314 14.1999C27.7214 13.8599 28.1314 13.59 28.2314 13.52C28.4414 13.28 30.7914 10.54 29.6914 7.58001C29.3414 7.58001 28.8214 7.41997 28.3014 7.03997C27.5014 6.44997 26.9914 5.50984 26.8414 4.39984C26.6414 2.85984 27.5214 1.33997 29.0714 0.539974C30.5714 -0.230026 32.9014 -0.390056 34.9614 1.50994C36.9314 3.56994 37.5914 7.19001 36.5614 10.33C35.6014 13.26 33.3614 15.2399 30.4214 15.7499C29.2714 15.9499 28.4614 16.03 27.8914 16.03H27.9214ZM29.9414 7.16986L30.0014 7.30999C30.5614 8.69999 30.4814 10.26 29.7714 11.83C29.2314 13.01 28.5414 13.76 28.5114 13.79L28.4914 13.81H28.4714C27.6314 14.36 26.8114 15.1198 26.9214 15.4098C26.9514 15.4998 27.2914 15.9198 30.3914 15.3798C33.1914 14.8898 35.3214 13.0099 36.2414 10.2199C37.2314 7.2099 36.6014 3.73997 34.7314 1.78997C32.8114 0.0299736 30.6514 0.159817 29.2714 0.879817C27.8614 1.60982 27.0614 2.9798 27.2414 4.3598C27.4114 5.6498 28.0414 6.36993 28.5514 6.73992C29.0314 7.09993 29.5514 7.23989 29.8114 7.19989L29.9614 7.17987L29.9414 7.16986Z" fill="#262F6A"/>
<path d="M33.4014 3.2601C32.6114 3.1501 32.2914 4.00996 32.0414 4.60996C31.7514 5.29996 31.5414 5.98999 31.1314 6.63999C30.8514 7.07999 30.4114 7.51017 29.8614 7.58017L29.8014 7.21005C30.2314 7.11005 30.5314 6.77 30.7614 6.4C31.0114 6 31.2014 5.55998 31.4014 5.12998C31.7514 4.38998 32.3214 2.82011 33.4114 3.27011L33.4014 3.2601Z" fill="#262F6A"/>
<path d="M32.2614 20.6199C32.2614 20.6199 36.0114 19.3901 37.1114 17.0101C37.9514 15.2001 36.5314 13.6801 34.5114 14.5501C32.7814 15.2901 31.6914 15.3599 31.6914 15.3599L32.2614 20.6199Z" fill="#9B4635"/>
<path d="M37.1114 17.0099C36.0114 19.3899 32.2614 20.6198 32.2614 20.6198L31.6914 15.3598C31.6914 15.3598 32.4214 15.3098 33.6314 14.8898C33.9014 14.7998 34.1914 14.68 34.5114 14.55C36.0214 13.9 37.2014 14.5799 37.3414 15.7299C37.3914 16.1199 37.3214 16.5599 37.1114 17.0199V17.0099Z" fill="#FFAD40"/>
<path d="M37.1114 17.0099C36.7014 17.8899 35.9414 18.6098 35.1314 19.1698C33.7514 20.1298 32.2514 20.6198 32.2514 20.6198L31.6814 15.3598C31.6814 15.3598 32.2914 15.3199 33.3114 14.9999C33.4114 14.9699 33.5114 14.9298 33.6214 14.8998C33.8914 14.7998 34.1814 14.69 34.5014 14.56C36.0114 13.91 37.1914 14.5899 37.3314 15.7399C37.3814 16.1299 37.3114 16.5699 37.1014 17.0299L37.1114 17.0099Z" fill="#FFAD40"/>
<path d="M37.1114 17.01C36.0114 19.39 32.2614 20.6199 32.2614 20.6199L31.6914 15.3599C31.6914 15.3599 32.3114 15.32 33.3514 14.99C34.1614 15.54 34.3914 15.8401 34.6014 17.3301C34.7614 18.4201 37.1214 17.33 37.3414 15.73C37.3914 16.12 37.3214 16.56 37.1114 17.02V17.01Z" fill="#FF9343"/>
<path d="M37.1114 17.01C37.1114 17.01 37.0814 17.0699 37.0714 17.0999C37.0614 17.1299 37.0414 17.1499 37.0314 17.1799C37.0114 17.2099 37.0014 17.24 36.9814 17.27C36.9714 17.29 36.9514 17.3198 36.9414 17.3398C36.8914 17.4198 36.8414 17.5001 36.7914 17.5701C36.7714 17.5901 36.7614 17.6099 36.7414 17.6399C36.7414 17.6399 36.7414 17.6499 36.7314 17.6599C36.7114 17.6799 36.7014 17.7 36.6814 17.72C36.6614 17.74 36.6414 17.77 36.6214 17.79C36.5814 17.84 36.5414 17.8899 36.5014 17.9299L36.4514 17.99C36.4514 17.99 36.3914 18.0501 36.3714 18.0801C36.3514 18.1001 36.3414 18.1099 36.3214 18.1299C36.2614 18.1999 36.1914 18.2701 36.1314 18.3301C36.1114 18.3501 36.0914 18.3699 36.0614 18.3899C36.0614 18.3899 36.0114 18.43 35.9914 18.45C35.9914 18.45 35.9714 18.46 35.9714 18.47C35.9114 18.53 35.8514 18.5799 35.7814 18.6399C35.7614 18.6599 35.7314 18.68 35.7114 18.7C35.6914 18.72 35.6614 18.74 35.6414 18.76C35.6214 18.78 35.6014 18.8001 35.5714 18.8101C35.5514 18.8301 35.5214 18.8499 35.5014 18.8699C35.4714 18.8899 35.4514 18.9099 35.4214 18.9299C35.3714 18.9699 35.3214 19 35.2714 19.04C35.2214 19.08 35.1714 19.1099 35.1214 19.1499C35.2214 18.6299 35.2314 18.16 35.1914 17.75C35.9514 17.71 37.1714 16.84 37.3314 15.71C37.3814 16.1 37.3114 16.54 37.1014 17L37.1114 17.01Z" fill="#F9D3B7"/>
<path d="M37.1114 17.0099C36.7014 17.8899 35.9414 18.6098 35.1314 19.1698C35.7014 16.0398 33.4114 15.0299 33.3114 14.9999C33.4114 14.9699 33.5114 14.9298 33.6214 14.8998C33.8914 14.7998 34.1814 14.69 34.5014 14.56C36.0114 13.91 37.1914 14.5899 37.3314 15.7399C37.3814 16.1299 37.3114 16.5699 37.1014 17.0299L37.1114 17.0099Z" fill="#FFF3E9"/>
<path d="M37.1114 17.01C37.1114 17.01 37.0814 17.0699 37.0714 17.0999C37.0614 17.1299 37.0414 17.1499 37.0314 17.1799C37.0114 17.2099 37.0014 17.24 36.9814 17.27C36.9714 17.29 36.9514 17.3198 36.9414 17.3398C36.8914 17.4198 36.8414 17.5001 36.7914 17.5701C36.7714 17.5901 36.7614 17.6099 36.7414 17.6399C36.7414 17.6399 36.7414 17.6499 36.7314 17.6599C36.7114 17.6799 36.7014 17.7 36.6814 17.72C36.6614 17.74 36.6414 17.77 36.6214 17.79C36.5814 17.84 36.5414 17.8899 36.5014 17.9299L36.4514 17.99C36.4514 17.99 36.3914 18.0501 36.3714 18.0801C36.3514 18.1001 36.3414 18.1099 36.3214 18.1299C36.2614 18.1999 36.1914 18.2701 36.1314 18.3301C36.1114 18.3501 36.0914 18.3699 36.0614 18.3899C36.0614 18.3899 36.0114 18.43 35.9914 18.45C35.9914 18.45 35.9714 18.46 35.9714 18.47C35.9114 18.53 35.8514 18.5799 35.7814 18.6399C35.7614 18.6599 35.7314 18.68 35.7114 18.7C35.6914 18.72 35.6614 18.74 35.6414 18.76C35.6214 18.78 35.6014 18.8001 35.5714 18.8101C35.5514 18.8301 35.5214 18.8499 35.5014 18.8699C35.4714 18.8899 35.4514 18.9099 35.4214 18.9299C35.3714 18.9699 35.3214 19 35.2714 19.04C35.2214 19.08 35.1714 19.1099 35.1214 19.1499C35.2214 18.6299 35.2314 18.16 35.1914 17.75C35.9514 17.71 37.1714 16.84 37.3314 15.71C37.3814 16.1 37.3114 16.54 37.1014 17L37.1114 17.01Z" fill="#F9D3B7"/>
<g opacity="0.3">
<path d="M37.3514 16.19C37.1814 15 36.2014 14.1899 34.4114 14.8799C33.8714 15.0899 33.1614 15.2 32.6214 15.2C33.1014 15.08 33.7414 14.8901 34.5114 14.5601C36.2214 13.8301 37.4914 14.79 37.3514 16.2V16.19Z" fill="white"/>
</g>
<path d="M35.7414 15.0999C35.9014 15.3199 35.6914 15.6 35.2914 15.72C34.8914 15.84 34.4314 15.75 34.2814 15.53C34.1214 15.31 34.3314 15.0299 34.7314 14.9099C35.1314 14.7899 35.5914 14.8799 35.7414 15.0999Z" fill="#FF8080"/>
<path d="M36.5414 14.98C36.6014 15.07 36.5214 15.19 36.3514 15.24C36.1814 15.29 36.0014 15.2499 35.9314 15.1599C35.8714 15.0699 35.9514 14.9499 36.1214 14.8999C36.2914 14.8499 36.4714 14.89 36.5414 14.98Z" fill="#FF8080"/>
<path d="M36.0114 14.5501C36.0714 14.6401 35.9914 14.7601 35.8214 14.8101C35.6514 14.8601 35.4714 14.82 35.4014 14.73C35.3414 14.64 35.4214 14.52 35.5914 14.47C35.7614 14.42 35.9414 14.4601 36.0114 14.5501Z" fill="#FF8080"/>
<path d="M34.6936 14.8229C34.8473 14.8063 34.9643 14.7215 34.9548 14.6337C34.9453 14.5458 34.813 14.4881 34.6593 14.5047C34.5055 14.5212 34.3886 14.6058 34.398 14.6937C34.4075 14.7815 34.5398 14.8395 34.6936 14.8229Z" fill="#FF8080"/>
<path d="M32.2614 20.8101C32.1814 20.8101 32.1114 20.7599 32.0814 20.6799C32.0514 20.5799 32.1014 20.4699 32.2014 20.4399C32.2414 20.4299 35.8914 19.1999 36.9414 16.9299C37.3014 16.1599 37.2414 15.4099 36.7714 14.9299C36.2814 14.4199 35.4614 14.35 34.5814 14.72C32.8414 15.47 31.7414 15.5401 31.7014 15.5501C31.6014 15.5501 31.5114 15.4799 31.5014 15.3699C31.5014 15.2699 31.5714 15.1799 31.6814 15.1699C31.6914 15.1699 32.7714 15.0899 34.4414 14.3699C35.4714 13.9299 36.4414 14.0399 37.0514 14.6599C37.6214 15.2499 37.7114 16.1798 37.2914 17.0898C36.1614 19.5098 32.4814 20.7501 32.3214 20.8001C32.3014 20.8001 32.2814 20.8001 32.2614 20.8001V20.8101Z" fill="#262F6A"/>
<path d="M33.6214 15.8699L33.3314 19C33.0614 20.53 31.7414 21.6299 31.1014 22.0999C29.8814 22.9799 28.2214 23.62 26.7314 24.03C26.7314 23.83 26.8014 23.57 26.9314 23.23C27.2314 22.49 27.4914 21.22 27.6014 21.05C27.7414 20.83 28.2114 21.8 29.2414 21.7C32.6014 21.4 33.6514 17.5598 33.5114 15.0898C33.5614 15.3398 33.6014 15.5899 33.6214 15.8599V15.8699Z" fill="#EA5A1B"/>
<path d="M33.6214 15.8699C33.3214 11.3699 28.4714 8.62006 23.6514 11.8201L17.3014 17.8799C17.3014 17.8799 10.5014 21.7499 14.8114 23.6199C17.1314 24.6299 22.2314 24.4199 22.2314 24.4199C23.6114 24.5199 24.9814 24.4199 26.2714 24.1599C27.8714 23.7599 29.7514 23.0799 31.1114 22.1099C31.7514 21.6399 33.0714 20.54 33.3414 19L33.6314 15.8699H33.6214Z" fill="#FFAD40"/>
<g opacity="0.5">
<path d="M29.2314 11.24C29.2314 11.24 29.2414 11.3199 29.2414 11.3499C29.2414 11.7699 28.6614 12.1099 27.9414 12.1099C27.2214 12.1099 26.6414 11.7699 26.6414 11.3499C26.6414 11.3199 26.6414 11.3 26.6414 11.27C25.7214 11.47 24.7614 11.87 23.8014 12.51L17.4514 18.5701C17.4514 18.5701 13.6214 20.7499 13.5314 22.6299C12.4514 20.6399 17.3014 17.8899 17.3014 17.8899L23.6514 11.8301C28.2414 8.7801 32.8614 11.14 33.5414 15.25C32.9514 13.18 31.3114 11.67 29.2314 11.24Z" fill="white"/>
</g>
<path d="M33.6214 15.8699L33.3314 19C33.0614 20.53 31.7414 21.6299 31.1014 22.0999C29.8814 22.9799 28.2214 23.62 26.7314 24.03C26.7314 23.83 26.8014 23.57 26.9314 23.23C27.1614 22.66 27.3714 21.7701 27.5014 21.3201C27.5414 21.1901 27.5714 21.09 27.6014 21.05C27.6714 20.95 27.8114 21.1 28.0414 21.29C28.3114 21.5 28.6914 21.75 29.2414 21.7C32.5814 21.4 33.6414 17.6199 33.5214 15.1499C33.5714 15.3799 33.6114 15.6199 33.6214 15.8599V15.8699Z" fill="#FF9343"/>
<path d="M33.6214 15.8698C33.0814 12.4198 30.2414 10.1099 26.7214 10.7499C25.7114 10.9099 24.5314 11.4699 23.7814 11.9599C22.9914 12.7199 21.3914 14.2299 20.6014 14.9899L17.4214 18.0199C17.4214 18.0199 17.4014 18.04 17.3814 18.05C16.2914 18.7 15.2114 19.4698 14.3514 20.4098C13.7914 21.0398 13.1714 22.0299 13.8514 22.7799C15.2314 24.3199 20.1514 24.2799 22.2014 24.2399C23.5614 24.3399 24.9514 24.2499 26.2814 23.9599C27.0714 23.7599 27.8614 23.5099 28.6114 23.1999C29.7414 22.7399 30.8214 22.15 31.7114 21.31C32.4114 20.66 32.9714 19.9099 33.3014 18.9999C33.2814 20.5799 31.9114 21.8698 30.6514 22.6398C29.3214 23.4298 27.8514 23.93 26.3614 24.32C24.9914 24.62 23.5814 24.7098 22.1814 24.6098C20.9814 24.6498 19.5414 24.6299 18.2614 24.5199C16.7714 24.3799 13.9314 24.1 13.2614 22.56C12.6214 20.9 15.1514 19.0599 16.3314 18.2499C16.6114 18.0699 16.8814 17.8899 17.1714 17.7199L17.1314 17.7499C18.1814 16.7399 20.8814 14.1799 21.9014 13.2099L23.4914 11.6899C23.4914 11.6899 23.5114 11.6698 23.5214 11.6698C24.4614 11.0498 25.5114 10.5698 26.6214 10.3498C30.1514 9.59976 33.7114 12.1798 33.5914 15.8798L33.6214 15.8698Z" fill="#262F6A"/>
<path d="M9.58137 10.6099C8.81137 7.57985 9.54136 3.90986 10.4014 3.61986C11.4814 3.24986 14.0414 5.21985 15.3714 7.10985" fill="#FFAD40"/>
<path d="M15.3614 7.09984L14.2714 7.76L9.58138 10.6099C8.96138 8.18985 9.31136 5.3499 9.91136 4.1599C10.0614 3.8699 10.2214 3.66986 10.3914 3.61986C11.4614 3.24986 14.0314 5.21985 15.3614 7.10985V7.09984Z" fill="#FFAD40"/>
<path d="M14.2714 7.76012L9.58138 10.61C8.96138 8.18998 9.31136 5.35003 9.91136 4.16003C10.4614 4.14003 12.5614 4.45012 14.2714 7.76012Z" fill="#FF9343"/>
<path d="M9.58137 10.8001C9.50137 10.8001 9.42136 10.7399 9.40136 10.6599C8.64136 7.65994 9.31136 3.78997 10.3414 3.43997C11.5314 3.02997 14.1514 5.05002 15.5214 6.99002C15.5814 7.08002 15.5614 7.19003 15.4714 7.25003C15.3814 7.31003 15.2714 7.28998 15.2114 7.19998C13.8414 5.25998 11.3614 3.48006 10.4614 3.78006C10.1714 3.88006 9.77136 4.70988 9.57136 6.09988C9.35136 7.58988 9.43136 9.21008 9.77136 10.5501C9.80136 10.6501 9.73136 10.7501 9.63136 10.7801C9.61136 10.7801 9.60137 10.7801 9.58137 10.7801V10.8001Z" fill="#262F6A"/>
<path d="M10.5514 4.89987C10.8214 4.69987 11.6514 5.02997 12.5114 5.99997C13.0514 6.59997 13.4914 7.24989 13.5614 7.66989C12.9314 7.98989 11.4614 8.82999 9.99137 9.76999C9.64137 7.71999 10.1114 5.23988 10.5514 4.90988V4.89987Z" fill="#FFF3E9"/>
<path d="M13.5614 7.65988C12.9314 7.97988 11.4514 8.81998 9.99137 9.75998C9.99137 9.72998 9.98138 9.69989 9.97138 9.66989C9.88138 9.12989 9.85138 8.57 9.86138 8.03C9.88138 6.54 10.2114 5.18988 10.5314 4.90988C10.5314 4.90988 10.5414 4.90987 10.5514 4.89987C10.8214 4.69987 11.6514 5.02997 12.5114 5.99997C13.0514 6.59997 13.4914 7.24989 13.5614 7.66989V7.65988Z" fill="#FFF3E9"/>
<path d="M13.5614 7.65988C12.9314 7.97988 11.4514 8.81998 9.99136 9.75998C9.99136 9.72998 9.98137 9.69989 9.97137 9.66989C9.96137 9.59989 9.95136 9.52993 9.94136 9.45993C9.87136 8.99993 9.83137 8.51 9.81137 8.03C9.83137 8.03 9.85137 8.03 9.86137 8.03C10.2714 7.98 10.8914 7.77001 11.2114 7.04001C11.6214 6.12001 11.0014 5.35988 10.5314 4.90988C10.5314 4.90988 10.5414 4.90987 10.5514 4.89987C10.8214 4.69987 11.6514 5.02997 12.5114 5.99997C13.0514 6.59997 13.4914 7.24989 13.5614 7.66989V7.65988Z" fill="#F9D3B7"/>
<path d="M12.0614 8.69005C12.0614 8.69005 11.9914 8.69002 11.9614 8.66002C11.4714 8.35002 11.1914 8.07015 11.1214 7.80015C11.0414 7.50015 11.1214 7.31006 11.2114 7.21006C11.3314 7.06006 11.5214 7.00007 11.7114 6.97007C11.6414 6.85007 11.5914 6.70015 11.6014 6.55015C11.6114 6.45015 11.6614 6.30004 11.8314 6.18004C12.0814 6.00004 12.5914 6.04004 12.8914 6.18004C12.9214 6.19004 12.9414 6.21008 12.9614 6.23008C13.2814 6.63008 13.6714 7.18999 13.7514 7.62999C13.7614 7.70999 13.7214 7.80018 13.6514 7.83018C13.3014 8.01018 12.7414 8.32002 12.1514 8.66002C12.1214 8.68002 12.0914 8.69005 12.0514 8.69005H12.0614ZM11.9114 7.33995C11.7114 7.33995 11.5614 7.38005 11.5014 7.45006C11.4614 7.50005 11.4514 7.58005 11.4914 7.69005C11.5114 7.76005 11.6114 7.96011 12.0714 8.26011C12.5614 7.98011 13.0214 7.72015 13.3514 7.55015C13.2614 7.28015 13.0314 6.9101 12.7014 6.5001C12.4814 6.4101 12.1514 6.41008 12.0614 6.48008C11.9914 6.53008 11.9914 6.57018 11.9914 6.58018C11.9814 6.67018 12.0514 6.81008 12.2114 6.98008C12.2514 7.02008 12.3214 7.11007 12.2714 7.22007C12.2414 7.29007 12.1714 7.33018 12.0914 7.33018C12.0914 7.33018 12.0814 7.33018 12.0614 7.33018C12.0114 7.33018 11.9614 7.33018 11.9214 7.33018L11.9114 7.33995Z" fill="#262F6A"/>
<path d="M9.85136 10.0701L9.80136 9.79011C9.46136 7.78011 9.88136 5.16006 10.4314 4.74006C10.8514 4.43006 11.8014 4.90993 12.6514 5.85993C13.0214 6.26993 13.6414 7.04994 13.7514 7.61994L13.7714 7.76008L13.6514 7.82014C13.0814 8.11014 11.6114 8.93998 10.0914 9.90998L9.85136 10.0601V10.0701ZM10.6614 5.05012C10.3514 5.28012 9.85136 7.40002 10.1314 9.45002C11.4614 8.60002 12.7314 7.89014 13.3414 7.57014C13.2214 7.22014 12.8714 6.68995 12.3714 6.12995C11.5014 5.14995 10.7914 4.97013 10.6614 5.06013V5.05012Z" fill="#262F6A"/>
<path d="M13.5614 7.65996C13.2414 7.81996 12.7014 8.12005 12.0514 8.50005C11.7114 8.29005 11.3614 8.02006 11.2914 7.76006C11.0914 7.04006 12.0514 7.16997 12.0714 7.16997C12.1014 7.16997 11.5014 6.64989 11.9314 6.33989C12.1014 6.21989 12.5414 6.23991 12.8014 6.35991C13.1914 6.84991 13.4914 7.32997 13.5514 7.66997L13.5614 7.65996Z" fill="#F9D3B7"/>
<path d="M12.0614 8.71003L11.9614 8.64997C11.4714 8.34997 11.1914 8.07011 11.1214 7.80011C11.0414 7.50011 11.1214 7.31003 11.2114 7.21003C11.3314 7.06003 11.5314 7.00004 11.7114 6.97004C11.6414 6.85004 11.5814 6.7001 11.6014 6.5401C11.6114 6.4401 11.6614 6.28999 11.8314 6.16999C12.0814 5.99999 12.5914 6.02999 12.8914 6.16999L12.9314 6.19001L12.9614 6.22004C13.2814 6.62004 13.6714 7.17994 13.7514 7.61994L13.7714 7.76008L13.6514 7.82013C13.3014 8.00013 12.7414 8.30997 12.1514 8.64997L12.0514 8.71003H12.0614ZM11.9114 7.33991C11.7114 7.33991 11.5614 7.38002 11.5014 7.45002C11.4614 7.50002 11.4514 7.58002 11.4814 7.70002C11.5014 7.77002 11.6014 7.97009 12.0614 8.27009C12.5514 7.99009 13.0114 7.73012 13.3414 7.56012C13.2514 7.29012 13.0214 6.92007 12.6914 6.50007C12.4714 6.41007 12.1414 6.41005 12.0514 6.48005C11.9914 6.52005 11.9814 6.55991 11.9714 6.58991C11.9614 6.67991 12.0314 6.82007 12.1914 7.00007C12.2314 7.04007 12.3014 7.13006 12.2514 7.24006L12.2014 7.34992H12.0814C12.0814 7.34992 12.0714 7.34992 12.0514 7.34992C12.0014 7.34992 11.9514 7.34992 11.9114 7.34992V7.33991Z" fill="#262F6A"/>
<path d="M17.8414 7.08012C19.8614 4.79012 22.4514 3.28003 23.6014 3.74003C24.5114 4.10003 24.9714 7.30994 23.9214 12.6499" fill="#FFAD40"/>
<path d="M23.9314 12.65L17.8514 7.08989C17.8514 7.08989 17.8814 7.05008 17.9014 7.03008C19.9214 4.77008 22.4714 3.29004 23.6114 3.74004C23.7514 3.80004 23.8814 3.91991 24.0014 4.10991C24.6314 5.13991 24.8214 8.12995 23.9414 12.65H23.9314Z" fill="#FFAD40"/>
<path d="M23.9714 12.43C23.9614 12.5 23.9414 12.5699 23.9314 12.6399L22.0314 10.91L17.8414 7.08013C17.8414 7.08013 17.8714 7.04007 17.8914 7.02007C19.9114 4.76007 22.4614 3.28003 23.6014 3.73003C23.7414 3.79003 23.8714 3.9099 23.9914 4.0999C24.6114 5.1199 24.8014 8.02997 23.9614 12.42L23.9714 12.43Z" fill="#FFAD40"/>
<g opacity="0.5">
<path d="M23.9914 4.10991C23.9914 4.10991 23.9814 4.10991 23.9714 4.10991C22.8314 3.55991 20.1714 4.88993 18.2714 7.37993L17.8914 7.03008C19.9114 4.77008 22.4614 3.29004 23.6014 3.74004C23.7414 3.80004 23.8714 3.91991 23.9914 4.10991Z" fill="white"/>
</g>
<path d="M23.9714 12.43L22.0314 10.9099C21.7914 10.0499 21.5714 8.76007 21.8814 7.55007C22.3414 5.79007 23.0214 3.96989 23.9914 4.10989C24.6114 5.12989 24.8014 8.03996 23.9614 12.43H23.9714Z" fill="#FF9343"/>
<path d="M23.9314 12.8398C23.9314 12.8398 23.9114 12.8398 23.8914 12.8398C23.7914 12.8198 23.7214 12.7198 23.7414 12.6098C24.8114 7.15978 24.2514 4.19984 23.5314 3.91984C22.4714 3.49984 19.9314 5.00987 17.9814 7.20987C17.9114 7.28987 17.7914 7.29989 17.7114 7.22989C17.6314 7.15989 17.6214 7.03987 17.6914 6.95987C19.8014 4.56987 22.4314 3.07997 23.6714 3.55997C24.8714 4.02997 25.0514 7.86985 24.1114 12.6798C24.0914 12.7698 24.0114 12.8398 23.9214 12.8398H23.9314Z" fill="#262F6A"/>
<path d="M19.3414 6.8498C16.7614 5.9898 8.58137 5.07998 7.54137 15.29C7.38137 15.53 6.78138 16.7599 7.08138 18.4499C7.43138 20.4799 9.97138 23.6699 18.1714 23.1699C21.2714 22.8699 24.5814 21.8398 25.7014 18.6398C26.5114 15.9398 25.5314 12.0798 23.7914 9.60981C23.7914 9.60981 23.0714 8.7398 21.9314 8.0998C21.1214 7.6398 19.3514 6.85981 19.3514 6.85981L19.3414 6.8498Z" fill="#FFAD40"/>
<path d="M25.9714 17.0701C25.9314 17.6201 25.8514 18.1499 25.7014 18.6399C25.4214 19.4299 25.0214 20.0799 24.5114 20.6199C22.9614 22.2899 20.5114 22.9399 18.1714 23.1599C12.6514 23.4999 9.70138 22.1699 8.25138 20.6399C7.66138 20.0199 7.32136 19.37 7.16136 18.78C7.13136 18.66 7.10138 18.5499 7.08138 18.4399C6.87138 17.2599 7.10137 16.31 7.31137 15.76C7.34137 15.69 7.37138 15.6201 7.39138 15.5601C9.38138 15.4801 9.85137 16.94 11.3214 16.5C12.1614 16.24 12.4014 15.6399 13.7914 15.5999C15.6314 15.5399 16.4314 16.8699 18.0014 16.8899C19.7614 16.9099 19.6914 15.66 22.6914 15.73C24.0114 15.76 25.2514 16.2101 25.9714 17.0601V17.0701Z" fill="#FFF3E9"/>
<path d="M24.5114 20.6199C22.9614 22.2899 20.5114 22.9399 18.1714 23.1599C12.6514 23.4999 9.70137 22.1699 8.25137 20.6399C10.3914 21.8099 13.6914 22.6101 18.5914 22.3101C20.6414 22.1101 22.7814 21.6399 24.5014 20.6199H24.5114Z" fill="#F9D3B7"/>
<path d="M9.70137 17.4399C9.64137 18.2799 8.65137 18.9001 7.49137 18.8201C7.38137 18.8201 7.27136 18.8 7.16136 18.78C7.13136 18.66 7.10138 18.5499 7.08138 18.4399C6.87138 17.2599 7.10137 16.31 7.31137 15.76C7.44137 15.76 7.57137 15.76 7.70137 15.76C8.86137 15.84 9.76137 16.5899 9.70137 17.4399Z" fill="#FF8080"/>
<path d="M21.9154 19.3158C23.2676 19.2671 24.3367 18.4758 24.3034 17.5486C24.27 16.6214 23.1468 15.9092 21.7946 15.9578C20.4424 16.0065 19.3732 16.7975 19.4066 17.7247C19.4399 18.652 20.5631 19.3644 21.9154 19.3158Z" fill="#FF8080"/>
<path d="M19.3414 6.84997C12.6114 5.53997 8.46137 8.43017 7.74137 15.3102C7.74137 15.3402 7.72137 15.38 7.71137 15.4C7.63137 15.53 7.55137 15.7 7.49137 15.85C7.18137 16.67 7.12138 17.5801 7.28138 18.4501C7.48138 19.4901 8.14138 20.3902 8.97138 21.0402C11.4914 22.9902 15.2314 23.1601 18.3014 22.9601C21.0614 22.7001 24.2514 21.69 25.3914 18.92C25.8014 17.93 25.8314 16.8301 25.7514 15.7701C25.5814 13.6001 24.7714 11.54 23.7814 9.60998C24.8014 10.7 25.4014 12.1102 25.7914 13.5402C27.3514 19.6302 24.2714 22.74 18.3414 23.34C15.1614 23.55 11.3514 23.36 8.73137 21.34C7.85137 20.64 7.11137 19.6601 6.90137 18.5201C6.71137 17.4901 6.80137 16.4001 7.23137 15.4401C7.28137 15.3501 7.31137 15.26 7.38137 15.17L7.35137 15.2601C7.56137 13.1201 8.13138 10.92 9.47138 9.18004C10.7914 7.41004 12.9314 6.37007 15.1114 6.21007C16.5414 6.09007 18.0314 6.24996 19.3514 6.83996L19.3414 6.84997Z" fill="#262F6A"/>
<path d="M23.3614 4.51006C22.5614 4.41006 20.6614 6.01996 20.3814 6.89996C20.1614 7.56996 21.4814 7.50998 23.5014 9.16998C24.1214 7.65998 23.7114 4.55006 23.3614 4.51006Z" fill="#FFF3E9"/>
<path d="M23.5014 9.16998C23.5014 9.16998 23.4814 9.14996 23.4714 9.14996C21.4714 7.51996 20.1614 7.56996 20.3814 6.89996C20.6614 6.01996 22.5614 4.41006 23.3614 4.51006C23.4014 4.51006 23.4514 4.56998 23.4914 4.66998C23.7914 5.32998 24.0414 7.85998 23.4914 9.16998H23.5014Z" fill="#FFF3E9"/>
<path d="M23.5714 8.83013C23.5414 8.94013 23.5114 9.04996 23.4714 9.14996C21.4714 7.51996 20.1614 7.56996 20.3814 6.89996C20.6614 6.01996 22.5614 4.41006 23.3614 4.51006C23.4014 4.51006 23.4514 4.56998 23.4914 4.66998C23.5214 4.74998 23.5414 4.80991 23.5514 4.84991C23.0214 4.99991 22.1614 5.39009 22.0414 6.29009C21.8814 7.48009 22.9914 7.86013 23.5614 8.83013H23.5714Z" fill="#F9D3B7"/>
<path d="M23.5014 9.35997C23.5014 9.35997 23.4114 9.35018 23.3814 9.32018C22.4314 8.54018 21.6614 8.15998 21.0914 7.86998C20.4814 7.56998 20.0314 7.34995 20.2014 6.83995C20.3714 6.29995 21.0114 5.64005 21.5614 5.19005C21.9114 4.90005 22.7914 4.25018 23.3914 4.32018C23.4914 4.33018 23.5714 4.40012 23.6314 4.51012C23.9614 5.07012 24.2714 7.8101 23.6814 9.2401C23.6614 9.3001 23.6114 9.33996 23.5514 9.34996C23.5314 9.34996 23.5214 9.34996 23.5014 9.34996V9.35997ZM23.2814 4.69005C22.5814 4.69005 20.8214 6.13006 20.5614 6.95006C20.5114 7.12006 20.6014 7.20014 21.2614 7.53014C21.7714 7.78014 22.5214 8.15996 23.4114 8.84996C23.5914 8.24996 23.6714 7.40006 23.6114 6.45006C23.5514 5.44006 23.3814 4.82005 23.2914 4.69005C23.2914 4.69005 23.2914 4.69005 23.2814 4.69005Z" fill="#262F6A"/>
<path d="M23.5014 9.35987C23.5014 9.35987 23.4114 9.35007 23.3814 9.32007C22.5914 8.67007 21.9014 8.29003 21.3914 8.03003C21.2814 7.98003 21.1814 7.92988 21.0914 7.87988C20.4814 7.56988 20.0314 7.34986 20.2014 6.84986C20.2714 6.61986 20.4314 6.36006 20.6814 6.06006C21.3114 5.30006 22.6414 4.24008 23.3814 4.33008C23.4814 4.34008 23.5614 4.41002 23.6214 4.52002C23.9514 5.08002 24.2614 7.82 23.6714 9.25C23.6514 9.31 23.6014 9.34986 23.5414 9.35987C23.5214 9.35987 23.5114 9.35987 23.4914 9.35987H23.5014ZM23.2814 4.68994C22.7714 4.68994 21.6614 5.46004 20.9714 6.29004C20.7614 6.55004 20.6214 6.77995 20.5614 6.94995C20.5114 7.11995 20.6014 7.20003 21.2614 7.53003C21.3514 7.58003 21.4514 7.62993 21.5614 7.67993C22.0414 7.92993 22.6714 8.27986 23.4014 8.84986C23.5814 8.24986 23.6614 7.39995 23.6014 6.44995C23.5414 5.43995 23.3714 4.81994 23.2814 4.68994C23.2814 4.68994 23.2814 4.68994 23.2714 4.68994H23.2814Z" fill="#262F6A"/>
<path d="M22.0814 7.55007C22.0714 7.78007 21.8614 7.89999 21.6714 7.95999C21.6314 7.96999 21.6114 7.99002 21.6014 7.99002C21.5414 8.04002 21.4514 8.05005 21.3914 8.02005C21.1214 7.88005 20.8314 7.74987 20.5714 7.58987C20.3414 7.45987 20.1114 7.21994 20.1814 6.90994C20.2614 6.57994 20.4814 6.30006 20.6814 6.04006C20.7114 6.01006 20.7414 5.99001 20.7714 5.98001C21.0514 5.91001 21.3214 5.86004 21.6114 6.01004C21.8314 6.14004 21.9714 6.45997 21.8314 6.68997C21.7014 6.90997 21.4414 6.98007 21.2314 7.05007C21.2714 7.03007 21.2914 6.94993 21.2414 6.89993C21.5614 7.01993 22.1114 7.08006 22.0914 7.54006L22.0814 7.55007ZM21.6914 7.52005C21.6914 7.52005 21.6714 7.4199 21.6214 7.3699C21.5114 7.2399 21.3214 7.1501 21.1614 7.0801C21.1414 7.0801 21.1214 7.06006 21.1014 7.04006C21.0614 6.99006 21.0914 6.91993 21.1314 6.89993C21.1414 6.89993 21.2214 6.85989 21.2414 6.85989C21.3914 6.79989 21.6114 6.67003 21.5614 6.50003C21.4914 6.35003 21.3514 6.3301 21.1814 6.3301C21.0814 6.3301 20.9814 6.3399 20.8814 6.3699L20.9814 6.31008C20.8114 6.53008 20.6314 6.74004 20.5614 7.01004C20.5114 7.19004 20.8914 7.34996 21.0314 7.42996C21.2114 7.51996 21.3914 7.60998 21.5714 7.69998L21.3614 7.73001C21.4714 7.63001 21.6014 7.62007 21.7014 7.55007C21.7014 7.55007 21.7014 7.55006 21.7014 7.54006L21.6914 7.52005Z" fill="#262F6A"/>
<path d="M12.7914 16.08C12.7914 16.4 13.1314 16.6798 13.4014 16.8598C13.5914 16.9798 13.8214 16.9898 14.0114 16.8698C14.2914 16.7098 14.6414 16.4298 14.6514 16.1198C14.6614 15.6098 12.8014 15.57 12.7914 16.08Z" fill="#262F6A"/>
<g opacity="0.35">
<path d="M13.2314 15.9801C13.2314 16.0401 13.3614 16.09 13.4614 16.13C13.5314 16.15 13.6214 16.15 13.6914 16.13C13.7914 16.1 13.9214 16.0501 13.9214 15.9901C13.9214 15.8901 13.2314 15.8801 13.2314 15.9801Z" fill="white"/>
</g>
<path d="M13.1814 18.28C13.8014 18.53 14.5114 18.6398 15.1414 18.3898C15.5014 18.2398 15.7914 17.9999 16.0614 17.7099C16.1314 17.6299 16.2514 17.6299 16.3314 17.7099C16.4014 17.7699 16.4114 17.8799 16.3614 17.9499C15.6214 19.0599 14.1714 19.09 13.1914 18.28H13.1814Z" fill="#262F6A"/>
<path d="M15.3014 18.5601C15.3014 18.5601 16.2814 18.45 16.3714 17.74C16.4714 16.96 15.6514 16.6501 15.2814 17.0501C14.8014 17.5701 15.8014 18.2201 15.3014 18.5501V18.5601Z" fill="#F27E80"/>
<g opacity="0.7">
<path d="M15.3014 18.5602C15.3014 18.5602 15.4314 18.5501 15.6014 18.4901C15.6014 18.4301 15.5814 18.3601 15.5514 18.3001C15.4214 17.9801 15.1314 17.6001 15.4414 17.2701C15.6714 17.0201 16.0614 17.0401 16.3114 17.2701C16.1114 16.8501 15.5714 16.7401 15.2814 17.0501C14.9814 17.3801 15.2614 17.7602 15.3914 18.0802C15.4614 18.2602 15.4814 18.4301 15.3014 18.5501V18.5602Z" fill="white"/>
</g>
<path d="M15.3014 18.5601C15.3014 18.5601 16.2814 18.45 16.3714 17.74C16.3814 17.62 16.3714 17.5099 16.3614 17.4199C16.3614 17.4199 16.2914 17.8899 15.8814 17.6499C15.8814 17.6499 15.9114 18.0998 15.3914 18.0898C15.4614 18.2698 15.4814 18.4401 15.3014 18.5601Z" fill="#FF5C64"/>
<path d="M15.3014 18.6999C15.2414 18.6999 15.1914 18.6598 15.1714 18.6098C15.1514 18.5498 15.1714 18.4799 15.2214 18.4399C15.3414 18.3599 15.3214 18.2599 15.1814 17.9599C15.0514 17.6799 14.8614 17.2999 15.1814 16.9599C15.3914 16.7299 15.7314 16.67 16.0414 16.81C16.3114 16.94 16.5914 17.2499 16.5214 17.7599C16.4214 18.5699 15.3714 18.6899 15.3314 18.6999C15.3314 18.6999 15.3214 18.6999 15.3114 18.6999H15.3014ZM15.6914 17.0199C15.5714 17.0199 15.4614 17.0598 15.3814 17.1498C15.2114 17.3298 15.2914 17.5298 15.4314 17.8398C15.5014 17.9898 15.5914 18.1798 15.5814 18.3498C15.8414 18.2698 16.1814 18.0899 16.2314 17.7299C16.2714 17.4299 16.1514 17.18 15.9114 17.07C15.8414 17.04 15.7614 17.0199 15.6914 17.0199Z" fill="#262F6A"/>
<path d="M15.7614 17.48C16.0114 17.73 16.1014 18.1299 15.8314 18.4099L15.7714 18.47C15.7014 18.52 15.6014 18.6601 15.5114 18.5601C15.4714 18.5101 15.4914 18.4399 15.5514 18.4099C15.9714 18.2099 16.0114 17.85 15.7614 17.48Z" fill="#262F6A"/>
<path d="M13.4314 16.6299C13.5114 17.0599 13.8514 17.47 13.8914 17.47C13.9214 17.47 13.8714 16.9299 14.0114 16.5999" fill="#262F6A"/>
<path d="M19.6214 11.06C19.6214 11.06 18.4914 9.38988 17.7414 9.68988C16.9914 9.98988 17.0814 10.82 17.5314 11.07C18.1814 11.43 19.6214 11.07 19.6214 11.07V11.06Z" fill="#FFF3E9"/>
<path d="M9.82137 10.8998C9.82137 10.8998 10.6514 9.33996 11.3414 9.52996C12.0314 9.71996 12.0214 10.4599 11.6514 10.7199C11.1214 11.0999 9.82137 10.9098 9.82137 10.9098V10.8998Z" fill="#FFF3E9"/>
<path d="M19.7532 15.0366C19.8145 14.0112 19.1448 13.1369 18.2572 13.0838C17.3696 13.0308 16.6003 13.8191 16.539 14.8445C16.4777 15.8699 17.1477 16.7442 18.0353 16.7972C18.9229 16.8503 19.692 16.062 19.7532 15.0366Z" fill="#262F6A"/>
<path d="M18.376 15.4708C18.398 15.1015 18.179 14.7879 17.8868 14.7704C17.5946 14.753 17.3399 15.0382 17.3178 15.4076C17.2957 15.777 17.5147 16.0906 17.8069 16.108C18.0991 16.1255 18.3539 15.8402 18.376 15.4708Z" fill="white"/>
<g opacity="0.2">
<path d="M19.0113 14.395C19.0261 14.1469 18.9085 13.938 18.7486 13.9285C18.5888 13.9189 18.4471 14.1123 18.4323 14.3604C18.4174 14.6085 18.5351 14.8173 18.6949 14.8269C18.8548 14.8364 18.9965 14.6431 19.0113 14.395Z" fill="white"/>
</g>
<path d="M12.2187 14.7836C12.277 13.8078 11.6407 12.9759 10.7973 12.9255C9.95377 12.8751 9.22268 13.6253 9.16437 14.6011C9.10605 15.5769 9.74259 16.4088 10.5861 16.4592C11.4296 16.5096 12.1604 15.7594 12.2187 14.7836Z" fill="#262F6A"/>
<path d="M10.9026 15.1898C10.9234 14.8425 10.7167 14.5476 10.4411 14.5311C10.1654 14.5146 9.92515 14.7828 9.90439 15.1302C9.88363 15.4775 10.0903 15.7724 10.3659 15.7889C10.6416 15.8053 10.8819 15.5371 10.9026 15.1898Z" fill="white"/>
<g opacity="0.2">
<path d="M11.5249 14.1879C11.5391 13.9509 11.4254 13.7512 11.271 13.742C11.1167 13.7328 10.98 13.9175 10.9659 14.1545C10.9517 14.3916 11.0654 14.5912 11.2197 14.6004C11.3741 14.6097 11.5108 14.425 11.5249 14.1879Z" fill="white"/>
</g>
<path d="M2.36137 19.47C4.97137 15.93 7.58136 12.3999 10.1914 8.85986C15.6614 11.6599 21.1314 14.45 26.6014 17.25C22.4414 20.21 18.2814 23.1599 14.1214 26.1199L5.44136 26.52L2.36137 19.47Z" fill="url(#paint0_linear_16_6611)" fill-opacity="0.5"/>
<path d="M11.3114 26.32L5.06137 26.57L3.74136 26.6198C3.24136 26.6398 2.79137 26.3799 2.56137 25.9699C2.53137 25.9199 2.50137 25.86 2.48137 25.8L0.281372 19.8898C0.0713717 19.3198 0.471364 18.6998 1.10136 18.6298L7.92137 17.8498C8.75137 17.7498 9.55136 18.2199 9.85136 18.9699L12.2414 24.9699C12.4914 25.5999 12.0214 26.28 11.3214 26.31L11.3114 26.32Z" fill="#B0BAC6"/>
<path d="M9.65137 18.6C9.27137 18.29 8.76136 18.1301 8.24136 18.1901L1.42137 18.9701C0.791371 19.0401 0.391364 19.6601 0.601364 20.2301L2.80136 26.14C2.83136 26.22 2.87136 26.29 2.91136 26.36C2.72136 26.22 2.57137 26.0302 2.48137 25.8002L0.281372 19.89C0.0713717 19.32 0.471364 18.7 1.10136 18.63L7.92137 17.85C8.61137 17.77 9.27137 18.07 9.65137 18.6Z" fill="#FFF3E9"/>
<path d="M21.0114 27.03L13.0514 27.3799L12.3514 27.4099L4.73137 27.74C4.51137 27.74 4.31137 27.6199 4.25137 27.4199L4.17137 27.1899C4.07137 26.8999 4.29137 26.6001 4.61137 26.5801L12.3014 26.28L13.0014 26.25H13.0114L20.9714 25.9399C21.0914 25.9399 21.1914 25.97 21.2814 26.03C21.4114 26.12 21.4914 26.2699 21.4714 26.4399V26.5999C21.4414 26.8399 21.2414 27.02 21.0014 27.03H21.0114Z" fill="#B0BAC6"/>
<path d="M13.0114 26.25L12.3114 26.28C11.9914 26.29 11.7414 26.5499 11.7414 26.8499C11.7414 27.1699 12.0214 27.4199 12.3514 27.4099L13.0514 27.3799" fill="#B0BAC6"/>
<path d="M4.71137 27.95C4.41137 27.95 4.14137 27.76 4.05137 27.48L3.97138 27.25C3.90138 27.05 3.94138 26.8399 4.06138 26.6599C4.19138 26.4799 4.39138 26.3699 4.61138 26.3599L20.9814 25.71C21.1814 25.71 21.3814 25.7799 21.5214 25.9199C21.6514 26.0599 21.7214 26.2499 21.7114 26.4299V26.5898C21.6714 26.9298 21.3814 27.2 21.0314 27.22L4.75138 27.9299C4.75138 27.9299 4.73138 27.9299 4.72138 27.9299L4.71137 27.95ZM21.0114 26.1499C21.0114 26.1499 21.0114 26.1499 21.0014 26.1499L4.63137 26.8C4.54137 26.8 4.46137 26.8499 4.41137 26.9199C4.38137 26.9599 4.35137 27.0299 4.38137 27.1299L4.46137 27.3599C4.50137 27.4699 4.61138 27.54 4.73138 27.54L21.0114 26.8301C21.1514 26.8301 21.2614 26.7199 21.2714 26.5999V26.4399H21.2814C21.2814 26.3699 21.2614 26.31 21.2114 26.26C21.1614 26.21 21.0914 26.1799 21.0114 26.1799V26.1499Z" fill="#262F6A"/>
<path d="M12.3314 27.6199C12.1214 27.6199 11.9214 27.5399 11.7714 27.3999C11.6214 27.2499 11.5314 27.0599 11.5314 26.8499C11.5314 26.4299 11.8614 26.0801 12.3014 26.0601L13.0014 26.03C13.1214 26.03 13.2214 26.12 13.2214 26.24C13.2214 26.36 13.1314 26.46 13.0114 26.46L12.3114 26.49C12.1114 26.49 11.9514 26.6498 11.9514 26.8398C11.9514 26.9298 11.9914 27.0201 12.0614 27.0801C12.1414 27.1501 12.2414 27.1899 12.3414 27.1799L13.0414 27.1499C13.1614 27.1499 13.2614 27.2399 13.2614 27.3499C13.2614 27.4699 13.1714 27.5701 13.0614 27.5701L12.3614 27.5999C12.3614 27.5999 12.3414 27.5999 12.3214 27.5999L12.3314 27.6199Z" fill="#262F6A"/>
<g opacity="0.25">
<path d="M21.0114 27.03L13.0514 27.3799L12.3514 27.4099C12.0214 27.4199 11.7414 27.1699 11.7414 26.8499C11.7414 26.8199 11.7414 26.79 11.7414 26.76C11.7814 26.5 12.0114 26.29 12.3014 26.28L13.0014 26.25H13.0114L21.2814 26.03C21.4114 26.12 21.4914 26.2699 21.4714 26.4399V26.5999C21.4414 26.8399 21.2414 27.02 21.0014 27.03H21.0114Z" fill="#262F6A"/>
</g>
<path d="M3.68137 26.83C3.05137 26.83 2.49137 26.4498 2.27137 25.8698L0.0713704 19.9599C-0.0486296 19.6299 -0.0186235 19.2699 0.171376 18.9699C0.361376 18.6599 0.691376 18.4499 1.06138 18.4099L7.88137 17.6299C8.81137 17.5199 9.70138 18.0399 10.0314 18.8799L12.4214 24.8899C12.5614 25.2499 12.5214 25.6399 12.3114 25.9599C12.0914 26.2999 11.7214 26.51 11.3114 26.52C11.1914 26.52 11.0914 26.43 11.0914 26.31C11.0914 26.19 11.1814 26.0898 11.3014 26.0898C11.5814 26.0798 11.8214 25.9399 11.9614 25.7199C12.0914 25.5099 12.1214 25.27 12.0314 25.04L9.64138 19.03C9.38138 18.37 8.67137 17.96 7.94137 18.05L1.12137 18.83C0.881373 18.86 0.671372 18.9899 0.541372 19.1899C0.431372 19.3799 0.401374 19.6 0.481374 19.8L2.68137 25.7099C2.84137 26.1299 3.26137 26.3999 3.73137 26.3899L5.05137 26.3398C5.17137 26.3398 5.27137 26.43 5.27137 26.55C5.27137 26.67 5.18138 26.77 5.06138 26.77L3.74137 26.82C3.74137 26.82 3.70137 26.82 3.68137 26.82V26.83Z" fill="#262F6A"/>
<path d="M5.29137 18.81C5.98137 18.62 6.68137 18.5299 7.39137 18.4499C8.07137 18.3199 8.81136 18.6099 9.19136 19.1899C9.40136 19.5199 9.52136 19.94 9.66136 20.31C9.78136 20.67 9.90137 21.0699 9.97137 21.4399C9.97137 21.4499 9.97136 21.4599 9.96136 21.4599H9.94136L9.60136 20.7699L9.27136 20.07C9.17136 19.87 9.05137 19.5698 8.92137 19.3898C8.62137 18.9798 8.12137 18.7399 7.62137 18.7499C7.51137 18.7499 7.35136 18.7699 7.24136 18.7699C6.60136 18.7999 5.95137 18.8198 5.31137 18.8398C5.31137 18.8398 5.29137 18.84 5.29137 18.82C5.29137 18.82 5.29137 18.8 5.31137 18.8L5.29137 18.81Z" fill="#262F6A"/>
<g opacity="0.25">
<path d="M11.3114 26.3201L5.06137 26.5701L3.74136 26.6199C3.24136 26.6399 2.79137 26.38 2.56137 25.97C10.4214 25.35 9.86136 19.08 9.85136 18.97L12.2414 24.97C12.4914 25.6 12.0214 26.2801 11.3214 26.3101L11.3114 26.3201Z" fill="#262F6A"/>
</g>
<path d="M5.22662 23.512C5.61183 23.3754 5.79691 22.9059 5.64005 22.4635C5.48319 22.021 5.04381 21.7732 4.65861 21.9097C4.27341 22.0463 4.08824 22.5155 4.2451 22.958C4.40196 23.4005 4.84142 23.6485 5.22662 23.512Z" fill="white"/>
<path d="M26.8114 23.4799C25.6714 26.2099 23.8214 27.5799 22.1114 27.4199C21.2614 27.3399 20.6914 26.9199 20.3014 26.4399C20.0914 26.1799 19.9214 25.8998 19.7914 25.6498C19.4114 24.9198 18.8214 22.9198 19.3114 21.8698C19.6314 21.1898 20.3014 20.8 20.3014 20.8C20.3014 20.8 20.1814 19.1 22.0814 19.05C22.5514 18.89 23.7814 18.35 24.1314 19.76C24.2214 20.15 24.2014 20.6599 24.0914 20.9499C23.8614 21.5999 23.1614 22.1999 23.1614 22.1999L23.7714 23.76L26.3914 23.51L26.8114 23.4699V23.4799Z" fill="#FFAD40"/>
<g opacity="0.3">
<path d="M20.6514 20.77C20.6514 20.77 20.6214 20.2001 20.9814 19.8101C21.2214 19.5501 21.6014 19.4099 22.0914 19.3899H22.1414L22.1914 19.3699C22.2214 19.3599 22.2514 19.3498 22.2914 19.3398C22.4914 19.2698 22.8014 19.1599 23.0814 19.1599C23.3614 19.1599 23.6414 19.2399 23.7914 19.8499C23.7914 19.8499 23.4414 19.07 22.3014 19.75C20.9114 19.63 20.6514 20.78 20.6514 20.78V20.77Z" fill="white"/>
</g>
<path d="M23.5214 21.3799C23.7514 21.4199 23.4014 21.89 22.9114 22.21C22.3814 22.5599 21.4114 22.67 21.2314 22.47C21.1514 22.38 21.1014 21.9799 21.8714 21.6299C22.1914 21.4899 22.9514 21.2699 23.5314 21.3799H23.5214Z" fill="#FF9343"/>
<path d="M22.5214 21.96C22.7614 21.99 23.4514 23.0899 22.7414 23.4099C21.8014 23.8499 21.2014 22.6799 21.1814 22.3899C21.1614 22.1599 21.7114 21.86 22.5214 21.96Z" fill="#FF9343"/>
<path d="M26.8114 23.48C25.6714 26.21 23.8214 27.5799 22.1114 27.4199C21.5914 27.3699 21.1814 27.2 20.8514 26.96C21.3014 26.4 22.3714 26.7301 23.3514 26.5701C25.1614 26.2701 26.3914 23.53 26.3914 23.53L26.8114 23.49V23.48Z" fill="#FF9343"/>
<path d="M23.7714 23.7699L23.0014 22.2699C22.9614 22.1899 23.0014 22.13 23.0514 22.07C23.4214 21.72 23.8014 21.3 23.9514 20.81C24.0214 20.52 24.0314 20.1898 23.9814 19.8898C23.7714 18.7898 23.0114 18.8699 22.1414 19.2099C22.1214 19.2099 22.1114 19.2099 22.0914 19.2099C21.8714 19.2099 21.6514 19.25 21.4514 19.31C20.8714 19.48 20.5214 20.0198 20.4914 20.6098C20.4914 20.6598 20.4914 20.7199 20.4914 20.7599C20.5014 20.9199 20.3314 20.96 20.2314 21.05C19.8414 21.36 19.4914 21.7599 19.4014 22.2599C19.2214 23.2199 19.5414 24.43 19.9114 25.32C20.2114 25.98 20.6514 26.6199 21.3114 26.9399C22.0914 27.3299 23.0614 27.22 23.8314 26.83C24.6414 26.42 25.2914 25.7499 25.8014 24.9999C26.1514 24.4899 26.4614 23.9599 26.8314 23.4499C26.5814 24.7099 25.7914 25.8098 24.8314 26.6398C24.0814 27.2698 23.1014 27.6898 22.1014 27.5998C20.6714 27.4898 19.7714 26.32 19.3414 25.04C19.0414 24.12 18.8214 23.1398 19.0114 22.1598C19.1614 21.4898 19.6614 20.9498 20.2414 20.6098L20.1514 20.7799C20.1514 20.7799 20.1514 20.7098 20.1514 20.6798C20.1514 19.9098 20.6014 19.1999 21.3614 18.9699C21.6014 18.8899 21.8614 18.8498 22.1014 18.8498H22.0514C23.1314 18.4298 24.0814 18.48 24.3514 19.81C24.4314 20.29 24.4114 20.7999 24.1914 21.2299C23.9714 21.6599 23.6714 22 23.3114 22.32L23.3614 22.1198L23.8014 23.7499L23.7714 23.7699Z" fill="#262F6A"/>
<path d="M21.5414 22.6299C21.9614 22.5799 22.3614 22.46 22.7314 22.26C22.8414 22.2 22.9714 22.13 23.0714 22.05L23.2614 22.3499C22.7214 22.5899 22.1314 22.6799 21.5414 22.6299Z" fill="#262F6A"/>
<defs>
<linearGradient id="paint0_linear_16_6611" x1="18.3416" y1="13.4612" x2="7.7894" y2="24.4253" gradientUnits="userSpaceOnUse">
<stop stop-color="white"/>
<stop offset="1" stop-color="#FCEE21"/>
</linearGradient>
</defs>
</svg>
