<svg width="35" height="34" viewBox="0 0 35 34" fill="none" xmlns="http://www.w3.org/2000/svg">
<path d="M30.893 12.8608C30.673 12.8608 29.543 12.1709 29.543 12.1709C29.543 12.1709 30.483 11.201 29.763 9.83103C29.753 9.80103 29.733 9.78095 29.723 9.75095C28.893 8.39095 24.693 7.02109 23.673 4.39109C22.623 1.71109 24.073 0.33095 25.063 0.25095C26.043 0.17095 26.693 0.500989 27.623 2.54099C28.013 3.40099 28.773 4.12083 29.563 4.88083C30.653 5.93083 31.803 7.04109 32.113 8.64109C32.633 11.4011 31.123 12.8608 30.903 12.8608H30.893Z" fill="white"/>
<path d="M30.893 12.8608C30.673 12.8608 29.543 12.1709 29.543 12.1709C29.543 12.1709 30.483 11.2011 29.763 9.83105C29.753 9.80105 29.733 9.78098 29.723 9.75098C29.913 9.80098 30.103 9.81102 30.273 9.79102C31.483 9.62102 31.403 8.16088 29.773 5.65088C29.513 5.25088 29.463 5.00111 29.563 4.89111C30.653 5.94111 31.803 7.05088 32.113 8.65088C32.633 11.4109 31.123 12.8711 30.903 12.8711L30.893 12.8608Z" fill="#DAE1F2"/>
<path d="M30.893 13.121C30.653 13.121 29.953 12.721 29.413 12.391C29.343 12.351 29.303 12.2808 29.293 12.2108C29.293 12.1308 29.313 12.0609 29.363 12.0009C29.403 11.9609 30.163 11.1411 29.543 9.95105C29.283 9.45105 28.393 8.89089 27.443 8.29089C25.943 7.34089 24.083 6.16109 23.433 4.49109C22.913 3.16109 22.933 1.94091 23.483 1.06091C23.853 0.460914 24.453 0.0606212 25.043 0.0106212C26.283 -0.0893788 26.973 0.501051 27.853 2.45105C28.223 3.26105 28.953 3.9608 29.723 4.6908C30.863 5.7808 32.043 6.91095 32.363 8.60095C32.803 10.911 31.843 12.291 31.533 12.661C31.363 12.871 31.113 13.121 30.903 13.121H30.893ZM29.913 12.101C30.303 12.331 30.713 12.551 30.863 12.601C31.133 12.411 32.313 11.1008 31.853 8.6908C31.563 7.1608 30.443 6.09066 29.363 5.05066C28.553 4.28066 27.793 3.54076 27.383 2.65076C26.433 0.560758 25.823 0.440621 25.073 0.510621C24.753 0.540621 24.253 0.77068 23.903 1.32068C23.443 2.07068 23.433 3.13066 23.903 4.30066C24.493 5.82066 26.283 6.95072 27.713 7.86072C28.763 8.52072 29.663 9.10082 29.983 9.71082C30.513 10.7208 30.233 11.611 29.913 12.101Z" fill="#000072"/>
<path d="M19.583 12.0507C19.583 12.0507 24.103 8.92095 28.773 11.0209C33.443 13.1209 33.703 19.3312 31.643 22.2412C29.583 25.1512 20.163 18.8709 19.143 17.4609C18.123 16.0509 19.583 12.0507 19.583 12.0507Z" fill="white"/>
<path d="M25.053 18.6611C25.053 18.6611 25.843 17.0111 28.533 17.4711C31.223 17.9311 31.513 22.0011 31.213 22.6611C30.923 23.3311 25.053 18.6611 25.053 18.6611Z" fill="#DAE1F2"/>
<path d="M29.853 23.2508C27.793 23.2508 24.923 21.7707 23.393 20.8807C21.373 19.7107 19.423 18.2709 18.933 17.6009C17.853 16.1009 19.283 12.1208 19.343 11.9608C19.363 11.9108 19.393 11.8707 19.433 11.8407C19.483 11.8107 20.613 11.0308 22.343 10.5008C23.943 10.0108 26.383 9.67063 28.863 10.7806C30.803 11.6506 32.203 13.3309 32.793 15.5209C33.443 17.9009 33.053 20.6507 31.833 22.3807C31.433 22.9507 30.763 23.2408 29.853 23.2508C29.853 23.2508 29.843 23.2508 29.833 23.2508H29.853ZM19.793 12.2211C19.393 13.3611 18.593 16.2807 19.353 17.3207C19.743 17.8507 21.563 19.2408 23.653 20.4608C25.133 21.3208 27.913 22.7606 29.853 22.7606C29.853 22.7606 29.863 22.7606 29.873 22.7606C30.613 22.7606 31.133 22.5407 31.443 22.1107C32.583 20.5007 32.943 17.9108 32.333 15.6708C31.943 14.2308 30.993 12.3006 28.683 11.2606C26.343 10.2106 24.043 10.5408 22.533 11.0008C21.103 11.4308 20.073 12.0608 19.813 12.2308L19.793 12.2211Z" fill="#000072"/>
<path d="M33.223 26.4713C33.223 26.4713 33.223 27.111 32.773 27.961C32.073 29.301 30.303 31.1509 25.783 31.8009C25.333 31.8609 24.863 31.921 24.363 31.961C13.523 32.821 5.90298 27.2109 5.44298 26.8609C5.42298 26.8509 5.42298 26.8409 5.42298 26.8409C5.42298 26.8409 3.12297 28.051 1.73297 27.651C0.542973 27.311 0.0229824 26.4813 0.382982 25.7213C0.442982 25.5913 0.532977 25.4609 0.642977 25.3409C1.41298 24.4909 2.14297 22.751 1.87297 21.941C1.59297 21.131 0.552979 19.2611 1.08298 18.2711C1.62298 17.2811 2.35298 16.951 3.44298 17.941C4.38298 18.801 5.44297 20.5811 5.71297 21.0611C5.71297 21.0611 5.71297 21.0609 5.73297 21.0909C5.75297 21.1209 5.76298 21.1412 5.77298 21.1612C5.77298 21.1812 5.78298 21.191 5.78298 21.191C5.84298 21.171 7.33297 20.7213 10.433 19.9713C13.593 19.2013 24.813 18.0311 27.863 19.0411C28.143 19.1311 28.413 19.2411 28.673 19.3511C31.333 20.5411 33.333 23.061 33.233 26.481L33.223 26.4713Z" fill="#42A5E8"/>
<path d="M33.223 26.4713C33.223 26.4713 33.183 29.8312 28.033 31.3312C27.903 31.3712 27.773 31.401 27.643 31.421C26.033 31.731 24.373 31.1111 23.403 29.7711C23.173 29.4611 22.973 29.1211 22.793 28.7711C21.933 27.0611 21.663 24.911 22.603 22.881C24.803 18.131 28.693 19.341 28.693 19.341C31.333 20.531 33.313 23.0513 33.213 26.4713H33.223Z" fill="#E3FBFF"/>
<path d="M5.26298 24.231C5.26298 24.511 5.47299 24.7513 5.69299 24.9913C6.12298 25.4613 6.60299 25.9111 5.77299 26.6011C5.66299 26.6911 5.55298 26.7709 5.43298 26.8609C5.41298 26.8509 5.41299 26.8409 5.41299 26.8409C5.41299 26.8409 3.11298 28.051 1.72298 27.651C1.16298 27.491 0.752977 27.221 0.512977 26.901C0.302977 26.621 0.222981 26.301 0.282981 25.981C0.282981 25.961 0.282976 25.9412 0.292976 25.9312C0.292976 25.9112 0.29298 25.8909 0.31298 25.8809C0.32298 25.8409 0.332973 25.8111 0.352973 25.7711C0.352973 25.7511 0.362978 25.7413 0.372978 25.7213C0.432978 25.5913 0.522987 25.4609 0.632987 25.3409C1.40299 24.4909 2.13298 22.751 1.86298 21.941C1.58298 21.131 0.542975 19.2611 1.07297 18.2711C1.61297 17.2811 2.34298 16.951 3.43298 17.941C4.37298 18.801 5.43298 20.5811 5.70298 21.0611C5.70298 21.0611 5.70298 21.0609 5.72298 21.0909C5.72298 21.1109 5.74298 21.1312 5.76298 21.1612C5.76298 21.1612 5.76298 21.181 5.78298 21.191C5.95298 21.491 6.38298 22.2812 6.40298 22.7012C6.43298 23.2312 5.25299 23.381 5.27299 24.251L5.26298 24.231Z" fill="#E3FBFF"/>
<path d="M27.643 31.421C27.083 31.571 26.453 31.6911 25.773 31.7911C25.323 31.8511 24.853 31.9113 24.353 31.9513C13.513 32.8113 5.89297 27.2012 5.43297 26.8512C5.55297 26.7712 5.66298 26.6809 5.77298 26.5909C6.60298 25.9009 6.12298 25.4511 5.69298 24.9811C5.99298 24.8711 6.27297 24.841 6.60297 24.961C7.63297 25.351 9.42297 29.3611 17.203 28.5611L19.143 29.2711C19.143 29.2711 20.693 30.531 22.013 30.461C22.973 30.411 22.903 29.3408 22.793 28.7608C22.973 29.1108 23.173 29.4508 23.403 29.7608C24.373 31.1008 26.043 31.7212 27.643 31.4112V31.421Z" fill="#3C76DD"/>
<path d="M5.69299 24.9912C6.12298 25.4612 6.60299 25.9111 5.77299 26.6011C5.66299 26.6911 5.55298 26.7708 5.43298 26.8608C5.41298 26.8508 5.41299 26.8408 5.41299 26.8408C5.41299 26.8408 3.11298 28.0509 1.72298 27.6509C1.16298 27.4909 0.752977 27.2209 0.512977 26.9009C0.302977 26.6209 0.222981 26.301 0.282981 25.981C0.282981 25.961 0.282976 25.9412 0.292976 25.9312C0.292976 25.9112 0.29298 25.8909 0.31298 25.8809C0.32298 25.8409 0.332973 25.811 0.352973 25.771C0.352973 25.751 0.362978 25.7412 0.372978 25.7212C0.502978 25.7212 0.572975 25.7212 0.572975 25.7212C0.572975 25.7212 0.542981 26.7209 2.78298 26.2109C4.30298 25.8609 5.04298 25.241 5.69299 25.001V24.9912Z" fill="#ABE3F4"/>
<path d="M32.773 27.9609C32.183 29.0909 30.813 30.6009 27.653 31.4209C26.043 31.7309 24.383 31.111 23.413 29.771C23.183 29.461 22.983 29.121 22.803 28.771C22.763 28.551 22.713 28.3911 22.713 28.3911L22.373 27.251C22.373 27.251 25.313 29.851 29.063 29.521C30.583 29.391 31.833 28.7112 32.783 27.9512L32.773 27.9609Z" fill="#ABE3F4"/>
<g opacity="0.5">
<path d="M0.422974 26.001C0.942974 25.431 1.44298 24.4511 1.63298 23.6211C1.39298 24.2611 1.01297 24.9108 0.622971 25.3408C0.512971 25.4608 0.422976 25.5912 0.362976 25.7212C0.282976 25.8912 0.252975 26.0512 0.252975 26.2212C0.302975 26.1512 0.352974 26.081 0.422974 26.001Z" fill="white"/>
</g>
<g opacity="0.5">
<path d="M28.663 19.3406C28.403 19.2206 28.133 19.1205 27.853 19.0305C24.803 18.0205 13.583 19.1907 10.423 19.9607C7.32297 20.7107 5.83298 21.1609 5.77298 21.1809C5.77298 21.1809 5.77297 21.1806 5.76297 21.1506C5.76297 21.1306 5.74298 21.1108 5.72298 21.0808C5.71298 21.0608 5.70297 21.0506 5.70297 21.0506C5.42297 20.5706 4.36297 18.7909 3.43297 17.9309C2.34297 16.9409 1.61297 17.2705 1.07297 18.2605C0.982968 18.4305 0.932974 18.6208 0.922974 18.8308C1.45297 17.9108 2.17298 17.6408 3.22298 18.6008C3.94298 19.2508 4.68297 20.4309 5.12297 21.1609C5.32297 21.4909 5.61298 21.7607 5.97298 21.9207C6.02298 21.9407 6.06297 21.961 6.06297 21.971C6.06297 22.001 6.08297 22.001 6.06297 21.971V21.8709C6.12297 21.8509 7.11297 21.3709 10.213 20.6209C13.373 19.8509 24.593 18.6807 27.643 19.6907C27.923 19.7807 28.193 19.8907 28.453 20.0007C31.113 21.1907 33.113 23.7106 33.013 27.1306C33.013 27.1306 33.013 27.2808 32.963 27.5408C33.213 26.9108 33.223 26.471 33.223 26.471C33.323 23.051 31.323 20.5306 28.663 19.3406Z" fill="white"/>
</g>
<path d="M5.26298 26.6309C5.55298 26.4609 5.84298 26.2811 6.11298 26.0811C6.18298 26.0311 6.28298 26.0409 6.33298 26.1109C6.37298 26.1709 6.37297 26.2511 6.32297 26.3111C6.20297 26.4411 6.07298 26.571 5.94298 26.691C5.81298 26.811 5.68298 26.9309 5.55298 27.0509C5.26298 27.2809 4.95298 26.8312 5.26298 26.6412V26.6309Z" fill="#000072"/>
<path d="M22.933 22.2712C22.403 24.0012 22.243 25.8714 22.693 27.6414C22.923 28.5714 23.323 29.431 23.823 30.261C23.843 30.291 23.823 30.3313 23.803 30.3513C23.773 30.3713 23.743 30.3611 23.713 30.3411C21.953 28.4711 21.473 25.5914 22.343 23.2014C22.473 22.8614 22.613 22.5314 22.803 22.2214C22.843 22.1514 22.953 22.201 22.923 22.281L22.933 22.2712Z" fill="#000072"/>
<path d="M6.00297 21.0809L6.22297 21.7908C6.28297 21.9908 6.01296 22.111 5.90296 21.931L5.53297 21.2708C5.36297 20.9308 5.88297 20.7209 6.00297 21.0809Z" fill="#000072"/>
<path d="M27.303 26.5509C27.173 26.3109 27.013 26.091 26.843 25.881C26.763 25.781 26.753 25.6309 26.843 25.5309C27.003 25.3109 27.143 25.0812 27.273 24.8312C27.303 24.7612 27.303 24.6712 27.273 24.6012C27.203 24.4612 27.043 24.4111 26.903 24.4811C26.663 24.6111 26.443 24.7613 26.233 24.9313C26.133 25.0113 25.983 25.0211 25.873 24.9411C25.653 24.7811 25.423 24.6411 25.183 24.5211C25.113 24.4911 25.023 24.4911 24.953 24.5211C24.813 24.5911 24.763 24.7513 24.833 24.8913C24.963 25.1313 25.113 25.3612 25.283 25.5612C25.373 25.6712 25.373 25.8213 25.283 25.9313C25.283 25.9413 25.263 25.9511 25.263 25.9611C25.113 26.1611 24.983 26.371 24.873 26.611C24.843 26.681 24.843 26.771 24.873 26.841C24.943 26.971 25.103 27.0311 25.243 26.9611C25.483 26.8311 25.703 26.6711 25.913 26.5011C26.023 26.4111 26.173 26.4211 26.283 26.5011C26.293 26.5011 26.303 26.5209 26.323 26.5309C26.523 26.6809 26.733 26.811 26.973 26.921C27.043 26.951 27.133 26.951 27.203 26.921C27.333 26.851 27.393 26.6909 27.323 26.5509H27.303Z" fill="#000072"/>
<path d="M8.41299 25.5408C8.34299 25.8308 8.24298 26.0407 8.15298 26.1907C8.08298 26.3107 8.21298 26.4409 8.33298 26.3909C8.58298 26.2909 8.80298 26.011 8.89298 25.661C8.98298 25.301 8.92298 24.9608 8.75298 24.7508C8.66298 24.6408 8.49299 24.7006 8.49299 24.8406C8.49299 25.0106 8.48299 25.2508 8.41299 25.5408Z" fill="#E3FBFF"/>
<path d="M11.393 26.5509C11.323 26.8409 11.223 27.0513 11.133 27.2013C11.063 27.3213 11.193 27.451 11.313 27.401C11.563 27.301 11.783 27.0211 11.873 26.6711C11.963 26.3211 11.903 25.9709 11.733 25.7609C11.643 25.6509 11.473 25.7112 11.473 25.8512C11.473 26.0212 11.463 26.2609 11.393 26.5509Z" fill="#E3FBFF"/>
<path d="M10.683 24.1506C10.643 24.4406 10.573 24.6708 10.503 24.8308C10.453 24.9608 10.593 25.0805 10.703 25.0105C10.933 24.8805 11.123 24.5807 11.173 24.2107C11.223 23.8507 11.113 23.5106 10.923 23.3206C10.823 23.2206 10.663 23.3107 10.683 23.4407C10.703 23.6107 10.723 23.8509 10.683 24.1409V24.1506Z" fill="#E3FBFF"/>
<path d="M11.973 21.8509C11.903 22.1409 11.803 22.3508 11.713 22.5008C11.643 22.6208 11.773 22.751 11.893 22.701C12.143 22.601 12.363 22.321 12.453 21.971C12.543 21.611 12.483 21.2709 12.313 21.0609C12.223 20.9509 12.053 21.0107 12.053 21.1507C12.053 21.3207 12.043 21.5609 11.973 21.8509Z" fill="#E3FBFF"/>
<path d="M14.853 21.6912C14.813 21.9812 14.743 22.2113 14.683 22.3713C14.633 22.5013 14.773 22.621 14.893 22.551C15.123 22.421 15.313 22.1212 15.353 21.7512C15.393 21.3912 15.293 21.0511 15.093 20.8611C14.993 20.7711 14.833 20.8512 14.853 20.9812C14.883 21.1512 14.893 21.3914 14.853 21.6814V21.6912Z" fill="#E3FBFF"/>
<path d="M16.033 24.1511C15.993 24.4411 15.923 24.6713 15.863 24.8313C15.813 24.9613 15.953 25.081 16.073 25.011C16.303 24.881 16.493 24.5812 16.533 24.2112C16.573 23.8512 16.473 23.511 16.273 23.321C16.173 23.231 16.013 23.3112 16.033 23.4412C16.063 23.6112 16.073 23.8514 16.033 24.1414V24.1511Z" fill="#E3FBFF"/>
<path d="M18.623 23.8713C18.583 24.1613 18.513 24.391 18.453 24.551C18.403 24.681 18.543 24.8012 18.663 24.7312C18.893 24.6012 19.083 24.3014 19.123 23.9314C19.163 23.5614 19.063 23.2313 18.863 23.0413C18.763 22.9513 18.603 23.0314 18.623 23.1614C18.653 23.3314 18.663 23.5711 18.623 23.8611V23.8713Z" fill="#E3FBFF"/>
<path d="M20.193 20.9114C20.153 21.2014 20.083 21.4311 20.023 21.5911C19.973 21.7211 20.113 21.8412 20.233 21.7712C20.463 21.6412 20.653 21.3414 20.693 20.9714C20.733 20.6114 20.633 20.2713 20.433 20.0813C20.333 19.9913 20.173 20.0714 20.193 20.2014C20.223 20.3714 20.233 20.6111 20.193 20.9011V20.9114Z" fill="#E3FBFF"/>
<path d="M20.883 24.0212C20.843 24.3112 20.773 24.5414 20.713 24.7014C20.663 24.8314 20.803 24.9511 20.923 24.8811C21.153 24.7511 21.343 24.4513 21.383 24.0813C21.423 23.7213 21.323 23.3812 21.123 23.1912C21.023 23.1012 20.863 23.1813 20.883 23.3113C20.913 23.4813 20.923 23.721 20.883 24.011V24.0212Z" fill="#E3FBFF"/>
<path d="M22.473 20.6414C22.433 20.9314 22.363 21.161 22.303 21.321C22.253 21.451 22.393 21.5712 22.513 21.5012C22.743 21.3712 22.933 21.0714 22.973 20.7014C23.013 20.3314 22.913 20.0013 22.713 19.8113C22.613 19.7213 22.453 19.8014 22.473 19.9314C22.503 20.1014 22.513 20.3411 22.473 20.6311V20.6414Z" fill="#E3FBFF"/>
<path d="M20.253 27.5306C20.213 27.8206 20.143 28.0508 20.083 28.2108C20.033 28.3408 20.173 28.461 20.293 28.391C20.523 28.261 20.713 27.9607 20.753 27.5907C20.793 27.2207 20.693 26.891 20.493 26.701C20.393 26.611 20.233 26.6907 20.253 26.8207C20.283 26.9907 20.293 27.2308 20.253 27.5208V27.5306Z" fill="#E3FBFF"/>
<path d="M17.523 21.0012C17.483 21.2912 17.413 21.5214 17.353 21.6814C17.303 21.8114 17.443 21.9311 17.563 21.8611C17.793 21.7311 17.983 21.4313 18.023 21.0613C18.063 20.6913 17.963 20.3611 17.763 20.1711C17.663 20.0811 17.503 20.1613 17.523 20.2913C17.553 20.4613 17.563 20.7014 17.523 20.9914V21.0012Z" fill="#E3FBFF"/>
<path d="M17.493 26.7411C17.453 27.0311 17.383 27.2608 17.323 27.4208C17.273 27.5508 17.413 27.6709 17.533 27.6009C17.763 27.4709 17.953 27.1706 17.993 26.8006C18.033 26.4406 17.933 26.101 17.733 25.911C17.633 25.821 17.473 25.9006 17.493 26.0306C17.523 26.2006 17.533 26.4408 17.493 26.7308V26.7411Z" fill="#E3FBFF"/>
<path d="M14.513 26.6614C14.473 26.9514 14.403 27.1811 14.343 27.3411C14.293 27.4711 14.433 27.5912 14.553 27.5212C14.783 27.3912 14.973 27.0914 15.013 26.7214C15.053 26.3614 14.953 26.0213 14.753 25.8313C14.653 25.7413 14.493 25.8214 14.513 25.9514C14.543 26.1214 14.553 26.3611 14.513 26.6511V26.6614Z" fill="#E3FBFF"/>
<path d="M13.323 24.151C13.293 24.441 13.233 24.681 13.163 24.841C13.113 24.971 13.253 25.0809 13.373 25.0109C13.603 24.8709 13.783 24.5713 13.813 24.2013C13.843 23.8313 13.733 23.5009 13.533 23.3209C13.433 23.2309 13.273 23.3213 13.293 23.4513C13.323 23.6213 13.343 23.861 13.323 24.151Z" fill="#E3FBFF"/>
<path d="M7.21297 23.611C7.14297 23.901 7.04298 24.1109 6.95298 24.2609C6.88298 24.3809 7.01299 24.5111 7.13299 24.4611C7.38299 24.3611 7.60299 24.0811 7.69299 23.7311C7.78299 23.3811 7.72299 23.031 7.55299 22.821C7.46299 22.711 7.29298 22.7713 7.29298 22.9113C7.29298 23.0813 7.28297 23.321 7.21297 23.611Z" fill="#E3FBFF"/>
<path d="M9.39297 22.5208C9.32297 22.8108 9.22297 23.0207 9.13297 23.1707C9.06297 23.2907 9.19297 23.4209 9.31297 23.3709C9.56297 23.2709 9.78296 22.9909 9.87296 22.6409C9.96296 22.2809 9.90296 21.9408 9.73296 21.7308C9.64296 21.6208 9.47297 21.6806 9.47297 21.8206C9.47297 21.9906 9.46297 22.2308 9.39297 22.5208Z" fill="#E3FBFF"/>
<path d="M22.133 32.2909C17.293 32.2909 13.263 31.0708 10.593 29.9608C7.70297 28.7608 5.87298 27.491 5.38298 27.141C4.84298 27.401 2.93297 28.2608 1.64297 27.9008C0.802975 27.6608 0.222979 27.1707 0.0529785 26.5707C-0.0870215 26.0907 0.0529779 25.6011 0.442978 25.1811C1.16298 24.3911 1.86297 22.7507 1.62297 22.0307C1.56297 21.8707 1.47297 21.651 1.37297 21.411C0.952971 20.411 0.372966 19.051 0.852966 18.161C1.19297 17.531 1.58297 17.1907 2.04297 17.1107C2.52297 17.0307 3.03297 17.2406 3.60297 17.7606C4.54297 18.6206 5.57297 20.3308 5.89297 20.8808C6.39297 20.7308 7.86298 20.3208 10.363 19.7108C12.043 19.3008 15.743 18.8207 19.163 18.5707C21.643 18.3907 26.093 18.1707 27.933 18.7807C29.563 19.3207 30.943 20.2807 31.923 21.5507C32.993 22.9407 33.533 24.6308 33.473 26.4608C33.473 26.5108 33.443 27.761 32.283 29.101C30.753 30.861 28.093 31.9008 24.373 32.1908C23.613 32.2508 22.863 32.2807 22.133 32.2807V32.2909ZM5.41298 26.5907C5.46298 26.5907 5.52297 26.611 5.56297 26.641C5.58297 26.651 7.52298 28.1409 10.803 29.5009C13.823 30.7509 18.613 32.1511 24.333 31.7011C28.763 31.3511 30.883 29.9409 31.873 28.8109C32.933 27.6109 32.973 26.4708 32.973 26.4608C33.093 22.4608 30.363 20.1209 27.773 19.2709C26.483 18.8409 23.363 18.781 19.193 19.081C15.803 19.331 12.143 19.8011 10.483 20.2011C7.37297 20.9511 5.86297 21.4108 5.85297 21.4208C5.74297 21.4508 5.61297 21.4107 5.56297 21.3007C5.55297 21.2807 4.31298 19.0808 3.27298 18.1308C2.83298 17.7308 2.45297 17.5507 2.14297 17.6107C1.85297 17.6607 1.57297 17.9308 1.31297 18.4008C0.942973 19.0808 1.49297 20.3608 1.85297 21.2108C1.96297 21.4708 2.05298 21.691 2.11298 21.871C2.42298 22.781 1.66298 24.6109 0.832977 25.5209C0.562977 25.8109 0.472973 26.1308 0.562973 26.4408C0.682973 26.8708 1.15297 27.2308 1.81297 27.4208C3.09297 27.7908 5.29297 26.6408 5.31297 26.6308C5.35297 26.6108 5.39297 26.601 5.43297 26.601L5.41298 26.5907Z" fill="#000072"/>
<path d="M25.723 17.8806C25.723 17.8806 25.613 18.0205 25.413 18.2605C24.443 19.4205 21.473 22.8609 19.833 23.8909C17.853 25.1309 15.993 24.3309 16.113 22.1209C16.133 21.7309 16.213 21.341 16.323 20.951C16.853 19.121 18.173 17.451 18.173 17.451C18.173 17.451 22.073 16.5208 23.653 16.8308C25.233 17.1408 25.723 17.8709 25.723 17.8709V17.8806Z" fill="white"/>
<path d="M20.123 22.8208C18.143 24.0608 16.283 23.2608 16.403 21.0508C16.413 20.8608 16.443 20.6609 16.473 20.4609C16.413 20.6209 16.353 20.7909 16.313 20.9609C16.203 21.3509 16.123 21.7409 16.103 22.1309C15.983 24.3409 17.843 25.1409 19.823 23.9009C21.463 22.8709 24.423 19.431 25.403 18.271C25.603 18.031 25.713 17.8911 25.713 17.8911C25.713 17.8911 25.703 17.8711 25.683 17.8511C24.433 19.2111 21.603 21.9011 20.123 22.8311V22.8208Z" fill="#DAE1F2"/>
<path d="M18.163 24.5306C18.093 24.1406 18.133 23.7307 18.273 23.3607C18.313 23.2407 18.383 23.1308 18.443 23.0208C18.473 22.9808 18.523 22.9611 18.573 22.9911C18.613 23.0111 18.633 23.0707 18.613 23.1107C18.463 23.5207 18.453 23.9907 18.613 24.4007C18.763 24.7507 18.233 24.9109 18.153 24.5409L18.163 24.5306Z" fill="#000072"/>
<path d="M16.683 24.0508C16.743 23.6108 16.883 23.171 17.123 22.791C17.183 22.701 17.323 22.7711 17.293 22.8711C17.163 23.2511 17.133 23.661 17.163 24.061C17.183 24.421 16.653 24.421 16.683 24.061V24.0508Z" fill="#000072"/>
<path d="M18.353 17.6108C17.393 18.9408 16.423 20.6407 16.373 22.3007C16.353 23.7707 17.393 24.5107 18.783 24.0707C19.573 23.8307 20.253 23.2511 20.893 22.6811C21.103 22.4811 21.333 22.281 21.533 22.081C22.663 21.001 23.703 19.7911 24.773 18.6411C25.043 18.3611 25.323 18.071 25.623 17.811C25.623 17.811 25.733 17.771 25.773 17.811C25.803 17.851 25.813 17.9009 25.783 17.9409C25.473 18.4509 25.113 18.9311 24.733 19.3911C23.563 20.7511 22.373 22.0807 21.033 23.2807L20.803 23.4809L20.563 23.6708C20.433 23.7908 20.213 23.931 20.063 24.041C19.193 24.641 18.003 25.0107 16.993 24.5307C16.373 24.2407 15.963 23.6011 15.853 22.9311C15.593 21.3211 16.443 19.631 17.263 18.291C17.483 17.951 17.703 17.6207 17.963 17.3007C18.163 17.0607 18.523 17.341 18.333 17.601L18.353 17.6108Z" fill="#000072"/>
<path d="M17.203 18.1012C17.203 18.1012 17.093 18.2313 16.913 18.4513C16.013 19.5213 13.293 22.681 11.783 23.631C9.96297 24.771 8.24297 24.0409 8.36297 22.0109C8.38297 21.6509 8.45297 21.2911 8.55297 20.9411C9.04297 19.2611 10.263 17.7213 10.263 17.7213C10.263 17.7213 13.853 16.861 15.303 17.151C16.753 17.441 17.203 18.1012 17.203 18.1012Z" fill="white"/>
<path d="M12.063 22.6411C10.243 23.7811 8.52297 23.051 8.64297 21.021C8.65297 20.841 8.67297 20.661 8.71297 20.481C8.65297 20.631 8.60297 20.7809 8.56297 20.9409C8.46297 21.3009 8.39297 21.6607 8.37297 22.0107C8.26297 24.0407 9.97297 24.7809 11.793 23.6309C13.303 22.6909 16.023 19.5212 16.923 18.4512C17.103 18.2312 17.213 18.1011 17.213 18.1011C17.213 18.1011 17.213 18.091 17.183 18.061C16.033 19.311 13.433 21.7811 12.073 22.6411H12.063Z" fill="#DAE1F2"/>
<path d="M10.253 24.2107C10.183 23.8507 10.223 23.4707 10.353 23.1307C10.393 23.0207 10.453 22.9206 10.513 22.8206C10.533 22.7806 10.593 22.7708 10.633 22.7908C10.673 22.8108 10.683 22.8607 10.663 22.9007C10.523 23.2807 10.523 23.7109 10.663 24.0809C10.803 24.4009 10.313 24.5507 10.243 24.2107H10.253Z" fill="#000072"/>
<path d="M8.90297 23.7708C8.94297 23.4608 9.03298 23.1607 9.16298 22.8807C9.20298 22.7907 9.25297 22.7006 9.31297 22.6106C9.34297 22.5706 9.39297 22.5609 9.43297 22.5809C9.47297 22.6009 9.48297 22.6507 9.46297 22.6907C9.43297 22.7807 9.40297 22.8707 9.39297 22.9607C9.34297 23.2307 9.32297 23.5106 9.35297 23.7806C9.37297 24.1106 8.88298 24.1106 8.91298 23.7806L8.90297 23.7708Z" fill="#000072"/>
<path d="M10.433 17.8513C9.55296 19.0713 8.66297 20.6411 8.61297 22.1711C8.59297 22.9911 8.99297 23.7811 9.87297 23.9011C10.913 24.0211 11.803 23.3814 12.583 22.7014C13.943 21.5114 15.123 20.1312 16.353 18.8112C16.603 18.5512 16.863 18.2912 17.133 18.0412C17.173 18.0012 17.233 18.0112 17.273 18.0412C17.303 18.0712 17.303 18.1213 17.283 18.1613C16.903 18.7913 16.443 19.3613 15.963 19.9113C14.933 21.0813 13.893 22.2309 12.703 23.2609C12.503 23.4309 12.253 23.6312 12.033 23.7712C11.093 24.4412 9.59297 24.7813 8.69297 23.8513C7.59297 22.6513 8.25297 20.7111 8.89297 19.4611C9.14297 18.9611 9.43297 18.491 9.75297 18.031C9.86297 17.881 9.96297 17.7313 10.083 17.5813C10.163 17.4813 10.293 17.4712 10.393 17.5412C10.483 17.6212 10.503 17.7513 10.433 17.8513Z" fill="#000072"/>
<path d="M34.453 27.861C34.193 29.001 32.583 28.9914 31.713 27.4914C31.653 27.3914 31.603 27.2914 31.553 27.1814C31.253 26.5114 31.333 25.301 31.333 25.301C31.333 25.301 31.563 23.9513 32.683 23.6613C33.803 23.3713 34.673 24.7212 33.633 25.9812C33.633 25.9812 33.753 26.0514 33.903 26.2014C34.203 26.4914 34.633 27.051 34.443 27.861H34.453Z" fill="#E3FBFF"/>
<path d="M34.453 27.8608C34.193 29.0008 32.583 28.9912 31.713 27.4912C31.713 27.4912 31.343 26.4411 31.873 26.1611C32.253 25.9611 33.173 25.8811 33.903 26.2011C34.203 26.4911 34.633 27.0508 34.443 27.8608H34.453Z" fill="#ABE3F4"/>
<path d="M33.463 25.0305C33.463 25.0305 33.363 25.9208 33.683 26.8108C34.013 27.6908 32.953 27.7608 32.513 26.8108C32.073 25.8608 32.543 24.8507 32.873 24.6707C33.203 24.4907 33.473 24.7508 33.463 25.0408V25.0305Z" fill="#000072"/>
<path d="M31.263 25.2912C31.293 24.7812 31.493 24.3014 31.833 23.9314C32.413 23.3014 33.453 23.1611 34.033 23.8811C34.393 24.3211 34.443 24.9514 34.233 25.4714C34.133 25.7214 33.993 25.9513 33.823 26.1413L33.763 25.761C34.263 26.081 34.643 26.5911 34.733 27.1911L34.753 27.4113C34.753 27.6413 34.723 27.8713 34.643 28.0813C34.423 28.6913 33.723 29.0013 33.123 28.9113C32.283 28.8013 31.503 28.0614 31.493 27.2014C31.493 27.1314 31.583 27.1113 31.623 27.1613C31.953 27.6713 32.253 28.2013 32.853 28.3913C33.333 28.5613 34.003 28.4313 34.173 27.9113C34.213 27.8113 34.223 27.7013 34.233 27.6013C34.283 27.0413 33.953 26.5114 33.503 26.2014C33.373 26.1214 33.343 25.941 33.443 25.821C33.573 25.651 33.683 25.4712 33.753 25.2912C34.163 24.1212 33.043 23.4014 32.113 24.2214C31.803 24.5014 31.573 24.901 31.403 25.321C31.373 25.411 31.243 25.3812 31.253 25.2912H31.263Z" fill="#000072"/>
<path d="M19.493 29.8406C19.353 30.3106 19.183 30.8609 19.033 31.3309C18.933 31.6409 18.853 31.9109 18.793 32.1209C18.703 32.4209 18.443 32.6507 18.123 32.6907C16.343 32.9607 15.343 32.561 14.803 32.161C14.433 31.881 14.373 31.3608 14.663 31.0008C14.773 30.8608 14.913 30.6908 15.053 30.5208C15.583 29.8708 16.233 29.0707 16.583 28.6507C16.763 28.4407 17.003 28.3008 17.273 28.2508C17.563 28.2008 17.943 28.1608 18.243 28.2508C18.483 28.3108 18.713 28.4108 18.923 28.5208C19.403 28.7808 19.643 29.3407 19.483 29.8607L19.493 29.8406Z" fill="#E3FBFF"/>
<path d="M19.033 31.3208C18.933 31.6308 18.853 31.9008 18.793 32.1108C18.703 32.4108 18.443 32.6412 18.123 32.6812C16.343 32.9512 15.343 32.5509 14.803 32.1509C14.433 31.8709 14.373 31.3512 14.663 30.9912C14.773 30.8512 14.913 30.6807 15.053 30.5107C15.103 30.4907 15.133 30.481 15.133 30.481C15.133 30.481 15.213 31.5111 16.413 31.6611C17.613 31.8111 18.993 31.251 18.993 31.251C18.993 31.251 19.013 31.2811 19.033 31.3311V31.3208Z" fill="#ABE3F4"/>
<path d="M14.913 32.041C15.113 31.851 15.393 31.5608 15.583 31.3608C15.803 31.1308 16.023 30.8909 16.233 30.6509C16.263 30.6209 16.313 30.6509 16.293 30.6909C16.083 31.1109 15.823 31.5609 15.593 31.9609C15.513 32.1009 15.433 32.2408 15.343 32.3808C15.113 32.7208 14.633 32.341 14.913 32.041Z" fill="#000072"/>
<path d="M16.453 32.4712C16.793 32.0412 17.143 31.6209 17.513 31.2109C17.543 31.1809 17.583 31.2109 17.573 31.2509C17.343 31.7409 17.133 32.2309 16.933 32.7309C16.763 33.1209 16.213 32.8109 16.453 32.4609V32.4712Z" fill="#000072"/>
<path d="M16.733 28.6411C16.143 29.5211 15.493 30.3612 14.843 31.2012C14.663 31.5012 14.773 31.8312 15.083 31.9912C15.413 32.2012 15.783 32.3309 16.163 32.4009C16.613 32.4909 17.083 32.5012 17.543 32.4712C17.663 32.4712 17.773 32.4509 17.893 32.4409C17.973 32.4309 18.123 32.4211 18.193 32.3911C18.353 32.3411 18.483 32.2108 18.543 32.0508L18.993 30.6709L19.453 29.2808C19.503 29.1208 19.753 29.1811 19.723 29.3511C19.553 30.2611 19.323 31.1408 19.073 32.0308L19.053 32.1211C18.963 32.5111 18.653 32.8312 18.263 32.9312C18.043 32.9812 17.813 33.0008 17.583 33.0308C16.753 33.1108 15.873 33.0512 15.103 32.6812C14.783 32.5212 14.433 32.3109 14.283 31.9609C14.133 31.6209 14.173 31.2111 14.383 30.9111C15.073 30.0811 15.803 29.291 16.553 28.521C16.643 28.431 16.783 28.5509 16.713 28.6509L16.733 28.6411Z" fill="#000072"/>
<path d="M7.43296 18.9008C7.15296 19.0208 6.87296 19.1306 6.60296 19.2606C6.33296 19.4006 6.08296 19.5711 5.82296 19.7411C5.79296 19.7611 5.74297 19.7511 5.72297 19.7211C5.71297 19.7011 5.71297 19.681 5.72297 19.661C5.79297 19.511 5.89296 19.3611 6.01296 19.2411C6.25296 18.9911 6.57297 18.8111 6.91297 18.7411C7.00297 18.7211 7.53296 18.681 7.48296 18.851C7.48296 18.881 7.45296 18.8908 7.43296 18.9008Z" fill="#000072"/>
<path d="M6.80298 17.4914C6.11298 17.3814 5.52298 17.3711 4.91298 17.7711C4.86298 17.8111 4.78297 17.7411 4.81297 17.6911C5.10297 17.0111 6.02298 16.9113 6.61298 17.2213C6.70298 17.2613 6.78297 17.3112 6.85297 17.3712C6.88297 17.4012 6.89298 17.4413 6.86298 17.4713C6.84298 17.4913 6.81297 17.5011 6.79297 17.5011L6.80298 17.4914Z" fill="#000072"/>
<path d="M7.02298 16.1511C6.41298 15.8511 5.77298 15.6013 5.08298 15.6213C5.02298 15.6213 4.98298 15.5312 5.03298 15.5012C5.61298 15.0712 6.44298 15.3912 6.92298 15.8312C6.99298 15.9012 7.05298 15.9612 7.11298 16.0412C7.13298 16.0712 7.13297 16.1213 7.09297 16.1413C7.07297 16.1613 7.04297 16.1613 7.01297 16.1413L7.02298 16.1511Z" fill="#000072"/>
<path d="M7.34297 14.6708C7.34297 14.6708 7.49298 12.721 8.30298 11.411C8.30298 11.411 7.75298 6.76088 9.24298 6.00088C10.713 5.26088 13.473 8.1708 13.473 8.1708C13.473 8.1708 15.073 7.75084 17.613 8.21084C17.613 8.21084 20.603 5.58088 22.133 6.00088C23.863 6.48088 22.833 12.7509 22.833 12.7509C22.833 12.7509 27.093 20.2609 18.623 21.2509C9.87297 22.2709 4.02297 19.1908 7.35297 14.6708H7.34297Z" fill="white"/>
<path d="M12.283 7.21094C12.283 7.21094 12.323 7.21092 12.393 7.19092C12.203 7.04092 12.003 6.88096 11.793 6.73096C12.103 7.01096 12.293 7.21094 12.293 7.21094H12.283Z" fill="#DAE1F2"/>
<path d="M22.833 12.7512C22.833 12.7512 23.863 6.48116 22.133 6.00116C21.993 5.96116 21.853 5.95112 21.693 5.96112C22.293 7.83112 21.643 11.7912 21.643 11.7912C21.643 11.7912 25.903 19.3012 17.433 20.2912C12.963 20.8112 9.25298 20.2612 7.13298 19.0012C8.79298 20.9312 13.143 21.9009 18.623 21.2609C27.093 20.2709 22.833 12.7609 22.833 12.7609V12.7512Z" fill="#DAE1F2"/>
<path d="M21.903 10.7606C21.853 11.2106 21.803 11.5306 21.803 11.5306C20.863 10.0006 18.893 8.84067 18.893 8.84067C18.893 8.84067 20.903 7.15099 21.563 7.41099C21.703 7.46099 21.803 7.61066 21.873 7.82066V7.83091C22.103 8.53091 22.003 9.9006 21.903 10.7606Z" fill="#FF6C6C"/>
<path d="M21.903 10.7606C21.853 11.2106 21.803 11.5306 21.803 11.5306C20.863 10.0006 18.893 8.84067 18.893 8.84067C18.893 8.84067 20.903 7.15099 21.563 7.41099C21.703 7.46099 21.803 7.61066 21.873 7.82066V7.83091C21.873 7.83091 21.593 7.99087 21.203 8.29087C20.723 8.65087 20.663 9.34085 21.083 9.77085C21.373 10.0709 21.683 10.4209 21.903 10.7709V10.7606Z" fill="#F44A4A"/>
<path d="M21.803 11.7609C21.723 11.7609 21.643 11.7211 21.603 11.6511C20.703 10.1911 18.793 9.06121 18.773 9.04121C18.703 9.00121 18.663 8.93126 18.653 8.85126C18.653 8.77126 18.673 8.70107 18.733 8.65107C19.233 8.23107 20.903 6.89134 21.643 7.18134C22.113 7.36134 22.303 8.13126 22.233 9.60126C22.183 10.5913 22.033 11.5212 22.033 11.5612C22.013 11.6612 21.943 11.7409 21.843 11.7609C21.823 11.7609 21.813 11.7609 21.793 11.7609H21.803ZM19.303 8.81122C19.813 9.14122 20.883 9.9113 21.653 10.8913C21.693 10.5313 21.743 10.061 21.763 9.57099C21.843 7.82099 21.513 7.64128 21.473 7.62128C21.183 7.51128 20.173 8.11122 19.303 8.81122Z" fill="#000072"/>
<path d="M11.863 8.63096C11.863 8.63096 9.98297 9.47108 8.98297 10.7511C8.98297 10.7511 8.97298 10.5112 8.97298 10.1612C8.97298 9.24124 9.02298 7.53098 9.49298 7.15098C9.53298 7.12098 9.57297 7.10116 9.62297 7.08116C10.243 6.91116 11.873 8.63096 11.873 8.63096H11.863Z" fill="#FF6C6C"/>
<path d="M11.863 8.63096C11.863 8.63096 9.98297 9.47108 8.98297 10.7511C8.98297 10.7511 8.97298 10.5112 8.97298 10.1612C9.36298 9.66124 9.84297 9.211 10.183 8.921C10.443 8.691 10.483 8.30086 10.263 8.03086C9.92297 7.62086 9.52298 7.18098 9.49298 7.15098C9.53298 7.12098 9.57297 7.10116 9.62297 7.08116C10.243 6.91116 11.873 8.63096 11.873 8.63096H11.863Z" fill="#F44A4A"/>
<path d="M8.98297 10.9713C8.98297 10.9713 8.94298 10.971 8.91298 10.961C8.82298 10.931 8.76297 10.8611 8.76297 10.7711C8.76297 10.7311 8.72297 9.8813 8.78297 8.9913C8.87297 7.6713 9.11298 7.00095 9.55298 6.88095C10.243 6.70095 11.613 8.0713 12.013 8.4913C12.063 8.5413 12.083 8.61124 12.063 8.68124C12.053 8.75124 12.003 8.81114 11.943 8.83114C11.923 8.83114 10.093 9.67095 9.15297 10.8809C9.11297 10.9309 9.05297 10.961 8.98297 10.961V10.9713ZM9.71296 7.28085C9.71296 7.28085 9.68298 7.28085 9.66298 7.28085C9.62298 7.28085 9.31296 7.42106 9.21296 9.00106C9.18296 9.44106 9.18297 9.87101 9.18297 10.191C9.97297 9.39101 11.003 8.81112 11.493 8.56112C10.813 7.89112 10.023 7.27108 9.71296 7.27108V7.28085Z" fill="#000072"/>
<path d="M12.123 16.6011C12.123 16.6011 12.453 16.8911 12.803 16.8511C13.153 16.8111 12.973 16.2412 12.973 16.2412H13.533C13.533 16.2412 13.623 16.7412 14.273 16.7412C14.583 16.7412 14.813 16.6611 14.963 16.5811C15.103 16.5111 15.273 16.631 15.243 16.791C15.203 16.971 15.093 17.1607 14.793 17.2607C14.153 17.4607 13.563 17.0708 13.563 17.0708C13.563 17.0708 12.363 17.7711 12.123 16.6011Z" fill="#DAE1F2"/>
<path d="M14.083 16.0109C14.073 16.2609 13.573 16.4613 13.353 16.4713C13.083 16.4813 12.503 16.1813 12.523 15.9313C12.533 15.6813 12.893 15.6213 13.323 15.6413C13.753 15.6613 14.103 15.7611 14.093 16.0011L14.083 16.0109Z" fill="#000072"/>
<g opacity="0.54">
<path d="M13.483 15.8808C13.483 15.8808 13.403 15.9411 13.323 15.9711C13.223 16.0011 13.093 16.0011 13.003 15.9511C12.923 15.9111 12.853 15.8708 12.853 15.8408C12.853 15.7808 12.993 15.7707 13.173 15.7807C13.343 15.7807 13.483 15.811 13.483 15.871V15.8808Z" fill="white"/>
</g>
<path d="M13.403 16.1912C13.463 16.5512 13.613 17.0111 13.983 17.1111C14.393 17.2211 14.753 17.0013 15.123 16.8113C15.163 16.7913 15.213 16.8111 15.233 16.8411C15.243 16.8611 15.243 16.8914 15.233 16.9114C15.173 17.0314 15.093 17.1212 15.003 17.2112C14.613 17.5612 13.923 17.6312 13.523 17.2512C13.233 16.9712 13.143 16.5712 13.153 16.1912C13.153 16.0312 13.393 16.0212 13.413 16.1912H13.403Z" fill="#000072"/>
<path d="M12.163 16.5908C12.343 16.9108 12.643 17.2711 13.053 17.1411C13.173 17.1111 13.293 17.051 13.403 16.981C13.483 16.931 13.603 16.951 13.653 17.041C13.703 17.131 13.683 17.241 13.593 17.291C13.453 17.371 13.303 17.4412 13.123 17.4712C12.953 17.5012 12.763 17.4911 12.593 17.4111C12.433 17.3311 12.303 17.2008 12.213 17.0708C12.123 16.9308 12.073 16.7811 12.053 16.6211C12.053 16.5911 12.073 16.561 12.103 16.561C12.133 16.561 12.153 16.5708 12.163 16.5908Z" fill="#000072"/>
<path d="M15.903 15.6409C16.663 15.9009 17.493 15.9309 18.263 15.7209C18.533 15.6609 18.803 15.561 19.073 15.491C19.153 15.471 19.233 15.5106 19.253 15.5906C19.283 15.7206 19.123 15.7909 19.043 15.8709C18.893 16.0009 18.723 16.0907 18.553 16.1907L18.443 16.241C18.223 16.331 17.993 16.4009 17.753 16.4309C17.043 16.5309 16.273 16.3609 15.733 15.8709C15.623 15.7509 15.743 15.5809 15.893 15.6409H15.903Z" fill="#000072"/>
<path d="M8.78297 15.1709C9.41297 15.5209 10.133 15.6808 10.853 15.5708C11.093 15.5408 11.343 15.4909 11.603 15.4409C11.733 15.4109 11.813 15.5809 11.713 15.6709C11.283 16.0409 10.673 16.2209 10.103 16.1709C9.52297 16.1209 8.94297 15.8409 8.60297 15.3609C8.52297 15.2309 8.67297 15.0909 8.79297 15.1709H8.78297Z" fill="#000072"/>
<path d="M15.363 21.7009C13.733 21.7009 12.223 21.541 10.903 21.221C8.74297 20.701 7.24298 19.8009 6.55298 18.6209C6.06298 17.7809 5.77297 16.4106 7.09297 14.5706C7.13297 14.2006 7.32298 12.5608 8.03298 11.3508C8.00298 11.0508 7.91297 10.0607 7.95297 8.98073C8.02297 7.21073 8.41297 6.13054 9.12297 5.78054C9.82297 5.43054 10.813 5.70061 12.053 6.61061C12.753 7.12061 13.323 7.67065 13.553 7.90065C14.003 7.81065 15.443 7.58069 17.533 7.94069C17.763 7.74069 18.393 7.23073 19.153 6.73073C20.463 5.89073 21.483 5.56075 22.193 5.75075C23.053 5.99075 23.433 7.23056 23.373 9.55056C23.333 10.9606 23.143 12.3407 23.083 12.6907C23.373 13.2307 24.903 16.311 23.673 18.741C22.903 20.261 21.203 21.191 18.633 21.491C17.503 21.621 16.393 21.6907 15.343 21.6907L15.363 21.7009ZM9.78298 6.13063C9.62298 6.13063 9.48297 6.16073 9.35297 6.23073C8.26297 6.78073 8.40298 10.1406 8.55298 11.3806C8.55298 11.4406 8.55297 11.4908 8.51297 11.5408C7.74297 12.7808 7.59297 14.6609 7.59297 14.6809C7.59297 14.7309 7.57297 14.7708 7.54297 14.8108C6.58297 16.1108 6.39297 17.3406 6.98297 18.3606C8.02297 20.1506 11.223 21.1809 15.363 21.1809C16.383 21.1809 17.463 21.121 18.583 20.991C20.973 20.711 22.533 19.8808 23.223 18.5208C24.423 16.1508 22.613 12.9009 22.603 12.8709C22.573 12.8209 22.563 12.7609 22.573 12.7009C22.953 10.3609 23.153 6.54073 22.053 6.23073C20.903 5.91073 18.563 7.68063 17.763 8.38063C17.703 8.43063 17.623 8.45069 17.553 8.44069C15.113 8.00069 13.543 8.39065 13.523 8.40065C13.433 8.42065 13.343 8.40083 13.273 8.33083C12.633 7.65083 10.903 6.12087 9.77298 6.12087L9.78298 6.13063Z" fill="#000072"/>
<path d="M20.103 18.9611C20.633 19.0311 21.043 19.4811 21.223 19.9611C21.283 20.1211 21.323 20.2911 21.323 20.4611C21.323 20.5011 21.293 20.531 21.253 20.531C21.223 20.531 21.203 20.5212 21.193 20.5012C21.023 20.2412 20.863 19.9812 20.663 19.7512C20.473 19.5212 20.253 19.311 20.043 19.091C19.993 19.051 20.023 18.9511 20.093 18.9611H20.103Z" fill="#000072"/>
<path d="M21.183 17.9109C21.833 17.7409 22.673 18.041 22.893 18.721C22.923 18.811 22.943 18.9105 22.943 19.0105C22.943 19.0505 22.913 19.0808 22.873 19.0808C22.853 19.0808 22.833 19.0706 22.813 19.0506C22.613 18.7706 22.413 18.5607 22.123 18.4007C21.833 18.2407 21.513 18.1408 21.193 18.0608C21.123 18.0508 21.113 17.9407 21.193 17.9207L21.183 17.9109Z" fill="#000072"/>
<path d="M21.463 16.6012C21.973 16.3312 22.623 16.2609 23.153 16.5109C23.333 16.6009 23.493 16.7413 23.593 16.9113C23.613 16.9413 23.593 16.9911 23.563 17.0011C23.543 17.0111 23.523 17.0111 23.503 17.0011C23.193 16.8711 22.883 16.7813 22.543 16.7413C22.203 16.7013 21.853 16.7113 21.503 16.7213C21.433 16.7213 21.393 16.621 21.463 16.591V16.6012Z" fill="#000072"/>
</svg>
