<svg width="223" height="84" viewBox="0 0 223 84" fill="none" xmlns="http://www.w3.org/2000/svg">
<g clip-path="url(#clip0_28_56)">
<path d="M197.03 0.379883H0.370003V61.27H197.03V0.379883Z" fill="#439EF9"/>
<path d="M196.66 0.75V60.8896H0.75V0.75H196.66ZM197.41 0H0V61.6396H197.41V0Z" fill="#C9CACA"/>
<path d="M196.66 12.8101L0.520004 60.73" stroke="#C9CACA" stroke-width="0.75" stroke-linejoin="round"/>
<path d="M98.68 57.8301C48.57 57.8301 7.8 48.3898 7.8 36.7998C7.8 25.2098 48.57 15.77 98.68 15.77C148.79 15.77 189.56 25.2098 189.56 36.7998C189.56 48.3898 148.79 57.8301 98.68 57.8301Z" fill="white"/>
<path d="M98.68 16.1396C147.74 16.1396 189.19 25.5999 189.19 36.7999C189.19 47.9999 147.74 57.46 98.68 57.46C49.62 57.46 8.17001 47.9999 8.17001 36.7999C8.17001 25.5999 49.62 16.1396 98.68 16.1396ZM98.68 15.3896C48.28 15.3896 7.42001 24.9699 7.42001 36.7999C7.42001 48.6299 48.28 58.21 98.68 58.21C149.08 58.21 189.94 48.6299 189.94 36.7999C189.94 24.9699 149.08 15.3896 98.68 15.3896Z" fill="#C9CACA"/>
<path d="M22.774 35.9155H21.878L21.75 35.3475C22.038 35.3715 22.31 35.3875 22.574 35.3875C22.766 35.3875 22.87 35.2835 22.87 35.0915V33.1315C22.102 33.1795 21.27 33.2275 20.366 33.2675L20.206 32.7555C20.39 32.7395 20.558 32.6995 20.71 32.6515C21.366 32.3635 22.102 31.9155 22.918 31.3075C22.222 31.3635 21.47 31.4115 20.67 31.4595L20.55 30.9475C20.694 30.9315 20.822 30.8915 20.942 30.8435C21.342 30.6435 21.814 30.2515 22.358 29.6595C21.678 29.6915 20.958 29.7075 20.19 29.7075L20.022 29.2035C22.318 29.2035 24.23 29.0355 25.75 28.6995L26.03 29.1875C25.198 29.3795 24.222 29.5235 23.086 29.6115C22.59 30.1875 22.086 30.6355 21.574 30.9715C22.214 30.9395 22.862 30.8915 23.518 30.8355C23.878 30.5475 24.246 30.2275 24.63 29.8835L25.158 30.1475C23.806 31.3395 22.63 32.1955 21.622 32.7235C22.926 32.6515 24.046 32.5635 24.974 32.4515C24.774 32.1955 24.566 31.9315 24.35 31.6755L24.782 31.4115C25.438 32.1795 25.942 32.8435 26.294 33.4115L25.83 33.7395C25.678 33.4675 25.502 33.1955 25.31 32.9155C24.758 32.9795 24.142 33.0355 23.454 33.0915V35.2355C23.454 35.6835 23.222 35.9155 22.774 35.9155ZM24.55 33.5795C25.358 34.1635 26.03 34.7475 26.574 35.3395L26.166 35.7475C25.678 35.1875 25.014 34.5875 24.166 33.9475L24.55 33.5795ZM21.502 33.6355L21.91 33.9955C21.366 34.6515 20.694 35.2195 19.894 35.7075L19.534 35.2435C20.318 34.7795 20.974 34.2435 21.502 33.6355ZM30.126 34.1155V34.6675C29.39 35.0355 28.558 35.3395 27.63 35.5635L27.558 34.9875C28.534 34.7715 29.39 34.4835 30.126 34.1155ZM28.846 28.5875L29.398 28.8115C28.998 29.8355 28.59 30.6515 28.174 31.2595C28.526 31.2115 28.878 31.1475 29.23 31.0835C29.374 30.8115 29.518 30.5315 29.67 30.2275L30.19 30.4275C29.486 31.7555 28.902 32.7075 28.438 33.2835C28.998 33.1395 29.558 32.9475 30.126 32.6995V33.2355C29.286 33.5875 28.478 33.8195 27.71 33.9475L27.55 33.4195C27.654 33.3715 27.742 33.3075 27.814 33.2435C28.118 32.9235 28.494 32.3875 28.934 31.6195C28.502 31.6995 28.062 31.7795 27.622 31.8435L27.47 31.3155C27.566 31.2755 27.646 31.2035 27.726 31.0915C28.158 30.3635 28.526 29.5315 28.846 28.5875ZM30.398 32.0995L30.27 31.5875C30.318 31.5715 30.35 31.5555 30.382 31.5475C30.654 31.3475 30.998 30.8355 31.43 30.0035H30.062V29.4515H32.102C31.99 29.1475 31.87 28.8755 31.742 28.6275L32.326 28.5315C32.446 28.8035 32.566 29.1155 32.678 29.4515H34.478V30.0035H32.03C31.678 30.6995 31.366 31.2035 31.094 31.5235C31.838 31.4595 32.582 31.3715 33.318 31.2515C33.142 30.9955 32.95 30.7315 32.75 30.4755L33.19 30.2035C33.734 30.8995 34.158 31.5075 34.454 32.0355L34.006 32.3475C33.894 32.1395 33.774 31.9395 33.638 31.7315C32.646 31.8915 31.566 32.0115 30.398 32.0995ZM31.046 32.4275H31.606C31.566 33.4355 31.438 34.1795 31.23 34.6515C30.998 35.1475 30.614 35.5715 30.07 35.9235L29.702 35.4675C30.174 35.1635 30.51 34.8115 30.71 34.4035C30.902 33.9875 31.014 33.3315 31.046 32.4275ZM33.894 35.7955H33.334C32.854 35.7955 32.614 35.5635 32.614 35.0995V32.3555H33.166V35.0035C33.166 35.1715 33.222 35.2595 33.35 35.2755H33.87C34.046 35.2595 34.15 35.1635 34.182 34.9875C34.214 34.7635 34.238 34.4195 34.238 33.9475L34.734 34.1235C34.734 34.8755 34.678 35.3475 34.574 35.5235C34.47 35.6835 34.246 35.7795 33.894 35.7955ZM36.39 35.8675H35.67L35.55 35.3075C35.774 35.3235 35.982 35.3395 36.19 35.3395C36.382 35.3395 36.486 35.2355 36.486 35.0355V33.0835C36.182 33.2035 35.87 33.3155 35.558 33.4115L35.422 32.8355C35.782 32.7475 36.134 32.6355 36.486 32.4995V30.6915H35.518V30.1395H36.486V28.6275H37.078V30.1395H37.886V30.6915H37.078V32.2515C37.31 32.1395 37.542 32.0275 37.766 31.8995V32.4835C37.542 32.6035 37.31 32.7155 37.078 32.8275V35.1875C37.078 35.6355 36.846 35.8675 36.39 35.8675ZM38.51 28.8835H41.998V31.6595H38.51V28.8835ZM41.438 31.1875V30.4995H39.07V31.1875H41.438ZM39.07 30.0515H41.438V29.3555H39.07V30.0515ZM37.95 32.2195H42.526V32.7315H40.526V33.6355H42.198V34.1555H40.526V35.1875C40.846 35.2355 41.222 35.2595 41.662 35.2595C42.078 35.2595 42.438 35.2435 42.734 35.2195L42.574 35.7795C42.254 35.7795 41.958 35.7715 41.702 35.7715C40.646 35.7635 39.926 35.6595 39.542 35.4675C39.238 35.3075 38.958 35.0035 38.718 34.5555C38.526 35.0515 38.262 35.5075 37.918 35.9235L37.494 35.5555C38.102 34.8195 38.438 33.9875 38.502 33.0755L39.014 33.1315C38.998 33.4195 38.958 33.6915 38.894 33.9635C39.15 34.4995 39.446 34.8435 39.782 34.9955C39.838 35.0195 39.902 35.0435 39.974 35.0675V32.7315H37.95V32.2195ZM46.646 35.8435H45.614L45.494 35.2835C45.83 35.2995 46.142 35.3155 46.446 35.3155C46.686 35.3155 46.806 35.1955 46.806 34.9715V31.6435H43.662V31.0755H50.478V31.6435H47.39V35.1155C47.39 35.5955 47.142 35.8435 46.646 35.8435ZM44.894 32.5235L45.462 32.6435C45.126 33.7475 44.662 34.6995 44.054 35.4995L43.55 35.1875C44.166 34.3875 44.614 33.4995 44.894 32.5235ZM49.118 32.4435C49.662 33.3075 50.142 34.2195 50.542 35.1955L50.014 35.4355C49.582 34.3715 49.11 33.4355 48.598 32.6195L49.118 32.4435ZM44.398 29.0435H49.766V29.6035H44.398V29.0435ZM53.07 30.2675C53.206 30.2675 53.326 30.3155 53.422 30.4195C53.518 30.5075 53.566 30.6195 53.566 30.7635C53.566 30.8995 53.518 31.0115 53.422 31.1075C53.326 31.2035 53.206 31.2515 53.07 31.2515C52.926 31.2515 52.814 31.2035 52.718 31.1075C52.622 31.0115 52.582 30.8995 52.582 30.7635C52.582 30.6195 52.622 30.5075 52.718 30.4195C52.814 30.3155 52.926 30.2675 53.07 30.2675ZM53.07 33.1955C53.206 33.1955 53.326 33.2435 53.422 33.3475C53.518 33.4355 53.566 33.5475 53.566 33.6915C53.566 33.8275 53.518 33.9395 53.422 34.0355C53.326 34.1315 53.206 34.1795 53.07 34.1795C52.926 34.1795 52.814 34.1315 52.718 34.0355C52.622 33.9395 52.582 33.8275 52.582 33.6915C52.582 33.5475 52.622 33.4355 52.718 33.3475C52.814 33.2435 52.926 33.1955 53.07 33.1955ZM62.102 29.4835H64.246C64.126 29.1635 63.99 28.8675 63.83 28.5955L64.43 28.4995C64.558 28.7875 64.694 29.1155 64.822 29.4835H66.75V30.0035H64.422C63.918 30.7635 63.478 31.3075 63.102 31.6355C63.678 31.6115 64.254 31.5795 64.83 31.5395C65.038 31.2595 65.23 30.9555 65.406 30.6355L65.894 30.8915C65.118 32.3475 63.982 33.3395 62.494 33.8755L62.19 33.3955C63.07 33.0995 63.806 32.6435 64.398 32.0355C63.774 32.0755 63.102 32.1075 62.39 32.1315L62.262 31.6355C62.31 31.6195 62.342 31.6035 62.374 31.5875C62.742 31.3875 63.214 30.8595 63.79 30.0035H62.102V29.4835ZM64.902 34.3315C64.118 35.0195 63.206 35.5475 62.166 35.8995L61.854 35.4035C63.782 34.7875 65.23 33.5955 66.19 31.8195L66.678 32.0835C66.278 32.8035 65.806 33.4435 65.27 33.9875C65.846 34.4835 66.342 34.9795 66.758 35.4835L66.342 35.8995C65.982 35.4035 65.502 34.8755 64.902 34.3315ZM60.382 28.6995C60.91 29.0995 61.35 29.4995 61.718 29.8995L61.326 30.2915C60.998 29.9155 60.55 29.5155 59.982 29.0915L60.382 28.6995ZM59.406 31.0515H61.134V34.6195C61.414 34.3875 61.71 34.1155 62.022 33.8115L62.182 34.4195C61.694 34.8835 61.174 35.2995 60.63 35.6595L60.406 35.1475C60.518 35.0435 60.582 34.9315 60.582 34.8035V31.6035H59.406V31.0515ZM69.87 34.6115H69.358V35.9155H68.83V30.3875H68.238V34.6515H67.726V29.8835H68.83V28.6435H69.358V29.8835H70.47V33.8675C70.47 34.3635 70.27 34.6115 69.87 34.6115ZM69.358 30.3875V34.1235L69.71 34.1395C69.878 34.1395 69.966 34.0115 69.966 33.7555V30.3875H69.358ZM72.166 28.6035H72.726V30.0515H74.662V30.5795H72.726V32.1715H74.278V35.9635H73.734V35.5555H71.518V35.9635H70.982V32.1715H72.166V28.6035ZM71.518 35.0195H73.734V32.6915H71.518V35.0195ZM75.574 32.0435H78.942V30.9075C79.63 30.5155 80.286 30.0435 80.91 29.4995H76.414V28.9555H81.694V29.4995C81.062 30.0995 80.342 30.6675 79.526 31.2035V32.0435H82.566V32.6035H79.526V35.1635C79.526 35.6435 79.278 35.8835 78.79 35.8835H77.422L77.27 35.3235C77.67 35.3395 78.094 35.3475 78.558 35.3475C78.814 35.3475 78.942 35.2195 78.942 34.9795V32.6035H75.574V32.0435ZM84.854 31.0515H86.798C86.838 30.6915 86.862 30.3075 86.862 29.8915H87.422C87.422 30.3075 87.398 30.6915 87.358 31.0515H89.286V31.5955H87.286C87.254 31.7715 87.214 31.9475 87.166 32.1075C88.014 32.7875 88.734 33.4675 89.31 34.1475L88.894 34.5635C88.422 33.9395 87.79 33.2915 87.006 32.6035C86.678 33.4035 86.046 34.0595 85.102 34.5795L84.742 34.1395C85.638 33.6515 86.238 33.0355 86.526 32.2835C86.598 32.0675 86.662 31.8355 86.71 31.5955H84.854V31.0515ZM90.302 28.9715V35.9235H89.726V35.5635H84.414V35.9235H83.838V28.9715H90.302ZM84.414 35.0195H89.726V29.5155H84.414V35.0195ZM95.99 31.8035H96.534V34.0515H95.99V31.8035ZM92.094 28.6995C92.67 29.0835 93.158 29.4675 93.55 29.8515L93.15 30.2515C92.798 29.8835 92.31 29.4995 91.686 29.0915L92.094 28.6995ZM91.878 30.6435C92.446 31.0355 92.926 31.4275 93.318 31.8195L92.918 32.2195C92.566 31.8435 92.086 31.4515 91.47 31.0355L91.878 30.6435ZM92.99 32.8195L93.494 33.0195C93.07 34.0435 92.598 34.9955 92.07 35.8915L91.542 35.6595C92.102 34.7315 92.582 33.7875 92.99 32.8195ZM98.102 32.2755L98.574 32.5555C97.758 34.3075 96.15 35.4355 93.742 35.9475L93.446 35.4435C95.782 34.9635 97.334 33.9075 98.102 32.2755ZM96.062 28.6035H96.614V29.5155H98.334V30.0435H96.614V30.9955H98.726V31.5555H93.638V30.9955H94.478V29.2835H95.006V30.9955H96.062V28.6035ZM94.742 32.2275L95.238 32.4115C94.918 33.2355 94.494 33.8675 93.966 34.2995L93.55 33.9315C94.086 33.5075 94.486 32.9395 94.742 32.2275ZM101.446 29.5235H100.07V28.9555H104.838V29.3315C104.686 30.0275 104.534 30.6275 104.39 31.1315H106.006V31.4675C105.774 32.5555 105.27 33.4835 104.494 34.2355C105.102 34.6835 105.814 35.0915 106.63 35.4435L106.254 35.9555C105.39 35.5635 104.654 35.1235 104.046 34.6275C103.342 35.1875 102.47 35.6355 101.438 35.9875L101.102 35.4515C102.094 35.1155 102.918 34.7075 103.574 34.2195C102.83 33.5155 102.278 32.7315 101.918 31.8515C101.654 33.6275 100.966 34.9875 99.862 35.9155L99.422 35.5235C100.75 34.4275 101.422 32.6755 101.446 30.2595V29.5235ZM104.014 33.8515C104.702 33.2195 105.166 32.4835 105.406 31.6515H103.67C103.83 31.1715 104.014 30.4675 104.206 29.5235H102.038V30.2595C102.038 30.3875 102.03 30.5075 102.03 30.6355C102.318 31.8835 102.974 32.9555 104.014 33.8515ZM114.15 33.3155H110.182V32.8195H113.598V32.2195H110.358V31.7235H113.598V31.1155H110.478V30.6515C110.366 30.7315 110.262 30.8115 110.166 30.8755L109.83 30.4355C110.614 29.9235 111.142 29.3075 111.414 28.5715L111.99 28.6435C111.926 28.8195 111.846 28.9955 111.766 29.1555H113.622V29.5795C113.382 29.9795 113.134 30.3155 112.894 30.6035H114.15V33.3155ZM111.454 29.6595C111.198 30.0115 110.894 30.3235 110.542 30.6035H112.278C112.518 30.3315 112.75 30.0195 112.982 29.6595H111.454ZM107.742 28.9315H110.03V29.3875C109.806 30.1075 109.542 30.8675 109.238 31.6515C109.622 32.3635 109.83 33.0115 109.862 33.5875C109.862 33.9315 109.79 34.1795 109.662 34.3395C109.47 34.5235 109.142 34.6195 108.678 34.6275L108.494 34.0435C108.614 34.0595 108.718 34.0755 108.806 34.0755C109.006 34.0595 109.142 34.0195 109.206 33.9475C109.27 33.8755 109.31 33.7555 109.31 33.5875C109.31 33.0355 109.094 32.4195 108.67 31.7395C109.006 30.9075 109.27 30.1475 109.462 29.4755H108.302V35.9475H107.742V28.9315ZM114.038 33.6595C114.326 34.1635 114.574 34.6995 114.798 35.2675L114.318 35.4835C114.078 34.8595 113.822 34.2995 113.542 33.8195L114.038 33.6595ZM110.254 33.8115L110.758 33.9155C110.614 34.5955 110.406 35.1795 110.142 35.6755L109.662 35.3715C109.934 34.8995 110.126 34.3795 110.254 33.8115ZM112.902 35.8755H111.774C111.334 35.8755 111.118 35.6275 111.118 35.1395V33.7155H111.654V35.0195C111.654 35.2435 111.75 35.3555 111.942 35.3555H112.806C112.934 35.3555 113.022 35.3235 113.078 35.2675C113.142 35.1875 113.182 34.9475 113.214 34.5555L113.71 34.7235C113.662 35.2675 113.566 35.5955 113.438 35.7235C113.326 35.8195 113.142 35.8755 112.902 35.8755ZM112.382 33.5315C112.686 33.8755 112.926 34.1795 113.094 34.4355L112.662 34.7395C112.494 34.4515 112.262 34.1395 111.974 33.7955L112.382 33.5315ZM121.478 31.8515C121.91 33.0035 122.294 34.3155 122.638 35.7955L122.062 35.9395C121.998 35.6515 121.934 35.3715 121.87 35.1075C120.822 35.3155 119.686 35.5075 118.454 35.6835L118.342 35.1235C118.51 35.0755 118.606 35.0115 118.638 34.9235L120.366 28.7955L120.942 28.8755L119.19 35.0035C120.182 34.8595 121.03 34.7155 121.734 34.5715C121.51 33.6915 121.254 32.8435 120.966 32.0275L121.478 31.8515ZM115.598 30.7635H117.022V29.5875C116.622 29.6515 116.198 29.6995 115.766 29.7395L115.646 29.1875C116.79 29.0915 117.806 28.9155 118.686 28.6595L118.886 29.1955C118.486 29.3075 118.054 29.4035 117.606 29.4915V30.7635H118.902V31.3155H117.606V31.6355C118.006 32.0195 118.406 32.4515 118.806 32.9315L118.486 33.4195C118.15 32.8915 117.854 32.4755 117.606 32.1555V35.9155H117.022V32.2675C116.694 33.0275 116.254 33.7155 115.71 34.3395L115.454 33.6915C116.166 32.9955 116.678 32.2035 116.982 31.3155H115.598V30.7635ZM129.75 32.2275H124.726V34.5875C124.726 34.9395 124.91 35.1235 125.278 35.1235H129.294C129.486 35.1235 129.646 35.0755 129.766 34.9795C129.926 34.8355 130.03 34.3235 130.078 33.4435L130.638 33.6195C130.558 34.6115 130.422 35.2035 130.23 35.4115C130.054 35.5795 129.79 35.6675 129.454 35.6835H125.118C124.47 35.6835 124.15 35.3475 124.15 34.6915V30.4915H124.726V31.6755H129.166V29.5875H123.83V29.0275H129.75V32.2275ZM132.374 32.8035C132.134 33.0995 131.862 33.3955 131.574 33.6835L131.406 33.1075C132.302 32.1715 132.894 31.2675 133.19 30.3875H131.558V29.8595H132.526C132.398 29.4755 132.254 29.0995 132.094 28.7475L132.646 28.5955C132.822 29.0115 132.958 29.3955 133.054 29.7395L132.75 29.8595H133.734V30.3315C133.566 30.9075 133.302 31.4755 132.934 32.0355V32.0835C133.038 32.1795 133.142 32.2675 133.238 32.3635C133.43 32.2035 133.614 31.9635 133.782 31.6595L134.11 31.9875C133.934 32.2755 133.742 32.5075 133.534 32.6755C133.718 32.8755 133.886 33.0835 134.046 33.2995L133.734 33.7715C133.47 33.3475 133.206 32.9795 132.934 32.6755V35.9475H132.374V32.8035ZM136.142 28.6035H136.718V29.5715H138.486V29.8515C138.414 30.3155 138.302 30.7715 138.15 31.2195L137.63 31.0755C137.734 30.7875 137.83 30.4595 137.91 30.1075H136.718V31.7475H138.11V32.2435C137.918 33.0835 137.582 33.7955 137.086 34.3795C137.542 34.7795 138.102 35.1235 138.774 35.4195L138.462 35.9235C137.774 35.5875 137.19 35.2035 136.726 34.7715C136.214 35.2515 135.59 35.6435 134.854 35.9395L134.566 35.4275C135.262 35.1555 135.846 34.8035 136.318 34.3715C135.758 33.7555 135.382 33.0595 135.19 32.2755H134.902V32.3635C134.894 33.7475 134.582 34.9315 133.966 35.9075L133.494 35.4995C134.038 34.6835 134.326 33.6435 134.35 32.3795V29.5715H136.142V28.6035ZM136.142 30.1075H134.902V31.7475H136.142V30.1075ZM136.678 33.9875C137.086 33.4915 137.382 32.9235 137.566 32.2755H135.71C135.886 32.9155 136.214 33.4835 136.678 33.9875ZM143.078 28.6675C143.302 28.9955 143.494 29.3475 143.67 29.7315L143.182 29.9475C142.998 29.5315 142.798 29.1555 142.574 28.8275L143.078 28.6675ZM144.742 30.6835H144.71V32.1875H144.15V30.6835H144.126C143.638 31.4195 143.07 31.9635 142.414 32.3235L142.102 31.8835C142.662 31.5955 143.174 31.1955 143.622 30.6835H142.334V30.1635H144.15V28.6115H144.71V30.1635H146.502V30.6835H145.206C145.526 31.1315 146.046 31.5315 146.758 31.8835L146.414 32.3155C145.63 31.8275 145.078 31.2835 144.742 30.6835ZM145.798 28.6355L146.27 28.8595C146.11 29.2355 145.894 29.6035 145.63 29.9715L145.182 29.7315C145.438 29.3635 145.646 28.9955 145.798 28.6355ZM143.782 32.2515L144.35 32.3155C144.278 32.5075 144.206 32.6835 144.134 32.8595H146.734V33.3715H145.854C145.734 33.9155 145.502 34.3715 145.158 34.7395C145.718 34.9795 146.246 35.2275 146.758 35.4995L146.446 35.9635C145.966 35.6835 145.39 35.3955 144.734 35.1075C144.222 35.4595 143.406 35.7475 142.302 35.9635L142.086 35.4595C142.958 35.3075 143.638 35.0995 144.126 34.8435C143.694 34.6595 143.246 34.4755 142.766 34.2995C142.966 33.9795 143.142 33.6675 143.302 33.3715H142.118V32.8595H143.55C143.638 32.6515 143.718 32.4435 143.782 32.2515ZM145.318 33.3715H143.878C143.742 33.6195 143.598 33.8515 143.446 34.0755C143.846 34.2115 144.23 34.3555 144.614 34.5155C144.958 34.2115 145.19 33.8355 145.318 33.3715ZM141.158 31.8115V35.9155H140.606V31.8195C140.35 32.6035 140.014 33.3155 139.598 33.9555L139.35 33.3315C139.934 32.5635 140.35 31.6835 140.59 30.7075H139.534V30.1715H140.606V28.6035H141.158V30.1715H142.054V30.7075H141.158V31.2115C141.478 31.5715 141.798 31.9715 142.118 32.4035L141.814 32.8595C141.558 32.4275 141.342 32.0755 141.158 31.8115ZM150.782 30.5315H147.806V29.9635H150.83C150.694 29.5395 150.526 29.1315 150.334 28.7395L150.894 28.5875C151.094 29.0435 151.246 29.4595 151.358 29.8435L151.046 29.9635H154.342V30.5315H151.366V32.4195H153.958V32.9555H151.366V35.0995H154.622V35.6675H147.526V35.0995H150.782V32.9555H148.19V32.4195H150.782V30.5315ZM162.15 33.3155H158.182V32.8195H161.598V32.2195H158.358V31.7235H161.598V31.1155H158.478V30.6515C158.366 30.7315 158.262 30.8115 158.166 30.8755L157.83 30.4355C158.614 29.9235 159.142 29.3075 159.414 28.5715L159.99 28.6435C159.926 28.8195 159.846 28.9955 159.766 29.1555H161.622V29.5795C161.382 29.9795 161.134 30.3155 160.894 30.6035H162.15V33.3155ZM159.454 29.6595C159.198 30.0115 158.894 30.3235 158.542 30.6035H160.278C160.518 30.3315 160.75 30.0195 160.982 29.6595H159.454ZM155.742 28.9315H158.03V29.3875C157.806 30.1075 157.542 30.8675 157.238 31.6515C157.622 32.3635 157.83 33.0115 157.862 33.5875C157.862 33.9315 157.79 34.1795 157.662 34.3395C157.47 34.5235 157.142 34.6195 156.678 34.6275L156.494 34.0435C156.614 34.0595 156.718 34.0755 156.806 34.0755C157.006 34.0595 157.142 34.0195 157.206 33.9475C157.27 33.8755 157.31 33.7555 157.31 33.5875C157.31 33.0355 157.094 32.4195 156.67 31.7395C157.006 30.9075 157.27 30.1475 157.462 29.4755H156.302V35.9475H155.742V28.9315ZM162.038 33.6595C162.326 34.1635 162.574 34.6995 162.798 35.2675L162.318 35.4835C162.078 34.8595 161.822 34.2995 161.542 33.8195L162.038 33.6595ZM158.254 33.8115L158.758 33.9155C158.614 34.5955 158.406 35.1795 158.142 35.6755L157.662 35.3715C157.934 34.8995 158.126 34.3795 158.254 33.8115ZM160.902 35.8755H159.774C159.334 35.8755 159.118 35.6275 159.118 35.1395V33.7155H159.654V35.0195C159.654 35.2435 159.75 35.3555 159.942 35.3555H160.806C160.934 35.3555 161.022 35.3235 161.078 35.2675C161.142 35.1875 161.182 34.9475 161.214 34.5555L161.71 34.7235C161.662 35.2675 161.566 35.5955 161.438 35.7235C161.326 35.8195 161.142 35.8755 160.902 35.8755ZM160.382 33.5315C160.686 33.8755 160.926 34.1795 161.094 34.4355L160.662 34.7395C160.494 34.4515 160.262 34.1395 159.974 33.7955L160.382 33.5315ZM163.59 29.1155H165.454V28.6035H166.046V29.1155H168.102V28.6115H168.694V29.1155H170.558V29.6195H168.694V30.0595H169.102V30.5075H169.742C169.662 30.2915 169.574 30.0915 169.478 29.9075L169.966 29.8275C170.046 30.0275 170.134 30.2515 170.214 30.5075H170.614V30.9955H169.11C169.142 32.0115 169.206 32.7955 169.302 33.3395C169.318 33.4355 169.334 33.5235 169.35 33.6035C169.574 33.0115 169.726 32.3235 169.806 31.5315L170.294 31.6355C170.166 32.7715 169.918 33.6915 169.542 34.4115C169.59 34.5715 169.638 34.7075 169.694 34.8195C169.838 35.1235 169.958 35.2835 170.038 35.2835C170.134 35.2755 170.23 34.9155 170.31 34.1955L170.726 34.4275C170.59 35.4195 170.39 35.9155 170.134 35.9155C169.926 35.9155 169.694 35.7155 169.454 35.3315C169.374 35.2035 169.31 35.0675 169.246 34.9075C168.942 35.3235 168.59 35.6515 168.19 35.8915L167.918 35.4595L168.054 35.3715H165.958V31.4675H168.238V31.9315H167.534V32.6275H168.23V34.1475H167.534V34.9075H168.238V35.2355C168.542 34.9795 168.806 34.6675 169.03 34.2915C168.958 34.0595 168.894 33.8115 168.846 33.5395C168.718 32.8835 168.638 32.0355 168.606 30.9955H165.51V33.4355C165.494 34.4755 165.31 35.3075 164.958 35.9395L164.542 35.5635C164.83 35.0515 164.974 34.3475 164.99 33.4355V33.3475H164.35C164.318 34.4195 164.118 35.1635 163.766 35.5875L163.366 35.2755C163.686 34.9235 163.862 34.2835 163.894 33.3475H163.438V32.8675H164.99V32.0595H163.766V30.2355H164.262V31.5795H164.99V30.5075H168.598V30.1795H168.102V29.6195H166.046V30.1715H165.454V29.6195H163.59V29.1155ZM167.078 31.9315H166.43V32.6275H167.078V31.9315ZM166.43 33.0515V33.7155H167.782V33.0515H166.43ZM166.43 34.1475V34.9075H167.078V34.1475H166.43Z" fill="black"/>
<path d="M32.652 39.6238H35.1C34.244 40.6718 33.82 41.9198 33.82 43.3598C33.82 44.7998 34.244 46.0398 35.1 47.0958H32.652V39.6238ZM36.036 41.0478H39.076V39.6878H39.924V41.0478H42.956V41.8558H40.548C41.076 43.0318 41.972 44.0798 43.236 44.9998L42.668 45.7198C41.364 44.5758 40.452 43.2958 39.924 41.8798V44.7198H41.548V45.5278H39.924V47.0798H39.076V45.5278H37.516V44.7198H39.076V41.8798C38.5 43.4878 37.556 44.7998 36.228 45.8238L35.74 45.0398C36.972 44.2078 37.868 43.1438 38.444 41.8558H36.036V41.0478ZM46.316 45.7438H45.908V47.0478H45.14V41.5998H44.78V45.7838H44.044V40.8718H45.14V39.7118H45.908V40.8718H47.012V44.8238C47.012 45.4318 46.78 45.7438 46.316 45.7438ZM45.908 41.5998V45.0558L46.076 45.0638C46.212 45.0638 46.284 44.9278 46.284 44.6638V41.5998H45.908ZM48.476 39.6718H49.276V41.0318H51.156V41.7998H49.276V43.1518H50.812V47.0958H50.028V46.7278H48.084V47.0958H47.308V43.1518H48.476V39.6718ZM48.084 45.9598H50.028V43.9118H48.084V45.9598ZM58.276 43.4478H53.34V45.5838C53.34 45.8718 53.484 46.0158 53.772 46.0158H57.748C57.876 46.0158 57.996 45.9678 58.108 45.8718C58.22 45.7598 58.292 45.2878 58.34 44.4718L59.156 44.7278C59.052 45.7518 58.916 46.3518 58.756 46.5278C58.564 46.7038 58.3 46.7998 57.98 46.8158H53.532C52.844 46.8158 52.508 46.4558 52.508 45.7358V41.5918H53.34V42.6478H57.428V40.8238H52.172V40.0238H58.276V43.4478ZM60.876 39.7758C61.388 40.1598 61.82 40.5438 62.172 40.9278L61.604 41.5038C61.292 41.1358 60.86 40.7358 60.308 40.3198L60.876 39.7758ZM59.812 42.0478H61.66V45.3678C61.892 45.1598 62.14 44.9358 62.404 44.6878L62.636 45.5678C62.108 46.0478 61.548 46.4718 60.956 46.8558L60.636 46.1038C60.772 45.9838 60.844 45.8318 60.844 45.6558V42.8478H59.812V42.0478ZM62.676 43.0078H66.58V43.7678C66.356 44.4558 65.988 45.0558 65.476 45.5598C65.972 45.8798 66.572 46.1598 67.284 46.4078L66.836 47.1278C66.052 46.8078 65.388 46.4558 64.86 46.0638C64.236 46.5038 63.476 46.8558 62.564 47.1198L62.1 46.4158C62.924 46.1758 63.62 45.8718 64.196 45.5038C63.684 44.9918 63.324 44.4318 63.132 43.8078H62.676V43.0078ZM63.916 43.8078C64.092 44.2638 64.38 44.6798 64.796 45.0478C65.204 44.6798 65.516 44.2718 65.74 43.8078H63.916ZM63.22 39.9118H66.1V41.5678C66.1 41.7438 66.196 41.8398 66.396 41.8398H67.084V42.5998H66.172C65.572 42.5998 65.276 42.3198 65.276 41.7598V40.6958H64.044V40.9118C64.044 41.7438 63.612 42.3918 62.764 42.8398L62.204 42.1998C62.876 41.9198 63.22 41.5198 63.22 40.9998V39.9118ZM68.036 41.8878H71.06C71.076 41.7758 71.084 41.6638 71.092 41.5518H68.532V39.9198H74.468V41.5518H71.948L71.9 41.8878H74.964V42.5038H71.796L71.724 42.8318H73.988V46.3038H75.108V46.9438H67.892V46.3038H69.012V42.8318H70.9L70.964 42.5038H68.036V41.8878ZM69.836 46.3038H73.172V45.9278H69.836V46.3038ZM69.836 45.4398H73.172V45.0798H69.836V45.4398ZM69.836 44.5838H73.172V44.2238H69.836V44.5838ZM69.836 43.7358H73.172V43.3838H69.836V43.7358ZM73.684 40.9838V40.5198H72.748V40.9838H73.684ZM72.004 40.9838V40.5198H70.996V40.9838H72.004ZM70.252 40.9838V40.5198H69.316V40.9838H70.252ZM77.924 43.1918V47.0478H77.092V43.3358C76.836 44.0558 76.516 44.7118 76.132 45.3038L75.756 44.3438C76.348 43.6478 76.788 42.8478 77.06 41.9518H75.932V41.1438H77.092V39.6718H77.924V41.1438H78.892V41.9518H77.924V42.2798C78.308 42.6318 78.692 43.0318 79.076 43.4638L78.596 44.1918C78.34 43.7918 78.116 43.4558 77.924 43.1918ZM81.892 40.8718H80.092C80.188 41.9278 80.468 42.8958 80.94 43.7678C81.412 42.9038 81.732 41.9438 81.892 40.8718ZM80.46 44.5198C79.812 43.4158 79.428 42.1998 79.3 40.8718H79.004V40.0638H82.708V40.8558C82.484 42.2798 82.06 43.5198 81.436 44.5598C81.932 45.2478 82.54 45.8638 83.276 46.4078L82.708 47.0798C82.012 46.5198 81.428 45.9118 80.956 45.2718C80.412 45.9758 79.772 46.5758 79.02 47.0638L78.476 46.3838C79.276 45.8558 79.94 45.2318 80.46 44.5198ZM84.06 39.9198H86.716V40.5758C86.476 41.2478 86.204 41.9598 85.892 42.7118C86.388 43.4558 86.652 44.0958 86.692 44.6398C86.692 45.0238 86.612 45.3038 86.452 45.4638C86.212 45.6718 85.788 45.7838 85.196 45.7918L84.924 44.9438C85.1 44.9758 85.252 44.9918 85.372 44.9918C85.564 44.9758 85.692 44.9518 85.756 44.9038C85.82 44.8558 85.852 44.7678 85.852 44.6398C85.852 44.1038 85.58 43.5038 85.044 42.8398C85.396 42.0478 85.676 41.3358 85.876 40.7038H84.876V47.0798H84.06V39.9198ZM87.764 42.1198V42.7838H89.788V42.1198H87.764ZM89.788 41.3678V40.6958H87.764V41.3678H89.788ZM88.444 43.5438H87.764V45.9438C88.172 45.8158 88.572 45.6638 88.972 45.4718L89.172 46.2478C88.58 46.4958 87.836 46.7358 86.94 46.9598L86.74 46.2238C86.868 46.1838 86.94 46.1038 86.94 45.9918V39.9118H90.604V43.5438H89.196C89.276 43.9278 89.404 44.2798 89.58 44.6078C89.916 44.3998 90.236 44.1198 90.54 43.7518L91.068 44.2878C90.74 44.6718 90.372 44.9758 89.972 45.1998C90.3 45.6158 90.724 45.9838 91.252 46.2878L90.788 47.0238C89.492 46.1678 88.708 45.0078 88.444 43.5438ZM93.052 45.0318C93.268 45.0318 93.452 45.1198 93.596 45.2958C93.732 45.4718 93.804 45.7038 93.804 45.9838C93.804 46.4078 93.676 46.7758 93.436 47.0958C93.188 47.4078 92.852 47.6238 92.436 47.7438V47.2158C92.652 47.1358 92.836 47.0078 92.988 46.8318C93.124 46.6398 93.196 46.4558 93.196 46.2638C93.148 46.2798 93.084 46.2958 92.996 46.2958C92.82 46.2958 92.676 46.2318 92.556 46.1118C92.436 45.9918 92.38 45.8398 92.38 45.6638C92.38 45.4718 92.444 45.3198 92.572 45.2078C92.692 45.0878 92.852 45.0318 93.052 45.0318ZM104.148 44.1838H103.524L103.34 43.4158C103.532 43.4478 103.708 43.4718 103.876 43.4718C103.996 43.4718 104.06 43.3678 104.06 43.1598V41.3678H104.892V43.3598C104.892 43.9038 104.644 44.1838 104.148 44.1838ZM100.748 42.1598C100.58 42.3358 100.412 42.4958 100.252 42.6478L99.724 42.0078C100.38 41.4638 100.948 40.6798 101.444 39.6638L102.26 39.8478C102.044 40.3038 101.812 40.7278 101.564 41.1118V44.1598H100.748V42.1598ZM103.252 39.6558L104.044 39.8398C103.964 40.0078 103.884 40.1678 103.804 40.3278H106.916V40.8398C106.812 41.2398 106.684 41.6318 106.524 42.0238L105.788 41.8158C105.9 41.5998 106.004 41.3518 106.084 41.0798H103.348C103.052 41.5118 102.732 41.8798 102.388 42.1998L101.876 41.5758C102.404 41.1198 102.86 40.4798 103.252 39.6558ZM100.596 44.4958L101.404 44.6558C101.212 45.4558 100.94 46.1438 100.588 46.7358L99.884 46.2798C100.22 45.7198 100.452 45.1198 100.596 44.4958ZM104.66 46.9598H102.644C102.068 46.9598 101.788 46.6478 101.788 46.0318V44.4318H102.636V45.8558C102.636 46.0638 102.724 46.1678 102.9 46.1678H104.508C104.636 46.1678 104.732 46.1198 104.804 46.0318C104.884 45.9358 104.932 45.6638 104.956 45.1998L105.748 45.4558C105.684 46.1918 105.564 46.6238 105.388 46.7598C105.228 46.8878 104.988 46.9598 104.66 46.9598ZM106.116 44.1998C106.62 44.9038 107.004 45.5118 107.276 46.0398L106.58 46.5278C106.292 45.9518 105.916 45.3198 105.436 44.6238L106.116 44.1998ZM103.036 42.0398L103.7 42.3678C103.412 42.9758 103.076 43.4958 102.676 43.9438L102.044 43.4958C102.428 43.0878 102.764 42.5998 103.036 42.0398ZM105.916 42.0318C106.3 42.5038 106.636 43.0238 106.932 43.5998L106.22 43.9678C105.916 43.3598 105.588 42.8158 105.228 42.3438L105.916 42.0318ZM103.732 44.2238C104.1 44.6558 104.388 45.0398 104.58 45.3758L103.932 45.8238C103.724 45.4638 103.444 45.0638 103.092 44.6238L103.732 44.2238ZM111.508 42.4878V43.1598C111.164 43.1918 110.812 43.2318 110.452 43.2638V43.7918H109.684V43.3278C109.196 43.3598 108.684 43.3918 108.156 43.4238L108.052 42.7038C108.628 42.6798 109.172 42.6558 109.684 42.6238V42.1758H108.316L108.14 41.5038C108.316 41.3038 108.476 41.0638 108.636 40.7918H107.932V40.0558H108.98C109.044 39.9038 109.1 39.7518 109.156 39.5918L109.988 39.7278C109.94 39.8398 109.9 39.9518 109.86 40.0558H111.668V40.7918H109.524C109.396 41.0478 109.252 41.2798 109.108 41.4958H109.684V41.0398H110.452V41.4958H111.588V42.1758H110.452V42.5758C110.82 42.5438 111.172 42.5198 111.508 42.4878ZM112.748 42.1838C112.652 42.8238 112.428 43.3918 112.092 43.8798L111.516 43.2798C111.844 42.7918 112.02 42.2158 112.036 41.5438V40.1998C113.092 40.0958 113.876 39.9198 114.404 39.6798L114.948 40.2958C114.364 40.5518 113.652 40.7278 112.804 40.8238V41.4558H115.084V42.1838H114.348V43.7998H113.54V42.1838H112.748ZM114.3 43.9518V47.0798H113.452V46.7998H109.644V47.0798H108.796V43.9518H114.3ZM109.644 46.0958H113.452V45.6878H109.644V46.0958ZM109.644 45.0318H113.452V44.6398H109.644V45.0318ZM116.508 39.9998H122.364V40.8158H119.564V41.2798C119.548 41.7118 119.524 42.1118 119.476 42.4878H122.996V43.2958H120.604V45.7758C120.604 46.0318 120.724 46.1678 120.964 46.1678H121.82C121.964 46.1678 122.076 46.1038 122.148 45.9918C122.236 45.8798 122.292 45.5198 122.324 44.9118L123.108 45.1758C123.036 46.0398 122.908 46.5518 122.732 46.7118C122.572 46.8638 122.316 46.9438 121.98 46.9438H120.708C120.084 46.9438 119.772 46.6078 119.772 45.9438V43.2958H119.34C119.196 43.9758 118.996 44.5678 118.732 45.0638C118.236 45.9438 117.436 46.6158 116.332 47.0798L115.86 46.3358C116.964 45.8318 117.7 45.1998 118.084 44.4478C118.244 44.0958 118.372 43.7118 118.476 43.2958H115.996V42.4878H118.62C118.668 42.1038 118.7 41.7038 118.716 41.2798V40.8158H116.508V39.9998ZM125.044 42.6238H129.988V45.6878H125.044V42.6238ZM129.172 44.9518V44.5198H125.86V44.9518H129.172ZM125.86 43.8158H129.172V43.3598H125.86V43.8158ZM124.196 40.3038H127.108V39.6558H127.924V40.3038H130.836V41.0718H128.652C129.244 41.5198 130.084 41.8798 131.188 42.1518L130.828 42.9038C129.492 42.4478 128.524 41.8558 127.924 41.1278V42.3918H127.108V41.1278C126.476 41.8398 125.524 42.4318 124.252 42.9038L123.796 42.1678C124.932 41.8638 125.796 41.5038 126.396 41.0718H124.196V40.3038ZM124.036 46.1038H130.972V46.8638H124.036V46.1038ZM132.428 41.0558H134.94L135.092 40.7198C134.348 40.7518 133.548 40.7758 132.7 40.7758L132.476 40.0958C134.724 40.0958 136.628 39.9438 138.188 39.6478L138.572 40.3038C137.804 40.4638 136.916 40.5838 135.9 40.6638C135.852 40.7998 135.804 40.9278 135.756 41.0558H138.604V41.7598H135.428C135.364 41.8718 135.3 41.9918 135.236 42.1038H139.068V42.8398H134.74C134.644 42.9598 134.556 43.0718 134.468 43.1758H138.324V47.0878H137.532V46.7918H134.132V47.0878H133.34V44.3118C132.988 44.6078 132.62 44.8878 132.236 45.1598L131.788 44.4398C132.54 43.9278 133.18 43.3998 133.708 42.8398H131.996V42.1038H134.308C134.388 41.9918 134.468 41.8718 134.548 41.7598H132.428V41.0558ZM134.132 44.8078V45.1358H137.532V44.8078H134.132ZM137.532 44.1838V43.8478H134.132V44.1838H137.532ZM134.132 45.7598V46.1198H137.532V45.7598H134.132ZM140.508 39.7598C140.988 39.9118 141.428 40.0958 141.828 40.3198L141.38 40.9918C140.964 40.7278 140.532 40.5198 140.092 40.3758L140.508 39.7598ZM142.892 39.6318L143.716 39.7358C143.668 39.8878 143.612 40.0318 143.548 40.1678H146.66V40.6638C146.572 41.0478 146.46 41.4398 146.316 41.8238L145.516 41.5838C145.628 41.3838 145.724 41.1518 145.804 40.8958H144.724C144.692 41.0398 144.652 41.1758 144.612 41.3038C145.036 41.8478 145.828 42.2318 146.996 42.4398L146.7 43.1678C145.58 42.9358 144.772 42.5358 144.268 41.9598C144.188 42.0558 144.116 42.1438 144.044 42.2238C143.676 42.6078 143.028 42.9038 142.108 43.1198L141.796 42.3758C142.54 42.2238 143.076 42.0078 143.404 41.7358C143.644 41.5198 143.82 41.2398 143.924 40.8958H143.124C142.916 41.1678 142.668 41.4158 142.388 41.6398L141.892 40.9918C142.388 40.6238 142.716 40.1758 142.892 39.6318ZM146.132 43.2078V45.5998H145.292V43.9838H141.684V45.6958H140.852V43.2078H146.132ZM143.132 44.1678L143.972 44.2318C143.86 45.2558 143.612 45.9358 143.244 46.2558C142.852 46.6798 141.9 46.9518 140.388 47.0798L140.052 46.3198C141.3 46.2638 142.124 46.0798 142.524 45.7678C142.876 45.4558 143.076 44.9198 143.132 44.1678ZM141.484 41.3038L141.964 41.8718C141.564 42.2718 141.068 42.6398 140.476 42.9918L139.932 42.3438C140.548 42.0238 141.068 41.6718 141.484 41.3038ZM144.108 45.5358C145.14 45.7838 146.084 46.0878 146.932 46.4478L146.484 47.1438C145.572 46.7278 144.644 46.3998 143.684 46.1678L144.108 45.5358ZM149.708 43.2638V47.0478H148.884V43.5038C148.66 44.1118 148.396 44.6798 148.084 45.1998L147.724 44.2878C148.244 43.5998 148.628 42.8238 148.868 41.9518H147.916V41.1438H148.884V39.6718H149.708V41.1438H150.492V41.9518H149.708V42.2878C150.012 42.6158 150.324 42.9758 150.628 43.3598C151.244 43.1198 151.78 42.8478 152.236 42.5438C151.964 42.2878 151.74 42.0318 151.548 41.7678C151.38 41.9678 151.212 42.1518 151.036 42.3198L150.5 41.6718C151.028 41.1998 151.492 40.5278 151.884 39.6638L152.692 39.8478C152.612 40.0158 152.54 40.1758 152.468 40.3278H154.596V40.9678C154.34 41.5598 153.964 42.0958 153.476 42.5598C153.988 42.8798 154.572 43.1438 155.244 43.3678L154.868 44.1598C154.748 44.1118 154.636 44.0638 154.532 44.0158V47.0558H153.716V46.7758H151.86V47.0558H151.044V44.0478C150.932 44.0958 150.82 44.1358 150.708 44.1838L150.476 43.8638L150.26 44.1918C150.052 43.8238 149.868 43.5198 149.708 43.2638ZM154.412 43.9598C153.82 43.6878 153.308 43.3918 152.868 43.0638C152.404 43.3998 151.868 43.7038 151.268 43.9598H154.412ZM152.82 42.1038C153.172 41.7998 153.46 41.4638 153.684 41.1118H152.02C151.996 41.1438 151.98 41.1678 151.964 41.1998C152.196 41.5358 152.484 41.8318 152.82 42.1038ZM151.86 45.9998H153.716V44.7358H151.86V45.9998ZM155.9 39.6238H158.348V47.0958H155.9C156.748 46.0398 157.18 44.7998 157.18 43.3598C157.18 41.9198 156.748 40.6718 155.9 39.6238Z" fill="black"/>
<path d="M197.03 0.379883H0.370003V12.25H197.03V0.379883Z" fill="white"/>
<path d="M196.66 0.75V11.8696H0.75V0.75H196.66ZM197.41 0H0V12.6196H197.41V0Z" fill="#C9CACA"/>
<path d="M215.75 66.8198V64.5498C215.75 62.4798 214.07 60.79 211.99 60.79C209.91 60.79 208.23 62.4698 208.23 64.5498V66.8198H191.47C190.53 66.8198 189.69 66.33 189.22 65.52C188.75 64.71 188.75 63.7299 189.22 62.9199L201.86 41.1299C202.33 40.3199 203.17 39.8398 204.11 39.8398C205.05 39.8398 205.89 40.3199 206.36 41.1299L219 62.9199C219.47 63.7299 219.47 64.7 219 65.52C218.53 66.33 217.69 66.8198 216.75 66.8198H215.76H215.75ZM204.11 58.48C202.73 58.48 201.61 59.5997 201.61 60.9697C201.61 62.3397 202.73 63.46 204.11 63.46C205.49 63.46 206.6 62.3397 206.6 60.9697C206.6 59.5997 205.48 58.48 204.11 58.48ZM204.11 46.1899C203.43 46.1899 202.77 46.48 202.31 46.98C201.85 47.48 201.62 48.1598 201.69 48.8398L202.38 56.21C202.48 57.11 203.22 57.79 204.12 57.79C205.02 57.79 205.76 57.1097 205.85 56.2197L206.54 48.8496C206.6 48.1696 206.37 47.49 205.91 46.98C205.45 46.48 204.8 46.1899 204.12 46.1899H204.11Z" fill="#439EF9"/>
<path d="M204.11 40.2197C204.91 40.2197 205.63 40.6298 206.03 41.3198L218.67 63.1099C219.07 63.8099 219.07 64.6401 218.67 65.3301C218.27 66.0301 217.55 66.4399 216.74 66.4399H216.12V64.54C216.12 62.26 214.27 60.4097 211.99 60.4097C209.71 60.4097 207.86 62.26 207.86 64.54V66.4399H191.48C190.68 66.4399 189.96 66.0201 189.55 65.3301C189.15 64.6301 189.15 63.7999 189.55 63.1099L202.19 41.3198C202.59 40.6298 203.31 40.2197 204.11 40.2197ZM203.72 58.1299C202.32 58.3199 201.24 59.5197 201.24 60.9697C201.24 62.5497 202.53 63.8398 204.12 63.8398C205.71 63.8398 206.99 62.5497 206.99 60.9697C206.99 59.5197 205.91 58.3199 204.52 58.1299C205.42 57.9599 206.13 57.21 206.23 56.25L206.92 48.8799C206.99 48.0999 206.73 47.31 206.2 46.73C205.67 46.15 204.92 45.8198 204.13 45.8198C203.34 45.8198 202.58 46.1497 202.05 46.7397C201.52 47.3197 201.26 48.1096 201.33 48.8896L202.02 56.27C202.12 57.22 202.83 57.9696 203.74 58.1396M204.11 39.4697C203.11 39.4697 202.11 39.9597 201.54 40.9497L188.9 62.7397C187.76 64.7197 189.18 67.1997 191.48 67.1997H208.61V64.5498C208.61 62.6898 210.13 61.1699 211.99 61.1699C213.85 61.1699 215.37 62.6898 215.37 64.5498V67.1997H216.74C219.03 67.1997 220.46 64.7197 219.32 62.7397L206.68 40.9497C206.11 39.9597 205.11 39.4697 204.11 39.4697ZM204.11 57.4199C203.4 57.4199 202.82 56.8797 202.74 56.1797L202.05 48.8101C201.94 47.6101 202.88 46.5601 204.1 46.5601C205.31 46.5601 206.25 47.6001 206.14 48.8101L205.45 56.1797C205.38 56.8797 204.79 57.4199 204.09 57.4199H204.11ZM204.11 63.0898C202.94 63.0898 201.98 62.1497 201.98 60.9697C201.98 59.7897 202.93 58.8496 204.11 58.8496C205.29 58.8496 206.23 59.7897 206.23 60.9697C206.23 62.1497 205.28 63.0898 204.11 63.0898Z" fill="#C9CACA"/>
<path d="M214.19 83.1396C213.9 83.1396 213.31 82.9397 212.66 82.4897C211.5 81.6897 210.36 80.4997 209.28 78.9697C208.09 77.2897 206.83 74.7497 206.82 74.7197C206.7 74.4697 206.68 74.1797 206.77 73.9097C206.86 73.6397 207.05 73.4298 207.3 73.2998C207.45 73.2298 207.6 73.1899 207.76 73.1899C208.16 73.1899 208.53 73.4198 208.71 73.7798C208.71 73.8298 209.5 75.32 209.91 76.02C210.01 76.19 210.18 76.29 210.37 76.29C210.67 76.29 210.91 76.05 210.91 75.75V64.54C210.91 63.94 211.39 63.46 211.99 63.46C212.59 63.46 213.07 63.94 213.07 64.54V70.7598C213.07 70.9698 213.24 71.1396 213.45 71.1396C213.66 71.1396 213.83 70.9698 213.83 70.7598C213.83 70.1598 214.31 69.6797 214.91 69.6797C214.96 69.6797 215.01 69.6797 215.06 69.6797C215.59 69.7497 215.99 70.2298 215.99 70.7998V71.52C215.99 71.73 216.16 71.8999 216.37 71.8999C216.58 71.8999 216.75 71.73 216.75 71.52C216.75 70.93 217.23 70.4399 217.83 70.4399C217.88 70.4399 217.93 70.4399 217.98 70.4399C218.51 70.5099 218.91 70.9901 218.91 71.5601V72.2798C218.91 72.4898 219.08 72.6597 219.29 72.6597C219.5 72.6597 219.67 72.4898 219.67 72.2798C219.67 71.6898 220.15 71.1997 220.75 71.1997C220.8 71.1997 220.85 71.1997 220.9 71.1997C221.43 71.2697 221.83 71.7498 221.83 72.3198V75.0298C221.83 77.3198 221.14 79.5796 219.9 81.3896L219.22 82.3799C218.92 82.8199 218.43 83.0801 217.92 83.0801H214.24L214.19 83.1396Z" fill="#439EF9"/>
<path d="M211.99 63.8398C212.38 63.8398 212.69 64.16 212.69 64.54V70.7598C212.69 71.1698 213.03 71.5098 213.44 71.5098C213.85 71.5098 214.19 71.1698 214.19 70.7598C214.19 70.5698 214.26 70.3998 214.4 70.2598C214.53 70.1298 214.71 70.0498 214.89 70.0498C214.92 70.0498 214.95 70.0498 214.99 70.0498C215.33 70.0998 215.6 70.4298 215.6 70.7998V71.52C215.6 71.93 215.94 72.27 216.35 72.27C216.76 72.27 217.1 71.93 217.1 71.52C217.1 71.33 217.17 71.16 217.31 71.02C217.44 70.89 217.62 70.8101 217.81 70.8101C217.84 70.8101 217.87 70.8101 217.91 70.8101C218.25 70.8501 218.52 71.1801 218.52 71.5601V72.2798C218.52 72.6898 218.86 73.0298 219.27 73.0298C219.68 73.0298 220.02 72.6898 220.02 72.2798C220.02 72.0898 220.09 71.9198 220.23 71.7798C220.36 71.6498 220.54 71.5698 220.72 71.5698C220.75 71.5698 220.78 71.5698 220.82 71.5698C221.16 71.6198 221.43 71.9498 221.43 72.3198V75.0298C221.43 77.2498 220.77 79.4297 219.56 81.1797L218.88 82.1699C218.65 82.4999 218.28 82.6997 217.89 82.6997H214.21C214.02 82.6997 213.52 82.5399 212.89 82.1099C211.76 81.3299 210.65 80.1797 209.6 78.6797C208.45 77.0497 207.22 74.59 207.17 74.48C207 74.14 207.14 73.7398 207.48 73.5698C207.57 73.5198 207.68 73.5 207.78 73.5C208.04 73.5 208.27 73.6499 208.39 73.8799C208.57 74.2699 209.25 75.5396 209.6 76.1396C209.77 76.4196 210.06 76.5898 210.39 76.5898C210.89 76.5898 211.3 76.1797 211.3 75.6797V64.4697C211.3 64.0797 211.62 63.77 212 63.77M211.99 63.0898C211.19 63.0898 210.54 63.74 210.54 64.54V75.75C210.54 75.85 210.46 75.9097 210.38 75.9097C210.33 75.9097 210.27 75.8901 210.24 75.8301C209.71 74.9101 209.06 73.6296 209.05 73.6196C208.8 73.1196 208.29 72.8198 207.77 72.8198C207.56 72.8198 207.34 72.8697 207.14 72.9697C206.43 73.3197 206.14 74.1799 206.49 74.8799C206.53 74.9599 207.8 77.4997 208.98 79.1797C210.49 81.3197 211.8 82.34 212.45 82.79C213.1 83.24 213.77 83.5098 214.19 83.5098H217.87C218.51 83.5098 219.11 83.1899 219.48 82.6499L220.16 81.6597C221.46 79.7797 222.16 77.4598 222.16 75.0898V72.3799C222.16 71.6399 221.63 70.9799 220.9 70.8799C220.83 70.8799 220.77 70.8696 220.7 70.8696C219.9 70.8696 219.25 71.5198 219.25 72.3198V71.5996C219.25 70.8596 218.72 70.1999 217.99 70.1099C217.92 70.1099 217.86 70.0996 217.79 70.0996C216.99 70.0996 216.34 70.7498 216.34 71.5498V70.8301C216.34 70.0901 215.81 69.4301 215.08 69.3301C215.01 69.3301 214.95 69.3198 214.88 69.3198C214.08 69.3198 213.43 69.9798 213.43 70.7798V64.5601C213.43 63.7601 212.78 63.1099 211.98 63.1099L211.99 63.0898Z" fill="#C9CACA"/>
</g>
<defs>
<clipPath id="clip0_28_56">
<rect width="223" height="84" fill="white"/>
</clipPath>
</defs>
</svg>
