<svg width="143" height="59" viewBox="0 0 143 59" fill="none" xmlns="http://www.w3.org/2000/svg">
<g clip-path="url(#clip0_47_4727)">
<path d="M105.21 21.82C104.61 19.98 103.38 18.67 101.56 17.94C100.23 17.4 98.7298 17.22 96.8598 17.37C95.9498 17.44 94.9998 17.61 93.8598 17.91C92.4398 18.27 91.2198 18.7099 90.1398 19.2299C89.8398 19.3799 89.5898 19.4 89.2798 19.31C87.8498 18.9 86.3898 18.6599 84.9498 18.5999C84.0398 18.5599 83.2998 18.5599 82.6098 18.5999C82.4698 18.5999 82.3898 18.57 82.3098 18.47L82.2598 18.41C82.1998 18.33 82.1298 18.24 82.0498 18.16C80.9398 16.95 79.6398 15.83 78.1998 14.83C76.8698 13.91 75.6198 13.32 74.3598 13.02C73.3198 12.77 72.3998 12.8 71.5498 13.09C70.3598 13.5 69.4598 14.34 68.8698 15.59C68.2598 16.88 67.9598 18.31 67.9398 19.96C67.9398 19.94 67.9298 19.91 67.9198 19.89C67.8898 19.76 67.8598 19.6199 67.8398 19.4899C67.6098 17.9199 67.2098 16.45 66.6298 15.11C66.0998 13.87 65.2998 12.31 63.8398 11.23C62.4298 10.19 60.9498 10.07 59.4298 10.85C58.7498 11.2 58.1498 11.69 57.5798 12.33C56.4298 13.65 55.5898 15.24 54.9198 17.35C54.6398 18.25 54.3098 19.27 54.2498 20.32C54.2498 20.46 54.2298 20.5 54.1298 20.52C53.7598 20.6 53.3898 20.69 53.0298 20.78L52.6898 20.8599C52.1398 19.6499 51.6598 18.74 51.1498 17.91C49.8998 15.9 48.6098 14.49 47.0798 13.48C46.0098 12.77 44.9098 12.5 43.7898 12.68C43.0798 12.79 42.4898 13.06 42.0298 13.48C41.2198 14.22 40.6098 15.14 40.1998 16.23C39.6898 17.6 39.3998 19.11 39.3198 20.83C39.2198 22.89 39.3898 25.04 39.8398 27.39C39.8898 27.65 39.8398 27.81 39.6598 28C38.8398 28.89 38.2498 29.96 37.8898 31.19C37.5098 32.53 37.3898 33.9299 37.5398 35.3699C37.8198 38.0299 38.8498 40.39 40.6098 42.38C41.1498 42.99 41.6698 43.44 42.2098 43.76C42.4898 43.92 42.8098 44.13 43.0798 44.41L43.0498 44.44C42.9598 44.51 42.8698 44.59 42.7898 44.67C42.0498 45.35 41.6398 46.21 41.6098 47.15C41.5298 49.36 43.0398 51.14 45.2798 51.47H45.2998C45.3998 51.49 45.5098 51.51 45.6198 51.47C45.8198 51.4 45.8398 51.27 45.8398 51.19C45.8398 51.07 45.7498 50.98 45.6398 50.95C45.4998 50.91 45.3398 50.8799 45.1398 50.8499C43.8598 50.6299 42.9698 49.93 42.4198 48.69C41.8398 47.38 42.2698 45.7299 43.4098 44.8699C43.5698 44.7499 43.6898 44.74 43.8898 44.83C45.3998 45.53 47.0798 46.04 49.1798 46.46C49.6098 46.55 50.0398 46.61 50.4998 46.68C50.6698 46.71 50.8398 46.73 51.0198 46.76C50.6998 47.49 50.5598 48.1999 50.4698 48.7399C50.3798 49.2899 50.3398 49.83 50.7298 50.29C50.6198 50.38 50.4998 50.44 50.3698 50.5C50.2998 50.53 50.2398 50.5699 50.1698 50.6099C50.1498 50.6199 50.1198 50.64 50.0898 50.65C49.9898 50.69 49.7698 50.78 49.8598 51.02C49.9498 51.25 50.1898 51.18 50.2998 51.14C50.3298 51.14 50.3498 51.1199 50.3798 51.1199C50.4598 51.0999 50.5398 51.06 50.6098 51.02H50.6398C50.7298 50.96 50.8298 50.8999 50.9198 50.8499C51.0198 50.7999 51.1098 50.74 51.2098 50.69C51.2598 50.66 51.2898 50.66 51.2898 50.65C51.2898 50.65 51.2998 50.6799 51.2898 50.7399C51.2898 50.7799 51.2898 50.8199 51.2798 50.8499C51.2798 50.9099 51.2698 50.98 51.2698 51.04C51.2798 51.56 51.5098 51.96 51.9398 52.2C52.6598 52.59 53.7098 52.5 54.2198 52C54.2598 51.96 54.3098 51.9199 54.3498 51.8699C54.4798 51.7499 54.6098 51.6299 54.7198 51.4899C54.8798 51.2899 55.0498 51.2099 55.3098 51.2299C56.0198 51.2799 56.7798 51.2099 57.7598 50.9899C57.9398 50.9499 58.0764 51.02 58.1698 51.2C58.2198 51.28 58.2798 51.39 58.3698 51.47C59.0198 52.04 59.7398 52.59 60.7298 52.53C60.8698 52.53 60.9298 52.56 61.0198 52.71C61.0798 52.81 61.1298 52.92 61.1798 53.02C61.2998 53.26 61.4198 53.5 61.5998 53.71C62.2898 54.5 63.0998 55.2099 64.0998 55.8699C64.3398 56.0299 64.5698 56.1099 64.7898 56.1099C65.0098 56.1099 65.2198 56.04 65.4498 55.9C67.4098 54.67 69.4898 53.37 72.2098 51.69C72.4798 51.52 72.6098 51.2999 72.5998 50.9899C72.5898 50.6299 72.5398 50.32 72.4498 50.03C72.3298 49.63 72.1898 49.16 72.1098 48.65C72.2698 48.62 72.4298 48.6 72.6098 48.59C73.1798 48.56 73.7598 48.56 74.3298 48.55C74.6398 48.55 74.9398 48.55 75.2498 48.55C75.5298 48.55 75.6898 48.61 75.8698 48.78C76.4398 49.33 76.9998 49.59 77.6198 49.56C77.7098 49.56 77.7798 49.56 77.8098 49.59C77.8398 49.62 77.8398 49.71 77.8398 49.79C77.8298 50.21 77.8198 50.62 77.8098 51.04C77.8098 51.06 77.8098 51.0899 77.8098 51.1099C77.8098 51.2099 77.7898 51.34 77.8798 51.44L77.9198 51.4899C78.2098 51.8399 78.5098 52.19 78.9998 52.33C79.4898 52.47 79.9898 52.41 80.5698 52.15L80.6498 52.1099C80.7798 52.0499 80.8898 51.99 81.0298 52.02C82.0198 52.18 83.0498 52.26 83.9598 52.33C84.1198 52.34 84.2398 52.3899 84.3498 52.4799C84.6698 52.7399 85.0198 52.93 85.3798 53.06C85.7898 53.2 86.4198 53.21 86.9098 52.93C87.2498 52.74 87.4798 52.44 87.5698 52.06C87.5998 51.93 87.6898 51.8299 87.8198 51.7299C88.0598 51.5399 88.2298 51.29 88.3798 51.05C88.4698 50.9 88.4498 50.73 88.3198 50.64C88.1898 50.55 88.0598 50.5799 87.9298 50.7299C87.8898 50.7699 87.8598 50.8199 87.8298 50.8599C87.7698 50.9399 87.7198 51.02 87.6398 51.07C87.4098 50.02 87.1098 48.81 86.5998 47.64H86.6198C86.7098 47.62 86.7798 47.6099 86.8598 47.6099C87.7898 47.5399 88.7098 47.43 89.5798 47.27C90.0398 47.19 90.3298 47.16 90.4998 47.57C90.5298 47.65 90.5898 47.6999 90.6698 47.7299C90.7498 47.7499 90.8298 47.74 90.8998 47.7C91.0198 47.63 91.0498 47.4999 90.9898 47.3499V47.33C90.9898 47.33 90.9598 47.2699 90.9398 47.2399C90.8898 47.1699 90.8698 47.12 90.8798 47.09C90.8798 47.07 90.9198 47.0299 91.0698 46.9799C91.2498 46.9199 91.4398 46.87 91.6198 46.81C91.7898 46.76 91.9498 46.7 92.1198 46.65C93.5798 46.2 94.7998 45.54 95.8498 44.63L95.8898 44.5999C95.9998 44.5099 96.1198 44.4099 96.1598 44.2299C96.1898 44.0999 96.1398 43.98 96.0298 43.91C95.9398 43.84 95.8198 43.85 95.7198 43.92C95.6398 43.98 95.5598 44.06 95.4798 44.13L95.4498 44.16C95.0898 44.49 94.6598 44.8 94.0998 45.13C92.8298 45.88 91.4198 46.26 90.2098 46.53C88.8798 46.83 87.4198 47 85.7398 47.05C83.6898 47.11 81.5698 46.93 79.4298 46.52C77.7898 46.2 76.1898 45.7199 74.6898 45.0999C73.5898 44.6399 72.1798 43.96 71.0598 42.79C70.5798 42.28 70.2498 41.82 70.0198 41.32C69.9198 41.11 69.9398 40.96 70.0898 40.8C70.7698 40.05 71.3298 39.15 71.7998 38.03C72.3298 36.77 72.6098 35.4099 72.6498 33.8699C72.6898 32.6499 72.5298 31.42 72.1998 30.2C71.7398 28.54 70.9498 27.06 69.8498 25.81C69.5098 25.43 69.3498 25.04 69.3098 24.55C69.2898 24.33 69.2798 24.12 69.2498 23.89C69.2298 23.75 69.2298 23.7 69.3098 23.65C69.5498 23.52 69.4898 23.34 69.4598 23.27C69.4198 23.19 69.3198 23.0699 69.0898 23.1099C68.6998 23.1799 68.3498 23.21 68.0198 23.22C67.8898 23.22 67.7598 23.2299 67.6398 23.2399C67.5698 23.2399 67.4998 23.25 67.4198 23.25C67.2698 23.25 67.1698 23.36 67.1598 23.5C67.1598 23.65 67.2398 23.77 67.3798 23.79C67.5198 23.82 67.6398 23.83 67.7498 23.82C67.9598 23.82 68.1798 23.8 68.3998 23.78C68.4798 23.78 68.5298 23.78 68.5598 23.8C68.5898 23.83 68.5998 23.89 68.5998 23.95C68.5998 24.12 68.6098 24.2899 68.6298 24.4799C68.6298 24.5099 68.6298 24.53 68.6298 24.56C68.5298 24.5 68.4498 24.4299 68.3598 24.3599C68.2198 24.2499 68.0798 24.14 67.9198 24.06C67.8298 24.02 67.6298 23.9299 67.4798 24.1199C67.3898 24.2299 67.3298 24.3999 67.5298 24.6099C67.7598 24.8399 68.0298 25.04 68.3498 25.22C69.1298 25.66 69.6498 26.35 70.0098 26.91C70.9298 28.33 71.5298 29.76 71.8198 31.3C72.2298 33.44 72.0498 35.54 71.2798 37.55C70.3298 40.04 68.6898 41.81 66.3998 42.81C66.1298 42.93 65.8598 43.0199 65.5898 43.1099C65.3698 43.1799 65.1398 43.2599 64.9198 43.3499L64.5398 43.5C63.7298 43.83 62.8898 44.1699 62.0598 44.4899C61.7798 44.5999 61.4898 44.7 61.2098 44.8C60.5698 45.03 59.8998 45.2599 59.2798 45.5999C58.9698 45.7699 58.6498 45.89 58.3298 45.95C57.0298 46.2 55.5198 46.47 54.0098 46.39C52.7198 46.32 51.4598 46.19 50.2698 46C48.3898 45.7 46.7098 45.24 45.1298 44.59C44.7898 44.45 44.4598 44.27 44.1398 44.09C44.0498 44.04 43.9598 43.99 43.8698 43.94L43.5998 43.8C43.2998 43.64 42.9898 43.48 42.7098 43.3C41.8398 42.75 41.0798 42.02 40.4398 41.14C38.6298 38.63 37.8698 35.83 38.1998 32.82C38.3898 31.07 39.0598 29.52 40.1998 28.21C40.4898 27.88 40.5598 27.57 40.4598 27.14C40.2198 26.08 40.0998 24.99 40.0198 24.05C39.8498 22.15 39.8898 20.47 40.1298 18.91C40.3398 17.59 40.6798 16.07 41.5898 14.77C42.2498 13.82 42.9698 13.31 43.8598 13.17C44.4998 13.07 45.1798 13.18 45.9798 13.52C47.4498 14.14 48.4798 15.25 49.3898 16.36C50.2798 17.45 51.0798 18.7599 51.8398 20.3599C51.9998 20.6999 52.0998 20.91 52.0698 21.02C52.0298 21.13 51.8198 21.23 51.4698 21.4C50.6298 21.82 49.9898 22.25 49.4698 22.75L49.4498 22.77C49.3098 22.91 49.1598 23.05 49.0898 23.27C49.0498 23.39 49.0898 23.5 49.1798 23.56C49.2598 23.62 49.3598 23.63 49.4698 23.59C49.5798 23.55 49.6398 23.47 49.6998 23.4L49.7298 23.3599C49.8998 23.1699 50.0898 22.99 50.2898 22.83C52.5498 21.11 55.1998 20.5299 58.1598 21.1199C58.5898 21.2099 59.0498 21.31 59.4698 21.51C59.5498 21.55 59.6198 21.55 59.6898 21.53C59.7298 21.52 59.7898 21.48 59.8198 21.4C59.8798 21.27 59.8298 21.14 59.6998 21.06C59.4598 20.92 59.2298 20.82 58.9898 20.75C57.6398 20.37 56.3898 20.2299 55.1598 20.3499C55.0798 20.3499 54.8998 20.3699 54.8698 20.3499C54.8498 20.3199 54.8698 20.16 54.8798 20.09C55.1798 18.06 55.8498 16.1 56.8798 14.29C57.4098 13.36 57.9898 12.62 58.6598 12.01C59.8398 10.94 61.1398 10.64 62.5098 11.11C63.3998 11.42 64.0398 12.09 64.4898 12.64C65.1698 13.47 65.7098 14.4 66.1398 15.48C66.7498 17.01 67.1398 18.6099 67.3398 20.3699C67.3398 20.3999 67.3398 20.43 67.3398 20.47C67.3398 20.61 67.3398 20.85 67.6298 20.91C67.7098 20.93 67.7898 20.9099 67.8498 20.8499C67.8698 20.8299 67.8898 20.8 67.8998 20.78C67.8998 20.78 67.8998 20.79 67.8998 20.8C67.8998 20.88 67.9198 20.96 67.9498 21.07C67.9998 21.24 68.1198 21.33 68.2798 21.31C68.3698 21.3 68.4898 21.24 68.4998 21.03V20.9899C68.4998 20.8799 68.5098 20.78 68.4998 20.67C68.4498 20.21 68.4898 19.72 68.5198 19.3C68.6298 17.82 68.9298 16.68 69.4398 15.7C70.3698 13.95 71.8498 13.21 73.8398 13.51C74.7898 13.65 75.7298 14.02 76.8998 14.7C78.2398 15.48 79.3998 16.48 80.4698 17.44C80.7498 17.69 80.9898 17.98 81.2198 18.26C81.3198 18.38 81.4198 18.4999 81.5198 18.6099C81.5498 18.6399 81.5498 18.66 81.5598 18.66C81.5598 18.66 81.5398 18.67 81.4898 18.68C81.4398 18.68 81.3898 18.69 81.3398 18.7C81.3098 18.7 81.2798 18.7 81.2398 18.7C79.7798 18.87 78.3898 19.28 77.1198 19.92C76.9998 19.98 76.8798 20.0499 76.7698 20.1199C76.5698 20.2399 76.3798 20.35 76.1698 20.42C76.1198 20.44 75.9498 20.5 75.8898 20.64C75.8698 20.7 75.8498 20.79 75.9098 20.9C75.9698 21.01 76.0598 21.05 76.1098 21.07C76.2098 21.09 76.3198 21.0699 76.4398 20.9899C76.4998 20.9499 76.5598 20.92 76.6198 20.88C76.6698 20.85 76.7298 20.82 76.7798 20.79C77.3998 20.4 78.1298 20.08 79.0698 19.78C80.7698 19.25 82.6498 19.06 84.9898 19.18C86.7598 19.27 88.1798 19.53 89.4498 20C89.7098 20.1 89.9498 20.06 90.1498 19.91C90.5198 19.63 90.9498 19.45 91.3598 19.29C92.7398 18.78 94.5598 18.16 96.5198 17.96C98.0798 17.8 99.3398 17.88 100.48 18.2C102.66 18.82 104.01 20.08 104.62 22.05C105.03 23.38 105.12 24.8 104.88 26.39C104.55 28.61 103.79 30.82 102.49 33.34C101.89 34.51 101.17 35.69 100.22 37.06V37.08C100.13 37.19 100.05 37.31 100.03 37.47V37.52C100.01 37.62 99.9898 37.8 100.15 37.89C100.2 37.92 100.25 37.93 100.3 37.93C100.46 37.93 100.56 37.78 100.61 37.7L100.8 37.41C101.01 37.1 101.23 36.78 101.43 36.45C103.02 33.88 104.04 31.79 104.72 29.69C105.28 27.97 105.57 26.41 105.59 24.93C105.59 23.78 105.44 22.76 105.13 21.8L105.21 21.82ZM51.9598 50.68C51.9898 50.6 52.0498 50.57 52.1298 50.53C52.1598 50.52 52.1798 50.4999 52.2098 50.4899C52.4798 50.3199 52.7698 50.0999 52.9198 49.7299C52.9498 49.6699 53.0098 49.5 52.8598 49.38C52.8198 49.35 52.7798 49.33 52.7198 49.33C52.6598 49.33 52.5898 49.35 52.4998 49.42C52.4198 49.49 52.3298 49.56 52.2798 49.68C52.1898 49.94 51.9298 50.01 51.6898 50.07C51.5298 50.11 51.3898 50.0499 51.2998 49.9899C51.1298 49.8699 51.0098 49.66 50.9898 49.43C50.9498 49.06 51.0198 48.71 51.1098 48.34V48.28C51.1898 47.99 51.2898 47.71 51.3898 47.43C51.4298 47.31 51.4798 47.18 51.5198 47.06C51.5898 46.86 51.6898 46.8 51.8998 46.82C52.0698 46.84 52.2498 46.8499 52.4198 46.8699C52.6898 46.8899 52.9598 46.91 53.2298 46.96C53.7098 47.06 54.1898 47.04 54.6498 47.02C54.7598 47.02 54.8798 47.02 54.9898 47.01C56.0298 46.98 57.2298 46.9299 58.4398 46.6099C58.4498 46.7999 58.4598 46.99 58.4598 47.18C58.4598 47.57 58.4798 47.93 58.5698 48.3C58.5898 48.37 58.5698 48.42 58.5198 48.47C58.1098 48.89 58.0798 49.44 58.0498 49.94C58.0364 50.1733 57.9231 50.3166 57.7098 50.3699C56.8498 50.5999 55.9998 50.69 55.1898 50.64C54.8998 50.62 54.7098 50.71 54.5498 50.93C54.4998 51 54.4398 51.07 54.3698 51.13C54.3198 51.18 54.2698 51.24 54.2198 51.3C53.8398 51.77 53.3098 51.93 52.5598 51.8C52.2798 51.75 52.0698 51.62 51.9598 51.42C51.8498 51.21 51.8498 50.95 51.9598 50.67V50.68ZM68.1198 44.34C68.1198 44.34 68.0398 44.34 67.9998 44.34C66.0098 44.23 64.2298 44.97 62.8998 45.63C61.5098 46.32 60.3398 47.07 59.3298 47.92C59.2798 47.97 59.2398 48 59.1698 48C59.0398 47.53 58.9898 47.1 59.0298 46.68C59.0498 46.49 59.1198 46.39 59.3198 46.29C60.0298 45.93 60.7898 45.65 61.5298 45.38C61.7398 45.3 61.9498 45.22 62.1598 45.14C62.7698 44.91 63.3798 44.66 63.9698 44.41C64.3298 44.26 64.6998 44.11 65.0598 43.96C65.1698 43.92 65.2798 43.8799 65.3898 43.8499C65.5598 43.7999 65.7398 43.74 65.9098 43.66C66.0998 43.56 66.2898 43.5 66.4798 43.5C66.7798 43.5 67.0798 43.63 67.3998 43.89C67.6698 44.11 67.9398 44.25 68.2198 44.32C68.1798 44.32 68.1398 44.32 68.1098 44.32L68.1198 44.34ZM59.2398 48.71C60.8898 47.3 62.7798 46.2 64.8398 45.42C65.9298 45.01 66.9498 44.85 67.9598 44.93C67.9898 44.93 68.0198 44.93 68.0498 44.93C68.1798 44.95 68.3498 44.9699 68.4598 44.8699C68.5198 44.8199 68.5598 44.74 68.5598 44.64C68.5598 44.53 68.5398 44.45 68.4798 44.4C68.4598 44.39 68.4498 44.3699 68.4298 44.3599C68.5998 44.3799 68.7698 44.3799 68.9598 44.3599C69.6598 44.2899 70.2798 44.6099 70.9198 45.3499C71.2798 45.7699 71.2898 46.81 70.9398 47.3C70.8698 47.4 70.7698 47.45 70.6198 47.51C69.2398 48.05 67.9298 48.77 66.6498 49.45C66.4298 49.57 66.1998 49.69 65.9798 49.81C64.6398 50.52 63.4498 51.48 62.4398 52.31C62.2698 52.45 62.1398 52.54 61.9598 52.46C61.7798 52.39 61.7698 52.3 61.7598 52.26C61.7598 52.25 61.8098 52.23 61.8298 52.22C61.8598 52.2 61.8898 52.19 61.9098 52.17L61.9498 52.14C61.9498 52.14 62.0398 52.08 62.0798 52.03C62.1998 51.9 62.1798 51.7999 62.1398 51.7299C62.0898 51.6499 62.0098 51.5999 61.9298 51.5999C61.9098 51.5999 61.8798 51.5999 61.8598 51.6099C61.7698 51.6399 61.6798 51.67 61.5798 51.71C61.5298 51.73 61.4798 51.75 61.4298 51.76C60.5098 52.09 59.5798 51.84 58.9398 51.09C58.7098 50.82 58.5898 50.38 58.6198 49.92C58.6598 49.42 58.8798 48.97 59.2298 48.67L59.2398 48.71ZM75.4698 47.92C75.2998 47.98 75.1398 47.9799 74.9798 47.9799H74.9398C74.0398 47.9799 73.0998 47.98 72.1898 48.05C71.9898 48.07 71.8998 48.01 71.8398 47.84C71.7098 47.49 71.6298 47.22 71.7498 46.91C71.8598 46.63 71.8698 46.3 71.7698 45.92C71.7498 45.83 71.7698 45.8 71.7698 45.8C71.7698 45.8 71.7998 45.77 71.8898 45.77C72.0098 45.77 72.1198 45.77 72.2398 45.77C72.4998 45.77 72.7798 45.77 73.0398 45.72C73.2598 45.68 73.4898 45.67 73.7198 45.67C74.4598 45.67 75.2298 45.87 76.0598 46.27C75.5798 46.74 75.3798 47.29 75.4598 47.93L75.4698 47.92ZM62.0698 53.13C62.2298 53.14 62.3998 53.16 62.5498 53.02C62.6298 52.95 62.7098 52.88 62.7798 52.81C62.8598 52.74 62.9398 52.66 63.0298 52.59C64.6798 51.16 66.5698 50.16 68.5198 49.17L68.8098 49.02C69.4998 48.67 70.2098 48.31 70.9298 48.01C71.0198 47.97 71.0798 47.96 71.1098 47.97C71.1398 47.98 71.1598 48.0299 71.1898 48.1099C71.5498 49.0999 71.7798 49.8799 71.9298 50.6199C71.9831 50.8999 71.8898 51.1133 71.6498 51.26C71.2898 51.49 70.9298 51.72 70.5698 51.94C70.2198 52.16 69.8598 52.3899 69.5098 52.6099C68.1698 53.4599 66.8298 54.31 65.4898 55.17C64.8898 55.55 64.6998 55.55 64.1298 55.13C63.5298 54.69 62.8298 54.1399 62.2298 53.4899L62.1598 53.42C62.0698 53.32 61.9798 53.2299 61.9198 53.1099C61.9598 53.1099 62.0098 53.1099 62.0498 53.1099L62.0698 53.13ZM73.4198 45.13C73.4198 45.13 73.3798 45.13 73.3698 45.13C73.1898 45.13 72.9998 45.13 72.8198 45.13C72.4398 45.13 72.0498 45.13 71.6698 45.19C71.5298 45.21 71.4398 45.16 71.3498 45.04C70.7598 44.21 69.9698 43.79 69.0098 43.79C68.8398 43.79 68.6698 43.8 68.4898 43.83C68.3798 43.85 68.3098 43.84 68.2498 43.79C68.0098 43.58 67.7298 43.4199 67.4198 43.2299C67.3798 43.2099 67.3398 43.18 67.3098 43.16C68.0798 42.69 68.8198 42.2399 69.4798 41.5999C70.2698 43.1799 71.5898 44.34 73.4998 45.13C73.4898 45.14 73.4698 45.14 73.4298 45.13H73.4198ZM78.4798 50.7C78.4798 50.64 78.4798 50.58 78.4798 50.52C78.4798 50.52 78.4998 50.47 78.4998 50.44V50.27C78.4998 50.14 78.4998 50.01 78.4998 49.89C78.4998 49.84 78.4998 49.78 78.5298 49.75C78.5498 49.73 78.6098 49.7199 78.6898 49.7299L78.8298 49.75C79.3998 49.82 79.9898 49.89 80.5698 49.94C81.3798 50.01 82.1898 50.08 83.0098 50.15L83.9398 50.2299C83.9398 50.2299 83.9798 50.2299 83.9998 50.2299H84.0398C84.2698 50.2399 84.4198 50.13 84.4298 49.93C84.4298 49.83 84.3998 49.73 84.3398 49.67C84.2698 49.6 84.1698 49.57 84.0598 49.59C83.8498 49.61 83.6498 49.59 83.4398 49.57C83.3398 49.56 83.2398 49.55 83.1398 49.54C81.2398 49.43 79.3698 49.25 77.5598 49.01C76.9498 48.93 76.2498 48.4699 76.1398 47.8499C76.0198 47.1999 76.3098 46.7199 76.8698 46.6099C77.0498 46.5799 77.2298 46.62 77.4098 46.67H77.4598C78.8298 47.06 80.3198 47.34 82.0098 47.54C83.0598 47.66 84.2198 47.71 85.6498 47.69C85.9598 47.69 85.9598 47.69 86.0698 47.92L86.1098 48C86.5198 48.82 86.7398 49.7299 86.9498 50.5999L86.9998 50.82C87.1098 51.28 87.1798 51.69 86.9298 52.09C86.6698 52.49 86.2498 52.68 85.8098 52.59C85.3498 52.49 85.0198 52.33 84.7698 52.07C84.5898 51.88 84.3698 51.78 84.0898 51.76C83.1698 51.7 82.1898 51.63 80.9198 51.52C80.8998 51.52 80.8798 51.52 80.8598 51.52C80.6898 51.52 80.5598 51.58 80.4298 51.64C80.3898 51.66 80.3498 51.67 80.3098 51.69C79.9198 51.84 79.4698 51.95 79.0098 51.7C78.5498 51.45 78.4398 51.2499 78.4798 50.7299V50.7Z" fill="#74625F"/>
<path d="M88.46 40.74C88.66 40.99 88.98 41.14 89.31 41.14C89.46 41.14 89.61 41.11 89.75 41.04C90.12 40.87 90.3 40.43 90.21 39.9C90.1 39.24 89.64 38.86 89.13 38.51L89.09 38.4799C88.87 38.3299 88.78 38.27 88.89 38.02C88.95 37.9 88.94 37.78 88.87 37.69C88.79 37.6 88.66 37.57 88.51 37.62C88.39 37.65 88.26 37.72 88.13 37.81C87.94 37.94 87.75 37.98 87.55 37.93C87.45 37.91 87.36 37.9 87.26 37.9C87.22 37.9 87.18 37.9 87.14 37.9C87.12 37.9 87.11 37.9 87.09 37.91H87.05C86.99 37.91 86.93 37.91 86.87 37.91C86.53 37.94 86.13 37.99 85.77 38.17C85.58 38.26 85.49 38.37 85.48 38.5C85.48 38.63 85.55 38.7399 85.73 38.8599C85.82 38.9199 85.91 38.96 86 39.01C86.06 39.04 86.12 39.0699 86.17 39.0999C86.28 39.1599 86.39 39.23 86.5 39.29C87.2 39.69 87.93 40.1 88.45 40.76L88.46 40.74Z" fill="#74625F"/>
<path d="M78.81 42.33C78.95 43.92 80.37 44.68 81.64 44.72C81.64 44.72 81.64 44.72 81.65 44.72H81.76C81.86 44.69 81.97 44.6799 82.09 44.6599C82.74 44.5899 83.34 44.12 83.62 43.46C83.91 42.79 83.81 42.07 83.35 41.47C83.24 41.33 83.08 41.17 82.79 41.22C82.16 41.32 81.55 41.2199 80.99 40.9099C80.8 40.8099 80.59 40.7199 80.4 40.6499L80.35 40.6299C80.01 40.4999 79.72 40.51 79.45 40.68C79.36 40.74 79.23 40.78 79.07 40.82C78.73 40.89 78.65 40.84 78.47 40.47C78.42 40.38 78.35 40.3199 78.25 40.2999C78.11 40.2699 78.03 40.38 77.99 40.44C77.84 40.67 77.87 40.8999 78.07 41.1099C78.24 41.2799 78.46 41.3799 78.71 41.4099C78.77 41.4099 78.84 41.43 78.87 41.47C78.9 41.51 78.89 41.5899 78.87 41.6499C78.82 41.8499 78.8 42.06 78.82 42.33H78.81ZM81.46 43.1199C81.76 43.0199 81.66 42.73 81.61 42.57L81.59 42.5099C81.53 42.2999 81.46 42.0899 81.38 41.8599L81.33 41.72C81.84 41.84 82.3 41.9399 82.78 41.8599C82.86 41.8499 82.92 41.8699 83 42.0399C83.19 42.4299 83.19 42.8899 83 43.2999C82.81 43.6999 82.46 43.99 82.05 44.08C81.26 44.26 80.15 43.84 79.69 43.18C79.32 42.65 79.35 42.0499 79.44 41.4899C79.47 41.2799 79.63 41.1899 79.9 41.1099C79.91 41.1099 79.93 41.1099 79.95 41.1099C80.13 41.1099 80.5 41.31 80.58 41.47C80.74 41.79 80.88 42.1399 80.99 42.5099C80.99 42.5299 81 42.56 81.01 42.58C81.01 42.62 81.03 42.66 81.04 42.7C81.04 42.73 81.06 42.7599 81.07 42.7999C81.1 42.9199 81.13 43.0499 81.24 43.1099C81.31 43.1499 81.39 43.1499 81.48 43.1099L81.46 43.1199Z" fill="#74625F"/>
<path d="M59.7896 34.84C59.8496 34.84 59.9296 34.8 59.9996 34.7C60.1396 34.48 59.9396 34.3299 59.8596 34.2699C59.7996 34.2199 59.7396 34.1699 59.6796 34.1199C59.3296 33.8099 58.8796 33.3799 58.4996 32.8799C57.8596 32.0299 57.4896 31.0399 57.1796 30.0999C57.0196 29.6099 57.0796 29.1799 57.3496 28.7299C57.5196 28.4499 57.7596 28.12 58.1496 27.96C58.5496 27.8 58.6296 27.75 58.5796 27.31C58.5096 26.71 58.2396 26.16 57.7696 25.68C57.3896 25.3 57.0996 25.27 56.9196 25.32C56.7396 25.37 56.4896 25.54 56.3496 26.07C56.3496 26.1 56.3396 26.1299 56.3396 26.1599C56.3396 26.1799 56.3396 26.2 56.3396 26.21C56.2496 26.49 56.2496 26.77 56.2496 27.04C56.2496 27.18 56.2496 27.33 56.2296 27.47C56.1996 28.41 56.3996 29.3199 56.5796 29.9999C56.9396 31.3999 57.4196 32.45 58.0896 33.31C58.4296 33.75 58.8496 34.1199 59.2396 34.4799C59.3296 34.5599 59.4196 34.64 59.4996 34.72C59.5796 34.8 59.6696 34.84 59.7496 34.84C59.7596 34.84 59.7696 34.84 59.7796 34.84H59.7896Z" fill="#74625F"/>
<path d="M77.0599 37.3C77.2199 37.3 77.4599 37.3 77.5399 37.06C77.6199 36.82 77.4399 36.6499 77.3099 36.5299C77.0899 36.3199 76.7999 36.23 76.5499 36.17C76.4999 36.16 76.4499 36.1499 76.3999 36.1399C76.0899 36.0699 75.8199 36.01 75.6399 35.71C75.5699 35.59 75.4599 35.53 75.3299 35.54C75.1999 35.54 75.0799 35.6399 75.0199 35.7799C74.9399 35.9599 74.8499 35.9799 74.6499 35.9899C74.2799 35.9999 73.8999 36.0899 73.5099 36.2599C73.0199 36.4699 72.7399 36.91 72.7899 37.42C72.7899 37.51 72.8199 37.6499 72.9299 37.7399C72.9999 37.7999 73.0999 37.83 73.2399 37.83C73.2699 37.83 73.3099 37.83 73.3499 37.83C73.3499 37.83 73.3499 37.83 73.3599 37.83L73.6099 37.7699C73.8299 37.7199 74.0799 37.6599 74.3299 37.6099C75.3999 37.3999 76.2299 37.3 77.0199 37.31H77.0599V37.3Z" fill="#74625F"/>
<path d="M60.32 32.96C60.32 32.96 60.38 32.96 60.41 32.96H60.45C60.45 32.96 60.45 32.96 60.46 32.96C60.51 32.96 60.55 32.9499 60.6 32.9399C60.7 32.9299 60.81 32.9099 60.91 32.8899C62.16 32.6099 63.38 32.0699 64.73 31.1899C65.06 30.9799 65.43 30.7099 65.74 30.3499C65.99 30.0499 65.99 29.84 65.71 29.59C65.43 29.34 65.16 29.3499 64.87 29.6099C64.47 29.9799 64.04 30.3199 63.61 30.6299C62.64 31.3299 61.52 31.78 60.43 32.22L60.3 32.2699C60.14 32.3299 59.9 32.4299 59.97 32.7299C60.02 32.9399 60.18 32.9799 60.32 32.9799V32.96Z" fill="#74625F"/>
<path d="M76.7496 41.64C76.5496 41.32 76.1996 41.14 75.7696 41.14C75.7596 41.14 75.7496 41.14 75.7396 41.14C75.3496 41.19 74.8796 41.31 74.6596 41.84C74.4796 42.28 74.5196 42.72 74.7896 43.08L74.8296 43.1299C74.9296 43.2599 75.0196 43.38 75.0796 43.54C75.1896 43.86 75.5496 44.06 75.9196 44.06C76.0196 44.06 76.1196 44.0499 76.2196 44.0099C76.6296 43.8799 76.7896 43.54 76.6796 43.09C76.6396 42.94 76.6796 42.86 76.7596 42.71C76.9496 42.34 76.9496 41.95 76.7596 41.64H76.7496ZM75.9796 42.7C75.8396 42.83 75.7596 42.8999 75.7596 43.0099C75.7596 43.1099 75.8496 43.18 75.9896 43.28H76.0096C76.0896 43.35 76.0896 43.36 76.0796 43.4C76.0696 43.44 76.0496 43.46 75.9396 43.47C75.7496 43.47 75.6896 43.45 75.6696 43.21C75.6496 43.03 75.5496 42.9499 75.4596 42.8699L75.4196 42.83C75.1196 42.56 75.0696 42.36 75.2396 42.04C75.3396 41.85 75.5396 41.7499 75.7996 41.7499C75.8496 41.7499 75.8996 41.7499 75.9496 41.7599C76.0996 41.7799 76.2996 41.86 76.3096 42.28C76.3096 42.41 76.1496 42.57 75.9896 42.72L75.9796 42.7Z" fill="#74625F"/>
<path d="M100.66 20.68C100.66 20.68 100.65 20.68 100.64 20.68C100.35 20.72 100.1 20.8 99.85 20.92C98.73 21.47 97.72 22.29 96.74 23.42C96.66 23.52 96.59 23.6199 96.52 23.7299L96.5 23.7599C96.41 23.9099 96.42 24.06 96.55 24.16C96.62 24.22 96.71 24.2599 96.79 24.2599C96.87 24.2599 96.94 24.23 97.01 24.17C97.12 24.07 97.2099 23.9499 97.2799 23.8499C97.5099 23.5299 97.77 23.2499 98.08 23.0099L98.17 22.94C98.92 22.34 99.7 21.7199 100.65 21.3799C100.71 21.3599 100.77 21.34 100.84 21.29C100.94 21.23 101.11 21.13 101.04 20.91C100.98 20.71 100.79 20.7 100.68 20.7L100.66 20.8V20.7V20.68Z" fill="#74625F"/>
<path d="M81.2698 37.2299C81.2698 37.2299 81.2298 37.2399 81.2098 37.2499C81.1298 37.2699 81.0298 37.2999 80.9798 37.3899C80.9498 37.4499 80.9398 37.5199 80.9698 37.5999C81.0198 37.7599 81.1298 37.7999 81.2398 37.7999C81.3198 37.7999 81.3898 37.7799 81.4298 37.7699C81.5698 37.7299 81.7198 37.67 81.8998 37.59C82.4498 37.34 82.9498 36.9299 83.4598 36.3099C84.3398 35.2299 84.7198 34.1099 84.6298 32.8999C84.6298 32.7799 84.5998 32.6499 84.5798 32.5299V32.45C84.5398 32.27 84.4298 32.1699 84.2698 32.1799C84.1998 32.1799 84.1398 32.2099 84.0898 32.2599C84.0198 32.3299 84.0198 32.4399 84.0298 32.5099C84.0298 32.6499 84.0498 32.7999 84.0498 32.9199V33.0399C84.0798 34.9099 82.9598 36.6099 81.2598 37.2499L81.2698 37.2299Z" fill="#74625F"/>
<path d="M91.91 32.59C92.11 32.44 92.04 32.2899 92.01 32.2399C91.94 32.1299 91.81 32.0899 91.67 32.1399H91.64C91.55 32.1799 91.46 32.2099 91.38 32.2499C90.95 32.4399 90.49 32.5699 90.03 32.6399C89.26 32.7599 88.64 32.7099 88.07 32.5099C87.5 32.2999 87.06 31.94 86.77 31.44C86.64 31.22 86.5 31.2399 86.4 31.2899C86.3 31.3399 86.2 31.4499 86.29 31.6799C86.38 31.9099 86.52 32.12 86.73 32.33C87.37 32.98 88.21 33.2999 89.29 33.3099C89.29 33.3099 89.3 33.3099 89.31 33.3099C90.07 33.3099 90.83 33.1299 91.64 32.7699C91.73 32.7299 91.83 32.6699 91.91 32.6099V32.59Z" fill="#74625F"/>
<path d="M92.01 22.62C91.75 22.5 91.62 22.75 91.58 22.85C91.57 22.88 91.56 22.91 91.55 22.94C91.55 22.96 91.54 22.98 91.53 23C91.31 23.49 90.98 23.91 90.56 24.24C89.73 24.89 88.78 25.29 87.76 25.42C87.63 25.44 87.5 25.4501 87.36 25.4601C87.25 25.4601 87.13 25.48 87.02 25.49C86.87 25.51 86.77 25.61 86.77 25.76C86.77 25.91 86.86 26.01 87.02 26.03C87.11 26.03 87.2 26.04 87.31 26.05H87.46C88.94 25.91 90.22 25.34 91.28 24.36C91.61 24.05 91.87 23.64 92.1 23.06C92.14 22.96 92.23 22.73 92.01 22.62Z" fill="#74625F"/>
<path d="M93.9496 38.44L93.9296 38.3599C93.7696 37.4699 93.3696 36.65 92.7496 35.93L92.7196 35.8899C92.6296 35.7799 92.4296 35.5399 92.1996 35.7299C92.1296 35.7899 92.0896 35.8499 92.0896 35.9199C92.0796 36.0499 92.1796 36.1499 92.2496 36.2399C92.2696 36.2599 92.2796 36.2699 92.2896 36.2899C93.3196 37.5199 93.6696 38.9499 93.3496 40.6699C93.3196 40.8299 93.2796 40.9899 93.2396 41.1399C93.2096 41.2299 93.1496 41.4799 93.4096 41.5499C93.4396 41.5499 93.4696 41.56 93.4996 41.56C93.6896 41.56 93.7596 41.3699 93.7896 41.2999L93.8096 41.2399C93.8496 41.1299 93.8996 41.0199 93.9196 40.8999C93.9296 40.8099 93.9496 40.7199 93.9596 40.6299C94.0096 40.3099 94.0696 39.9799 94.0496 39.6399C94.0996 39.2299 94.0196 38.8199 93.9496 38.4199V38.44Z" fill="#74625F"/>
<path d="M77.7997 32.8101C78.1397 32.8101 78.4697 32.7501 78.7797 32.6901C79.9197 32.4501 80.7297 32.01 81.3197 31.3C81.5297 31.04 81.6797 30.75 81.7897 30.38C81.8297 30.25 81.7597 30.1201 81.6297 30.0601C81.5497 30.0301 81.4097 30.0001 81.2997 30.2001C81.2797 30.2301 81.2697 30.26 81.2597 30.3C81.2597 30.32 81.2497 30.33 81.2397 30.35C80.9197 31.07 80.3297 31.59 79.4897 31.89C78.6097 32.2 77.8097 32.32 77.0497 32.24C76.9797 32.24 76.9097 32.23 76.8297 32.24C76.7097 32.25 76.6197 32.32 76.5897 32.42C76.5697 32.5 76.5597 32.64 76.7597 32.74C76.9697 32.84 77.1897 32.8301 77.3997 32.8301C77.4597 32.8301 77.5197 32.8301 77.5897 32.8301C77.6697 32.8301 77.7397 32.8301 77.8197 32.8301L77.7997 32.8101Z" fill="#74625F"/>
<path d="M71.8597 16.5699C72.4597 17.3999 72.8597 18.3199 73.1697 19.0999C73.1697 19.1199 73.1797 19.15 73.1897 19.17C73.2097 19.24 73.2297 19.33 73.3197 19.41C73.3797 19.46 73.4397 19.4799 73.5097 19.4799C73.5397 19.4799 73.5597 19.48 73.5897 19.47C73.6697 19.44 73.7297 19.37 73.7597 19.27C73.7897 19.14 73.7697 19.0099 73.7097 18.8699C73.6197 18.6399 73.5197 18.41 73.4097 18.18C73.3497 18.06 73.2897 17.93 73.2297 17.8C72.9697 17.25 72.7097 16.69 72.3097 16.2C72.0597 15.9 71.6597 15.5 71.0297 15.5H71.0097C70.7697 15.5 70.5797 15.55 70.4297 15.68C70.2297 15.84 70.2797 15.9899 70.3197 16.0699C70.4097 16.2199 70.5597 16.18 70.6397 16.15H70.6597C71.2897 15.98 71.4897 16.04 71.8597 16.56V16.5699Z" fill="#74625F"/>
<path d="M86.2698 43.81C86.6198 43.71 86.7998 43.4399 86.8298 42.9899C86.8498 42.5499 86.5298 41.9399 86.1498 41.7299C85.8998 41.5899 85.5798 41.58 85.2998 41.7C85.0698 41.8 84.9098 41.99 84.8598 42.21C84.7498 42.71 84.8598 43.1599 85.1798 43.5099C85.3998 43.7499 85.6698 43.8699 85.9598 43.8699C86.0598 43.8699 86.1697 43.85 86.2797 43.82L86.2698 43.81ZM85.4798 42.9C85.3698 42.69 85.3498 42.48 85.4398 42.33C85.4998 42.23 85.5998 42.18 85.7098 42.18C85.7698 42.18 85.8398 42.1999 85.9098 42.2299C86.1598 42.3699 86.3298 42.78 86.2598 43.06C86.2198 43.21 86.1398 43.2599 85.9598 43.2499C85.7898 43.2499 85.5998 43.1 85.4898 42.9H85.4798Z" fill="#74625F"/>
<path d="M46.9897 36.65C47.1197 36.64 47.1997 36.53 47.2697 36.44L47.2997 36.41C48.2597 35.25 48.8396 33.86 49.0696 32.17C49.0696 32.17 49.0696 32.17 49.0696 32.16V32.13C49.0696 32.13 49.0696 32.0399 49.0696 31.9899C49.0596 31.7299 48.8996 31.69 48.8096 31.68C48.5896 31.67 48.5597 31.86 48.5497 31.94V31.97C48.5197 32.09 48.5097 32.2 48.4897 32.32C48.3997 32.9 48.2997 33.34 48.1497 33.75C47.8397 34.63 47.4197 35.38 46.8897 36.06L46.8597 36.0999C46.7797 36.1999 46.5996 36.41 46.8096 36.59C46.8596 36.64 46.9196 36.66 46.9796 36.66C46.9796 36.66 46.9896 36.66 46.9996 36.66L46.9897 36.65Z" fill="#74625F"/>
<path d="M84.27 46.5399C84.27 46.5399 84.3 46.5399 84.32 46.5399C84.76 46.4599 85.3 46.29 85.57 45.71C85.67 45.49 85.68 45.28 85.59 45.09C85.5 44.9 85.31 44.77 85.06 44.71C84.51 44.58 83.63 45.0199 83.4 45.5299C83.37 45.5999 83.36 45.6799 83.35 45.7499C83.33 45.9399 83.38 46.1199 83.51 46.2599C83.68 46.4399 83.95 46.5399 84.28 46.5399H84.27ZM83.91 45.83C83.91 45.83 83.93 45.7899 83.94 45.7799C84.01 45.7299 84.07 45.6699 84.13 45.6199C84.33 45.4399 84.52 45.2799 84.8 45.2699C84.82 45.2699 84.84 45.2699 84.86 45.2699C84.96 45.2699 85.01 45.28 85.04 45.34C85.07 45.39 85.08 45.46 84.98 45.59C84.8 45.82 84.56 45.93 84.21 45.95C84.19 45.95 84.18 45.95 84.16 45.95C84.11 45.95 84.05 45.94 83.99 45.92C83.94 45.9 83.9 45.86 83.9 45.84L83.91 45.83Z" fill="#74625F"/>
<path d="M83.7098 24.49V24.32C83.6898 24.21 83.6798 24.11 83.6698 24.01C83.4898 22.52 82.5998 21.41 81.2898 21.06H81.2398C81.0998 21.01 80.8198 20.93 80.7298 21.21C80.7098 21.28 80.7098 21.35 80.7398 21.41C80.7998 21.51 80.9098 21.54 81.0098 21.56C81.0398 21.56 81.0697 21.57 81.0897 21.58C81.5097 21.73 81.9398 21.91 82.2698 22.27C82.8098 22.86 83.0898 23.59 83.1498 24.56C83.1498 24.58 83.1498 24.6 83.1498 24.62C83.1498 24.73 83.1497 24.9601 83.4097 24.9701C83.4897 24.9701 83.5498 24.94 83.5998 24.9C83.6698 24.83 83.6998 24.72 83.6998 24.57C83.6998 24.54 83.6998 24.51 83.6998 24.51C83.6998 24.51 83.6998 24.51 83.6998 24.5L83.7098 24.49Z" fill="#74625F"/>
<path d="M85.7199 25.0801C85.6499 25.1601 85.5598 25.27 85.5898 25.39C85.6098 25.47 85.6599 25.5301 85.7599 25.5801C85.8099 25.6101 85.8599 25.62 85.8999 25.62C86.0799 25.62 86.1799 25.43 86.2399 25.31C86.2499 25.28 86.2698 25.26 86.2798 25.24C86.6198 24.66 86.7999 24.01 86.7999 23.41C86.8299 22.66 86.7099 22.01 86.4099 21.36C86.2999 21.12 86.1599 20.9401 85.9799 20.8201C85.7299 20.6501 85.5798 20.78 85.5298 20.85C85.4698 20.92 85.3999 21.07 85.6199 21.25C85.7899 21.39 85.9099 21.57 85.9799 21.77C86.3899 22.97 86.3299 24.03 85.7999 25.01C85.7899 25.04 85.7599 25.07 85.7299 25.1L85.7199 25.0801Z" fill="#74625F"/>
<path d="M95.3397 40.53C95.3397 40.53 95.2697 40.63 95.2397 40.7C95.1897 40.83 95.2197 40.96 95.3297 41.04C95.3797 41.08 95.4397 41.0999 95.4897 41.0999C95.5597 41.0999 95.6297 41.0699 95.6897 41.0099C95.7997 40.9099 95.9097 40.79 95.9997 40.66C96.6397 39.75 96.8197 38.7 96.9997 37.69L97.0197 37.57C97.0197 37.57 97.0197 37.56 97.0197 37.55V37.4899C97.0197 37.4899 97.0197 37.44 97.0197 37.42V37.3699C97.0197 37.2499 97.0197 36.9899 96.7297 36.9799C96.4397 36.9799 96.4297 37.21 96.4297 37.33C96.4297 37.35 96.4297 37.38 96.4297 37.4C96.2797 38.7 95.9397 39.6899 95.3597 40.5099L95.3397 40.53Z" fill="#74625F"/>
<path d="M55.64 36.55C55.64 36.55 55.72 36.57 55.76 36.58H55.79H55.81C55.84 36.58 55.87 36.58 55.9 36.58C56 36.58 56.13 36.5499 56.16 36.3899C56.18 36.2999 56.18 36.14 55.94 36.05C55.89 36.03 55.85 36.0099 55.8 35.9999C54.57 35.5099 53.68 34.7799 53.09 33.7899L53.07 33.7599C53.01 33.6599 52.94 33.5399 52.81 33.5099C52.74 33.4899 52.67 33.51 52.6 33.56C52.38 33.71 52.52 33.9299 52.6 34.0299C52.61 34.0499 52.63 34.07 52.64 34.09C53.28 35.19 54.26 35.9899 55.65 36.5399L55.64 36.55Z" fill="#74625F"/>
<path d="M78.1597 34.9C78.2197 34.9 78.2897 34.9 78.3497 34.9C78.3497 34.9 78.3597 34.9 78.3697 34.9C78.3697 34.9 78.3697 34.9 78.3797 34.9C79.7197 34.74 80.7997 34.1699 81.5697 33.2299C81.6397 33.1399 81.7397 33.01 81.7697 32.83C81.7997 32.69 81.7297 32.5699 81.6097 32.5099C81.5597 32.4899 81.4297 32.4599 81.3197 32.6099C81.2697 32.6699 81.2297 32.73 81.1897 32.8C81.0697 32.97 80.9597 33.1299 80.8097 33.2499C80.0197 33.9099 79.1897 34.27 78.2597 34.34C78.2297 34.34 78.1897 34.34 78.1497 34.34C78.0397 34.34 77.8997 34.32 77.8097 34.41C77.7597 34.46 77.7297 34.5399 77.7397 34.6299C77.7597 34.8899 77.9997 34.8899 78.1697 34.8899L78.1597 34.9Z" fill="#74625F"/>
<path d="M90.4398 34.2699C90.4898 34.1699 90.4798 34.0699 90.4098 33.9799C90.3298 33.8699 90.1998 33.85 90.0898 33.93C89.9398 34.04 89.7698 34.12 89.5398 34.18C88.6798 34.41 87.8998 34.11 87.3198 33.81C87.2698 33.79 87.2198 33.7599 87.1798 33.7299C87.1398 33.7099 87.1098 33.69 87.0698 33.67C86.9198 33.59 86.8198 33.65 86.7698 33.71C86.6698 33.83 86.6698 33.97 86.7698 34.07C86.8398 34.15 86.9298 34.2099 87.0198 34.2699C87.5798 34.6499 88.1998 34.82 88.9698 34.82C88.9698 34.82 89.0598 34.82 89.0998 34.82C89.3998 34.82 89.7498 34.73 90.0998 34.56C90.2098 34.51 90.3698 34.4299 90.4498 34.2699H90.4398Z" fill="#74625F"/>
<path d="M44.0898 37.78C44.0898 37.78 44.0999 37.78 44.1099 37.78C44.3099 37.74 44.3799 37.5801 44.4199 37.4601C44.4199 37.4401 44.4399 37.41 44.4499 37.39C44.8299 36.57 45.1799 35.7 45.5099 34.75C45.5499 34.64 45.5798 34.52 45.5898 34.39C45.5998 34.3 45.5198 34.21 45.4698 34.17C45.3598 34.11 45.2299 34.13 45.1599 34.24C45.1199 34.29 45.0999 34.35 45.0799 34.4L45.0598 34.4401C44.7398 35.2801 44.4499 36.03 44.0799 36.77C43.9699 36.98 43.8999 37.22 43.8299 37.43C43.7999 37.52 43.8099 37.6 43.8599 37.66C43.8899 37.71 43.9599 37.76 44.0799 37.76L44.0898 37.78Z" fill="#74625F"/>
<path d="M57.74 35.8899C57.77 35.8899 57.79 35.8899 57.82 35.8899C57.92 35.8899 58.05 35.8899 58.1 35.7599C58.16 35.6099 58.08 35.4699 57.9 35.3999C57.81 35.3699 57.73 35.3399 57.64 35.3199C57.6 35.3099 57.55 35.2999 57.51 35.2799C56.77 35.0499 56.2199 34.7799 55.7799 34.4199C55.6599 34.3199 55.5499 34.2199 55.4399 34.0999C55.3799 34.0399 55.3099 33.9699 55.2499 33.9099C55.0599 33.7299 54.91 33.8199 54.85 33.8699C54.67 34.0199 54.79 34.1899 54.85 34.2699C55.07 34.5799 55.36 34.7899 55.64 34.9999L55.67 35.0199C56.34 35.5199 57.11 35.7399 57.71 35.8899H57.73H57.74Z" fill="#74625F"/>
<path d="M59.9697 16.29C60.0397 16.23 60.0997 16.17 60.1597 16.11C60.5397 15.7 61.0297 15.43 61.5997 15.31C61.7497 15.27 61.8797 15.24 62.0097 15.19C62.0797 15.17 62.2397 15.11 62.2097 14.92C62.1897 14.82 62.1197 14.69 61.8897 14.68H61.8697C61.0897 14.83 60.3397 15.03 59.7897 15.66C59.7197 15.74 59.6497 15.84 59.5897 15.97C59.5397 16.07 59.5697 16.19 59.6697 16.27C59.7197 16.31 59.7797 16.33 59.8297 16.33C59.8797 16.33 59.9297 16.31 59.9797 16.28L59.9697 16.29Z" fill="#74625F"/>
<path d="M95.9897 27.8799C96.0097 28.1099 96.1897 28.12 96.2897 28.14H96.3297C97.0897 28.25 97.6997 28.41 98.2097 28.82C98.2597 28.86 98.3297 28.91 98.4097 28.91C98.4097 28.91 98.4297 28.91 98.4397 28.91C98.4997 28.91 98.5597 28.87 98.6097 28.8C98.6997 28.68 98.6897 28.55 98.5797 28.4C98.5397 28.35 98.4897 28.32 98.4397 28.28C97.8197 27.86 97.1097 27.7 96.4297 27.59C96.4297 27.59 96.4197 27.59 96.4097 27.59C96.2297 27.59 96.0997 27.63 96.0297 27.7C95.9897 27.75 95.9697 27.8099 95.9697 27.8799H95.9897Z" fill="#74625F"/>
<path d="M50.8698 35.5999C50.8698 35.5999 50.8898 35.5999 50.8998 35.5999C51.0898 35.5999 51.2698 35.5999 51.4598 35.5999H51.6897C51.6897 35.5999 51.6998 35.5999 51.7098 35.5999C51.9398 35.5599 52.1898 35.5599 52.5198 35.5999C52.7298 35.6199 52.8698 35.52 52.8898 35.34C52.9198 35.12 52.7298 35.05 52.6298 35.02H52.5998C52.5998 35.02 52.5197 34.9899 52.4697 34.9899C52.0097 34.9799 51.4197 34.97 50.8097 35.08C50.7197 35.09 50.6098 35.11 50.5498 35.2C50.5098 35.25 50.4998 35.32 50.5198 35.39C50.5598 35.6 50.7598 35.62 50.8698 35.62V35.5999Z" fill="#74625F"/>
<path d="M43.3898 19.15C43.5098 19.15 43.5998 19.04 43.6598 18.96C43.6798 18.93 43.7098 18.8999 43.7298 18.8799L43.7798 18.83C44.1398 18.5 44.4698 18.2 44.9598 18.15C45.0598 18.15 45.1598 18.12 45.2298 18.04C45.2698 17.98 45.2798 17.91 45.2698 17.83C45.2298 17.62 45.0398 17.6 44.9298 17.59H44.8998C44.8998 17.59 44.8998 17.59 44.8898 17.59C44.7598 17.59 44.6198 17.62 44.4698 17.68C44.0598 17.83 43.6898 18.09 43.2998 18.47L43.2598 18.4999C43.1698 18.5799 43.0698 18.69 43.0698 18.82C43.0698 18.89 43.0998 18.96 43.1598 19.02C43.2298 19.09 43.2998 19.1299 43.3798 19.1299L43.3898 19.15Z" fill="#74625F"/>
<path d="M42.8599 21.8499C42.8599 21.9399 42.8799 22 42.9299 22.05C42.9899 22.11 43.0799 22.14 43.2099 22.14C43.3399 22.14 43.3899 21.9999 43.4299 21.8799C43.4999 21.6599 43.6499 21.49 43.9299 21.3C44.1499 21.15 44.3599 20.9999 44.5799 20.8499C44.8399 20.6799 44.7999 20.52 44.7599 20.43C44.7099 20.34 44.6298 20.3 44.5298 20.3C44.4398 20.3 44.3598 20.3299 44.3098 20.3599C43.8298 20.6199 43.3499 20.93 43.0199 21.42C42.9399 21.54 42.8699 21.68 42.8599 21.84V21.8499Z" fill="#74625F"/>
<path d="M71.6799 20.53C71.6799 20.53 71.7498 20.53 71.7898 20.53C71.8198 20.53 71.8399 20.53 71.8699 20.53H71.9798C71.9798 20.53 71.9798 20.53 71.9898 20.53L73.6199 20.3499C73.6199 20.3499 73.6498 20.3499 73.6698 20.3499C73.9198 20.3099 73.9598 20.16 73.9598 20.07C73.9598 19.91 73.8598 19.82 73.6598 19.81C73.6298 19.81 73.5998 19.81 73.5498 19.81C73.1498 19.81 72.7499 19.87 72.3699 19.93C72.1899 19.96 71.9998 19.9799 71.8198 19.9999C71.7398 19.9999 71.6598 20.04 71.5998 20.06C71.4898 20.11 71.4198 20.22 71.4498 20.33C71.4698 20.45 71.5699 20.53 71.6799 20.54V20.53Z" fill="#74625F"/>
<path d="M96.2998 26.34C96.2998 26.48 96.3998 26.5799 96.5498 26.5999C96.5998 26.5999 96.6598 26.6099 96.7098 26.6099C97.3698 26.6399 97.8798 26.8 98.2898 27.09C98.3098 27.1 98.3198 27.1099 98.3398 27.1199C98.3898 27.1499 98.4398 27.16 98.4898 27.16C98.5798 27.16 98.6698 27.11 98.7298 27.02C98.8098 26.91 98.7798 26.79 98.6398 26.67C98.1098 26.21 97.4498 26.13 96.8698 26.08H96.7798C96.7098 26.08 96.6398 26.08 96.5698 26.08C96.4098 26.08 96.2998 26.19 96.3098 26.33L96.2998 26.34Z" fill="#74625F"/>
<path d="M61.2299 33.9899C61.2299 33.9899 61.3099 33.99 61.3599 33.97C61.8499 33.79 62.3498 33.6099 62.8398 33.4299C62.9698 33.3799 63.0498 33.2999 63.0698 33.1799C63.0798 33.1099 63.0598 33.0299 62.9998 32.9799C62.9398 32.9199 62.8498 32.8899 62.7498 32.9099C62.1198 32.9999 61.5599 33.25 61.1399 33.45C60.9799 33.53 60.9199 33.68 60.9799 33.83C61.0299 33.94 61.1199 33.9999 61.2299 33.9999V33.9899Z" fill="#74625F"/>
<path d="M101.47 39.85C101.47 39.85 101.44 39.78 101.42 39.74C101.06 39.17 100.54 38.7701 100.08 38.4601C99.9597 38.3801 99.8096 38.42 99.7196 38.55C99.6496 38.65 99.6596 38.78 99.7296 38.86C99.8396 38.98 99.9396 39.07 100.04 39.14C100.39 39.39 100.67 39.67 100.89 39.98C100.93 40.03 100.97 40.09 101.03 40.15C101.08 40.2 101.14 40.2201 101.2 40.2201C101.25 40.2201 101.29 40.2101 101.33 40.1801C101.43 40.1201 101.48 40.03 101.48 39.92C101.48 39.91 101.48 39.89 101.48 39.88V39.85H101.47Z" fill="#74625F"/>
<path d="M72.1497 22.07C72.1997 22.07 72.2597 22.07 72.2997 22.08C72.2997 22.08 72.3197 22.08 72.3297 22.08C72.7597 22.05 73.1997 21.9499 73.6097 21.8599L73.8397 21.81C73.8397 21.81 73.9197 21.7799 73.9597 21.7499C74.0597 21.6799 74.1097 21.58 74.0797 21.47C74.0497 21.35 73.9497 21.28 73.8297 21.28C73.7297 21.28 73.6397 21.3 73.5397 21.32L73.2097 21.3699C72.8897 21.4199 72.5697 21.47 72.2497 21.53C72.2197 21.53 72.1697 21.53 72.1297 21.53C72.0197 21.53 71.8997 21.5199 71.8097 21.5999C71.7597 21.6499 71.7397 21.72 71.7397 21.82C71.7497 22.08 71.9997 22.08 72.1297 22.08L72.1497 22.07Z" fill="#74625F"/>
<path d="M69.1496 21.23C68.7996 21.35 68.4396 21.4701 68.0796 21.5801C67.9496 21.6201 67.8296 21.64 67.6896 21.66C67.6096 21.67 67.5296 21.6901 67.4596 21.7001C67.3096 21.7301 67.2096 21.84 67.2296 21.98C67.2396 22.11 67.3396 22.1901 67.4996 22.2101C67.5196 22.2101 67.5496 22.2101 67.5796 22.2101H67.6396C67.6396 22.2101 67.6496 22.2101 67.6596 22.2101C68.2096 22.1201 68.7596 21.96 69.3096 21.73C69.3496 21.71 69.3896 21.68 69.4196 21.64C69.4696 21.58 69.5796 21.45 69.4896 21.3C69.3996 21.13 69.2296 21.1901 69.1496 21.2201V21.23Z" fill="#74625F"/>
<path d="M43.4696 24.4401C43.4696 24.4401 43.4697 24.4401 43.4797 24.4401C43.4797 24.4401 43.4896 24.4401 43.4996 24.4401C43.6196 24.4401 43.7297 24.36 43.7697 24.24C43.9497 23.73 44.2396 23.36 44.6596 23.12C44.7196 23.08 44.7596 23.0301 44.7796 22.9701C44.7996 22.9001 44.7797 22.83 44.7397 22.76C44.6897 22.68 44.5897 22.59 44.4197 22.63C43.9197 22.75 43.1896 23.7 43.2196 24.17C43.2296 24.31 43.3197 24.41 43.4597 24.43L43.4696 24.4401Z" fill="#74625F"/>
<path d="M59.4696 43.09C59.3696 43.04 59.2596 43.02 59.1296 43.02C58.9496 43.02 58.7196 43.04 58.5096 43.16C58.3496 43.25 58.2596 43.41 58.2796 43.59C58.2796 43.7 58.3496 43.86 58.5996 43.95C58.6596 43.97 58.7296 43.9799 58.8096 43.9799C59.0896 43.9799 59.4496 43.86 59.5896 43.69C59.6696 43.6 59.6996 43.4799 59.6796 43.3599C59.6596 43.2399 59.5796 43.14 59.4596 43.08L59.4696 43.09Z" fill="#74625F"/>
<path d="M98.2099 31.94C98.4299 31.89 98.4199 31.63 98.4099 31.54C98.3399 30.97 98.1799 30.52 97.9299 30.15C97.8799 30.07 97.7999 30.01 97.7399 29.95C97.6499 29.88 97.5399 29.86 97.4399 29.92C97.3799 29.96 97.3299 30.01 97.3199 30.08C97.2999 30.15 97.3199 30.22 97.3599 30.28C97.6099 30.65 97.7699 31.1 97.8499 31.67C97.8599 31.77 97.9099 31.86 97.9799 31.91C98.0299 31.94 98.0799 31.96 98.1299 31.96C98.1599 31.96 98.1799 31.96 98.2099 31.96V31.94Z" fill="#74625F"/>
<path d="M59.7499 17.8799C59.7499 17.8799 59.8399 17.93 59.8899 17.93C59.9699 17.93 60.0599 17.88 60.1399 17.78C60.3199 17.57 60.5599 17.4799 60.8299 17.3899H60.8599C60.9899 17.3299 61.1299 17.29 61.2599 17.24C61.3399 17.21 61.4299 17.18 61.5099 17.16C61.6599 17.11 61.7199 17 61.7399 16.92C61.7399 16.91 61.7399 16.8899 61.7399 16.8799C61.7199 16.7699 61.6699 16.71 61.6199 16.68C61.5599 16.64 61.4799 16.6299 61.3999 16.6499C61.2999 16.6799 61.1999 16.71 61.0999 16.73C60.6899 16.84 60.2699 16.95 59.9099 17.23C59.8299 17.3 59.7599 17.36 59.7199 17.42C59.5999 17.59 59.6199 17.76 59.7599 17.87L59.7499 17.8799Z" fill="#74625F"/>
<path d="M60.1097 19.5199C60.1097 19.5199 60.1897 19.5099 60.2197 19.4899C60.5997 19.2499 61.0097 19.11 61.5197 18.96C61.6597 18.92 61.7397 18.7799 61.7097 18.6399C61.6697 18.4199 61.4597 18.4299 61.3297 18.4299C61.3297 18.4299 61.3097 18.4299 61.2997 18.4299L61.1497 18.47C60.7697 18.58 60.3797 18.6899 60.0097 18.9199C59.9397 18.9599 59.8797 19.0399 59.8497 19.1199C59.7997 19.2499 59.8597 19.39 59.9497 19.46C59.9997 19.5 60.0497 19.5199 60.0997 19.5199H60.1097Z" fill="#74625F"/>
<path d="M60.1497 20.8799C60.1497 20.8799 60.1997 20.8799 60.2297 20.8699C60.4397 20.7999 60.6597 20.7699 60.8997 20.7399C61.0497 20.7199 61.1997 20.7 61.3497 20.67C61.4597 20.65 61.7197 20.59 61.6697 20.31C61.6297 20.1 61.4397 20.0999 61.3497 20.0999C61.3297 20.0999 61.3097 20.0999 61.2897 20.0999C61.2897 20.0999 61.2797 20.0999 61.2697 20.0999L61.0197 20.14C60.8297 20.17 60.6297 20.1999 60.4397 20.2299C60.2897 20.2499 60.1497 20.31 60.0297 20.41C59.9097 20.5 59.8797 20.6399 59.9397 20.7599C59.9797 20.8399 60.0597 20.89 60.1497 20.89V20.8799Z" fill="#74625F"/>
<path d="M44.4095 24.42C44.0995 24.72 43.9195 25.0199 43.8495 25.3499C43.8495 25.3499 43.8495 25.3499 43.8495 25.3599C43.8395 25.4799 43.8096 25.6899 44.0496 25.7499C44.0796 25.7499 44.0995 25.7599 44.1295 25.7599C44.1795 25.7599 44.2296 25.75 44.2696 25.72C44.3296 25.69 44.3695 25.63 44.3795 25.57C44.4495 25.27 44.6295 25.0199 44.8395 24.7499C44.9195 24.6399 44.8995 24.4999 44.7795 24.3899C44.6995 24.3099 44.5595 24.28 44.4195 24.42H44.4095Z" fill="#74625F"/>
<path d="M98.62 41.74C98.49 41.6 98.3399 41.59 98.2199 41.69C98.0999 41.8 98.0799 41.9601 98.1899 42.0901L98.27 42.19C98.42 42.38 98.57 42.57 98.64 42.8C98.67 42.9 98.7599 42.9601 98.8799 42.9601C98.9099 42.9601 98.9399 42.96 98.9799 42.95C99.0599 42.93 99.1899 42.86 99.1899 42.65C99.1899 42.65 99.1899 42.63 99.1899 42.62C99.0999 42.27 98.8599 41.99 98.6299 41.73L98.62 41.74Z" fill="#74625F"/>
<path d="M97.9099 43.7399C97.8499 43.4699 97.68 43.1699 97.42 42.8599C97.34 42.7699 97.22 42.75 97.11 42.81C96.97 42.89 96.9099 43.02 96.9699 43.14C97.1099 43.43 97.25 43.7101 97.4 43.9701C97.45 44.0501 97.5299 44.0999 97.6299 44.0999C97.6699 44.0999 97.7099 44.1 97.7499 44.08C97.9099 44.02 97.9199 43.87 97.9099 43.76C97.9099 43.76 97.9099 43.76 97.9099 43.75V43.7399Z" fill="#74625F"/>
<path d="M100.33 40.8899C100.33 40.8899 100.29 40.7899 100.25 40.7399C100.06 40.5099 99.89 40.3199 99.73 40.1499C99.61 40.0199 99.45 39.9999 99.32 40.1099C99.2 40.2199 99.2 40.3899 99.32 40.5199C99.51 40.7399 99.71 40.94 99.93 41.17C99.98 41.22 100.04 41.2499 100.11 41.2499C100.16 41.2499 100.21 41.24 100.25 41.21C100.3 41.18 100.32 41.13 100.34 41.08C100.34 41.07 100.35 41.05 100.36 41.04C100.37 41.01 100.38 40.98 100.36 40.95C100.36 40.93 100.35 40.9199 100.34 40.8999L100.33 40.8899Z" fill="#74625F"/>
<path d="M90.4796 47.99L90.3996 47.9501C90.2796 47.8901 90.1495 47.9401 90.0595 48.0701C90.0195 48.1301 89.9996 48.21 90.0196 48.27C90.0296 48.34 90.0696 48.39 90.1296 48.43C90.3096 48.54 90.4896 48.64 90.6396 48.73L90.7996 48.8201C90.7996 48.8201 90.8295 48.8301 90.8395 48.8301C90.8595 48.8301 90.8896 48.8301 90.9196 48.8301C91.0096 48.8301 91.1096 48.8101 91.1796 48.7101C91.2496 48.6101 91.2396 48.49 91.1496 48.4C90.9596 48.2 90.7196 48.09 90.4896 47.98L90.4796 47.99Z" fill="#74625F"/>
<path d="M71.2896 40.4C71.2896 40.64 71.4096 40.79 71.6396 40.8C71.6496 40.8 71.6596 40.8 71.6796 40.8C71.7896 40.8 71.8896 40.76 71.9796 40.69C72.0796 40.6 72.1396 40.48 72.1496 40.34C72.1496 40.22 72.1095 40.0999 72.0295 40.0099C71.9595 39.9299 71.8496 39.9 71.7596 39.89C71.5196 39.89 71.2996 40.13 71.2896 40.39V40.4Z" fill="#74625F"/>
<path d="M89.0497 50.7101C88.9697 50.6801 88.8997 50.7101 88.8697 50.7201C88.8297 50.7401 88.7697 50.79 88.7397 50.89C88.7197 50.95 88.7097 51.0101 88.6897 51.0701C88.6497 51.2301 88.6097 51.38 88.5297 51.52C88.4597 51.65 88.4997 51.79 88.6297 51.87C88.6597 51.89 88.7097 51.91 88.7497 51.91C88.8097 51.91 88.8897 51.88 88.9697 51.8C89.1297 51.64 89.1697 51.44 89.1997 51.26C89.2097 51.18 89.2297 51.11 89.2497 51.04C89.2497 51.03 89.2497 51.02 89.2497 51C89.2497 50.85 89.1697 50.7501 89.0497 50.7101Z" fill="#74625F"/>
<path d="M90.3396 49.09C90.2696 49.09 90.1896 49.11 90.1296 49.17C90.0396 49.26 90.0296 49.3899 90.0996 49.4899C90.2796 49.7099 90.4197 49.89 90.5697 50.06C90.6097 50.11 90.6697 50.14 90.7397 50.14C90.7897 50.14 90.8497 50.12 90.8997 50.08C90.9397 50.05 90.9597 50 90.9797 49.97C90.9797 49.97 90.9797 49.95 90.9897 49.95C90.9897 49.94 91.0097 49.92 91.0097 49.9C91.0297 49.63 90.6096 49.1199 90.3396 49.0999V49.09Z" fill="#74625F"/>
<path d="M90.3197 50.7C90.2897 50.6 90.2597 50.4799 90.2197 50.3699C90.1697 50.2599 90.1097 50.18 90.0397 50.15C89.9997 50.13 89.9197 50.12 89.8297 50.15C89.7297 50.19 89.6297 50.29 89.6997 50.53V50.56C89.7497 50.69 89.7897 50.81 89.8197 50.94C89.8397 51.02 89.8797 51.22 90.0797 51.22C90.0997 51.22 90.1297 51.22 90.1597 51.22C90.3397 51.18 90.3497 51.03 90.3497 50.93C90.3497 50.91 90.3497 50.8799 90.3497 50.8599C90.3497 50.8499 90.3497 50.83 90.3497 50.82C90.3497 50.79 90.3297 50.75 90.3197 50.71V50.7Z" fill="#74625F"/>
<path d="M79.8095 39.71C79.8095 39.71 79.7795 39.71 79.7595 39.71H79.7096C79.5996 39.74 79.3995 39.79 79.4095 40.03C79.4095 40.13 79.4695 40.23 79.5595 40.31C79.6495 40.39 79.7596 40.44 79.8696 40.44C79.8796 40.44 79.8995 40.44 79.9095 40.44C80.1295 40.41 80.2496 40.27 80.2396 40.08C80.2196 39.8 79.9896 39.75 79.8296 39.72H79.8095V39.71Z" fill="#74625F"/>
<path d="M49.0696 50.45C49.0696 50.45 49.0496 50.45 49.0396 50.45C48.9496 50.48 48.8896 50.5499 48.8596 50.6199C48.8396 50.6799 48.8596 50.74 48.8896 50.79C49.0296 50.97 49.1996 51.2 49.4796 51.29C49.4996 51.29 49.5296 51.3 49.5596 51.3C49.5996 51.3 49.6496 51.29 49.6796 51.26C49.7396 51.22 49.7796 51.14 49.7896 51.06C49.7896 51.03 49.7896 50.9399 49.5896 50.7399C49.5596 50.7099 49.2496 50.42 49.0796 50.43L49.0696 50.45Z" fill="#74625F"/>
<path d="M48.2298 50.99C48.2298 50.99 48.1399 50.9 48.1199 50.85C48.1199 50.83 48.0998 50.82 48.0998 50.8C48.0698 50.73 48.0299 50.6201 47.9299 50.5901C47.8699 50.5701 47.7898 50.59 47.7198 50.63C47.4898 50.77 47.6099 50.99 47.6799 51.12C47.7699 51.29 47.8998 51.47 48.1298 51.53C48.1498 51.53 48.1798 51.53 48.1998 51.53C48.2598 51.53 48.2999 51.51 48.3299 51.49C48.3899 51.45 48.4199 51.39 48.4299 51.3C48.4299 51.29 48.4299 51.28 48.4299 51.27C48.3999 51.14 48.3198 51.06 48.2498 50.99H48.2298Z" fill="#74625F"/>
<path d="M62.1599 51.67C62.1599 51.67 62.2499 51.7101 62.2999 51.7101C62.3699 51.7101 62.4499 51.68 62.5199 51.61C62.5499 51.58 62.5699 51.55 62.5999 51.52C62.6199 51.5 62.6399 51.4801 62.6599 51.4601C62.7399 51.3801 62.8199 51.2901 62.8999 51.2101C63.0899 51.0101 63.2799 50.8 63.4799 50.61C64.6599 49.46 65.7399 48.67 66.8999 48.13C67.8099 47.7 68.8399 47.44 70.2299 47.29C70.2599 47.29 70.3099 47.29 70.3499 47.29C70.4799 47.29 70.6299 47.3001 70.7299 47.2001C70.7799 47.1401 70.7999 47.0701 70.7899 46.9701C70.7599 46.7101 70.5099 46.72 70.3399 46.73C70.2599 46.73 70.1899 46.73 70.1199 46.73C70.1199 46.73 70.0999 46.73 70.0899 46.73C68.3199 46.9 66.9199 47.35 65.6899 48.12C64.4999 48.87 63.4299 49.78 62.4299 50.91C62.3299 51.02 62.2499 51.14 62.1699 51.26L62.1299 51.3201C62.0799 51.3901 62.0599 51.47 62.0699 51.54C62.0699 51.58 62.0999 51.6401 62.1699 51.6901L62.1599 51.67Z" fill="#74625F"/>
<path d="M78.2695 28.08C78.2695 28.45 78.3695 28.83 78.5795 29.22C78.8895 29.78 79.2795 29.95 79.9295 29.8C80.1795 29.74 80.3995 29.7 80.5995 29.68C81.7895 29.54 82.8595 29.57 83.8795 29.78C85.2495 30.06 86.2695 30.49 87.0995 31.13C87.3195 31.3 87.5695 31.39 87.8495 31.39C87.8595 31.39 87.8695 31.39 87.8795 31.39C88.4095 31.39 88.9095 31.12 89.2595 30.65C89.6395 30.14 89.7495 29.49 89.5595 28.92C89.3595 28.3 89.0095 27.7699 88.5195 27.3599C87.6095 26.5799 86.5095 26.19 85.5495 25.91C84.4595 25.59 83.2895 25.4899 81.9595 25.6099C80.7095 25.7199 79.7695 26.03 79.0195 26.59C78.5195 26.96 78.2595 27.46 78.2495 28.07L78.2695 28.08ZM80.2495 27.79C80.2995 27.7 80.3995 27.6599 80.5195 27.6199L80.5695 27.5999C81.3095 27.3299 82.0595 27.19 82.7995 27.19H82.8195C84.2695 27.17 85.4995 27.4699 86.5695 28.0999C86.8495 28.2599 87.0895 28.47 87.2895 28.72C87.3695 28.81 87.4295 28.9 87.4495 29.01C87.4495 29.07 87.4495 29.12 87.4195 29.14C87.3895 29.16 87.3495 29.16 87.2895 29.14C87.2495 29.12 87.1995 29.09 87.1395 29.04C86.0695 28.25 84.7595 27.81 83.1395 27.7C82.8795 27.68 82.6295 27.67 82.3995 27.67C81.6195 27.67 80.9595 27.77 80.3495 27.96H80.3195C80.2195 28 80.2195 27.9999 80.2095 27.9799C80.1995 27.9499 80.1795 27.91 80.2495 27.8V27.79Z" fill="#74625F"/>
<path d="M68.0897 33.6099C68.0497 33.2599 67.7997 33.1899 67.5997 33.1399H67.5697C67.3297 33.0599 67.0697 33.0599 66.7797 33.1099C66.3797 33.1899 65.9697 33.2799 65.5697 33.3699L65.4097 33.4099C65.0997 33.4799 64.7797 33.5599 64.4697 33.6299C63.8297 33.7799 63.1697 33.94 62.5097 34.06C61.3597 34.28 61.2097 34.3599 61.1897 35.6599C61.1797 36.5299 61.4398 37.2499 61.9598 37.7899C62.5198 38.3699 63.1997 38.6599 64.0197 38.6599C64.2997 38.6599 64.5898 38.63 64.8998 38.56C65.7598 38.38 66.2597 37.9999 66.5297 37.3499C66.6697 37.0199 66.7097 36.6899 66.7397 36.3999C66.7897 35.8299 66.6897 35.3 66.5597 34.71C66.7297 34.64 66.8897 34.61 67.0497 34.59C67.1097 34.58 67.1697 34.57 67.2297 34.56C67.3997 34.53 67.5897 34.4699 67.7697 34.3599C68.0297 34.1899 68.1197 33.9699 68.0797 33.6299L68.0897 33.6099ZM64.9097 36.2699C64.4997 36.2699 64.1697 35.9399 64.1697 35.5299C64.1697 35.1199 64.4997 34.7899 64.9097 34.7899C65.3197 34.7899 65.6498 35.1199 65.6498 35.5299C65.6498 35.9399 65.3197 36.2699 64.9097 36.2699Z" fill="#74625F"/>
<path d="M52.9796 36.66C52.5896 36.02 52.5496 35.9799 51.8196 36.1299C50.2796 36.4599 48.7596 36.94 47.2896 37.41L46.7996 37.57C46.6196 37.63 46.4496 37.7 46.2896 37.77C46.2096 37.8 46.1396 37.8399 46.0596 37.8699C45.8296 37.9599 45.6896 38.16 45.6296 38.44C45.5996 38.6 45.6496 38.7699 45.7696 38.8799C45.8996 38.9999 46.0696 39.0399 46.2396 38.9899C46.5396 38.8999 46.8496 38.81 47.1596 38.71L47.4796 38.6099L47.5096 38.7399C47.5396 38.8999 47.5696 39.04 47.5996 39.19C47.8096 40.18 48.8196 41.47 50.2196 41.47C50.2796 41.47 50.3496 41.47 50.4196 41.47C50.5896 41.46 50.7696 41.43 50.9396 41.41C51.0096 41.4 51.0896 41.3899 51.1596 41.3799C52.3196 41.2299 53.2596 40.32 53.4496 39.18C53.5996 38.24 53.4496 37.42 52.9996 36.67L52.9796 36.66ZM51.7796 39.0099C51.3696 39.0099 51.0396 38.68 51.0396 38.27C51.0396 37.86 51.3696 37.53 51.7796 37.53C52.1896 37.53 52.5196 37.86 52.5196 38.27C52.5196 38.68 52.1896 39.0099 51.7796 39.0099Z" fill="#74625F"/>
<path d="M64.7595 54.94C64.7595 54.94 64.6695 54.98 64.6295 54.97C64.6095 54.97 64.5995 54.95 64.5895 54.93C64.5695 54.89 64.4395 54.67 64.4195 54.63C64.2095 54.26 64.0095 53.89 63.7695 53.54C63.7495 53.5 63.7195 53.43 63.7495 53.39C63.7995 53.32 63.8595 53.27 63.9195 53.21C64.0495 53.1 64.1895 53.01 64.3395 52.93C64.4595 52.87 64.5995 52.81 64.7395 52.78C65.0095 52.73 65.2795 52.93 65.3495 53.19C65.3895 53.36 65.3395 53.57 65.2395 53.71C65.4895 53.69 65.7195 53.8599 65.7495 54.1099C65.7495 54.1799 65.7295 54.24 65.6895 54.3C65.6095 54.42 65.4995 54.5299 65.3795 54.6099C65.1895 54.7399 64.9795 54.83 64.7795 54.92L64.7595 54.94ZM64.8695 53.71C64.9495 53.58 64.8995 53.39 64.7495 53.41C64.7095 53.41 64.6695 53.43 64.6295 53.45C64.5595 53.48 64.4895 53.53 64.4195 53.58C64.4895 53.69 64.5495 53.8 64.6095 53.91C64.6695 53.89 64.8295 53.77 64.8595 53.71H64.8695ZM65.1795 54.17C65.1795 54.17 65.1795 54.1199 65.1795 54.0999C65.1595 54.0699 65.1395 54.04 65.1095 54.02C65.0195 53.98 64.8395 54.11 64.7495 54.16C64.7695 54.19 64.8595 54.36 64.8795 54.39C64.9495 54.35 65.1595 54.25 65.1895 54.17H65.1795Z" fill="#74625F"/>
<path d="M66.21 54.06C66.16 54.04 66.13 53.98 66.09 53.94C65.89 53.66 65.7 53.37 65.51 53.09C65.47 53.02 65.25 52.7199 65.23 52.6399C65.22 52.6099 65.23 52.5599 65.25 52.5299C65.33 52.4199 65.43 52.3199 65.54 52.2299C65.69 52.1099 65.85 51.99 66.04 51.94C66.16 51.9 66.29 51.89 66.41 51.92C66.53 51.95 66.64 52.0099 66.72 52.0999C66.8 52.1799 66.85 52.3 66.86 52.41C66.87 52.55 66.82 52.7 66.74 52.82C66.92 52.91 67.13 52.9399 67.33 52.9999C67.33 52.9999 67.34 52.9999 67.35 52.9999C67.37 53.0199 67.35 53.0699 67.35 53.0999C67.33 53.2399 67.26 53.37 67.16 53.46C67.13 53.49 67.1 53.5099 67.06 53.5199C67.03 53.5199 67 53.5199 66.98 53.5199C66.9 53.4899 66.51 53.2999 66.44 53.2599C66.52 53.3799 66.6 53.4999 66.69 53.6099C66.71 53.6299 66.73 53.65 66.74 53.68C66.76 53.78 66.6 53.89 66.51 53.95C66.44 53.99 66.29 54.1 66.21 54.07V54.06ZM66.25 52.7599C66.25 52.7599 66.32 52.6699 66.32 52.6199C66.32 52.5399 66.26 52.46 66.2 52.42C66.11 52.36 65.97 52.47 65.89 52.54C65.95 52.65 66.02 52.7599 66.09 52.8599C66.14 52.8299 66.2 52.7999 66.25 52.7599Z" fill="#74625F"/>
<path d="M67.8095 52.9C67.8095 52.9 67.7395 52.95 67.6995 52.97C67.6795 52.97 67.6595 52.99 67.6395 52.97C67.6295 52.97 67.6095 52.96 67.6095 52.95C67.4895 52.79 66.8595 51.9099 66.7295 51.7599C66.7095 51.7299 66.6695 51.69 66.6895 51.66C66.7295 51.59 66.8096 51.5399 66.8696 51.4799C67.1196 51.2799 67.3896 51.09 67.6496 50.91C67.6596 50.91 67.6795 50.89 67.6895 50.89C67.7295 50.89 67.7695 50.9599 67.7895 50.9999C67.8395 51.0799 67.8796 51.1599 67.9296 51.2499C67.9496 51.2799 67.9596 51.3299 67.9296 51.3499C67.7696 51.4499 67.6196 51.56 67.4596 51.67C67.4796 51.71 67.5095 51.75 67.5395 51.79C67.5695 51.77 67.7595 51.6399 67.7895 51.6199C67.8295 51.5899 67.8795 51.55 67.9095 51.59C67.9295 51.62 68.0395 51.8 68.0595 51.83C68.0895 51.87 68.1195 51.93 68.0795 51.96C67.9695 52.03 67.8695 52.09 67.7695 52.16C67.7695 52.19 67.8595 52.3 67.8795 52.33C68.0195 52.22 68.1795 52.13 68.3295 52.03C68.3695 52 68.4096 52.0599 68.4296 52.0999C68.4496 52.1299 68.5395 52.3 68.5595 52.34C68.5795 52.37 68.5695 52.41 68.5495 52.44C68.4595 52.55 67.9495 52.84 67.8295 52.91L67.8095 52.9Z" fill="#74625F"/>
<path d="M68.7596 52.2C68.7596 52.2 68.7296 52.18 68.7096 52.17C68.6196 52.06 68.3296 51.52 68.2796 51.39C68.2396 51.29 68.2096 51.19 68.1896 51.08C68.1696 50.98 68.1796 50.88 68.2096 50.79C68.2596 50.64 68.3596 50.5 68.4796 50.41C68.5696 50.35 68.6896 50.31 68.7996 50.3C68.8796 50.3 68.9596 50.3 69.0396 50.31C69.1996 50.36 69.3396 50.46 69.4596 50.58C69.5996 50.72 69.7196 50.89 69.8296 51.07C69.8796 51.16 69.9296 51.24 69.9696 51.34C69.9696 51.36 69.9896 51.38 69.9796 51.39C69.9796 51.41 69.9596 51.43 69.9396 51.44C69.9196 51.46 69.8896 51.4699 69.8696 51.4899C69.8296 51.5099 69.6196 51.66 69.5796 51.68C69.5096 51.72 69.4696 51.61 69.4296 51.55C69.3896 51.57 69.1696 51.7099 69.1296 51.7299C69.1496 51.7699 69.1696 51.8099 69.1996 51.8499C69.2196 51.8799 69.2096 51.92 69.1796 51.93C69.0496 52 68.9196 52.07 68.8196 52.16C68.8196 52.16 68.7996 52.17 68.7996 52.18C68.7996 52.18 68.7796 52.2 68.7696 52.2H68.7596ZM68.9096 51.39C69.0096 51.33 69.0996 51.26 69.1996 51.2C69.1596 51.14 69.1296 51.08 69.0896 51.03C69.0496 50.97 68.9996 50.92 68.9396 50.89C68.9096 50.87 68.8696 50.86 68.8396 50.89C68.7696 50.93 68.7796 51.07 68.7996 51.15C68.8296 51.24 68.8696 51.32 68.9196 51.4L68.9096 51.39Z" fill="#74625F"/>
<path d="M70.2796 51.22C70.2796 51.22 70.1696 51.2499 70.1296 51.2299C70.0896 51.2099 70.0596 51.1699 70.0396 51.1299C69.9996 51.0299 69.7296 50.4699 69.6896 50.3699C69.6496 50.2899 69.4196 49.78 69.3796 49.7C69.3796 49.69 69.3696 49.6799 69.3696 49.6599C69.3696 49.6299 69.3796 49.59 69.4096 49.58C69.4996 49.51 69.9696 49.2699 70.0696 49.2299C70.2196 49.1699 70.3996 49.17 70.5496 49.21C70.7896 49.28 70.9996 49.4399 71.1496 49.6399C71.2296 49.7499 71.2796 49.8699 71.3096 49.9999C71.3496 50.1899 71.3096 50.41 71.2096 50.58C71.1396 50.71 71.0396 50.8099 70.9296 50.8899C70.7396 51.0299 70.5296 51.16 70.2996 51.22H70.2796ZM70.6196 50.3499C70.6796 50.2899 70.7096 50.2099 70.6996 50.1199C70.6896 50.0199 70.6396 49.9299 70.5796 49.8599C70.5496 49.8299 70.5196 49.7999 70.4796 49.7799C70.4396 49.7599 70.3996 49.7599 70.3496 49.7599C70.2596 49.7599 70.1796 49.8 70.0996 49.83C70.1896 50.04 70.2796 50.26 70.3696 50.47C70.4596 50.45 70.5596 50.4099 70.6296 50.3499H70.6196Z" fill="#74625F"/>
<path d="M63.1699 58.9C63.2099 58.71 63.2299 58.52 63.2299 58.32C63.2299 56.65 61.8799 55.3 60.2099 55.3C59.7699 55.3 59.3599 55.39 58.9899 55.56C58.2199 54.19 56.7599 53.2599 55.0699 53.2599C53.3799 53.2599 51.8699 54.22 51.1099 55.64C51.0499 55.64 50.9899 55.64 50.9299 55.64C49.5199 55.64 48.3799 56.78 48.3799 58.19C48.3799 58.44 48.4199 58.68 48.4899 58.91H63.1799L63.1699 58.9Z" fill="#C4BDB4"/>
<path d="M19.17 38.19C14.83 38.19 11.15 40.97 9.78999 44.83C9.27999 44.73 8.75001 44.68 8.21001 44.68C3.90001 44.68 0.37 47.98 0 52.18H37.52C36.69 48.51 33.41 45.7599 29.48 45.7599C29.26 45.7599 29.03 45.78 28.81 45.79C27.76 41.43 23.84 38.19 19.15 38.19H19.17Z" fill="#C4BDB4"/>
<path d="M114.41 45.2599C113.46 44.8699 112.41 44.66 111.32 44.66C106.99 44.66 103.44 47.9999 103.08 52.2499H143C142.15 44.3899 135.51 38.27 127.44 38.27C122 38.27 117.21 41.0499 114.41 45.2599Z" fill="#C4BDB4"/>
<path fill-rule="evenodd" clip-rule="evenodd" d="M74.5102 9.21997H70.2702L68.4702 12.34L66.6702 9.21997H62.4302C61.5902 9.21997 60.9102 8.53995 60.9102 7.69995V1.51996C60.9102 0.679959 61.5902 0 62.4302 0H74.5102C75.3502 0 76.0302 0.679959 76.0302 1.51996V7.69995C76.0302 8.53995 75.3502 9.21997 74.5102 9.21997ZM70.0002 2.09998C69.3802 2.09998 68.8302 2.39999 68.4802 2.85999C68.1302 2.39999 67.5802 2.09998 66.9602 2.09998C65.8902 2.09998 65.0302 2.96999 65.0302 4.04999C65.0302 4.58999 65.2502 5.07999 65.6002 5.42999C65.9502 5.77999 67.2202 6.79997 68.4902 7.46997C69.6502 6.76997 71.0202 5.78 71.3702 5.44C71.7302 5.09 71.9502 4.58999 71.9502 4.04999C71.9502 2.96999 71.0802 2.09998 70.0202 2.09998H70.0002Z" fill="#C4BDB4"/>
</g>
<defs>
<clipPath id="clip0_47_4727">
<rect width="143" height="59" fill="white"/>
</clipPath>
</defs>
</svg>
