<svg width="98" height="66" viewBox="0 0 98 66" fill="none" xmlns="http://www.w3.org/2000/svg">
<g clip-path="url(#clip0_47_4799)">
<path d="M96.8589 16.4237C96.0089 13.7937 94.2489 11.9237 91.6389 10.8637C89.7289 10.0937 87.5989 9.83369 84.9189 10.0537C83.6289 10.1637 82.2589 10.4037 80.6189 10.8237C78.5789 11.3437 76.8389 11.9637 75.2989 12.7137C74.8689 12.9237 74.5189 12.9537 74.0589 12.8237C72.0089 12.2337 69.9289 11.8837 67.8589 11.8037C66.5589 11.7537 65.4989 11.7537 64.5089 11.8037C64.3189 11.8137 64.1889 11.7637 64.0789 11.6237L64.0089 11.5337C63.9189 11.4137 63.8189 11.2837 63.7089 11.1737C62.1189 9.44369 60.2589 7.84369 58.1989 6.41369C56.2989 5.10369 54.4989 4.25369 52.6989 3.83369C51.2189 3.48369 49.8989 3.51369 48.6789 3.93369C46.9789 4.52369 45.6889 5.72369 44.8389 7.50369C43.9689 9.34369 43.5289 11.4037 43.5089 13.7537C43.5089 13.7237 43.4889 13.6837 43.4889 13.6437C43.4489 13.4537 43.3989 13.2537 43.3689 13.0637C43.0389 10.8137 42.4589 8.70369 41.6389 6.80369C40.8789 5.02369 39.7289 2.79369 37.6489 1.26369C35.6289 -0.216307 33.5089 -0.396308 31.3489 0.723692C30.3789 1.22369 29.5089 1.92369 28.7089 2.84369C27.0689 4.73369 25.8589 7.01369 24.9089 10.0137C24.4989 11.3037 24.0389 12.7637 23.9589 14.2637C23.9489 14.4637 23.9289 14.5237 23.7889 14.5537C23.2589 14.6737 22.7389 14.7937 22.2189 14.9237L21.7289 15.0437C20.9389 13.3137 20.2489 12.0137 19.5189 10.8337C17.7389 7.95369 15.8889 5.93369 13.6989 4.49369C12.1689 3.48369 10.5889 3.09369 8.99891 3.34369C7.98891 3.50369 7.13893 3.88369 6.48893 4.48369C5.33893 5.54369 4.45892 6.86369 3.87892 8.42369C3.14892 10.3837 2.73894 12.5437 2.61894 15.0037C2.47894 17.9537 2.71894 21.0237 3.36894 24.3837C3.43894 24.7537 3.36894 24.9837 3.11894 25.2637C1.94894 26.5337 1.09894 28.0637 0.58894 29.8337C0.03894 31.7437 -0.12106 33.7537 0.08894 35.8137C0.48894 39.6237 1.96892 42.9937 4.47892 45.8337C5.24892 46.7037 5.99893 47.3537 6.76893 47.8037C7.16893 48.0337 7.61893 48.3337 8.01893 48.7437L7.96891 48.7837C7.83891 48.8937 7.71894 48.9937 7.58894 49.1037C6.52894 50.0737 5.94894 51.3037 5.89894 52.6537C5.78894 55.8137 7.94892 58.3537 11.1589 58.8337H11.1889C11.3289 58.8637 11.4889 58.8837 11.6489 58.8337C11.9389 58.7437 11.9689 58.5437 11.9589 58.4337C11.9489 58.2737 11.8289 58.1337 11.6789 58.0937C11.4789 58.0437 11.2589 57.9937 10.9689 57.9537C9.13891 57.6437 7.86893 56.6337 7.07893 54.8637C6.24893 52.9837 6.85891 50.6337 8.49891 49.4037C8.72891 49.2337 8.90892 49.2137 9.18892 49.3437C11.3489 50.3437 13.7589 51.0737 16.7489 51.6737C17.3689 51.7937 17.9789 51.8837 18.6289 51.9837C18.8689 52.0237 19.1189 52.0537 19.3689 52.0937C18.9089 53.1337 18.7089 54.1437 18.5889 54.9237C18.4589 55.7137 18.3989 56.4737 18.9689 57.1437C18.8089 57.2737 18.6389 57.3537 18.4589 57.4537C18.3589 57.5037 18.2689 57.5537 18.1789 57.6037C18.1389 57.6237 18.0989 57.6437 18.0589 57.6537C17.9089 57.7137 17.5989 57.8437 17.7389 58.1837C17.8689 58.5137 18.2089 58.4037 18.3689 58.3537C18.4089 58.3437 18.4489 58.3237 18.4789 58.3237C18.5989 58.2937 18.7089 58.2337 18.7989 58.1837L18.8389 58.1637C18.9689 58.0937 19.0989 58.0137 19.2389 57.9437C19.3789 57.8637 19.5189 57.7937 19.6489 57.7137C19.7289 57.6737 19.7589 57.6637 19.7689 57.6637C19.7689 57.6737 19.7889 57.7037 19.7789 57.7837C19.7789 57.8337 19.7789 57.8937 19.7589 57.9437C19.7489 58.0337 19.7389 58.1237 19.7389 58.2237C19.7489 58.9737 20.0889 59.5437 20.6989 59.8737C21.7289 60.4237 23.2289 60.2937 23.9589 59.5937C24.0189 59.5337 24.0889 59.4737 24.1489 59.4137C24.3289 59.2437 24.5189 59.0737 24.6689 58.8737C24.8989 58.5837 25.1389 58.4737 25.5089 58.5037C26.5289 58.5837 27.6089 58.4737 29.0089 58.1637C29.2623 58.1104 29.4589 58.2104 29.5989 58.4637C29.6689 58.5837 29.7589 58.7337 29.8789 58.8437C30.8089 59.6637 31.8289 60.4537 33.2489 60.3537C33.4489 60.3437 33.5389 60.3937 33.6589 60.6037C33.7389 60.7437 33.8089 60.8937 33.8889 61.0437C34.0589 61.3837 34.2289 61.7337 34.4889 62.0337C35.4689 63.1637 36.6389 64.1737 38.0589 65.1237C38.3989 65.3537 38.7289 65.4637 39.0489 65.4637C39.3589 65.4637 39.6689 65.3637 39.9889 65.1537C42.7889 63.3937 45.7689 61.5437 49.6489 59.1337C50.0389 58.8937 50.2189 58.5737 50.1989 58.1337C50.1789 57.6237 50.1189 57.1737 49.9889 56.7637C49.8189 56.1937 49.6189 55.5137 49.5089 54.7837C49.7389 54.7337 49.969 54.7137 50.229 54.7037C51.049 54.6637 51.8789 54.6637 52.6889 54.6537C53.1289 54.6537 53.5589 54.6537 53.9989 54.6437C54.3989 54.6437 54.6289 54.7237 54.8889 54.9737C55.6989 55.7637 56.5089 56.1237 57.3989 56.0937C57.5289 56.0937 57.6289 56.1037 57.6689 56.1437C57.7189 56.1937 57.7189 56.3137 57.7089 56.4337C57.6889 57.0237 57.6789 57.6237 57.6689 58.2137C57.6689 58.2437 57.6689 58.2837 57.6689 58.3237C57.6589 58.4737 57.6389 58.6537 57.7689 58.8037L57.8289 58.8737C58.2389 59.3637 58.6689 59.8737 59.3789 60.0737C60.0789 60.2637 60.7889 60.1837 61.6189 59.8137L61.729 59.7637C61.919 59.6737 62.0789 59.5937 62.2789 59.6337C63.6989 59.8537 65.1689 59.9737 66.4589 60.0837C66.6889 60.1037 66.8589 60.1637 67.0189 60.3037C67.4789 60.6737 67.9689 60.9537 68.4889 61.1237C69.0689 61.3137 69.9689 61.3337 70.6889 60.9437C71.1789 60.6737 71.4989 60.2437 71.6289 59.7037C71.6789 59.5137 71.7989 59.3837 71.9889 59.2237C72.3289 58.9537 72.569 58.5937 72.789 58.2537C72.929 58.0437 72.8889 57.8037 72.7089 57.6637C72.5289 57.5337 72.3389 57.5737 72.1489 57.7937C72.0989 57.8537 72.0489 57.9137 72.0089 57.9837C71.9289 58.1037 71.849 58.2137 71.729 58.2837C71.399 56.7837 70.9589 55.0537 70.2389 53.3837H70.2689C70.3989 53.3637 70.4989 53.3437 70.6089 53.3437C71.9389 53.2437 73.2489 53.0837 74.5089 52.8537C75.1589 52.7337 75.5789 52.6937 75.8189 53.2837C75.8689 53.3937 75.9489 53.4737 76.0589 53.5137C76.1689 53.5437 76.2889 53.5337 76.3889 53.4637C76.5589 53.3637 76.6089 53.1737 76.5189 52.9637V52.9337C76.5189 52.9337 76.4789 52.8537 76.4489 52.8037C76.3789 52.7037 76.3489 52.6237 76.3689 52.5837C76.3789 52.5537 76.4289 52.4937 76.6389 52.4337C76.8989 52.3537 77.1589 52.2737 77.4189 52.1837C77.6589 52.1037 77.8889 52.0337 78.1289 51.9637C80.2089 51.3237 81.9589 50.3837 83.4689 49.0837L83.5189 49.0437C83.6789 48.9137 83.849 48.7637 83.909 48.5137C83.949 48.3337 83.879 48.1637 83.729 48.0537C83.589 47.9637 83.429 47.9637 83.289 48.0737C83.169 48.1637 83.0589 48.2737 82.9489 48.3737L82.909 48.4137C82.389 48.8937 81.779 49.3337 80.979 49.8037C79.159 50.8837 77.1489 51.4137 75.4189 51.8037C73.5189 52.2337 71.4189 52.4737 69.0189 52.5437C66.0889 52.6337 63.0589 52.3737 59.9889 51.7837C57.6389 51.3337 55.3589 50.6437 53.2089 49.7537C51.6289 49.0937 49.6189 48.1237 48.0189 46.4437C47.3289 45.7137 46.859 45.0537 46.539 44.3437C46.399 44.0437 46.4289 43.8237 46.6389 43.6037C47.6089 42.5337 48.4089 41.2437 49.0889 39.6437C49.8489 37.8437 50.2389 35.9037 50.3089 33.6937C50.3589 31.9537 50.1389 30.1837 49.6589 28.4437C48.9989 26.0637 47.8689 23.9537 46.2989 22.1537C45.8189 21.6037 45.5789 21.0437 45.5289 20.3537C45.5089 20.0437 45.4789 19.7337 45.4489 19.4137C45.4289 19.2037 45.429 19.1337 45.539 19.0737C45.879 18.8937 45.7989 18.6337 45.7489 18.5337C45.6989 18.4237 45.5589 18.2537 45.2189 18.3037C44.6689 18.3937 44.1589 18.4537 43.6789 18.4637C43.4989 18.4637 43.3089 18.4837 43.1289 18.4937C43.0289 18.4937 42.9189 18.5037 42.8189 18.5137C42.5989 18.5237 42.4589 18.6637 42.4589 18.8737C42.4589 19.0937 42.5689 19.2537 42.7689 19.2937C42.9689 19.3337 43.1389 19.3437 43.2889 19.3437C43.5889 19.3437 43.909 19.3137 44.229 19.2837C44.339 19.2737 44.4189 19.2837 44.4589 19.3137C44.5089 19.3537 44.5189 19.4537 44.5189 19.5237C44.5189 19.7737 44.5389 20.0137 44.5589 20.2837C44.5589 20.3237 44.5589 20.3537 44.5589 20.3937C44.4189 20.3037 44.2989 20.2037 44.1789 20.1037C43.9789 19.9437 43.7889 19.7837 43.5489 19.6837C43.4189 19.6237 43.1389 19.4937 42.9189 19.7637C42.7889 19.9237 42.6989 20.1637 42.9989 20.4637C43.3289 20.7937 43.7189 21.0837 44.1689 21.3337C45.2889 21.9637 46.019 22.9537 46.539 23.7537C47.859 25.7837 48.7089 27.8337 49.1289 30.0337C49.7089 33.0937 49.4589 36.1037 48.3589 38.9737C46.9989 42.5337 44.6589 45.0637 41.3789 46.5037C40.9989 46.6737 40.5989 46.8037 40.2189 46.9337C39.8989 47.0437 39.5789 47.1537 39.2589 47.2737L38.7089 47.4937C37.5489 47.9637 36.3489 48.4437 35.1589 48.9137C34.7589 49.0737 34.3489 49.2137 33.9489 49.3537C33.0289 49.6837 32.0689 50.0137 31.1889 50.5037C30.7489 50.7437 30.2889 50.9137 29.8289 51.0037C27.9689 51.3637 25.7989 51.7437 23.6489 51.6237C21.7989 51.5237 19.9989 51.3337 18.2989 51.0637C15.6189 50.6337 13.2089 49.9737 10.9389 49.0437C10.4489 48.8437 9.96893 48.5837 9.51893 48.3337C9.38893 48.2637 9.25892 48.1937 9.12892 48.1237L8.74891 47.9237C8.31891 47.6937 7.87891 47.4637 7.46891 47.2037C6.22891 46.4137 5.13892 45.3737 4.22892 44.1237C1.63892 40.5337 0.558933 36.5337 1.01893 32.2237C1.28893 29.7237 2.24892 27.5037 3.87892 25.6237C4.28892 25.1537 4.39891 24.7037 4.24891 24.0837C3.89891 22.5637 3.72893 21.0037 3.60893 19.6737C3.36893 16.9537 3.41893 14.5537 3.76893 12.3237C4.06893 10.4437 4.54893 8.26369 5.85893 6.39369C6.80893 5.03369 7.83892 4.30369 9.09892 4.10369C10.0189 3.96369 10.9789 4.12369 12.1389 4.60369C14.2389 5.49369 15.7189 7.08369 17.0089 8.66369C18.2789 10.2237 19.4289 12.0937 20.5189 14.3837C20.7489 14.8737 20.8989 15.1737 20.8389 15.3237C20.7889 15.4737 20.4889 15.6237 19.9889 15.8737C18.7789 16.4637 17.8689 17.0837 17.1289 17.8037L17.0989 17.8337C16.8989 18.0337 16.6789 18.2437 16.5889 18.5437C16.5389 18.7137 16.5889 18.8637 16.7089 18.9637C16.8289 19.0537 16.9689 19.0637 17.1189 19.0137C17.2689 18.9537 17.3689 18.8437 17.4489 18.7437L17.4889 18.6937C17.7289 18.4137 17.9989 18.1637 18.2989 17.9337C21.5289 15.4637 25.3189 14.6437 29.5589 15.4837C30.1789 15.6037 30.8289 15.7537 31.4289 16.0337C31.5389 16.0837 31.6489 16.0937 31.7389 16.0637C31.7989 16.0437 31.8789 15.9937 31.9289 15.8837C32.0189 15.6937 31.9489 15.5037 31.7489 15.3937C31.4089 15.1937 31.0789 15.0537 30.7389 14.9537C28.8189 14.4037 27.0289 14.2137 25.2689 14.3737C25.1589 14.3837 24.8989 14.4037 24.8589 14.3737C24.8289 14.3337 24.8589 14.0937 24.8789 13.9937C25.3089 11.0837 26.2689 8.29369 27.7489 5.69369C28.4989 4.36369 29.3289 3.30369 30.2889 2.43369C31.9789 0.903691 33.8289 0.473692 35.7989 1.15369C37.0689 1.59369 37.9789 2.55369 38.6289 3.34369C39.5989 4.52369 40.3789 5.85369 40.9889 7.40369C41.8589 9.59369 42.4189 11.8737 42.7089 14.3937C42.7089 14.4337 42.7089 14.4837 42.7089 14.5337C42.7089 14.7337 42.7189 15.0737 43.1289 15.1537C43.2489 15.1737 43.3589 15.1537 43.4489 15.0637C43.4789 15.0337 43.4989 15.0037 43.5289 14.9637C43.5289 14.9637 43.5289 14.9837 43.5289 14.9937C43.5289 15.1037 43.5589 15.2237 43.5989 15.3737C43.6689 15.6137 43.8389 15.7437 44.0689 15.7137C44.1989 15.6937 44.3689 15.6137 44.3789 15.3037V15.2437C44.3789 15.0937 44.3889 14.9337 44.3789 14.7837C44.3089 14.1137 44.3589 13.4337 44.4089 12.8237C44.5689 10.7137 44.989 9.07369 45.729 7.67369C47.049 5.16369 49.1689 4.11369 52.0189 4.54369C53.3789 4.75369 54.7289 5.27369 56.3889 6.24369C58.2989 7.36369 59.9589 8.79369 61.4989 10.1637C61.8989 10.5137 62.2389 10.9337 62.5789 11.3437C62.7189 11.5137 62.8589 11.6837 63.0089 11.8537C63.0489 11.8937 63.0589 11.9337 63.0689 11.9237C63.0689 11.9237 63.029 11.9437 62.979 11.9537C62.909 11.9637 62.8389 11.9737 62.7689 11.9737C62.7189 11.9737 62.6789 11.9737 62.6289 11.9837C60.5389 12.2337 58.5589 12.8137 56.7389 13.7237C56.5689 13.8137 56.3989 13.9137 56.2389 14.0037C55.9589 14.1737 55.6889 14.3337 55.3789 14.4337C55.3089 14.4537 55.059 14.5437 54.979 14.7537C54.949 14.8337 54.9289 14.9637 55.0089 15.1237C55.0989 15.2837 55.2189 15.3437 55.2989 15.3637C55.4389 15.3937 55.5989 15.3637 55.7689 15.2437C55.8489 15.1837 55.9389 15.1437 56.0289 15.0937C56.1089 15.0537 56.1889 15.0037 56.2589 14.9637C57.1389 14.4037 58.179 13.9437 59.539 13.5237C61.969 12.7637 64.6589 12.4937 68.0089 12.6637C70.5489 12.7937 72.5689 13.1637 74.3889 13.8337C74.7589 13.9737 75.0989 13.9237 75.3989 13.7037C75.9289 13.3037 76.5389 13.0437 77.1289 12.8237C79.0989 12.0937 81.7089 11.2137 84.5189 10.9237C86.7489 10.6937 88.5489 10.8037 90.1789 11.2737C93.2889 12.1637 95.2289 13.9637 96.1089 16.7837C96.6989 18.6937 96.819 20.7237 96.479 22.9937C95.999 26.1637 94.9189 29.3237 93.0689 32.9337C92.2089 34.6037 91.1789 36.3037 89.8189 38.2637L89.7989 38.2837C89.6889 38.4337 89.5689 38.6137 89.5489 38.8337V38.9037C89.5189 39.0537 89.4889 39.3037 89.7189 39.4337C89.7989 39.4737 89.8689 39.4937 89.9289 39.4937C90.1589 39.4937 90.2989 39.2737 90.3689 39.1737L90.6489 38.7637C90.9489 38.3137 91.2589 37.8537 91.5489 37.3937C93.8289 33.7137 95.2789 30.7337 96.2589 27.7237C97.0589 25.2537 97.4689 23.0337 97.5089 20.9137C97.5089 19.2637 97.2989 17.8037 96.8589 16.4437V16.4237ZM48.8589 58.5637C48.3489 58.8937 47.8289 59.2137 47.3189 59.5437C46.8089 59.8637 46.3089 60.1837 45.7989 60.5037C43.8789 61.7237 41.9589 62.9437 40.0489 64.1637C39.1889 64.7137 38.9189 64.7037 38.0989 64.1037C37.2389 63.4637 36.2389 62.6937 35.3789 61.7537L35.2789 61.6537C35.1489 61.5137 35.0189 61.3837 34.9389 61.2137C34.9989 61.2137 35.0589 61.2137 35.1289 61.2237C35.3489 61.2437 35.5989 61.2637 35.8189 61.0737C35.9289 60.9737 36.0389 60.8737 36.1589 60.7737C36.2789 60.6637 36.3889 60.5637 36.5089 60.4637C38.8689 58.4237 41.5689 56.9837 44.3689 55.5737L44.7789 55.3637C45.7589 54.8637 46.7789 54.3537 47.8189 53.9237C47.9489 53.8737 48.0389 53.8537 48.0689 53.8737C48.1089 53.8937 48.1489 53.9537 48.1889 54.0737C48.7089 55.4937 49.0389 56.5937 49.2489 57.6637C49.3289 58.057 49.1956 58.3637 48.8489 58.5837L48.8589 58.5637ZM56.3189 51.8737C56.5789 51.8237 56.8289 51.8937 57.0889 51.9637L57.1589 51.9837C59.1189 52.5237 61.2489 52.9137 63.6689 53.2037C65.1789 53.3837 66.8289 53.4437 68.8689 53.4137C69.3189 53.4137 69.319 53.4137 69.479 53.7337L69.539 53.8437C70.129 55.0237 70.4389 56.3137 70.7389 57.5637L70.8089 57.8737C70.9689 58.5237 71.0689 59.1137 70.7089 59.6837C70.3389 60.2537 69.7289 60.5337 69.1089 60.4037C68.4489 60.2637 67.9789 60.0237 67.6289 59.6537C67.3689 59.3737 67.059 59.2337 66.659 59.2137C65.339 59.1337 63.9389 59.0237 62.1189 58.8737C62.0889 58.8737 62.0589 58.8737 62.0289 58.8737C61.7889 58.8737 61.5989 58.9537 61.4089 59.0437C61.3489 59.0637 61.2989 59.0937 61.2389 59.1137C60.6889 59.3237 60.0389 59.4937 59.3689 59.1337C58.7089 58.7737 58.5489 58.4937 58.6089 57.7437C58.6089 57.6537 58.6089 57.5737 58.6089 57.4837V57.4637C58.6089 57.4637 58.6389 57.4037 58.6389 57.3737V57.1337C58.6389 56.9537 58.6389 56.7637 58.6389 56.5837C58.6389 56.5137 58.6389 56.4237 58.6789 56.3837C58.7089 56.3537 58.7889 56.3437 58.9089 56.3537L59.1089 56.3737C59.9189 56.4737 60.7589 56.5737 61.5889 56.6437C62.7489 56.7437 63.9089 56.8437 65.0789 56.9337L66.409 57.0437C66.409 57.0437 66.4689 57.0437 66.4989 57.0437H66.5589C66.8989 57.0637 67.0989 56.9037 67.1189 56.6137C67.1289 56.4637 67.0789 56.3337 66.9889 56.2437C66.8889 56.1537 66.7489 56.1037 66.5889 56.1237C66.2889 56.1537 65.9989 56.1237 65.6989 56.0937C65.5589 56.0837 65.4089 56.0637 65.2689 56.0537C62.5589 55.9037 59.869 55.6437 57.289 55.2937C56.409 55.1737 55.4089 54.5237 55.2489 53.6337C55.0789 52.7137 55.4989 52.0137 56.2989 51.8637L56.3189 51.8737ZM55.1689 51.3937C54.4789 52.0637 54.1889 52.8637 54.3089 53.7637C54.0689 53.8537 53.8389 53.8537 53.6089 53.8537H53.5589C52.2689 53.8537 50.9289 53.8537 49.6189 53.9637C49.3389 53.9837 49.2089 53.9137 49.1189 53.6637C48.9389 53.1637 48.8189 52.7737 48.9889 52.3337C49.1489 51.9337 49.1589 51.4637 49.0289 50.9137C48.9989 50.7837 49.0289 50.7437 49.0289 50.7337C49.0289 50.7237 49.0789 50.6937 49.2089 50.6837C49.3789 50.6837 49.5489 50.6837 49.7089 50.6837C50.0889 50.6837 50.4789 50.6837 50.8589 50.6137C51.1789 50.5637 51.4989 50.5337 51.8289 50.5337C52.8889 50.5337 53.9789 50.8137 55.1789 51.3837L55.1689 51.3937ZM45.729 44.7037C46.859 46.9637 48.739 48.6137 51.479 49.7537C51.459 49.7737 51.4389 49.7637 51.3889 49.7637C51.3589 49.7637 51.3389 49.7637 51.3089 49.7637C51.0489 49.7637 50.7889 49.7737 50.5289 49.7737C49.9889 49.7737 49.4289 49.7737 48.8789 49.8537C48.6789 49.8837 48.5389 49.8137 48.4189 49.6337C47.5689 48.4437 46.4489 47.8437 45.0689 47.8437C44.8289 47.8437 44.5789 47.8637 44.3289 47.8937C44.1689 47.9137 44.0689 47.9137 43.9789 47.8337C43.6289 47.5337 43.2389 47.3037 42.7889 47.0337C42.7389 47.0037 42.6789 46.9737 42.6289 46.9337C43.7389 46.2637 44.779 45.6137 45.729 44.6937V44.7037ZM31.1989 51.4237C32.2189 50.9037 33.3089 50.5037 34.3589 50.1137C34.6589 50.0037 34.9689 49.8937 35.2689 49.7737C36.1389 49.4437 37.0189 49.0837 37.8589 48.7337C38.3789 48.5237 38.8989 48.3037 39.4189 48.0937C39.5689 48.0337 39.7389 47.9837 39.8989 47.9337C40.1489 47.8637 40.4089 47.7837 40.6389 47.6537C40.9189 47.5037 41.1889 47.4337 41.4589 47.4337C41.8889 47.4337 42.3189 47.6137 42.7689 47.9837C43.1589 48.2937 43.5389 48.5037 43.9389 48.6037C43.8889 48.6037 43.8289 48.6037 43.7789 48.6137C43.7189 48.6137 43.6589 48.6237 43.6089 48.6137C40.7589 48.4537 38.2089 49.5237 36.3089 50.4637C34.3089 51.4537 32.6389 52.5237 31.1989 53.7437C31.1189 53.8137 31.0589 53.8537 30.9689 53.8537C30.7789 53.1837 30.7089 52.5637 30.7689 51.9637C30.7889 51.6837 30.8989 51.5437 31.1789 51.4037L31.1989 51.4237ZM31.0989 54.8837C33.4689 52.8737 36.1589 51.2837 39.1089 50.1737C40.6689 49.5837 42.1289 49.3537 43.5789 49.4637C43.6189 49.4637 43.6589 49.4637 43.6989 49.4737C43.8889 49.4937 44.129 49.5237 44.289 49.3937C44.379 49.3237 44.4289 49.2137 44.4289 49.0637C44.4289 48.9137 44.3989 48.7937 44.3189 48.7137C44.2989 48.6937 44.2689 48.6737 44.2489 48.6637C44.4889 48.6937 44.7389 48.6937 45.0089 48.6637C46.0089 48.5637 46.8989 49.0137 47.8189 50.0837C48.3289 50.6837 48.3489 52.1737 47.8489 52.8737C47.7489 53.0137 47.5989 53.0937 47.3989 53.1737C45.4289 53.9537 43.5489 54.9737 41.7189 55.9537C41.3989 56.1237 41.0789 56.2937 40.7589 56.4637C38.8489 57.4837 37.1389 58.8437 35.6889 60.0437C35.4489 60.2437 35.2689 60.3737 35.0089 60.2637C34.7489 60.1537 34.7289 60.0337 34.7289 59.9837C34.7289 59.9637 34.7989 59.9337 34.8289 59.9237C34.8689 59.9037 34.9089 59.8837 34.9489 59.8537L34.9989 59.8137C35.0689 59.7737 35.1289 59.7237 35.1889 59.6637C35.3589 59.4837 35.3289 59.3337 35.2689 59.2337C35.1989 59.1137 35.0789 59.0437 34.9589 59.0437C34.9289 59.0437 34.8889 59.0437 34.8589 59.0637C34.7289 59.1037 34.5989 59.1537 34.4689 59.2037C34.3989 59.2337 34.3289 59.2537 34.2589 59.2837C32.9489 59.7537 31.6089 59.3937 30.6889 58.3237C30.3489 57.9337 30.1789 57.3037 30.2389 56.6537C30.2989 55.9337 30.6089 55.3037 31.1089 54.8737L31.0989 54.8837ZM19.4789 54.2837C19.5689 53.8737 19.7189 53.4637 19.8589 53.0637C19.9189 52.8837 19.9889 52.7137 20.0489 52.5337C20.1389 52.2537 20.2889 52.1537 20.5889 52.1937C20.8389 52.2237 21.0789 52.2437 21.3289 52.2637C21.7089 52.2937 22.1089 52.3237 22.4789 52.3937C23.1589 52.5337 23.8489 52.5037 24.5089 52.4737C24.6689 52.4737 24.8289 52.4637 24.9989 52.4537C26.4889 52.4137 28.2089 52.3337 29.9289 51.8737C29.9489 52.1537 29.9589 52.4237 29.9589 52.6837C29.9689 53.2337 29.9789 53.7637 30.1089 54.2837C30.1389 54.3837 30.1089 54.4537 30.0389 54.5337C29.4489 55.1337 29.4089 55.9137 29.3689 56.6337C29.3489 56.967 29.1856 57.1737 28.8789 57.2537C27.6389 57.5837 26.4289 57.7137 25.2689 57.6437C24.8489 57.6137 24.5789 57.7437 24.3589 58.0537C24.2889 58.1537 24.1989 58.2437 24.1089 58.3437C24.0389 58.4237 23.9689 58.4937 23.8989 58.5837C23.3589 59.2537 22.5989 59.4837 21.5289 59.3037C21.1289 59.2337 20.8289 59.0537 20.6789 58.7637C20.5189 58.4737 20.5189 58.0837 20.6789 57.6837C20.7289 57.5737 20.8089 57.5237 20.9189 57.4637C20.9589 57.4437 20.9989 57.4237 21.0289 57.4037C21.4089 57.1637 21.8289 56.8537 22.0489 56.3237C22.0889 56.2337 22.1889 55.9937 21.9589 55.8337C21.9089 55.7937 21.8389 55.7637 21.7589 55.7637C21.6789 55.7637 21.5689 55.7937 21.4489 55.8937C21.3289 55.9837 21.1989 56.0937 21.1389 56.2637C21.0089 56.6437 20.6389 56.7337 20.2889 56.8237C20.0489 56.8837 19.8589 56.7937 19.7389 56.7137C19.4989 56.5437 19.3289 56.2437 19.2889 55.9137C19.2289 55.3937 19.3389 54.8837 19.4589 54.3537L19.4789 54.2737V54.2837ZM72.8989 43.4837C73.1889 43.8437 73.6489 44.0537 74.1089 44.0537C74.3289 44.0537 74.5389 44.0137 74.7389 43.9137C75.2689 43.6637 75.5289 43.0437 75.3989 42.2837C75.2489 41.3337 74.579 40.8037 73.849 40.2937L73.789 40.2537C73.479 40.0337 73.3489 39.9437 73.5089 39.6037C73.5889 39.4237 73.579 39.2537 73.479 39.1337C73.369 39.0037 73.1789 38.9637 72.9589 39.0237C72.7889 39.0737 72.599 39.1637 72.409 39.2937C72.129 39.4737 71.8689 39.5337 71.5789 39.4637C71.4389 39.4337 71.2989 39.4237 71.1689 39.4137C71.1089 39.4137 71.0489 39.4137 70.9989 39.4037C70.9789 39.4037 70.9489 39.4037 70.9289 39.4237H70.8789C70.7889 39.4237 70.7089 39.4237 70.6189 39.4237C70.1289 39.4637 69.5689 39.5337 69.0489 39.7937C68.7789 39.9237 68.6489 40.0837 68.6389 40.2637C68.6389 40.4437 68.7489 40.6137 68.9989 40.7737C69.1189 40.8537 69.2489 40.9237 69.3789 40.9837C69.4589 41.0237 69.5489 41.0737 69.6289 41.1137C69.7889 41.2037 69.9489 41.2937 70.1089 41.3837C71.1089 41.9537 72.1489 42.5437 72.8989 43.4837ZM59.0789 45.7637C59.2689 48.0437 61.3189 49.1337 63.1289 49.1837C63.1289 49.1837 63.1389 49.1837 63.1489 49.1837L63.3089 49.1637C63.4489 49.1437 63.6189 49.1237 63.7789 49.1037C64.7089 49.0037 65.5689 48.3237 65.9689 47.3937C66.3789 46.4437 66.2389 45.4037 65.5889 44.5437C65.4389 44.3437 65.2089 44.1237 64.7789 44.1937C63.8789 44.3437 63.0089 44.1937 62.1989 43.7537C61.9289 43.6037 61.6289 43.4837 61.3489 43.3737L61.2689 43.3437C60.7789 43.1537 60.359 43.1737 59.979 43.4137C59.849 43.4937 59.6689 43.5637 59.4289 43.6137C58.9489 43.7137 58.8289 43.6437 58.5689 43.1137C58.5089 42.9837 58.3889 42.8937 58.2489 42.8737C58.0389 42.8337 57.9389 42.9937 57.8789 43.0837C57.6589 43.4137 57.6989 43.7437 57.9989 44.0437C58.2489 44.2837 58.5589 44.4337 58.9089 44.4637C58.9889 44.4637 59.0889 44.4937 59.1289 44.5437C59.1689 44.6037 59.1489 44.7137 59.1289 44.8037C59.0489 45.0837 59.0289 45.3937 59.0689 45.7737L59.0789 45.7637ZM59.979 44.5637C60.029 44.2637 60.2489 44.1337 60.6289 44.0137C60.6489 44.0137 60.6689 44.0137 60.6989 44.0137C60.9589 44.0137 61.4889 44.3037 61.5989 44.5237C61.8289 44.9837 62.0289 45.4837 62.1789 46.0137C62.1789 46.0437 62.1989 46.0837 62.2089 46.1137C62.2189 46.1737 62.2389 46.2337 62.2589 46.2937C62.2689 46.3337 62.2789 46.3837 62.2989 46.4337C62.3389 46.6037 62.379 46.7837 62.539 46.8737C62.629 46.9237 62.7489 46.9337 62.8789 46.8837C63.2989 46.7437 63.1689 46.3237 63.0889 46.0937L63.0589 46.0137C62.9689 45.7137 62.8689 45.4237 62.7489 45.0837L62.6789 44.8837C63.4089 45.0637 64.0589 45.1937 64.7489 45.0837C64.8689 45.0637 64.9489 45.1037 65.0689 45.3437C65.3389 45.9037 65.3389 46.5637 65.0689 47.1437C64.7989 47.7137 64.2989 48.1237 63.7089 48.2637C62.5689 48.5237 60.9989 47.9237 60.3289 46.9737C59.7989 46.2037 59.8389 45.3537 59.9689 44.5537L59.979 44.5637ZM31.8789 35.0537C31.9589 35.0537 32.0789 35.0037 32.1789 34.8537C32.3889 34.5437 32.0889 34.3237 31.9789 34.2437C31.8889 34.1737 31.7989 34.1037 31.7189 34.0237C31.2189 33.5737 30.5789 32.9737 30.0289 32.2437C29.1189 31.0237 28.5889 29.6137 28.1489 28.2637C27.9189 27.5637 27.9989 26.9437 28.3989 26.3037C28.6389 25.9137 28.9889 25.4237 29.5489 25.2037C30.1189 24.9737 30.2289 24.9137 30.1589 24.2737C30.0589 23.4037 29.6689 22.6237 28.9989 21.9437C28.4589 21.3937 28.0389 21.3637 27.7789 21.4237C27.5189 21.4937 27.1589 21.7337 26.9589 22.5037C26.9489 22.5437 26.9389 22.5937 26.9389 22.6337C26.9389 22.6637 26.9389 22.6937 26.9389 22.7137C26.8189 23.1137 26.8089 23.5137 26.8089 23.8937C26.8089 24.0937 26.8089 24.3037 26.7889 24.5037C26.7889 24.5037 26.7889 24.5037 26.7889 24.5137C26.7489 25.8637 27.0389 27.1537 27.2889 28.1337C27.8089 30.1337 28.4989 31.6437 29.4489 32.8737C29.9389 33.5037 30.5289 34.0337 31.0989 34.5537C31.2289 34.6637 31.3489 34.7837 31.4789 34.8937C31.5989 35.0037 31.7189 35.0637 31.8389 35.0637C31.8489 35.0637 31.8689 35.0637 31.8789 35.0637V35.0537ZM56.5889 38.5537C56.8089 38.5537 57.1589 38.5637 57.2789 38.2137C57.3989 37.8737 57.1389 37.6237 56.9489 37.4537C56.6289 37.1537 56.2189 37.0237 55.8689 36.9337C55.7989 36.9137 55.7289 36.9037 55.6589 36.8837C55.2089 36.7837 54.8189 36.6937 54.5689 36.2737C54.4689 36.1037 54.3089 36.0137 54.1289 36.0237C53.9389 36.0337 53.7789 36.1637 53.6889 36.3737C53.5789 36.6237 53.4389 36.6537 53.1489 36.6637C52.6189 36.6837 52.0789 36.8037 51.5189 37.0437C50.8189 37.3437 50.419 37.9737 50.479 38.7037C50.489 38.8337 50.5189 39.0337 50.6789 39.1537C50.7789 39.2437 50.9289 39.2837 51.1189 39.2837C51.1689 39.2837 51.2189 39.2837 51.2789 39.2837C51.2789 39.2837 51.2889 39.2837 51.2989 39.2837L51.6489 39.2037C51.9589 39.1337 52.3189 39.0437 52.6789 38.9737C54.2089 38.6737 55.3989 38.5337 56.5289 38.5437H56.5889V38.5537ZM32.7689 32.3537H32.8189C32.8189 32.3537 32.8289 32.3537 32.8389 32.3537C32.9089 32.3437 32.9689 32.3337 33.0389 32.3237C33.1889 32.3037 33.3389 32.2837 33.4789 32.2537C35.2689 31.8537 37.0089 31.0737 38.9489 29.8137C39.4189 29.5137 39.9589 29.1237 40.3989 28.6037C40.7589 28.1737 40.7489 27.8737 40.3589 27.5137C39.9689 27.1537 39.5689 27.1637 39.1589 27.5437C38.5889 28.0637 37.9789 28.5637 37.3489 29.0037C35.9589 30.0037 34.3589 30.6437 32.8089 31.2737L32.6289 31.3437C32.3989 31.4337 32.0489 31.5737 32.1589 32.0037C32.2289 32.3137 32.4689 32.3537 32.6589 32.3537C32.7089 32.3537 32.7489 32.3537 32.7889 32.3537H32.7689ZM56.1389 44.7737C55.8589 44.3237 55.3489 44.0637 54.7389 44.0637C54.7189 44.0637 54.7089 44.0637 54.6889 44.0637C54.1289 44.1337 53.4589 44.3137 53.1389 45.0637C52.8789 45.6937 52.9389 46.3237 53.3289 46.8337L53.3789 46.9037C53.5289 47.0937 53.659 47.2637 53.729 47.4937C53.879 47.9437 54.3989 48.2437 54.9289 48.2437C55.0689 48.2437 55.2089 48.2237 55.3489 48.1737C55.9289 47.9837 56.1689 47.5037 55.9989 46.8537C55.9489 46.6437 55.9989 46.5237 56.1189 46.3137C56.3989 45.7937 56.3889 45.2337 56.1189 44.7737H56.1389ZM55.0489 46.2937C54.8389 46.4837 54.7289 46.5837 54.7389 46.7337C54.7389 46.8837 54.8689 46.9737 55.0689 47.1137L55.0989 47.1337C55.2189 47.2237 55.2189 47.2237 55.1989 47.2837C55.1789 47.3437 55.1589 47.3737 54.9989 47.3737C54.7189 47.3837 54.6489 47.3437 54.6189 47.0037C54.5989 46.7537 54.4489 46.6237 54.3189 46.5137L54.2589 46.4637C53.8289 46.0837 53.7589 45.7937 53.9989 45.3237C54.1389 45.0537 54.429 44.9037 54.789 44.9037C54.859 44.9037 54.9289 44.9037 54.9989 44.9237C55.2089 44.9537 55.4989 45.0637 55.5189 45.6637C55.5189 45.8437 55.2789 46.0837 55.0589 46.2837L55.0489 46.2937ZM90.3189 14.7937C89.9089 14.8437 89.5389 14.9637 89.1889 15.1337C87.5889 15.9237 86.1389 17.0937 84.7389 18.7037C84.6189 18.8437 84.5189 18.9937 84.4289 19.1437L84.3989 19.1837C84.2689 19.3937 84.2889 19.6037 84.4689 19.7637C84.5789 19.8537 84.6889 19.9037 84.8089 19.9037C84.9189 19.9037 85.0289 19.8637 85.1189 19.7737C85.2689 19.6337 85.3989 19.4637 85.5089 19.3137C85.8289 18.8537 86.2189 18.4537 86.6489 18.1037L86.7789 17.9937C87.8589 17.1337 88.9689 16.2437 90.3289 15.7537C90.4189 15.7237 90.4989 15.6937 90.6089 15.6337C90.7489 15.5537 90.9989 15.4037 90.8989 15.0937C90.8089 14.8137 90.5389 14.7937 90.3789 14.7837L90.349 14.9337V14.7837C90.349 14.7837 90.3489 14.7837 90.3289 14.7837L90.3189 14.7937ZM62.6089 38.4637C62.6089 38.4637 62.5489 38.4837 62.5189 38.4937C62.4089 38.5237 62.2589 38.5637 62.1889 38.6937C62.1389 38.7737 62.1389 38.8737 62.1689 38.9937C62.2389 39.2237 62.3989 39.2837 62.5589 39.2837C62.6689 39.2837 62.7789 39.2537 62.8389 39.2337C63.0389 39.1737 63.2589 39.0937 63.5189 38.9737C64.3089 38.6137 65.0189 38.0337 65.7489 37.1437C67.0089 35.6037 67.5589 34.0037 67.4189 32.2637C67.4089 32.0837 67.379 31.9137 67.349 31.7337L67.3289 31.6237C67.2889 31.3737 67.1289 31.2237 66.8989 31.2337C66.7889 31.2337 66.7089 31.2737 66.6489 31.3437C66.5589 31.4537 66.5489 31.5937 66.5589 31.7037C66.5689 31.9137 66.5789 32.1137 66.5889 32.2837V32.4637C66.6389 35.1437 65.0289 37.5637 62.5989 38.4837L62.6089 38.4637ZM77.8189 31.8237C78.1089 31.6137 77.9989 31.3937 77.9589 31.3237C77.8589 31.1637 77.6789 31.1037 77.4689 31.1737H77.4289C77.2989 31.2237 77.1789 31.2737 77.0589 31.3237C76.4389 31.5937 75.7889 31.7837 75.1189 31.8837C74.0289 32.0537 73.1389 31.9837 72.3189 31.6937C71.4989 31.3937 70.8789 30.8837 70.4589 30.1637C70.2789 29.8537 70.0689 29.8737 69.9289 29.9437C69.7889 30.0137 69.6489 30.1637 69.7789 30.5037C69.9089 30.8337 70.099 31.1237 70.409 31.4337C71.329 32.3537 72.5289 32.8137 74.0689 32.8337C74.0789 32.8337 74.089 32.8337 74.099 32.8337C75.189 32.8337 76.2789 32.5737 77.4289 32.0537C77.5589 31.9937 77.6889 31.9137 77.8189 31.8237ZM77.9689 17.5637C77.5989 17.3837 77.419 17.7537 77.349 17.8937C77.329 17.9337 77.3189 17.9737 77.2989 18.0137C77.2989 18.0437 77.2789 18.0637 77.2689 18.0937C76.9489 18.8037 76.4889 19.3937 75.8789 19.8637C74.6889 20.7937 73.3389 21.3637 71.8789 21.5537C71.6889 21.5737 71.4989 21.5937 71.3089 21.6037C71.1489 21.6137 70.9789 21.6237 70.8189 21.6437C70.6089 21.6637 70.4689 21.8237 70.4589 22.0237C70.4589 22.2337 70.5989 22.3837 70.8089 22.4037C70.9389 22.4137 71.069 22.4237 71.229 22.4337H71.4489V22.4437C71.4489 22.4437 71.4489 22.4437 71.4589 22.4437C73.5789 22.2437 75.4089 21.4237 76.9189 20.0237C77.3889 19.5837 77.7589 19.0037 78.0889 18.1737C78.1489 18.0337 78.2789 17.7037 77.9589 17.5537L77.9689 17.5637ZM79.7489 44.0637C79.7089 44.1937 79.6189 44.5437 79.9889 44.6437C80.0389 44.6537 80.0789 44.6637 80.1189 44.6637C80.3789 44.6637 80.4889 44.3937 80.5289 44.2937L80.5589 44.2137C80.6189 44.0537 80.6789 43.8937 80.7089 43.7237C80.7289 43.5937 80.7489 43.4737 80.7689 43.3437C80.8489 42.8937 80.9289 42.4237 80.8889 41.9337C80.9589 41.3437 80.8489 40.7637 80.7389 40.1937L80.7189 40.0837C80.4789 38.8137 79.919 37.6437 79.039 36.6037L78.9989 36.5537C78.8689 36.3937 78.5889 36.0537 78.2589 36.3237C78.1589 36.4037 78.109 36.4937 78.099 36.5937C78.089 36.7737 78.2189 36.9237 78.3289 37.0437C78.3489 37.0637 78.3689 37.0937 78.3889 37.1137C79.8589 38.8737 80.359 40.9237 79.909 43.3837C79.869 43.6137 79.8089 43.8437 79.7489 44.0637ZM57.6489 32.1337C58.1389 32.1337 58.6089 32.0537 59.0489 31.9637C60.6889 31.6237 61.8389 30.9937 62.6789 29.9837C62.9789 29.6137 63.1989 29.1937 63.3489 28.6737C63.3989 28.4837 63.3089 28.3037 63.1089 28.2137C62.9989 28.1637 62.7889 28.1237 62.6389 28.4137C62.6189 28.4537 62.5989 28.5037 62.5789 28.5537C62.5789 28.5737 62.5589 28.6037 62.5489 28.6237C62.0889 29.6537 61.2489 30.3937 60.0489 30.8237C58.7889 31.2737 57.6489 31.4337 56.5589 31.3237C56.4589 31.3137 56.3489 31.3037 56.2489 31.3237C56.0689 31.3437 55.9489 31.4337 55.8989 31.5737C55.8689 31.6837 55.8489 31.8837 56.1389 32.0237C56.4389 32.1737 56.7489 32.1537 57.0489 32.1437C57.1389 32.1437 57.2289 32.1437 57.3189 32.1437C57.4289 32.1437 57.5389 32.1537 57.6489 32.1537V32.1337ZM49.1489 8.90369C50.0089 10.0937 50.5789 11.4037 51.0189 12.5237C51.0289 12.5537 51.0389 12.5937 51.0489 12.6237C51.0789 12.7237 51.109 12.8637 51.229 12.9637C51.309 13.0337 51.4089 13.0737 51.4989 13.0737C51.5389 13.0737 51.5689 13.0737 51.6089 13.0537C51.7289 13.0137 51.8189 12.9037 51.8489 12.7637C51.8889 12.5837 51.8689 12.3837 51.7789 12.1837C51.6489 11.8537 51.5089 11.5237 51.3489 11.1937C51.2589 11.0137 51.1789 10.8337 51.0889 10.6537C50.7189 9.87369 50.3389 9.06369 49.7789 8.36369C49.4289 7.93369 48.8589 7.35369 47.9589 7.35369C47.9489 7.35369 47.9389 7.35369 47.9289 7.35369C47.5889 7.35369 47.3189 7.43369 47.0989 7.61369C46.8189 7.84369 46.8789 8.06369 46.9389 8.17369C47.0589 8.38369 47.2789 8.32369 47.3989 8.29369H47.4289C48.3389 8.04369 48.6089 8.14369 49.1489 8.88369V8.90369ZM69.7689 47.8837C70.2689 47.7337 70.5289 47.3537 70.5689 46.7137C70.6089 46.0837 70.1389 45.2137 69.5889 44.9037C69.2289 44.7037 68.7689 44.6837 68.3789 44.8537C68.0489 45.0037 67.8189 45.2637 67.7489 45.5837C67.5889 46.3037 67.7489 46.9437 68.1989 47.4337C68.5089 47.7737 68.8989 47.9437 69.3089 47.9437C69.4589 47.9437 69.6089 47.9237 69.7689 47.8737V47.8837ZM69.2989 47.0837C69.0489 47.0837 68.7889 46.8737 68.6289 46.5737C68.4689 46.2737 68.4489 45.9637 68.5689 45.7637C68.6489 45.6237 68.7989 45.5537 68.9489 45.5537C69.0389 45.5537 69.139 45.5737 69.229 45.6337C69.579 45.8337 69.829 46.4137 69.729 46.8137C69.679 47.0237 69.5589 47.1037 69.2989 47.0937V47.0837ZM13.5689 37.6337C13.7489 37.6137 13.8689 37.4637 13.9689 37.3337L14.0089 37.2837C15.3789 35.6237 16.2089 33.6437 16.5489 31.2137C16.5489 31.2137 16.5489 31.2037 16.5489 31.1937V31.1537C16.5489 31.1037 16.5489 31.0237 16.5489 30.9537C16.5289 30.5837 16.3089 30.5237 16.1689 30.5137C15.8589 30.5037 15.8089 30.7737 15.7889 30.8837V30.9237C15.7489 31.0837 15.7289 31.2537 15.6989 31.4237C15.5689 32.2537 15.4189 32.8837 15.2189 33.4637C14.7689 34.7237 14.1789 35.8037 13.4089 36.7737L13.3689 36.8237C13.2489 36.9637 12.9989 37.2637 13.2889 37.5237C13.3689 37.5937 13.4489 37.6237 13.5389 37.6237C13.5489 37.6237 13.5589 37.6237 13.5689 37.6237V37.6337ZM66.8989 51.7837C66.8989 51.7837 66.9489 51.7837 66.9689 51.7837C67.5989 51.6737 68.3689 51.4337 68.7589 50.5937C68.9089 50.2737 68.919 49.9737 68.789 49.7137C68.659 49.4437 68.3889 49.2537 68.0289 49.1637C67.2489 48.9737 65.9789 49.6037 65.6489 50.3437C65.5989 50.4437 65.5889 50.5637 65.5689 50.6637C65.5389 50.9337 65.6189 51.1937 65.7989 51.3837C66.0389 51.6437 66.4289 51.7837 66.8989 51.7837ZM66.4289 50.7037C66.5189 50.6337 66.6089 50.5537 66.7089 50.4737C66.9889 50.2237 67.2589 49.9837 67.6689 49.9737C67.6989 49.9737 67.7289 49.9737 67.7589 49.9737C67.8989 49.9737 67.9689 49.9937 68.0189 50.0737C68.0589 50.1537 68.0789 50.2437 67.9389 50.4337C67.6889 50.7637 67.3389 50.9237 66.8389 50.9437C66.8189 50.9437 66.7889 50.9437 66.7689 50.9437C66.6989 50.9437 66.6089 50.9237 66.5289 50.8937C66.4489 50.8637 66.4089 50.8137 66.3989 50.7837C66.3989 50.7537 66.4289 50.7337 66.4389 50.7137L66.4289 50.7037ZM62.3589 16.0637C62.9589 16.2837 63.5789 16.5337 64.0589 17.0537C64.8289 17.8937 65.2289 18.9337 65.3189 20.3337C65.3189 20.3637 65.3189 20.3837 65.3189 20.4137C65.3189 20.5737 65.3289 20.9037 65.6889 20.9137C65.6889 20.9137 65.6889 20.9137 65.6989 20.9137C65.8089 20.9137 65.8989 20.8737 65.9689 20.8037C66.0689 20.7037 66.1089 20.5537 66.1089 20.3337C66.1089 20.2937 66.1089 20.2537 66.1089 20.2437C66.1089 20.2437 66.1089 20.2337 66.1089 20.2237L66.0889 19.9837C66.0789 19.8237 66.0689 19.6737 66.0489 19.5337C65.7889 17.3937 64.5189 15.8137 62.6389 15.3137L62.5689 15.2937C62.3689 15.2337 61.9689 15.1237 61.8389 15.5237C61.8089 15.6337 61.8089 15.7237 61.8589 15.8037C61.9389 15.9437 62.1089 15.9837 62.2389 16.0237C62.2789 16.0337 62.3189 16.0437 62.3489 16.0537L62.3589 16.0637ZM68.979 21.0737C68.879 21.1937 68.759 21.3437 68.789 21.5137C68.809 21.6237 68.8889 21.7137 69.0289 21.7837C69.0989 21.8237 69.169 21.8337 69.229 21.8337C69.479 21.8337 69.6289 21.5537 69.7089 21.3937C69.7289 21.3537 69.7489 21.3237 69.7689 21.2837C70.2489 20.4537 70.5189 19.5237 70.5089 18.6637C70.5489 17.5937 70.3789 16.6637 69.9489 15.7337C69.7889 15.3937 69.5889 15.1337 69.3289 14.9537C68.9789 14.7137 68.7589 14.8937 68.6889 14.9937C68.6089 15.0937 68.5089 15.3137 68.8089 15.5637C69.0489 15.7637 69.2289 16.0137 69.3289 16.3037C69.9189 18.0137 69.8289 19.5337 69.0689 20.9337C69.0489 20.9737 69.009 21.0137 68.979 21.0537V21.0737ZM82.7389 43.1837C82.6889 43.2537 82.629 43.3337 82.599 43.4237C82.529 43.6137 82.579 43.7937 82.729 43.9137C82.799 43.9637 82.8789 43.9937 82.9589 43.9937C83.0589 43.9937 83.1589 43.9537 83.2389 43.8737C83.3889 43.7237 83.5489 43.5637 83.6789 43.3837C84.5989 42.0837 84.8589 40.5837 85.1089 39.1237L85.1389 38.9537C85.1389 38.9537 85.1389 38.9337 85.1389 38.9237V38.8337C85.1389 38.8337 85.1389 38.7637 85.1389 38.7337V38.6637C85.1389 38.4837 85.139 38.1237 84.729 38.1037C84.319 38.1037 84.3089 38.4437 84.2989 38.6037C84.2989 38.6337 84.2989 38.6737 84.2989 38.7037C84.0789 40.5737 83.5889 41.9837 82.7689 43.1537L82.7489 43.1837H82.7389ZM26.1089 37.5237H26.1489L26.1789 37.5337C26.2189 37.5337 26.2589 37.5337 26.3089 37.5337C26.4589 37.5337 26.6389 37.4937 26.6889 37.2637C26.7189 37.1337 26.7089 36.9137 26.3689 36.7837C26.2989 36.7637 26.2389 36.7337 26.1689 36.7037C24.4089 35.9937 23.1389 34.9637 22.2889 33.5437L22.2689 33.5037C22.1889 33.3637 22.0789 33.1837 21.8989 33.1437C21.7989 33.1237 21.6989 33.1437 21.5989 33.2137C21.2789 33.4337 21.4889 33.7437 21.5889 33.8937C21.6089 33.9237 21.6289 33.9437 21.6389 33.9737C22.5589 35.5537 23.9589 36.6937 25.9389 37.4737C25.9989 37.4937 26.0489 37.5037 26.0989 37.5137L26.1089 37.5237ZM58.1589 35.1337C58.2489 35.1337 58.3389 35.1337 58.4289 35.1437H58.4489C58.4489 35.1437 58.4589 35.1437 58.4689 35.1437C60.3889 34.9037 61.919 34.1037 63.039 32.7537C63.139 32.6237 63.2789 32.4337 63.3289 32.1837C63.3689 31.9837 63.2789 31.8137 63.0889 31.7337C63.0189 31.7037 62.8389 31.6537 62.6689 31.8737C62.5989 31.9637 62.539 32.0537 62.479 32.1437C62.309 32.3837 62.1589 32.6137 61.9389 32.7937C60.8089 33.7437 59.619 34.2537 58.289 34.3537C58.249 34.3537 58.1889 34.3537 58.1389 34.3537C57.9789 34.3437 57.7789 34.3237 57.6489 34.4537C57.5689 34.5237 57.5389 34.6337 57.5489 34.7737C57.5789 35.1437 57.9289 35.1437 58.1589 35.1437V35.1337ZM75.7189 34.2237C75.7889 34.0837 75.7689 33.9337 75.6789 33.8037C75.5689 33.6537 75.3689 33.6237 75.2189 33.7337C75.0089 33.8837 74.7589 34.0037 74.4389 34.0837C73.1989 34.4137 72.0889 33.9737 71.2589 33.5637C71.1889 33.5237 71.1189 33.4937 71.0489 33.4537C70.9989 33.4237 70.9389 33.3937 70.8889 33.3637C70.6689 33.2437 70.5289 33.3337 70.4489 33.4237C70.3089 33.5837 70.2989 33.7937 70.4489 33.9437C70.5489 34.0537 70.6789 34.1437 70.8089 34.2237C71.6089 34.7637 72.4889 35.0137 73.5889 35.0137C73.6489 35.0137 73.7189 35.0137 73.7789 35.0137C74.2089 35.0137 74.6989 34.8837 75.2089 34.6437C75.3689 34.5637 75.5989 34.4637 75.7089 34.2237H75.7189ZM9.41893 39.2437C9.41893 39.2437 9.43893 39.2437 9.44893 39.2437C9.73893 39.1837 9.82894 38.9537 9.89894 38.7937C9.90894 38.7637 9.92892 38.7237 9.93892 38.6937C10.4889 37.5137 10.9889 36.2837 11.4589 34.9237C11.5189 34.7637 11.5589 34.5937 11.5789 34.4137C11.5989 34.2837 11.4889 34.1537 11.3989 34.1037C11.2489 34.0137 11.0589 34.0537 10.9489 34.2037C10.8989 34.2737 10.8689 34.3637 10.8389 34.4337L10.8189 34.4937C10.3589 35.6937 9.93893 36.7637 9.41893 37.8237C9.26893 38.1337 9.15891 38.4637 9.05891 38.7737C9.01891 38.8937 9.02892 39.0137 9.09892 39.1037C9.14892 39.1637 9.23893 39.2437 9.41893 39.2537V39.2437ZM28.9489 36.5537C28.9889 36.5537 29.0189 36.5537 29.0589 36.5537C29.1989 36.5537 29.3789 36.5537 29.4589 36.3637C29.5389 36.1537 29.4289 35.9537 29.1789 35.8437C29.0589 35.7937 28.9289 35.7637 28.8089 35.7237C28.7489 35.7037 28.6889 35.6937 28.6289 35.6737C27.5789 35.3437 26.7889 34.9537 26.1589 34.4437C25.9889 34.3037 25.8389 34.1537 25.6789 33.9837C25.5889 33.8937 25.4989 33.8037 25.4089 33.7137C25.1389 33.4537 24.9189 33.5937 24.8289 33.6637C24.5789 33.8837 24.7489 34.1237 24.8289 34.2337C25.1389 34.6737 25.5589 34.9837 25.9689 35.2837L26.0089 35.3137C26.9689 36.0237 28.0689 36.3537 28.9189 36.5537C28.9289 36.5537 28.9389 36.5537 28.9489 36.5537ZM32.1389 8.51369C32.2389 8.43369 32.3289 8.33369 32.4089 8.25369C32.9589 7.67369 33.6489 7.28369 34.4689 7.10369C34.6889 7.05369 34.8689 7.00369 35.0589 6.93369C35.1589 6.90369 35.3889 6.81369 35.3489 6.55369C35.3289 6.40369 35.2289 6.22369 34.8889 6.21369C34.8789 6.21369 34.8689 6.21369 34.8589 6.21369C33.7389 6.43369 32.6789 6.70369 31.8789 7.61369C31.7789 7.73369 31.6789 7.87369 31.5889 8.05369C31.5189 8.19369 31.5589 8.37369 31.6989 8.48369C31.7689 8.54369 31.8489 8.57369 31.9289 8.57369C31.9989 8.57369 32.0789 8.54369 32.1389 8.49369V8.51369ZM83.6689 25.0837C83.6989 25.4037 83.959 25.4337 84.099 25.4537H84.159C85.239 25.6137 86.119 25.8337 86.849 26.4237C86.919 26.4737 87.0189 26.5437 87.1389 26.5437C87.1489 26.5437 87.1689 26.5437 87.1789 26.5437C87.2689 26.5337 87.3489 26.4837 87.4189 26.3937C87.5489 26.2237 87.5289 26.0337 87.3789 25.8237C87.3289 25.7537 87.2589 25.7037 87.1789 25.6537C86.2889 25.0437 85.2689 24.8237 84.2989 24.6737H84.2789C84.0189 24.6737 83.8389 24.7237 83.7389 24.8337C83.6789 24.9037 83.649 24.9937 83.659 25.0937L83.6689 25.0837ZM19.1589 36.1237C19.4289 36.1237 19.6889 36.1237 19.9589 36.1237H20.2889C20.2889 36.1237 20.3089 36.1237 20.3189 36.1237C20.6489 36.0637 21.0089 36.0637 21.4789 36.1137C21.7689 36.1437 21.9789 36.0037 22.0089 35.7437C22.0489 35.4237 21.7789 35.3337 21.6389 35.2837H21.5989C21.5489 35.2537 21.4889 35.2437 21.4089 35.2437C20.7589 35.2237 19.8989 35.2237 19.0289 35.3737C18.8989 35.3937 18.7489 35.4237 18.6589 35.5437C18.6089 35.6137 18.5889 35.7137 18.6089 35.8137C18.6689 36.1137 18.9489 36.1337 19.1189 36.1337C19.1289 36.1337 19.1489 36.1337 19.1589 36.1337V36.1237ZM8.42894 12.6037C8.60894 12.6037 8.71892 12.4537 8.81892 12.3337C8.84892 12.2937 8.88893 12.2537 8.91893 12.2237L8.98893 12.1637C9.49893 11.6937 9.97894 11.2537 10.6789 11.1937C10.8189 11.1837 10.9689 11.1537 11.0589 11.0337C11.1189 10.9537 11.1389 10.8537 11.1189 10.7337C11.0589 10.4337 10.7989 10.4037 10.6289 10.3937H10.5889C10.5889 10.3937 10.5789 10.3937 10.5689 10.3937C10.3789 10.3937 10.1889 10.4437 9.97892 10.5237C9.38892 10.7437 8.85891 11.1037 8.30891 11.6637L8.25892 11.7137C8.13892 11.8337 7.97892 11.9737 7.97892 12.1737C7.97892 12.2737 8.01893 12.3737 8.10893 12.4637C8.20893 12.5637 8.31893 12.6237 8.41893 12.6237C8.41893 12.6237 8.41894 12.6237 8.42894 12.6237V12.6037ZM7.65892 16.4637C7.65892 16.5837 7.68892 16.6837 7.75892 16.7537C7.83892 16.8437 7.96893 16.8837 8.16893 16.8837C8.35893 16.8837 8.42892 16.6837 8.47892 16.5137C8.58892 16.2037 8.79892 15.9537 9.18892 15.6837C9.49892 15.4637 9.80894 15.2537 10.1189 15.0437C10.4889 14.7937 10.4289 14.5637 10.3689 14.4437C10.2989 14.3237 10.1889 14.2537 10.0389 14.2537C9.91892 14.2537 9.79891 14.3037 9.71891 14.3437C9.03891 14.7137 8.34892 15.1537 7.87892 15.8637C7.76892 16.0337 7.65892 16.2337 7.65892 16.4637ZM48.8889 14.5737C48.8889 14.5737 48.989 14.5737 49.039 14.5737C49.079 14.5737 49.1089 14.5737 49.1489 14.5737H49.3089C49.3089 14.5737 49.3189 14.5737 49.3289 14.5737L51.6689 14.3137C51.6689 14.3137 51.7189 14.3137 51.7489 14.3037C52.1089 14.2437 52.1589 14.0237 52.1689 13.9037C52.1689 13.6737 52.029 13.5437 51.729 13.5237C51.689 13.5237 51.6389 13.5237 51.5789 13.5237C51.0089 13.5237 50.4389 13.6137 49.8889 13.6937C49.6289 13.7337 49.3589 13.7737 49.0989 13.7937C48.9789 13.8037 48.869 13.8437 48.789 13.8837C48.629 13.9537 48.5389 14.1037 48.5689 14.2737C48.5989 14.4437 48.7389 14.5637 48.8989 14.5737H48.8889ZM84.1089 22.8937C84.1089 23.0837 84.2489 23.2337 84.4589 23.2637C84.5289 23.2737 84.6089 23.2837 84.6889 23.2837C85.6389 23.3337 86.3589 23.5537 86.9489 23.9637C86.9689 23.9837 86.9989 23.9937 87.0189 24.0037C87.0889 24.0437 87.1689 24.0637 87.2389 24.0637C87.3689 24.0637 87.4889 23.9937 87.5789 23.8637C87.6889 23.7037 87.6489 23.5337 87.4489 23.3637C86.6789 22.7037 85.7389 22.5837 84.9189 22.5237C84.9189 22.5237 84.919 22.5237 84.909 22.5237H84.7789C84.6789 22.5237 84.579 22.5237 84.479 22.5237C84.249 22.5237 84.099 22.6737 84.099 22.8837L84.1089 22.8937ZM33.9489 33.8337C34.0089 33.8337 34.0689 33.8237 34.1389 33.7937C34.8489 33.5437 35.5489 33.2837 36.2589 33.0237C36.4489 32.9537 36.5589 32.8337 36.5789 32.6637C36.5989 32.5637 36.5589 32.4537 36.4889 32.3837C36.3989 32.2937 36.2689 32.2537 36.1289 32.2737C35.2289 32.4037 34.4289 32.7637 33.8289 33.0537C33.6089 33.1637 33.5189 33.3837 33.6089 33.5937C33.6789 33.7537 33.7989 33.8337 33.9589 33.8337H33.9489ZM91.4989 42.2137C91.4989 42.2137 91.4589 42.1137 91.4289 42.0637C90.9189 41.2437 90.1689 40.6837 89.5089 40.2337C89.3389 40.1237 89.1289 40.1737 88.9989 40.3537C88.8989 40.4937 88.9089 40.6837 89.0189 40.8037C89.1689 40.9637 89.3189 41.0937 89.4589 41.2037C89.9589 41.5637 90.3589 41.9537 90.6789 42.4037C90.7289 42.4737 90.7989 42.5637 90.8789 42.6437C90.9489 42.7137 91.0389 42.7437 91.1289 42.7437C91.1889 42.7437 91.2589 42.7237 91.3189 42.6837C91.4589 42.5937 91.5289 42.4737 91.5289 42.3137C91.5289 42.2937 91.5289 42.2737 91.5189 42.2537L91.4989 42.2137ZM49.5589 16.7837C49.6389 16.7837 49.7189 16.7837 49.7689 16.7937C49.7789 16.7937 49.7889 16.7937 49.8089 16.7937C49.8089 16.7937 49.8089 16.7937 49.8189 16.7937C50.4389 16.7437 51.0589 16.6037 51.6589 16.4737L51.9989 16.3937C52.0589 16.3837 52.1089 16.3437 52.1689 16.3037C52.3189 16.2037 52.3789 16.0637 52.3389 15.9037C52.2989 15.7337 52.1489 15.6237 51.9889 15.6237C51.8489 15.6237 51.7089 15.6537 51.5789 15.6737L51.0989 15.7537C50.6389 15.8237 50.189 15.8937 49.729 15.9837C49.689 15.9837 49.6189 15.9837 49.5489 15.9837C49.3889 15.9837 49.2189 15.9637 49.0989 16.0837C49.0289 16.1537 48.9889 16.2637 48.9989 16.3937C49.0189 16.7737 49.3689 16.7737 49.5589 16.7737V16.7837ZM45.2689 15.5737C44.7689 15.7437 44.2489 15.9137 43.7289 16.0637C43.5489 16.1137 43.3689 16.1437 43.1689 16.1837C43.0589 16.2037 42.9489 16.2237 42.8389 16.2437C42.6189 16.2937 42.4889 16.4437 42.5089 16.6437C42.5289 16.8237 42.6689 16.9437 42.8889 16.9737C42.9189 16.9737 42.9589 16.9737 43.0089 16.9837H43.0889C43.0889 16.9837 43.0889 16.9837 43.0989 16.9837H43.1189C43.8989 16.8537 44.699 16.6237 45.479 16.2937C45.539 16.2737 45.5889 16.2237 45.6389 16.1637C45.7089 16.0837 45.8589 15.8937 45.7389 15.6737C45.6089 15.4337 45.3689 15.5137 45.2589 15.5537L45.2689 15.5737ZM8.52891 20.1737C8.52891 20.1737 8.53893 20.1737 8.54893 20.1737C8.54893 20.1737 8.56893 20.1737 8.57893 20.1737C8.75893 20.1737 8.89891 20.0637 8.96891 19.8837C9.21891 19.1437 9.63891 18.6237 10.2489 18.2837C10.3389 18.2337 10.3989 18.1637 10.4189 18.0737C10.4489 17.9737 10.4189 17.8737 10.3689 17.7737C10.2989 17.6537 10.1589 17.5337 9.90892 17.5937C9.19892 17.7637 8.14893 19.1237 8.19893 19.7937C8.21893 19.9937 8.33893 20.1337 8.54893 20.1637L8.52891 20.1737ZM30.9489 46.7537C30.6989 46.7537 30.3689 46.7837 30.0589 46.9537C29.8289 47.0837 29.7089 47.3137 29.7289 47.5637C29.7389 47.7237 29.8289 47.9437 30.1889 48.0837C30.2689 48.1137 30.3789 48.1237 30.4889 48.1237C30.8889 48.1237 31.4089 47.9537 31.6089 47.7137C31.7289 47.5837 31.7689 47.4037 31.7389 47.2437C31.7089 47.0737 31.5989 46.9337 31.4289 46.8437C31.2889 46.7737 31.1289 46.7337 30.9489 46.7437V46.7537ZM86.849 30.8937C87.169 30.8137 87.1489 30.4437 87.1389 30.3237C87.0289 29.5137 86.8089 28.8637 86.4589 28.3337C86.3789 28.2237 86.2789 28.1237 86.1889 28.0537C86.0689 27.9537 85.8989 27.9337 85.7489 28.0137C85.6589 28.0637 85.5889 28.1437 85.5689 28.2437C85.5489 28.3437 85.5689 28.4437 85.6189 28.5337C85.9789 29.0637 86.1989 29.7037 86.3189 30.5237C86.3389 30.6737 86.4089 30.7937 86.5089 30.8637C86.5789 30.9037 86.649 30.9337 86.729 30.9337C86.769 30.9337 86.7989 30.9337 86.8389 30.9237L86.849 30.8937ZM32.0289 10.8537C32.1489 10.8537 32.2689 10.7837 32.3889 10.6337C32.6389 10.3337 32.9989 10.2037 33.3689 10.0737L33.4189 10.0537C33.6089 9.98369 33.7989 9.92369 33.9889 9.86369C34.1089 9.82369 34.2289 9.78369 34.3489 9.74369C34.5689 9.66369 34.6489 9.51369 34.6789 9.40369C34.6789 9.38369 34.6789 9.36369 34.6789 9.34369C34.6589 9.18369 34.5689 9.09369 34.5089 9.05369C34.4189 8.99369 34.3089 8.98369 34.1889 9.01369C34.0489 9.05369 33.8989 9.09369 33.7589 9.13369C33.1689 9.29369 32.5689 9.45369 32.0489 9.85369C31.9289 9.94369 31.8389 10.0437 31.7689 10.1337C31.5989 10.3737 31.6189 10.6237 31.8189 10.7837C31.8889 10.8337 31.9489 10.8637 32.0189 10.8637L32.0289 10.8537ZM32.3489 13.1337C32.3989 13.1337 32.4589 13.1237 32.5089 13.0837C33.0489 12.7437 33.6489 12.5337 34.3689 12.3237C34.5589 12.2637 34.6789 12.0637 34.6389 11.8737C34.5789 11.5637 34.2789 11.5737 34.0989 11.5737C34.0889 11.5737 34.0689 11.5737 34.0589 11.5737L33.8389 11.6337C33.2989 11.7837 32.7289 11.9437 32.2189 12.2737C32.1189 12.3337 32.0389 12.4437 31.9889 12.5637C31.9189 12.7437 32.0089 12.9437 32.1289 13.0437C32.1989 13.1037 32.2689 13.1237 32.3489 13.1237V13.1337ZM32.3889 15.0737C32.3889 15.0737 32.4689 15.0737 32.5089 15.0537C32.8189 14.9537 33.1289 14.9137 33.4589 14.8737C33.6689 14.8437 33.8789 14.8137 34.1089 14.7737C34.2689 14.7437 34.6489 14.6637 34.5689 14.2637C34.5089 13.9537 34.2489 13.9637 34.1089 13.9637C34.0789 13.9637 34.0489 13.9637 34.0289 13.9637C34.0289 13.9637 34.0089 13.9637 33.9989 13.9637L33.6389 14.0237C33.3589 14.0637 33.0889 14.1037 32.8089 14.1537C32.5889 14.1837 32.3889 14.2737 32.2289 14.4037C32.0589 14.5437 32.0089 14.7337 32.1089 14.9037C32.1689 15.0237 32.2789 15.0837 32.4089 15.0837L32.3889 15.0737ZM9.88893 20.1337C9.44893 20.5637 9.18893 20.9937 9.07893 21.4637C9.07893 21.4637 9.07893 21.4737 9.07893 21.4837C9.05893 21.6537 9.02894 21.9537 9.36894 22.0437C9.40894 22.0437 9.43892 22.0537 9.47892 22.0537C9.54892 22.0537 9.61894 22.0337 9.67894 22.0037C9.75894 21.9537 9.81894 21.8737 9.83894 21.7837C9.93894 21.3537 10.1989 20.9937 10.4889 20.6037C10.6089 20.4437 10.5789 20.2537 10.4089 20.0937C10.2889 19.9837 10.0989 19.9337 9.88893 20.1337ZM87.4289 44.9137C87.2489 44.7137 87.0289 44.6937 86.8589 44.8437C86.6789 44.9937 86.6689 45.2237 86.8189 45.4237L86.9289 45.5737C87.1489 45.8537 87.3589 46.1137 87.4589 46.4437C87.5089 46.5937 87.6389 46.6737 87.7989 46.6737C87.8389 46.6737 87.8889 46.6737 87.9389 46.6537C88.0489 46.6237 88.2289 46.5237 88.2389 46.2237C88.2389 46.2137 88.2389 46.1937 88.2389 46.1837C88.1089 45.6837 87.7689 45.2837 87.4289 44.9137ZM86.409 47.7737C86.319 47.3837 86.0889 46.9637 85.7089 46.5137C85.5989 46.3837 85.4289 46.3537 85.2689 46.4337C85.0589 46.5437 84.9889 46.7337 85.0689 46.9137C85.2689 47.3337 85.4789 47.7337 85.6789 48.0937C85.7389 48.2137 85.8689 48.2737 86.0089 48.2737C86.0689 48.2737 86.1189 48.2637 86.1789 48.2437C86.4089 48.1537 86.419 47.9437 86.409 47.7837C86.409 47.7837 86.409 47.7737 86.409 47.7637V47.7737ZM89.7589 43.4837C89.4889 43.1637 89.2489 42.8837 89.0089 42.6337C88.8389 42.4437 88.5989 42.4237 88.4289 42.5837C88.2589 42.7337 88.2489 42.9837 88.4289 43.1737C88.6989 43.4837 88.9789 43.7737 89.2989 44.1037C89.3689 44.1737 89.4589 44.2137 89.5489 44.2137C89.6189 44.2137 89.6889 44.1937 89.7489 44.1537C89.8189 44.1037 89.8489 44.0337 89.8789 43.9737C89.8789 43.9537 89.899 43.9337 89.909 43.9137C89.929 43.8737 89.929 43.8237 89.909 43.7837C89.899 43.7637 89.8889 43.7337 89.8789 43.7137C89.8489 43.6437 89.8289 43.5737 89.7689 43.5037L89.7589 43.4837ZM75.789 53.8637L75.6689 53.8037C75.4889 53.7237 75.3089 53.7837 75.1789 53.9737C75.1189 54.0637 75.0989 54.1637 75.1189 54.2637C75.1389 54.3537 75.1989 54.4437 75.2789 54.4937C75.5289 54.6537 75.7889 54.8037 76.0089 54.9337L76.229 55.0637C76.229 55.0637 76.269 55.0837 76.289 55.0837C76.329 55.0837 76.3589 55.0837 76.3989 55.0837C76.5289 55.0837 76.6789 55.0537 76.7689 54.9137C76.8689 54.7737 76.8489 54.6037 76.7189 54.4737C76.4489 54.1837 76.1089 54.0237 75.7789 53.8637H75.789ZM48.3289 43.0037C48.3289 43.3437 48.5089 43.5537 48.8289 43.5837C48.8489 43.5837 48.8589 43.5837 48.8789 43.5837C49.0389 43.5837 49.1889 43.5237 49.3089 43.4237C49.4489 43.2937 49.5389 43.1137 49.5489 42.9237C49.5489 42.7437 49.4989 42.5737 49.3789 42.4537C49.2689 42.3437 49.1289 42.2937 48.9889 42.2937C48.6389 42.2937 48.3289 42.6337 48.3189 43.0137L48.3289 43.0037ZM73.729 57.7537C73.609 57.7137 73.5189 57.7437 73.4689 57.7637C73.4089 57.7937 73.329 57.8637 73.289 58.0137C73.259 58.0937 73.2389 58.1837 73.2189 58.2737C73.1589 58.5037 73.0989 58.7237 72.9889 58.9237C72.8889 59.1037 72.9489 59.3137 73.1389 59.4237C73.1889 59.4537 73.2489 59.4737 73.3189 59.4737C73.4089 59.4737 73.5189 59.4337 73.6289 59.3137C73.8589 59.0837 73.9089 58.7937 73.9589 58.5437C73.9789 58.4337 73.9989 58.3237 74.0289 58.2337C74.0289 58.2137 74.0289 58.2037 74.0289 58.1837C74.0289 57.9737 73.9189 57.8237 73.7389 57.7637L73.729 57.7537ZM75.5789 55.4237C75.4789 55.4137 75.3589 55.4637 75.2789 55.5337C75.1489 55.6537 75.1289 55.8437 75.2389 55.9837C75.4889 56.3037 75.699 56.5637 75.909 56.8037C75.969 56.8737 76.0589 56.9137 76.1489 56.9137C76.2289 56.9137 76.2989 56.8837 76.3689 56.8337C76.4289 56.7837 76.4589 56.7237 76.4889 56.6737C76.4889 56.6637 76.4989 56.6437 76.5089 56.6337C76.5189 56.6137 76.5289 56.5837 76.5289 56.5637C76.5589 56.1837 75.9489 55.4537 75.5689 55.4237H75.5789ZM75.5589 57.7337C75.5189 57.5837 75.4789 57.4137 75.4189 57.2537C75.3489 57.0937 75.269 56.9837 75.159 56.9437C75.099 56.9137 74.9889 56.8937 74.8589 56.9437C74.7189 57.0037 74.5689 57.1437 74.6689 57.4837V57.5337C74.7389 57.7137 74.7889 57.8937 74.8389 58.0837C74.8689 58.2037 74.9289 58.4837 75.2189 58.4837C75.2489 58.4837 75.2889 58.4837 75.3289 58.4737C75.5889 58.4137 75.5989 58.1937 75.6089 58.0537C75.6089 58.0237 75.6089 57.9837 75.6089 57.9437C75.6089 57.9237 75.6089 57.9037 75.6089 57.8837C75.5989 57.8337 75.5789 57.7837 75.5689 57.7337H75.5589ZM60.5089 42.0037C60.5089 42.0037 60.4689 42.0037 60.4389 42.0037L60.3689 42.0237C60.2189 42.0537 59.9289 42.1237 59.9389 42.4637C59.9389 42.6037 60.0189 42.7537 60.1489 42.8637C60.2789 42.9737 60.4389 43.0437 60.5889 43.0437C60.6089 43.0437 60.6289 43.0437 60.6489 43.0437C60.9589 43.0037 61.1389 42.8037 61.1189 42.5237C61.0889 42.1237 60.7589 42.0537 60.5289 42.0137H60.4989L60.5089 42.0037ZM16.5489 57.3737C16.5489 57.3737 16.5189 57.3737 16.5089 57.3737C16.3889 57.4137 16.2889 57.5137 16.2589 57.6137C16.2389 57.6937 16.2589 57.7837 16.2989 57.8537C16.4989 58.1137 16.7389 58.4437 17.1389 58.5737C17.1789 58.5837 17.2089 58.5937 17.2489 58.5937C17.3089 58.5937 17.3689 58.5737 17.4189 58.5437C17.5089 58.4837 17.5689 58.3737 17.5689 58.2637C17.5689 58.2137 17.5689 58.0937 17.2789 57.8037C17.2289 57.7537 16.7889 57.3437 16.5389 57.3637L16.5489 57.3737ZM15.3489 58.1437C15.2889 58.0837 15.2189 58.0237 15.1889 57.9537C15.1789 57.9337 15.1689 57.9037 15.1589 57.8737C15.1189 57.7637 15.0589 57.6237 14.9089 57.5737C14.8189 57.5437 14.7089 57.5637 14.5989 57.6337C14.2689 57.8337 14.4389 58.1537 14.5389 58.3237C14.6689 58.5637 14.8489 58.8237 15.1889 58.9037C15.2289 58.9037 15.2589 58.9137 15.2889 58.9137C15.3689 58.9137 15.4289 58.8837 15.4689 58.8637C15.5489 58.8037 15.5989 58.7137 15.6089 58.5837C15.6089 58.5637 15.6089 58.5537 15.6089 58.5337C15.5689 58.3537 15.4489 58.2337 15.3489 58.1337V58.1437ZM35.4689 59.1837C35.5689 59.1837 35.6789 59.1337 35.7789 59.0337C35.8189 58.9937 35.8589 58.9537 35.8889 58.9137C35.9189 58.8837 35.9389 58.8537 35.9689 58.8237C36.0789 58.7037 36.1989 58.5837 36.3089 58.4637C36.5789 58.1737 36.8589 57.8737 37.1489 57.5937C38.8389 55.9437 40.3889 54.8137 42.0389 54.0437C43.3389 53.4337 44.8089 53.0637 46.7989 52.8437C46.8489 52.8437 46.9089 52.8437 46.9689 52.8437C47.1489 52.8437 47.3689 52.8637 47.5089 52.7137C47.5889 52.6337 47.6189 52.5237 47.5989 52.3837C47.5589 52.0037 47.1989 52.0337 46.9589 52.0437C46.8489 52.0437 46.7389 52.0537 46.6489 52.0437C46.6389 52.0437 46.6189 52.0437 46.6089 52.0437C44.0789 52.2937 42.0789 52.9237 40.3189 54.0337C38.6089 55.1137 37.0889 56.4137 35.6489 58.0137C35.5089 58.1737 35.3889 58.3437 35.2689 58.5137L35.2089 58.5937C35.1389 58.7037 35.1089 58.8037 35.1289 58.9037C35.1389 58.9637 35.1789 59.0437 35.2789 59.1137C35.3389 59.1537 35.4089 59.1737 35.4689 59.1737V59.1837ZM58.3189 25.3737C58.3189 25.9137 58.4589 26.4437 58.7689 27.0137C59.2089 27.8137 59.7689 28.0537 60.7089 27.8437C61.0689 27.7637 61.3789 27.7037 61.6789 27.6737C63.3789 27.4737 64.9089 27.5137 66.3689 27.8237C68.3189 28.2237 69.789 28.8437 70.979 29.7637C71.299 30.0137 71.6489 30.1337 72.0489 30.1437C72.0689 30.1437 72.079 30.1437 72.099 30.1437C72.859 30.1437 73.5689 29.7637 74.0689 29.0937C74.6089 28.3637 74.7789 27.4337 74.5089 26.6137C74.2189 25.7237 73.7189 24.9737 73.0189 24.3837C71.7089 23.2737 70.1389 22.7137 68.7789 22.3137C67.2189 21.8537 65.5389 21.7137 63.6489 21.8737C61.8589 22.0237 60.5189 22.4737 59.4389 23.2737C58.7189 23.8037 58.3489 24.5237 58.3389 25.3937L58.3189 25.3737ZM61.1389 24.9537C61.2189 24.8237 61.3589 24.7737 61.5189 24.7137L61.5889 24.6837C62.6389 24.2937 63.7189 24.0937 64.7789 24.0937H64.8089C66.8789 24.0737 68.6389 24.4937 70.1789 25.3937C70.5689 25.6237 70.9189 25.9237 71.2189 26.2737C71.3289 26.4037 71.4289 26.5337 71.4389 26.6937C71.4389 26.7837 71.4389 26.8437 71.3889 26.8737C71.3489 26.9037 71.2789 26.8937 71.2089 26.8637C71.1489 26.8337 71.0889 26.7837 70.9989 26.7237C69.4689 25.5937 67.5989 24.9637 65.2789 24.8037C64.9089 24.7737 64.5589 24.7637 64.2189 24.7637C63.1089 24.7637 62.159 24.9037 61.289 25.1837H61.2489C61.1089 25.2437 61.0989 25.2337 61.0889 25.2037C61.0689 25.1637 61.0489 25.1037 61.1389 24.9437V24.9537ZM42.5189 34.6237C42.7589 34.5737 43.0389 34.5037 43.2989 34.3337C43.6689 34.0937 43.8089 33.7737 43.7489 33.2837C43.6889 32.7837 43.3389 32.6837 43.0489 32.6037H43.0089C42.6689 32.4937 42.2889 32.4837 41.8789 32.5637C41.2989 32.6737 40.7189 32.8037 40.1489 32.9337L39.9289 32.9837C39.4789 33.0837 39.0289 33.1937 38.5789 33.2937C37.6589 33.5137 36.7189 33.7337 35.7789 33.9137C34.1289 34.2237 33.9189 34.3437 33.8889 36.1937C33.8689 37.4437 34.2389 38.4637 34.9889 39.2337C35.7989 40.0637 36.7689 40.4737 37.9289 40.4737C38.3189 40.4737 38.7389 40.4237 39.1789 40.3337C40.4089 40.0737 41.1289 39.5337 41.5189 38.6037C41.7189 38.1237 41.7789 37.6537 41.8189 37.2537C41.8889 36.4437 41.7489 35.6737 41.5589 34.8337C41.7989 34.7337 42.0289 34.6937 42.2589 34.6537C42.3489 34.6437 42.4389 34.6237 42.5189 34.6037V34.6237ZM39.2089 37.0837C38.6289 37.0837 38.1489 36.6137 38.1489 36.0237C38.1489 35.4337 38.6189 34.9637 39.2089 34.9637C39.7989 34.9637 40.2689 35.4337 40.2689 36.0237C40.2689 36.6137 39.7989 37.0837 39.2089 37.0837ZM12.2389 39.3737C11.9189 39.5037 11.7089 39.7837 11.6189 40.1937C11.5689 40.4237 11.6389 40.6637 11.8089 40.8237C11.9889 40.9937 12.2389 41.0437 12.4889 40.9737C12.9289 40.8437 13.3589 40.7137 13.8089 40.5737L14.2689 40.4337L14.3089 40.6137C14.3589 40.8337 14.3989 41.0537 14.4389 41.2637C14.7389 42.6737 16.1889 44.5237 18.1889 44.5237C18.2789 44.5237 18.3789 44.5237 18.4689 44.5137C18.7189 44.4937 18.9689 44.4537 19.2089 44.4237C19.3189 44.4037 19.4189 44.3937 19.5289 44.3837C21.1889 44.1637 22.5389 42.8637 22.7989 41.2337C23.0089 39.8937 22.7989 38.7137 22.1589 37.6437C21.6089 36.7337 21.5389 36.6637 20.4989 36.8937C18.2989 37.3637 16.1189 38.0537 14.0189 38.7237L13.3189 38.9437C13.0689 39.0237 12.8189 39.1337 12.5889 39.2337C12.4789 39.2837 12.3689 39.3337 12.2589 39.3737H12.2389ZM20.4189 38.8937C20.9989 38.8937 21.4789 39.3637 21.4789 39.9537C21.4789 40.5437 21.0089 41.0137 20.4189 41.0137C19.8289 41.0137 19.3589 40.5437 19.3589 39.9537C19.3589 39.3637 19.8289 38.8937 20.4189 38.8937ZM39.6589 62.0537C39.8089 61.8437 39.8789 61.5537 39.8189 61.3037C39.7189 60.9237 39.3289 60.6437 38.9489 60.7137C38.7489 60.7437 38.5589 60.8337 38.3789 60.9237C38.1689 61.0337 37.9589 61.1637 37.7789 61.3137C37.6889 61.3837 37.5989 61.4737 37.5289 61.5637C37.4889 61.6137 37.5289 61.7237 37.5589 61.7837C37.8989 62.2837 38.1889 62.8237 38.4789 63.3537C38.5089 63.4137 38.6889 63.7237 38.7289 63.7837C38.7389 63.8037 38.7689 63.8237 38.7889 63.8337C38.8489 63.8537 38.9189 63.8137 38.9789 63.7937C39.2789 63.6637 39.5789 63.5337 39.8389 63.3537C40.0089 63.2337 40.1689 63.0837 40.2889 62.9137C40.3389 62.8337 40.3889 62.7337 40.3789 62.6437C40.3389 62.2837 40.0089 62.0337 39.6489 62.0637L39.6589 62.0537ZM38.7789 62.3237C38.6889 62.1637 38.5989 62.0137 38.4989 61.8537C38.5989 61.7937 38.6989 61.7237 38.7989 61.6737C38.8489 61.6437 38.9089 61.6237 38.9689 61.6137C39.1789 61.5837 39.2589 61.8537 39.1389 62.0437C39.0889 62.1137 38.8589 62.2937 38.7789 62.3237ZM39.1489 62.9937C39.1489 62.9937 38.9889 62.7137 38.9589 62.6737C39.0789 62.5937 39.3389 62.4137 39.4689 62.4737C39.5089 62.4937 39.5489 62.5337 39.5689 62.5837C39.5889 62.6137 39.5889 62.6537 39.5789 62.6937C39.5389 62.7937 39.2389 62.9437 39.1389 63.0037L39.1489 62.9937ZM42.6589 61.0237C42.3789 60.9337 42.0789 60.8937 41.8189 60.7637C41.9389 60.6037 42.0189 60.3837 41.9889 60.1837C41.9689 60.0237 41.8989 59.8637 41.7889 59.7437C41.6689 59.6137 41.5189 59.5237 41.3489 59.4837C41.1789 59.4437 40.9889 59.4637 40.8189 59.5137C40.5589 59.5937 40.3189 59.7637 40.1089 59.9337C39.9589 60.0637 39.7989 60.1937 39.6889 60.3637C39.6589 60.4037 39.6389 60.4637 39.6489 60.5137C39.6889 60.6237 39.9889 61.0537 40.0489 61.1537C40.3289 61.5637 40.5989 61.9737 40.8789 62.3737C40.9289 62.4437 40.9689 62.5237 41.0489 62.5537C41.1589 62.5937 41.3789 62.4437 41.4689 62.3837C41.5889 62.3037 41.8189 62.1437 41.7889 62.0037C41.7889 61.9637 41.7489 61.9337 41.7189 61.9037C41.5889 61.7437 41.4789 61.5737 41.3589 61.4037C41.4689 61.4637 42.0189 61.7337 42.1289 61.7737C42.1689 61.7837 42.2089 61.7937 42.2489 61.7837C42.2989 61.7737 42.3489 61.7437 42.3889 61.7037C42.5389 61.5737 42.6289 61.3837 42.6689 61.1837C42.6689 61.1437 42.6889 61.0737 42.6689 61.0437C42.6689 61.0437 42.6589 61.0437 42.6489 61.0437L42.6589 61.0237ZM41.1289 60.6737C41.0589 60.7337 40.9789 60.7737 40.8989 60.8237C40.7989 60.6737 40.6989 60.5237 40.6089 60.3637C40.7189 60.2537 40.9189 60.1037 41.0489 60.1837C41.1389 60.2437 41.2189 60.3537 41.2189 60.4637C41.2189 60.5337 41.1789 60.6137 41.1189 60.6637L41.1289 60.6737ZM44.0789 59.6237C43.8589 59.7637 43.6389 59.8937 43.4389 60.0437C43.4089 60.0037 43.2889 59.8437 43.2789 59.8037C43.4189 59.7037 43.5689 59.6137 43.7289 59.5137C43.7889 59.4737 43.7389 59.3937 43.6989 59.3337C43.6789 59.2937 43.5189 59.0237 43.4889 58.9837C43.4489 58.9237 43.3789 58.9837 43.3189 59.0337C43.2789 59.0637 42.9989 59.2437 42.9589 59.2737C42.9189 59.2137 42.8789 59.1637 42.8489 59.1037C43.0689 58.9537 43.2889 58.7937 43.5189 58.6537C43.5689 58.6237 43.5589 58.5637 43.5289 58.5137C43.4589 58.3937 43.3989 58.2737 43.3289 58.1637C43.2989 58.1137 43.2389 58.0037 43.1889 58.0137C43.1689 58.0137 43.1489 58.0237 43.1289 58.0337C42.7489 58.2937 42.3689 58.5537 42.0089 58.8437C41.9189 58.9237 41.8089 58.9937 41.7489 59.0937C41.7189 59.1337 41.7789 59.2037 41.8089 59.2437C41.9889 59.4537 42.8989 60.7237 43.0689 60.9437C43.0689 60.9637 43.0989 60.9737 43.1189 60.9737C43.1489 60.9737 43.1789 60.9737 43.1989 60.9637C43.2589 60.9437 43.2989 60.9037 43.3589 60.8737C43.5389 60.7737 44.2589 60.3637 44.3889 60.2037C44.4189 60.1637 44.4289 60.1037 44.4089 60.0537C44.3889 60.0137 44.2489 59.7637 44.2189 59.7137C44.1889 59.6537 44.1389 59.5737 44.0789 59.6137V59.6237ZM46.229 58.2737C46.079 58.0237 45.9089 57.7737 45.6989 57.5737C45.5289 57.4037 45.3289 57.2637 45.0989 57.1837C44.9889 57.1537 44.8689 57.1537 44.7589 57.1637C44.5989 57.1837 44.4389 57.2337 44.3089 57.3237C44.1289 57.4537 43.9789 57.6537 43.9189 57.8637C43.8789 57.9937 43.8789 58.1437 43.8989 58.2737C43.9189 58.4237 43.9689 58.5737 44.0289 58.7137C44.0989 58.9037 44.5189 59.6737 44.6489 59.8337C44.6689 59.8537 44.6889 59.8837 44.7189 59.8837C44.7389 59.8837 44.7489 59.8737 44.7589 59.8537C44.7589 59.8437 44.7789 59.8337 44.7989 59.8237C44.9489 59.6837 45.1389 59.5837 45.3189 59.4937C45.3689 59.4637 45.3789 59.4137 45.3489 59.3737C45.3089 59.3237 45.2789 59.2637 45.2489 59.2037C45.2989 59.1737 45.6189 58.9737 45.6789 58.9437C45.7389 59.0337 45.7989 59.1837 45.8989 59.1337C45.9489 59.1037 46.2589 58.8937 46.3089 58.8637C46.3489 58.8437 46.3789 58.8237 46.4089 58.8037C46.4389 58.7837 46.4589 58.7637 46.4689 58.7337C46.4689 58.7137 46.4689 58.6837 46.4489 58.6537C46.3889 58.5237 46.3189 58.3937 46.2389 58.2737H46.229ZM44.9289 58.7137C44.8589 58.6037 44.7989 58.4837 44.7589 58.3537C44.7289 58.2337 44.7089 58.0437 44.8089 57.9737C44.8489 57.9437 44.9089 57.9737 44.9589 57.9837C45.0489 58.0337 45.1189 58.1037 45.1789 58.1937C45.2389 58.2737 45.2889 58.3537 45.3389 58.4337C45.1989 58.5237 45.0589 58.6137 44.9189 58.7037L44.9289 58.7137ZM48.0989 56.2237C47.8989 55.9337 47.5889 55.6937 47.2489 55.6037C47.0289 55.5437 46.7789 55.5437 46.5689 55.6337C46.4189 55.6937 45.7489 56.0437 45.6189 56.1337C45.5789 56.1537 45.5589 56.2137 45.5689 56.2537C45.5689 56.2737 45.5789 56.2837 45.5889 56.3037C45.6489 56.4237 45.979 57.1437 46.039 57.2637C46.099 57.4037 46.489 58.2037 46.539 58.3437C46.569 58.3937 46.5989 58.4637 46.6589 58.4837C46.7289 58.5037 46.8089 58.4837 46.8789 58.4637C47.2089 58.3837 47.5089 58.1937 47.7789 57.9937C47.9389 57.8837 48.0889 57.7237 48.1789 57.5437C48.3089 57.3037 48.3689 56.9937 48.3189 56.7137C48.2889 56.5337 48.2089 56.3537 48.0989 56.2037V56.2237ZM47.3689 57.2337C47.2689 57.3237 47.1289 57.3737 46.9989 57.4137C46.8689 57.1137 46.7489 56.8037 46.6189 56.5037C46.7389 56.4637 46.859 56.4137 46.979 56.4037C47.039 56.4037 47.1089 56.4037 47.1589 56.4237C47.2189 56.4537 47.2689 56.4937 47.3089 56.5337C47.3989 56.6337 47.4689 56.7637 47.4889 56.9037C47.5089 57.0337 47.4589 57.1437 47.3689 57.2237V57.2337Z" fill="#74625F"/>
</g>
<defs>
<clipPath id="clip0_47_4799">
<rect width="98" height="66" fill="white"/>
</clipPath>
</defs>
</svg>
