<svg width="107" height="57" viewBox="0 0 107 57" fill="none" xmlns="http://www.w3.org/2000/svg">
<g clip-path="url(#clip0_46_3471)">
<path d="M73.1763 0.00460757C76.2561 -0.0753555 79.1658 0.885375 81.8257 2.89523C84.2557 4.72523 86.2561 6.93531 87.7661 9.47531C87.896 9.6851 88.0261 9.75455 88.2759 9.75461H88.3159C90.8859 9.75461 93.0959 10.7652 95.0659 12.8552C95.3659 13.1751 95.5958 13.515 95.7358 13.865C96.2358 15.115 96.656 16.2651 96.646 17.5251C96.646 17.8183 96.7758 18.0221 97.0356 18.1355L97.0757 18.155C98.5855 18.8149 100.046 19.485 101.366 20.4948C104.196 22.6648 105.816 25.2452 106.306 28.3952L106.316 28.4255C106.606 30.2853 106.366 32.1849 105.606 34.0847C105.336 34.7347 105.126 35.235 104.906 35.695C104.006 37.6049 102.626 39.3351 100.586 41.115C99.4264 42.1249 98.3261 43.0049 97.2261 43.7849C95.8862 44.7448 94.5865 45.4754 93.2466 46.0154C92.7166 46.2253 92.5459 46.4654 92.5259 47.0154C92.4158 49.5752 91.7362 51.6655 90.4263 53.3855C89.0763 55.1753 87.306 56.1051 85.0161 56.2351C82.9661 56.3451 80.9861 55.7946 78.9761 54.5446C78.9462 54.5247 78.9162 54.5048 78.8765 54.4948C78.8565 54.5648 78.8261 54.625 78.8062 54.695C78.7262 54.905 78.6564 55.1254 78.5864 55.3454C78.4064 55.9353 78.0059 56.355 77.396 56.615C76.866 56.8349 76.3258 56.945 75.7759 56.945C75.296 56.945 74.8058 56.8648 74.3159 56.7048C73.9061 56.5648 73.6062 56.3747 73.3862 56.1247C73.2363 55.9449 73.0462 55.865 72.7466 55.865C71.2266 55.855 69.7356 55.5649 68.2856 55.2849L68.0259 55.2351C67.686 55.1652 67.4758 55.2055 67.2358 55.3855C66.3158 56.0452 64.6658 55.995 63.7759 55.2751C63.326 54.9052 63.0862 54.4451 63.0562 53.8952V53.5349C62.3163 53.7049 61.6464 53.7451 61.0864 53.7751C58.7265 53.8851 56.9664 53.4648 55.5464 52.4548C53.6964 51.1348 52.7566 49.2451 52.7466 46.8152C52.7466 46.3552 52.7664 45.905 52.7964 45.445C52.8064 45.1752 52.7262 45.0152 52.4966 44.8952C51.3466 44.2952 50.4657 43.3548 49.6157 42.4548L49.5659 42.3952C48.906 41.7053 48.1764 40.8852 47.6265 39.8454C46.2765 42.4753 44.5356 44.3753 42.3257 45.6452C42.3657 45.7052 42.4163 45.7648 42.4663 45.8347C42.5163 45.8947 42.566 45.9551 42.606 46.0251C43.226 47.0451 43.2859 48.085 42.7759 49.115C42.3159 50.0549 41.156 50.8949 39.686 50.5349C39.3861 50.4616 39.1628 50.5521 39.0161 50.8054C38.6161 51.4853 38.0458 52.0153 37.3159 52.3952C37.0661 52.5251 36.7961 52.6546 36.5063 52.7146C35.9564 52.8446 35.7866 53.055 35.7866 53.615C35.7966 54.5249 35.2262 55.1752 34.2163 55.3952C33.5363 55.5452 32.5358 55.6447 31.7358 54.8347C31.6459 54.735 31.5558 54.7147 31.396 54.7546C30.3961 54.9946 29.5064 55.1052 28.6665 55.1052C28.5265 55.0952 28.4457 55.1648 28.3257 55.2448C28.2858 55.2648 28.2562 55.2952 28.2163 55.3152C27.5563 55.7251 26.8961 56.1345 26.0962 56.2146C25.2964 56.2946 24.5764 56.1452 23.9565 55.7654C23.4267 55.4354 23.1466 54.9753 23.1265 54.3855C23.0765 53.0455 23.2257 51.7446 23.3657 50.7546C23.3757 50.7148 23.3862 50.685 23.3862 50.6452C23.4062 50.5453 23.4157 50.4453 23.4058 50.3454C23.2458 50.2955 23.0857 50.3152 22.9058 50.3152H22.7661C20.3561 50.3852 18.0357 50.0655 15.8657 49.3855C12.466 48.3155 10.0265 46.535 8.41647 43.9353C7.07647 41.7753 6.54565 39.3446 6.82565 36.7146C6.87565 36.2347 6.94588 35.7449 7.02585 35.2751V35.1755C7.06585 34.9022 6.95267 34.7355 6.68601 34.6755C5.82606 34.4855 4.72627 34.175 3.75632 33.5251C2.0264 32.3752 0.896232 30.8452 0.386198 28.9753C-0.523802 25.6453 0.176277 22.4548 2.46628 19.4948C4.26625 17.165 6.62614 15.7847 9.47604 15.3747C11.9761 15.0147 14.2165 15.6451 16.1265 17.2351L16.1558 17.2654C16.3958 17.4654 16.6529 17.4684 16.9263 17.2751C18.7563 15.9651 20.8565 15.095 23.3364 14.615C24.7862 14.335 26.2259 14.1755 27.6157 14.1755C28.3357 14.1655 29.1261 14.2355 30.0161 14.3855C30.3027 14.4321 30.4663 14.3581 30.5063 14.1648L30.5259 14.0954C30.8459 12.6554 31.7765 11.5655 33.4565 10.6755C35.1765 9.76556 37.1161 9.49548 39.2261 9.88547C42.126 10.4155 44.526 11.8651 46.356 14.195C47.0159 15.045 47.5162 15.9949 47.8462 17.0349L47.8657 17.1052C47.8957 17.1951 47.9162 17.2848 47.9761 17.3747C49.0459 16.7048 50.066 16.2353 51.0659 15.9353C51.2259 15.8953 51.2761 15.8151 51.2661 15.6452C51.0061 12.2852 54.5162 8.24461 58.3462 7.50461C59.3961 7.29464 60.4762 7.32544 61.5562 7.59543C61.8659 7.67535 61.9458 7.63495 62.0757 7.34543C62.3557 6.72546 62.7562 6.11524 63.3462 5.43527C64.5662 4.02527 65.9366 2.58492 67.7466 1.57492C69.5365 0.565066 71.3164 0.0546039 73.1763 0.00460757ZM64.8765 49.8152C64.6866 49.8751 64.5759 49.9848 64.5259 50.2146C64.2859 51.2246 64.0162 52.4353 63.8462 53.6853H63.8765C63.8165 54.1052 63.9765 54.435 64.3364 54.655C64.9764 55.0649 66.026 55.2949 66.856 54.655C67.076 54.475 67.2962 54.3952 67.5562 54.3952C67.6261 54.3952 67.7164 54.3948 67.7964 54.4148C67.9363 54.4348 68.0764 54.4553 68.2163 54.4753C68.3262 54.4853 68.4461 54.5051 68.5659 54.5251L68.7563 54.5554C70.1461 54.7854 71.5959 55.0251 73.0356 55.0652C73.3556 55.0752 73.6159 55.1953 73.8159 55.4353C73.9959 55.6453 74.2262 55.8055 74.5562 55.9255C75.3261 56.2054 76.1466 56.1954 76.9966 55.8855C77.3764 55.7454 77.6464 55.4748 77.7964 55.0749C78.1863 54.025 78.1564 52.9651 78.0864 52.0652C78.0764 51.9852 78.0659 51.8951 78.0659 51.8152C78.0459 51.4652 78.0159 51.1053 77.896 50.7654C76.4661 51.8252 75.1561 51.845 73.8062 50.8152C73.5162 51.2951 73.0956 51.6746 72.5356 51.9646C71.1858 52.6744 69.6963 52.785 67.9565 52.3152C66.4366 51.9052 65.4864 51.1151 65.0464 49.8952C65.0064 49.7853 64.9962 49.7753 64.8765 49.8152ZM25.4858 50.155C25.1459 50.165 24.786 50.2146 24.4761 50.2546C24.4261 50.2546 24.366 50.2753 24.356 50.3952C24.306 50.8651 24.2059 51.335 24.106 51.7849C23.976 52.3849 23.8462 53.0155 23.8462 53.6355V53.8347C23.8562 53.9847 23.8657 54.1251 23.8657 54.2751C23.8957 54.7551 24.1264 55.0448 24.5864 55.2048C25.4764 55.5147 26.2862 55.4747 27.0562 55.0847C27.4161 54.9047 27.7464 54.6948 28.0464 54.4948C28.1863 54.3949 28.3563 54.2954 28.5962 54.3054C29.5162 54.3354 30.4163 54.145 31.1763 53.945C31.4862 53.8651 31.8463 53.8249 32.1362 54.1648C32.6062 54.7148 33.2262 54.8447 34.1362 54.5847C34.756 54.4047 34.9863 54.1051 35.0063 53.4353C35.013 53.1753 34.8793 53.0384 34.606 53.0251C33.3061 52.9751 32.3163 52.6849 31.4663 52.115C31.2263 51.945 31.136 51.9552 30.936 52.1452C30.1461 52.8951 29.116 53.1354 27.9761 52.8454C26.6862 52.5155 25.866 51.6753 25.606 50.4255C25.596 50.3956 25.5962 50.3752 25.5962 50.3454C25.5662 50.1554 25.5458 50.155 25.4858 50.155ZM28.4761 47.7546C27.9161 47.7946 27.356 48.0252 26.936 48.3952C26.2863 48.9751 26.096 49.6549 26.3657 50.4646C26.5757 51.0945 27.016 51.6052 27.606 51.8952C28.2258 52.2052 28.9559 52.2452 29.6558 52.0154V52.0046C30.6258 51.6846 31.1664 50.875 31.0864 49.865C30.9964 48.695 29.856 47.7546 28.4761 47.7546ZM69.2163 47.655C69.0664 47.5551 69.0062 47.5151 68.8765 47.5749C68.2266 47.8649 67.4964 47.9546 66.7065 47.8347H66.6157C66.486 47.8348 66.4362 47.8956 66.3862 48.0554C66.3162 48.3253 66.1963 48.5953 66.0464 48.8552L66.0562 48.8347C65.7162 49.4045 65.736 49.725 66.1157 50.2048C66.3457 50.4948 66.5764 50.7147 66.8364 50.8747C68.1463 51.6946 69.6059 51.905 71.2856 51.5251C71.8656 51.3951 72.3165 51.1752 72.6665 50.8552C73.0764 50.4752 73.2158 50.1646 73.1558 49.7946C73.1258 49.6297 73.091 49.4647 73.0522 49.2986L72.8364 48.4353C71.4665 48.6253 70.2763 48.3749 69.2163 47.655ZM75.7563 46.695C74.8364 46.695 73.7662 47.285 73.7661 48.9548C73.7661 49.8948 74.7364 50.7346 75.8364 50.7546H75.8657L75.856 50.7654C76.376 50.7654 76.9259 50.5247 77.3159 50.1247C77.6758 49.7548 77.8661 49.2853 77.8462 48.8454C77.7862 47.5155 77.0262 46.7351 75.7563 46.695ZM40.0259 45.3747C39.586 45.3748 39.1165 45.5754 38.7466 45.9353V45.9255C38.2967 46.3554 38.0563 46.9348 38.0962 47.5046C38.1062 48.7046 38.9965 49.7049 40.1265 49.7849C40.9463 49.8448 41.5766 49.5353 41.9966 48.8855C42.4465 48.1856 42.4564 47.3952 42.0366 46.5554C41.6867 45.8655 41.0563 45.4648 40.1665 45.3747H40.0259ZM40.5659 10.9851C38.3661 10.2752 36.3764 10.2953 34.4966 11.0251C32.8266 11.6751 31.846 12.6249 31.396 14.0349C31.336 14.2249 31.2564 14.4551 31.2964 14.5251C31.3266 14.595 31.5262 14.6453 31.7261 14.6853C33.4361 15.0753 34.8564 15.625 36.0464 16.365C36.2363 16.4749 36.3967 16.5953 36.5366 16.7253C36.6663 16.8354 36.6856 17.0252 36.5757 17.195C36.4757 17.3649 36.2964 17.4146 36.1265 17.3347C35.9766 17.2647 35.8365 17.2049 35.7065 17.115C34.8365 16.525 33.8158 16.0748 32.4858 15.7048C30.4759 15.1449 28.4359 14.9146 26.436 15.0046C23.0462 15.1646 20.1064 16.0851 17.4565 17.8249C17.3866 17.8849 17.3061 17.9549 17.2261 18.0349C17.0561 18.2049 16.8557 18.4152 16.5757 18.3552C16.3159 18.2951 16.1059 18.1152 15.896 17.9353C15.826 17.8753 15.7463 17.8146 15.6763 17.7546C13.0964 15.8147 10.2361 15.5249 7.17624 16.8747C4.41625 18.0947 2.51609 20.125 1.51608 22.905C0.756081 25.035 0.676589 26.9754 1.28659 28.8454C1.9466 30.8851 3.12618 32.2951 4.89597 33.155C5.82586 33.605 6.73589 33.8555 7.69577 33.9255C10.1158 34.1055 12.1458 33.4248 13.7358 31.9148C15.4057 30.3249 16.3461 28.4553 16.5562 26.3454V26.2654C16.5562 26.1554 16.5659 26.025 16.6558 25.905C16.6757 25.875 16.7759 25.7548 16.9058 25.7546C17.0658 25.7546 17.2061 25.8651 17.2261 26.0251C17.2461 26.1851 17.2466 26.3153 17.2466 26.4353C17.2266 27.175 17.0665 27.9149 16.7866 28.6247C16.3166 29.8047 15.7063 30.8453 14.9663 31.7253C13.8364 33.0552 12.6264 33.9152 11.2466 34.3552C10.2766 34.6652 9.33597 34.8054 8.39597 34.8054C7.94622 34.8054 7.9463 34.7952 7.8364 35.2048V35.2351C7.65642 35.935 7.57613 36.6749 7.55612 37.7946C7.56612 38.2846 7.60624 38.8855 7.67624 39.4255C8.01633 42.2553 9.38668 44.6051 11.7466 46.405C13.7765 47.9649 16.2264 48.9049 19.2163 49.2849L19.3862 49.3054C19.9361 49.3754 20.506 49.4551 21.0659 49.4851C22.3859 49.5651 23.776 49.5147 25.3159 49.3347C25.5659 49.3047 25.6758 49.215 25.7358 48.9851C25.8758 48.4651 26.1659 48.0348 26.5659 47.7448C27.6259 46.9848 28.7465 46.8251 29.8765 47.2751C29.9263 47.2951 29.976 47.3255 30.0259 47.3454C30.1659 47.4054 30.2765 47.465 30.4165 47.445C30.6264 47.4151 30.8463 47.3852 31.0562 47.3552C31.3362 47.3152 31.6062 47.2851 31.8862 47.2351C32.7761 47.0851 33.5359 46.6149 34.2358 46.155C35.0558 45.615 35.7662 45.4154 36.5562 45.5154C37.286 45.6053 37.9458 45.4648 38.5757 45.0749C39.4356 44.5449 40.3361 44.475 41.186 44.865L41.2261 44.8454C41.366 44.9154 41.4663 44.9153 41.5962 44.8454C42.6562 44.3154 43.7362 43.6946 44.5562 42.7546C46.596 40.4147 47.6766 37.575 47.7466 34.3152C47.8066 31.8653 47.4261 29.6653 46.5962 27.5954C46.1562 26.4955 45.5165 25.095 44.4565 23.905C44.3066 23.735 44.1561 23.5652 44.0161 23.3952C43.6662 22.9653 43.2963 22.5252 42.8364 22.1853C42.6164 22.0253 42.5458 21.8147 42.6558 21.6247C42.7258 21.4947 42.8961 21.3054 43.2759 21.4353C43.4259 21.4853 43.5458 21.5655 43.6558 21.6755C43.7757 21.8054 43.8962 21.9247 44.0161 22.0446C44.2661 22.2846 44.5058 22.5354 44.7358 22.8054C44.9057 23.0152 45.026 23.1548 45.106 23.155C45.1959 23.165 45.3262 23.0552 45.5161 22.8952C46.416 22.1353 46.996 21.1953 47.2261 20.0954C47.6061 18.2654 47.1657 16.5053 45.8657 14.7253C44.5757 12.9553 42.7959 11.7051 40.5659 10.9851ZM63.7563 45.5954C63.3765 45.5954 62.9564 45.7549 62.6265 46.0446L62.5015 46.1648C62.2065 46.4806 62.0434 46.8865 62.0259 47.3152C61.9859 48.3549 62.7459 49.1749 63.7856 49.2351C64.2655 49.2551 64.7961 49.0453 65.186 48.6755C65.486 48.3856 65.6557 48.0452 65.6558 47.7253C65.6458 46.3354 65.1362 45.7155 63.8765 45.5954H63.7563ZM59.4663 8.19504C59.2564 8.20503 59.0463 8.22485 58.8364 8.24484C58.6264 8.26484 58.4161 8.30496 58.2261 8.36496C55.5761 9.14496 53.7058 10.7252 52.6558 13.0652C51.5859 15.4651 51.7964 17.7753 53.2964 19.9353C53.7762 20.6349 54.3359 20.9953 55.0356 21.0554C55.2756 21.0754 55.3863 21.1851 55.4263 21.2751C55.4862 21.4051 55.4561 21.575 55.3462 21.7448L55.3257 21.7849C55.2757 21.8449 55.2362 21.9154 55.1763 21.9753C54.0763 23.0753 53.2066 24.4652 52.4966 26.2351C51.3566 29.075 51.0658 31.9149 51.6157 34.6648C52.1157 37.1547 53.1762 39.3147 54.7661 41.0847C56.5461 43.0746 58.816 44.5651 61.5259 45.5251C61.7259 45.6051 61.8563 45.5851 62.0063 45.4851L62.0757 45.4353C62.1757 45.3653 62.2763 45.2953 62.3862 45.2253C63.0762 44.7753 63.9163 44.6655 64.6763 44.9255C65.406 45.1655 65.9758 45.7349 66.2358 46.4646C66.4158 46.9644 66.6959 47.0752 67.1157 47.1052C67.6456 47.1352 68.1258 47.0548 68.5757 46.865C68.9157 46.725 69.2066 46.7651 69.4966 46.9851C70.1465 47.4849 70.9361 47.7353 71.9058 47.7654C72.6357 47.7853 73.1257 47.5648 73.5356 47.0349C74.1155 46.285 74.9258 45.8749 75.7856 45.8747C75.8655 45.8747 75.9558 45.8854 76.0356 45.8855C76.9956 45.9755 77.8661 46.5549 78.3062 47.4148C78.4595 47.7148 78.7095 47.8413 79.0562 47.7946C80.7361 47.5546 82.1165 47.2246 83.3765 46.7546C86.2663 45.6746 88.7061 43.9448 90.646 41.615C91.746 40.295 92.5556 38.7747 93.0356 37.1247C93.7356 34.7148 93.8066 32.4748 93.2466 30.2849C93.0966 29.6849 92.8765 29.1049 92.6665 28.5349C92.5865 28.3349 92.506 28.1248 92.436 27.9148L92.396 27.8152C92.0361 26.8253 91.7063 25.8854 90.9565 25.1355C90.8365 25.0155 90.6958 24.8448 90.7358 24.6648C90.7859 24.4749 90.9964 24.3649 91.2163 24.2849C92.7662 23.7049 93.9664 22.7547 94.7964 21.4548C95.9362 19.6549 96.1763 17.6645 95.5063 15.5446C95.2364 14.6947 94.8859 13.8046 94.186 13.1247C92.7261 11.7049 91.1559 10.8955 89.396 10.6355C86.626 10.2355 84.0163 11.4952 82.7563 13.8552L82.686 13.9851C82.6361 14.075 82.5856 14.1647 82.5356 14.2546C82.3958 14.4744 82.2165 14.4747 82.1265 14.4548C81.9765 14.4248 81.8862 14.2947 81.8862 14.1247C81.8861 13.945 81.7862 13.885 81.5864 13.7751C80.0065 12.9252 78.2263 12.3351 76.2964 12.0251C74.1864 11.6851 72.1062 11.6753 70.1362 11.9753C68.5563 12.2153 66.5266 12.6555 64.7466 13.8855C64.6866 13.9255 64.6061 13.9748 64.5161 13.9948C64.2861 14.0448 64.1259 13.9849 64.0259 13.8249C63.936 13.675 63.9663 13.4949 64.0962 13.365C64.2162 13.255 64.3762 13.1053 64.5562 12.9753C64.836 12.7754 64.9429 12.5086 64.8765 12.1755C64.3765 9.76551 62.3158 8.14551 59.7358 8.17551C59.646 8.18549 59.5561 8.19502 59.4663 8.19504ZM20.7456 46.5847C21.0354 46.4947 21.146 46.6648 21.186 46.7448C21.266 46.9048 21.2159 47.075 21.0659 47.195C20.836 47.3749 20.5761 47.4446 20.3462 47.5046C20.2462 47.5346 20.1557 47.5547 20.0757 47.5847H20.0259C19.836 47.5747 19.5665 47.5749 19.5063 47.3054C19.4664 47.1055 19.5661 46.9655 19.8159 46.8855L19.9058 46.8552C20.1757 46.7652 20.4559 46.6747 20.7358 46.5847H20.7456ZM20.8364 45.7146C21.0262 45.6748 21.1866 45.775 21.2466 45.9548C21.2765 46.0447 21.2659 46.1347 21.2261 46.2146C21.1761 46.2945 21.0963 46.3555 21.0063 46.3855C20.6763 46.4755 20.3259 46.5547 20.0259 46.6247L19.6958 46.695H19.6665C19.5165 46.695 19.2266 46.675 19.1665 46.3952C19.1365 46.2152 19.2565 46.0446 19.4565 46.0046C19.9663 45.8847 20.4263 45.7848 20.8462 45.7048L20.8364 45.7146ZM68.9565 44.3152C69.2464 44.3152 69.5066 44.405 69.6665 44.5749C69.7764 44.6948 69.8256 44.835 69.8257 44.9948C69.8057 45.3348 69.5361 45.5446 69.0962 45.5446H69.0864C68.5864 45.5446 68.2265 45.3046 68.2065 44.9646C68.1967 44.8248 68.256 44.685 68.3657 44.5652C68.5057 44.4052 68.7265 44.3152 68.9565 44.3152ZM32.8862 43.0446C33.0462 43.0347 33.3257 43.0852 33.4058 43.4948C33.4357 43.6247 33.3962 43.7548 33.2964 43.8747C33.1765 44.0246 32.9765 44.1148 32.7866 44.115C32.5066 44.115 32.3061 43.9448 32.2661 43.6648C32.2462 43.5448 32.2863 43.4046 32.3862 43.2946C32.5062 43.1448 32.6963 43.0446 32.8862 43.0446ZM20.6567 38.7253C21.0067 38.2753 21.1968 38.1846 21.6968 38.5046C21.9067 38.6246 22.1068 38.6655 22.3667 38.6755H22.356C23.1859 38.7255 24.0165 39.2247 24.4565 39.9646C24.8965 40.7046 24.9159 41.565 24.5259 42.405C24.2359 43.0149 23.716 43.3452 23.186 43.6052C22.4963 43.955 21.7767 43.9948 21.4966 43.9948C20.4966 43.9648 19.6863 43.5752 19.2163 42.8952C18.7864 42.2653 18.7067 41.4654 18.9966 40.6355C19.1366 40.2355 19.4467 39.8453 19.9067 39.4753C20.1967 39.2453 20.4468 38.9953 20.6567 38.7253ZM22.6968 39.8747C22.1668 39.8447 21.7063 40.2654 21.6763 40.8054C21.6464 41.2451 21.9263 41.6548 22.356 41.7849L22.5366 41.8454L22.4263 42.0046V41.9948C22.3763 42.0848 22.3364 42.1754 22.3364 42.2654C22.3265 42.4053 22.3764 42.5453 22.4663 42.6452C22.5663 42.7452 22.6867 42.8152 22.8267 42.8152C22.9566 42.825 23.0969 42.7752 23.1968 42.6853C23.2967 42.5953 23.3667 42.4649 23.3667 42.3249C23.3766 42.155 23.3062 42.0052 23.1763 41.8952L23.0259 41.7751L23.186 41.6648C23.446 41.4848 23.5967 41.215 23.6167 40.905C23.6267 40.6451 23.5366 40.395 23.3667 40.195C23.1968 40.0051 22.9566 39.8848 22.6968 39.8747ZM59.3462 41.2849C59.4161 41.265 59.4864 41.2752 59.5464 41.3152C59.6162 41.3552 59.666 41.4351 59.686 41.5349C59.736 41.7849 59.4058 42.4852 59.1558 42.5652C59.1366 42.5745 59.0909 42.5749 59.0864 42.5749L58.9956 42.5954L58.9458 42.5554C58.936 42.5551 58.9263 42.5355 58.9165 42.5349C58.8765 42.5049 58.8364 42.4648 58.7964 42.4148C58.7164 42.2948 58.7061 42.1451 58.7661 41.9851L58.7964 41.8952C58.8864 41.6553 58.996 41.3551 59.356 41.2751L59.3462 41.2849ZM77.9858 37.0349C78.1158 37.0349 78.2364 37.0755 78.3364 37.1755C78.5964 37.4353 78.9067 37.5851 79.2466 37.7351C79.4765 37.835 79.7064 37.9455 79.9263 38.0954L79.9165 38.0749C80.8264 38.6949 81.2361 39.7554 80.9761 40.7654C80.696 41.855 79.7364 42.5747 78.5767 42.5749H78.3862C77.9762 42.5549 77.546 42.5354 77.146 42.3454C75.996 41.8154 75.6363 41.1747 75.7163 39.8347C75.7764 38.7949 76.2762 38.0447 77.146 37.6648C77.336 37.5848 77.4559 37.4349 77.5659 37.2849C77.6758 37.135 77.826 37.045 77.9858 37.0349ZM58.2661 41.1755C58.3461 41.1055 58.5062 41.0952 58.5962 41.1452C58.6761 41.1952 58.7763 41.3349 58.7466 41.4548C58.6566 41.8048 58.4759 42.1052 58.3159 42.3552C58.266 42.4349 58.1864 42.4546 58.1265 42.4646L58.0864 42.4753H58.0259C57.8362 42.4353 57.7168 42.2952 57.7466 42.1355C57.8066 41.7256 57.9863 41.4055 58.2661 41.1755ZM77.936 38.8552C77.3962 38.8553 76.9567 39.2949 76.9565 39.8347C76.9565 40.2646 77.2359 40.6453 77.6558 40.7654L77.8364 40.8152L77.7466 40.9851C77.7066 41.0551 77.686 41.125 77.686 41.195C77.686 41.435 77.8862 41.6355 78.1362 41.6355C78.3862 41.6355 78.5864 41.445 78.5864 41.195C78.5864 41.0852 78.5363 40.9655 78.4565 40.8855L78.3267 40.7546L78.4858 40.6452C78.7558 40.4652 78.9165 40.1547 78.9165 39.8347C78.9163 39.2949 78.4759 38.8552 77.936 38.8552ZM62.4058 35.0251C62.5758 35.0051 62.7462 35.0851 62.8462 35.2351C63.0261 35.5049 63.276 35.5949 63.5659 35.7048C63.6258 35.7347 63.6857 35.7552 63.7456 35.7751L63.7563 35.7654C64.7562 36.1654 65.3257 37.0155 65.3257 38.0954C65.4354 39.3451 64.1863 40.0854 63.5063 40.3054C63.2363 40.3954 62.966 40.4353 62.686 40.4353C62.2162 40.4353 61.7264 40.315 61.2065 40.0652C60.9165 39.9252 60.6756 39.7052 60.4956 39.3952C60.1256 38.7753 60.0261 38.0449 60.2261 37.365C60.426 36.6852 60.8859 36.1354 61.5356 35.8054L61.5864 35.7751C61.8062 35.6652 61.9664 35.5852 62.0464 35.3454C62.0964 35.1755 62.2359 35.0452 62.4058 35.0251ZM63.4458 36.6355C62.8959 36.5656 62.3959 36.9452 62.3159 37.4851C62.2559 37.925 62.4861 38.3351 62.896 38.5251L63.0757 38.6052L62.9565 38.7654C62.9066 38.8252 62.8758 38.8947 62.8657 38.9646C62.8357 39.2046 63.0063 39.4353 63.2563 39.4753C63.4962 39.5051 63.7261 39.3346 63.7661 39.0847C63.776 38.9648 63.7462 38.8447 63.6763 38.7448L63.6958 38.7546L63.5757 38.6052L63.7456 38.5251C64.0455 38.3752 64.2463 38.0952 64.2964 37.7654C64.3764 37.2154 63.9958 36.7055 63.4458 36.6355ZM38.0767 33.5954C38.2264 33.6057 38.3567 33.7252 38.4966 33.905C38.6765 34.1348 38.9061 34.1949 39.1958 34.2448L39.2065 34.2146C40.3663 34.4146 41.0258 35.245 41.0659 36.5446C41.0759 37.6346 40.5657 38.4049 39.6157 38.7849C39.0759 39.0048 38.5957 39.115 38.1558 39.115C37.496 39.1149 36.9363 38.8649 36.4165 38.3552C35.8866 37.8353 35.5758 37.1052 35.6157 36.4353C35.6457 35.8354 35.9461 35.3054 36.4858 34.8855C36.8358 34.6155 37.2457 34.2747 37.6157 33.8747C37.7857 33.6947 37.9167 33.5954 38.0767 33.5954ZM37.6558 35.3454C37.616 35.3455 37.586 35.3552 37.5562 35.3552C37.0462 35.4552 36.6966 35.9153 36.7466 36.4353C36.7967 36.8851 37.1463 37.2549 37.5962 37.3249L37.7964 37.3552L37.7065 37.5446C37.6566 37.6346 37.6558 37.735 37.6558 37.8249C37.6658 37.9649 37.7362 38.0953 37.8462 38.1853C37.9561 38.2751 38.096 38.3153 38.2358 38.3054C38.3758 38.2954 38.5062 38.225 38.5962 38.115C38.6861 38.005 38.7262 37.8652 38.7163 37.7253C38.6963 37.5554 38.6064 37.4149 38.4565 37.3249L38.2759 37.2253L38.4263 37.0847L38.436 37.0749C38.666 36.8649 38.7863 36.5548 38.7563 36.2448C38.7062 35.6949 38.2057 35.2954 37.6558 35.3454ZM70.6958 21.8952C71.1458 21.9852 71.5166 22.3254 71.7466 22.8454C72.1764 23.8253 72.3659 24.8255 72.3159 25.8054C72.1959 28.3352 71.3959 30.5248 69.936 32.3347L69.856 32.4353C69.626 32.7352 69.3758 33.0351 69.0259 33.2351C68.9261 33.2851 68.846 33.3747 68.7661 33.4646C68.7361 33.4946 68.7063 33.5254 68.6763 33.5554C68.5164 33.7153 68.4866 33.7654 68.5366 33.8454C68.5968 33.955 68.737 33.9845 68.9966 33.9646C69.6064 33.9045 70.1864 33.6651 70.8862 33.1853C70.9262 33.1553 70.9663 33.1247 71.0063 33.0847C71.1463 32.9547 71.3861 32.7554 71.6558 32.9548C71.9458 33.1648 71.7858 33.455 71.6958 33.615C71.666 33.6647 71.6464 33.7147 71.6265 33.7546C71.4665 34.1946 71.1958 34.5848 70.9458 34.9548C70.8758 35.0648 70.7961 35.1749 70.7261 35.2849C70.6961 35.3349 70.6665 35.3755 70.6265 35.4255C70.4766 35.6154 70.4264 35.705 70.5063 35.8249C70.6163 35.9849 70.7862 35.9655 71.0562 35.9255L71.1665 35.905C71.6263 35.8349 72.0464 35.6154 72.4263 35.3855C73.8261 34.5356 74.9858 33.4952 75.8657 32.2654C76.1657 31.8454 76.3658 31.4751 76.4858 31.1052C76.5158 31.0052 76.5565 30.9049 76.6265 30.7849V30.7654C76.6765 30.6454 76.7462 30.5048 76.8862 30.4548C76.9662 30.4249 77.0666 30.4351 77.1665 30.4851C77.4761 30.6351 77.3466 30.9254 77.2866 31.0554C77.2366 31.1653 77.1862 31.2851 77.1362 31.405C77.0162 31.705 76.8758 32.0147 76.6958 32.2946L76.686 32.2849C75.446 34.1449 73.9658 35.4754 72.1558 36.3454C71.8859 36.4653 71.6059 36.5555 71.2661 36.6355C71.1363 36.6654 71.0063 36.6852 70.8765 36.6853C70.6965 36.6853 70.526 36.6547 70.356 36.5847C70.0561 36.4747 69.8561 36.3046 69.7661 36.0847C69.6763 35.8747 69.696 35.6145 69.8159 35.3347C69.9359 35.0648 70.0959 34.8248 70.2759 34.5749C70.3359 34.4849 70.4063 34.3946 70.4663 34.2946L70.3765 34.3249C70.0866 34.4249 69.8363 34.5049 69.5864 34.5749C69.1865 34.6849 68.8265 34.7046 68.4966 34.6247C68.1667 34.5547 67.8264 34.4151 67.7163 34.0154C67.6363 33.7054 67.766 33.415 68.106 33.155C69.146 32.355 69.806 31.2548 70.396 30.2048C70.946 29.2248 71.186 28.1849 71.436 27.0749L71.4761 26.8855C71.7061 25.8755 71.6366 24.8746 71.2466 23.7146L71.2163 23.615C71.1663 23.485 71.1266 23.355 71.0767 23.2351C70.8967 22.8251 70.6958 22.655 70.4058 22.655C70.0959 22.6651 69.8459 22.8357 69.646 23.1755C69.3961 23.6054 69.2365 24.0854 69.1665 24.6452V24.6853C69.1565 24.8054 69.1261 25.0953 68.8364 25.0954H68.8159C68.7062 25.0954 68.6163 25.0551 68.5464 24.9753C68.4364 24.8553 68.436 24.6851 68.436 24.5652C68.486 23.8852 68.6367 23.015 69.3267 22.365C69.7465 21.9653 70.236 21.7954 70.6958 21.8952ZM81.8364 33.0349C82.1563 32.9849 82.5361 32.9752 82.856 33.2849C83.0859 33.5049 83.3261 34.0449 83.1763 34.3249C83.0263 34.5948 82.7664 34.7546 82.3667 34.7946L81.9966 34.8347C81.4667 34.8947 80.9066 34.9548 80.3667 34.9948C79.3667 35.0548 78.3562 35.1949 77.3862 35.3249C76.9462 35.3849 76.4961 35.4448 76.0562 35.4948C76.0162 35.5048 75.9664 35.5046 75.9165 35.5046H75.7563C75.6964 35.4946 75.6263 35.4953 75.5464 35.4753C75.3564 35.4253 75.0666 35.3346 75.0366 35.0046C75.0068 34.7149 75.1664 34.4755 75.4761 34.3855C75.6161 34.3455 75.7665 34.3151 75.9165 34.2751C76.0564 34.2451 76.2063 34.2047 76.3462 34.1648C78.0861 33.6348 79.8561 33.3351 81.8159 33.0251L81.8364 33.0349ZM23.5464 27.2146C23.7361 27.1748 23.8364 27.3447 23.8765 27.4148C23.9765 27.6048 23.9262 27.7652 23.8862 27.8952C23.8762 27.9352 23.856 27.9754 23.856 28.0154C23.656 29.1753 23.5464 30.5353 24.2163 31.8552C24.8563 33.1251 25.8763 33.9946 27.3062 34.5046C27.3562 34.5246 27.4565 34.5446 27.4565 34.5446V34.5251C27.5965 34.5551 27.7766 34.5948 27.9165 34.7546L27.9761 34.8249L27.9263 34.905C27.7763 35.195 27.556 35.2751 27.356 35.2751C27.186 35.2751 27.026 35.2153 26.936 35.1853C25.5461 34.6453 24.5264 33.8348 23.8364 32.7048C22.9665 31.2648 22.7463 29.6646 23.1763 27.7946C23.2063 27.6748 23.256 27.5448 23.3159 27.405C23.3559 27.335 23.4364 27.2446 23.5464 27.2146ZM60.0962 29.6052C60.1561 29.6152 60.216 29.635 60.2759 29.655C62.5859 30.445 64.5664 31.4654 66.3364 32.7654C66.3963 32.8152 66.4562 32.8551 66.5161 32.905C66.5545 32.9338 66.6393 32.9994 66.646 33.0046L66.6362 33.0251C66.8862 33.2151 66.9359 33.4951 66.7759 33.7751C66.6659 33.9649 66.5259 34.0251 66.396 34.0251C66.2662 34.025 66.1363 33.9655 66.0464 33.9255C65.2365 33.5555 64.4266 33.1947 63.6167 32.8347L61.5767 31.9255C61.0067 31.6655 60.4162 31.4055 59.8462 31.1355C59.5562 30.9955 59.3762 30.825 59.3062 30.615C59.2462 30.415 59.276 30.1948 59.396 29.9548C59.516 29.7148 59.7166 29.5847 59.9966 29.5847H60.0161L60.0962 29.6052ZM28.6157 29.695C28.7656 29.735 28.8362 29.8847 28.8862 30.0046C28.8962 30.0346 28.916 30.0752 28.936 30.1052C29.766 31.4151 30.966 32.1755 32.606 32.4255C32.7258 32.4455 32.8357 32.4554 32.9556 32.4753C33.0555 32.4853 33.1457 32.5053 33.2456 32.5154C33.3856 32.5354 33.6358 32.5754 33.6558 32.8454C33.6755 33.155 33.3961 33.2051 33.2661 33.2351H32.9761C30.8761 32.9451 29.4358 32.1453 28.4458 30.7253C28.3958 30.6553 28.3562 30.5846 28.3062 30.5046L28.2759 30.4646C28.1658 30.2845 27.9664 29.9645 28.3062 29.7546C28.4159 29.6948 28.5259 29.6652 28.6157 29.695ZM88.7964 17.655C89.4863 17.695 89.9964 17.8249 90.4663 18.0749C90.5862 18.1449 90.7062 18.2348 90.8062 18.3347H90.8159L90.8364 18.3552C90.9865 18.4952 91.2557 18.7653 90.9858 19.0652C90.916 19.1449 90.8363 19.1949 90.7466 19.195C90.5866 19.195 90.4765 19.0946 90.3765 19.0046C90.3565 18.9846 90.3359 18.965 90.3159 18.945C89.746 18.4852 89.1063 18.3551 88.3765 18.5749C87.9665 18.6949 87.6757 18.8654 87.6157 19.3054C87.5957 19.4753 87.5559 19.7346 87.2866 19.8347C87.2266 19.8547 87.1562 19.865 87.0962 19.865C86.9662 19.865 86.8361 19.8153 86.7261 19.7253C86.5361 19.5653 86.506 19.3149 86.646 19.0749C86.986 18.5149 87.4463 17.9046 88.2563 17.7146C88.4161 17.6747 88.5858 17.655 88.6958 17.655H88.7964ZM57.8657 14.8054C59.2057 14.8254 60.0658 15.5754 60.1558 16.8054C60.1658 16.9056 60.1855 17.1649 59.9058 17.2448C59.8758 17.2548 59.8459 17.2546 59.8159 17.2546C59.6959 17.2546 59.5856 17.1751 59.4956 17.0251C59.3657 16.8251 59.3061 16.6148 59.2661 16.4548C59.1261 15.8951 58.8261 15.6447 58.2563 15.5847V15.5954C57.8365 15.5554 57.5263 15.5952 57.2563 15.7351C57.0663 15.8251 56.9156 15.8446 56.7856 15.7946C56.7256 15.7646 56.6256 15.7049 56.5757 15.5554C56.4457 15.1856 56.8254 15.0147 56.9556 14.9646C57.2955 14.8246 57.5958 14.7754 57.8657 14.8054Z" fill="#74625F"/>
</g>
<defs>
<clipPath id="clip0_46_3471">
<rect width="107" height="57" fill="white"/>
</clipPath>
</defs>
</svg>
