<svg width="147" height="59" viewBox="0 0 147 59" fill="none" xmlns="http://www.w3.org/2000/svg">
<g clip-path="url(#clip0_46_3501)">
<path d="M109.94 33.8399C109.57 31.4899 108.36 29.5498 106.24 27.9198C105.25 27.1598 104.16 26.6598 103.03 26.1698H103C102.8 26.0765 102.703 25.9199 102.71 25.6999C102.72 24.7499 102.41 23.8999 102.03 22.9599C101.92 22.6999 101.76 22.4399 101.53 22.1999C100.06 20.6399 98.4 19.8799 96.48 19.8799C96.48 19.8799 96.46 19.8799 96.45 19.8799C96.26 19.8799 96.16 19.8298 96.07 19.6698C94.94 17.7698 93.44 16.1099 91.62 14.7399C89.63 13.2399 87.45 12.5099 85.14 12.5699C83.75 12.6099 82.42 12.9899 81.08 13.7399C79.73 14.4999 78.7 15.5799 77.79 16.6299C77.35 17.1399 77.05 17.5899 76.84 18.0599C76.74 18.2799 76.68 18.3099 76.45 18.2499C75.64 18.0499 74.83 18.0299 74.04 18.1799C71.17 18.7399 68.54 21.7599 68.74 24.2699C68.74 24.3899 68.71 24.4499 68.59 24.4899C67.84 24.7099 67.08 25.0698 66.27 25.5698C66.23 25.4998 66.21 25.4399 66.19 25.3699L66.17 25.3198C65.93 24.5398 65.55 23.8299 65.05 23.1999C63.68 21.4599 61.88 20.3699 59.71 19.9699C58.13 19.6799 56.67 19.8798 55.39 20.5598C54.13 21.2298 53.44 22.0399 53.2 23.1199V23.1698C53.16 23.3165 53.0334 23.3732 52.82 23.3399C52.15 23.2299 51.56 23.1798 51.02 23.1798C49.98 23.1798 48.9 23.2999 47.81 23.5099C45.95 23.8699 44.38 24.5199 43.01 25.4999C42.8034 25.6466 42.61 25.6466 42.43 25.4999L42.41 25.4799C40.98 24.2899 39.31 23.8199 37.43 24.0899C35.29 24.3899 33.53 25.4298 32.18 27.1798C30.47 29.3898 29.94 31.7799 30.63 34.2799C31.01 35.6799 31.86 36.8198 33.15 37.6898C33.88 38.1798 34.7 38.4098 35.34 38.5498C35.54 38.5965 35.6233 38.7198 35.59 38.9198V38.9999C35.53 39.3499 35.48 39.7199 35.44 40.0799C35.23 42.0499 35.63 43.8699 36.63 45.4799C37.84 47.4299 39.66 48.7598 42.21 49.5598C43.84 50.0698 45.57 50.3099 47.37 50.2599C47.4 50.2599 47.44 50.2599 47.47 50.2599C47.6 50.2599 47.73 50.2499 47.84 50.2799C47.84 50.3499 47.84 50.4299 47.82 50.5099C47.82 50.5399 47.82 50.5599 47.81 50.5899C47.71 51.3299 47.59 52.3098 47.63 53.3098C47.65 53.7498 47.85 54.0999 48.25 54.3399C48.71 54.6299 49.25 54.7398 49.85 54.6798C50.45 54.6198 50.95 54.3099 51.44 53.9999C51.47 53.9799 51.49 53.9598 51.52 53.9499C51.61 53.8898 51.67 53.8399 51.77 53.8399C52.4 53.8399 53.07 53.7599 53.81 53.5799C53.93 53.5499 54 53.5699 54.07 53.6399C54.67 54.2499 55.41 54.1698 55.92 54.0598C56.68 53.8898 57.11 53.4099 57.09 52.7299C57.09 52.3099 57.21 52.1498 57.63 52.0598C57.85 52.0098 58.05 51.9098 58.24 51.8198C58.79 51.5398 59.22 51.1399 59.52 50.6299C59.6334 50.4366 59.8 50.3698 60.02 50.4298C61.12 50.6998 61.99 50.0699 62.33 49.3699C62.71 48.5999 62.67 47.8198 62.2 47.0598C62.17 47.0098 62.13 46.9599 62.09 46.9099C62.05 46.8599 62.01 46.8099 61.98 46.7599C63.64 45.8099 64.94 44.3898 65.95 42.4198C66.36 43.1998 66.91 43.8099 67.4 44.3299L67.44 44.3699C68.08 45.0499 68.74 45.7398 69.6 46.1898C69.77 46.2798 69.83 46.3999 69.82 46.5999C69.8 46.9399 69.78 47.2799 69.78 47.6199C69.78 49.4399 70.49 50.8599 71.87 51.8399C72.93 52.5999 74.25 52.91 76.02 52.8299C76.44 52.8099 76.94 52.7699 77.49 52.6499V52.6798C77.49 52.7698 77.49 52.8498 77.49 52.9198C77.51 53.3298 77.7 53.6799 78.03 53.9499C78.69 54.4899 79.93 54.5299 80.62 54.0299C80.8 53.8999 80.96 53.8698 81.21 53.9198L81.4 53.9599C82.48 54.1699 83.6 54.3799 84.74 54.3899C84.97 54.3899 85.11 54.4499 85.22 54.5799C85.38 54.7699 85.61 54.9099 85.92 55.0199C86.29 55.1399 86.65 55.1999 87.01 55.1999C87.42 55.1999 87.83 55.1198 88.22 54.9499C88.68 54.7599 88.98 54.4399 89.11 53.9999C89.16 53.8399 89.22 53.6699 89.27 53.5099C89.29 53.4599 89.3 53.4099 89.32 53.3599C89.35 53.3699 89.37 53.3799 89.4 53.3999C90.91 54.3399 92.39 54.7499 93.92 54.6599C95.63 54.5599 96.96 53.8599 97.97 52.5199C98.95 51.2299 99.46 49.6699 99.54 47.7499C99.56 47.3399 99.68 47.1599 100.08 46.9999C101.08 46.5899 102.06 46.0499 103.06 45.3299C103.88 44.7399 104.7 44.0899 105.58 43.3299C107.11 41.9899 108.14 40.6999 108.82 39.2699C108.98 38.9199 109.14 38.5498 109.34 38.0598C109.91 36.6398 110.09 35.2198 109.87 33.8198L109.94 33.8399ZM98.29 31.0399C98.26 31.1799 98.36 31.2999 98.45 31.3899C99.01 31.9499 99.26 32.6499 99.53 33.3999L99.56 33.4699C99.62 33.6299 99.67 33.7798 99.73 33.9398C99.89 34.3598 100.05 34.7999 100.17 35.2499C100.59 36.8899 100.54 38.5699 100.01 40.3699C99.65 41.6099 99.05 42.7399 98.22 43.7299C96.77 45.4699 94.94 46.7699 92.78 47.5799C91.83 47.9299 90.81 48.1799 89.55 48.3599C89.29 48.3999 89.1034 48.3065 88.99 48.0799C88.66 47.4399 88.01 46.9998 87.29 46.9298C87.23 46.9298 87.17 46.9298 87.1 46.9298C86.46 46.9298 85.85 47.2398 85.42 47.7998C85.11 48.1998 84.75 48.3599 84.2 48.3499C83.47 48.3299 82.88 48.1399 82.4 47.7599C82.18 47.5899 81.97 47.5698 81.71 47.6698C81.37 47.8198 81.01 47.8699 80.62 47.8499C80.3 47.8299 80.09 47.7399 79.96 47.3699C79.76 46.8199 79.34 46.3999 78.79 46.2099C78.22 46.0199 77.6 46.0998 77.07 46.4398C76.99 46.4898 76.91 46.5499 76.84 46.5999L76.79 46.6299C76.68 46.7099 76.58 46.7199 76.43 46.6599C74.4 45.9399 72.7 44.8199 71.37 43.3399C70.18 42.0099 69.39 40.3999 69.01 38.5299C68.6 36.4699 68.82 34.3499 69.67 32.2199C70.2 30.8999 70.85 29.8499 71.68 29.0299C71.73 28.9799 71.76 28.9299 71.79 28.8799L71.81 28.8499C71.89 28.7199 71.92 28.5899 71.87 28.4899C71.84 28.4199 71.76 28.3398 71.58 28.3198C71.05 28.2698 70.64 28.0099 70.27 27.4799C69.15 25.8699 68.99 24.1399 69.79 22.3399C70.58 20.5899 71.98 19.4099 73.96 18.8199C74.1 18.7799 74.26 18.7499 74.42 18.7299C74.57 18.7099 74.73 18.6999 74.89 18.6899C74.96 18.6899 75.02 18.6899 75.09 18.6799C77.02 18.6599 78.57 19.8698 78.94 21.6698C78.9934 21.9165 78.9134 22.1166 78.7 22.2699C78.57 22.3599 78.45 22.4798 78.36 22.5598C78.26 22.6598 78.24 22.7899 78.31 22.9099C78.38 23.0299 78.5 23.0699 78.67 23.0399C78.74 23.0299 78.79 22.9899 78.84 22.9599C80.17 22.0399 81.7 21.7099 82.88 21.5299C84.36 21.2999 85.91 21.3198 87.5 21.5698C88.94 21.7998 90.27 22.2399 91.46 22.8799C91.61 22.9599 91.69 23.0099 91.68 23.1399C91.68 23.2699 91.74 23.3599 91.86 23.3899C91.93 23.4099 92.06 23.4099 92.17 23.2399C92.21 23.1699 92.24 23.1099 92.28 23.0399L92.33 22.9398C93.28 21.1698 95.23 20.2299 97.3 20.5299C98.62 20.7199 99.79 21.3299 100.89 22.3899C101.42 22.8999 101.68 23.5599 101.88 24.1999C102.38 25.7899 102.2 27.2799 101.35 28.6299C100.73 29.5999 99.83 30.3199 98.67 30.7499C98.5 30.8099 98.34 30.8899 98.31 31.0299L98.29 31.0399ZM79.8 49.1599C79.91 48.9699 80 48.7598 80.06 48.5598C80.09 48.4398 80.14 48.3999 80.23 48.3999C80.25 48.3999 80.27 48.3999 80.3 48.3999C80.89 48.4899 81.44 48.4299 81.93 48.2099C82.02 48.1699 82.08 48.1999 82.18 48.2699C82.98 48.8099 83.86 48.9999 84.89 48.8499C84.91 48.9399 84.94 49.0299 84.96 49.1199C85.02 49.3799 85.09 49.6199 85.13 49.8699C85.18 50.1499 85.07 50.3799 84.76 50.6599C84.5 50.8999 84.16 51.0599 83.73 51.1599C82.47 51.4499 81.38 51.2898 80.4 50.6698C80.21 50.5498 80.03 50.3898 79.86 50.1698C79.57 49.8098 79.56 49.5699 79.81 49.1499L79.8 49.1599ZM87.15 50.5799C87.15 50.5799 87.14 50.5799 87.13 50.5799C86.31 50.57 85.58 49.9399 85.58 49.2299C85.58 47.9799 86.38 47.5399 87.07 47.5399C88.02 47.5699 88.59 48.1499 88.63 49.1499C88.65 49.4799 88.5 49.8299 88.23 50.1099C87.94 50.4099 87.53 50.5899 87.14 50.5899L87.15 50.5799ZM77.24 47.0598C77.48 46.8498 77.8 46.7199 78.08 46.7199C78.11 46.7199 78.14 46.7199 78.17 46.7199C79.11 46.8099 79.5 47.2698 79.5 48.3198C79.5 48.5598 79.37 48.8099 79.14 49.0299C78.85 49.3099 78.45 49.4699 78.09 49.4499C77.31 49.4099 76.75 48.7899 76.77 48.0099C76.78 47.6399 76.94 47.2998 77.22 47.0498L77.24 47.0598ZM78.15 52.7699C78.28 51.8299 78.48 50.9298 78.66 50.1698C78.7 49.9998 78.78 49.9099 78.92 49.8699C79.01 49.8399 79.01 49.8498 79.05 49.9298C79.38 50.8398 80.09 51.4299 81.23 51.7399C82.53 52.0899 83.65 52.0099 84.66 51.4799C85.08 51.2599 85.39 50.9799 85.61 50.6199C86.62 51.3899 87.6 51.3799 88.67 50.5799C88.76 50.8299 88.78 51.0999 88.8 51.3699C88.8 51.4299 88.8 51.4998 88.81 51.5598C88.86 52.2298 88.88 53.0298 88.59 53.8098C88.48 54.1098 88.28 54.3098 87.99 54.4198C87.35 54.6498 86.74 54.6599 86.16 54.4499C85.92 54.3599 85.74 54.2399 85.6 54.0799C85.45 53.8999 85.26 53.8098 85.02 53.7998C83.94 53.7698 82.86 53.5898 81.81 53.4198L81.66 53.3999C81.57 53.3899 81.48 53.3699 81.4 53.3599C81.3 53.3499 81.19 53.3298 81.09 53.3098C81.03 53.2998 80.97 53.2899 80.91 53.2899C80.72 53.2899 80.55 53.3499 80.38 53.4799C79.76 53.9599 78.97 53.7799 78.49 53.4799C78.22 53.3099 78.1 53.0699 78.14 52.7599L78.15 52.7699ZM61.18 46.1698C60.54 45.8798 59.87 45.9298 59.22 46.3198C58.75 46.6098 58.25 46.7199 57.71 46.6499C57.12 46.5799 56.58 46.7199 55.97 47.1299C55.45 47.4799 54.88 47.8298 54.21 47.9398C54 47.9698 53.8 47.9999 53.59 48.0299C53.43 48.0499 53.27 48.0699 53.11 48.0999C53.01 48.1199 52.92 48.0699 52.82 48.0199C52.78 47.9999 52.75 47.9799 52.71 47.9699C51.86 47.6299 51.03 47.7498 50.23 48.3198C49.93 48.5398 49.71 48.8599 49.61 49.2499C49.56 49.4199 49.48 49.4899 49.29 49.5099C48.14 49.6399 47.1 49.6799 46.11 49.6199C45.69 49.5899 45.26 49.5399 44.85 49.4899L44.72 49.4699C42.48 49.1899 40.65 48.4798 39.13 47.3198C37.37 45.9698 36.34 44.2099 36.08 42.0899C36.03 41.6799 36 41.2399 35.99 40.8699C36 40.0299 36.06 39.4799 36.2 38.9499V38.9298C36.28 38.6298 36.28 38.6299 36.62 38.6299C37.33 38.6299 38.03 38.5198 38.75 38.2998C39.78 37.9698 40.69 37.3299 41.53 36.3299C42.08 35.6699 42.54 34.8899 42.89 34.0099C43.1 33.4799 43.22 32.9299 43.24 32.3699C43.24 32.2799 43.24 32.1798 43.22 32.0598C43.2 31.9398 43.1 31.8499 42.98 31.8599C42.88 31.8599 42.81 31.9499 42.79 31.9799C42.72 32.0699 42.72 32.1699 42.71 32.2499C42.71 32.2699 42.71 32.2898 42.71 32.3098C42.56 33.8898 41.85 35.2899 40.6 36.4799C39.41 37.6099 37.89 38.1199 36.08 37.9899C35.36 37.9399 34.68 37.7498 33.99 37.4198C32.66 36.7798 31.78 35.7199 31.29 34.1999C30.84 32.7999 30.89 31.3499 31.46 29.7499C32.21 27.6699 33.63 26.1499 35.7 25.2299C37.99 24.2199 40.13 24.4399 42.06 25.8899C42.12 25.9299 42.17 25.9799 42.22 26.0299C42.38 26.1599 42.54 26.2999 42.73 26.3399C42.94 26.3799 43.09 26.2299 43.22 26.0999C43.28 26.0399 43.34 25.9799 43.39 25.9499C45.37 24.6499 47.57 23.9599 50.11 23.8399C51.61 23.7699 53.13 23.9499 54.64 24.3699C55.63 24.6499 56.4 24.9798 57.05 25.4198C57.15 25.4898 57.25 25.5299 57.36 25.5899C57.49 25.6499 57.62 25.6099 57.7 25.4899C57.78 25.3699 57.77 25.2199 57.67 25.1399C57.57 25.0499 57.44 24.9599 57.31 24.8699C56.42 24.3099 55.36 23.8999 54.08 23.6199C53.93 23.5899 53.78 23.5499 53.76 23.4999C53.73 23.4499 53.79 23.2699 53.83 23.1299C54.17 22.0799 54.9 21.3599 56.15 20.8699C57.56 20.3199 59.05 20.3099 60.7 20.8399C62.37 21.3799 63.7 22.3199 64.67 23.6399C65.64 24.9699 65.98 26.2899 65.68 27.6599C65.51 28.4799 65.08 29.1899 64.4 29.7599C64.26 29.8799 64.16 29.9599 64.1 29.9499C64.04 29.9499 63.95 29.8398 63.82 29.6898C63.65 29.4898 63.46 29.2999 63.28 29.1199C63.19 29.0299 63.1 28.9399 63.01 28.8399C62.93 28.7599 62.83 28.6999 62.73 28.6599C62.45 28.5699 62.32 28.7098 62.27 28.7998C62.19 28.9398 62.24 29.0999 62.4 29.2199C62.74 29.4799 63.02 29.8099 63.29 30.1299C63.4 30.2599 63.51 30.3899 63.62 30.5099C64.42 31.3999 64.89 32.4499 65.22 33.2699C65.84 34.8199 66.12 36.4698 66.08 38.2998C66.03 40.7398 65.22 42.8699 63.69 44.6199C63.08 45.3199 62.26 45.7798 61.48 46.1798C61.38 46.2298 61.31 46.2298 61.2 46.1798L61.18 46.1698ZM52.56 51.5199C52.04 51.6999 51.49 51.6598 51.02 51.4298C50.58 51.2098 50.25 50.8299 50.09 50.3599C49.89 49.7499 50.03 49.2498 50.52 48.8098C50.83 48.5298 51.25 48.3599 51.67 48.3299C52.7 48.3299 53.56 49.0299 53.63 49.9099C53.69 50.6699 53.29 51.2699 52.56 51.5199ZM48.4 51.3499C48.47 51.0099 48.55 50.6598 48.58 50.3098C48.58 50.2198 48.64 50.2098 48.67 50.1999C48.9 50.1699 49.17 50.1299 49.43 50.1299C49.47 50.1299 49.49 50.1299 49.51 50.2699C49.51 50.2899 49.51 50.3099 49.52 50.3299C49.71 51.2699 50.33 51.8899 51.29 52.1399C52.15 52.3599 52.91 52.1799 53.51 51.6199C53.66 51.4799 53.73 51.4699 53.91 51.5999C54.54 52.0199 55.29 52.2399 56.26 52.2799C56.4667 52.2866 56.5667 52.3899 56.56 52.5899C56.54 53.0899 56.37 53.3199 55.91 53.4499C55.23 53.6398 54.77 53.5499 54.41 53.1399C54.19 52.8899 53.92 52.9099 53.69 52.9699C53.12 53.1199 52.45 53.2599 51.76 53.2399C51.58 53.2399 51.45 53.3099 51.35 53.3799C51.12 53.5299 50.88 53.6898 50.61 53.8198C50.03 54.1098 49.43 54.1399 48.76 53.9099C48.41 53.7899 48.24 53.5699 48.22 53.2099C48.22 53.0999 48.21 52.9899 48.2 52.8799V52.7299C48.2 52.2599 48.3 51.7999 48.39 51.3499H48.4ZM59.36 46.9699C59.64 46.6999 59.99 46.5498 60.32 46.5498C60.35 46.5498 60.39 46.5498 60.42 46.5498C61.09 46.6198 61.56 46.9098 61.82 47.4398C62.14 48.0698 62.13 48.6598 61.79 49.1798C61.48 49.6698 61.01 49.8999 60.39 49.8499C59.55 49.7899 58.88 49.0399 58.87 48.1399C58.84 47.7099 59.02 47.2799 59.36 46.9599V46.9699Z" fill="#74625F"/>
<path d="M87.7702 36.76C87.9102 36.55 88.0102 36.32 88.1002 36.1C88.1402 36.01 88.1802 35.92 88.2202 35.84C88.2602 35.75 88.3702 35.52 88.1302 35.41C88.0502 35.37 87.9802 35.37 87.9202 35.39C87.8102 35.43 87.7602 35.53 87.7302 35.62V35.64C87.6802 35.73 87.6502 35.8 87.6302 35.88C87.5402 36.16 87.3902 36.43 87.1702 36.75C86.5102 37.67 85.6502 38.45 84.6002 39.08C84.3102 39.25 84.0002 39.42 83.6602 39.47H83.5802C83.3802 39.51 83.2502 39.52 83.1702 39.41C83.1102 39.32 83.1502 39.25 83.2602 39.11C83.2902 39.07 83.3202 39.04 83.3402 39.01C83.3902 38.93 83.4502 38.84 83.5102 38.76C83.7002 38.48 83.9002 38.19 84.0202 37.86C84.0302 37.83 84.0502 37.79 84.0702 37.76C84.1402 37.64 84.2602 37.42 84.0402 37.26C83.8402 37.11 83.6602 37.26 83.5502 37.36C83.5202 37.39 83.4901 37.4099 83.4601 37.4299C82.9401 37.7899 82.5002 37.97 82.0402 38.01C81.8402 38.03 81.7402 38.0099 81.7002 37.9199C81.6602 37.8599 81.6802 37.8199 81.8002 37.6999C81.8202 37.6799 81.8502 37.65 81.8702 37.63C81.9302 37.56 81.9902 37.5 82.0602 37.46C82.3302 37.31 82.5101 37.08 82.6801 36.86L82.7402 36.79C83.8302 35.44 84.4302 33.79 84.5302 31.9C84.5702 31.17 84.4202 30.4199 84.1002 29.6899C83.9302 29.2999 83.6502 29.05 83.3102 28.98C82.9602 28.91 82.6002 29.03 82.2802 29.33C81.7602 29.82 81.6502 30.46 81.6102 30.98C81.6102 31.07 81.6102 31.2 81.6902 31.29C81.7402 31.35 81.8102 31.38 81.8902 31.38C81.8902 31.38 81.9002 31.38 81.9102 31.38C82.1302 31.38 82.1502 31.1599 82.1602 31.0699V31.04C82.2102 30.62 82.3302 30.2599 82.5202 29.9399C82.6702 29.6799 82.8602 29.5599 83.0902 29.5499C83.3102 29.5499 83.4602 29.68 83.5902 29.98C83.6302 30.07 83.6602 30.16 83.6902 30.26L83.7101 30.33C84.0001 31.2 84.0602 31.9499 83.8802 32.6999L83.8502 32.84C83.6602 33.67 83.4802 34.4499 83.0702 35.1899C82.6302 35.9799 82.1302 36.8 81.3602 37.4C81.1102 37.6 81.0102 37.81 81.0702 38.04C81.1502 38.34 81.4102 38.44 81.6602 38.5C81.9102 38.56 82.1802 38.55 82.4802 38.46C82.6702 38.41 82.8502 38.35 83.0702 38.28L83.1402 38.26C83.0902 38.33 83.0402 38.4 83.0002 38.47C82.8702 38.66 82.7401 38.84 82.6501 39.04C82.5601 39.25 82.5402 39.44 82.6102 39.6C82.6802 39.76 82.8302 39.89 83.0502 39.98C83.1802 40.03 83.3102 40.0499 83.4402 40.0499C83.5302 40.0499 83.6302 40.04 83.7302 40.01C83.9802 39.95 84.1902 39.89 84.3902 39.79C85.7502 39.14 86.8602 38.14 87.7802 36.75L87.7702 36.76Z" fill="#74625F"/>
<path d="M91.6102 37.31C90.1402 37.54 88.8203 37.7701 87.5203 38.1601C87.4103 38.1901 87.3002 38.22 87.2002 38.24C87.0902 38.27 86.9802 38.29 86.8702 38.33C86.6402 38.4 86.5202 38.57 86.5402 38.8C86.5602 39.05 86.7802 39.1101 86.9202 39.1501C86.9802 39.1701 87.0302 39.17 87.0802 39.17H87.1202H87.2002C87.2402 39.17 87.2702 39.1701 87.3102 39.1601C87.6402 39.1201 87.9702 39.0701 88.3002 39.0301C89.0302 38.9301 89.7802 38.8301 90.5302 38.7801C90.9402 38.7501 91.3502 38.7101 91.7502 38.6601L92.0302 38.6301C92.3302 38.6001 92.5302 38.4801 92.6302 38.2801C92.7402 38.0701 92.5602 37.67 92.3902 37.5C92.1502 37.27 91.8702 37.27 91.6302 37.31H91.6102Z" fill="#74625F"/>
<path d="M80.2499 37.29C80.2499 37.29 80.1899 37.24 80.1499 37.21C80.1099 37.17 80.06 37.14 80.02 37.11C78.69 36.13 77.21 35.37 75.49 34.78C75.45 34.76 75.3999 34.75 75.3599 34.74L75.2999 34.72H75.2799C75.0699 34.72 74.9199 34.82 74.8299 34.99C74.7399 35.17 74.72 35.34 74.77 35.48C74.82 35.64 74.9599 35.76 75.1699 35.87C75.5999 36.07 76.0399 36.27 76.4699 36.46L77.99 37.14C78.6 37.41 79.2099 37.68 79.8099 37.96C79.8699 37.99 79.9699 38.03 80.0799 38.03C80.1899 38.03 80.2799 37.99 80.3599 37.85C80.4799 37.64 80.4399 37.43 80.2499 37.29Z" fill="#74625F"/>
<path d="M98.3402 26.3099C98.2702 26.2399 98.1802 26.17 98.0902 26.12C97.7402 25.93 97.3502 25.8299 96.8402 25.8099C96.8202 25.8099 96.8002 25.8099 96.7802 25.8099C96.7002 25.8099 96.5702 25.83 96.4502 25.86C95.8402 26.01 95.5002 26.46 95.2402 26.88C95.1302 27.06 95.1502 27.25 95.3002 27.36C95.3802 27.43 95.4802 27.46 95.5702 27.46C95.6202 27.46 95.6602 27.4599 95.7102 27.4299C95.9102 27.3599 95.9402 27.16 95.9602 27.03C96.0002 26.7 96.2202 26.57 96.5302 26.48C97.0802 26.32 97.5502 26.41 97.9902 26.76C98.0102 26.77 98.0202 26.7899 98.0402 26.7999C98.1102 26.8699 98.2002 26.9499 98.3202 26.9399C98.3902 26.9399 98.4502 26.9 98.5002 26.85C98.7002 26.63 98.5002 26.4299 98.3902 26.3199L98.3702 26.2999L98.3402 26.3099Z" fill="#74625F"/>
<path d="M73.9599 24.25C74.3899 24.29 74.6099 24.48 74.7199 24.9C74.7499 25.02 74.7999 25.1799 74.8899 25.3299C74.9599 25.4399 75.0399 25.5 75.1299 25.5C75.1499 25.5 75.1699 25.5 75.1999 25.5C75.4099 25.44 75.3899 25.2399 75.3899 25.1699C75.3199 24.2499 74.6799 23.6899 73.6799 23.6699C73.4799 23.6399 73.2499 23.69 72.9999 23.79C72.9099 23.83 72.6199 23.9599 72.7199 24.2299C72.7599 24.3399 72.8299 24.39 72.8799 24.41C72.9699 24.45 73.0899 24.43 73.2299 24.36C73.4299 24.26 73.6599 24.23 73.9799 24.26L73.9599 24.25Z" fill="#74625F"/>
<path d="M81.9799 45.76C81.8099 45.76 81.6499 45.8299 81.5399 45.9399C81.4599 46.0299 81.4199 46.13 81.4199 46.24C81.4299 46.49 81.6999 46.6699 82.0799 46.6799C82.4099 46.6799 82.6099 46.53 82.6299 46.27C82.6299 46.15 82.5899 46.04 82.5099 45.95C82.3899 45.82 82.1899 45.76 81.9799 45.76Z" fill="#74625F"/>
<path d="M74.2202 43.38C74.1502 43.34 74.0402 43.35 73.9802 43.4C73.7702 43.57 73.6402 43.81 73.5902 44.12C73.5702 44.24 73.6602 44.34 73.8002 44.37H73.8502L73.8802 44.36C73.9202 44.35 73.9802 44.33 74.0202 44.28C74.1402 44.09 74.2802 43.86 74.3402 43.61C74.3602 43.52 74.2902 43.41 74.2302 43.38H74.2202Z" fill="#74625F"/>
<path d="M74.7899 43.4799C74.5199 43.5399 74.4399 43.7599 74.3699 43.9399L74.3499 44.01C74.2999 44.13 74.3099 44.2399 74.3699 44.3299C74.3999 44.3699 74.4299 44.3999 74.4599 44.4199C74.4599 44.4199 74.4799 44.4299 74.4799 44.4399L74.5199 44.4699H74.5899C74.5899 44.4699 74.6299 44.4499 74.6399 44.4499C74.8199 44.3899 75.0699 43.8599 75.0399 43.6799C75.0299 43.6099 74.9899 43.55 74.9399 43.51C74.8999 43.48 74.8399 43.4699 74.7899 43.4799Z" fill="#74625F"/>
<path d="M50.9101 38.44C50.9101 38.44 50.8401 38.4201 50.8001 38.4101C49.7301 38.0301 48.9701 37.38 48.4901 36.43C47.9901 35.44 48.0701 34.42 48.2201 33.56C48.2201 33.53 48.2301 33.5 48.2401 33.47C48.2701 33.37 48.3101 33.25 48.2301 33.11C48.2001 33.06 48.1301 32.93 47.9801 32.96C47.9001 32.98 47.8401 33.05 47.8101 33.11C47.7601 33.21 47.73 33.3101 47.71 33.4001C47.39 34.8001 47.55 36 48.21 37.07C48.73 37.92 49.4902 38.52 50.5302 38.93C50.6002 38.96 50.7101 39 50.8401 39C50.9901 39 51.1501 38.94 51.2701 38.72L51.3001 38.6601L51.2501 38.61C51.1401 38.49 51.0101 38.46 50.9101 38.44Z" fill="#74625F"/>
<path d="M55.2503 36.9199C55.1803 36.9099 55.1103 36.9 55.0303 36.89C54.9403 36.88 54.8503 36.8699 54.7703 36.8499C53.5403 36.6599 52.6403 36.09 52.0203 35.11C52.0103 35.09 51.9903 35.06 51.9803 35.03C51.9403 34.94 51.8903 34.8299 51.7803 34.7999C51.7103 34.7799 51.6303 34.7999 51.5503 34.8499C51.3003 35.0099 51.4503 35.25 51.5303 35.38L51.5503 35.41C51.5803 35.47 51.6203 35.5199 51.6603 35.5799C52.4003 36.6399 53.4803 37.2399 55.0503 37.4599H55.0603C55.0603 37.4599 55.1003 37.4599 55.1103 37.4599C55.1303 37.4599 55.1403 37.4599 55.1603 37.4599C55.1803 37.4599 55.2103 37.4599 55.2303 37.4599H55.2503C55.3503 37.4399 55.5603 37.3999 55.5403 37.1699C55.5303 36.9699 55.3403 36.9399 55.2403 36.9299L55.2503 36.9199Z" fill="#74625F"/>
<path d="M45.9598 46.7999C45.6398 46.8599 45.2999 46.94 44.9199 47.02C44.7699 47.05 44.6798 47.1799 44.7098 47.3099C44.7498 47.5199 44.9699 47.53 45.0799 47.53H45.0999L45.3499 47.4699C45.5799 47.4199 45.8299 47.36 46.0899 47.29C46.1599 47.27 46.2199 47.2299 46.2499 47.1699C46.2799 47.1099 46.2899 47.0399 46.2699 46.9799C46.2299 46.8499 46.0998 46.7699 45.9598 46.7999Z" fill="#74625F"/>
<path d="M45.8798 47.4499C45.6698 47.5099 45.4598 47.58 45.2598 47.65L45.1898 47.6699C44.9998 47.7299 44.9298 47.84 44.9598 47.99C44.9998 48.19 45.2098 48.1999 45.3498 48.1999H45.3698H45.3898C45.4498 48.1799 45.5198 48.16 45.5898 48.14C45.7598 48.1 45.9598 48.05 46.1298 47.91C46.2398 47.82 46.2798 47.69 46.2198 47.58C46.1898 47.52 46.1098 47.4 45.8898 47.46L45.8798 47.4499Z" fill="#74625F"/>
<path d="M54.9703 44.8099C54.8303 44.8099 54.6903 44.89 54.5903 45C54.5203 45.09 54.4803 45.19 54.5003 45.28C54.5303 45.49 54.6803 45.62 54.8903 45.62C55.0303 45.62 55.1803 45.5499 55.2703 45.4399C55.3403 45.3499 55.3703 45.25 55.3503 45.15C55.2903 44.84 55.0803 44.8099 54.9603 44.8099H54.9703Z" fill="#74625F"/>
<path d="M47.1 41.54C46.9 41.53 46.75 41.5 46.6 41.41C46.23 41.17 46.09 41.2399 45.82 41.5699C45.66 41.7699 45.48 41.96 45.26 42.13C44.91 42.41 44.68 42.7 44.58 43C44.36 43.62 44.42 44.2199 44.75 44.6899C45.1 45.1999 45.6999 45.49 46.4599 45.51C46.6699 45.51 47.21 45.4799 47.73 45.2199C48.12 45.0199 48.52 44.7799 48.73 44.3199C49.02 43.6899 49 43.05 48.67 42.5C48.34 41.95 47.7199 41.57 47.0899 41.54H47.1ZM47.14 44.03L47.22 43.91L47.08 43.87C46.76 43.77 46.55 43.47 46.57 43.13C46.59 42.72 46.9299 42.4099 47.3399 42.4299C47.5299 42.4399 47.7099 42.5299 47.8399 42.6699C47.9699 42.8199 48.04 42.9999 48.03 43.1999C48.02 43.4299 47.8999 43.64 47.7099 43.77L47.5899 43.85L47.7 43.9399C47.8 44.0199 47.8499 44.14 47.8399 44.26C47.8399 44.36 47.7899 44.46 47.7099 44.53C47.6299 44.6 47.5299 44.64 47.4299 44.63C47.3299 44.63 47.23 44.58 47.16 44.5C47.09 44.42 47.0599 44.3199 47.0599 44.2199C47.0599 44.1499 47.09 44.08 47.13 44.02L47.14 44.03Z" fill="#74625F"/>
<path d="M59.6902 38.22C59.4802 38.18 59.3002 38.14 59.1602 37.97C59.0602 37.84 58.9602 37.75 58.8402 37.74C58.7202 37.74 58.6202 37.82 58.5002 37.95C58.2202 38.25 57.9202 38.5 57.6502 38.71C57.2502 39.02 57.0202 39.42 57.0002 39.87C56.9702 40.37 57.2002 40.9199 57.6002 41.3099C57.9902 41.6899 58.4102 41.88 58.9002 41.88C59.2302 41.88 59.5902 41.8 59.9902 41.63C60.7002 41.34 61.0802 40.77 61.0802 39.96C61.0502 38.99 60.5502 38.37 59.6902 38.22ZM59.1202 40.34L59.0102 40.4399L59.1402 40.52C59.2502 40.59 59.3202 40.6999 59.3302 40.8199C59.3402 40.9299 59.3102 41.03 59.2402 41.11C59.1702 41.19 59.0802 41.24 58.9702 41.25C58.8602 41.26 58.7602 41.23 58.6802 41.16C58.6002 41.09 58.5502 41 58.5402 40.89C58.5402 40.82 58.5402 40.7499 58.5802 40.6799L58.6502 40.54L58.5002 40.52C58.1602 40.47 57.9002 40.19 57.8702 39.85C57.8302 39.46 58.1002 39.11 58.4702 39.04C58.4902 39.04 58.5202 39.04 58.5402 39.03C58.9502 38.99 59.3202 39.29 59.3602 39.7C59.3802 39.93 59.3002 40.1599 59.1202 40.3199V40.34Z" fill="#74625F"/>
<path d="M78.0699 39.37C78.0699 39.37 77.9799 39.3399 77.9399 39.3199C77.7199 39.2399 77.5299 39.17 77.3999 38.97C77.3199 38.86 77.1999 38.7999 77.0699 38.8099C76.9399 38.8299 76.8399 38.9199 76.7999 39.0499C76.7399 39.2299 76.6199 39.29 76.4599 39.37L76.4199 39.39C75.9399 39.63 75.5899 40.0499 75.4399 40.5599C75.2899 41.0699 75.3599 41.6099 75.6399 42.0799C75.7799 42.3099 75.9499 42.4799 76.1699 42.5799C76.5599 42.7699 76.9199 42.86 77.2699 42.86C77.4799 42.86 77.6799 42.83 77.8899 42.76C78.3999 42.6 79.3399 42.04 79.2499 41.11C79.2499 40.3 78.8299 39.66 78.0699 39.37ZM78.0199 41.5899C78.0699 41.6599 78.0999 41.7499 78.0799 41.8399C78.0499 42.0299 77.8799 42.16 77.6899 42.13C77.4999 42.1 77.3699 41.93 77.3999 41.75C77.3999 41.7 77.4299 41.65 77.4599 41.6L77.5499 41.48L77.4199 41.4199C77.1199 41.2799 76.9399 40.97 76.9899 40.64C77.0499 40.23 77.4299 39.95 77.8399 40.01C78.2499 40.07 78.5299 40.45 78.4799 40.85C78.4499 41.1 78.2899 41.3099 78.0699 41.4199L77.9399 41.48L78.0299 41.6L78.0199 41.5899Z" fill="#74625F"/>
<path d="M90.1902 41.1C90.0302 40.99 89.8502 40.91 89.6802 40.83C89.4302 40.71 89.1902 40.6101 89.0002 40.4101C88.9302 40.3401 88.8402 40.3 88.7402 40.31C88.6202 40.31 88.5102 40.3901 88.4202 40.5001C88.3402 40.6101 88.2502 40.7201 88.1102 40.7801C87.4602 41.0601 87.0802 41.6201 87.0402 42.4101C86.9802 43.4101 87.2502 43.8901 88.1102 44.2901C88.4102 44.4301 88.7302 44.45 89.0402 44.46H89.1002C89.1002 44.46 89.1502 44.46 89.1802 44.46C90.0502 44.46 90.7602 43.92 90.9702 43.1C91.1602 42.34 90.8502 41.55 90.1802 41.09L90.1902 41.1ZM89.0902 43.19C89.1502 43.25 89.1902 43.34 89.1902 43.42C89.1902 43.6 89.0402 43.7501 88.8602 43.7501C88.6802 43.7501 88.5302 43.6 88.5302 43.42C88.5302 43.37 88.5402 43.3101 88.5702 43.2601L88.6402 43.1301L88.5002 43.09C88.1902 43 87.9702 42.7201 87.9702 42.3901C87.9702 41.9901 88.3002 41.6601 88.7002 41.6601C89.1002 41.6601 89.4302 41.9901 89.4302 42.3901C89.4302 42.6301 89.3102 42.8601 89.1102 43.0001L88.9902 43.08L89.0902 43.18V43.19Z" fill="#74625F"/>
<path d="M19.63 39.01C15.19 39.01 11.42 41.85 10.02 45.79C9.50002 45.69 8.96 45.63 8.41 45.63C4 45.63 0.38 49 0 53.29H38.44C37.59 49.54 34.23 46.74 30.21 46.74C29.98 46.74 29.75 46.76 29.53 46.77C28.45 42.32 24.44 39.01 19.63 39.01Z" fill="#C4BDB4"/>
<path d="M117.22 46.24C116.24 45.85 115.18 45.62 114.06 45.62C109.62 45.62 105.98 49.03 105.62 53.37H146.53C145.66 45.34 138.85 39.09 130.58 39.09C125.01 39.09 120.1 41.93 117.23 46.23L117.22 46.24Z" fill="#C4BDB4"/>
<path d="M73.4 58.3099C73.44 58.1199 73.46 57.92 73.46 57.72C73.46 56.02 72.07 54.63 70.37 54.63C69.92 54.63 69.5 54.73 69.12 54.9C68.33 53.5 66.83 52.5499 65.11 52.5499C63.39 52.5499 61.83 53.53 61.05 54.98C60.99 54.98 60.93 54.98 60.86 54.98C59.42 54.98 58.25 56.15 58.25 57.59C58.25 57.85 58.29 58.1 58.36 58.33H73.41L73.4 58.3099Z" fill="#C4BDB4"/>
<path fill-rule="evenodd" clip-rule="evenodd" d="M76.3301 9.41998H71.9801L70.1401 12.6L68.3001 9.41998H63.9501C63.0901 9.41998 62.3901 8.72 62.3901 7.87V1.54999C62.3901 0.689988 63.0901 0 63.9501 0H76.3301C77.1901 0 77.8901 0.699988 77.8901 1.54999V7.87C77.8901 8.72999 77.1901 9.41998 76.3301 9.41998ZM71.7001 2.13995C71.0601 2.13995 70.5001 2.44998 70.1401 2.91998C69.7801 2.44998 69.2201 2.13995 68.5801 2.13995C67.4901 2.13995 66.6001 3.03 66.6001 4.13C66.6001 4.68001 66.8201 5.17998 67.1801 5.53998C67.5401 5.89998 68.8401 6.94 70.1401 7.63C71.3201 6.91 72.7301 5.90999 73.0901 5.54999C73.4601 5.18999 73.6801 4.69 73.6801 4.13C73.6801 3.03 72.7901 2.13995 71.7001 2.13995Z" fill="#C4BDB4"/>
</g>
<defs>
<clipPath id="clip0_46_3501">
<rect width="147" height="59" fill="white"/>
</clipPath>
</defs>
</svg>
