<svg width="11" height="4" viewBox="0 0 11 4" fill="none" xmlns="http://www.w3.org/2000/svg">
<path d="M5.4502 0C6.72989 8.67948e-05 7.22941 0.609958 7.22949 1.50977C7.22949 2.4097 6.72999 3.03019 5.4502 3.03027C4.1702 3.03027 3.66992 2.42977 3.66992 1.50977C3.67001 0.609894 4.1703 0 5.4502 0ZM0.94043 1.17969H2.41016V0.0898438H3.34961C3.30961 1.05985 3.30961 2.03023 3.34961 2.99023H2.41016V1.90039H0.94043V2.99023H0C0.04 2.02023 0.04 1.04985 0 0.0898438H0.94043V1.17969ZM10.9902 0.919922C10.5704 0.909926 10.1704 0.900398 9.77051 0.900391V2.99023H8.77051V0.900391C8.37067 0.900391 7.97038 0.909926 7.56055 0.919922V0.0800781H10.9902V0.919922ZM5.4502 0.80957C4.84029 0.80957 4.62019 1.04991 4.62012 1.50977C4.62012 1.96977 4.8602 2.20996 5.4502 2.20996C6.04 2.20989 6.29004 1.97969 6.29004 1.50977C6.28996 1.04998 6.05989 0.809642 5.4502 0.80957Z" fill="#873838"/>
</svg>
