<svg width="55" height="20" viewBox="0 0 55 20" fill="none" xmlns="http://www.w3.org/2000/svg">
<path d="M17.625 2.592H18.025C18.0303 2.592 18.033 2.592 18.033 2.592C18.033 2.592 18.033 2.59467 18.033 2.6V3C18.033 3.00533 18.033 3.008 18.033 3.008C18.033 3.008 18.0303 3.008 18.025 3.008H17.625C17.6197 3.008 17.617 3.008 17.617 3.008C17.617 3.008 17.617 3.00533 17.617 3V2.6C17.617 2.59467 17.617 2.592 17.617 2.592C17.617 2.592 17.6197 2.592 17.625 2.592ZM18.425 2.592H18.825C18.8303 2.592 18.833 2.592 18.833 2.592C18.833 2.592 18.833 2.59467 18.833 2.6V3C18.833 3.00533 18.833 3.008 18.833 3.008C18.833 3.008 18.8303 3.008 18.825 3.008H18.425C18.4197 3.008 18.417 3.008 18.417 3.008C18.417 3.008 18.417 3.00533 18.417 3V2.6C18.417 2.59467 18.417 2.592 18.417 2.592C18.417 2.592 18.4197 2.592 18.425 2.592ZM19.225 2.592H19.625C19.6303 2.592 19.633 2.592 19.633 2.592C19.633 2.592 19.633 2.59467 19.633 2.6V3C19.633 3.00533 19.633 3.008 19.633 3.008C19.633 3.008 19.6303 3.008 19.625 3.008H19.225C19.2197 3.008 19.217 3.008 19.217 3.008C19.217 3.008 19.217 3.00533 19.217 3V2.6C19.217 2.59467 19.217 2.592 19.217 2.592C19.217 2.592 19.2197 2.592 19.225 2.592ZM16.825 3.392H17.225C17.2303 3.392 17.233 3.392 17.233 3.392C17.233 3.392 17.233 3.39467 17.233 3.4V3.8C17.233 3.80533 17.233 3.808 17.233 3.808C17.233 3.808 17.2303 3.808 17.225 3.808H16.825C16.8197 3.808 16.817 3.808 16.817 3.808C16.817 3.808 16.817 3.80533 16.817 3.8V3.4C16.817 3.39467 16.817 3.392 16.817 3.392C16.817 3.392 16.8197 3.392 16.825 3.392ZM20.025 3.392H20.425C20.4303 3.392 20.433 3.392 20.433 3.392C20.433 3.392 20.433 3.39467 20.433 3.4V3.8C20.433 3.80533 20.433 3.808 20.433 3.808C20.433 3.808 20.4303 3.808 20.425 3.808H20.025C20.0197 3.808 20.017 3.808 20.017 3.808C20.017 3.808 20.017 3.80533 20.017 3.8V3.4C20.017 3.39467 20.017 3.392 20.017 3.392C20.017 3.392 20.0197 3.392 20.025 3.392ZM16.825 4.192H17.225C17.2303 4.192 17.233 4.192 17.233 4.192C17.233 4.192 17.233 4.19467 17.233 4.2V4.6C17.233 4.60533 17.233 4.608 17.233 4.608C17.233 4.608 17.2303 4.608 17.225 4.608H16.825C16.8197 4.608 16.817 4.608 16.817 4.608C16.817 4.608 16.817 4.60533 16.817 4.6V4.2C16.817 4.19467 16.817 4.192 16.817 4.192C16.817 4.192 16.8197 4.192 16.825 4.192ZM16.825 4.992H17.225C17.2303 4.992 17.233 4.992 17.233 4.992C17.233 4.992 17.233 4.99467 17.233 5V5.4C17.233 5.40533 17.233 5.408 17.233 5.408C17.233 5.408 17.2303 5.408 17.225 5.408H16.825C16.8197 5.408 16.817 5.408 16.817 5.408C16.817 5.408 16.817 5.40533 16.817 5.4V5C16.817 4.99467 16.817 4.992 16.817 4.992C16.817 4.992 16.8197 4.992 16.825 4.992ZM16.825 5.792H17.225C17.2303 5.792 17.233 5.792 17.233 5.792C17.233 5.792 17.233 5.79467 17.233 5.8V6.2C17.233 6.20533 17.233 6.208 17.233 6.208C17.233 6.208 17.2303 6.208 17.225 6.208H16.825C16.8197 6.208 16.817 6.208 16.817 6.208C16.817 6.208 16.817 6.20533 16.817 6.2V5.8C16.817 5.79467 16.817 5.792 16.817 5.792C16.817 5.792 16.8197 5.792 16.825 5.792ZM19.225 5.792H19.625C19.6303 5.792 19.633 5.792 19.633 5.792C19.633 5.792 19.633 5.79467 19.633 5.8V6.2C19.633 6.20533 19.633 6.208 19.633 6.208C19.633 6.208 19.6303 6.208 19.625 6.208H19.225C19.2197 6.208 19.217 6.208 19.217 6.208C19.217 6.208 19.217 6.20533 19.217 6.2V5.8C19.217 5.79467 19.217 5.792 19.217 5.792C19.217 5.792 19.2197 5.792 19.225 5.792ZM20.025 5.792H20.425C20.4303 5.792 20.433 5.792 20.433 5.792C20.433 5.792 20.433 5.79467 20.433 5.8V6.2C20.433 6.20533 20.433 6.208 20.433 6.208C20.433 6.208 20.4303 6.208 20.425 6.208H20.025C20.0197 6.208 20.017 6.208 20.017 6.208C20.017 6.208 20.017 6.20533 20.017 6.2V5.8C20.017 5.79467 20.017 5.792 20.017 5.792C20.017 5.792 20.0197 5.792 20.025 5.792ZM16.825 6.592H17.225C17.2303 6.592 17.233 6.592 17.233 6.592C17.233 6.592 17.233 6.59467 17.233 6.6V7C17.233 7.00533 17.233 7.008 17.233 7.008C17.233 7.008 17.2303 7.008 17.225 7.008H16.825C16.8197 7.008 16.817 7.008 16.817 7.008C16.817 7.008 16.817 7.00533 16.817 7V6.6C16.817 6.59467 16.817 6.592 16.817 6.592C16.817 6.592 16.8197 6.592 16.825 6.592ZM20.025 6.592H20.425C20.4303 6.592 20.433 6.592 20.433 6.592C20.433 6.592 20.433 6.59467 20.433 6.6V7C20.433 7.00533 20.433 7.008 20.433 7.008C20.433 7.008 20.4303 7.008 20.425 7.008H20.025C20.0197 7.008 20.017 7.008 20.017 7.008C20.017 7.008 20.017 7.00533 20.017 7V6.6C20.017 6.59467 20.017 6.592 20.017 6.592C20.017 6.592 20.0197 6.592 20.025 6.592ZM17.625 7.392H18.025C18.0303 7.392 18.033 7.392 18.033 7.392C18.033 7.392 18.033 7.39467 18.033 7.4V7.8C18.033 7.80533 18.033 7.808 18.033 7.808C18.033 7.808 18.0303 7.808 18.025 7.808H17.625C17.6197 7.808 17.617 7.808 17.617 7.808C17.617 7.808 17.617 7.80533 17.617 7.8V7.4C17.617 7.39467 17.617 7.392 17.617 7.392C17.617 7.392 17.6197 7.392 17.625 7.392ZM18.425 7.392H18.825C18.8303 7.392 18.833 7.392 18.833 7.392C18.833 7.392 18.833 7.39467 18.833 7.4V7.8C18.833 7.80533 18.833 7.808 18.833 7.808C18.833 7.808 18.8303 7.808 18.825 7.808H18.425C18.4197 7.808 18.417 7.808 18.417 7.808C18.417 7.808 18.417 7.80533 18.417 7.8V7.4C18.417 7.39467 18.417 7.392 18.417 7.392C18.417 7.392 18.4197 7.392 18.425 7.392ZM19.225 7.392H19.625C19.6303 7.392 19.633 7.392 19.633 7.392C19.633 7.392 19.633 7.39467 19.633 7.4V7.8C19.633 7.80533 19.633 7.808 19.633 7.808C19.633 7.808 19.6303 7.808 19.625 7.808H19.225C19.2197 7.808 19.217 7.808 19.217 7.808C19.217 7.808 19.217 7.80533 19.217 7.8V7.4C19.217 7.39467 19.217 7.392 19.217 7.392C19.217 7.392 19.2197 7.392 19.225 7.392ZM21.6219 2.592H22.0219C22.0272 2.592 22.0299 2.592 22.0299 2.592C22.0299 2.592 22.0299 2.59467 22.0299 2.6V3C22.0299 3.00533 22.0299 3.008 22.0299 3.008C22.0299 3.008 22.0272 3.008 22.0219 3.008H21.6219C21.6165 3.008 21.6139 3.008 21.6139 3.008C21.6139 3.008 21.6139 3.00533 21.6139 3V2.6C21.6139 2.59467 21.6139 2.592 21.6139 2.592C21.6139 2.592 21.6165 2.592 21.6219 2.592ZM24.8219 2.592H25.2219C25.2272 2.592 25.2299 2.592 25.2299 2.592C25.2299 2.592 25.2299 2.59467 25.2299 2.6V3C25.2299 3.00533 25.2299 3.008 25.2299 3.008C25.2299 3.008 25.2272 3.008 25.2219 3.008H24.8219C24.8165 3.008 24.8139 3.008 24.8139 3.008C24.8139 3.008 24.8139 3.00533 24.8139 3V2.6C24.8139 2.59467 24.8139 2.592 24.8139 2.592C24.8139 2.592 24.8165 2.592 24.8219 2.592ZM21.6219 3.392H22.0219C22.0272 3.392 22.0299 3.392 22.0299 3.392C22.0299 3.392 22.0299 3.39467 22.0299 3.4V3.8C22.0299 3.80533 22.0299 3.808 22.0299 3.808C22.0299 3.808 22.0272 3.808 22.0219 3.808H21.6219C21.6165 3.808 21.6139 3.808 21.6139 3.808C21.6139 3.808 21.6139 3.80533 21.6139 3.8V3.4C21.6139 3.39467 21.6139 3.392 21.6139 3.392C21.6139 3.392 21.6165 3.392 21.6219 3.392ZM24.8219 3.392H25.2219C25.2272 3.392 25.2299 3.392 25.2299 3.392C25.2299 3.392 25.2299 3.39467 25.2299 3.4V3.8C25.2299 3.80533 25.2299 3.808 25.2299 3.808C25.2299 3.808 25.2272 3.808 25.2219 3.808H24.8219C24.8165 3.808 24.8139 3.808 24.8139 3.808C24.8139 3.808 24.8139 3.80533 24.8139 3.8V3.4C24.8139 3.39467 24.8139 3.392 24.8139 3.392C24.8139 3.392 24.8165 3.392 24.8219 3.392ZM21.6219 4.192H22.0219C22.0272 4.192 22.0299 4.192 22.0299 4.192C22.0299 4.192 22.0299 4.19467 22.0299 4.2V4.6C22.0299 4.60533 22.0299 4.608 22.0299 4.608C22.0299 4.608 22.0272 4.608 22.0219 4.608H21.6219C21.6165 4.608 21.6139 4.608 21.6139 4.608C21.6139 4.608 21.6139 4.60533 21.6139 4.6V4.2C21.6139 4.19467 21.6139 4.192 21.6139 4.192C21.6139 4.192 21.6165 4.192 21.6219 4.192ZM24.8219 4.192H25.2219C25.2272 4.192 25.2299 4.192 25.2299 4.192C25.2299 4.192 25.2299 4.19467 25.2299 4.2V4.6C25.2299 4.60533 25.2299 4.608 25.2299 4.608C25.2299 4.608 25.2272 4.608 25.2219 4.608H24.8219C24.8165 4.608 24.8139 4.608 24.8139 4.608C24.8139 4.608 24.8139 4.60533 24.8139 4.6V4.2C24.8139 4.19467 24.8139 4.192 24.8139 4.192C24.8139 4.192 24.8165 4.192 24.8219 4.192ZM21.6219 4.992H22.0219C22.0272 4.992 22.0299 4.992 22.0299 4.992C22.0299 4.992 22.0299 4.99467 22.0299 5V5.4C22.0299 5.40533 22.0299 5.408 22.0299 5.408C22.0299 5.408 22.0272 5.408 22.0219 5.408H21.6219C21.6165 5.408 21.6139 5.408 21.6139 5.408C21.6139 5.408 21.6139 5.40533 21.6139 5.4V5C21.6139 4.99467 21.6139 4.992 21.6139 4.992C21.6139 4.992 21.6165 4.992 21.6219 4.992ZM24.8219 4.992H25.2219C25.2272 4.992 25.2299 4.992 25.2299 4.992C25.2299 4.992 25.2299 4.99467 25.2299 5V5.4C25.2299 5.40533 25.2299 5.408 25.2299 5.408C25.2299 5.408 25.2272 5.408 25.2219 5.408H24.8219C24.8165 5.408 24.8139 5.408 24.8139 5.408C24.8139 5.408 24.8139 5.40533 24.8139 5.4V5C24.8139 4.99467 24.8139 4.992 24.8139 4.992C24.8139 4.992 24.8165 4.992 24.8219 4.992ZM21.6219 5.792H22.0219C22.0272 5.792 22.0299 5.792 22.0299 5.792C22.0299 5.792 22.0299 5.79467 22.0299 5.8V6.2C22.0299 6.20533 22.0299 6.208 22.0299 6.208C22.0299 6.208 22.0272 6.208 22.0219 6.208H21.6219C21.6165 6.208 21.6139 6.208 21.6139 6.208C21.6139 6.208 21.6139 6.20533 21.6139 6.2V5.8C21.6139 5.79467 21.6139 5.792 21.6139 5.792C21.6139 5.792 21.6165 5.792 21.6219 5.792ZM24.8219 5.792H25.2219C25.2272 5.792 25.2299 5.792 25.2299 5.792C25.2299 5.792 25.2299 5.79467 25.2299 5.8V6.2C25.2299 6.20533 25.2299 6.208 25.2299 6.208C25.2299 6.208 25.2272 6.208 25.2219 6.208H24.8219C24.8165 6.208 24.8139 6.208 24.8139 6.208C24.8139 6.208 24.8139 6.20533 24.8139 6.2V5.8C24.8139 5.79467 24.8139 5.792 24.8139 5.792C24.8139 5.792 24.8165 5.792 24.8219 5.792ZM21.6219 6.592H22.0219C22.0272 6.592 22.0299 6.592 22.0299 6.592C22.0299 6.592 22.0299 6.59467 22.0299 6.6V7C22.0299 7.00533 22.0299 7.008 22.0299 7.008C22.0299 7.008 22.0272 7.008 22.0219 7.008H21.6219C21.6165 7.008 21.6139 7.008 21.6139 7.008C21.6139 7.008 21.6139 7.00533 21.6139 7V6.6C21.6139 6.59467 21.6139 6.592 21.6139 6.592C21.6139 6.592 21.6165 6.592 21.6219 6.592ZM24.8219 6.592H25.2219C25.2272 6.592 25.2299 6.592 25.2299 6.592C25.2299 6.592 25.2299 6.59467 25.2299 6.6V7C25.2299 7.00533 25.2299 7.008 25.2299 7.008C25.2299 7.008 25.2272 7.008 25.2219 7.008H24.8219C24.8165 7.008 24.8139 7.008 24.8139 7.008C24.8139 7.008 24.8139 7.00533 24.8139 7V6.6C24.8139 6.59467 24.8139 6.592 24.8139 6.592C24.8139 6.592 24.8165 6.592 24.8219 6.592ZM22.4219 7.392H22.8219C22.8272 7.392 22.8299 7.392 22.8299 7.392C22.8299 7.392 22.8299 7.39467 22.8299 7.4V7.8C22.8299 7.80533 22.8299 7.808 22.8299 7.808C22.8299 7.808 22.8272 7.808 22.8219 7.808H22.4219C22.4165 7.808 22.4139 7.808 22.4139 7.808C22.4139 7.808 22.4139 7.80533 22.4139 7.8V7.4C22.4139 7.39467 22.4139 7.392 22.4139 7.392C22.4139 7.392 22.4165 7.392 22.4219 7.392ZM23.2219 7.392H23.6219C23.6272 7.392 23.6299 7.392 23.6299 7.392C23.6299 7.392 23.6299 7.39467 23.6299 7.4V7.8C23.6299 7.80533 23.6299 7.808 23.6299 7.808C23.6299 7.808 23.6272 7.808 23.6219 7.808H23.2219C23.2165 7.808 23.2139 7.808 23.2139 7.808C23.2139 7.808 23.2139 7.80533 23.2139 7.8V7.4C23.2139 7.39467 23.2139 7.392 23.2139 7.392C23.2139 7.392 23.2165 7.392 23.2219 7.392ZM24.0219 7.392H24.4219C24.4272 7.392 24.4299 7.392 24.4299 7.392C24.4299 7.392 24.4299 7.39467 24.4299 7.4V7.8C24.4299 7.80533 24.4299 7.808 24.4299 7.808C24.4299 7.808 24.4272 7.808 24.4219 7.808H24.0219C24.0165 7.808 24.0139 7.808 24.0139 7.808C24.0139 7.808 24.0139 7.80533 24.0139 7.8V7.4C24.0139 7.39467 24.0139 7.392 24.0139 7.392C24.0139 7.392 24.0165 7.392 24.0219 7.392ZM31.2156 2.592H31.6156C31.621 2.592 31.6236 2.592 31.6236 2.592C31.6236 2.592 31.6236 2.59467 31.6236 2.6V3C31.6236 3.00533 31.6236 3.008 31.6236 3.008C31.6236 3.008 31.621 3.008 31.6156 3.008H31.2156C31.2103 3.008 31.2076 3.008 31.2076 3.008C31.2076 3.008 31.2076 3.00533 31.2076 3V2.6C31.2076 2.59467 31.2076 2.592 31.2076 2.592C31.2076 2.592 31.2103 2.592 31.2156 2.592ZM32.0156 2.592H32.4156C32.421 2.592 32.4236 2.592 32.4236 2.592C32.4236 2.592 32.4236 2.59467 32.4236 2.6V3C32.4236 3.00533 32.4236 3.008 32.4236 3.008C32.4236 3.008 32.421 3.008 32.4156 3.008H32.0156C32.0103 3.008 32.0076 3.008 32.0076 3.008C32.0076 3.008 32.0076 3.00533 32.0076 3V2.6C32.0076 2.59467 32.0076 2.592 32.0076 2.592C32.0076 2.592 32.0103 2.592 32.0156 2.592ZM32.8156 2.592H33.2156C33.221 2.592 33.2236 2.592 33.2236 2.592C33.2236 2.592 33.2236 2.59467 33.2236 2.6V3C33.2236 3.00533 33.2236 3.008 33.2236 3.008C33.2236 3.008 33.221 3.008 33.2156 3.008H32.8156C32.8103 3.008 32.8076 3.008 32.8076 3.008C32.8076 3.008 32.8076 3.00533 32.8076 3V2.6C32.8076 2.59467 32.8076 2.592 32.8076 2.592C32.8076 2.592 32.8103 2.592 32.8156 2.592ZM33.6156 2.592H34.0156C34.021 2.592 34.0236 2.592 34.0236 2.592C34.0236 2.592 34.0236 2.59467 34.0236 2.6V3C34.0236 3.00533 34.0236 3.008 34.0236 3.008C34.0236 3.008 34.021 3.008 34.0156 3.008H33.6156C33.6103 3.008 33.6076 3.008 33.6076 3.008C33.6076 3.008 33.6076 3.00533 33.6076 3V2.6C33.6076 2.59467 33.6076 2.592 33.6076 2.592C33.6076 2.592 33.6103 2.592 33.6156 2.592ZM34.4156 2.592H34.8156C34.821 2.592 34.8236 2.592 34.8236 2.592C34.8236 2.592 34.8236 2.59467 34.8236 2.6V3C34.8236 3.00533 34.8236 3.008 34.8236 3.008C34.8236 3.008 34.821 3.008 34.8156 3.008H34.4156C34.4103 3.008 34.4076 3.008 34.4076 3.008C34.4076 3.008 34.4076 3.00533 34.4076 3V2.6C34.4076 2.59467 34.4076 2.592 34.4076 2.592C34.4076 2.592 34.4103 2.592 34.4156 2.592ZM31.2156 3.392H31.6156C31.621 3.392 31.6236 3.392 31.6236 3.392C31.6236 3.392 31.6236 3.39467 31.6236 3.4V3.8C31.6236 3.80533 31.6236 3.808 31.6236 3.808C31.6236 3.808 31.621 3.808 31.6156 3.808H31.2156C31.2103 3.808 31.2076 3.808 31.2076 3.808C31.2076 3.808 31.2076 3.80533 31.2076 3.8V3.4C31.2076 3.39467 31.2076 3.392 31.2076 3.392C31.2076 3.392 31.2103 3.392 31.2156 3.392ZM31.2156 4.192H31.6156C31.621 4.192 31.6236 4.192 31.6236 4.192C31.6236 4.192 31.6236 4.19467 31.6236 4.2V4.6C31.6236 4.60533 31.6236 4.608 31.6236 4.608C31.6236 4.608 31.621 4.608 31.6156 4.608H31.2156C31.2103 4.608 31.2076 4.608 31.2076 4.608C31.2076 4.608 31.2076 4.60533 31.2076 4.6V4.2C31.2076 4.19467 31.2076 4.192 31.2076 4.192C31.2076 4.192 31.2103 4.192 31.2156 4.192ZM31.2156 4.992H31.6156C31.621 4.992 31.6236 4.992 31.6236 4.992C31.6236 4.992 31.6236 4.99467 31.6236 5V5.4C31.6236 5.40533 31.6236 5.408 31.6236 5.408C31.6236 5.408 31.621 5.408 31.6156 5.408H31.2156C31.2103 5.408 31.2076 5.408 31.2076 5.408C31.2076 5.408 31.2076 5.40533 31.2076 5.4V5C31.2076 4.99467 31.2076 4.992 31.2076 4.992C31.2076 4.992 31.2103 4.992 31.2156 4.992ZM32.0156 4.992H32.4156C32.421 4.992 32.4236 4.992 32.4236 4.992C32.4236 4.992 32.4236 4.99467 32.4236 5V5.4C32.4236 5.40533 32.4236 5.408 32.4236 5.408C32.4236 5.408 32.421 5.408 32.4156 5.408H32.0156C32.0103 5.408 32.0076 5.408 32.0076 5.408C32.0076 5.408 32.0076 5.40533 32.0076 5.4V5C32.0076 4.99467 32.0076 4.992 32.0076 4.992C32.0076 4.992 32.0103 4.992 32.0156 4.992ZM32.8156 4.992H33.2156C33.221 4.992 33.2236 4.992 33.2236 4.992C33.2236 4.992 33.2236 4.99467 33.2236 5V5.4C33.2236 5.40533 33.2236 5.408 33.2236 5.408C33.2236 5.408 33.221 5.408 33.2156 5.408H32.8156C32.8103 5.408 32.8076 5.408 32.8076 5.408C32.8076 5.408 32.8076 5.40533 32.8076 5.4V5C32.8076 4.99467 32.8076 4.992 32.8076 4.992C32.8076 4.992 32.8103 4.992 32.8156 4.992ZM33.6156 4.992H34.0156C34.021 4.992 34.0236 4.992 34.0236 4.992C34.0236 4.992 34.0236 4.99467 34.0236 5V5.4C34.0236 5.40533 34.0236 5.408 34.0236 5.408C34.0236 5.408 34.021 5.408 34.0156 5.408H33.6156C33.6103 5.408 33.6076 5.408 33.6076 5.408C33.6076 5.408 33.6076 5.40533 33.6076 5.4V5C33.6076 4.99467 33.6076 4.992 33.6076 4.992C33.6076 4.992 33.6103 4.992 33.6156 4.992ZM31.2156 5.792H31.6156C31.621 5.792 31.6236 5.792 31.6236 5.792C31.6236 5.792 31.6236 5.79467 31.6236 5.8V6.2C31.6236 6.20533 31.6236 6.208 31.6236 6.208C31.6236 6.208 31.621 6.208 31.6156 6.208H31.2156C31.2103 6.208 31.2076 6.208 31.2076 6.208C31.2076 6.208 31.2076 6.20533 31.2076 6.2V5.8C31.2076 5.79467 31.2076 5.792 31.2076 5.792C31.2076 5.792 31.2103 5.792 31.2156 5.792ZM31.2156 6.592H31.6156C31.621 6.592 31.6236 6.592 31.6236 6.592C31.6236 6.592 31.6236 6.59467 31.6236 6.6V7C31.6236 7.00533 31.6236 7.008 31.6236 7.008C31.6236 7.008 31.621 7.008 31.6156 7.008H31.2156C31.2103 7.008 31.2076 7.008 31.2076 7.008C31.2076 7.008 31.2076 7.00533 31.2076 7V6.6C31.2076 6.59467 31.2076 6.592 31.2076 6.592C31.2076 6.592 31.2103 6.592 31.2156 6.592ZM31.2156 7.392H31.6156C31.621 7.392 31.6236 7.392 31.6236 7.392C31.6236 7.392 31.6236 7.39467 31.6236 7.4V7.8C31.6236 7.80533 31.6236 7.808 31.6236 7.808C31.6236 7.808 31.621 7.808 31.6156 7.808H31.2156C31.2103 7.808 31.2076 7.808 31.2076 7.808C31.2076 7.808 31.2076 7.80533 31.2076 7.8V7.4C31.2076 7.39467 31.2076 7.392 31.2076 7.392C31.2076 7.392 31.2103 7.392 31.2156 7.392ZM36.0125 2.592H36.4125C36.4178 2.592 36.4205 2.592 36.4205 2.592C36.4205 2.592 36.4205 2.59467 36.4205 2.6V3C36.4205 3.00533 36.4205 3.008 36.4205 3.008C36.4205 3.008 36.4178 3.008 36.4125 3.008H36.0125C36.0072 3.008 36.0045 3.008 36.0045 3.008C36.0045 3.008 36.0045 3.00533 36.0045 3V2.6C36.0045 2.59467 36.0045 2.592 36.0045 2.592C36.0045 2.592 36.0072 2.592 36.0125 2.592ZM36.8125 2.592H37.2125C37.2178 2.592 37.2205 2.592 37.2205 2.592C37.2205 2.592 37.2205 2.59467 37.2205 2.6V3C37.2205 3.00533 37.2205 3.008 37.2205 3.008C37.2205 3.008 37.2178 3.008 37.2125 3.008H36.8125C36.8072 3.008 36.8045 3.008 36.8045 3.008C36.8045 3.008 36.8045 3.00533 36.8045 3V2.6C36.8045 2.59467 36.8045 2.592 36.8045 2.592C36.8045 2.592 36.8072 2.592 36.8125 2.592ZM37.6125 2.592H38.0125C38.0178 2.592 38.0205 2.592 38.0205 2.592C38.0205 2.592 38.0205 2.59467 38.0205 2.6V3C38.0205 3.00533 38.0205 3.008 38.0205 3.008C38.0205 3.008 38.0178 3.008 38.0125 3.008H37.6125C37.6072 3.008 37.6045 3.008 37.6045 3.008C37.6045 3.008 37.6045 3.00533 37.6045 3V2.6C37.6045 2.59467 37.6045 2.592 37.6045 2.592C37.6045 2.592 37.6072 2.592 37.6125 2.592ZM38.4125 2.592H38.8125C38.8178 2.592 38.8205 2.592 38.8205 2.592C38.8205 2.592 38.8205 2.59467 38.8205 2.6V3C38.8205 3.00533 38.8205 3.008 38.8205 3.008C38.8205 3.008 38.8178 3.008 38.8125 3.008H38.4125C38.4072 3.008 38.4045 3.008 38.4045 3.008C38.4045 3.008 38.4045 3.00533 38.4045 3V2.6C38.4045 2.59467 38.4045 2.592 38.4045 2.592C38.4045 2.592 38.4072 2.592 38.4125 2.592ZM39.2125 2.592H39.6125C39.6178 2.592 39.6205 2.592 39.6205 2.592C39.6205 2.592 39.6205 2.59467 39.6205 2.6V3C39.6205 3.00533 39.6205 3.008 39.6205 3.008C39.6205 3.008 39.6178 3.008 39.6125 3.008H39.2125C39.2072 3.008 39.2045 3.008 39.2045 3.008C39.2045 3.008 39.2045 3.00533 39.2045 3V2.6C39.2045 2.59467 39.2045 2.592 39.2045 2.592C39.2045 2.592 39.2072 2.592 39.2125 2.592ZM36.0125 3.392H36.4125C36.4178 3.392 36.4205 3.392 36.4205 3.392C36.4205 3.392 36.4205 3.39467 36.4205 3.4V3.8C36.4205 3.80533 36.4205 3.808 36.4205 3.808C36.4205 3.808 36.4178 3.808 36.4125 3.808H36.0125C36.0072 3.808 36.0045 3.808 36.0045 3.808C36.0045 3.808 36.0045 3.80533 36.0045 3.8V3.4C36.0045 3.39467 36.0045 3.392 36.0045 3.392C36.0045 3.392 36.0072 3.392 36.0125 3.392ZM36.0125 4.192H36.4125C36.4178 4.192 36.4205 4.192 36.4205 4.192C36.4205 4.192 36.4205 4.19467 36.4205 4.2V4.6C36.4205 4.60533 36.4205 4.608 36.4205 4.608C36.4205 4.608 36.4178 4.608 36.4125 4.608H36.0125C36.0072 4.608 36.0045 4.608 36.0045 4.608C36.0045 4.608 36.0045 4.60533 36.0045 4.6V4.2C36.0045 4.19467 36.0045 4.192 36.0045 4.192C36.0045 4.192 36.0072 4.192 36.0125 4.192ZM36.0125 4.992H36.4125C36.4178 4.992 36.4205 4.992 36.4205 4.992C36.4205 4.992 36.4205 4.99467 36.4205 5V5.4C36.4205 5.40533 36.4205 5.408 36.4205 5.408C36.4205 5.408 36.4178 5.408 36.4125 5.408H36.0125C36.0072 5.408 36.0045 5.408 36.0045 5.408C36.0045 5.408 36.0045 5.40533 36.0045 5.4V5C36.0045 4.99467 36.0045 4.992 36.0045 4.992C36.0045 4.992 36.0072 4.992 36.0125 4.992ZM36.8125 4.992H37.2125C37.2178 4.992 37.2205 4.992 37.2205 4.992C37.2205 4.992 37.2205 4.99467 37.2205 5V5.4C37.2205 5.40533 37.2205 5.408 37.2205 5.408C37.2205 5.408 37.2178 5.408 37.2125 5.408H36.8125C36.8072 5.408 36.8045 5.408 36.8045 5.408C36.8045 5.408 36.8045 5.40533 36.8045 5.4V5C36.8045 4.99467 36.8045 4.992 36.8045 4.992C36.8045 4.992 36.8072 4.992 36.8125 4.992ZM37.6125 4.992H38.0125C38.0178 4.992 38.0205 4.992 38.0205 4.992C38.0205 4.992 38.0205 4.99467 38.0205 5V5.4C38.0205 5.40533 38.0205 5.408 38.0205 5.408C38.0205 5.408 38.0178 5.408 38.0125 5.408H37.6125C37.6072 5.408 37.6045 5.408 37.6045 5.408C37.6045 5.408 37.6045 5.40533 37.6045 5.4V5C37.6045 4.99467 37.6045 4.992 37.6045 4.992C37.6045 4.992 37.6072 4.992 37.6125 4.992ZM38.4125 4.992H38.8125C38.8178 4.992 38.8205 4.992 38.8205 4.992C38.8205 4.992 38.8205 4.99467 38.8205 5V5.4C38.8205 5.40533 38.8205 5.408 38.8205 5.408C38.8205 5.408 38.8178 5.408 38.8125 5.408H38.4125C38.4072 5.408 38.4045 5.408 38.4045 5.408C38.4045 5.408 38.4045 5.40533 38.4045 5.4V5C38.4045 4.99467 38.4045 4.992 38.4045 4.992C38.4045 4.992 38.4072 4.992 38.4125 4.992ZM36.0125 5.792H36.4125C36.4178 5.792 36.4205 5.792 36.4205 5.792C36.4205 5.792 36.4205 5.79467 36.4205 5.8V6.2C36.4205 6.20533 36.4205 6.208 36.4205 6.208C36.4205 6.208 36.4178 6.208 36.4125 6.208H36.0125C36.0072 6.208 36.0045 6.208 36.0045 6.208C36.0045 6.208 36.0045 6.20533 36.0045 6.2V5.8C36.0045 5.79467 36.0045 5.792 36.0045 5.792C36.0045 5.792 36.0072 5.792 36.0125 5.792ZM36.0125 6.592H36.4125C36.4178 6.592 36.4205 6.592 36.4205 6.592C36.4205 6.592 36.4205 6.59467 36.4205 6.6V7C36.4205 7.00533 36.4205 7.008 36.4205 7.008C36.4205 7.008 36.4178 7.008 36.4125 7.008H36.0125C36.0072 7.008 36.0045 7.008 36.0045 7.008C36.0045 7.008 36.0045 7.00533 36.0045 7V6.6C36.0045 6.59467 36.0045 6.592 36.0045 6.592C36.0045 6.592 36.0072 6.592 36.0125 6.592ZM36.0125 7.392H36.4125C36.4178 7.392 36.4205 7.392 36.4205 7.392C36.4205 7.392 36.4205 7.39467 36.4205 7.4V7.8C36.4205 7.80533 36.4205 7.808 36.4205 7.808C36.4205 7.808 36.4178 7.808 36.4125 7.808H36.0125C36.0072 7.808 36.0045 7.808 36.0045 7.808C36.0045 7.808 36.0045 7.80533 36.0045 7.8V7.4C36.0045 7.39467 36.0045 7.392 36.0045 7.392C36.0045 7.392 36.0072 7.392 36.0125 7.392ZM36.8125 7.392H37.2125C37.2178 7.392 37.2205 7.392 37.2205 7.392C37.2205 7.392 37.2205 7.39467 37.2205 7.4V7.8C37.2205 7.80533 37.2205 7.808 37.2205 7.808C37.2205 7.808 37.2178 7.808 37.2125 7.808H36.8125C36.8072 7.808 36.8045 7.808 36.8045 7.808C36.8045 7.808 36.8045 7.80533 36.8045 7.8V7.4C36.8045 7.39467 36.8045 7.392 36.8045 7.392C36.8045 7.392 36.8072 7.392 36.8125 7.392ZM37.6125 7.392H38.0125C38.0178 7.392 38.0205 7.392 38.0205 7.392C38.0205 7.392 38.0205 7.39467 38.0205 7.4V7.8C38.0205 7.80533 38.0205 7.808 38.0205 7.808C38.0205 7.808 38.0178 7.808 38.0125 7.808H37.6125C37.6072 7.808 37.6045 7.808 37.6045 7.808C37.6045 7.808 37.6045 7.80533 37.6045 7.8V7.4C37.6045 7.39467 37.6045 7.392 37.6045 7.392C37.6045 7.392 37.6072 7.392 37.6125 7.392ZM38.4125 7.392H38.8125C38.8178 7.392 38.8205 7.392 38.8205 7.392C38.8205 7.392 38.8205 7.39467 38.8205 7.4V7.8C38.8205 7.80533 38.8205 7.808 38.8205 7.808C38.8205 7.808 38.8178 7.808 38.8125 7.808H38.4125C38.4072 7.808 38.4045 7.808 38.4045 7.808C38.4045 7.808 38.4045 7.80533 38.4045 7.8V7.4C38.4045 7.39467 38.4045 7.392 38.4045 7.392C38.4045 7.392 38.4072 7.392 38.4125 7.392ZM39.2125 7.392H39.6125C39.6178 7.392 39.6205 7.392 39.6205 7.392C39.6205 7.392 39.6205 7.39467 39.6205 7.4V7.8C39.6205 7.80533 39.6205 7.808 39.6205 7.808C39.6205 7.808 39.6178 7.808 39.6125 7.808H39.2125C39.2072 7.808 39.2045 7.808 39.2045 7.808C39.2045 7.808 39.2045 7.80533 39.2045 7.8V7.4C39.2045 7.39467 39.2045 7.392 39.2045 7.392C39.2045 7.392 39.2072 7.392 39.2125 7.392ZM41.6094 2.592H42.0094C42.0147 2.592 42.0174 2.592 42.0174 2.592C42.0174 2.592 42.0174 2.59467 42.0174 2.6V3C42.0174 3.00533 42.0174 3.008 42.0174 3.008C42.0174 3.008 42.0147 3.008 42.0094 3.008H41.6094C41.604 3.008 41.6014 3.008 41.6014 3.008C41.6014 3.008 41.6014 3.00533 41.6014 3V2.6C41.6014 2.59467 41.6014 2.592 41.6014 2.592C41.6014 2.592 41.604 2.592 41.6094 2.592ZM42.4094 2.592H42.8094C42.8147 2.592 42.8174 2.592 42.8174 2.592C42.8174 2.592 42.8174 2.59467 42.8174 2.6V3C42.8174 3.00533 42.8174 3.008 42.8174 3.008C42.8174 3.008 42.8147 3.008 42.8094 3.008H42.4094C42.404 3.008 42.4014 3.008 42.4014 3.008C42.4014 3.008 42.4014 3.00533 42.4014 3V2.6C42.4014 2.59467 42.4014 2.592 42.4014 2.592C42.4014 2.592 42.404 2.592 42.4094 2.592ZM43.2094 2.592H43.6094C43.6147 2.592 43.6174 2.592 43.6174 2.592C43.6174 2.592 43.6174 2.59467 43.6174 2.6V3C43.6174 3.00533 43.6174 3.008 43.6174 3.008C43.6174 3.008 43.6147 3.008 43.6094 3.008H43.2094C43.204 3.008 43.2014 3.008 43.2014 3.008C43.2014 3.008 43.2014 3.00533 43.2014 3V2.6C43.2014 2.59467 43.2014 2.592 43.2014 2.592C43.2014 2.592 43.204 2.592 43.2094 2.592ZM42.4094 3.392H42.8094C42.8147 3.392 42.8174 3.392 42.8174 3.392C42.8174 3.392 42.8174 3.39467 42.8174 3.4V3.8C42.8174 3.80533 42.8174 3.808 42.8174 3.808C42.8174 3.808 42.8147 3.808 42.8094 3.808H42.4094C42.404 3.808 42.4014 3.808 42.4014 3.808C42.4014 3.808 42.4014 3.80533 42.4014 3.8V3.4C42.4014 3.39467 42.4014 3.392 42.4014 3.392C42.4014 3.392 42.404 3.392 42.4094 3.392ZM42.4094 4.192H42.8094C42.8147 4.192 42.8174 4.192 42.8174 4.192C42.8174 4.192 42.8174 4.19467 42.8174 4.2V4.6C42.8174 4.60533 42.8174 4.608 42.8174 4.608C42.8174 4.608 42.8147 4.608 42.8094 4.608H42.4094C42.404 4.608 42.4014 4.608 42.4014 4.608C42.4014 4.608 42.4014 4.60533 42.4014 4.6V4.2C42.4014 4.19467 42.4014 4.192 42.4014 4.192C42.4014 4.192 42.404 4.192 42.4094 4.192ZM42.4094 4.992H42.8094C42.8147 4.992 42.8174 4.992 42.8174 4.992C42.8174 4.992 42.8174 4.99467 42.8174 5V5.4C42.8174 5.40533 42.8174 5.408 42.8174 5.408C42.8174 5.408 42.8147 5.408 42.8094 5.408H42.4094C42.404 5.408 42.4014 5.408 42.4014 5.408C42.4014 5.408 42.4014 5.40533 42.4014 5.4V5C42.4014 4.99467 42.4014 4.992 42.4014 4.992C42.4014 4.992 42.404 4.992 42.4094 4.992ZM42.4094 5.792H42.8094C42.8147 5.792 42.8174 5.792 42.8174 5.792C42.8174 5.792 42.8174 5.79467 42.8174 5.8V6.2C42.8174 6.20533 42.8174 6.208 42.8174 6.208C42.8174 6.208 42.8147 6.208 42.8094 6.208H42.4094C42.404 6.208 42.4014 6.208 42.4014 6.208C42.4014 6.208 42.4014 6.20533 42.4014 6.2V5.8C42.4014 5.79467 42.4014 5.792 42.4014 5.792C42.4014 5.792 42.404 5.792 42.4094 5.792ZM42.4094 6.592H42.8094C42.8147 6.592 42.8174 6.592 42.8174 6.592C42.8174 6.592 42.8174 6.59467 42.8174 6.6V7C42.8174 7.00533 42.8174 7.008 42.8174 7.008C42.8174 7.008 42.8147 7.008 42.8094 7.008H42.4094C42.404 7.008 42.4014 7.008 42.4014 7.008C42.4014 7.008 42.4014 7.00533 42.4014 7V6.6C42.4014 6.59467 42.4014 6.592 42.4014 6.592C42.4014 6.592 42.404 6.592 42.4094 6.592ZM41.6094 7.392H42.0094C42.0147 7.392 42.0174 7.392 42.0174 7.392C42.0174 7.392 42.0174 7.39467 42.0174 7.4V7.8C42.0174 7.80533 42.0174 7.808 42.0174 7.808C42.0174 7.808 42.0147 7.808 42.0094 7.808H41.6094C41.604 7.808 41.6014 7.808 41.6014 7.808C41.6014 7.808 41.6014 7.80533 41.6014 7.8V7.4C41.6014 7.39467 41.6014 7.392 41.6014 7.392C41.6014 7.392 41.604 7.392 41.6094 7.392ZM42.4094 7.392H42.8094C42.8147 7.392 42.8174 7.392 42.8174 7.392C42.8174 7.392 42.8174 7.39467 42.8174 7.4V7.8C42.8174 7.80533 42.8174 7.808 42.8174 7.808C42.8174 7.808 42.8147 7.808 42.8094 7.808H42.4094C42.404 7.808 42.4014 7.808 42.4014 7.808C42.4014 7.808 42.4014 7.80533 42.4014 7.8V7.4C42.4014 7.39467 42.4014 7.392 42.4014 7.392C42.4014 7.392 42.404 7.392 42.4094 7.392ZM43.2094 7.392H43.6094C43.6147 7.392 43.6174 7.392 43.6174 7.392C43.6174 7.392 43.6174 7.39467 43.6174 7.4V7.8C43.6174 7.80533 43.6174 7.808 43.6174 7.808C43.6174 7.808 43.6147 7.808 43.6094 7.808H43.2094C43.204 7.808 43.2014 7.808 43.2014 7.808C43.2014 7.808 43.2014 7.80533 43.2014 7.8V7.4C43.2014 7.39467 43.2014 7.392 43.2014 7.392C43.2014 7.392 43.204 7.392 43.2094 7.392ZM51.2031 2.592H51.6031C51.6085 2.592 51.6111 2.592 51.6111 2.592C51.6111 2.592 51.6111 2.59467 51.6111 2.6V3C51.6111 3.00533 51.6111 3.008 51.6111 3.008C51.6111 3.008 51.6085 3.008 51.6031 3.008H51.2031C51.1978 3.008 51.1951 3.008 51.1951 3.008C51.1951 3.008 51.1951 3.00533 51.1951 3V2.6C51.1951 2.59467 51.1951 2.592 51.1951 2.592C51.1951 2.592 51.1978 2.592 51.2031 2.592ZM50.4031 3.392H50.8031C50.8085 3.392 50.8111 3.392 50.8111 3.392C50.8111 3.392 50.8111 3.39467 50.8111 3.4V3.8C50.8111 3.80533 50.8111 3.808 50.8111 3.808C50.8111 3.808 50.8085 3.808 50.8031 3.808H50.4031C50.3978 3.808 50.3951 3.808 50.3951 3.808C50.3951 3.808 50.3951 3.80533 50.3951 3.8V3.4C50.3951 3.39467 50.3951 3.392 50.3951 3.392C50.3951 3.392 50.3978 3.392 50.4031 3.392ZM52.0031 3.392H52.4031C52.4085 3.392 52.4111 3.392 52.4111 3.392C52.4111 3.392 52.4111 3.39467 52.4111 3.4V3.8C52.4111 3.80533 52.4111 3.808 52.4111 3.808C52.4111 3.808 52.4085 3.808 52.4031 3.808H52.0031C51.9978 3.808 51.9951 3.808 51.9951 3.808C51.9951 3.808 51.9951 3.80533 51.9951 3.8V3.4C51.9951 3.39467 51.9951 3.392 51.9951 3.392C51.9951 3.392 51.9978 3.392 52.0031 3.392ZM50.4031 4.192H50.8031C50.8085 4.192 50.8111 4.192 50.8111 4.192C50.8111 4.192 50.8111 4.19467 50.8111 4.2V4.6C50.8111 4.60533 50.8111 4.608 50.8111 4.608C50.8111 4.608 50.8085 4.608 50.8031 4.608H50.4031C50.3978 4.608 50.3951 4.608 50.3951 4.608C50.3951 4.608 50.3951 4.60533 50.3951 4.6V4.2C50.3951 4.19467 50.3951 4.192 50.3951 4.192C50.3951 4.192 50.3978 4.192 50.4031 4.192ZM52.0031 4.192H52.4031C52.4085 4.192 52.4111 4.192 52.4111 4.192C52.4111 4.192 52.4111 4.19467 52.4111 4.2V4.6C52.4111 4.60533 52.4111 4.608 52.4111 4.608C52.4111 4.608 52.4085 4.608 52.4031 4.608H52.0031C51.9978 4.608 51.9951 4.608 51.9951 4.608C51.9951 4.608 51.9951 4.60533 51.9951 4.6V4.2C51.9951 4.19467 51.9951 4.192 51.9951 4.192C51.9951 4.192 51.9978 4.192 52.0031 4.192ZM51.2031 4.992H51.6031C51.6085 4.992 51.6111 4.992 51.6111 4.992C51.6111 4.992 51.6111 4.99467 51.6111 5V5.4C51.6111 5.40533 51.6111 5.408 51.6111 5.408C51.6111 5.408 51.6085 5.408 51.6031 5.408H51.2031C51.1978 5.408 51.1951 5.408 51.1951 5.408C51.1951 5.408 51.1951 5.40533 51.1951 5.4V5C51.1951 4.99467 51.1951 4.992 51.1951 4.992C51.1951 4.992 51.1978 4.992 51.2031 4.992ZM50.4031 5.792H50.8031C50.8085 5.792 50.8111 5.792 50.8111 5.792C50.8111 5.792 50.8111 5.79467 50.8111 5.8V6.2C50.8111 6.20533 50.8111 6.208 50.8111 6.208C50.8111 6.208 50.8085 6.208 50.8031 6.208H50.4031C50.3978 6.208 50.3951 6.208 50.3951 6.208C50.3951 6.208 50.3951 6.20533 50.3951 6.2V5.8C50.3951 5.79467 50.3951 5.792 50.3951 5.792C50.3951 5.792 50.3978 5.792 50.4031 5.792ZM52.0031 5.792H52.4031C52.4085 5.792 52.4111 5.792 52.4111 5.792C52.4111 5.792 52.4111 5.79467 52.4111 5.8V6.2C52.4111 6.20533 52.4111 6.208 52.4111 6.208C52.4111 6.208 52.4085 6.208 52.4031 6.208H52.0031C51.9978 6.208 51.9951 6.208 51.9951 6.208C51.9951 6.208 51.9951 6.20533 51.9951 6.2V5.8C51.9951 5.79467 51.9951 5.792 51.9951 5.792C51.9951 5.792 51.9978 5.792 52.0031 5.792ZM53.6031 5.792H54.0031C54.0085 5.792 54.0111 5.792 54.0111 5.792C54.0111 5.792 54.0111 5.79467 54.0111 5.8V6.2C54.0111 6.20533 54.0111 6.208 54.0111 6.208C54.0111 6.208 54.0085 6.208 54.0031 6.208H53.6031C53.5978 6.208 53.5951 6.208 53.5951 6.208C53.5951 6.208 53.5951 6.20533 53.5951 6.2V5.8C53.5951 5.79467 53.5951 5.792 53.5951 5.792C53.5951 5.792 53.5978 5.792 53.6031 5.792ZM50.4031 6.592H50.8031C50.8085 6.592 50.8111 6.592 50.8111 6.592C50.8111 6.592 50.8111 6.59467 50.8111 6.6V7C50.8111 7.00533 50.8111 7.008 50.8111 7.008C50.8111 7.008 50.8085 7.008 50.8031 7.008H50.4031C50.3978 7.008 50.3951 7.008 50.3951 7.008C50.3951 7.008 50.3951 7.00533 50.3951 7V6.6C50.3951 6.59467 50.3951 6.592 50.3951 6.592C50.3951 6.592 50.3978 6.592 50.4031 6.592ZM52.8031 6.592H53.2031C53.2085 6.592 53.2111 6.592 53.2111 6.592C53.2111 6.592 53.2111 6.59467 53.2111 6.6V7C53.2111 7.00533 53.2111 7.008 53.2111 7.008C53.2111 7.008 53.2085 7.008 53.2031 7.008H52.8031C52.7978 7.008 52.7951 7.008 52.7951 7.008C52.7951 7.008 52.7951 7.00533 52.7951 7V6.6C52.7951 6.59467 52.7951 6.592 52.7951 6.592C52.7951 6.592 52.7978 6.592 52.8031 6.592ZM51.2031 7.392H51.6031C51.6085 7.392 51.6111 7.392 51.6111 7.392C51.6111 7.392 51.6111 7.39467 51.6111 7.4V7.8C51.6111 7.80533 51.6111 7.808 51.6111 7.808C51.6111 7.808 51.6085 7.808 51.6031 7.808H51.2031C51.1978 7.808 51.1951 7.808 51.1951 7.808C51.1951 7.808 51.1951 7.80533 51.1951 7.8V7.4C51.1951 7.39467 51.1951 7.392 51.1951 7.392C51.1951 7.392 51.1978 7.392 51.2031 7.392ZM52.0031 7.392H52.4031C52.4085 7.392 52.4111 7.392 52.4111 7.392C52.4111 7.392 52.4111 7.39467 52.4111 7.4V7.8C52.4111 7.80533 52.4111 7.808 52.4111 7.808C52.4111 7.808 52.4085 7.808 52.4031 7.808H52.0031C51.9978 7.808 51.9951 7.808 51.9951 7.808C51.9951 7.808 51.9951 7.80533 51.9951 7.8V7.4C51.9951 7.39467 51.9951 7.392 51.9951 7.392C51.9951 7.392 51.9978 7.392 52.0031 7.392ZM53.6031 7.392H54.0031C54.0085 7.392 54.0111 7.392 54.0111 7.392C54.0111 7.392 54.0111 7.39467 54.0111 7.4V7.8C54.0111 7.80533 54.0111 7.808 54.0111 7.808C54.0111 7.808 54.0085 7.808 54.0031 7.808H53.6031C53.5978 7.808 53.5951 7.808 53.5951 7.808C53.5951 7.808 53.5951 7.80533 53.5951 7.8V7.4C53.5951 7.39467 53.5951 7.392 53.5951 7.392C53.5951 7.392 53.5978 7.392 53.6031 7.392Z" fill="black"/>
<path d="M4.03438 12.592H4.43438C4.43971 12.592 4.44238 12.592 4.44238 12.592C4.44238 12.592 4.44238 12.5947 4.44238 12.6V13C4.44238 13.0053 4.44238 13.008 4.44238 13.008C4.44238 13.008 4.43971 13.008 4.43438 13.008H4.03438C4.02904 13.008 4.02638 13.008 4.02638 13.008C4.02638 13.008 4.02638 13.0053 4.02638 13V12.6C4.02638 12.5947 4.02638 12.592 4.02638 12.592C4.02638 12.592 4.02904 12.592 4.03438 12.592ZM4.83438 12.592H5.23438C5.23971 12.592 5.24238 12.592 5.24238 12.592C5.24238 12.592 5.24238 12.5947 5.24238 12.6V13C5.24238 13.0053 5.24238 13.008 5.24238 13.008C5.24238 13.008 5.23971 13.008 5.23438 13.008H4.83438C4.82904 13.008 4.82638 13.008 4.82638 13.008C4.82638 13.008 4.82638 13.0053 4.82638 13V12.6C4.82638 12.5947 4.82638 12.592 4.82638 12.592C4.82638 12.592 4.82904 12.592 4.83438 12.592ZM5.63438 12.592H6.03438C6.03971 12.592 6.04238 12.592 6.04238 12.592C6.04238 12.592 6.04238 12.5947 6.04238 12.6V13C6.04238 13.0053 6.04238 13.008 6.04238 13.008C6.04238 13.008 6.03971 13.008 6.03438 13.008H5.63438C5.62904 13.008 5.62638 13.008 5.62638 13.008C5.62638 13.008 5.62638 13.0053 5.62638 13V12.6C5.62638 12.5947 5.62638 12.592 5.62638 12.592C5.62638 12.592 5.62904 12.592 5.63438 12.592ZM4.83438 13.392H5.23438C5.23971 13.392 5.24238 13.392 5.24238 13.392C5.24238 13.392 5.24238 13.3947 5.24238 13.4V13.8C5.24238 13.8053 5.24238 13.808 5.24238 13.808C5.24238 13.808 5.23971 13.808 5.23438 13.808H4.83438C4.82904 13.808 4.82638 13.808 4.82638 13.808C4.82638 13.808 4.82638 13.8053 4.82638 13.8V13.4C4.82638 13.3947 4.82638 13.392 4.82638 13.392C4.82638 13.392 4.82904 13.392 4.83438 13.392ZM4.83438 14.192H5.23438C5.23971 14.192 5.24238 14.192 5.24238 14.192C5.24238 14.192 5.24238 14.1947 5.24238 14.2V14.6C5.24238 14.6053 5.24238 14.608 5.24238 14.608C5.24238 14.608 5.23971 14.608 5.23438 14.608H4.83438C4.82904 14.608 4.82638 14.608 4.82638 14.608C4.82638 14.608 4.82638 14.6053 4.82638 14.6V14.2C4.82638 14.1947 4.82638 14.192 4.82638 14.192C4.82638 14.192 4.82904 14.192 4.83438 14.192ZM4.83438 14.992H5.23438C5.23971 14.992 5.24238 14.992 5.24238 14.992C5.24238 14.992 5.24238 14.9947 5.24238 15V15.4C5.24238 15.4053 5.24238 15.408 5.24238 15.408C5.24238 15.408 5.23971 15.408 5.23438 15.408H4.83438C4.82904 15.408 4.82638 15.408 4.82638 15.408C4.82638 15.408 4.82638 15.4053 4.82638 15.4V15C4.82638 14.9947 4.82638 14.992 4.82638 14.992C4.82638 14.992 4.82904 14.992 4.83438 14.992ZM4.83438 15.792H5.23438C5.23971 15.792 5.24238 15.792 5.24238 15.792C5.24238 15.792 5.24238 15.7947 5.24238 15.8V16.2C5.24238 16.2053 5.24238 16.208 5.24238 16.208C5.24238 16.208 5.23971 16.208 5.23438 16.208H4.83438C4.82904 16.208 4.82638 16.208 4.82638 16.208C4.82638 16.208 4.82638 16.2053 4.82638 16.2V15.8C4.82638 15.7947 4.82638 15.792 4.82638 15.792C4.82638 15.792 4.82904 15.792 4.83438 15.792ZM2.43438 16.592H2.83438C2.83971 16.592 2.84238 16.592 2.84238 16.592C2.84238 16.592 2.84238 16.5947 2.84238 16.6V17C2.84238 17.0053 2.84238 17.008 2.84238 17.008C2.84238 17.008 2.83971 17.008 2.83438 17.008H2.43438C2.42904 17.008 2.42638 17.008 2.42638 17.008C2.42638 17.008 2.42638 17.0053 2.42638 17V16.6C2.42638 16.5947 2.42638 16.592 2.42638 16.592C2.42638 16.592 2.42904 16.592 2.43438 16.592ZM4.83438 16.592H5.23438C5.23971 16.592 5.24238 16.592 5.24238 16.592C5.24238 16.592 5.24238 16.5947 5.24238 16.6V17C5.24238 17.0053 5.24238 17.008 5.24238 17.008C5.24238 17.008 5.23971 17.008 5.23438 17.008H4.83438C4.82904 17.008 4.82638 17.008 4.82638 17.008C4.82638 17.008 4.82638 17.0053 4.82638 17V16.6C4.82638 16.5947 4.82638 16.592 4.82638 16.592C4.82638 16.592 4.82904 16.592 4.83438 16.592ZM3.23438 17.392H3.63438C3.63971 17.392 3.64238 17.392 3.64238 17.392C3.64238 17.392 3.64238 17.3947 3.64238 17.4V17.8C3.64238 17.8053 3.64238 17.808 3.64238 17.808C3.64238 17.808 3.63971 17.808 3.63438 17.808H3.23438C3.22904 17.808 3.22638 17.808 3.22638 17.808C3.22638 17.808 3.22638 17.8053 3.22638 17.8V17.4C3.22638 17.3947 3.22638 17.392 3.22638 17.392C3.22638 17.392 3.22904 17.392 3.23438 17.392ZM4.03438 17.392H4.43438C4.43971 17.392 4.44238 17.392 4.44238 17.392C4.44238 17.392 4.44238 17.3947 4.44238 17.4V17.8C4.44238 17.8053 4.44238 17.808 4.44238 17.808C4.44238 17.808 4.43971 17.808 4.43438 17.808H4.03438C4.02904 17.808 4.02638 17.808 4.02638 17.808C4.02638 17.808 4.02638 17.8053 4.02638 17.8V17.4C4.02638 17.3947 4.02638 17.392 4.02638 17.392C4.02638 17.392 4.02904 17.392 4.03438 17.392ZM8.03125 12.592H8.43125C8.43658 12.592 8.43925 12.592 8.43925 12.592C8.43925 12.592 8.43925 12.5947 8.43925 12.6V13C8.43925 13.0053 8.43925 13.008 8.43925 13.008C8.43925 13.008 8.43658 13.008 8.43125 13.008H8.03125C8.02592 13.008 8.02325 13.008 8.02325 13.008C8.02325 13.008 8.02325 13.0053 8.02325 13V12.6C8.02325 12.5947 8.02325 12.592 8.02325 12.592C8.02325 12.592 8.02592 12.592 8.03125 12.592ZM8.83125 12.592H9.23125C9.23658 12.592 9.23925 12.592 9.23925 12.592C9.23925 12.592 9.23925 12.5947 9.23925 12.6V13C9.23925 13.0053 9.23925 13.008 9.23925 13.008C9.23925 13.008 9.23658 13.008 9.23125 13.008H8.83125C8.82592 13.008 8.82325 13.008 8.82325 13.008C8.82325 13.008 8.82325 13.0053 8.82325 13V12.6C8.82325 12.5947 8.82325 12.592 8.82325 12.592C8.82325 12.592 8.82592 12.592 8.83125 12.592ZM9.63125 12.592H10.0313C10.0366 12.592 10.0393 12.592 10.0393 12.592C10.0393 12.592 10.0393 12.5947 10.0393 12.6V13C10.0393 13.0053 10.0393 13.008 10.0393 13.008C10.0393 13.008 10.0366 13.008 10.0313 13.008H9.63125C9.62592 13.008 9.62325 13.008 9.62325 13.008C9.62325 13.008 9.62325 13.0053 9.62325 13V12.6C9.62325 12.5947 9.62325 12.592 9.62325 12.592C9.62325 12.592 9.62592 12.592 9.63125 12.592ZM8.83125 13.392H9.23125C9.23658 13.392 9.23925 13.392 9.23925 13.392C9.23925 13.392 9.23925 13.3947 9.23925 13.4V13.8C9.23925 13.8053 9.23925 13.808 9.23925 13.808C9.23925 13.808 9.23658 13.808 9.23125 13.808H8.83125C8.82592 13.808 8.82325 13.808 8.82325 13.808C8.82325 13.808 8.82325 13.8053 8.82325 13.8V13.4C8.82325 13.3947 8.82325 13.392 8.82325 13.392C8.82325 13.392 8.82592 13.392 8.83125 13.392ZM8.83125 14.192H9.23125C9.23658 14.192 9.23925 14.192 9.23925 14.192C9.23925 14.192 9.23925 14.1947 9.23925 14.2V14.6C9.23925 14.6053 9.23925 14.608 9.23925 14.608C9.23925 14.608 9.23658 14.608 9.23125 14.608H8.83125C8.82592 14.608 8.82325 14.608 8.82325 14.608C8.82325 14.608 8.82325 14.6053 8.82325 14.6V14.2C8.82325 14.1947 8.82325 14.192 8.82325 14.192C8.82325 14.192 8.82592 14.192 8.83125 14.192ZM8.83125 14.992H9.23125C9.23658 14.992 9.23925 14.992 9.23925 14.992C9.23925 14.992 9.23925 14.9947 9.23925 15V15.4C9.23925 15.4053 9.23925 15.408 9.23925 15.408C9.23925 15.408 9.23658 15.408 9.23125 15.408H8.83125C8.82592 15.408 8.82325 15.408 8.82325 15.408C8.82325 15.408 8.82325 15.4053 8.82325 15.4V15C8.82325 14.9947 8.82325 14.992 8.82325 14.992C8.82325 14.992 8.82592 14.992 8.83125 14.992ZM8.83125 15.792H9.23125C9.23658 15.792 9.23925 15.792 9.23925 15.792C9.23925 15.792 9.23925 15.7947 9.23925 15.8V16.2C9.23925 16.2053 9.23925 16.208 9.23925 16.208C9.23925 16.208 9.23658 16.208 9.23125 16.208H8.83125C8.82592 16.208 8.82325 16.208 8.82325 16.208C8.82325 16.208 8.82325 16.2053 8.82325 16.2V15.8C8.82325 15.7947 8.82325 15.792 8.82325 15.792C8.82325 15.792 8.82592 15.792 8.83125 15.792ZM8.83125 16.592H9.23125C9.23658 16.592 9.23925 16.592 9.23925 16.592C9.23925 16.592 9.23925 16.5947 9.23925 16.6V17C9.23925 17.0053 9.23925 17.008 9.23925 17.008C9.23925 17.008 9.23658 17.008 9.23125 17.008H8.83125C8.82592 17.008 8.82325 17.008 8.82325 17.008C8.82325 17.008 8.82325 17.0053 8.82325 17V16.6C8.82325 16.5947 8.82325 16.592 8.82325 16.592C8.82325 16.592 8.82592 16.592 8.83125 16.592ZM8.03125 17.392H8.43125C8.43658 17.392 8.43925 17.392 8.43925 17.392C8.43925 17.392 8.43925 17.3947 8.43925 17.4V17.8C8.43925 17.8053 8.43925 17.808 8.43925 17.808C8.43925 17.808 8.43658 17.808 8.43125 17.808H8.03125C8.02592 17.808 8.02325 17.808 8.02325 17.808C8.02325 17.808 8.02325 17.8053 8.02325 17.8V17.4C8.02325 17.3947 8.02325 17.392 8.02325 17.392C8.02325 17.392 8.02592 17.392 8.03125 17.392ZM8.83125 17.392H9.23125C9.23658 17.392 9.23925 17.392 9.23925 17.392C9.23925 17.392 9.23925 17.3947 9.23925 17.4V17.8C9.23925 17.8053 9.23925 17.808 9.23925 17.808C9.23925 17.808 9.23658 17.808 9.23125 17.808H8.83125C8.82592 17.808 8.82325 17.808 8.82325 17.808C8.82325 17.808 8.82325 17.8053 8.82325 17.8V17.4C8.82325 17.3947 8.82325 17.392 8.82325 17.392C8.82325 17.392 8.82592 17.392 8.83125 17.392ZM9.63125 17.392H10.0313C10.0366 17.392 10.0393 17.392 10.0393 17.392C10.0393 17.392 10.0393 17.3947 10.0393 17.4V17.8C10.0393 17.8053 10.0393 17.808 10.0393 17.808C10.0393 17.808 10.0366 17.808 10.0313 17.808H9.63125C9.62592 17.808 9.62325 17.808 9.62325 17.808C9.62325 17.808 9.62325 17.8053 9.62325 17.8V17.4C9.62325 17.3947 9.62325 17.392 9.62325 17.392C9.62325 17.392 9.62592 17.392 9.63125 17.392ZM13.6281 12.592H14.0281C14.0335 12.592 14.0361 12.592 14.0361 12.592C14.0361 12.592 14.0361 12.5947 14.0361 12.6V13C14.0361 13.0053 14.0361 13.008 14.0361 13.008C14.0361 13.008 14.0335 13.008 14.0281 13.008H13.6281C13.6228 13.008 13.6201 13.008 13.6201 13.008C13.6201 13.008 13.6201 13.0053 13.6201 13V12.6C13.6201 12.5947 13.6201 12.592 13.6201 12.592C13.6201 12.592 13.6228 12.592 13.6281 12.592ZM12.8281 13.392H13.2281C13.2335 13.392 13.2361 13.392 13.2361 13.392C13.2361 13.392 13.2361 13.3947 13.2361 13.4V13.8C13.2361 13.8053 13.2361 13.808 13.2361 13.808C13.2361 13.808 13.2335 13.808 13.2281 13.808H12.8281C12.8228 13.808 12.8201 13.808 12.8201 13.808C12.8201 13.808 12.8201 13.8053 12.8201 13.8V13.4C12.8201 13.3947 12.8201 13.392 12.8201 13.392C12.8201 13.392 12.8228 13.392 12.8281 13.392ZM14.4281 13.392H14.8281C14.8335 13.392 14.8361 13.392 14.8361 13.392C14.8361 13.392 14.8361 13.3947 14.8361 13.4V13.8C14.8361 13.8053 14.8361 13.808 14.8361 13.808C14.8361 13.808 14.8335 13.808 14.8281 13.808H14.4281C14.4228 13.808 14.4201 13.808 14.4201 13.808C14.4201 13.808 14.4201 13.8053 14.4201 13.8V13.4C14.4201 13.3947 14.4201 13.392 14.4201 13.392C14.4201 13.392 14.4228 13.392 14.4281 13.392ZM12.0281 14.192H12.4281C12.4335 14.192 12.4361 14.192 12.4361 14.192C12.4361 14.192 12.4361 14.1947 12.4361 14.2V14.6C12.4361 14.6053 12.4361 14.608 12.4361 14.608C12.4361 14.608 12.4335 14.608 12.4281 14.608H12.0281C12.0228 14.608 12.0201 14.608 12.0201 14.608C12.0201 14.608 12.0201 14.6053 12.0201 14.6V14.2C12.0201 14.1947 12.0201 14.192 12.0201 14.192C12.0201 14.192 12.0228 14.192 12.0281 14.192ZM15.2281 14.192H15.6281C15.6335 14.192 15.6361 14.192 15.6361 14.192C15.6361 14.192 15.6361 14.1947 15.6361 14.2V14.6C15.6361 14.6053 15.6361 14.608 15.6361 14.608C15.6361 14.608 15.6335 14.608 15.6281 14.608H15.2281C15.2228 14.608 15.2201 14.608 15.2201 14.608C15.2201 14.608 15.2201 14.6053 15.2201 14.6V14.2C15.2201 14.1947 15.2201 14.192 15.2201 14.192C15.2201 14.192 15.2228 14.192 15.2281 14.192ZM12.0281 14.992H12.4281C12.4335 14.992 12.4361 14.992 12.4361 14.992C12.4361 14.992 12.4361 14.9947 12.4361 15V15.4C12.4361 15.4053 12.4361 15.408 12.4361 15.408C12.4361 15.408 12.4335 15.408 12.4281 15.408H12.0281C12.0228 15.408 12.0201 15.408 12.0201 15.408C12.0201 15.408 12.0201 15.4053 12.0201 15.4V15C12.0201 14.9947 12.0201 14.992 12.0201 14.992C12.0201 14.992 12.0228 14.992 12.0281 14.992ZM15.2281 14.992H15.6281C15.6335 14.992 15.6361 14.992 15.6361 14.992C15.6361 14.992 15.6361 14.9947 15.6361 15V15.4C15.6361 15.4053 15.6361 15.408 15.6361 15.408C15.6361 15.408 15.6335 15.408 15.6281 15.408H15.2281C15.2228 15.408 15.2201 15.408 15.2201 15.408C15.2201 15.408 15.2201 15.4053 15.2201 15.4V15C15.2201 14.9947 15.2201 14.992 15.2201 14.992C15.2201 14.992 15.2228 14.992 15.2281 14.992ZM12.0281 15.792H12.4281C12.4335 15.792 12.4361 15.792 12.4361 15.792C12.4361 15.792 12.4361 15.7947 12.4361 15.8V16.2C12.4361 16.2053 12.4361 16.208 12.4361 16.208C12.4361 16.208 12.4335 16.208 12.4281 16.208H12.0281C12.0228 16.208 12.0201 16.208 12.0201 16.208C12.0201 16.208 12.0201 16.2053 12.0201 16.2V15.8C12.0201 15.7947 12.0201 15.792 12.0201 15.792C12.0201 15.792 12.0228 15.792 12.0281 15.792ZM12.8281 15.792H13.2281C13.2335 15.792 13.2361 15.792 13.2361 15.792C13.2361 15.792 13.2361 15.7947 13.2361 15.8V16.2C13.2361 16.2053 13.2361 16.208 13.2361 16.208C13.2361 16.208 13.2335 16.208 13.2281 16.208H12.8281C12.8228 16.208 12.8201 16.208 12.8201 16.208C12.8201 16.208 12.8201 16.2053 12.8201 16.2V15.8C12.8201 15.7947 12.8201 15.792 12.8201 15.792C12.8201 15.792 12.8228 15.792 12.8281 15.792ZM13.6281 15.792H14.0281C14.0335 15.792 14.0361 15.792 14.0361 15.792C14.0361 15.792 14.0361 15.7947 14.0361 15.8V16.2C14.0361 16.2053 14.0361 16.208 14.0361 16.208C14.0361 16.208 14.0335 16.208 14.0281 16.208H13.6281C13.6228 16.208 13.6201 16.208 13.6201 16.208C13.6201 16.208 13.6201 16.2053 13.6201 16.2V15.8C13.6201 15.7947 13.6201 15.792 13.6201 15.792C13.6201 15.792 13.6228 15.792 13.6281 15.792ZM14.4281 15.792H14.8281C14.8335 15.792 14.8361 15.792 14.8361 15.792C14.8361 15.792 14.8361 15.7947 14.8361 15.8V16.2C14.8361 16.2053 14.8361 16.208 14.8361 16.208C14.8361 16.208 14.8335 16.208 14.8281 16.208H14.4281C14.4228 16.208 14.4201 16.208 14.4201 16.208C14.4201 16.208 14.4201 16.2053 14.4201 16.2V15.8C14.4201 15.7947 14.4201 15.792 14.4201 15.792C14.4201 15.792 14.4228 15.792 14.4281 15.792ZM15.2281 15.792H15.6281C15.6335 15.792 15.6361 15.792 15.6361 15.792C15.6361 15.792 15.6361 15.7947 15.6361 15.8V16.2C15.6361 16.2053 15.6361 16.208 15.6361 16.208C15.6361 16.208 15.6335 16.208 15.6281 16.208H15.2281C15.2228 16.208 15.2201 16.208 15.2201 16.208C15.2201 16.208 15.2201 16.2053 15.2201 16.2V15.8C15.2201 15.7947 15.2201 15.792 15.2201 15.792C15.2201 15.792 15.2228 15.792 15.2281 15.792ZM12.0281 16.592H12.4281C12.4335 16.592 12.4361 16.592 12.4361 16.592C12.4361 16.592 12.4361 16.5947 12.4361 16.6V17C12.4361 17.0053 12.4361 17.008 12.4361 17.008C12.4361 17.008 12.4335 17.008 12.4281 17.008H12.0281C12.0228 17.008 12.0201 17.008 12.0201 17.008C12.0201 17.008 12.0201 17.0053 12.0201 17V16.6C12.0201 16.5947 12.0201 16.592 12.0201 16.592C12.0201 16.592 12.0228 16.592 12.0281 16.592ZM15.2281 16.592H15.6281C15.6335 16.592 15.6361 16.592 15.6361 16.592C15.6361 16.592 15.6361 16.5947 15.6361 16.6V17C15.6361 17.0053 15.6361 17.008 15.6361 17.008C15.6361 17.008 15.6335 17.008 15.6281 17.008H15.2281C15.2228 17.008 15.2201 17.008 15.2201 17.008C15.2201 17.008 15.2201 17.0053 15.2201 17V16.6C15.2201 16.5947 15.2201 16.592 15.2201 16.592C15.2201 16.592 15.2228 16.592 15.2281 16.592ZM12.0281 17.392H12.4281C12.4335 17.392 12.4361 17.392 12.4361 17.392C12.4361 17.392 12.4361 17.3947 12.4361 17.4V17.8C12.4361 17.8053 12.4361 17.808 12.4361 17.808C12.4361 17.808 12.4335 17.808 12.4281 17.808H12.0281C12.0228 17.808 12.0201 17.808 12.0201 17.808C12.0201 17.808 12.0201 17.8053 12.0201 17.8V17.4C12.0201 17.3947 12.0201 17.392 12.0201 17.392C12.0201 17.392 12.0228 17.392 12.0281 17.392ZM15.2281 17.392H15.6281C15.6335 17.392 15.6361 17.392 15.6361 17.392C15.6361 17.392 15.6361 17.3947 15.6361 17.4V17.8C15.6361 17.8053 15.6361 17.808 15.6361 17.808C15.6361 17.808 15.6335 17.808 15.6281 17.808H15.2281C15.2228 17.808 15.2201 17.808 15.2201 17.808C15.2201 17.808 15.2201 17.8053 15.2201 17.8V17.4C15.2201 17.3947 15.2201 17.392 15.2201 17.392C15.2201 17.392 15.2228 17.392 15.2281 17.392ZM16.825 12.592H17.225C17.2303 12.592 17.233 12.592 17.233 12.592C17.233 12.592 17.233 12.5947 17.233 12.6V13C17.233 13.0053 17.233 13.008 17.233 13.008C17.233 13.008 17.2303 13.008 17.225 13.008H16.825C16.8197 13.008 16.817 13.008 16.817 13.008C16.817 13.008 16.817 13.0053 16.817 13V12.6C16.817 12.5947 16.817 12.592 16.817 12.592C16.817 12.592 16.8197 12.592 16.825 12.592ZM20.025 12.592H20.425C20.4303 12.592 20.433 12.592 20.433 12.592C20.433 12.592 20.433 12.5947 20.433 12.6V13C20.433 13.0053 20.433 13.008 20.433 13.008C20.433 13.008 20.4303 13.008 20.425 13.008H20.025C20.0197 13.008 20.017 13.008 20.017 13.008C20.017 13.008 20.017 13.0053 20.017 13V12.6C20.017 12.5947 20.017 12.592 20.017 12.592C20.017 12.592 20.0197 12.592 20.025 12.592ZM16.825 13.392H17.225C17.2303 13.392 17.233 13.392 17.233 13.392C17.233 13.392 17.233 13.3947 17.233 13.4V13.8C17.233 13.8053 17.233 13.808 17.233 13.808C17.233 13.808 17.2303 13.808 17.225 13.808H16.825C16.8197 13.808 16.817 13.808 16.817 13.808C16.817 13.808 16.817 13.8053 16.817 13.8V13.4C16.817 13.3947 16.817 13.392 16.817 13.392C16.817 13.392 16.8197 13.392 16.825 13.392ZM20.025 13.392H20.425C20.4303 13.392 20.433 13.392 20.433 13.392C20.433 13.392 20.433 13.3947 20.433 13.4V13.8C20.433 13.8053 20.433 13.808 20.433 13.808C20.433 13.808 20.4303 13.808 20.425 13.808H20.025C20.0197 13.808 20.017 13.808 20.017 13.808C20.017 13.808 20.017 13.8053 20.017 13.8V13.4C20.017 13.3947 20.017 13.392 20.017 13.392C20.017 13.392 20.0197 13.392 20.025 13.392ZM16.825 14.192H17.225C17.2303 14.192 17.233 14.192 17.233 14.192C17.233 14.192 17.233 14.1947 17.233 14.2V14.6C17.233 14.6053 17.233 14.608 17.233 14.608C17.233 14.608 17.2303 14.608 17.225 14.608H16.825C16.8197 14.608 16.817 14.608 16.817 14.608C16.817 14.608 16.817 14.6053 16.817 14.6V14.2C16.817 14.1947 16.817 14.192 16.817 14.192C16.817 14.192 16.8197 14.192 16.825 14.192ZM17.625 14.192H18.025C18.0303 14.192 18.033 14.192 18.033 14.192C18.033 14.192 18.033 14.1947 18.033 14.2V14.6C18.033 14.6053 18.033 14.608 18.033 14.608C18.033 14.608 18.0303 14.608 18.025 14.608H17.625C17.6197 14.608 17.617 14.608 17.617 14.608C17.617 14.608 17.617 14.6053 17.617 14.6V14.2C17.617 14.1947 17.617 14.192 17.617 14.192C17.617 14.192 17.6197 14.192 17.625 14.192ZM20.025 14.192H20.425C20.4303 14.192 20.433 14.192 20.433 14.192C20.433 14.192 20.433 14.1947 20.433 14.2V14.6C20.433 14.6053 20.433 14.608 20.433 14.608C20.433 14.608 20.4303 14.608 20.425 14.608H20.025C20.0197 14.608 20.017 14.608 20.017 14.608C20.017 14.608 20.017 14.6053 20.017 14.6V14.2C20.017 14.1947 20.017 14.192 20.017 14.192C20.017 14.192 20.0197 14.192 20.025 14.192ZM16.825 14.992H17.225C17.2303 14.992 17.233 14.992 17.233 14.992C17.233 14.992 17.233 14.9947 17.233 15V15.4C17.233 15.4053 17.233 15.408 17.233 15.408C17.233 15.408 17.2303 15.408 17.225 15.408H16.825C16.8197 15.408 16.817 15.408 16.817 15.408C16.817 15.408 16.817 15.4053 16.817 15.4V15C16.817 14.9947 16.817 14.992 16.817 14.992C16.817 14.992 16.8197 14.992 16.825 14.992ZM18.425 14.992H18.825C18.8303 14.992 18.833 14.992 18.833 14.992C18.833 14.992 18.833 14.9947 18.833 15V15.4C18.833 15.4053 18.833 15.408 18.833 15.408C18.833 15.408 18.8303 15.408 18.825 15.408H18.425C18.4197 15.408 18.417 15.408 18.417 15.408C18.417 15.408 18.417 15.4053 18.417 15.4V15C18.417 14.9947 18.417 14.992 18.417 14.992C18.417 14.992 18.4197 14.992 18.425 14.992ZM20.025 14.992H20.425C20.4303 14.992 20.433 14.992 20.433 14.992C20.433 14.992 20.433 14.9947 20.433 15V15.4C20.433 15.4053 20.433 15.408 20.433 15.408C20.433 15.408 20.4303 15.408 20.425 15.408H20.025C20.0197 15.408 20.017 15.408 20.017 15.408C20.017 15.408 20.017 15.4053 20.017 15.4V15C20.017 14.9947 20.017 14.992 20.017 14.992C20.017 14.992 20.0197 14.992 20.025 14.992ZM16.825 15.792H17.225C17.2303 15.792 17.233 15.792 17.233 15.792C17.233 15.792 17.233 15.7947 17.233 15.8V16.2C17.233 16.2053 17.233 16.208 17.233 16.208C17.233 16.208 17.2303 16.208 17.225 16.208H16.825C16.8197 16.208 16.817 16.208 16.817 16.208C16.817 16.208 16.817 16.2053 16.817 16.2V15.8C16.817 15.7947 16.817 15.792 16.817 15.792C16.817 15.792 16.8197 15.792 16.825 15.792ZM19.225 15.792H19.625C19.6303 15.792 19.633 15.792 19.633 15.792C19.633 15.792 19.633 15.7947 19.633 15.8V16.2C19.633 16.2053 19.633 16.208 19.633 16.208C19.633 16.208 19.6303 16.208 19.625 16.208H19.225C19.2197 16.208 19.217 16.208 19.217 16.208C19.217 16.208 19.217 16.2053 19.217 16.2V15.8C19.217 15.7947 19.217 15.792 19.217 15.792C19.217 15.792 19.2197 15.792 19.225 15.792ZM20.025 15.792H20.425C20.4303 15.792 20.433 15.792 20.433 15.792C20.433 15.792 20.433 15.7947 20.433 15.8V16.2C20.433 16.2053 20.433 16.208 20.433 16.208C20.433 16.208 20.4303 16.208 20.425 16.208H20.025C20.0197 16.208 20.017 16.208 20.017 16.208C20.017 16.208 20.017 16.2053 20.017 16.2V15.8C20.017 15.7947 20.017 15.792 20.017 15.792C20.017 15.792 20.0197 15.792 20.025 15.792ZM16.825 16.592H17.225C17.2303 16.592 17.233 16.592 17.233 16.592C17.233 16.592 17.233 16.5947 17.233 16.6V17C17.233 17.0053 17.233 17.008 17.233 17.008C17.233 17.008 17.2303 17.008 17.225 17.008H16.825C16.8197 17.008 16.817 17.008 16.817 17.008C16.817 17.008 16.817 17.0053 16.817 17V16.6C16.817 16.5947 16.817 16.592 16.817 16.592C16.817 16.592 16.8197 16.592 16.825 16.592ZM20.025 16.592H20.425C20.4303 16.592 20.433 16.592 20.433 16.592C20.433 16.592 20.433 16.5947 20.433 16.6V17C20.433 17.0053 20.433 17.008 20.433 17.008C20.433 17.008 20.4303 17.008 20.425 17.008H20.025C20.0197 17.008 20.017 17.008 20.017 17.008C20.017 17.008 20.017 17.0053 20.017 17V16.6C20.017 16.5947 20.017 16.592 20.017 16.592C20.017 16.592 20.0197 16.592 20.025 16.592ZM16.825 17.392H17.225C17.2303 17.392 17.233 17.392 17.233 17.392C17.233 17.392 17.233 17.3947 17.233 17.4V17.8C17.233 17.8053 17.233 17.808 17.233 17.808C17.233 17.808 17.2303 17.808 17.225 17.808H16.825C16.8197 17.808 16.817 17.808 16.817 17.808C16.817 17.808 16.817 17.8053 16.817 17.8V17.4C16.817 17.3947 16.817 17.392 16.817 17.392C16.817 17.392 16.8197 17.392 16.825 17.392ZM20.025 17.392H20.425C20.4303 17.392 20.433 17.392 20.433 17.392C20.433 17.392 20.433 17.3947 20.433 17.4V17.8C20.433 17.8053 20.433 17.808 20.433 17.808C20.433 17.808 20.4303 17.808 20.425 17.808H20.025C20.0197 17.808 20.017 17.808 20.017 17.808C20.017 17.808 20.017 17.8053 20.017 17.8V17.4C20.017 17.3947 20.017 17.392 20.017 17.392C20.017 17.392 20.0197 17.392 20.025 17.392ZM22.4219 12.592H22.8219C22.8272 12.592 22.8299 12.592 22.8299 12.592C22.8299 12.592 22.8299 12.5947 22.8299 12.6V13C22.8299 13.0053 22.8299 13.008 22.8299 13.008C22.8299 13.008 22.8272 13.008 22.8219 13.008H22.4219C22.4165 13.008 22.4139 13.008 22.4139 13.008C22.4139 13.008 22.4139 13.0053 22.4139 13V12.6C22.4139 12.5947 22.4139 12.592 22.4139 12.592C22.4139 12.592 22.4165 12.592 22.4219 12.592ZM23.2219 12.592H23.6219C23.6272 12.592 23.6299 12.592 23.6299 12.592C23.6299 12.592 23.6299 12.5947 23.6299 12.6V13C23.6299 13.0053 23.6299 13.008 23.6299 13.008C23.6299 13.008 23.6272 13.008 23.6219 13.008H23.2219C23.2165 13.008 23.2139 13.008 23.2139 13.008C23.2139 13.008 23.2139 13.0053 23.2139 13V12.6C23.2139 12.5947 23.2139 12.592 23.2139 12.592C23.2139 12.592 23.2165 12.592 23.2219 12.592ZM24.0219 12.592H24.4219C24.4272 12.592 24.4299 12.592 24.4299 12.592C24.4299 12.592 24.4299 12.5947 24.4299 12.6V13C24.4299 13.0053 24.4299 13.008 24.4299 13.008C24.4299 13.008 24.4272 13.008 24.4219 13.008H24.0219C24.0165 13.008 24.0139 13.008 24.0139 13.008C24.0139 13.008 24.0139 13.0053 24.0139 13V12.6C24.0139 12.5947 24.0139 12.592 24.0139 12.592C24.0139 12.592 24.0165 12.592 24.0219 12.592ZM21.6219 13.392H22.0219C22.0272 13.392 22.0299 13.392 22.0299 13.392C22.0299 13.392 22.0299 13.3947 22.0299 13.4V13.8C22.0299 13.8053 22.0299 13.808 22.0299 13.808C22.0299 13.808 22.0272 13.808 22.0219 13.808H21.6219C21.6165 13.808 21.6139 13.808 21.6139 13.808C21.6139 13.808 21.6139 13.8053 21.6139 13.8V13.4C21.6139 13.3947 21.6139 13.392 21.6139 13.392C21.6139 13.392 21.6165 13.392 21.6219 13.392ZM24.8219 13.392H25.2219C25.2272 13.392 25.2299 13.392 25.2299 13.392C25.2299 13.392 25.2299 13.3947 25.2299 13.4V13.8C25.2299 13.8053 25.2299 13.808 25.2299 13.808C25.2299 13.808 25.2272 13.808 25.2219 13.808H24.8219C24.8165 13.808 24.8139 13.808 24.8139 13.808C24.8139 13.808 24.8139 13.8053 24.8139 13.8V13.4C24.8139 13.3947 24.8139 13.392 24.8139 13.392C24.8139 13.392 24.8165 13.392 24.8219 13.392ZM21.6219 14.192H22.0219C22.0272 14.192 22.0299 14.192 22.0299 14.192C22.0299 14.192 22.0299 14.1947 22.0299 14.2V14.6C22.0299 14.6053 22.0299 14.608 22.0299 14.608C22.0299 14.608 22.0272 14.608 22.0219 14.608H21.6219C21.6165 14.608 21.6139 14.608 21.6139 14.608C21.6139 14.608 21.6139 14.6053 21.6139 14.6V14.2C21.6139 14.1947 21.6139 14.192 21.6139 14.192C21.6139 14.192 21.6165 14.192 21.6219 14.192ZM21.6219 14.992H22.0219C22.0272 14.992 22.0299 14.992 22.0299 14.992C22.0299 14.992 22.0299 14.9947 22.0299 15V15.4C22.0299 15.4053 22.0299 15.408 22.0299 15.408C22.0299 15.408 22.0272 15.408 22.0219 15.408H21.6219C21.6165 15.408 21.6139 15.408 21.6139 15.408C21.6139 15.408 21.6139 15.4053 21.6139 15.4V15C21.6139 14.9947 21.6139 14.992 21.6139 14.992C21.6139 14.992 21.6165 14.992 21.6219 14.992ZM21.6219 15.792H22.0219C22.0272 15.792 22.0299 15.792 22.0299 15.792C22.0299 15.792 22.0299 15.7947 22.0299 15.8V16.2C22.0299 16.2053 22.0299 16.208 22.0299 16.208C22.0299 16.208 22.0272 16.208 22.0219 16.208H21.6219C21.6165 16.208 21.6139 16.208 21.6139 16.208C21.6139 16.208 21.6139 16.2053 21.6139 16.2V15.8C21.6139 15.7947 21.6139 15.792 21.6139 15.792C21.6139 15.792 21.6165 15.792 21.6219 15.792ZM24.0219 15.792H24.4219C24.4272 15.792 24.4299 15.792 24.4299 15.792C24.4299 15.792 24.4299 15.7947 24.4299 15.8V16.2C24.4299 16.2053 24.4299 16.208 24.4299 16.208C24.4299 16.208 24.4272 16.208 24.4219 16.208H24.0219C24.0165 16.208 24.0139 16.208 24.0139 16.208C24.0139 16.208 24.0139 16.2053 24.0139 16.2V15.8C24.0139 15.7947 24.0139 15.792 24.0139 15.792C24.0139 15.792 24.0165 15.792 24.0219 15.792ZM24.8219 15.792H25.2219C25.2272 15.792 25.2299 15.792 25.2299 15.792C25.2299 15.792 25.2299 15.7947 25.2299 15.8V16.2C25.2299 16.2053 25.2299 16.208 25.2299 16.208C25.2299 16.208 25.2272 16.208 25.2219 16.208H24.8219C24.8165 16.208 24.8139 16.208 24.8139 16.208C24.8139 16.208 24.8139 16.2053 24.8139 16.2V15.8C24.8139 15.7947 24.8139 15.792 24.8139 15.792C24.8139 15.792 24.8165 15.792 24.8219 15.792ZM21.6219 16.592H22.0219C22.0272 16.592 22.0299 16.592 22.0299 16.592C22.0299 16.592 22.0299 16.5947 22.0299 16.6V17C22.0299 17.0053 22.0299 17.008 22.0299 17.008C22.0299 17.008 22.0272 17.008 22.0219 17.008H21.6219C21.6165 17.008 21.6139 17.008 21.6139 17.008C21.6139 17.008 21.6139 17.0053 21.6139 17V16.6C21.6139 16.5947 21.6139 16.592 21.6139 16.592C21.6139 16.592 21.6165 16.592 21.6219 16.592ZM24.8219 16.592H25.2219C25.2272 16.592 25.2299 16.592 25.2299 16.592C25.2299 16.592 25.2299 16.5947 25.2299 16.6V17C25.2299 17.0053 25.2299 17.008 25.2299 17.008C25.2299 17.008 25.2272 17.008 25.2219 17.008H24.8219C24.8165 17.008 24.8139 17.008 24.8139 17.008C24.8139 17.008 24.8139 17.0053 24.8139 17V16.6C24.8139 16.5947 24.8139 16.592 24.8139 16.592C24.8139 16.592 24.8165 16.592 24.8219 16.592ZM22.4219 17.392H22.8219C22.8272 17.392 22.8299 17.392 22.8299 17.392C22.8299 17.392 22.8299 17.3947 22.8299 17.4V17.8C22.8299 17.8053 22.8299 17.808 22.8299 17.808C22.8299 17.808 22.8272 17.808 22.8219 17.808H22.4219C22.4165 17.808 22.4139 17.808 22.4139 17.808C22.4139 17.808 22.4139 17.8053 22.4139 17.8V17.4C22.4139 17.3947 22.4139 17.392 22.4139 17.392C22.4139 17.392 22.4165 17.392 22.4219 17.392ZM23.2219 17.392H23.6219C23.6272 17.392 23.6299 17.392 23.6299 17.392C23.6299 17.392 23.6299 17.3947 23.6299 17.4V17.8C23.6299 17.8053 23.6299 17.808 23.6299 17.808C23.6299 17.808 23.6272 17.808 23.6219 17.808H23.2219C23.2165 17.808 23.2139 17.808 23.2139 17.808C23.2139 17.808 23.2139 17.8053 23.2139 17.8V17.4C23.2139 17.3947 23.2139 17.392 23.2139 17.392C23.2139 17.392 23.2165 17.392 23.2219 17.392ZM24.0219 17.392H24.4219C24.4272 17.392 24.4299 17.392 24.4299 17.392C24.4299 17.392 24.4299 17.3947 24.4299 17.4V17.8C24.4299 17.8053 24.4299 17.808 24.4299 17.808C24.4299 17.808 24.4272 17.808 24.4219 17.808H24.0219C24.0165 17.808 24.0139 17.808 24.0139 17.808C24.0139 17.808 24.0139 17.8053 24.0139 17.8V17.4C24.0139 17.3947 24.0139 17.392 24.0139 17.392C24.0139 17.392 24.0165 17.392 24.0219 17.392ZM32.0156 12.592H32.4156C32.421 12.592 32.4236 12.592 32.4236 12.592C32.4236 12.592 32.4236 12.5947 32.4236 12.6V13C32.4236 13.0053 32.4236 13.008 32.4236 13.008C32.4236 13.008 32.421 13.008 32.4156 13.008H32.0156C32.0103 13.008 32.0076 13.008 32.0076 13.008C32.0076 13.008 32.0076 13.0053 32.0076 13V12.6C32.0076 12.5947 32.0076 12.592 32.0076 12.592C32.0076 12.592 32.0103 12.592 32.0156 12.592ZM32.8156 12.592H33.2156C33.221 12.592 33.2236 12.592 33.2236 12.592C33.2236 12.592 33.2236 12.5947 33.2236 12.6V13C33.2236 13.0053 33.2236 13.008 33.2236 13.008C33.2236 13.008 33.221 13.008 33.2156 13.008H32.8156C32.8103 13.008 32.8076 13.008 32.8076 13.008C32.8076 13.008 32.8076 13.0053 32.8076 13V12.6C32.8076 12.5947 32.8076 12.592 32.8076 12.592C32.8076 12.592 32.8103 12.592 32.8156 12.592ZM33.6156 12.592H34.0156C34.021 12.592 34.0236 12.592 34.0236 12.592C34.0236 12.592 34.0236 12.5947 34.0236 12.6V13C34.0236 13.0053 34.0236 13.008 34.0236 13.008C34.0236 13.008 34.021 13.008 34.0156 13.008H33.6156C33.6103 13.008 33.6076 13.008 33.6076 13.008C33.6076 13.008 33.6076 13.0053 33.6076 13V12.6C33.6076 12.5947 33.6076 12.592 33.6076 12.592C33.6076 12.592 33.6103 12.592 33.6156 12.592ZM31.2156 13.392H31.6156C31.621 13.392 31.6236 13.392 31.6236 13.392C31.6236 13.392 31.6236 13.3947 31.6236 13.4V13.8C31.6236 13.8053 31.6236 13.808 31.6236 13.808C31.6236 13.808 31.621 13.808 31.6156 13.808H31.2156C31.2103 13.808 31.2076 13.808 31.2076 13.808C31.2076 13.808 31.2076 13.8053 31.2076 13.8V13.4C31.2076 13.3947 31.2076 13.392 31.2076 13.392C31.2076 13.392 31.2103 13.392 31.2156 13.392ZM34.4156 13.392H34.8156C34.821 13.392 34.8236 13.392 34.8236 13.392C34.8236 13.392 34.8236 13.3947 34.8236 13.4V13.8C34.8236 13.8053 34.8236 13.808 34.8236 13.808C34.8236 13.808 34.821 13.808 34.8156 13.808H34.4156C34.4103 13.808 34.4076 13.808 34.4076 13.808C34.4076 13.808 34.4076 13.8053 34.4076 13.8V13.4C34.4076 13.3947 34.4076 13.392 34.4076 13.392C34.4076 13.392 34.4103 13.392 34.4156 13.392ZM31.2156 14.192H31.6156C31.621 14.192 31.6236 14.192 31.6236 14.192C31.6236 14.192 31.6236 14.1947 31.6236 14.2V14.6C31.6236 14.6053 31.6236 14.608 31.6236 14.608C31.6236 14.608 31.621 14.608 31.6156 14.608H31.2156C31.2103 14.608 31.2076 14.608 31.2076 14.608C31.2076 14.608 31.2076 14.6053 31.2076 14.6V14.2C31.2076 14.1947 31.2076 14.192 31.2076 14.192C31.2076 14.192 31.2103 14.192 31.2156 14.192ZM31.2156 14.992H31.6156C31.621 14.992 31.6236 14.992 31.6236 14.992C31.6236 14.992 31.6236 14.9947 31.6236 15V15.4C31.6236 15.4053 31.6236 15.408 31.6236 15.408C31.6236 15.408 31.621 15.408 31.6156 15.408H31.2156C31.2103 15.408 31.2076 15.408 31.2076 15.408C31.2076 15.408 31.2076 15.4053 31.2076 15.4V15C31.2076 14.9947 31.2076 14.992 31.2076 14.992C31.2076 14.992 31.2103 14.992 31.2156 14.992ZM31.2156 15.792H31.6156C31.621 15.792 31.6236 15.792 31.6236 15.792C31.6236 15.792 31.6236 15.7947 31.6236 15.8V16.2C31.6236 16.2053 31.6236 16.208 31.6236 16.208C31.6236 16.208 31.621 16.208 31.6156 16.208H31.2156C31.2103 16.208 31.2076 16.208 31.2076 16.208C31.2076 16.208 31.2076 16.2053 31.2076 16.2V15.8C31.2076 15.7947 31.2076 15.792 31.2076 15.792C31.2076 15.792 31.2103 15.792 31.2156 15.792ZM31.2156 16.592H31.6156C31.621 16.592 31.6236 16.592 31.6236 16.592C31.6236 16.592 31.6236 16.5947 31.6236 16.6V17C31.6236 17.0053 31.6236 17.008 31.6236 17.008C31.6236 17.008 31.621 17.008 31.6156 17.008H31.2156C31.2103 17.008 31.2076 17.008 31.2076 17.008C31.2076 17.008 31.2076 17.0053 31.2076 17V16.6C31.2076 16.5947 31.2076 16.592 31.2076 16.592C31.2076 16.592 31.2103 16.592 31.2156 16.592ZM34.4156 16.592H34.8156C34.821 16.592 34.8236 16.592 34.8236 16.592C34.8236 16.592 34.8236 16.5947 34.8236 16.6V17C34.8236 17.0053 34.8236 17.008 34.8236 17.008C34.8236 17.008 34.821 17.008 34.8156 17.008H34.4156C34.4103 17.008 34.4076 17.008 34.4076 17.008C34.4076 17.008 34.4076 17.0053 34.4076 17V16.6C34.4076 16.5947 34.4076 16.592 34.4076 16.592C34.4076 16.592 34.4103 16.592 34.4156 16.592ZM32.0156 17.392H32.4156C32.421 17.392 32.4236 17.392 32.4236 17.392C32.4236 17.392 32.4236 17.3947 32.4236 17.4V17.8C32.4236 17.8053 32.4236 17.808 32.4236 17.808C32.4236 17.808 32.421 17.808 32.4156 17.808H32.0156C32.0103 17.808 32.0076 17.808 32.0076 17.808C32.0076 17.808 32.0076 17.8053 32.0076 17.8V17.4C32.0076 17.3947 32.0076 17.392 32.0076 17.392C32.0076 17.392 32.0103 17.392 32.0156 17.392ZM32.8156 17.392H33.2156C33.221 17.392 33.2236 17.392 33.2236 17.392C33.2236 17.392 33.2236 17.3947 33.2236 17.4V17.8C33.2236 17.8053 33.2236 17.808 33.2236 17.808C33.2236 17.808 33.221 17.808 33.2156 17.808H32.8156C32.8103 17.808 32.8076 17.808 32.8076 17.808C32.8076 17.808 32.8076 17.8053 32.8076 17.8V17.4C32.8076 17.3947 32.8076 17.392 32.8076 17.392C32.8076 17.392 32.8103 17.392 32.8156 17.392ZM33.6156 17.392H34.0156C34.021 17.392 34.0236 17.392 34.0236 17.392C34.0236 17.392 34.0236 17.3947 34.0236 17.4V17.8C34.0236 17.8053 34.0236 17.808 34.0236 17.808C34.0236 17.808 34.021 17.808 34.0156 17.808H33.6156C33.6103 17.808 33.6076 17.808 33.6076 17.808C33.6076 17.808 33.6076 17.8053 33.6076 17.8V17.4C33.6076 17.3947 33.6076 17.392 33.6076 17.392C33.6076 17.392 33.6103 17.392 33.6156 17.392ZM36.0125 12.592H36.4125C36.4178 12.592 36.4205 12.592 36.4205 12.592C36.4205 12.592 36.4205 12.5947 36.4205 12.6V13C36.4205 13.0053 36.4205 13.008 36.4205 13.008C36.4205 13.008 36.4178 13.008 36.4125 13.008H36.0125C36.0072 13.008 36.0045 13.008 36.0045 13.008C36.0045 13.008 36.0045 13.0053 36.0045 13V12.6C36.0045 12.5947 36.0045 12.592 36.0045 12.592C36.0045 12.592 36.0072 12.592 36.0125 12.592ZM39.2125 12.592H39.6125C39.6178 12.592 39.6205 12.592 39.6205 12.592C39.6205 12.592 39.6205 12.5947 39.6205 12.6V13C39.6205 13.0053 39.6205 13.008 39.6205 13.008C39.6205 13.008 39.6178 13.008 39.6125 13.008H39.2125C39.2072 13.008 39.2045 13.008 39.2045 13.008C39.2045 13.008 39.2045 13.0053 39.2045 13V12.6C39.2045 12.5947 39.2045 12.592 39.2045 12.592C39.2045 12.592 39.2072 12.592 39.2125 12.592ZM36.0125 13.392H36.4125C36.4178 13.392 36.4205 13.392 36.4205 13.392C36.4205 13.392 36.4205 13.3947 36.4205 13.4V13.8C36.4205 13.8053 36.4205 13.808 36.4205 13.808C36.4205 13.808 36.4178 13.808 36.4125 13.808H36.0125C36.0072 13.808 36.0045 13.808 36.0045 13.808C36.0045 13.808 36.0045 13.8053 36.0045 13.8V13.4C36.0045 13.3947 36.0045 13.392 36.0045 13.392C36.0045 13.392 36.0072 13.392 36.0125 13.392ZM39.2125 13.392H39.6125C39.6178 13.392 39.6205 13.392 39.6205 13.392C39.6205 13.392 39.6205 13.3947 39.6205 13.4V13.8C39.6205 13.8053 39.6205 13.808 39.6205 13.808C39.6205 13.808 39.6178 13.808 39.6125 13.808H39.2125C39.2072 13.808 39.2045 13.808 39.2045 13.808C39.2045 13.808 39.2045 13.8053 39.2045 13.8V13.4C39.2045 13.3947 39.2045 13.392 39.2045 13.392C39.2045 13.392 39.2072 13.392 39.2125 13.392ZM36.0125 14.192H36.4125C36.4178 14.192 36.4205 14.192 36.4205 14.192C36.4205 14.192 36.4205 14.1947 36.4205 14.2V14.6C36.4205 14.6053 36.4205 14.608 36.4205 14.608C36.4205 14.608 36.4178 14.608 36.4125 14.608H36.0125C36.0072 14.608 36.0045 14.608 36.0045 14.608C36.0045 14.608 36.0045 14.6053 36.0045 14.6V14.2C36.0045 14.1947 36.0045 14.192 36.0045 14.192C36.0045 14.192 36.0072 14.192 36.0125 14.192ZM39.2125 14.192H39.6125C39.6178 14.192 39.6205 14.192 39.6205 14.192C39.6205 14.192 39.6205 14.1947 39.6205 14.2V14.6C39.6205 14.6053 39.6205 14.608 39.6205 14.608C39.6205 14.608 39.6178 14.608 39.6125 14.608H39.2125C39.2072 14.608 39.2045 14.608 39.2045 14.608C39.2045 14.608 39.2045 14.6053 39.2045 14.6V14.2C39.2045 14.1947 39.2045 14.192 39.2045 14.192C39.2045 14.192 39.2072 14.192 39.2125 14.192ZM36.0125 14.992H36.4125C36.4178 14.992 36.4205 14.992 36.4205 14.992C36.4205 14.992 36.4205 14.9947 36.4205 15V15.4C36.4205 15.4053 36.4205 15.408 36.4205 15.408C36.4205 15.408 36.4178 15.408 36.4125 15.408H36.0125C36.0072 15.408 36.0045 15.408 36.0045 15.408C36.0045 15.408 36.0045 15.4053 36.0045 15.4V15C36.0045 14.9947 36.0045 14.992 36.0045 14.992C36.0045 14.992 36.0072 14.992 36.0125 14.992ZM36.8125 14.992H37.2125C37.2178 14.992 37.2205 14.992 37.2205 14.992C37.2205 14.992 37.2205 14.9947 37.2205 15V15.4C37.2205 15.4053 37.2205 15.408 37.2205 15.408C37.2205 15.408 37.2178 15.408 37.2125 15.408H36.8125C36.8072 15.408 36.8045 15.408 36.8045 15.408C36.8045 15.408 36.8045 15.4053 36.8045 15.4V15C36.8045 14.9947 36.8045 14.992 36.8045 14.992C36.8045 14.992 36.8072 14.992 36.8125 14.992ZM37.6125 14.992H38.0125C38.0178 14.992 38.0205 14.992 38.0205 14.992C38.0205 14.992 38.0205 14.9947 38.0205 15V15.4C38.0205 15.4053 38.0205 15.408 38.0205 15.408C38.0205 15.408 38.0178 15.408 38.0125 15.408H37.6125C37.6072 15.408 37.6045 15.408 37.6045 15.408C37.6045 15.408 37.6045 15.4053 37.6045 15.4V15C37.6045 14.9947 37.6045 14.992 37.6045 14.992C37.6045 14.992 37.6072 14.992 37.6125 14.992ZM38.4125 14.992H38.8125C38.8178 14.992 38.8205 14.992 38.8205 14.992C38.8205 14.992 38.8205 14.9947 38.8205 15V15.4C38.8205 15.4053 38.8205 15.408 38.8205 15.408C38.8205 15.408 38.8178 15.408 38.8125 15.408H38.4125C38.4072 15.408 38.4045 15.408 38.4045 15.408C38.4045 15.408 38.4045 15.4053 38.4045 15.4V15C38.4045 14.9947 38.4045 14.992 38.4045 14.992C38.4045 14.992 38.4072 14.992 38.4125 14.992ZM39.2125 14.992H39.6125C39.6178 14.992 39.6205 14.992 39.6205 14.992C39.6205 14.992 39.6205 14.9947 39.6205 15V15.4C39.6205 15.4053 39.6205 15.408 39.6205 15.408C39.6205 15.408 39.6178 15.408 39.6125 15.408H39.2125C39.2072 15.408 39.2045 15.408 39.2045 15.408C39.2045 15.408 39.2045 15.4053 39.2045 15.4V15C39.2045 14.9947 39.2045 14.992 39.2045 14.992C39.2045 14.992 39.2072 14.992 39.2125 14.992ZM36.0125 15.792H36.4125C36.4178 15.792 36.4205 15.792 36.4205 15.792C36.4205 15.792 36.4205 15.7947 36.4205 15.8V16.2C36.4205 16.2053 36.4205 16.208 36.4205 16.208C36.4205 16.208 36.4178 16.208 36.4125 16.208H36.0125C36.0072 16.208 36.0045 16.208 36.0045 16.208C36.0045 16.208 36.0045 16.2053 36.0045 16.2V15.8C36.0045 15.7947 36.0045 15.792 36.0045 15.792C36.0045 15.792 36.0072 15.792 36.0125 15.792ZM39.2125 15.792H39.6125C39.6178 15.792 39.6205 15.792 39.6205 15.792C39.6205 15.792 39.6205 15.7947 39.6205 15.8V16.2C39.6205 16.2053 39.6205 16.208 39.6205 16.208C39.6205 16.208 39.6178 16.208 39.6125 16.208H39.2125C39.2072 16.208 39.2045 16.208 39.2045 16.208C39.2045 16.208 39.2045 16.2053 39.2045 16.2V15.8C39.2045 15.7947 39.2045 15.792 39.2045 15.792C39.2045 15.792 39.2072 15.792 39.2125 15.792ZM36.0125 16.592H36.4125C36.4178 16.592 36.4205 16.592 36.4205 16.592C36.4205 16.592 36.4205 16.5947 36.4205 16.6V17C36.4205 17.0053 36.4205 17.008 36.4205 17.008C36.4205 17.008 36.4178 17.008 36.4125 17.008H36.0125C36.0072 17.008 36.0045 17.008 36.0045 17.008C36.0045 17.008 36.0045 17.0053 36.0045 17V16.6C36.0045 16.5947 36.0045 16.592 36.0045 16.592C36.0045 16.592 36.0072 16.592 36.0125 16.592ZM39.2125 16.592H39.6125C39.6178 16.592 39.6205 16.592 39.6205 16.592C39.6205 16.592 39.6205 16.5947 39.6205 16.6V17C39.6205 17.0053 39.6205 17.008 39.6205 17.008C39.6205 17.008 39.6178 17.008 39.6125 17.008H39.2125C39.2072 17.008 39.2045 17.008 39.2045 17.008C39.2045 17.008 39.2045 17.0053 39.2045 17V16.6C39.2045 16.5947 39.2045 16.592 39.2045 16.592C39.2045 16.592 39.2072 16.592 39.2125 16.592ZM36.0125 17.392H36.4125C36.4178 17.392 36.4205 17.392 36.4205 17.392C36.4205 17.392 36.4205 17.3947 36.4205 17.4V17.8C36.4205 17.8053 36.4205 17.808 36.4205 17.808C36.4205 17.808 36.4178 17.808 36.4125 17.808H36.0125C36.0072 17.808 36.0045 17.808 36.0045 17.808C36.0045 17.808 36.0045 17.8053 36.0045 17.8V17.4C36.0045 17.3947 36.0045 17.392 36.0045 17.392C36.0045 17.392 36.0072 17.392 36.0125 17.392ZM39.2125 17.392H39.6125C39.6178 17.392 39.6205 17.392 39.6205 17.392C39.6205 17.392 39.6205 17.3947 39.6205 17.4V17.8C39.6205 17.8053 39.6205 17.808 39.6205 17.808C39.6205 17.808 39.6178 17.808 39.6125 17.808H39.2125C39.2072 17.808 39.2045 17.808 39.2045 17.808C39.2045 17.808 39.2045 17.8053 39.2045 17.8V17.4C39.2045 17.3947 39.2045 17.392 39.2045 17.392C39.2045 17.392 39.2072 17.392 39.2125 17.392ZM40.8094 12.592H41.2094C41.2147 12.592 41.2174 12.592 41.2174 12.592C41.2174 12.592 41.2174 12.5947 41.2174 12.6V13C41.2174 13.0053 41.2174 13.008 41.2174 13.008C41.2174 13.008 41.2147 13.008 41.2094 13.008H40.8094C40.804 13.008 40.8014 13.008 40.8014 13.008C40.8014 13.008 40.8014 13.0053 40.8014 13V12.6C40.8014 12.5947 40.8014 12.592 40.8014 12.592C40.8014 12.592 40.804 12.592 40.8094 12.592ZM41.6094 12.592H42.0094C42.0147 12.592 42.0174 12.592 42.0174 12.592C42.0174 12.592 42.0174 12.5947 42.0174 12.6V13C42.0174 13.0053 42.0174 13.008 42.0174 13.008C42.0174 13.008 42.0147 13.008 42.0094 13.008H41.6094C41.604 13.008 41.6014 13.008 41.6014 13.008C41.6014 13.008 41.6014 13.0053 41.6014 13V12.6C41.6014 12.5947 41.6014 12.592 41.6014 12.592C41.6014 12.592 41.604 12.592 41.6094 12.592ZM42.4094 12.592H42.8094C42.8147 12.592 42.8174 12.592 42.8174 12.592C42.8174 12.592 42.8174 12.5947 42.8174 12.6V13C42.8174 13.0053 42.8174 13.008 42.8174 13.008C42.8174 13.008 42.8147 13.008 42.8094 13.008H42.4094C42.404 13.008 42.4014 13.008 42.4014 13.008C42.4014 13.008 42.4014 13.0053 42.4014 13V12.6C42.4014 12.5947 42.4014 12.592 42.4014 12.592C42.4014 12.592 42.404 12.592 42.4094 12.592ZM43.2094 12.592H43.6094C43.6147 12.592 43.6174 12.592 43.6174 12.592C43.6174 12.592 43.6174 12.5947 43.6174 12.6V13C43.6174 13.0053 43.6174 13.008 43.6174 13.008C43.6174 13.008 43.6147 13.008 43.6094 13.008H43.2094C43.204 13.008 43.2014 13.008 43.2014 13.008C43.2014 13.008 43.2014 13.0053 43.2014 13V12.6C43.2014 12.5947 43.2014 12.592 43.2014 12.592C43.2014 12.592 43.204 12.592 43.2094 12.592ZM44.0094 12.592H44.4094C44.4147 12.592 44.4174 12.592 44.4174 12.592C44.4174 12.592 44.4174 12.5947 44.4174 12.6V13C44.4174 13.0053 44.4174 13.008 44.4174 13.008C44.4174 13.008 44.4147 13.008 44.4094 13.008H44.0094C44.004 13.008 44.0014 13.008 44.0014 13.008C44.0014 13.008 44.0014 13.0053 44.0014 13V12.6C44.0014 12.5947 44.0014 12.592 44.0014 12.592C44.0014 12.592 44.004 12.592 44.0094 12.592ZM40.8094 13.392H41.2094C41.2147 13.392 41.2174 13.392 41.2174 13.392C41.2174 13.392 41.2174 13.3947 41.2174 13.4V13.8C41.2174 13.8053 41.2174 13.808 41.2174 13.808C41.2174 13.808 41.2147 13.808 41.2094 13.808H40.8094C40.804 13.808 40.8014 13.808 40.8014 13.808C40.8014 13.808 40.8014 13.8053 40.8014 13.8V13.4C40.8014 13.3947 40.8014 13.392 40.8014 13.392C40.8014 13.392 40.804 13.392 40.8094 13.392ZM40.8094 14.192H41.2094C41.2147 14.192 41.2174 14.192 41.2174 14.192C41.2174 14.192 41.2174 14.1947 41.2174 14.2V14.6C41.2174 14.6053 41.2174 14.608 41.2174 14.608C41.2174 14.608 41.2147 14.608 41.2094 14.608H40.8094C40.804 14.608 40.8014 14.608 40.8014 14.608C40.8014 14.608 40.8014 14.6053 40.8014 14.6V14.2C40.8014 14.1947 40.8014 14.192 40.8014 14.192C40.8014 14.192 40.804 14.192 40.8094 14.192ZM40.8094 14.992H41.2094C41.2147 14.992 41.2174 14.992 41.2174 14.992C41.2174 14.992 41.2174 14.9947 41.2174 15V15.4C41.2174 15.4053 41.2174 15.408 41.2174 15.408C41.2174 15.408 41.2147 15.408 41.2094 15.408H40.8094C40.804 15.408 40.8014 15.408 40.8014 15.408C40.8014 15.408 40.8014 15.4053 40.8014 15.4V15C40.8014 14.9947 40.8014 14.992 40.8014 14.992C40.8014 14.992 40.804 14.992 40.8094 14.992ZM41.6094 14.992H42.0094C42.0147 14.992 42.0174 14.992 42.0174 14.992C42.0174 14.992 42.0174 14.9947 42.0174 15V15.4C42.0174 15.4053 42.0174 15.408 42.0174 15.408C42.0174 15.408 42.0147 15.408 42.0094 15.408H41.6094C41.604 15.408 41.6014 15.408 41.6014 15.408C41.6014 15.408 41.6014 15.4053 41.6014 15.4V15C41.6014 14.9947 41.6014 14.992 41.6014 14.992C41.6014 14.992 41.604 14.992 41.6094 14.992ZM42.4094 14.992H42.8094C42.8147 14.992 42.8174 14.992 42.8174 14.992C42.8174 14.992 42.8174 14.9947 42.8174 15V15.4C42.8174 15.4053 42.8174 15.408 42.8174 15.408C42.8174 15.408 42.8147 15.408 42.8094 15.408H42.4094C42.404 15.408 42.4014 15.408 42.4014 15.408C42.4014 15.408 42.4014 15.4053 42.4014 15.4V15C42.4014 14.9947 42.4014 14.992 42.4014 14.992C42.4014 14.992 42.404 14.992 42.4094 14.992ZM43.2094 14.992H43.6094C43.6147 14.992 43.6174 14.992 43.6174 14.992C43.6174 14.992 43.6174 14.9947 43.6174 15V15.4C43.6174 15.4053 43.6174 15.408 43.6174 15.408C43.6174 15.408 43.6147 15.408 43.6094 15.408H43.2094C43.204 15.408 43.2014 15.408 43.2014 15.408C43.2014 15.408 43.2014 15.4053 43.2014 15.4V15C43.2014 14.9947 43.2014 14.992 43.2014 14.992C43.2014 14.992 43.204 14.992 43.2094 14.992ZM40.8094 15.792H41.2094C41.2147 15.792 41.2174 15.792 41.2174 15.792C41.2174 15.792 41.2174 15.7947 41.2174 15.8V16.2C41.2174 16.2053 41.2174 16.208 41.2174 16.208C41.2174 16.208 41.2147 16.208 41.2094 16.208H40.8094C40.804 16.208 40.8014 16.208 40.8014 16.208C40.8014 16.208 40.8014 16.2053 40.8014 16.2V15.8C40.8014 15.7947 40.8014 15.792 40.8014 15.792C40.8014 15.792 40.804 15.792 40.8094 15.792ZM40.8094 16.592H41.2094C41.2147 16.592 41.2174 16.592 41.2174 16.592C41.2174 16.592 41.2174 16.5947 41.2174 16.6V17C41.2174 17.0053 41.2174 17.008 41.2174 17.008C41.2174 17.008 41.2147 17.008 41.2094 17.008H40.8094C40.804 17.008 40.8014 17.008 40.8014 17.008C40.8014 17.008 40.8014 17.0053 40.8014 17V16.6C40.8014 16.5947 40.8014 16.592 40.8014 16.592C40.8014 16.592 40.804 16.592 40.8094 16.592ZM40.8094 17.392H41.2094C41.2147 17.392 41.2174 17.392 41.2174 17.392C41.2174 17.392 41.2174 17.3947 41.2174 17.4V17.8C41.2174 17.8053 41.2174 17.808 41.2174 17.808C41.2174 17.808 41.2147 17.808 41.2094 17.808H40.8094C40.804 17.808 40.8014 17.808 40.8014 17.808C40.8014 17.808 40.8014 17.8053 40.8014 17.8V17.4C40.8014 17.3947 40.8014 17.392 40.8014 17.392C40.8014 17.392 40.804 17.392 40.8094 17.392ZM41.6094 17.392H42.0094C42.0147 17.392 42.0174 17.392 42.0174 17.392C42.0174 17.392 42.0174 17.3947 42.0174 17.4V17.8C42.0174 17.8053 42.0174 17.808 42.0174 17.808C42.0174 17.808 42.0147 17.808 42.0094 17.808H41.6094C41.604 17.808 41.6014 17.808 41.6014 17.808C41.6014 17.808 41.6014 17.8053 41.6014 17.8V17.4C41.6014 17.3947 41.6014 17.392 41.6014 17.392C41.6014 17.392 41.604 17.392 41.6094 17.392ZM42.4094 17.392H42.8094C42.8147 17.392 42.8174 17.392 42.8174 17.392C42.8174 17.392 42.8174 17.3947 42.8174 17.4V17.8C42.8174 17.8053 42.8174 17.808 42.8174 17.808C42.8174 17.808 42.8147 17.808 42.8094 17.808H42.4094C42.404 17.808 42.4014 17.808 42.4014 17.808C42.4014 17.808 42.4014 17.8053 42.4014 17.8V17.4C42.4014 17.3947 42.4014 17.392 42.4014 17.392C42.4014 17.392 42.404 17.392 42.4094 17.392ZM43.2094 17.392H43.6094C43.6147 17.392 43.6174 17.392 43.6174 17.392C43.6174 17.392 43.6174 17.3947 43.6174 17.4V17.8C43.6174 17.8053 43.6174 17.808 43.6174 17.808C43.6174 17.808 43.6147 17.808 43.6094 17.808H43.2094C43.204 17.808 43.2014 17.808 43.2014 17.808C43.2014 17.808 43.2014 17.8053 43.2014 17.8V17.4C43.2014 17.3947 43.2014 17.392 43.2014 17.392C43.2014 17.392 43.204 17.392 43.2094 17.392ZM44.0094 17.392H44.4094C44.4147 17.392 44.4174 17.392 44.4174 17.392C44.4174 17.392 44.4174 17.3947 44.4174 17.4V17.8C44.4174 17.8053 44.4174 17.808 44.4174 17.808C44.4174 17.808 44.4147 17.808 44.4094 17.808H44.0094C44.004 17.808 44.0014 17.808 44.0014 17.808C44.0014 17.808 44.0014 17.8053 44.0014 17.8V17.4C44.0014 17.3947 44.0014 17.392 44.0014 17.392C44.0014 17.392 44.004 17.392 44.0094 17.392ZM45.6063 12.592H46.0063C46.0116 12.592 46.0143 12.592 46.0143 12.592C46.0143 12.592 46.0143 12.5947 46.0143 12.6V13C46.0143 13.0053 46.0143 13.008 46.0143 13.008C46.0143 13.008 46.0116 13.008 46.0063 13.008H45.6063C45.6009 13.008 45.5983 13.008 45.5983 13.008C45.5983 13.008 45.5983 13.0053 45.5983 13V12.6C45.5983 12.5947 45.5983 12.592 45.5983 12.592C45.5983 12.592 45.6009 12.592 45.6063 12.592ZM48.8063 12.592H49.2063C49.2116 12.592 49.2143 12.592 49.2143 12.592C49.2143 12.592 49.2143 12.5947 49.2143 12.6V13C49.2143 13.0053 49.2143 13.008 49.2143 13.008C49.2143 13.008 49.2116 13.008 49.2063 13.008H48.8063C48.8009 13.008 48.7983 13.008 48.7983 13.008C48.7983 13.008 48.7983 13.0053 48.7983 13V12.6C48.7983 12.5947 48.7983 12.592 48.7983 12.592C48.7983 12.592 48.8009 12.592 48.8063 12.592ZM45.6063 13.392H46.0063C46.0116 13.392 46.0143 13.392 46.0143 13.392C46.0143 13.392 46.0143 13.3947 46.0143 13.4V13.8C46.0143 13.8053 46.0143 13.808 46.0143 13.808C46.0143 13.808 46.0116 13.808 46.0063 13.808H45.6063C45.6009 13.808 45.5983 13.808 45.5983 13.808C45.5983 13.808 45.5983 13.8053 45.5983 13.8V13.4C45.5983 13.3947 45.5983 13.392 45.5983 13.392C45.5983 13.392 45.6009 13.392 45.6063 13.392ZM48.8063 13.392H49.2063C49.2116 13.392 49.2143 13.392 49.2143 13.392C49.2143 13.392 49.2143 13.3947 49.2143 13.4V13.8C49.2143 13.8053 49.2143 13.808 49.2143 13.808C49.2143 13.808 49.2116 13.808 49.2063 13.808H48.8063C48.8009 13.808 48.7983 13.808 48.7983 13.808C48.7983 13.808 48.7983 13.8053 48.7983 13.8V13.4C48.7983 13.3947 48.7983 13.392 48.7983 13.392C48.7983 13.392 48.8009 13.392 48.8063 13.392ZM45.6063 14.192H46.0063C46.0116 14.192 46.0143 14.192 46.0143 14.192C46.0143 14.192 46.0143 14.1947 46.0143 14.2V14.6C46.0143 14.6053 46.0143 14.608 46.0143 14.608C46.0143 14.608 46.0116 14.608 46.0063 14.608H45.6063C45.6009 14.608 45.5983 14.608 45.5983 14.608C45.5983 14.608 45.5983 14.6053 45.5983 14.6V14.2C45.5983 14.1947 45.5983 14.192 45.5983 14.192C45.5983 14.192 45.6009 14.192 45.6063 14.192ZM46.4062 14.192H46.8063C46.8116 14.192 46.8143 14.192 46.8143 14.192C46.8143 14.192 46.8143 14.1947 46.8143 14.2V14.6C46.8143 14.6053 46.8143 14.608 46.8143 14.608C46.8143 14.608 46.8116 14.608 46.8063 14.608H46.4062C46.4009 14.608 46.3983 14.608 46.3983 14.608C46.3983 14.608 46.3983 14.6053 46.3983 14.6V14.2C46.3983 14.1947 46.3983 14.192 46.3983 14.192C46.3983 14.192 46.4009 14.192 46.4062 14.192ZM48.8063 14.192H49.2063C49.2116 14.192 49.2143 14.192 49.2143 14.192C49.2143 14.192 49.2143 14.1947 49.2143 14.2V14.6C49.2143 14.6053 49.2143 14.608 49.2143 14.608C49.2143 14.608 49.2116 14.608 49.2063 14.608H48.8063C48.8009 14.608 48.7983 14.608 48.7983 14.608C48.7983 14.608 48.7983 14.6053 48.7983 14.6V14.2C48.7983 14.1947 48.7983 14.192 48.7983 14.192C48.7983 14.192 48.8009 14.192 48.8063 14.192ZM45.6063 14.992H46.0063C46.0116 14.992 46.0143 14.992 46.0143 14.992C46.0143 14.992 46.0143 14.9947 46.0143 15V15.4C46.0143 15.4053 46.0143 15.408 46.0143 15.408C46.0143 15.408 46.0116 15.408 46.0063 15.408H45.6063C45.6009 15.408 45.5983 15.408 45.5983 15.408C45.5983 15.408 45.5983 15.4053 45.5983 15.4V15C45.5983 14.9947 45.5983 14.992 45.5983 14.992C45.5983 14.992 45.6009 14.992 45.6063 14.992ZM47.2063 14.992H47.6063C47.6116 14.992 47.6143 14.992 47.6143 14.992C47.6143 14.992 47.6143 14.9947 47.6143 15V15.4C47.6143 15.4053 47.6143 15.408 47.6143 15.408C47.6143 15.408 47.6116 15.408 47.6063 15.408H47.2063C47.2009 15.408 47.1983 15.408 47.1983 15.408C47.1983 15.408 47.1983 15.4053 47.1983 15.4V15C47.1983 14.9947 47.1983 14.992 47.1983 14.992C47.1983 14.992 47.2009 14.992 47.2063 14.992ZM48.8063 14.992H49.2063C49.2116 14.992 49.2143 14.992 49.2143 14.992C49.2143 14.992 49.2143 14.9947 49.2143 15V15.4C49.2143 15.4053 49.2143 15.408 49.2143 15.408C49.2143 15.408 49.2116 15.408 49.2063 15.408H48.8063C48.8009 15.408 48.7983 15.408 48.7983 15.408C48.7983 15.408 48.7983 15.4053 48.7983 15.4V15C48.7983 14.9947 48.7983 14.992 48.7983 14.992C48.7983 14.992 48.8009 14.992 48.8063 14.992ZM45.6063 15.792H46.0063C46.0116 15.792 46.0143 15.792 46.0143 15.792C46.0143 15.792 46.0143 15.7947 46.0143 15.8V16.2C46.0143 16.2053 46.0143 16.208 46.0143 16.208C46.0143 16.208 46.0116 16.208 46.0063 16.208H45.6063C45.6009 16.208 45.5983 16.208 45.5983 16.208C45.5983 16.208 45.5983 16.2053 45.5983 16.2V15.8C45.5983 15.7947 45.5983 15.792 45.5983 15.792C45.5983 15.792 45.6009 15.792 45.6063 15.792ZM48.0063 15.792H48.4063C48.4116 15.792 48.4143 15.792 48.4143 15.792C48.4143 15.792 48.4143 15.7947 48.4143 15.8V16.2C48.4143 16.2053 48.4143 16.208 48.4143 16.208C48.4143 16.208 48.4116 16.208 48.4063 16.208H48.0063C48.0009 16.208 47.9983 16.208 47.9983 16.208C47.9983 16.208 47.9983 16.2053 47.9983 16.2V15.8C47.9983 15.7947 47.9983 15.792 47.9983 15.792C47.9983 15.792 48.0009 15.792 48.0063 15.792ZM48.8063 15.792H49.2063C49.2116 15.792 49.2143 15.792 49.2143 15.792C49.2143 15.792 49.2143 15.7947 49.2143 15.8V16.2C49.2143 16.2053 49.2143 16.208 49.2143 16.208C49.2143 16.208 49.2116 16.208 49.2063 16.208H48.8063C48.8009 16.208 48.7983 16.208 48.7983 16.208C48.7983 16.208 48.7983 16.2053 48.7983 16.2V15.8C48.7983 15.7947 48.7983 15.792 48.7983 15.792C48.7983 15.792 48.8009 15.792 48.8063 15.792ZM45.6063 16.592H46.0063C46.0116 16.592 46.0143 16.592 46.0143 16.592C46.0143 16.592 46.0143 16.5947 46.0143 16.6V17C46.0143 17.0053 46.0143 17.008 46.0143 17.008C46.0143 17.008 46.0116 17.008 46.0063 17.008H45.6063C45.6009 17.008 45.5983 17.008 45.5983 17.008C45.5983 17.008 45.5983 17.0053 45.5983 17V16.6C45.5983 16.5947 45.5983 16.592 45.5983 16.592C45.5983 16.592 45.6009 16.592 45.6063 16.592ZM48.8063 16.592H49.2063C49.2116 16.592 49.2143 16.592 49.2143 16.592C49.2143 16.592 49.2143 16.5947 49.2143 16.6V17C49.2143 17.0053 49.2143 17.008 49.2143 17.008C49.2143 17.008 49.2116 17.008 49.2063 17.008H48.8063C48.8009 17.008 48.7983 17.008 48.7983 17.008C48.7983 17.008 48.7983 17.0053 48.7983 17V16.6C48.7983 16.5947 48.7983 16.592 48.7983 16.592C48.7983 16.592 48.8009 16.592 48.8063 16.592ZM45.6063 17.392H46.0063C46.0116 17.392 46.0143 17.392 46.0143 17.392C46.0143 17.392 46.0143 17.3947 46.0143 17.4V17.8C46.0143 17.8053 46.0143 17.808 46.0143 17.808C46.0143 17.808 46.0116 17.808 46.0063 17.808H45.6063C45.6009 17.808 45.5983 17.808 45.5983 17.808C45.5983 17.808 45.5983 17.8053 45.5983 17.8V17.4C45.5983 17.3947 45.5983 17.392 45.5983 17.392C45.5983 17.392 45.6009 17.392 45.6063 17.392ZM48.8063 17.392H49.2063C49.2116 17.392 49.2143 17.392 49.2143 17.392C49.2143 17.392 49.2143 17.3947 49.2143 17.4V17.8C49.2143 17.8053 49.2143 17.808 49.2143 17.808C49.2143 17.808 49.2116 17.808 49.2063 17.808H48.8063C48.8009 17.808 48.7983 17.808 48.7983 17.808C48.7983 17.808 48.7983 17.8053 48.7983 17.8V17.4C48.7983 17.3947 48.7983 17.392 48.7983 17.392C48.7983 17.392 48.8009 17.392 48.8063 17.392ZM51.2031 12.592H51.6031C51.6085 12.592 51.6111 12.592 51.6111 12.592C51.6111 12.592 51.6111 12.5947 51.6111 12.6V13C51.6111 13.0053 51.6111 13.008 51.6111 13.008C51.6111 13.008 51.6085 13.008 51.6031 13.008H51.2031C51.1978 13.008 51.1951 13.008 51.1951 13.008C51.1951 13.008 51.1951 13.0053 51.1951 13V12.6C51.1951 12.5947 51.1951 12.592 51.1951 12.592C51.1951 12.592 51.1978 12.592 51.2031 12.592ZM52.0031 12.592H52.4031C52.4085 12.592 52.4111 12.592 52.4111 12.592C52.4111 12.592 52.4111 12.5947 52.4111 12.6V13C52.4111 13.0053 52.4111 13.008 52.4111 13.008C52.4111 13.008 52.4085 13.008 52.4031 13.008H52.0031C51.9978 13.008 51.9951 13.008 51.9951 13.008C51.9951 13.008 51.9951 13.0053 51.9951 13V12.6C51.9951 12.5947 51.9951 12.592 51.9951 12.592C51.9951 12.592 51.9978 12.592 52.0031 12.592ZM52.8031 12.592H53.2031C53.2085 12.592 53.2111 12.592 53.2111 12.592C53.2111 12.592 53.2111 12.5947 53.2111 12.6V13C53.2111 13.0053 53.2111 13.008 53.2111 13.008C53.2111 13.008 53.2085 13.008 53.2031 13.008H52.8031C52.7978 13.008 52.7951 13.008 52.7951 13.008C52.7951 13.008 52.7951 13.0053 52.7951 13V12.6C52.7951 12.5947 52.7951 12.592 52.7951 12.592C52.7951 12.592 52.7978 12.592 52.8031 12.592ZM50.4031 13.392H50.8031C50.8085 13.392 50.8111 13.392 50.8111 13.392C50.8111 13.392 50.8111 13.3947 50.8111 13.4V13.8C50.8111 13.8053 50.8111 13.808 50.8111 13.808C50.8111 13.808 50.8085 13.808 50.8031 13.808H50.4031C50.3978 13.808 50.3951 13.808 50.3951 13.808C50.3951 13.808 50.3951 13.8053 50.3951 13.8V13.4C50.3951 13.3947 50.3951 13.392 50.3951 13.392C50.3951 13.392 50.3978 13.392 50.4031 13.392ZM53.6031 13.392H54.0031C54.0085 13.392 54.0111 13.392 54.0111 13.392C54.0111 13.392 54.0111 13.3947 54.0111 13.4V13.8C54.0111 13.8053 54.0111 13.808 54.0111 13.808C54.0111 13.808 54.0085 13.808 54.0031 13.808H53.6031C53.5978 13.808 53.5951 13.808 53.5951 13.808C53.5951 13.808 53.5951 13.8053 53.5951 13.8V13.4C53.5951 13.3947 53.5951 13.392 53.5951 13.392C53.5951 13.392 53.5978 13.392 53.6031 13.392ZM50.4031 14.192H50.8031C50.8085 14.192 50.8111 14.192 50.8111 14.192C50.8111 14.192 50.8111 14.1947 50.8111 14.2V14.6C50.8111 14.6053 50.8111 14.608 50.8111 14.608C50.8111 14.608 50.8085 14.608 50.8031 14.608H50.4031C50.3978 14.608 50.3951 14.608 50.3951 14.608C50.3951 14.608 50.3951 14.6053 50.3951 14.6V14.2C50.3951 14.1947 50.3951 14.192 50.3951 14.192C50.3951 14.192 50.3978 14.192 50.4031 14.192ZM50.4031 14.992H50.8031C50.8085 14.992 50.8111 14.992 50.8111 14.992C50.8111 14.992 50.8111 14.9947 50.8111 15V15.4C50.8111 15.4053 50.8111 15.408 50.8111 15.408C50.8111 15.408 50.8085 15.408 50.8031 15.408H50.4031C50.3978 15.408 50.3951 15.408 50.3951 15.408C50.3951 15.408 50.3951 15.4053 50.3951 15.4V15C50.3951 14.9947 50.3951 14.992 50.3951 14.992C50.3951 14.992 50.3978 14.992 50.4031 14.992ZM50.4031 15.792H50.8031C50.8085 15.792 50.8111 15.792 50.8111 15.792C50.8111 15.792 50.8111 15.7947 50.8111 15.8V16.2C50.8111 16.2053 50.8111 16.208 50.8111 16.208C50.8111 16.208 50.8085 16.208 50.8031 16.208H50.4031C50.3978 16.208 50.3951 16.208 50.3951 16.208C50.3951 16.208 50.3951 16.2053 50.3951 16.2V15.8C50.3951 15.7947 50.3951 15.792 50.3951 15.792C50.3951 15.792 50.3978 15.792 50.4031 15.792ZM52.8031 15.792H53.2031C53.2085 15.792 53.2111 15.792 53.2111 15.792C53.2111 15.792 53.2111 15.7947 53.2111 15.8V16.2C53.2111 16.2053 53.2111 16.208 53.2111 16.208C53.2111 16.208 53.2085 16.208 53.2031 16.208H52.8031C52.7978 16.208 52.7951 16.208 52.7951 16.208C52.7951 16.208 52.7951 16.2053 52.7951 16.2V15.8C52.7951 15.7947 52.7951 15.792 52.7951 15.792C52.7951 15.792 52.7978 15.792 52.8031 15.792ZM53.6031 15.792H54.0031C54.0085 15.792 54.0111 15.792 54.0111 15.792C54.0111 15.792 54.0111 15.7947 54.0111 15.8V16.2C54.0111 16.2053 54.0111 16.208 54.0111 16.208C54.0111 16.208 54.0085 16.208 54.0031 16.208H53.6031C53.5978 16.208 53.5951 16.208 53.5951 16.208C53.5951 16.208 53.5951 16.2053 53.5951 16.2V15.8C53.5951 15.7947 53.5951 15.792 53.5951 15.792C53.5951 15.792 53.5978 15.792 53.6031 15.792ZM50.4031 16.592H50.8031C50.8085 16.592 50.8111 16.592 50.8111 16.592C50.8111 16.592 50.8111 16.5947 50.8111 16.6V17C50.8111 17.0053 50.8111 17.008 50.8111 17.008C50.8111 17.008 50.8085 17.008 50.8031 17.008H50.4031C50.3978 17.008 50.3951 17.008 50.3951 17.008C50.3951 17.008 50.3951 17.0053 50.3951 17V16.6C50.3951 16.5947 50.3951 16.592 50.3951 16.592C50.3951 16.592 50.3978 16.592 50.4031 16.592ZM53.6031 16.592H54.0031C54.0085 16.592 54.0111 16.592 54.0111 16.592C54.0111 16.592 54.0111 16.5947 54.0111 16.6V17C54.0111 17.0053 54.0111 17.008 54.0111 17.008C54.0111 17.008 54.0085 17.008 54.0031 17.008H53.6031C53.5978 17.008 53.5951 17.008 53.5951 17.008C53.5951 17.008 53.5951 17.0053 53.5951 17V16.6C53.5951 16.5947 53.5951 16.592 53.5951 16.592C53.5951 16.592 53.5978 16.592 53.6031 16.592ZM51.2031 17.392H51.6031C51.6085 17.392 51.6111 17.392 51.6111 17.392C51.6111 17.392 51.6111 17.3947 51.6111 17.4V17.8C51.6111 17.8053 51.6111 17.808 51.6111 17.808C51.6111 17.808 51.6085 17.808 51.6031 17.808H51.2031C51.1978 17.808 51.1951 17.808 51.1951 17.808C51.1951 17.808 51.1951 17.8053 51.1951 17.8V17.4C51.1951 17.3947 51.1951 17.392 51.1951 17.392C51.1951 17.392 51.1978 17.392 51.2031 17.392ZM52.0031 17.392H52.4031C52.4085 17.392 52.4111 17.392 52.4111 17.392C52.4111 17.392 52.4111 17.3947 52.4111 17.4V17.8C52.4111 17.8053 52.4111 17.808 52.4111 17.808C52.4111 17.808 52.4085 17.808 52.4031 17.808H52.0031C51.9978 17.808 51.9951 17.808 51.9951 17.808C51.9951 17.808 51.9951 17.8053 51.9951 17.8V17.4C51.9951 17.3947 51.9951 17.392 51.9951 17.392C51.9951 17.392 51.9978 17.392 52.0031 17.392ZM52.8031 17.392H53.2031C53.2085 17.392 53.2111 17.392 53.2111 17.392C53.2111 17.392 53.2111 17.3947 53.2111 17.4V17.8C53.2111 17.8053 53.2111 17.808 53.2111 17.808C53.2111 17.808 53.2085 17.808 53.2031 17.808H52.8031C52.7978 17.808 52.7951 17.808 52.7951 17.808C52.7951 17.808 52.7951 17.8053 52.7951 17.8V17.4C52.7951 17.3947 52.7951 17.392 52.7951 17.392C52.7951 17.392 52.7978 17.392 52.8031 17.392Z" fill="black"/>
</svg>
