<svg width="124" height="34" viewBox="0 0 124 34" fill="none" xmlns="http://www.w3.org/2000/svg">
<path d="M14.4058 21.8887C14.4058 21.3176 14.3107 20.8084 14.1203 20.361C13.9299 19.9137 13.6158 19.5139 13.178 19.1617C12.7497 18.8 12.1691 18.4669 11.4362 18.1623C10.7128 17.8482 9.80854 17.5389 8.72346 17.2343C7.68597 16.9392 6.74842 16.6156 5.91082 16.2634C5.07322 15.9113 4.35459 15.5067 3.75494 15.0499C3.16481 14.593 2.7127 14.06 2.39859 13.4508C2.08449 12.8321 1.92744 12.1135 1.92744 11.2949C1.92744 10.4954 2.09877 9.76725 2.44143 9.11049C2.78408 8.45373 3.26475 7.8874 3.88344 7.41148C4.51164 6.93557 5.2493 6.56912 6.09643 6.31213C6.95307 6.05514 7.89061 5.92664 8.90906 5.92664C10.3654 5.92664 11.6218 6.20267 12.6783 6.75473C13.7443 7.30678 14.5676 8.05396 15.1483 8.99627C15.7384 9.92906 16.0335 10.9761 16.0335 12.1373H14.2773C14.2773 11.2331 14.0632 10.4288 13.6349 9.72441C13.2161 9.01055 12.6069 8.45373 11.8074 8.05396C11.0174 7.64468 10.0512 7.44004 8.90906 7.44004C7.76687 7.44004 6.80553 7.61613 6.02504 7.9683C5.25406 8.31096 4.66869 8.77259 4.26893 9.3532C3.87868 9.9243 3.68355 10.562 3.68355 11.2664C3.68355 11.7613 3.77874 12.2182 3.9691 12.637C4.15947 13.0463 4.46881 13.4318 4.89713 13.7935C5.33497 14.1456 5.91082 14.4788 6.62469 14.7929C7.33855 15.0975 8.21899 15.3878 9.266 15.6638C10.3701 15.9684 11.3505 16.3063 12.2071 16.6775C13.0638 17.0487 13.7872 17.477 14.3773 17.9624C14.9674 18.4384 15.4148 18.9952 15.7194 19.6329C16.0239 20.2706 16.1762 21.013 16.1762 21.8602C16.1762 22.7073 15.9954 23.4687 15.6337 24.1445C15.2815 24.8108 14.7818 25.3771 14.1346 25.8435C13.4968 26.3099 12.7401 26.6669 11.8645 26.9143C10.9983 27.1618 10.0512 27.2855 9.02328 27.2855C8.10001 27.2855 7.1815 27.1666 6.26775 26.9286C5.354 26.6907 4.5164 26.3242 3.75494 25.8293C3.003 25.3248 2.39859 24.6776 1.94172 23.8875C1.49436 23.0975 1.27068 22.1552 1.27068 21.0606H3.01252C3.01252 21.9363 3.18861 22.674 3.54078 23.2736C3.89296 23.8733 4.35935 24.3587 4.93996 24.7299C5.53009 25.1011 6.17733 25.3724 6.88168 25.5437C7.59555 25.7055 8.30941 25.7864 9.02328 25.7864C10.1179 25.7864 11.0649 25.6246 11.8645 25.301C12.6735 24.9774 13.297 24.5253 13.7348 23.9446C14.1822 23.3545 14.4058 22.6692 14.4058 21.8887ZM26.7986 7.45432L19.6028 27H17.7753L25.6278 6.21219H26.8985L26.7986 7.45432ZM33.3376 27L26.1275 7.45432L26.0276 6.21219H27.2983L35.1651 27H33.3376ZM32.0526 19.6614V21.1748H21.0162V19.6614H32.0526ZM36.6928 6.21219L42.9891 17.5341L49.3425 6.21219H51.3699L43.8743 19.1617V27H42.1182V19.1617L34.6083 6.21219H36.6928ZM67.332 25.5009V27H55.6388V25.5009H67.332ZM56.1671 6.21219V27H54.411V6.21219H56.1671ZM65.8757 15.5353V17.0344H55.6388V15.5353H65.8757ZM67.2606 6.21219V7.72559H55.6388V6.21219H67.2606Z" fill="black"/>
<path d="M94.5301 32.2697C77.9401 32.2697 66.3801 29.6097 66.3801 27.2197C66.3801 24.8297 77.9401 22.1697 94.5301 22.1697C111.12 22.1697 122.68 24.8297 122.68 27.2197C122.68 29.6097 111.12 32.2697 94.5301 32.2697Z" fill="#EFEFEF"/>
<path d="M94.53 22.5398C102.1 22.5398 109.22 23.0998 114.56 24.1198C120.69 25.2898 122.3 26.6598 122.3 27.2198C122.3 27.7798 120.68 29.1598 114.56 30.3198C109.22 31.3398 102.11 31.8998 94.53 31.8998C86.95 31.8998 79.85 31.3398 74.5 30.3198C68.37 29.1498 66.76 27.7798 66.76 27.2198C66.76 26.6598 68.38 25.2798 74.5 24.1198C79.84 23.0998 86.95 22.5398 94.53 22.5398ZM94.53 21.7898C78.78 21.7898 66.01 24.2198 66.01 27.2198C66.01 30.2198 78.78 32.6498 94.53 32.6498C110.28 32.6498 123.05 30.2198 123.05 27.2198C123.05 24.2198 110.28 21.7898 94.53 21.7898Z" fill="black"/>
<path d="M94.3502 26.28C88.6302 26.28 83.9702 21.62 83.9702 15.9C83.9702 10.18 88.6202 5.52002 94.3502 5.52002C100.08 5.52002 104.73 10.17 104.73 15.9C104.73 21.63 100.07 26.28 94.3502 26.28Z" fill="white"/>
<path d="M94.3501 5.90991C99.8601 5.90991 104.35 10.3999 104.35 15.9099C104.35 21.4199 99.8601 25.9099 94.3501 25.9099C88.8401 25.9099 84.3501 21.4199 84.3501 15.9099C84.3501 10.3999 88.8401 5.90991 94.3501 5.90991ZM94.3501 5.15991C88.4101 5.15991 83.6001 9.96991 83.6001 15.9099C83.6001 21.8499 88.4101 26.6599 94.3501 26.6599C100.29 26.6599 105.1 21.8499 105.1 15.9099C105.1 9.96991 100.29 5.15991 94.3501 5.15991Z" fill="black"/>
<path d="M110.71 26.28C104.99 26.28 100.33 21.62 100.33 15.9C100.33 10.18 104.99 5.52002 110.71 5.52002C116.43 5.52002 121.09 10.17 121.09 15.9C121.09 21.63 116.44 26.28 110.71 26.28Z" fill="#E6FAFF"/>
<path d="M110.71 5.90991C116.22 5.90991 120.71 10.3999 120.71 15.9099C120.71 21.4199 116.22 25.9099 110.71 25.9099C105.2 25.9099 100.71 21.4199 100.71 15.9099C100.71 10.3999 105.2 5.90991 110.71 5.90991ZM110.71 5.15991C104.77 5.15991 99.9602 9.96991 99.9602 15.9099C99.9602 21.8499 104.77 26.6599 110.71 26.6599C116.65 26.6599 121.46 21.8499 121.46 15.9099C121.46 9.96991 116.65 5.15991 110.71 5.15991Z" fill="black"/>
<path d="M105.44 18.6599H88.45V14.0199H105.44V10.1099L116.24 16.3399L105.44 22.5699V18.6599Z" fill="#439EF9"/>
<path d="M105.82 10.76L115.49 16.34L105.82 21.92V18.28H88.8201V14.39H105.82V10.75M105.07 9.45996V13.65H88.0701V19.04H105.07V23.23L116.99 16.35L105.07 9.46996V9.45996Z" fill="black"/>
</svg>
