<svg width="39" height="19" viewBox="0 0 39 19" fill="none" xmlns="http://www.w3.org/2000/svg">
<path d="M12.8201 2.82H15.8601L17.0001 1.38L18.4201 3.02C18.5001 3.12667 18.5401 3.21334 18.5401 3.28C18.5401 3.34667 18.4468 3.38 18.2601 3.38H12.8201C12.8601 3.86 12.8801 4.19334 12.8801 4.38C12.8801 4.55334 12.6934 4.71334 12.3201 4.86C11.9601 5.00667 11.7201 5.08 11.6001 5.08C11.4801 5.08 11.4201 4.94667 11.4201 4.68C11.4201 4.4 11.4401 3.96667 11.4801 3.38H7.62011L7.68011 4.44C7.68011 4.64 7.48011 4.81334 7.08011 4.96C6.69344 5.10667 6.44011 5.18 6.32011 5.18C6.21344 5.18 6.17344 4.98 6.20011 4.58C6.25344 4.07334 6.28011 3.67334 6.28011 3.38H2.36011C1.81344 3.38 1.36011 3.44667 1.00011 3.58L0.280107 2.7C0.786774 2.78 1.34677 2.82 1.96011 2.82H6.28011V1.9C6.28011 1.36667 6.25344 0.746669 6.20011 0.0400031L7.96011 0.820003C8.13344 0.913336 8.22011 1.00667 8.22011 1.1C8.22011 1.18 8.14011 1.28 7.98011 1.4L7.62011 1.72V2.82H11.4801V1.86C11.4801 1.31334 11.4601 0.693336 11.4201 2.38419e-06L13.1601 0.680003C13.3201 0.733336 13.4001 0.806669 13.4001 0.900003C13.4001 0.980002 13.3334 1.07334 13.2001 1.18L12.8201 1.48V2.82ZM10.2601 6.14H14.4801L15.1201 5.42L16.2201 6.66C16.3268 6.76667 16.3801 6.85334 16.3801 6.92C16.3801 6.97334 16.2801 7.02 16.0801 7.06C15.8801 7.1 15.7134 7.15334 15.5801 7.22C15.4601 7.27334 15.2801 7.40667 15.0401 7.62C13.3334 9.14 11.8868 10.1667 10.7001 10.7C9.52677 11.2333 8.28677 11.62 6.98011 11.86L6.88011 11.58C9.76011 10.5533 12.2068 8.92667 14.2201 6.7H9.84011C9.56011 7.04667 9.31344 7.33334 9.10011 7.56C9.60677 7.76 9.98677 7.96667 10.2401 8.18C10.5068 8.38 10.6401 8.60667 10.6401 8.86C10.6401 9.11334 10.5534 9.34667 10.3801 9.56C10.2201 9.76 10.0401 9.86 9.84011 9.86C9.65344 9.86 9.53344 9.66 9.48011 9.26C9.42677 8.86 9.20011 8.4 8.80011 7.88C8.28011 8.4 7.42011 9.1 6.22011 9.98L6.06011 9.7C7.11344 8.60667 7.87344 7.72667 8.34011 7.06C8.80677 6.38 9.32011 5.48 9.88011 4.36L10.9801 5.12C11.1134 5.21334 11.1801 5.29334 11.1801 5.36C11.1801 5.42667 11.0668 5.51334 10.8401 5.62C10.6268 5.72667 10.4334 5.9 10.2601 6.14ZM4.34011 11.78V7.98C4.34011 6.64667 4.31344 5.54 4.26011 4.66L6.04011 5.44C6.16011 5.50667 6.22011 5.57334 6.22011 5.64C6.22011 5.70667 6.16011 5.8 6.04011 5.92L5.64011 6.24V17.7C5.64011 18.0467 5.45344 18.3267 5.08011 18.54C4.72011 18.7533 4.48011 18.86 4.36011 18.86C4.24011 18.86 4.18011 18.7467 4.18011 18.52L4.28011 16.64C4.32011 15.8267 4.34011 15.04 4.34011 14.28V12.22L2.80011 13.48C1.90677 14.1867 1.42011 14.6133 1.34011 14.76C1.26011 14.9067 1.18677 14.98 1.12011 14.98C1.06677 14.98 0.973441 14.8933 0.840107 14.72L0.000107452 13.66C1.06677 13.2867 2.51344 12.66 4.34011 11.78ZM1.50011 6.62C2.14011 7.20667 2.63344 7.72 2.98011 8.16C3.32677 8.58667 3.50011 8.95334 3.50011 9.26C3.50011 9.55334 3.42677 9.86 3.28011 10.18C3.13344 10.4867 2.90677 10.64 2.60011 10.64C2.44011 10.64 2.32677 10.58 2.26011 10.46C2.20677 10.34 2.15344 9.98 2.10011 9.38C2.04677 8.78 1.95344 8.28667 1.82011 7.9C1.68677 7.5 1.50677 7.14 1.28011 6.82L1.50011 6.62ZM15.1801 12.62V16.1C15.1801 16.8333 15.1134 17.34 14.9801 17.62C14.8468 17.9133 14.5468 18.2 14.0801 18.48C13.6268 18.7733 13.3401 18.92 13.2201 18.92C13.1001 18.92 13.0201 18.8133 12.9801 18.6C12.9268 18.12 12.7268 17.7867 12.3801 17.6C12.0468 17.4133 11.5534 17.2533 10.9001 17.12L10.9801 16.8C11.8334 16.9067 12.4534 16.96 12.8401 16.96C13.2401 16.96 13.5001 16.9067 13.6201 16.8C13.7401 16.6933 13.8001 16.4933 13.8001 16.2V12.62H7.90011C7.32677 12.62 6.87344 12.6933 6.54011 12.84L5.82011 12C6.38011 12.0533 6.94011 12.08 7.50011 12.08H13.8001C13.8001 11.0667 13.7734 10.0667 13.7201 9.08L15.3801 9.72C15.5534 9.8 15.6401 9.87334 15.6401 9.94C15.6401 10.0067 15.5668 10.1 15.4201 10.22L15.1801 10.44V12.08H16.3201L17.3801 10.82L18.5601 12.2C18.6668 12.32 18.7201 12.42 18.7201 12.5C18.7201 12.58 18.6268 12.62 18.4401 12.62H15.1801ZM9.12011 12.94C10.3201 13.7 10.9201 14.4133 10.9201 15.08C10.9201 15.4133 10.7934 15.7 10.5401 15.94C10.2868 16.18 10.0801 16.3 9.92011 16.3C9.60011 16.3 9.44011 16.0067 9.44011 15.42C9.44011 14.58 9.28677 13.8133 8.98011 13.12L9.12011 12.94ZM30.4201 4.94L30.6201 5.04C30.7801 5.13334 30.8601 5.20667 30.8601 5.26C30.8601 5.31334 30.8001 5.38667 30.6801 5.48L30.3801 5.72V13.32C30.3801 14.0933 30.3068 14.62 30.1601 14.9C30.0134 15.1667 29.7134 15.4533 29.2601 15.76C28.8201 16.0667 28.5334 16.22 28.4001 16.22C28.2801 16.22 28.2134 16.1 28.2001 15.86C28.1734 15.1133 27.3334 14.5867 25.6801 14.28L25.7401 13.92C26.7134 14.0667 27.4268 14.14 27.8801 14.14C28.3334 14.14 28.6268 14.0867 28.7601 13.98C28.8934 13.8733 28.9601 13.6867 28.9601 13.42V6.82C28.9601 5.88667 28.9268 4.98 28.8601 4.1L29.9601 4.7L33.9001 2.1H25.0401C24.4934 2.1 24.0401 2.17334 23.6801 2.32L22.9601 1.44C23.4668 1.50667 24.0268 1.54 24.6401 1.54H34.2801L35.0601 0.780003L36.4401 2.36C36.5868 2.53334 36.6601 2.66 36.6601 2.74C36.6601 2.82 36.5734 2.85334 36.4001 2.84H36.2001C35.8401 2.84 35.2601 2.96667 34.4601 3.22C33.6734 3.47334 32.7534 3.84667 31.7001 4.34C31.8201 5.68667 32.1134 6.94667 32.5801 8.12C34.3934 6.74667 35.5934 5.70667 36.1801 5L37.4201 6.22C37.5668 6.35334 37.6401 6.46 37.6401 6.54C37.6401 6.62 37.5268 6.67334 37.3001 6.7C37.0734 6.71334 36.7201 6.81334 36.2401 7C35.7601 7.18667 34.6068 7.69334 32.7801 8.52C33.9534 11.0533 35.8801 12.8 38.5601 13.76L38.5001 14.12C37.8068 14.1333 37.3068 14.3867 37.0001 14.88C36.9201 15 36.8534 15.06 36.8001 15.06C36.6134 15.06 35.9268 14.4733 34.7401 13.3C33.5534 12.1267 32.7001 10.9 32.1801 9.62C31.6601 8.34 31.3268 6.66 31.1801 4.58C31.0201 4.64667 30.7668 4.76667 30.4201 4.94ZM25.8601 5.78L26.5601 4.98L27.8401 6.18C27.9601 6.27334 28.0201 6.36 28.0201 6.44C28.0201 6.50667 27.9068 6.57334 27.6801 6.64C27.4668 6.69334 27.3068 6.78 27.2001 6.9C27.1068 7.02 27.0268 7.24 26.9601 7.56C26.6401 9.45334 25.9268 11.04 24.8201 12.32C23.7268 13.5867 22.2001 14.6133 20.2401 15.4L20.1601 15.12C21.9734 13.8933 23.2534 12.6933 24.0001 11.52C24.7468 10.3467 25.3668 8.62 25.8601 6.34H22.9801C22.4201 6.34 21.9668 6.41334 21.6201 6.56L20.9201 5.68C21.4268 5.74667 21.9801 5.78 22.5801 5.78H25.8601ZM22.4001 16.84H34.7601L35.9001 15.46L37.3201 17.06C37.4134 17.1933 37.4601 17.28 37.4601 17.32C37.4601 17.3733 37.3601 17.4 37.1601 17.4H22.8601C22.3134 17.4 21.8601 17.4733 21.5001 17.62L20.7401 16.74C21.2468 16.8067 21.8001 16.84 22.4001 16.84Z" fill="white"/>
</svg>
