<svg width="20" height="10" viewBox="0 0 20 10" fill="none" xmlns="http://www.w3.org/2000/svg">
<path d="M5.97991 5.56H7.48991L8.01991 4.95L8.62991 5.62C8.67658 5.68666 8.69991 5.74 8.69991 5.78C8.69991 5.81333 8.65325 5.83 8.55991 5.83H5.97991V7.04H8.03991L8.65991 6.3L9.32991 7.1C9.36991 7.15333 9.38991 7.2 9.38991 7.24C9.38991 7.28 9.34658 7.3 9.25991 7.3H5.97991C5.97991 7.92666 5.98325 8.36666 5.98991 8.62C6.00325 8.87333 6.00991 9.03333 6.00991 9.1C6.00991 9.16666 5.98325 9.22333 5.92991 9.27C5.87658 9.31666 5.77991 9.36666 5.63991 9.42C5.49991 9.48 5.40325 9.51 5.34991 9.51C5.29658 9.51 5.25991 9.48666 5.23991 9.44C5.22658 9.39333 5.22325 9.30666 5.22991 9.18C5.27658 8.58666 5.29991 7.96 5.29991 7.3H3.50991C3.23658 7.3 3.00991 7.33666 2.82991 7.41L2.46991 6.98C2.72325 7.02 3.00325 7.04 3.30991 7.04H5.29991V5.83H4.28991C4.00991 5.83 3.78325 5.86666 3.60991 5.94L3.24991 5.52C3.52325 5.54666 3.79991 5.56 4.07991 5.56H5.29991V4.39H4.29991C4.02658 4.39 3.79991 4.42333 3.61991 4.49L3.24991 4.06C3.50325 4.09333 3.77991 4.11 4.07991 4.11H5.29991V3.05H3.77991C3.48658 3.05 3.25991 3.09 3.09991 3.17L2.86991 2.89C2.82991 2.89666 2.75658 2.95666 2.64991 3.07C2.54325 3.18333 2.43658 3.32333 2.32991 3.49C2.22325 3.65666 2.08658 3.85333 1.91991 4.08L2.24991 4.21C2.31658 4.23666 2.34991 4.27 2.34991 4.31C2.34991 4.35 2.31991 4.39666 2.25991 4.45L2.10991 4.57V7.06C2.10991 7.74 2.11325 8.21333 2.11991 8.48C2.13325 8.75333 2.13991 8.9 2.13991 8.92C2.13991 9.05333 2.03658 9.17333 1.82991 9.28C1.62325 9.38666 1.48991 9.44 1.42991 9.44C1.36991 9.44 1.33991 9.37 1.33991 9.23L1.38991 8.22C1.40991 7.78 1.41991 7.31666 1.41991 6.83V4.73C0.986579 5.26333 0.556579 5.73 0.129912 6.13L-8.78721e-05 6.02C0.839912 4.95333 1.61325 3.67666 2.31991 2.19L2.88991 2.61C2.96325 2.66333 3.00658 2.71666 3.01991 2.77C3.27325 2.78333 3.45325 2.79 3.55991 2.79H5.29991V1.8H4.34991C4.06991 1.8 3.84325 1.83666 3.66991 1.91L3.29991 1.47C3.55325 1.50333 3.83325 1.52 4.13991 1.52H5.29991C5.29991 0.986664 5.28658 0.486664 5.25991 0.0199977L6.25991 0.429998C6.33991 0.456665 6.37991 0.493331 6.37991 0.539998C6.37991 0.579998 6.33991 0.619998 6.25991 0.659998L5.97991 0.799998V1.52H7.34991L7.72991 1.09L8.37991 1.57C8.43991 1.61666 8.46991 1.66 8.46991 1.7C8.46991 1.74 8.44325 1.77333 8.38991 1.8L8.13991 1.94V2.79H8.40991L8.85991 2.21L9.44991 2.85C9.50325 2.89666 9.52991 2.94333 9.52991 2.99C9.52991 3.03 9.47658 3.05 9.36991 3.05H8.13991V3.32C8.13991 3.61333 8.14658 3.84 8.15991 4L8.19991 4.42C8.19991 4.52 8.11325 4.62666 7.93991 4.74C7.76658 4.84666 7.64325 4.9 7.56991 4.9C7.49658 4.9 7.45991 4.85333 7.45991 4.76V4.39H5.97991V5.56ZM7.45991 2.79V1.8H5.97991V2.79H7.45991ZM7.45991 4.11V3.05H5.97991V4.11H7.45991ZM2.88991 0.609998C2.97658 0.683331 3.01991 0.743331 3.01991 0.789998C3.01991 0.829998 2.96991 0.856665 2.86991 0.869998C2.77658 0.883331 2.55991 1.05333 2.21991 1.38C1.53325 2.08 0.846579 2.66666 0.159912 3.14L0.0499121 2.99C1.00991 2.04333 1.76658 1.09333 2.31991 0.139998L2.88991 0.609998ZM12.4399 -2.02656e-06L13.2999 0.419998C13.3932 0.459998 13.4399 0.499998 13.4399 0.539998C13.4399 0.573331 13.4066 0.609998 13.3399 0.649998C13.2799 0.683331 13.2399 0.753331 13.2199 0.859998C13.1999 0.959998 13.1866 1.17666 13.1799 1.51C13.1599 3.49 13.1166 4.86 13.0499 5.62C12.9832 6.38 12.7766 7.03333 12.4299 7.58C12.0832 8.12666 11.3199 8.70333 10.1399 9.31L10.0499 9.17C10.6566 8.77666 11.1266 8.39666 11.4599 8.03C11.7932 7.66333 12.0366 7.26666 12.1899 6.84C12.3432 6.40666 12.4299 6.03333 12.4499 5.72C12.4766 5.40666 12.4899 4.58333 12.4899 3.25C12.4899 1.91666 12.4732 0.833331 12.4399 -2.02656e-06ZM15.8599 1.14H14.3999C14.0999 1.14 13.8732 1.17333 13.7199 1.24L13.3699 0.809998C13.6166 0.843331 13.8932 0.859998 14.1999 0.859998H18.1799L18.7699 0.179998L19.3799 0.929998C19.4332 0.996665 19.4599 1.05 19.4599 1.09C19.4599 1.12333 19.4132 1.14 19.3199 1.14H16.5899V2.77H17.8099L18.1599 2.24L18.8399 2.79C18.9066 2.85 18.9399 2.89666 18.9399 2.93C18.9399 2.96333 18.9032 3 18.8299 3.04L18.6699 3.14V6.51C18.6699 6.76333 18.6399 6.94666 18.5799 7.06C18.5266 7.17333 18.3699 7.30666 18.1099 7.46C17.8499 7.61333 17.6932 7.69 17.6399 7.69C17.5932 7.69 17.5632 7.64666 17.5499 7.56C17.5099 7.31333 17.4466 7.14333 17.3599 7.05C17.2799 6.95666 17.0866 6.85 16.7799 6.73L16.7899 6.57C17.2099 6.64333 17.4932 6.68 17.6399 6.68C17.7932 6.68 17.8866 6.66333 17.9199 6.63C17.9599 6.59 17.9799 6.53333 17.9799 6.46V3.05H16.5899V7.39C16.5899 7.91666 16.5932 8.28666 16.5999 8.5L16.6199 8.99C16.6199 9.07 16.5132 9.15333 16.2999 9.24C16.0932 9.32666 15.9632 9.37 15.9099 9.37C15.8566 9.37 15.8299 9.30666 15.8299 9.18L15.8499 8.53C15.8566 8.26333 15.8599 7.87666 15.8599 7.37V3.05H14.7499V7.34C14.7499 7.42666 14.7299 7.49666 14.6899 7.55C14.6499 7.59666 14.5466 7.65333 14.3799 7.72C14.2199 7.79333 14.1132 7.83 14.0599 7.83C14.0132 7.83 13.9832 7.80666 13.9699 7.76C13.9566 7.72 13.9566 7.63 13.9699 7.49C14.0299 6.93 14.0599 6.18333 14.0599 5.25V3.47C14.0599 3.03666 14.0499 2.63 14.0299 2.25L14.8899 2.77H15.8599V1.14ZM11.7099 1.97L11.5199 2.12V5.26C11.5199 5.72 11.5232 6.04333 11.5299 6.23C11.5432 6.41 11.5499 6.50666 11.5499 6.52C11.5499 6.59333 11.4466 6.67666 11.2399 6.77C11.0399 6.85666 10.9166 6.9 10.8699 6.9C10.8232 6.9 10.7999 6.83666 10.7999 6.71L10.8199 6.2C10.8266 5.99333 10.8299 5.67 10.8299 5.23V2.22C10.8299 1.96 10.8199 1.64666 10.7999 1.28L11.6899 1.76C11.7632 1.78666 11.7999 1.82 11.7999 1.86C11.7999 1.89333 11.7699 1.93 11.7099 1.97Z" fill="white"/>
</svg>
