<svg width="10" height="4" viewBox="0 0 10 4" fill="none" xmlns="http://www.w3.org/2000/svg">
<path d="M1.928 3.008C1.928 3.01333 1.92533 3.01867 1.92 3.024C1.92 3.024 1.91733 3.024 1.912 3.024L1.112 3.032C1.10667 3.032 1.10133 3.032 1.096 3.032C1.096 3.02667 1.096 3.02133 1.096 3.016L1.192 2.064L0.416 2.616C0.410667 2.62133 0.405333 2.624 0.4 2.624C0.394667 2.61867 0.392 2.61333 0.392 2.608L0.008 1.928C0.008 1.92267 0.008 1.91733 0.008 1.912C0.008 1.90667 0.0106667 1.904 0.016 1.904L0.864 1.512L0.008 1.128C0.00266667 1.12267 0 1.12 0 1.12C0 1.11467 0 1.10933 0 1.104L0.392 0.416C0.392 0.410667 0.394667 0.408 0.4 0.408C0.405333 0.402667 0.410667 0.402667 0.416 0.408L1.184 0.96L1.088 0.0160003C1.088 0.010667 1.088 0.00800037 1.088 0.00800037C1.09333 0.00266679 1.09867 0 1.104 0H1.904C1.90933 0 1.912 0.00266679 1.912 0.00800037C1.91733 0.00800037 1.92 0.010667 1.92 0.0160003L1.832 0.96L2.608 0.4C2.61333 0.4 2.61867 0.4 2.624 0.4C2.62933 0.4 2.632 0.402667 2.632 0.408L3.024 1.096C3.024 1.10133 3.024 1.10667 3.024 1.112C3.024 1.112 3.02133 1.11467 3.016 1.12L2.144 1.512L3.008 1.904C3.01333 1.904 3.016 1.90667 3.016 1.912C3.016 1.91733 3.016 1.92267 3.016 1.928L2.616 2.616C2.616 2.62133 2.61333 2.62667 2.608 2.632C2.60267 2.632 2.59733 2.62933 2.592 2.624L1.824 2.072L1.928 3.008Z" fill="#74625F"/>
<path d="M5.33425 3.008C5.33425 3.01333 5.33158 3.01867 5.32625 3.024C5.32625 3.024 5.32358 3.024 5.31825 3.024L4.51825 3.032C4.51292 3.032 4.50758 3.032 4.50225 3.032C4.50225 3.02667 4.50225 3.02133 4.50225 3.016L4.59825 2.064L3.82225 2.616C3.81692 2.62133 3.81158 2.624 3.80625 2.624C3.80092 2.61867 3.79825 2.61333 3.79825 2.608L3.41425 1.928C3.41425 1.92267 3.41425 1.91733 3.41425 1.912C3.41425 1.90667 3.41692 1.904 3.42225 1.904L4.27025 1.512L3.41425 1.128C3.40892 1.12267 3.40625 1.12 3.40625 1.12C3.40625 1.11467 3.40625 1.10933 3.40625 1.104L3.79825 0.416C3.79825 0.410667 3.80092 0.408 3.80625 0.408C3.81158 0.402667 3.81692 0.402667 3.82225 0.408L4.59025 0.96L4.49425 0.0160003C4.49425 0.010667 4.49425 0.00800037 4.49425 0.00800037C4.49958 0.00266679 4.50492 0 4.51025 0H5.31025C5.31558 0 5.31825 0.00266679 5.31825 0.00800037C5.32358 0.00800037 5.32625 0.010667 5.32625 0.0160003L5.23825 0.96L6.01425 0.4C6.01958 0.4 6.02492 0.4 6.03025 0.4C6.03558 0.4 6.03825 0.402667 6.03825 0.408L6.43025 1.096C6.43025 1.10133 6.43025 1.10667 6.43025 1.112C6.43025 1.112 6.42758 1.11467 6.42225 1.12L5.55025 1.512L6.41425 1.904C6.41958 1.904 6.42225 1.90667 6.42225 1.912C6.42225 1.91733 6.42225 1.92267 6.42225 1.928L6.02225 2.616C6.02225 2.62133 6.01958 2.62667 6.01425 2.632C6.00892 2.632 6.00358 2.62933 5.99825 2.624L5.23025 2.072L5.33425 3.008Z" fill="#74625F"/>
<path d="M8.7405 3.008C8.7405 3.01333 8.73783 3.01867 8.7325 3.024C8.7325 3.024 8.72983 3.024 8.7245 3.024L7.9245 3.032C7.91917 3.032 7.91383 3.032 7.9085 3.032C7.9085 3.02667 7.9085 3.02133 7.9085 3.016L8.0045 2.064L7.2285 2.616C7.22317 2.62133 7.21783 2.624 7.2125 2.624C7.20717 2.61867 7.2045 2.61333 7.2045 2.608L6.8205 1.928C6.8205 1.92267 6.8205 1.91733 6.8205 1.912C6.8205 1.90667 6.82317 1.904 6.8285 1.904L7.6765 1.512L6.8205 1.128C6.81517 1.12267 6.8125 1.12 6.8125 1.12C6.8125 1.11467 6.8125 1.10933 6.8125 1.104L7.2045 0.416C7.2045 0.410667 7.20717 0.408 7.2125 0.408C7.21783 0.402667 7.22317 0.402667 7.2285 0.408L7.9965 0.96L7.9005 0.0160003C7.9005 0.010667 7.9005 0.00800037 7.9005 0.00800037C7.90583 0.00266679 7.91117 0 7.9165 0H8.7165C8.72183 0 8.7245 0.00266679 8.7245 0.00800037C8.72983 0.00800037 8.7325 0.010667 8.7325 0.0160003L8.6445 0.96L9.4205 0.4C9.42583 0.4 9.43117 0.4 9.4365 0.4C9.44183 0.4 9.4445 0.402667 9.4445 0.408L9.8365 1.096C9.8365 1.10133 9.8365 1.10667 9.8365 1.112C9.8365 1.112 9.83383 1.11467 9.8285 1.12L8.9565 1.512L9.8205 1.904C9.82583 1.904 9.8285 1.90667 9.8285 1.912C9.8285 1.91733 9.8285 1.92267 9.8285 1.928L9.4285 2.616C9.4285 2.62133 9.42583 2.62667 9.4205 2.632C9.41517 2.632 9.40983 2.62933 9.4045 2.624L8.6365 2.072L8.7405 3.008Z" fill="#74625F"/>
</svg>
