<svg width="53" height="10" viewBox="0 0 53 10" fill="none" xmlns="http://www.w3.org/2000/svg">
<g clip-path="url(#clip0_46_1162)">
<path d="M1.63994 0.45H1.69994L1.76994 0.49H2.04994C2.19994 0.54 2.27994 0.59 2.30994 0.63C2.45994 0.63 2.56994 0.68 2.63994 0.78C2.63994 0.85 2.72994 0.91 2.89994 0.97C2.96994 1.04 3.04994 1.15 3.15994 1.3C3.20994 1.36 3.25994 1.5 3.30994 1.71C3.33994 1.78 3.36994 1.81 3.38994 1.81V2.11L3.42994 2.17V2.36L3.47994 2.42V2.57C3.40994 2.78 3.36994 2.89 3.34994 2.91C3.12994 3.36 2.93994 3.58 2.79994 3.58L2.53994 3.77L2.49994 3.8H2.39994C2.39994 3.85 2.27994 3.9 2.02994 3.93C2.02994 3.94 2.02994 3.95 2.00994 3.95H1.78994C1.78994 4.02 1.77994 4.06 1.74994 4.06H1.52994C1.46994 4.03 1.43994 3.99 1.43994 3.95H1.28994L0.839943 3.67C0.679943 3.56 0.569943 3.45 0.519943 3.34L0.299942 2.98V2.74L0.259941 2.67V2.57C0.259941 2.57 0.189941 2.56 0.189941 2.53V2.07C0.189941 2.07 0.209941 2.03 0.259941 2.03V1.71C0.259941 1.71 0.299942 1.59 0.319942 1.43C0.379942 1.43 0.409943 1.41 0.409943 1.37C0.539943 1.25 0.599941 1.14 0.599941 1.05L0.729942 0.83C0.879942 0.8 0.979942 0.75 1.02994 0.67H1.13994C1.13994 0.61 1.14994 0.59 1.17994 0.59H1.28994C1.28994 0.59 1.32994 0.51 1.41994 0.51C1.54994 0.49 1.61994 0.46 1.63994 0.45ZM1.79994 0.79H1.42994C1.32994 0.84 1.27994 0.87 1.27994 0.9H1.14994C1.14994 0.9 1.11994 0.99 1.05994 1.08C1.05994 1.15 1.03994 1.18 0.989941 1.18V1.35C0.939941 1.43 0.909942 1.53 0.889942 1.63H0.849941V1.74H0.889942V1.78H0.849941V2.49L0.80994 2.56L0.849941 2.62V2.88C0.949941 2.92 0.999943 2.94 0.999943 2.97V3.12C0.999943 3.12 1.09994 3.17 1.15994 3.28V3.38C1.25994 3.39 1.30994 3.44 1.30994 3.53H1.35994C1.35994 3.53 1.36994 3.47 1.39994 3.47C1.40994 3.5 1.41994 3.52 1.41994 3.53H1.61994L1.87994 3.62H1.89994L2.22994 3.52C2.28994 3.48 2.30994 3.44 2.30994 3.41C2.38994 3.41 2.48994 3.32 2.60994 3.13C2.62994 2.91 2.65994 2.8 2.69994 2.79H2.71994V2.49L2.75994 2.43V2.02L2.71994 1.96V1.89L2.75994 1.83L2.71994 1.77V1.66C2.71994 1.66 2.63994 1.62 2.60994 1.53V1.51L2.65994 1.44V1.34C2.65994 1.34 2.60994 1.29 2.50994 1.23C2.45994 1.07 2.38994 0.99 2.31994 0.99C2.27994 0.87 2.23994 0.82 2.18994 0.82C2.17994 0.82 2.16994 0.82 2.16994 0.84C2.01994 0.82 1.93994 0.8 1.90994 0.78H1.88994L1.82994 0.82L1.79994 0.79Z" fill="#FDFDFD"/>
<path d="M5.02997 0C5.09997 0 5.13997 0.00999996 5.13997 0.04L5.17997 0.0100002H5.24997C5.34997 0.0100002 5.44997 0.13 5.52997 0.37V0.45C5.46997 0.64 5.40997 0.74 5.35997 0.74C5.30997 0.74 5.23997 0.74 5.15997 0.76C5.04997 0.64 4.96997 0.58 4.91997 0.58H4.87997C4.87997 0.58 4.82997 0.68 4.71997 0.76C4.71997 0.79 4.71997 0.82 4.73997 0.85L4.70997 1.43C4.70997 1.43 4.73997 1.53 4.78997 1.67C4.91997 1.61 5.02997 1.58 5.13997 1.55C5.13997 1.49 5.16997 1.47 5.19997 1.47H5.21997C5.21997 1.47 5.26997 1.49 5.26997 1.52V1.58C5.26997 1.58 5.26997 1.64 5.24997 1.67C5.27997 1.72 5.28997 1.76 5.28997 1.8C5.28997 1.91 5.22997 2.02 5.11997 2.11C4.97997 2.06 4.89997 2.02 4.87997 1.99C4.78997 2.03 4.73997 2.05 4.73997 2.08C4.74997 2.14 4.76997 2.17 4.78997 2.17C4.76997 2.3 4.75997 2.37 4.75997 2.39C4.75997 2.47 4.75997 2.72 4.78997 3.11L4.75997 3.27C4.78997 3.33 4.81997 3.44 4.84997 3.6V3.67C4.84997 3.67 4.89997 3.69 4.92997 3.69H4.96997C4.96997 3.69 5.07997 3.67 5.14997 3.62C5.21997 3.62 5.25997 3.7 5.27997 3.86C5.25997 3.98 5.22997 4.04 5.18997 4.04H5.14997C5.07997 4.04 4.85997 4.02 4.48997 3.97C4.28997 4.03 4.16997 4.06 4.11997 4.06C3.89997 4.06 3.78997 3.99 3.78997 3.86V3.84C3.78997 3.74 3.83997 3.69 3.93997 3.69C3.94997 3.69 4.00997 3.71 4.10997 3.74H4.19997C4.19997 3.74 4.21997 3.65 4.24997 3.6C4.21997 3.54 4.19997 3.49 4.19997 3.43L4.22997 3.38L4.17997 3.25L4.19997 3.12L4.12997 3.01V2.97L4.19997 2.88V2.86C4.13997 2.86 4.10997 2.84 4.10997 2.79V2.75L4.15997 2.68V2.62L4.08997 2.4C4.15997 2.26 4.19997 2.15 4.19997 2.07L4.02997 2L3.88997 2.07C3.81997 2.07 3.75997 2.03 3.71997 1.96V1.83C3.71997 1.71 3.77997 1.65 3.88997 1.65C4.03997 1.67 4.12997 1.68 4.15997 1.68C4.21997 1.62 4.24997 1.58 4.24997 1.55C4.19997 1.51 4.15997 1.37 4.12997 1.13C4.20997 0.88 4.25997 0.66 4.27997 0.47C4.50997 0.25 4.64997 0.14 4.69997 0.14C4.81997 0.0600003 4.92997 0.0200002 5.00997 0.0100002L5.02997 0Z" fill="#FDFDFD"/>
<path d="M7.00995 0C7.07995 0 7.11995 0.00999996 7.11995 0.04L7.15995 0.0100002H7.22995C7.32995 0.0100002 7.42995 0.13 7.50995 0.37V0.45C7.44995 0.64 7.38995 0.74 7.33995 0.74C7.28995 0.74 7.21995 0.74 7.13995 0.76C7.02995 0.64 6.94995 0.58 6.89995 0.58H6.85995C6.85995 0.58 6.80995 0.68 6.69995 0.76C6.69995 0.79 6.69995 0.82 6.71995 0.85L6.68995 1.43C6.68995 1.43 6.71995 1.53 6.76995 1.67C6.89995 1.61 7.00995 1.58 7.11995 1.55C7.11995 1.49 7.14995 1.47 7.17995 1.47H7.19995C7.19995 1.47 7.24995 1.49 7.24995 1.52V1.58C7.24995 1.58 7.24995 1.64 7.22995 1.67C7.25995 1.72 7.26995 1.76 7.26995 1.8C7.26995 1.91 7.20995 2.02 7.09995 2.11C6.95995 2.06 6.87995 2.02 6.85995 1.99C6.76995 2.03 6.71995 2.05 6.71995 2.08C6.72995 2.14 6.74995 2.17 6.76995 2.17C6.74995 2.3 6.73995 2.37 6.73995 2.39C6.73995 2.47 6.73995 2.72 6.76995 3.11L6.73995 3.27C6.76995 3.33 6.79995 3.44 6.82995 3.6V3.67C6.82995 3.67 6.87995 3.69 6.90995 3.69H6.94995C6.94995 3.69 7.05995 3.67 7.12995 3.62C7.19995 3.62 7.23995 3.7 7.25995 3.86C7.23995 3.98 7.20995 4.04 7.16995 4.04H7.12995C7.05995 4.04 6.83995 4.02 6.46995 3.97C6.26995 4.03 6.14995 4.06 6.09995 4.06C5.87995 4.06 5.76995 3.99 5.76995 3.86V3.84C5.76995 3.74 5.81995 3.69 5.91995 3.69C5.92995 3.69 5.98995 3.71 6.08995 3.74H6.17995C6.17995 3.74 6.19995 3.65 6.22995 3.6C6.19995 3.54 6.17995 3.49 6.17995 3.43L6.20995 3.38L6.15995 3.25L6.17995 3.12L6.10995 3.01V2.97L6.17995 2.88V2.86C6.11995 2.86 6.08995 2.84 6.08995 2.79V2.75L6.13995 2.68V2.62L6.06995 2.4C6.13995 2.26 6.17995 2.15 6.17995 2.07L6.00995 2L5.86995 2.07C5.79995 2.07 5.73995 2.03 5.69995 1.96V1.83C5.69995 1.71 5.75995 1.65 5.86995 1.65C6.01995 1.67 6.10995 1.68 6.13995 1.68C6.19995 1.62 6.22995 1.58 6.22995 1.55C6.17995 1.51 6.13995 1.37 6.10995 1.13C6.18995 0.88 6.23995 0.66 6.25995 0.47C6.48995 0.25 6.62995 0.14 6.67995 0.14C6.79995 0.0600003 6.90995 0.0200002 6.98995 0.0100002L7.00995 0Z" fill="#FDFDFD"/>
<path d="M9.79007 1.2H10.0801C10.1901 1.2 10.2501 1.25 10.2501 1.35C10.2301 1.62 10.2101 1.78 10.1801 1.83C10.1901 1.85 10.2001 1.87 10.2001 1.88H10.2901C10.2901 1.88 10.3301 1.82 10.3601 1.7L10.5101 1.58H10.5501C10.6801 1.65 10.7401 1.74 10.7401 1.85C10.7501 1.85 10.7601 1.85 10.7601 1.87V1.91C10.7401 2.07 10.6801 2.16 10.5801 2.16C10.5801 2.15 10.5601 2.13 10.5301 2.11H10.4701C10.3301 2.12 10.2501 2.16 10.2501 2.22C10.2401 2.3 10.2301 2.35 10.2301 2.36C10.2301 2.38 10.2301 2.41 10.2501 2.43C10.2401 2.52 10.2301 2.6 10.2301 2.66V2.86L10.2801 3.1C10.2501 3.32 10.2301 3.45 10.2301 3.51C10.2301 3.7 10.2801 3.85 10.3801 3.94H10.4201C10.4201 3.94 10.4701 3.92 10.4701 3.88L10.4501 3.76C10.4801 3.62 10.5301 3.56 10.6001 3.56C10.6001 3.55 10.6201 3.53 10.6701 3.51H10.6901C10.7501 3.51 10.8101 3.64 10.8601 3.89C10.8101 4.08 10.6001 4.18 10.2501 4.19H10.1801C10.0701 4.19 9.93007 4.07 9.76007 3.82V3.67C9.76007 3.56 9.75007 3.37 9.73007 3.1C9.75007 3.07 9.76007 3.03 9.76007 3V2.98C9.70007 2.91 9.68007 2.85 9.68007 2.82V2.8C9.68007 2.66 9.72007 2.51 9.80007 2.35C9.80007 2.29 9.80007 2.25 9.82007 2.23C9.82007 2.22 9.80007 2.19 9.75007 2.15L9.63007 2.17H9.58007C9.52007 2.17 9.50007 2.16 9.50007 2.13L9.46007 2.15H9.40007C9.40007 2.15 9.34007 2.09 9.32007 1.96C9.32007 1.9 9.35007 1.86 9.40007 1.82H9.42007C9.56007 1.85 9.64007 1.87 9.65007 1.87H9.68007C9.68007 1.87 9.70007 1.81 9.75007 1.78C9.69007 1.69 9.67007 1.54 9.67007 1.33C9.74007 1.26 9.78007 1.22 9.81007 1.21L9.79007 1.2Z" fill="#FDFDFD"/>
<path d="M11.6499 0.54L11.7499 0.59L11.9899 0.56C11.9899 0.56 12.0499 0.68 12.0499 0.81C12.0499 0.81 12.0499 0.88 12.0299 1L12.0499 1.1C11.9899 1.18 11.9599 1.23 11.9599 1.26V1.31C12.0199 1.45 12.0499 1.53 12.0499 1.57L12.0299 1.68L12.0499 1.78L12.0299 1.88C12.0599 2.08 12.0799 2.2 12.0799 2.24H12.1299C12.2799 2.02 12.4099 1.91 12.5099 1.91C12.5799 1.91 12.6699 1.89 12.7699 1.85H12.8099C12.9299 1.85 12.9899 1.89 12.9899 1.96C13.0299 1.96 13.0499 1.96 13.0599 1.98C13.0899 1.96 13.1399 1.95 13.1799 1.95C13.3299 2.03 13.4299 2.15 13.4799 2.3V2.66C13.4799 2.66 13.4799 2.74 13.4599 2.8C13.4699 2.82 13.4799 2.84 13.4799 2.86C13.4799 2.89 13.4799 2.94 13.4599 2.99C13.4699 3.24 13.4799 3.43 13.4999 3.57V3.68C13.6099 3.73 13.6799 3.78 13.7199 3.83C13.7599 3.91 13.7799 3.96 13.7799 3.99C13.7599 4.05 13.6999 4.08 13.5999 4.08C13.5399 4.05 13.3499 4.02 13.0299 3.99C13.0299 3.99 13.0199 3.98 12.9899 3.98C12.9599 4 12.9299 4.01 12.8999 4.01H12.8699C12.8699 4.01 12.7999 3.95 12.7999 3.89V3.86C12.7999 3.86 12.8599 3.82 12.9399 3.79C12.9699 3.73 12.9999 3.5 13.0399 3.08V2.94C13.0199 2.8 13.0099 2.72 13.0099 2.7V2.43C13.0099 2.43 13.0099 2.42 13.0299 2.42C13.0299 2.26 12.8999 2.13 12.6399 2.04C12.3799 2.15 12.2599 2.22 12.2599 2.25C12.1099 2.6 12.0299 2.79 12.0299 2.82L12.0499 2.91C12.0399 3.02 12.0299 3.12 12.0299 3.21C12.0699 3.42 12.0999 3.53 12.1199 3.56V3.59L12.0999 3.69C12.2899 3.79 12.3999 3.88 12.4299 3.95C12.4099 4.01 12.3699 4.03 12.3299 4.03C12.2799 4.03 12.1299 4.03 11.8799 4.01C11.8199 4.03 11.7699 4.04 11.7399 4.04H11.5299C11.3899 4.04 11.3199 4.02 11.3199 3.98V3.94C11.3199 3.94 11.3999 3.86 11.5499 3.82C11.5999 3.82 11.6299 3.67 11.6599 3.37C11.6299 3.32 11.6099 3.28 11.6099 3.25C11.6099 3.22 11.6099 3.17 11.6299 3.11L11.5999 2.53L11.6299 2.29C11.6299 2.29 11.6099 2.23 11.5999 2.16C11.6099 2.12 11.6199 2.09 11.6199 2.06L11.5699 2.03C11.5699 2.03 11.5699 1.97 11.5899 1.93C11.5799 1.74 11.5699 1.58 11.5699 1.44V1.37C11.5699 1.37 11.5799 1.3 11.5999 1.22C11.5999 1.15 11.5899 1.11 11.5699 1.11L11.5899 1.04V0.99C11.5899 0.99 11.5699 0.86 11.5299 0.74H11.2899C11.2399 0.74 11.1999 0.72 11.1899 0.68V0.64C11.1899 0.64 11.2399 0.58 11.2899 0.58H11.3599C11.3599 0.58 11.4399 0.58 11.4999 0.6L11.6499 0.54Z" fill="#FDFDFD"/>
<path d="M14.8501 1.77L15.0701 1.79C15.0701 1.79 15.1301 1.79 15.2101 1.77C15.4401 1.77 15.7001 1.91 16.0001 2.2C16.0601 2.2 16.1401 2.38 16.2401 2.75C16.2001 2.89 16.1701 2.97 16.1201 2.97C15.5301 2.9 15.2001 2.87 15.1301 2.87C14.7501 2.89 14.5601 2.94 14.5601 3.02V3.05C14.6201 3.05 14.6501 3.08 14.6501 3.12V3.36C14.7601 3.58 14.8501 3.7 14.9101 3.7C14.9701 3.7 15.0401 3.74 15.1301 3.82H15.1801C15.3001 3.82 15.4901 3.7 15.7601 3.46H15.7801V3.44L15.7401 3.37V3.28C15.8501 3.14 15.9201 3.06 15.9601 3.06C16.1201 3.14 16.2001 3.19 16.2001 3.23V3.25C16.2001 3.36 16.1601 3.42 16.0801 3.42V3.45C16.0801 3.81 15.7801 4.02 15.1901 4.1H15.0001C14.5801 4.1 14.3301 3.92 14.2501 3.57C14.1601 3.48 14.1101 3.38 14.1101 3.26C14.1101 3.23 14.1101 3.19 14.1401 3.17C14.1201 3.14 14.1101 3.1 14.1101 3.05C14.1101 2.98 14.1301 2.91 14.1601 2.83C14.1301 2.78 14.1101 2.73 14.1101 2.68V2.66L14.1601 2.59C14.1501 2.51 14.1401 2.43 14.1401 2.37C14.4301 1.99 14.6701 1.8 14.8601 1.8L14.8501 1.77ZM14.6501 2.48V2.58C14.6501 2.58 14.7101 2.65 14.8001 2.65H15.1301L15.3001 2.61L15.5401 2.63C15.5401 2.63 15.5601 2.58 15.5901 2.58C15.5001 2.44 15.4301 2.3 15.4001 2.15C15.2201 2.05 15.1001 2 15.0401 2C14.8201 2 14.7001 2.12 14.7001 2.36C14.6701 2.36 14.6601 2.4 14.6501 2.48Z" fill="#FDFDFD"/>
<path d="M19.7801 0.5H19.8501C19.9501 0.56 20.0501 0.59 20.1701 0.62V0.67H20.2201C20.2201 0.67 20.2401 0.6 20.2701 0.6H20.2901C20.2901 0.6 20.3301 0.62 20.3301 0.67H20.5401C20.5401 0.67 20.6501 0.72 20.7901 0.83C20.8601 0.83 20.9001 0.89 20.9301 1.01C20.9901 1.01 21.0201 1.08 21.0501 1.21C21.0601 1.21 21.0701 1.21 21.0701 1.23V1.55C21.0301 1.69 20.9701 1.78 20.8901 1.84C20.8901 1.91 20.8501 1.95 20.7601 1.98C20.7501 2.02 20.6601 2.07 20.4901 2.14C20.4901 2.18 20.3801 2.22 20.1901 2.27V2.55C20.2501 2.55 20.2801 2.58 20.3101 2.64C20.3401 2.64 20.3601 2.7 20.3701 2.82C20.5301 2.96 20.6201 3.07 20.6501 3.16V3.28C20.8101 3.31 20.9101 3.36 20.9401 3.44C20.9801 3.44 21.1101 3.52 21.3501 3.69C21.3701 3.69 21.4001 3.73 21.4401 3.8V3.92C21.3901 4.02 21.3401 4.09 21.2801 4.13H21.0701C21.0701 4.13 21.0201 4.11 21.0201 4.06H20.7501L20.6801 4.01H20.4301C20.3601 3.97 20.2701 3.84 20.1501 3.6C20.1201 3.6 20.1001 3.54 20.0901 3.42C20.0801 3.42 20.0601 3.4 20.0401 3.35C20.0601 3.32 20.0701 3.3 20.0701 3.29C19.9801 3.25 19.9301 3.18 19.9301 3.08H20.1101V3.01H19.8601C19.8601 3.01 19.7601 2.93 19.6701 2.78L19.4201 2.43C19.3501 2.43 19.2901 2.42 19.2601 2.39H19.0101V3.2L19.0801 3.36C19.0801 3.36 19.1301 3.44 19.1701 3.59C19.3101 3.64 19.3801 3.69 19.3801 3.75H19.5001C19.5001 3.75 19.5401 3.77 19.5401 3.8V3.92C19.5001 4.01 19.4701 4.06 19.4501 4.06H18.7001C18.7001 4.06 18.6801 4.13 18.6501 4.13C18.6201 4.13 18.6001 4.11 18.6001 4.06H18.1301C18.0201 4 17.9701 3.95 17.9701 3.92V3.8C17.9701 3.8 17.9901 3.75 18.0201 3.75H18.2301C18.2301 3.75 18.2801 3.67 18.3901 3.64V2.96C18.3901 2.96 18.4101 2.91 18.4601 2.91V2.79H18.4101V2.75H18.4601V2.7C18.4601 2.7 18.3901 2.68 18.3901 2.65V2.63C18.3901 2.63 18.4101 2.59 18.4601 2.59V2.31C18.4601 2.31 18.3901 2.29 18.3901 2.26V1.56L18.3501 1.49V1.37L18.3901 1.31V1.12C18.3901 1.12 18.3501 1.05 18.3501 1.01H17.9801C17.9101 0.97 17.8601 0.92 17.8201 0.85V0.78C17.8201 0.78 17.9001 0.69 18.0501 0.6C18.0501 0.59 18.0501 0.58 18.0801 0.58H18.2901C18.2901 0.58 18.3501 0.58 18.3801 0.55C18.4001 0.57 18.4301 0.58 18.4701 0.58H18.5001L18.5701 0.53H19.0001L19.0701 0.58H19.3001L19.3701 0.53H19.7601L19.8301 0.48L19.7801 0.5ZM19.8501 0.91C19.8501 0.91 19.8301 0.98 19.8001 0.98H19.4301L19.3601 1.03H18.9901V1.14L18.9501 1.21V1.26L18.9901 1.33V1.39L18.9501 1.46V1.58L18.9901 1.65V1.88C18.9601 1.94 18.9301 1.97 18.8801 1.97V2.03C18.9401 2.03 18.9801 2.05 19.0201 2.08H19.7001L19.7701 2.03H20.0001C20.0001 2.03 20.0801 1.94 20.2501 1.85C20.2501 1.81 20.2901 1.75 20.3601 1.64V1.26C20.2901 1.19 20.2401 1.13 20.2201 1.08C20.0701 1.04 19.9901 0.99 19.9901 0.92H19.8301L19.8501 0.91Z" fill="#FDFDFD"/>
<path d="M22.1898 1.77L22.41 1.79C22.41 1.79 22.4699 1.79 22.5499 1.77C22.7799 1.77 23.04 1.91 23.34 2.2C23.4 2.2 23.4799 2.38 23.5799 2.75C23.5399 2.89 23.5099 2.97 23.4599 2.97C22.8699 2.9 22.5399 2.87 22.4699 2.87C22.0899 2.89 21.8999 2.94 21.8999 3.02V3.05C21.9599 3.05 21.9899 3.08 21.9899 3.12V3.36C22.0999 3.58 22.19 3.7 22.25 3.7C22.31 3.7 22.3799 3.74 22.4699 3.82H22.52C22.64 3.82 22.8298 3.7 23.0998 3.46H23.1199V3.44L23.0799 3.37V3.28C23.1899 3.14 23.2599 3.06 23.2999 3.06C23.4599 3.14 23.54 3.19 23.54 3.23V3.25C23.54 3.36 23.4999 3.42 23.4199 3.42V3.45C23.4199 3.81 23.1198 4.02 22.5299 4.1H22.34C21.92 4.1 21.67 3.92 21.59 3.57C21.5 3.48 21.45 3.38 21.45 3.26C21.45 3.23 21.4499 3.19 21.4799 3.17C21.4599 3.14 21.45 3.1 21.45 3.05C21.45 2.98 21.47 2.91 21.5 2.83C21.47 2.78 21.45 2.73 21.45 2.68V2.66L21.5 2.59C21.49 2.51 21.4799 2.43 21.4799 2.37C21.7699 1.99 22.01 1.8 22.2 1.8L22.1898 1.77ZM22 2.48V2.58C22 2.58 22.0599 2.65 22.1499 2.65H22.4799L22.6499 2.61L22.8899 2.63C22.8899 2.63 22.9098 2.58 22.9398 2.58C22.8498 2.44 22.78 2.3 22.75 2.15C22.57 2.05 22.4499 2 22.3899 2C22.1699 2 22.0499 2.12 22.0499 2.36C22.0199 2.36 22.01 2.4 22 2.48Z" fill="#FDFDFD"/>
<path d="M25.3399 1.75C25.4999 1.8 25.6099 1.85 25.6799 1.92C25.7899 1.97 25.8499 2.07 25.8499 2.22C25.8499 2.22 25.8599 2.23 25.8599 2.25C25.8399 2.32 25.8299 2.35 25.8199 2.35C25.8499 2.41 25.8599 2.45 25.8599 2.47C25.8599 2.54 25.7799 2.57 25.6099 2.59C25.6099 2.6 25.5499 2.62 25.4299 2.64C25.2799 2.64 25.2099 2.54 25.2099 2.33C25.1999 2.33 25.1899 2.33 25.1899 2.3C25.2399 2.15 25.2599 2.06 25.2599 2.03V2.01C25.2599 2.01 25.2199 1.97 25.1499 1.97H25.0999C25.0999 1.97 25.0099 1.99 24.9099 2.04C24.7599 2.04 24.6799 2.07 24.6799 2.12C24.5899 2.22 24.5399 2.35 24.5399 2.5C24.5199 2.52 24.4999 2.57 24.4999 2.64C24.5199 2.73 24.5299 2.78 24.5299 2.79L24.4699 3.04C24.5099 3.29 24.5399 3.42 24.5699 3.42C24.5999 3.46 24.6199 3.53 24.6299 3.65C24.7299 3.75 24.8299 3.81 24.9199 3.82C25.1699 3.77 25.2899 3.72 25.2899 3.65C25.2999 3.65 25.3099 3.63 25.3099 3.58V3.45L25.2499 3.37V3.34C25.2499 3.34 25.2999 3.24 25.3299 3.11C25.3799 3.06 25.4199 3.04 25.4499 3.04C25.5499 3.04 25.6399 3.1 25.7199 3.21C25.7199 3.21 25.7599 3.24 25.8099 3.3V3.42C25.8099 3.58 25.7299 3.71 25.5799 3.8C25.5399 3.89 25.4599 3.97 25.3099 4.04H25.2499L25.1599 4.02C25.0999 4.05 25.0599 4.06 25.0399 4.06H25.0099C25.0099 4.06 24.9099 4.03 24.7699 3.96L24.6999 3.98C24.6399 3.94 24.5599 3.91 24.4599 3.88C24.4599 3.84 24.4099 3.8 24.3199 3.76C24.1599 3.64 24.0799 3.55 24.0799 3.5C24.0799 3.43 24.0499 3.36 23.9999 3.3C23.9699 3.22 23.9499 3.15 23.9499 3.12V3.07C23.9499 3.07 23.9599 3 23.9899 2.95C23.9899 2.93 23.9599 2.86 23.8899 2.75V2.73C23.8899 2.73 23.9699 2.54 24.1399 2.21C24.1399 2.2 24.1799 2.16 24.2699 2.08C24.2699 2.03 24.3299 1.99 24.4599 1.94C24.4599 1.87 24.5899 1.8 24.8599 1.75H25.0099C25.0999 1.75 25.2099 1.75 25.3499 1.73L25.3399 1.75Z" fill="#FDFDFD"/>
<path d="M27.2701 1.79H27.3401C27.6801 1.79 27.9201 2.03 28.0601 2.5C28.0801 2.62 28.1001 2.71 28.1301 2.78C28.1201 2.86 28.1101 2.9 28.1101 2.91C28.1101 2.95 28.1201 3.01 28.1501 3.08C28.1501 3.22 28.1001 3.34 28.0201 3.44C28.0201 3.56 27.9801 3.65 27.9101 3.71C27.9101 3.88 27.6601 4 27.1601 4.08H27.1401C26.6301 4.08 26.2601 3.78 26.0601 3.18L26.1101 3.09C26.0901 2.93 26.0801 2.79 26.0801 2.67C26.1301 2.5 26.2501 2.3 26.4401 2.06C26.6501 1.9 26.9201 1.81 27.2601 1.79H27.2701ZM26.5601 2.47H26.5501C26.5801 2.47 26.6101 2.5 26.6401 2.55V2.58C26.6401 2.63 26.6201 2.68 26.5801 2.73C26.6201 2.78 26.6501 2.91 26.6701 3.11L26.6401 3.24C26.7501 3.59 26.8801 3.77 27.0201 3.77H27.1501C27.3401 3.77 27.4601 3.72 27.5101 3.61C27.6101 3.52 27.6601 3.23 27.6601 2.76C27.6601 2.73 27.6401 2.62 27.6101 2.43H27.6201C27.5701 2.37 27.5401 2.29 27.5301 2.18C27.3601 2.08 27.2501 2.03 27.1901 2.03H27.1201C26.9201 2.03 26.7501 2.17 26.6101 2.45L26.5601 2.47Z" fill="#FDFDFD"/>
<path d="M30.1901 1.77C30.2601 1.77 30.3201 1.88 30.3701 2.1C30.3701 2.27 30.3201 2.37 30.2101 2.4H30.1401L29.8801 2.17H29.7801C29.7801 2.17 29.6901 2.28 29.6001 2.49L29.5101 2.59L29.5301 2.64V2.72C29.5301 2.72 29.5101 2.77 29.4801 2.77C29.5001 2.86 29.5101 2.93 29.5101 2.97L29.4801 3.14C29.5101 3.23 29.5401 3.38 29.5701 3.57C29.5401 3.68 29.5201 3.75 29.5201 3.8C29.5801 3.8 29.6201 3.8 29.6501 3.77C29.6601 3.77 29.6901 3.77 29.7501 3.8C29.8401 3.78 29.9101 3.77 29.9601 3.77C30.0101 3.77 30.0401 3.81 30.0901 3.9C30.0401 4 29.9901 4.05 29.9101 4.05C29.6901 4.03 29.5101 4.02 29.3801 4.02H29.2601C29.2601 4.02 29.2301 4.02 29.2301 3.99C29.0401 4.04 28.8801 4.07 28.7501 4.07C28.6301 4.02 28.5801 3.95 28.5801 3.84C28.6001 3.79 28.6501 3.76 28.7301 3.76H28.7801L29.0301 3.79C29.0401 3.67 29.0601 3.62 29.0801 3.62C29.0601 3.44 29.0401 3.33 29.0301 3.29C29.0501 3.26 29.0601 3.23 29.0601 3.19C29.0501 3.19 29.0201 3.16 28.9901 3.11L29.0101 2.99V2.78L29.0601 2.71C29.0101 2.65 28.9901 2.6 28.9901 2.56L29.0101 2.46L28.9901 2.33L29.0401 2.2L28.9901 2.18H28.6401C28.6401 2.18 28.5901 2.15 28.5601 2.1C28.5601 1.96 28.6001 1.89 28.6701 1.89C28.6801 1.89 28.7101 1.89 28.7401 1.92C28.9901 1.85 29.1901 1.82 29.3201 1.82C29.4401 1.82 29.5101 1.92 29.5501 2.12H29.5801C29.7301 1.92 29.9201 1.8 30.1601 1.74H30.2101L30.1901 1.77Z" fill="#FDFDFD"/>
<path d="M32.5699 0.48H32.5899C32.6899 0.48 32.7799 0.52 32.8499 0.61C32.7999 0.81 32.7799 0.98 32.7799 1.13C32.7799 1.32 32.7999 1.41 32.8099 1.41L32.7499 1.56C32.7799 1.62 32.8099 1.69 32.8199 1.77C32.7799 1.86 32.7699 1.91 32.7699 1.93C32.7899 1.96 32.7999 1.99 32.7999 2C32.7799 2.21 32.7699 2.35 32.7699 2.42C32.7899 2.44 32.7999 2.47 32.7999 2.49V2.57C32.7799 2.63 32.7699 2.66 32.7699 2.66C32.7899 2.69 32.7999 2.71 32.7999 2.74C32.7999 2.76 32.7799 2.82 32.7399 2.9C32.7799 2.97 32.7999 3 32.7999 3.02C32.7799 3.07 32.7699 3.11 32.7699 3.12C32.7799 3.18 32.7899 3.21 32.7899 3.22C32.7699 3.25 32.7599 3.28 32.7599 3.3C32.7599 3.37 32.7799 3.45 32.8299 3.53C32.8299 3.59 32.8199 3.63 32.8199 3.67V3.72C32.8199 3.72 32.8299 3.75 32.8499 3.75C32.9199 3.74 32.9699 3.73 32.9799 3.73C33.0599 3.73 33.1099 3.76 33.1399 3.83C33.1199 4 33.0499 4.08 32.9399 4.08C32.9099 4.06 32.8899 4.05 32.8599 4.05H32.7399C32.5999 4.03 32.5199 4.02 32.4999 4.02H32.3999C32.3299 4.02 32.2999 3.99 32.2999 3.93V3.85C32.2999 3.85 32.2699 3.85 32.2699 3.83C32.1099 3.89 31.9699 3.96 31.8499 4.05C31.7999 4.05 31.7599 4.05 31.7099 4.06C31.6899 4.06 31.6199 4.04 31.5099 3.99C31.4799 4.01 31.4599 4.02 31.4399 4.02C31.2699 3.97 31.1499 3.9 31.0899 3.81C31.0899 3.8 31.0199 3.77 30.8999 3.72C30.8999 3.7 30.8399 3.57 30.7099 3.35C30.7099 3.31 30.6999 3.24 30.6699 3.13C30.6699 3.02 30.7199 2.79 30.8099 2.44C30.8599 2.4 30.9499 2.28 31.0699 2.09C31.1299 2.09 31.2299 2.03 31.3599 1.91L31.4199 1.93H31.4499L31.5199 1.91C31.5199 1.91 31.5199 1.93 31.5299 1.93C31.5299 1.9 31.5799 1.89 31.6899 1.89H31.7399C32.0199 1.96 32.1499 2.02 32.1499 2.07C32.1699 2.09 32.2099 2.11 32.2499 2.12L32.2699 2.07C32.2699 2.07 32.2599 2.02 32.2299 1.99V1.92C32.2299 1.92 32.2299 1.88 32.2599 1.82V1.76L32.2299 1.72V1.63C32.2299 1.63 32.2299 1.54 32.2599 1.47C32.2599 1.41 32.2599 1.32 32.2299 1.19C32.2499 1.15 32.2599 1.11 32.2599 1.08C32.2399 1.08 32.2299 1.08 32.2299 1.05V0.92C32.2299 0.92 32.1799 0.92 32.0999 0.93C32.0999 0.93 32.0699 0.93 32.0299 0.92C31.9399 0.96 31.8899 0.98 31.8599 0.98H31.8099C31.7599 0.98 31.7199 0.95 31.6899 0.9L31.7099 0.82L31.6899 0.73C31.6899 0.64 31.7199 0.59 31.7899 0.59C31.7899 0.59 31.8099 0.59 31.8399 0.58C31.8999 0.58 31.9499 0.59 31.9899 0.59C32.2799 0.51 32.4699 0.47 32.5499 0.47L32.5699 0.48ZM31.3599 2.3C31.3599 2.3 31.3699 2.39 31.3699 2.42C31.3599 2.42 31.3299 2.45 31.2799 2.51C31.2799 2.55 31.2899 2.58 31.2899 2.58C31.2899 2.65 31.2599 2.73 31.2299 2.81C31.2699 2.87 31.2799 2.91 31.2799 2.94C31.2599 2.97 31.2499 2.99 31.2499 3.02L31.2899 3.18V3.26L31.2799 3.32C31.3099 3.37 31.3399 3.45 31.3399 3.56C31.4099 3.61 31.4399 3.65 31.4399 3.68C31.4399 3.8 31.5099 3.85 31.6399 3.85C31.7599 3.85 31.8599 3.81 31.9499 3.73C32.0199 3.73 32.0799 3.68 32.1499 3.57C32.1999 3.57 32.2399 3.53 32.2799 3.46V3.4L32.2499 3.36V2.98C32.2499 2.98 32.2899 2.91 32.2899 2.88L32.2699 2.8L32.2999 2.73C32.2999 2.73 32.2299 2.6 32.2299 2.45C32.1599 2.3 32.0399 2.19 31.8699 2.11H31.8399C31.5199 2.14 31.3599 2.18 31.3599 2.24C31.3399 2.28 31.3299 2.3 31.3299 2.31L31.3599 2.3Z" fill="#FDFDFD"/>
<path d="M1.35 6.23H1.42C1.42 6.23 1.53 6.28 1.61 6.37H1.71C1.71 6.37 1.76 6.39 1.76 6.42V6.53C1.76 6.59 1.64 6.64 1.39 6.69C1.3 6.73 1.26 6.76 1.26 6.79V7.4L1.3 7.47L1.26 7.53V8.5L1.3 8.56V8.59L1.26 8.65V8.76L1.42 8.98C1.42 9.1 1.46 9.18 1.52 9.22C1.56 9.29 1.69 9.35 1.91 9.39C1.91 9.4 1.91 9.41 1.93 9.41H2.15L2.28 9.34C2.28 9.34 2.33 9.36 2.36 9.36C2.36 9.33 2.41 9.3 2.52 9.26L2.65 9.07H2.71V8.91L2.79 8.76V8.56C2.79 8.56 2.81 8.52 2.86 8.52V8.42C2.86 8.42 2.79 8.4 2.79 8.37V8.18C2.79 8.18 2.81 8.13 2.86 8.13L2.91 7.62C2.91 7.62 2.84 7.61 2.84 7.58L2.89 6.99C2.82 6.84 2.76 6.73 2.7 6.64V6.62H2.51C2.44 6.59 2.39 6.57 2.35 6.57V6.51C2.35 6.51 2.4 6.44 2.51 6.38H2.66C2.66 6.38 2.67 6.31 2.7 6.31H3.07C3.07 6.31 3.12 6.33 3.12 6.38H3.2C3.2 6.38 3.21 6.31 3.24 6.31H3.26C3.26 6.31 3.31 6.33 3.31 6.38H3.5C3.58 6.41 3.65 6.46 3.69 6.52V6.54C3.65 6.62 3.57 6.68 3.45 6.71H3.34C3.34 6.71 3.31 6.79 3.25 6.85V7L3.3 7.07L3.25 7.22C3.25 7.22 3.25 7.28 3.27 7.31C3.25 7.44 3.23 7.51 3.2 7.55V7.66L3.25 7.72L3.2 8.05L3.24 8.12V8.25L3.2 8.31L3.24 8.38V8.57L3.27 8.68H3.2V8.88C3.16 9.01 3.13 9.07 3.12 9.07C3.04 9.28 2.98 9.4 2.96 9.42C2.87 9.44 2.78 9.51 2.68 9.64C2.66 9.64 2.58 9.69 2.44 9.79C2.42 9.79 2.39 9.81 2.35 9.84H2.11L2.05 9.88H1.89L1.76 9.79H1.71L1.65 9.84H1.59C1.46 9.8 1.38 9.75 1.33 9.69C1.18 9.69 1.09 9.65 1.05 9.56C0.829999 9.35 0.720001 9.22 0.700001 9.14V9.03C0.700001 9.03 0.630001 9.02 0.630001 8.99V8.45L0.59 8.38V8.19L0.630001 8.12V7.99C0.630001 7.99 0.630001 7.91 0.610001 7.85C0.620001 7.82 0.630001 7.8 0.630001 7.79C0.600001 7.79 0.59 7.78 0.59 7.75V7.63L0.630001 7.57V7.45L0.59 7.39V6.8C0.59 6.8 0.569999 6.75 0.529999 6.73H0.130001C0.130001 6.73 0.07 6.66 0 6.54V6.48C0.08 6.4 0.159998 6.36 0.239998 6.34L0.52 6.32C0.87 6.33 1.11 6.32 1.25 6.31C1.25 6.29 1.27 6.27 1.32 6.25L1.35 6.23Z" fill="#FDFDFD"/>
<path d="M3.86992 6.28H3.99992L4.05992 6.33H4.20992L4.26992 6.28H4.37992C4.48992 6.33 4.57992 6.41 4.64992 6.53C4.64992 6.57 4.68992 6.62 4.75992 6.69C4.75992 6.72 4.81992 6.85 4.94992 7.07C4.94992 7.09 4.99992 7.13 5.09992 7.18C5.17992 7.27 5.23992 7.39 5.25992 7.52C5.32992 7.52 5.39992 7.57 5.47992 7.68C5.62992 7.88 5.73992 8 5.79992 8.04C5.79992 8.06 5.84992 8.13 5.94992 8.25V8.37C6.08992 8.47 6.16992 8.55 6.16992 8.62H6.29992V8.5L6.25992 8.44V8.41L6.29992 8.34V8.11L6.25992 8.04V7.93L6.29992 7.86L6.25992 7.79V7.56L6.29992 7.5V7.29L6.25992 7.22C6.25992 7.22 6.29992 7.2 6.29992 7.17C6.23992 6.96 6.17992 6.84 6.12992 6.81C6.02992 6.81 5.89992 6.74 5.73992 6.61C5.71992 6.61 5.69992 6.59 5.67992 6.54V6.47C5.70992 6.36 5.76992 6.29 5.84992 6.27C5.84992 6.3 5.86992 6.32 5.89992 6.32H6.36992L6.42992 6.37H6.64992L6.70992 6.32H6.75992C6.88992 6.37 6.94992 6.4 6.94992 6.41C6.99992 6.45 7.01992 6.47 7.01992 6.47V6.59C6.93992 6.68 6.85992 6.75 6.75992 6.79C6.75992 6.95 6.73992 7.05 6.70992 7.06V7.24L6.75992 7.31L6.66992 7.57V7.6L6.70992 7.67V8.46L6.66992 8.53V8.76C6.66992 8.76 6.66992 8.83 6.68992 8.83L6.66992 8.94V9.3C6.66992 9.3 6.64992 9.34 6.60992 9.34V9.5C6.60992 9.5 6.66992 9.51 6.66992 9.54C6.66992 9.57 6.64992 9.59 6.60992 9.59V9.71C6.60992 9.71 6.56992 9.76 6.47992 9.8H6.34992C6.34992 9.8 6.24992 9.73 6.15992 9.6C6.13992 9.6 6.10992 9.52 6.06992 9.35C5.97992 9.28 5.91992 9.2 5.89992 9.12C5.82992 9.12 5.77992 9.07 5.75992 8.96C5.75992 8.92 5.70992 8.86 5.60992 8.78V8.71H5.67992V8.66H5.60992V8.71C5.50992 8.69 5.42992 8.58 5.34992 8.39C5.30992 8.33 5.27992 8.3 5.24992 8.3C5.24992 8.25 5.19992 8.19 5.10992 8.1C5.10992 8.07 5.07992 8.01 5.02992 7.92L4.91992 7.76C4.91992 7.67 4.81992 7.55 4.61992 7.4V7.35H4.45992V8.55C4.45992 8.55 4.52992 8.57 4.52992 8.6V8.78C4.52992 8.78 4.50992 8.83 4.45992 8.83V8.91C4.50992 8.91 4.53992 8.99 4.54992 9.14C4.58992 9.26 4.65992 9.34 4.73992 9.39H4.97992C4.97992 9.39 5.04992 9.44 5.10992 9.54V9.59C5.06992 9.71 5.02992 9.77 4.97992 9.79H4.45992L4.39992 9.75L4.26992 9.86H3.85992L3.66992 9.7V9.58C3.66992 9.58 3.73992 9.5 3.73992 9.45C3.76992 9.4 3.85992 9.37 3.99992 9.36C3.99992 9.35 3.99992 9.34 4.01992 9.34H4.12992C4.14992 9.13 4.18992 9.03 4.22992 9.03V8.72C4.22992 8.72 4.16992 8.7 4.16992 8.67V8.24C4.16992 8.24 4.18992 8.2 4.22992 8.2V8.08C4.22992 8.08 4.16992 8.06 4.16992 8.03V7.99C4.16992 7.99 4.18992 7.95 4.22992 7.95V7.52H4.18992V7.47H4.22992V7.27C4.22992 7.27 4.16992 7.25 4.16992 7.22V6.79C4.07992 6.79 4.02992 6.75 4.02992 6.69H3.70992C3.70992 6.69 3.66992 6.67 3.66992 6.64V6.48L3.77992 6.32C3.77992 6.32 3.82992 6.3 3.85992 6.27L3.86992 6.28Z" fill="#FDFDFD"/>
<path d="M8.58989 6.25H8.64989L8.71989 6.29H8.99989C9.14989 6.34 9.22989 6.39 9.25989 6.43C9.40989 6.43 9.51989 6.48 9.58989 6.58C9.58989 6.65 9.67989 6.71 9.84989 6.77C9.91989 6.84 9.99989 6.95 10.1099 7.1C10.1599 7.16 10.2099 7.3 10.2599 7.51C10.2899 7.58 10.3199 7.61 10.3399 7.61V7.91L10.3799 7.97V8.16L10.4299 8.22V8.37C10.3599 8.58 10.3199 8.69 10.2999 8.71C10.0799 9.16 9.88989 9.38 9.74989 9.38L9.48989 9.57L9.44989 9.6H9.34989C9.34989 9.65 9.22989 9.7 8.97989 9.73C8.97989 9.74 8.97989 9.75 8.95989 9.75H8.73989C8.73989 9.82 8.72989 9.86 8.69989 9.86H8.47989C8.41989 9.83 8.38989 9.79 8.38989 9.75H8.23989L7.78989 9.47C7.62989 9.36 7.51989 9.25 7.46989 9.14L7.24989 8.78V8.54L7.20989 8.47V8.37C7.20989 8.37 7.13989 8.36 7.13989 8.33V7.87C7.13989 7.87 7.15989 7.83 7.20989 7.83V7.51C7.20989 7.51 7.24989 7.39 7.26989 7.23C7.32989 7.23 7.35989 7.21 7.35989 7.17C7.48989 7.05 7.54989 6.94 7.54989 6.85L7.67989 6.63C7.82989 6.6 7.92989 6.55 7.97989 6.47H8.08989C8.08989 6.41 8.09989 6.39 8.12989 6.39H8.23989C8.23989 6.39 8.27989 6.31 8.36989 6.31C8.49989 6.29 8.56989 6.26 8.58989 6.25ZM8.73989 6.59H8.36989C8.26989 6.64 8.21989 6.67 8.21989 6.7H8.08989C8.08989 6.7 8.05989 6.79 7.99989 6.88C7.99989 6.95 7.97989 6.98 7.92989 6.98V7.15C7.87989 7.23 7.84989 7.33 7.82989 7.43H7.78989V7.54H7.82989V7.58H7.78989V8.29L7.74989 8.36L7.78989 8.42V8.68C7.88989 8.72 7.93989 8.74 7.93989 8.77V8.92C7.93989 8.92 8.03989 8.97 8.09989 9.08V9.18C8.19989 9.19 8.24989 9.24 8.24989 9.33H8.29989C8.29989 9.33 8.30989 9.27 8.33989 9.27C8.34989 9.3 8.35989 9.32 8.35989 9.33H8.55989L8.81989 9.42H8.83989L9.16989 9.32C9.22989 9.28 9.24989 9.24 9.24989 9.21C9.32989 9.21 9.42989 9.12 9.54989 8.93C9.56989 8.71 9.59989 8.6 9.63989 8.59H9.65989V8.29L9.69989 8.23V7.82L9.65989 7.76V7.69L9.69989 7.63L9.65989 7.57V7.46C9.65989 7.46 9.57989 7.42 9.54989 7.33V7.31L9.59989 7.24V7.14C9.59989 7.14 9.54989 7.09 9.44989 7.03C9.39989 6.87 9.32989 6.79 9.25989 6.79C9.21989 6.67 9.17989 6.62 9.12989 6.62C9.11989 6.62 9.10989 6.62 9.10989 6.64C8.95989 6.62 8.87989 6.6 8.84989 6.58H8.82989L8.76989 6.62L8.73989 6.59Z" fill="#FDFDFD"/>
<path d="M13.16 6.29C13.29 6.31 13.37 6.34 13.41 6.37C13.44 6.35 13.47 6.34 13.48 6.34C13.48 6.36 13.54 6.4 13.66 6.47C13.66 6.57 13.71 6.65 13.81 6.72V6.95C13.72 7.03 13.62 7.08 13.53 7.08C13.4 6.96 13.33 6.86 13.33 6.75H13.3C13.3 6.75 13.23 6.75 13.21 6.77C13.17 6.76 13.15 6.75 13.13 6.75C13.13 6.78 13.11 6.8 13.08 6.8H12.63L12.55 6.85H12.28L12.2 6.8H12.15L12.08 6.85H12.03L11.96 6.8H11.93L11.85 6.85H11.76L11.68 6.8H11.65V6.9C11.7 6.9 11.73 6.9 11.73 6.92C11.71 6.95 11.7 6.98 11.7 6.99C11.73 6.99 11.75 7.03 11.77 7.12C11.76 7.14 11.75 7.18 11.75 7.21L11.79 7.29V7.69C11.79 7.69 11.82 7.74 11.87 7.76H12.12L12.19 7.81H12.24L12.62 7.69C12.66 7.6 12.7 7.46 12.74 7.26L12.79 7.23H12.89L13.11 7.6V8L13.16 8.07V8.55C13.09 8.64 13.01 8.71 12.93 8.75H12.88C12.76 8.68 12.7 8.57 12.7 8.42C12.7 8.25 12.58 8.14 12.35 8.09V8.02H12.3C12.3 8.09 12.25 8.14 12.15 8.17L12.08 8.12C12.08 8.12 12.05 8.12 12.05 8.15L11.93 8.12H11.9C11.9 8.12 11.85 8.15 11.82 8.2V9.05C11.9 9.15 11.95 9.25 11.95 9.32H12.12L12.19 9.27H12.34C12.49 9.32 12.57 9.35 12.57 9.37C12.57 9.39 12.59 9.43 12.62 9.47V9.64C12.62 9.64 12.51 9.72 12.3 9.84H12.1L12.02 9.79H11.12L11.05 9.84H10.78C10.78 9.84 10.69 9.77 10.63 9.64V9.51C10.63 9.46 10.71 9.42 10.88 9.38C10.88 9.37 10.88 9.36 10.91 9.36H11.16C11.16 9.36 11.18 9.27 11.21 9.23V8.8L11.16 8.73V8.58L11.21 8.5V8.18L11.16 8.1V8.05L11.21 7.98V7.75L11.16 7.68V6.98C11.12 6.9 11.07 6.84 10.99 6.81C10.97 6.81 10.96 6.81 10.96 6.84C10.68 6.82 10.53 6.76 10.53 6.66V6.39C10.53 6.39 10.55 6.34 10.58 6.34H11.18L11.25 6.29C11.25 6.29 11.32 6.34 11.35 6.34C11.36 6.34 11.37 6.34 11.37 6.31C11.52 6.33 11.61 6.35 11.65 6.38L11.93 6.28C11.93 6.28 11.95 6.33 11.97 6.33H12.17L12.25 6.28H12.48L12.55 6.33H12.85C12.85 6.33 12.98 6.27 13.12 6.25L13.16 6.29Z" fill="#FDFDFD"/>
<path d="M16.4 6.29C16.53 6.31 16.61 6.34 16.65 6.37C16.68 6.35 16.71 6.34 16.72 6.34C16.72 6.36 16.78 6.4 16.9 6.47C16.9 6.57 16.95 6.65 17.05 6.72V6.95C16.96 7.03 16.86 7.08 16.77 7.08C16.64 6.96 16.57 6.86 16.57 6.75H16.54C16.54 6.75 16.47 6.75 16.45 6.77C16.41 6.76 16.39 6.75 16.37 6.75C16.37 6.78 16.35 6.8 16.32 6.8H15.87L15.79 6.85H15.52L15.44 6.8H15.39L15.32 6.85H15.27L15.2 6.8H15.17L15.09 6.85H15L14.92 6.8H14.89V6.9C14.94 6.9 14.97 6.9 14.97 6.92C14.95 6.95 14.94 6.98 14.94 6.99C14.97 6.99 14.99 7.03 15.01 7.12C15 7.14 14.99 7.18 14.99 7.21L15.03 7.29V7.69C15.03 7.69 15.06 7.74 15.11 7.76H15.36L15.43 7.81H15.48L15.86 7.69C15.9 7.6 15.94 7.46 15.98 7.26L16.03 7.23H16.13L16.35 7.6V8L16.4 8.07V8.55C16.33 8.64 16.25 8.71 16.17 8.75H16.12C16 8.68 15.94 8.57 15.94 8.42C15.94 8.25 15.82 8.14 15.59 8.09V8.02H15.54C15.54 8.09 15.49 8.14 15.39 8.17L15.32 8.12C15.32 8.12 15.29 8.12 15.29 8.15L15.17 8.12H15.14C15.14 8.12 15.09 8.15 15.06 8.2V9.05C15.14 9.15 15.19 9.25 15.19 9.32H15.36L15.43 9.27H15.58C15.73 9.32 15.81 9.35 15.81 9.37C15.81 9.39 15.83 9.43 15.86 9.47V9.64C15.86 9.64 15.75 9.72 15.54 9.84H15.34L15.26 9.79H14.36L14.29 9.84H14.02C14.02 9.84 13.93 9.77 13.87 9.64V9.51C13.87 9.46 13.95 9.42 14.12 9.38C14.12 9.37 14.12 9.36 14.15 9.36H14.4C14.4 9.36 14.42 9.27 14.45 9.23V8.8L14.4 8.73V8.58L14.45 8.5V8.18L14.4 8.1V8.05L14.45 7.98V7.75L14.4 7.68V6.98C14.36 6.9 14.31 6.84 14.23 6.81C14.21 6.81 14.2 6.81 14.2 6.84C13.92 6.82 13.77 6.76 13.77 6.66V6.39C13.77 6.39 13.79 6.34 13.82 6.34H14.42L14.49 6.29C14.49 6.29 14.56 6.34 14.59 6.34C14.6 6.34 14.61 6.34 14.61 6.31C14.76 6.33 14.85 6.35 14.89 6.38L15.17 6.28C15.17 6.28 15.19 6.33 15.21 6.33H15.41L15.49 6.28H15.72L15.79 6.33H16.09C16.09 6.33 16.22 6.27 16.36 6.25L16.4 6.29Z" fill="#FDFDFD"/>
<path d="M17.4 6.31H17.43C17.43 6.31 17.48 6.33 17.48 6.38H17.53C17.53 6.38 17.55 6.31 17.58 6.31H17.74C17.74 6.31 17.79 6.33 17.79 6.38H18.06C18.06 6.38 18.08 6.31 18.11 6.31H18.34C18.34 6.31 18.39 6.33 18.39 6.38H18.6C18.67 6.42 18.71 6.45 18.71 6.47V6.59C18.68 6.66 18.6 6.7 18.48 6.7C18.46 6.7 18.43 6.72 18.39 6.75H18.27V7.26L18.32 7.33V7.56L18.27 7.62V8.36L18.32 8.43V8.93L18.27 9V9.05L18.32 9.12V9.28C18.32 9.28 18.4 9.32 18.41 9.4C18.5 9.42 18.55 9.46 18.55 9.52H18.64C18.64 9.52 18.65 9.45 18.68 9.45H18.7L18.87 9.56V9.61L18.75 9.77C18.75 9.77 18.7 9.79 18.66 9.82H18.31L18.15 9.73H18.08L18.01 9.77H17.89L17.82 9.73H17.8L17.52 9.82H17.36V9.87H17.31C17.31 9.87 17.27 9.82 17.19 9.78V9.57C17.23 9.5 17.28 9.45 17.35 9.41H17.47L17.54 9.46H17.61C17.61 9.46 17.65 9.44 17.68 9.39V9.23L17.63 9.16C17.63 9.16 17.68 9.14 17.68 9.11V8.67C17.68 8.67 17.68 8.61 17.66 8.58C17.67 8.55 17.68 8.52 17.68 8.49V8.33L17.63 8.26V8.19L17.68 8.12V8.05L17.63 7.99V7.02C17.63 7.02 17.57 7 17.57 6.97C17.57 6.94 17.59 6.93 17.63 6.93V6.81C17.63 6.81 17.58 6.79 17.54 6.76H17.42L17.19 6.85C17.08 6.77 17.03 6.73 17.03 6.71V6.6C17.03 6.6 17.08 6.53 17.19 6.46C17.19 6.41 17.21 6.39 17.24 6.39H17.36C17.36 6.39 17.37 6.32 17.4 6.32V6.31Z" fill="#FDFDFD"/>
<path d="M20.29 6.29H20.47L20.54 6.34L20.62 6.29H20.96L21.04 6.34H21.24L21.32 6.29H21.39C21.47 6.31 21.55 6.39 21.63 6.54C21.73 6.64 21.8 6.76 21.83 6.89C21.81 6.92 21.8 6.94 21.8 6.96C21.83 6.96 21.85 6.98 21.85 7.01V7.04C21.85 7.04 21.78 7.13 21.65 7.24H21.55C21.38 7.12 21.29 7.03 21.29 6.97C21.24 6.97 21.21 6.94 21.18 6.87C21.12 6.87 21.07 6.85 21.03 6.82H20.07C20.07 6.9 20.01 6.94 19.89 6.94L19.81 7.07V7.49L19.76 7.57V8.31L19.81 8.38V8.73C19.87 8.86 19.96 9.04 20.1 9.28C20.19 9.28 20.35 9.35 20.56 9.48C20.61 9.48 20.65 9.5 20.69 9.53H20.74L21.13 9.4C21.38 9.23 21.5 9.1 21.5 9.01C21.5 8.91 21.57 8.8 21.7 8.68V8.66H21.75C21.82 8.76 21.87 8.88 21.88 9.03C21.79 9.41 21.67 9.6 21.52 9.6C21.51 9.66 21.4 9.72 21.2 9.77H21.05C21.05 9.77 21.03 9.84 21 9.84H20.58L20.5 9.89C20.5 9.89 20.37 9.84 20.17 9.81C20.17 9.77 20.12 9.75 20.01 9.74L19.55 9.41C19.4 9.21 19.27 9.03 19.18 8.87C19.16 8.87 19.15 8.87 19.15 8.84V8.49C19.12 8.4 19.07 8.32 19.02 8.27V8.15C19.02 8.15 19.05 8.1 19.1 8.1V8C19.05 8 19.02 7.98 19.02 7.95C19.02 7.91 19.05 7.9 19.1 7.9V7.85H19.05V7.8H19.1V7.53C19.22 7.26 19.3 7.1 19.35 7.06C19.35 6.93 19.44 6.8 19.61 6.67C19.66 6.67 19.84 6.56 20.13 6.34C20.17 6.34 20.21 6.32 20.26 6.29H20.29Z" fill="#FDFDFD"/>
<path d="M22.37 6.31H22.4C22.4 6.31 22.45 6.33 22.45 6.38H22.5C22.5 6.38 22.52 6.31 22.55 6.31H22.71C22.71 6.31 22.76 6.33 22.76 6.38H23.03C23.03 6.38 23.05 6.31 23.08 6.31H23.31C23.31 6.31 23.36 6.33 23.36 6.38H23.57C23.64 6.42 23.68 6.45 23.68 6.47V6.59C23.65 6.66 23.57 6.7 23.45 6.7C23.43 6.7 23.4 6.72 23.36 6.75H23.24V7.26L23.29 7.33V7.56L23.24 7.62V8.36L23.29 8.43V8.93L23.24 9V9.05L23.29 9.12V9.28C23.29 9.28 23.37 9.32 23.38 9.4C23.47 9.42 23.52 9.46 23.52 9.52H23.61C23.61 9.52 23.62 9.45 23.65 9.45H23.67L23.84 9.56V9.61L23.72 9.77C23.72 9.77 23.67 9.79 23.63 9.82H23.28L23.12 9.73H23.05L22.98 9.77H22.86L22.79 9.73H22.77L22.49 9.82H22.33V9.87H22.28C22.28 9.87 22.24 9.82 22.16 9.78V9.57C22.2 9.5 22.25 9.45 22.32 9.41H22.44L22.51 9.46H22.58C22.58 9.46 22.62 9.44 22.65 9.39V9.23L22.6 9.16C22.6 9.16 22.65 9.14 22.65 9.11V8.67C22.65 8.67 22.65 8.61 22.63 8.58C22.64 8.55 22.65 8.52 22.65 8.49V8.33L22.6 8.26V8.19L22.65 8.12V8.05L22.6 7.99V7.02C22.6 7.02 22.54 7 22.54 6.97C22.54 6.94 22.56 6.93 22.6 6.93V6.81C22.6 6.81 22.55 6.79 22.51 6.76H22.39L22.16 6.85C22.05 6.77 22 6.73 22 6.71V6.6C22 6.6 22.05 6.53 22.16 6.46C22.16 6.41 22.18 6.39 22.21 6.39H22.33C22.33 6.39 22.34 6.32 22.37 6.32V6.31Z" fill="#FDFDFD"/>
<path d="M25.45 6.29H25.59C25.71 6.38 25.79 6.48 25.84 6.59V6.71C25.9 6.71 25.9298 6.78 25.9398 6.93C25.9698 6.93 25.9999 7.04 26.0299 7.25C26.0998 7.34 26.15 7.47 26.18 7.64C26.22 7.66 26.2798 7.76 26.3498 7.93C26.4298 7.93 26.51 8.12 26.57 8.49C26.72 8.66 26.79 8.82 26.79 8.98C26.81 8.98 26.82 8.98 26.82 9.01H26.77V9.06H26.82V9.01C26.82 9.01 26.88 9.04 26.91 9.1V9.25H27.0599L27.1299 9.2H27.18C27.24 9.2 27.2799 9.28 27.2999 9.45C27.3199 9.45 27.3299 9.45 27.3299 9.48V9.72C27.3299 9.72 27.2699 9.8 27.1399 9.87H27.0499L26.6499 9.72H26.61C26.61 9.72 26.54 9.72 26.54 9.75L26.4199 9.72H26.2399L26.1699 9.77H25.9799C25.8599 9.7 25.7999 9.65 25.7999 9.62V9.57C25.8499 9.47 25.9099 9.4 25.9799 9.38H26.07L26.1399 9.43H26.1699C26.1699 9.37 26.1899 9.32 26.2199 9.28V9.18C26.1599 9.08 26.1 8.92 26.02 8.69C25.91 8.69 25.8498 8.64 25.8498 8.54H25.7V8.64C25.7 8.64 25.6398 8.66 25.5998 8.69H25.2399L25.16 8.64C25.16 8.64 25.1 8.64 25.07 8.66C25.02 8.66 25 8.62 25 8.54H24.95V8.64C24.95 8.64 25.0199 8.69 25.0499 8.79L24.93 9.01L24.86 9.06L24.79 9.01H24.7598C24.7598 9.01 24.7098 9.03 24.6898 9.08V9.1C24.8098 9.1 24.8699 9.17 24.8799 9.32C24.9099 9.36 24.9699 9.38 25.0499 9.39C25.1199 9.43 25.17 9.48 25.2 9.56V9.61C25.09 9.78 25.0298 9.86 25.0098 9.86H24.79L24.7199 9.81C24.7199 9.81 24.7 9.81 24.7 9.84L24.57 9.81H24.4799L24.41 9.86H24.1399C24.0599 9.81 23.99 9.72 23.95 9.57C24.01 9.49 24.09 9.42 24.2 9.38H24.32C24.42 9.21 24.4699 9.09 24.4699 9.04C24.4699 8.99 24.4999 8.92 24.5599 8.82C24.5599 8.74 24.62 8.58 24.75 8.35C24.88 7.97 24.98 7.71 25.07 7.55V7.15L25.27 6.79V6.74L25.2199 6.67V6.5C25.2699 6.42 25.3599 6.35 25.4899 6.3L25.45 6.29ZM25.3999 7.57C25.3999 7.57 25.3099 7.8 25.1299 8.11V8.21C25.1299 8.21 25.18 8.28 25.18 8.3H25.3999C25.3999 8.3 25.42 8.23 25.45 8.23H25.54C25.54 8.23 25.59 8.25 25.59 8.3H25.6399C25.6399 8.3 25.6598 8.23 25.6898 8.23H25.7799C25.7799 8.33 25.82 8.4 25.91 8.45H25.9599V8.38C25.7999 8.25 25.69 8.04 25.61 7.77C25.58 7.64 25.55 7.57 25.52 7.57H25.3899H25.3999Z" fill="#FDFDFD"/>
<path d="M28.2999 6.26H28.4099C28.4099 6.26 28.4599 6.28 28.4599 6.33H29.0499C29.0499 6.33 29.0999 6.4 29.1399 6.53V6.65C29.1399 6.65 29.0599 6.7 28.9099 6.71C28.9099 6.72 28.9099 6.73 28.8899 6.73H28.8599L28.7999 6.69C28.7999 6.69 28.7399 6.73 28.7099 6.73V7C28.7099 7 28.7799 7.02 28.7799 7.05V7.12C28.7799 7.12 28.7599 7.16 28.7099 7.16V7.32C28.7099 7.32 28.7899 7.36 28.8199 7.45V7.48L28.7799 7.55V9.06L28.8199 9.12V9.33H28.9399C28.9399 9.33 28.9799 9.35 28.9799 9.4H29.0199C29.0199 9.4 29.0399 9.33 29.0699 9.33H29.2499C29.2499 9.33 29.2999 9.35 29.2999 9.4H29.3499C29.3499 9.4 29.3699 9.33 29.3999 9.33H29.6499L29.8799 9.24H30.1499C30.2799 9.03 30.3699 8.91 30.4399 8.88C30.4399 8.83 30.4599 8.81 30.4899 8.81H30.5599C30.6099 8.85 30.6599 8.91 30.7199 9.02V9.2C30.6599 9.39 30.5899 9.49 30.5099 9.52C30.5099 9.58 30.4899 9.6 30.4399 9.6V9.72C30.4399 9.72 30.4099 9.77 30.3499 9.81H29.6799L29.6099 9.76H29.5899L29.5199 9.81H29.2899L29.2299 9.76H29.0699L28.9099 9.85H28.8799C28.8799 9.85 28.7599 9.8 28.5899 9.78L28.5199 9.71H28.4699C28.4699 9.71 28.3699 9.78 28.1499 9.85H27.9899C27.9899 9.85 27.9699 9.92 27.9399 9.92C27.9099 9.92 27.8999 9.9 27.8999 9.85H27.5099C27.5099 9.85 27.4199 9.76 27.3799 9.64V9.53C27.3799 9.53 27.4199 9.46 27.5099 9.39H27.6299C27.6299 9.39 27.6499 9.32 27.6799 9.32H27.9699C28.0899 9.29 28.1499 9.23 28.1499 9.14C28.1499 9.02 28.1899 8.96 28.2699 8.96V8.91C28.2699 8.91 28.1899 8.86 28.1499 8.76V7.17L28.1099 7.11V7.09L28.1499 7.02V6.79C28.1499 6.79 28.1099 6.73 28.0399 6.68H27.6799C27.6799 6.68 27.6299 6.63 27.5899 6.52V6.46C27.5899 6.46 27.6299 6.39 27.7199 6.32H28.2699C28.2699 6.32 28.2799 6.25 28.3099 6.25L28.2999 6.26Z" fill="#FDFDFD"/>
<path d="M34.1099 6.27H34.1599L34.3599 6.37H34.4099L34.4899 6.32H34.7899C34.9099 6.35 34.9899 6.42 35.0599 6.54C35.0599 6.62 35.1099 6.7 35.2199 6.79V6.94C35.1699 7.03 35.0999 7.07 35.0199 7.07C34.7499 6.85 34.5499 6.74 34.4199 6.74C34.3399 6.74 34.2899 6.72 34.2499 6.69H33.9999L33.9299 6.74H33.4599L33.3799 6.69H33.3299C33.2699 6.76 33.2199 6.79 33.1799 6.79V6.94C33.2299 6.94 33.2599 6.96 33.2599 6.99V7.81C33.2599 7.81 33.2799 7.86 33.3299 7.89C33.3699 7.86 33.4399 7.84 33.5399 7.81C33.5699 7.83 33.5999 7.84 33.6399 7.84H33.6899C33.8699 7.79 33.9999 7.72 34.0599 7.64C34.0599 7.62 34.0899 7.61 34.1399 7.61V7.36C34.1399 7.36 34.1699 7.3 34.2299 7.26H34.4099C34.4099 7.26 34.4699 7.29 34.5099 7.36V7.46L34.4599 7.54V7.63L34.5099 7.71V8C34.5099 8 34.5099 8.07 34.5399 8.1C34.5199 8.13 34.5099 8.16 34.5099 8.17C34.5399 8.17 34.5599 8.19 34.5599 8.22V8.49C34.5099 8.59 34.4799 8.64 34.4599 8.64H34.3399C34.2499 8.64 34.1699 8.52 34.1099 8.27L34.0099 8.17H33.7399L33.6599 8.22H33.6099L33.5399 8.17C33.3899 8.23 33.3099 8.27 33.3099 8.32V9.09C33.3799 9.28 33.4099 9.38 33.4099 9.39C33.4799 9.46 33.5299 9.49 33.5399 9.49H33.7399L33.8899 9.39H34.1399V9.34H34.1899V9.39H34.2899C34.2899 9.39 34.3899 9.3 34.5899 9.24C34.7199 9.17 34.8099 9.11 34.8599 9.07H34.9899C34.9899 9.01 35.0599 8.91 35.1899 8.74H35.3399C35.3399 8.74 35.3999 8.82 35.4699 8.97H35.4999V9.02H35.4499V9.17C35.3499 9.41 35.2499 9.56 35.1499 9.62C35.0899 9.71 35.0199 9.77 34.9499 9.79H34.8799L34.8099 9.74H34.3399L34.2599 9.79L34.1899 9.74H34.0899L34.0199 9.79H33.7899L33.7199 9.74H33.4699L33.3899 9.79H32.9199L32.8499 9.74L32.7799 9.79H32.6499L32.5799 9.74H32.4999C32.4999 9.81 32.4799 9.84 32.4499 9.84H32.3499C32.3499 9.84 32.2999 9.82 32.2999 9.79V9.54C32.2999 9.54 32.3399 9.48 32.3999 9.44L32.4699 9.49L32.6199 9.41C32.6199 9.41 32.6799 9.44 32.7199 9.44L32.7699 9.37V9.14L32.7199 9.07V8.97L32.7699 8.89V8.57L32.7199 8.49V7.77H32.6699V7.72H32.7199V7.39L32.7699 7.32L32.7199 7.24V7.07C32.7199 7.07 32.7399 7.02 32.7699 7.02H32.8199V7.07H32.9699V7.2H32.9999C32.9999 7.2 33.0499 7.17 33.0799 7.12V7.07C33.0199 7.07 32.9599 7.04 32.9099 6.97L32.8299 7.02C32.8099 6.89 32.7399 6.78 32.6099 6.67H32.3099C32.2099 6.63 32.1599 6.59 32.1599 6.57V6.4C32.1599 6.4 32.1899 6.34 32.2599 6.3L32.3299 6.35H32.3799L32.4499 6.3H33.8199L33.8899 6.35H33.9899L34.1599 6.25L34.1099 6.27Z" fill="#FDFDFD"/>
<path d="M35.75 6.29H35.87L35.94 6.34H36.23C36.23 6.34 36.3 6.34 36.32 6.31C36.35 6.33 36.38 6.34 36.42 6.34C36.42 6.3 36.44 6.29 36.47 6.29H36.56L36.63 6.34H37.35L37.63 6.44L37.7 6.39H37.97C38.02 6.39 38.1 6.48 38.21 6.67C38.59 6.82 38.78 7.02 38.78 7.28C38.85 7.28 38.93 7.45 39.02 7.78L39.05 7.83V7.99L39 8.06L39.05 8.14V8.37C38.98 8.4 38.95 8.45 38.95 8.52C38.89 8.59 38.84 8.71 38.78 8.9C38.75 8.9 38.7 9 38.64 9.21C38.51 9.27 38.45 9.33 38.45 9.41C38.38 9.46 38.26 9.52 38.11 9.59C38.11 9.64 37.98 9.71 37.75 9.79H37.53L37.46 9.84H37.24L36.97 9.74L36.9 9.79C36.9 9.79 36.88 9.74 36.85 9.74H36.8L36.68 9.84L36.61 9.79H36.11L36.04 9.84H35.77C35.77 9.84 35.7 9.79 35.64 9.69C35.58 9.69 35.55 9.66 35.55 9.61C35.55 9.52 35.63 9.47 35.79 9.46C35.79 9.44 35.79 9.43 35.81 9.43H35.98C35.98 9.43 36.03 9.36 36.12 9.28L36.07 9.2L36.12 9.12L36.07 9.05V8.56L36.12 8.49V8.39L36.07 8.31V6.83C36.07 6.83 36.05 6.78 36 6.75H35.78L35.71 6.8H35.66L35.52 6.6V6.52C35.57 6.41 35.63 6.32 35.71 6.26L35.75 6.29ZM36.8 6.73H36.66V6.75L36.71 6.83V7.16L36.66 7.24L36.71 7.32V7.93L36.76 8.01V8.06L36.71 8.14V8.47C36.71 8.47 36.71 8.54 36.74 8.54L36.71 8.67V9.26C36.71 9.26 36.77 9.33 36.88 9.39H37.34L37.41 9.34H37.58L37.65 9.39C37.94 9.29 38.09 9.22 38.09 9.19C38.23 8.86 38.31 8.7 38.35 8.7H38.38V8.67L38.33 8.6V8.5L38.38 8.43L38.33 8.35V8.32L38.38 8.24V8.19L38.33 8.11V7.55C38.26 7.35 38.18 7.16 38.09 6.98C38.09 6.91 38.07 6.88 38.02 6.88H37.78C37.66 6.81 37.52 6.77 37.37 6.75C37.37 6.74 37.37 6.73 37.34 6.73H37.02L36.95 6.68H36.88L36.81 6.73H36.8Z" fill="#FDFDFD"/>
<path d="M39.4801 6.31H39.5101C39.5101 6.31 39.5601 6.33 39.5601 6.38H39.6101C39.6101 6.38 39.6301 6.31 39.6601 6.31H39.8201C39.8201 6.31 39.8701 6.33 39.8701 6.38H40.1401C40.1401 6.38 40.1601 6.31 40.1901 6.31H40.4201C40.4201 6.31 40.4701 6.33 40.4701 6.38H40.6801C40.7501 6.42 40.7901 6.45 40.7901 6.47V6.59C40.7601 6.66 40.6801 6.7 40.5601 6.7C40.5401 6.7 40.5101 6.72 40.4701 6.75H40.3501V7.26L40.4001 7.33V7.56L40.3501 7.62V8.36L40.4001 8.43V8.93L40.3501 9V9.05L40.4001 9.12V9.28C40.4001 9.28 40.4801 9.32 40.4901 9.4C40.5801 9.42 40.6301 9.46 40.6301 9.52H40.7201C40.7201 9.52 40.7301 9.45 40.7601 9.45H40.7801L40.9501 9.56V9.61L40.8301 9.77C40.8301 9.77 40.7801 9.79 40.7401 9.82H40.3901L40.2301 9.73H40.1601L40.0901 9.77H39.9701L39.9001 9.73H39.8801L39.6001 9.82H39.4401V9.87H39.3901C39.3901 9.87 39.3501 9.82 39.2701 9.78V9.57C39.3101 9.5 39.3601 9.45 39.4301 9.41H39.5501L39.6201 9.46H39.6901C39.6901 9.46 39.7301 9.44 39.7601 9.39V9.23L39.7101 9.16C39.7101 9.16 39.7601 9.14 39.7601 9.11V8.67C39.7601 8.67 39.7601 8.61 39.7401 8.58C39.7501 8.55 39.7601 8.52 39.7601 8.49V8.33L39.7101 8.26V8.19L39.7601 8.12V8.05L39.7101 7.99V7.02C39.7101 7.02 39.6501 7 39.6501 6.97C39.6501 6.94 39.6701 6.93 39.7101 6.93V6.81C39.7101 6.81 39.6601 6.79 39.6201 6.76H39.5001L39.2701 6.85C39.1601 6.77 39.1101 6.73 39.1101 6.71V6.6C39.1101 6.6 39.1601 6.53 39.2701 6.46C39.2701 6.41 39.2901 6.39 39.3201 6.39H39.4401C39.4401 6.39 39.4501 6.32 39.4801 6.32V6.31Z" fill="#FDFDFD"/>
<path d="M41.4 6.29H41.69C41.69 6.29 41.8 6.34 41.97 6.36C41.97 6.37 41.97 6.38 42 6.38H42.11L42.17 6.34H42.63L42.69 6.38H42.91L42.98 6.34H43.13L43.2 6.38H43.37L43.44 6.34H43.7C43.92 6.47 44.03 6.59 44.03 6.69C44.09 6.69 44.13 6.81 44.16 7.06C44.18 7.06 44.19 7.06 44.19 7.09C44.1 7.23 44.03 7.31 43.99 7.31H43.95C43.85 7.28 43.78 7.22 43.75 7.12C43.73 7.12 43.67 7.07 43.58 6.96C43.56 6.96 43.5 6.92 43.41 6.86C43.39 6.86 43.31 6.83 43.17 6.77H42.95C42.95 6.77 42.94 6.84 42.91 6.88V7.6L42.95 7.67V7.78L42.91 7.84V9.05L42.95 9.11V9.33C43.01 9.33 43.11 9.38 43.24 9.48C43.28 9.48 43.31 9.52 43.34 9.61V9.68C43.28 9.78 43.24 9.83 43.21 9.83H43.05C43.05 9.83 42.99 9.83 42.97 9.86C42.94 9.84 42.91 9.83 42.88 9.83H42.77L42.7 9.88C42.7 9.88 42.69 9.83 42.66 9.83H42.61L42.55 9.88H42.38L42.31 9.83L42.25 9.88H41.83C41.73 9.82 41.67 9.74 41.63 9.64V9.57C41.63 9.57 41.7 9.49 41.85 9.4C41.85 9.39 41.85 9.38 41.87 9.38H42.11C42.11 9.38 42.15 9.36 42.17 9.32V9.21L42.13 9.14V9.03L42.17 8.97V8.86L42.13 8.8V8.69L42.17 8.62V7.41C42.17 7.41 42.19 7.37 42.24 7.37V6.82H41.65C41.54 6.98 41.47 7.06 41.43 7.06C41.43 7.15 41.38 7.19 41.29 7.19L41.19 7.28C41.19 7.28 41.16 7.23 41.16 7.21H41.06C41.06 7.21 41.01 7.12 40.99 6.95C40.98 6.95 40.97 6.95 40.97 6.93V6.9C41.01 6.77 41.04 6.71 41.06 6.71H41.08V6.6C41.22 6.44 41.33 6.34 41.41 6.31L41.4 6.29Z" fill="#FDFDFD"/>
<path d="M44.5599 6.31H44.5899C44.5899 6.31 44.6399 6.33 44.6399 6.38H44.6899C44.6899 6.38 44.7099 6.31 44.7399 6.31H44.8999C44.8999 6.31 44.9499 6.33 44.9499 6.38H45.2199C45.2199 6.38 45.2399 6.31 45.2699 6.31H45.4999C45.4999 6.31 45.5499 6.33 45.5499 6.38H45.7599C45.8299 6.42 45.8699 6.45 45.8699 6.47V6.59C45.8399 6.66 45.7599 6.7 45.6399 6.7C45.6199 6.7 45.5899 6.72 45.5499 6.75H45.4299V7.26L45.4799 7.33V7.56L45.4299 7.62V8.36L45.4799 8.43V8.93L45.4299 9V9.05L45.4799 9.12V9.28C45.4799 9.28 45.5599 9.32 45.5699 9.4C45.6599 9.42 45.7099 9.46 45.7099 9.52H45.7999C45.7999 9.52 45.8099 9.45 45.8399 9.45H45.8599L46.0299 9.56V9.61L45.9099 9.77C45.9099 9.77 45.8599 9.79 45.8199 9.82H45.4699L45.3099 9.73H45.2399L45.1699 9.77H45.0499L44.9799 9.73H44.9599L44.6799 9.82H44.5199V9.87H44.4699C44.4699 9.87 44.4299 9.82 44.3499 9.78V9.57C44.3899 9.5 44.4399 9.45 44.5099 9.41H44.6299L44.6999 9.46H44.7699C44.7699 9.46 44.8099 9.44 44.8399 9.39V9.23L44.7899 9.16C44.7899 9.16 44.8399 9.14 44.8399 9.11V8.67C44.8399 8.67 44.8399 8.61 44.8199 8.58C44.8299 8.55 44.8399 8.52 44.8399 8.49V8.33L44.7899 8.26V8.19L44.8399 8.12V8.05L44.7899 7.99V7.02C44.7899 7.02 44.7299 7 44.7299 6.97C44.7299 6.94 44.7499 6.93 44.7899 6.93V6.81C44.7899 6.81 44.7399 6.79 44.6999 6.76H44.5799L44.3499 6.85C44.2399 6.77 44.1899 6.73 44.1899 6.71V6.6C44.1899 6.6 44.2399 6.53 44.3499 6.46C44.3499 6.41 44.3699 6.39 44.3999 6.39H44.5199C44.5199 6.39 44.5299 6.32 44.5599 6.32V6.31Z" fill="#FDFDFD"/>
<path d="M47.6399 6.25H47.6999L47.7699 6.29H48.0499C48.1999 6.34 48.2799 6.39 48.3099 6.43C48.4599 6.43 48.5699 6.48 48.6399 6.58C48.6399 6.65 48.7299 6.71 48.8999 6.77C48.9699 6.84 49.0499 6.95 49.1599 7.1C49.2099 7.16 49.2599 7.3 49.3099 7.51C49.3399 7.58 49.3699 7.61 49.3899 7.61V7.91L49.4299 7.97V8.16L49.4799 8.22V8.37C49.4099 8.58 49.3699 8.69 49.3499 8.71C49.1299 9.16 48.9399 9.38 48.7999 9.38L48.5399 9.57L48.4999 9.6H48.3999C48.3999 9.65 48.2799 9.7 48.0299 9.73C48.0299 9.74 48.0299 9.75 48.0099 9.75H47.7899C47.7899 9.82 47.7799 9.86 47.7499 9.86H47.5299C47.4699 9.83 47.4399 9.79 47.4399 9.75H47.2899L46.8399 9.47C46.6799 9.36 46.5699 9.25 46.5199 9.14L46.2999 8.78V8.54L46.2599 8.47V8.37C46.2599 8.37 46.1899 8.36 46.1899 8.33V7.87C46.1899 7.87 46.2099 7.83 46.2599 7.83V7.51C46.2599 7.51 46.2999 7.39 46.3199 7.23C46.3799 7.23 46.4099 7.21 46.4099 7.17C46.5399 7.05 46.5999 6.94 46.5999 6.85L46.7299 6.63C46.8799 6.6 46.9799 6.55 47.0299 6.47H47.1399C47.1399 6.41 47.1499 6.39 47.1799 6.39H47.2899C47.2899 6.39 47.3299 6.31 47.4199 6.31C47.5499 6.29 47.6199 6.26 47.6399 6.25ZM47.7899 6.59H47.4199C47.3199 6.64 47.2699 6.67 47.2699 6.7H47.1399C47.1399 6.7 47.1099 6.79 47.0499 6.88C47.0499 6.95 47.0299 6.98 46.9799 6.98V7.15C46.9299 7.23 46.8999 7.33 46.8799 7.43H46.8399V7.54H46.8799V7.58H46.8399V8.29L46.7999 8.36L46.8399 8.42V8.68C46.9399 8.72 46.9899 8.74 46.9899 8.77V8.92C46.9899 8.92 47.0899 8.97 47.1499 9.08V9.18C47.2499 9.19 47.2999 9.24 47.2999 9.33H47.3499C47.3499 9.33 47.3599 9.27 47.3899 9.27C47.3999 9.3 47.4099 9.32 47.4099 9.33H47.6099L47.8699 9.42H47.8899L48.2199 9.32C48.2799 9.28 48.2999 9.24 48.2999 9.21C48.3799 9.21 48.4799 9.12 48.5999 8.93C48.6199 8.71 48.6499 8.6 48.6899 8.59H48.7099V8.29L48.7499 8.23V7.82L48.7099 7.76V7.69L48.7499 7.63L48.7099 7.57V7.46C48.7099 7.46 48.6299 7.42 48.5999 7.33V7.31L48.6499 7.24V7.14C48.6499 7.14 48.5999 7.09 48.4999 7.03C48.4499 6.87 48.3799 6.79 48.3099 6.79C48.2699 6.67 48.2299 6.62 48.1799 6.62C48.1699 6.62 48.1599 6.62 48.1599 6.64C48.0099 6.62 47.9299 6.6 47.8999 6.58H47.8799L47.8199 6.62L47.7899 6.59Z" fill="#FDFDFD"/>
<path d="M49.8101 6.28H49.9401L50.0001 6.33H50.1501L50.2101 6.28H50.3201C50.4301 6.33 50.5201 6.41 50.5901 6.53C50.5901 6.57 50.6301 6.62 50.7001 6.69C50.7001 6.72 50.7601 6.85 50.8901 7.07C50.8901 7.09 50.9401 7.13 51.0401 7.18C51.1201 7.27 51.1801 7.39 51.2001 7.52C51.2701 7.52 51.3401 7.57 51.4201 7.68C51.5701 7.88 51.6801 8 51.7401 8.04C51.7401 8.06 51.7901 8.13 51.8901 8.25V8.37C52.0301 8.47 52.1101 8.55 52.1101 8.62H52.2401V8.5L52.2001 8.44V8.41L52.2401 8.34V8.11L52.2001 8.04V7.93L52.2401 7.86L52.2001 7.79V7.56L52.2401 7.5V7.29L52.2001 7.22C52.2001 7.22 52.2401 7.2 52.2401 7.17C52.1801 6.96 52.1201 6.84 52.0701 6.81C51.9701 6.81 51.8401 6.74 51.6801 6.61C51.6601 6.61 51.6401 6.59 51.6201 6.54V6.47C51.6501 6.36 51.7101 6.29 51.7901 6.27C51.7901 6.3 51.8101 6.32 51.8401 6.32H52.3101L52.3701 6.37H52.5901L52.6501 6.32H52.7001C52.8301 6.37 52.8901 6.4 52.8901 6.41C52.9401 6.45 52.9601 6.47 52.9601 6.47V6.59C52.8801 6.68 52.8001 6.75 52.7001 6.79C52.7001 6.95 52.6801 7.05 52.6501 7.06V7.24L52.7001 7.31L52.6101 7.57V7.6L52.6501 7.67V8.46L52.6101 8.53V8.76C52.6101 8.76 52.6101 8.83 52.6301 8.83L52.6101 8.94V9.3C52.6101 9.3 52.5901 9.34 52.5501 9.34V9.5C52.5501 9.5 52.6101 9.51 52.6101 9.54C52.6101 9.57 52.5901 9.59 52.5501 9.59V9.71C52.5501 9.71 52.5101 9.76 52.4201 9.8H52.2901C52.2901 9.8 52.1901 9.73 52.1001 9.6C52.0801 9.6 52.0501 9.52 52.0101 9.35C51.9201 9.28 51.8601 9.2 51.8401 9.12C51.7701 9.12 51.7201 9.07 51.7001 8.96C51.7001 8.92 51.6501 8.86 51.5501 8.78V8.71H51.6201V8.66H51.5501V8.71C51.4501 8.69 51.3701 8.58 51.2901 8.39C51.2501 8.33 51.2201 8.3 51.1901 8.3C51.1901 8.25 51.1401 8.19 51.0501 8.1C51.0501 8.07 51.0201 8.01 50.9701 7.92L50.8601 7.76C50.8601 7.67 50.7601 7.55 50.5601 7.4V7.35H50.4001V8.55C50.4001 8.55 50.4701 8.57 50.4701 8.6V8.78C50.4701 8.78 50.4501 8.83 50.4001 8.83V8.91C50.4501 8.91 50.4801 8.99 50.4901 9.14C50.5301 9.26 50.6001 9.34 50.6801 9.39H50.9201C50.9201 9.39 50.9901 9.44 51.0501 9.54V9.59C51.0101 9.71 50.9701 9.77 50.9201 9.79H50.4001L50.3401 9.75L50.2101 9.86H49.8001L49.6101 9.7V9.58C49.6101 9.58 49.6801 9.5 49.6801 9.45C49.7101 9.4 49.8001 9.37 49.9401 9.36C49.9401 9.35 49.9401 9.34 49.9601 9.34H50.0701C50.0901 9.13 50.1301 9.03 50.1701 9.03V8.72C50.1701 8.72 50.1101 8.7 50.1101 8.67V8.24C50.1101 8.24 50.1301 8.2 50.1701 8.2V8.08C50.1701 8.08 50.1101 8.06 50.1101 8.03V7.99C50.1101 7.99 50.1301 7.95 50.1701 7.95V7.52H50.1301V7.47H50.1701V7.27C50.1701 7.27 50.1101 7.25 50.1101 7.22V6.79C50.0201 6.79 49.9701 6.75 49.9701 6.69H49.6501C49.6501 6.69 49.6101 6.67 49.6101 6.64V6.48L49.7201 6.32C49.7201 6.32 49.7701 6.3 49.8001 6.27L49.8101 6.28Z" fill="#FDFDFD"/>
</g>
<defs>
<clipPath id="clip0_46_1162">
<rect width="53" height="10" fill="white"/>
</clipPath>
</defs>
</svg>
