<svg width="10" height="10" viewBox="0 0 10 10" fill="none" xmlns="http://www.w3.org/2000/svg">
<rect width="9.72" height="9.72" rx="4.86" fill="black"/>
<path fill-rule="evenodd" clip-rule="evenodd" d="M8.04987 3.34H8.01987L8.03989 3.56L7.98987 3.62V3.74L7.91986 3.75C7.91986 3.75 7.88986 3.75 7.85986 3.75L7.82986 3.95L7.76987 3.98V4.01L7.53989 4.09H7.49988L7.40988 4.18C7.37988 4.15 7.33989 4.14 7.28989 4.15C7.26989 4.15 7.25987 4.16 7.23987 4.17L7.21988 4.13L6.84988 4.1L6.81989 4.06H6.72989L6.56989 3.93L6.51987 3.77L6.54987 3.7H6.57986V3.6H6.62988L6.56989 3.54L6.54987 3.45V3.28L6.61987 3.27V3.24C6.61987 3.24 6.61987 3.18 6.64987 3.17L6.70987 3.19L6.75989 2.98L6.90988 2.92V2.87H6.95987V2.84L7.00989 2.75C7.11989 2.68 7.22986 2.64 7.35986 2.61C7.40986 2.63 7.43986 2.64 7.44986 2.64C7.45986 2.64 7.49988 2.64 7.55988 2.64L7.66986 2.72L7.68988 2.8C7.74988 2.82 7.80986 2.83 7.85986 2.83L7.78989 2.86V2.89L7.87988 2.9H7.83987V2.95L7.99988 2.98L8.01987 3.02V3.11C8.01987 3.11 8.02989 3.14 8.03989 3.15C8.04989 3.16 8.04988 3.16 8.05988 3.16C8.05988 3.16 8.07988 3.16 8.09988 3.16V3.21L8.05988 3.33L8.04987 3.34ZM6.95987 3.32H6.89987L6.90988 3.39H6.96988L6.95987 3.32ZM7.62988 3.6L7.60986 3.53L7.58987 3.5H7.54987V3.57L7.62988 3.6ZM7.60986 3.47V3.42H7.55988V3.45H7.60986V3.47ZM7.38986 3.48V3.51H7.42987L7.38986 3.49V3.48ZM7.45987 2.98H7.41986V3.02H7.47989L7.44986 2.98H7.45987ZM7.60986 3.13L7.56989 3.08H7.52988L7.53989 3.15L7.55988 3.19H7.61987V3.13H7.60986ZM7.00989 5.1C7.00989 5.1 7.00987 5.1 7.01987 5.1L7.04987 5.14H7.47989L7.50989 5.19H7.60986L7.80988 5.32L7.87988 5.49L7.84988 5.57H7.81989V5.69H7.76987L7.83987 5.75L7.86987 5.85V6.05L7.79987 6.07V6.1C7.79987 6.1 7.79988 6.16 7.77988 6.18H7.70987L7.66986 6.41L7.49988 6.49V6.54L7.44986 6.55V6.58L7.39987 6.68C7.27987 6.76 7.14988 6.82 6.99988 6.86C6.93988 6.84 6.90986 6.83 6.88986 6.83C6.86986 6.83 6.82989 6.83 6.75989 6.83L6.71988 6.8L6.69986 6.9L6.39987 7.05V7.14L6.30988 7.16L6.32986 7.22L6.21988 7.4C6.00988 7.54 5.77987 7.65 5.51987 7.72C5.41987 7.69 5.35986 7.67 5.32986 7.67C5.29986 7.67 5.22986 7.67 5.10986 7.67L4.87988 7.52L4.83987 7.37C4.71987 7.33 4.59987 7.32 4.48987 7.34L4.62988 7.27L4.60986 7.21L4.44986 7.19L4.53989 7.17L4.50989 7.08L4.18988 7.04L4.13986 6.96V6.77C4.13986 6.77 4.09987 6.71 4.08987 6.69C4.07987 6.67 4.05987 6.67 4.04987 6.66C4.02987 6.66 4.00988 6.66 3.96988 6.66L3.93988 6.57L4.02988 6.33L4.08987 6.31L4.03989 5.88L4.12988 5.76V5.51C4.19988 5.49 4.24989 5.48 4.25989 5.48C4.26989 5.48 4.30986 5.48 4.38986 5.48L4.42987 5.06L4.53989 4.99L4.51987 4.93L4.99988 4.73H5.08987L5.25989 4.54C5.32989 4.6 5.41988 4.61 5.49988 4.59C5.52988 4.59 5.56988 4.57 5.59988 4.54L5.64987 4.62H6.39987L6.45987 4.71H6.63986L6.98987 4.95L7.02988 5.05L7.00989 5.1ZM7.39987 6.05L7.46988 6.03L7.44986 5.96L7.37988 5.98L7.39987 6.05ZM4.92987 6.75L5.01987 6.85L5.10986 6.83L5.07986 6.71L5.02988 6.63L4.90988 6.66L4.93988 6.75H4.92987ZM4.91986 6.15L5.00989 6.13L4.98987 6.07H4.88986L4.91986 6.15ZM4.84988 5.79L4.88986 5.94L4.92987 5.99L5.01987 5.97V5.84L4.84988 5.79ZM5.32986 6.95H5.19986L5.25989 7.03L5.34988 7.01L5.32986 6.95ZM5.32986 5.94L5.26987 5.96L5.34988 6L5.32986 5.94ZM5.81989 2.76C5.81989 2.76 5.79989 2.78 5.75989 2.82L5.92987 3.03L5.90988 3.11L5.93988 3.13L5.79987 3.43L5.74988 3.47V3.64C5.74988 3.64 5.65988 3.67 5.62988 3.72C5.61988 3.74 5.60988 3.76 5.59988 3.79L5.53989 3.77L5.17987 4.09H5.11987L5.02988 4.15L4.76987 4.2L4.57986 4.11L4.53989 4.02L4.55988 3.99L4.47989 3.9L4.50989 3.85H4.40988L4.30988 3.8L4.15988 3.63L4.19986 3.57L4.16986 3.55C4.16986 3.55 4.11988 3.5 4.12988 3.45L4.19986 3.41L4.03989 3.18L4.11987 2.98L4.07986 2.93L4.10986 2.88L4.07986 2.86L4.04987 2.73C4.08987 2.57 4.14987 2.42 4.23987 2.28C4.29987 2.25 4.33988 2.23 4.34988 2.22C4.35988 2.21 4.39986 2.18 4.44986 2.12L4.62988 2.09L4.71988 2.14C4.78988 2.11 4.84987 2.06 4.89987 2L4.85986 2.09L4.88986 2.11L4.96988 2.05L4.93988 2.1L4.98987 2.13L5.15988 2.01L5.21988 2.03L5.29987 2.12C5.29987 2.12 5.34986 2.12 5.35986 2.13C5.36986 2.13 5.37986 2.13 5.38986 2.13C5.38986 2.13 5.40987 2.11 5.42987 2.09L5.47989 2.12L5.54987 2.27L5.52988 2.3L5.73987 2.48V2.58L5.85986 2.7C5.82986 2.75 5.80988 2.77 5.80988 2.78L5.81989 2.76ZM4.54987 3.27L4.50989 3.34L4.57986 3.38L4.61987 3.31L4.54987 3.27ZM4.67987 2.49L4.64987 2.54L4.67987 2.56L4.73987 2.5H4.67987V2.49ZM4.95987 2.48H4.86987L4.83987 2.52L4.90988 2.56L4.96988 2.58L5.00989 2.51L4.95987 2.48ZM5.08987 3.02L5.11987 3.04L5.13986 3.01H5.07986L5.08987 3.02ZM5.22989 2.76L5.19986 2.81L5.22989 2.83L5.27988 2.79L5.22989 2.76ZM5.32986 2.85H5.28989L5.25989 2.89L5.30988 2.95L5.40988 2.9L5.32986 2.85ZM3.50989 4.08L3.46988 4.18C3.46988 4.18 3.47989 4.22 3.47989 4.23C3.47989 4.24 3.47988 4.25 3.49988 4.25C3.49988 4.25 3.51989 4.26 3.53989 4.27V4.32L3.43988 4.42H3.40988L3.34988 4.64L3.27988 4.68L3.22989 4.81C3.22989 4.81 3.15987 4.81 3.14987 4.8C3.14987 4.8 3.11986 4.79 3.07986 4.78L2.96988 4.98H2.89987V5.02H2.60986L2.56989 5L2.43988 5.07C2.43988 5.07 2.36989 5 2.31989 5C2.29989 5 2.27989 5 2.25989 5V4.95L1.85986 4.79V4.74L1.74988 4.7L1.61987 4.52V4.34L1.67987 4.28H1.70987L1.74988 4.19H1.79987L1.74988 4.13V4.03L1.83987 3.85H1.89987V3.83C1.89987 3.79 1.91987 3.77 1.95987 3.77L2.01987 3.81L2.14987 3.61H2.33987L2.35986 3.55H2.40988V3.52L2.49988 3.45C2.63988 3.42 2.77987 3.41 2.92987 3.43C2.97987 3.47 3.00987 3.49 3.01987 3.49C3.02987 3.49 3.06986 3.51 3.13986 3.53L3.22989 3.66V3.74C3.22989 3.74 3.32987 3.82 3.39987 3.83H3.30988V3.87L3.38986 3.91H3.33987V3.96L3.49988 4.04V4.09L3.50989 4.08ZM2.19986 4V4.07H2.25989V4H2.19986ZM2.66986 4.33V4.36H2.69986L2.66986 4.32V4.33ZM2.79987 4.48L2.87988 4.54V4.46V4.43H2.82986L2.79987 4.49V4.48ZM2.86987 4.34V4.37L2.91986 4.4V4.35H2.86987V4.34ZM2.92987 3.83H2.87988V3.86L2.94986 3.88V3.83H2.92987ZM3.01987 3.97H2.96988V4.03V4.08H3.04987V4.03L3.02988 3.96L3.01987 3.97ZM2.15988 5.94V5.89H2.20987V5.86L2.25989 5.77C2.36989 5.7 2.47986 5.66 2.60986 5.63C2.65986 5.65 2.68986 5.66 2.69986 5.66C2.70986 5.66 2.74988 5.66 2.80988 5.66L2.91986 5.74L2.93988 5.82C2.99988 5.84 3.05986 5.85 3.10986 5.85L3.03989 5.88V5.91L3.12988 5.92H3.08987V5.97L3.24988 6L3.26987 6.04V6.13C3.26987 6.13 3.27989 6.16 3.28989 6.17C3.28989 6.17 3.29988 6.18 3.30988 6.18C3.30988 6.18 3.32988 6.18 3.34988 6.18V6.23L3.30988 6.35H3.27988L3.29987 6.57L3.24988 6.63V6.75L3.17987 6.76C3.17987 6.76 3.14987 6.76 3.11987 6.76L3.08987 6.96L3.02988 6.99V7.02L2.79987 7.1H2.75989L2.66986 7.19C2.63986 7.16 2.59987 7.15 2.54987 7.16C2.52987 7.16 2.51988 7.17 2.49988 7.18L2.47989 7.14L2.10986 7.11L2.07986 7.07H1.98987L1.82986 6.94L1.77988 6.78L1.80988 6.71H1.83987V6.61H1.88986L1.82986 6.55L1.80988 6.46V6.29L1.87988 6.28V6.25C1.87988 6.25 1.87988 6.19 1.90988 6.18L1.96988 6.2L2.01987 5.99L2.16986 5.93L2.15988 5.94ZM2.87988 6.19V6.14L2.82986 6.09H2.78989L2.79987 6.16L2.81989 6.2H2.87988V6.19ZM2.84988 6.44H2.80988V6.48H2.85986V6.44H2.84988ZM2.87988 6.62L2.85986 6.55L2.83987 6.52H2.79987V6.59L2.87988 6.62ZM2.66986 6.03H2.72989L2.69986 5.99H2.65988V6.03H2.66986ZM2.64987 6.53H2.67987L2.63986 6.5V6.53H2.64987ZM2.16986 6.4H2.22989L2.21988 6.33H2.15988L2.16986 6.4Z" fill="white"/>
</svg>
