<svg width="21" height="14" viewBox="0 0 21 14" fill="none" xmlns="http://www.w3.org/2000/svg">
<path d="M4.15234 5.15625V6H1.29297V5.15625H4.15234ZM1.61719 0.3125V6H0.542969V0.3125H1.61719ZM7.12109 5.10156V3.15234C7.12109 3.00911 7.09635 2.88542 7.04688 2.78125C6.9974 2.67708 6.92188 2.59635 6.82031 2.53906C6.71875 2.48177 6.58984 2.45312 6.43359 2.45312C6.29557 2.45312 6.17448 2.47656 6.07031 2.52344C5.96875 2.57031 5.89062 2.63672 5.83594 2.72266C5.78125 2.80599 5.75391 2.90234 5.75391 3.01172H4.71875C4.71875 2.83724 4.76042 2.67188 4.84375 2.51562C4.92708 2.35677 5.04557 2.21615 5.19922 2.09375C5.35547 1.96875 5.54167 1.87109 5.75781 1.80078C5.97656 1.73047 6.22135 1.69531 6.49219 1.69531C6.8125 1.69531 7.09766 1.75 7.34766 1.85938C7.60026 1.96615 7.79818 2.1276 7.94141 2.34375C8.08724 2.5599 8.16016 2.83203 8.16016 3.16016V5.00391C8.16016 5.21484 8.17318 5.39583 8.19922 5.54688C8.22786 5.69531 8.26953 5.82422 8.32422 5.93359V6H7.27344C7.22396 5.89323 7.1862 5.75781 7.16016 5.59375C7.13411 5.42708 7.12109 5.26302 7.12109 5.10156ZM7.26562 3.42578L7.27344 4.03906H6.62109C6.45964 4.03906 6.31771 4.05599 6.19531 4.08984C6.07292 4.12109 5.97266 4.16797 5.89453 4.23047C5.81641 4.29036 5.75781 4.36328 5.71875 4.44922C5.67969 4.53255 5.66016 4.6276 5.66016 4.73438C5.66016 4.83854 5.68359 4.93229 5.73047 5.01562C5.77995 5.09896 5.85026 5.16536 5.94141 5.21484C6.03516 5.26172 6.14453 5.28516 6.26953 5.28516C6.45182 5.28516 6.61068 5.2487 6.74609 5.17578C6.88151 5.10026 6.98698 5.00911 7.0625 4.90234C7.13802 4.79557 7.17839 4.69401 7.18359 4.59766L7.48047 5.04297C7.44401 5.14974 7.38932 5.26302 7.31641 5.38281C7.24349 5.5026 7.14974 5.61458 7.03516 5.71875C6.92057 5.82292 6.78255 5.90885 6.62109 5.97656C6.45964 6.04427 6.27214 6.07812 6.05859 6.07812C5.78516 6.07812 5.54036 6.02344 5.32422 5.91406C5.10807 5.80469 4.9375 5.65495 4.8125 5.46484C4.6875 5.27474 4.625 5.05859 4.625 4.81641C4.625 4.59245 4.66667 4.39453 4.75 4.22266C4.83333 4.05078 4.95703 3.90625 5.12109 3.78906C5.28516 3.66927 5.48828 3.57943 5.73047 3.51953C5.97526 3.45703 6.25521 3.42578 6.57031 3.42578H7.26562ZM10.2656 4.98438L11.1914 1.77344H11.8477L11.6523 2.88281L10.7188 6H10.1523L10.2656 4.98438ZM9.75391 1.77344L10.4492 4.99219L10.5117 6H9.85938L8.75 1.77344H9.75391ZM12.707 4.94531L13.3867 1.77344H14.3867L13.2852 6H12.6328L12.707 4.94531ZM11.9492 1.77344L12.8672 4.95312L12.9883 6H12.4219L11.4805 2.88281L11.2891 1.77344H11.9492Z" fill="white"/>
<path d="M1.61719 8.3125V14H0.542969V8.3125H1.61719ZM3.91016 10.7695V11.6172H1.33594V10.7695H3.91016ZM4.21094 8.3125V9.16016H1.33594V8.3125H4.21094ZM6.08594 8.3125V14H5.01172V8.3125H6.08594ZM8.19922 10.6367V14H7.16797V9.77344H8.14453L8.19922 10.6367ZM9.48438 9.74609L9.46875 10.707C9.41146 10.6966 9.34635 10.6888 9.27344 10.6836C9.20312 10.6784 9.13672 10.6758 9.07422 10.6758C8.91536 10.6758 8.77604 10.6979 8.65625 10.7422C8.53646 10.7839 8.4362 10.8451 8.35547 10.9258C8.27734 11.0065 8.21745 11.1055 8.17578 11.2227C8.13411 11.3372 8.11068 11.4674 8.10547 11.6133L7.88281 11.5859C7.88281 11.3177 7.91016 11.069 7.96484 10.8398C8.01953 10.6107 8.09896 10.4102 8.20312 10.2383C8.30729 10.0664 8.4375 9.93359 8.59375 9.83984C8.7526 9.74349 8.9349 9.69531 9.14062 9.69531C9.19792 9.69531 9.25911 9.70052 9.32422 9.71094C9.39193 9.71875 9.44531 9.73047 9.48438 9.74609ZM11.0781 10.6406V14H10.0469V9.77344H11.0195L11.0781 10.6406ZM10.9258 11.7344H10.6094C10.6094 11.4401 10.6445 11.1693 10.7148 10.9219C10.7878 10.6745 10.8945 10.4596 11.0352 10.2773C11.1758 10.0924 11.349 9.94922 11.5547 9.84766C11.763 9.74609 12.0039 9.69531 12.2773 9.69531C12.4674 9.69531 12.6419 9.72396 12.8008 9.78125C12.9596 9.83594 13.0964 9.92318 13.2109 10.043C13.3281 10.1602 13.418 10.3138 13.4805 10.5039C13.543 10.6914 13.5742 10.9167 13.5742 11.1797V14H12.543V11.2852C12.543 11.0872 12.5143 10.9323 12.457 10.8203C12.4023 10.7083 12.3229 10.6302 12.2188 10.5859C12.1146 10.5391 11.9896 10.5156 11.8438 10.5156C11.6823 10.5156 11.543 10.5482 11.4258 10.6133C11.3112 10.6758 11.2161 10.763 11.1406 10.875C11.0677 10.987 11.013 11.1159 10.9766 11.2617C10.9427 11.4076 10.9258 11.5651 10.9258 11.7344ZM13.4961 11.543L13.0703 11.6211C13.0729 11.3555 13.1094 11.1068 13.1797 10.875C13.25 10.6406 13.3529 10.4362 13.4883 10.2617C13.6263 10.0846 13.7969 9.94661 14 9.84766C14.2057 9.74609 14.4427 9.69531 14.7109 9.69531C14.9193 9.69531 15.1068 9.72526 15.2734 9.78516C15.4427 9.84245 15.5872 9.9349 15.707 10.0625C15.8268 10.1875 15.918 10.3503 15.9805 10.5508C16.0456 10.7513 16.0781 10.9961 16.0781 11.2852V14H15.0391V11.2812C15.0391 11.0755 15.0104 10.918 14.9531 10.8086C14.8984 10.6992 14.819 10.6237 14.7148 10.582C14.6107 10.5378 14.4883 10.5156 14.3477 10.5156C14.2044 10.5156 14.0794 10.543 13.9727 10.5977C13.8685 10.6497 13.7799 10.7227 13.707 10.8164C13.6367 10.9102 13.5833 11.0195 13.5469 11.1445C13.513 11.2669 13.4961 11.3997 13.4961 11.543ZM17.0352 11.2852L17.8711 10.2148L16.6445 9.86328L16.8672 9.19531L18.0781 9.67188L18.0117 8.3125H18.7305L18.6602 9.69531L19.8516 9.22656L20.0664 9.90234L18.8203 10.2578L19.6367 11.3047L19.0547 11.7188L18.332 10.5781L17.6172 11.6836L17.0352 11.2852Z" fill="white"/>
</svg>
