<svg width="5" height="5" viewBox="0 0 5 5" fill="none" xmlns="http://www.w3.org/2000/svg">
<g clip-path="url(#clip0_16_6843)">
<path fill-rule="evenodd" clip-rule="evenodd" d="M2.5 0.0986328C2.42913 0.0986328 2.35974 0.118907 2.30003 0.157062C2.24107 0.19473 2.19397 0.248272 2.16412 0.311506L1.59713 1.45618C1.59602 1.45843 1.59495 1.4607 1.59393 1.463C1.59368 1.46357 1.59328 1.46406 1.59277 1.46443C1.59227 1.4648 1.59168 1.46503 1.59106 1.4651C1.58888 1.46534 1.58671 1.46562 1.58455 1.46594L0.336126 1.65089C0.267125 1.6576 0.201325 1.6835 0.146212 1.72571C0.0891866 1.76939 0.0460502 1.82867 0.0220287 1.89637C-0.00199277 1.96406 -0.00586889 2.03727 0.0108701 2.10713C0.0275442 2.17671 0.0639616 2.24 0.115735 2.28937L1.02958 3.17109L1.03167 3.17307C1.03297 3.17429 1.03395 3.17581 1.03452 3.17751C1.03508 3.1792 1.03521 3.18101 1.0349 3.18277L1.0347 3.18394L0.816934 4.45836C0.804969 4.52743 0.812544 4.59879 0.838905 4.66372C0.865302 4.72879 0.90943 4.78511 0.966262 4.82633C1.0231 4.86751 1.09036 4.89193 1.16038 4.89679C1.23027 4.90165 1.30012 4.88683 1.36202 4.85404L1.36239 4.85383L2.48721 4.25936C2.49124 4.25761 2.4956 4.25668 2.50001 4.25668C2.50442 4.25668 2.50878 4.25761 2.51281 4.25936L3.63761 4.85383C3.69954 4.88672 3.76968 4.90168 3.83961 4.89679C3.90964 4.89193 3.97689 4.86751 4.03375 4.82633C4.09057 4.78511 4.13472 4.72879 4.16111 4.66372C4.18747 4.59879 4.19507 4.52779 4.18314 4.45876L4.18307 4.45836L3.96532 3.18393L3.96511 3.18277C3.96479 3.18101 3.96493 3.1792 3.9655 3.17751C3.96604 3.17582 3.96704 3.17429 3.96832 3.17307L3.97043 3.17109L4.88429 2.28936C4.93604 2.23998 4.97247 2.17671 4.98914 2.10713C5.00586 2.03727 5.002 1.96406 4.97797 1.89637C4.95397 1.82867 4.91082 1.76939 4.85379 1.72571C4.79868 1.6835 4.73289 1.6576 4.66389 1.65089L3.41546 1.46594C3.41329 1.46562 3.41112 1.46534 3.40895 1.4651C3.40833 1.46503 3.40773 1.4648 3.40723 1.46443C3.40673 1.46406 3.40633 1.46357 3.40608 1.463C3.40506 1.4607 3.40399 1.45843 3.40288 1.45618L2.83589 0.311501C2.80604 0.24827 2.75893 0.194729 2.69998 0.157062C2.64026 0.118907 2.57087 0.0986328 2.5 0.0986328Z" fill="#439EF9"/>
</g>
<defs>
<clipPath id="clip0_16_6843">
<rect width="5" height="5" fill="white"/>
</clipPath>
</defs>
</svg>
