<svg width="16" height="16" viewBox="0 0 16 16" fill="none" xmlns="http://www.w3.org/2000/svg">
<g clip-path="url(#clip0_6_393)">
<path d="M8 9.14285C9.57795 9.14285 10.8571 7.86366 10.8571 6.28571C10.8571 4.70775 9.57795 3.42857 8 3.42857C6.42204 3.42857 5.14285 4.70775 5.14285 6.28571C5.14285 7.86366 6.42204 9.14285 8 9.14285Z" stroke="#727171" stroke-linecap="round" stroke-linejoin="round"/>
<path d="M3.11998 13.6C3.62997 12.7629 4.34673 12.071 5.20136 11.591C6.05599 11.1108 7.01974 10.8587 7.99998 10.8587C8.98022 10.8587 9.94397 11.1108 10.7986 11.591C11.6533 12.071 12.3699 12.7629 12.88 13.6" stroke="#727171" stroke-linecap="round" stroke-linejoin="round"/>
<path d="M8 15.4286C12.1027 15.4286 15.4286 12.1027 15.4286 8C15.4286 3.89731 12.1027 0.571426 8 0.571426C3.89731 0.571426 0.571426 3.89731 0.571426 8C0.571426 12.1027 3.89731 15.4286 8 15.4286Z" stroke="#727171" stroke-linecap="round" stroke-linejoin="round"/>
</g>
<defs>
<clipPath id="clip0_6_393">
<rect width="16" height="16" fill="white"/>
</clipPath>
</defs>
</svg>
