<svg width="10" height="10" viewBox="0 0 10 10" fill="none" xmlns="http://www.w3.org/2000/svg">
<path fill-rule="evenodd" clip-rule="evenodd" d="M3.38594 9.46749H1.13594C1.01594 9.46749 0.905945 9.3675 0.905945 9.2375V4.9575H0.225945C0.135945 4.9575 0.0559459 4.9075 0.0159459 4.8175C-0.0140541 4.7375 -0.00405482 4.6375 0.0659452 4.5675L4.56594 0.0675C4.65594 -0.0225 4.79594 -0.0225 4.88594 0.0675L9.38594 4.5675C9.44594 4.6275 9.46594 4.7275 9.43594 4.8175C9.40594 4.8975 9.31595 4.9575 9.22595 4.9575H8.54595V9.2375C8.54595 9.3575 8.44594 9.46749 8.31594 9.46749H6.06594C6.00594 9.46749 5.94595 9.4475 5.90595 9.3975C5.86595 9.3575 5.83595 9.2975 5.83595 9.2375V6.5375C5.83595 6.4175 5.73594 6.30751 5.60594 6.30751H3.80595C3.68595 6.30751 3.57594 6.4075 3.57594 6.5375V9.2375C3.57594 9.2975 3.55594 9.3575 3.50594 9.3975C3.46594 9.4375 3.40595 9.46749 3.34595 9.46749H3.38594Z" fill="black"/>
</svg>
